<?xml version="1.0"?>
<svg width="40" height="56" xmlns="http://www.w3.org/2000/svg" xmlns:svg="http://www.w3.org/2000/svg" enable-background="new 0 0 450 450" version="1.1" xml:space="preserve">
 <g class="layer">
  <title>Layer 1</title>
  <g id="svg_1833" transform="translate(-8.71413, 0.10627) matrix(1, 0, 0, 1, -99.0284, -252.83)">
   <g id="svg_1834">
    <g id="svg_1835">
     <g id="svg_1836">
      <path d="m112.28,308.58c-2.35,0.01 -4.27,-1.87 -4.28,-4.19l-0.12,-47.3c-0.01,-2.33 1.91,-4.22 4.27,-4.21l31.26,0.05c2.35,0.01 4.27,1.9 4.27,4.23l0,47.2c0,2.31 -1.91,4.18 -4.25,4.19l-31.15,0.03z" fill="#C9C9C9" id="svg_1837"/>
     </g>
     <path d="m112.67,308.47c-2.32,0 -4.22,-1.89 -4.22,-4.2l0,-47.19c0,-2.32 1.89,-4.2 4.22,-4.2l30.8,0c2.33,0 4.22,1.88 4.22,4.2l0,47.19c0,2.31 -1.9,4.2 -4.22,4.2l-30.8,0z" fill="#FFFFFF" id="svg_1838"/>
     <g id="svg_1839">
      <path d="m111.37,260.28c0,0.08 -0.13,0.19 -0.38,0.36c-0.28,0.18 -0.52,0.27 -0.72,0.27c-0.12,0 -0.2,-0.05 -0.27,-0.15c-0.05,-0.08 -0.07,-0.15 -0.07,-0.21l0,-3.17c0,-0.06 -0.01,-0.11 -0.03,-0.13c-0.02,-0.02 -0.05,-0.04 -0.09,-0.04c-0.02,0 -0.07,0.01 -0.14,0.03c-0.08,0.02 -0.13,0.02 -0.17,0.01c-0.02,-0.02 -0.02,-0.04 -0.02,-0.05c0,-0.05 0.05,-0.1 0.14,-0.17c0.1,-0.06 0.2,-0.14 0.31,-0.24c0.08,-0.07 0.17,-0.14 0.26,-0.22c0.1,-0.07 0.17,-0.1 0.23,-0.1c0.1,0 0.2,0.05 0.3,0.16c0.09,0.11 0.14,0.22 0.14,0.32l0,3.36c0.02,0.02 0.03,0.03 0.04,0.03c0.03,0.03 0.05,0.04 0.07,0.04c0.03,-0.01 0.05,-0.02 0.07,-0.03c0.06,-0.02 0.12,-0.07 0.21,-0.13l0.1,0l0.02,0.06z" fill="#333333" id="svg_1840"/>
      <path d="m115.25,258.74c0,0.25 -0.05,0.48 -0.15,0.7c-0.16,0.36 -0.43,0.68 -0.82,0.95c-0.22,0.15 -0.37,0.26 -0.47,0.31c-0.25,0.13 -0.53,0.2 -0.84,0.2c-0.47,0 -0.86,-0.21 -1.16,-0.61c-0.28,-0.38 -0.42,-0.82 -0.42,-1.34c0,-0.33 0.09,-0.66 0.26,-1c0.11,-0.22 0.25,-0.43 0.43,-0.63c0.22,-0.24 0.44,-0.43 0.67,-0.58c0.3,-0.19 0.59,-0.28 0.87,-0.28c0.5,0 0.9,0.24 1.21,0.73c0.28,0.44 0.42,0.96 0.42,1.55zm-0.93,0.67c0,-0.3 -0.04,-0.59 -0.12,-0.87c-0.08,-0.28 -0.2,-0.54 -0.36,-0.78c-0.17,-0.26 -0.34,-0.46 -0.5,-0.56c-0.11,-0.08 -0.21,-0.12 -0.31,-0.12c-0.23,0 -0.41,0.11 -0.56,0.33c-0.14,0.21 -0.21,0.46 -0.21,0.74c0,0.17 0.01,0.33 0.04,0.48c0.05,0.23 0.14,0.49 0.28,0.78c0.16,0.34 0.33,0.59 0.52,0.75c0.16,0.13 0.32,0.2 0.47,0.2c0.24,0 0.42,-0.09 0.55,-0.26c0.13,-0.16 0.2,-0.4 0.2,-0.69z" fill="#333333" id="svg_1841"/>
     </g>
     <g id="svg_1842">
      <path d="m145.03,301.58c0,-0.07 0.13,-0.19 0.38,-0.35c0.28,-0.19 0.52,-0.28 0.73,-0.28c0.11,0 0.19,0.05 0.26,0.16c0.05,0.07 0.07,0.14 0.07,0.21l0,3.17c0,0.06 0.01,0.1 0.03,0.13c0.02,0.02 0.05,0.03 0.09,0.03c0.02,0 0.07,-0.01 0.14,-0.03c0.08,-0.01 0.13,-0.01 0.17,0c0.02,0.02 0.03,0.03 0.03,0.05c0,0.04 -0.05,0.1 -0.15,0.16c-0.1,0.07 -0.2,0.15 -0.31,0.24c-0.08,0.08 -0.17,0.15 -0.26,0.23c-0.09,0.06 -0.17,0.1 -0.23,0.1c-0.1,0 -0.2,-0.06 -0.29,-0.17c-0.1,-0.11 -0.15,-0.21 -0.15,-0.31l0,-3.36c-0.02,-0.02 -0.03,-0.03 -0.04,-0.04c-0.02,-0.02 -0.05,-0.03 -0.06,-0.03c-0.04,0.01 -0.06,0.02 -0.08,0.02c-0.06,0.03 -0.12,0.07 -0.21,0.13l-0.1,0l-0.02,-0.06z" fill="#333333" id="svg_1843"/>
      <path d="m141.15,303.12c0,-0.24 0.05,-0.47 0.15,-0.7c0.16,-0.35 0.43,-0.67 0.82,-0.94c0.21,-0.16 0.38,-0.26 0.47,-0.31c0.25,-0.14 0.53,-0.2 0.84,-0.2c0.47,0 0.86,0.2 1.16,0.61c0.27,0.37 0.42,0.82 0.42,1.33c0,0.34 -0.09,0.67 -0.26,1.01c-0.11,0.21 -0.25,0.42 -0.43,0.62c-0.22,0.25 -0.44,0.44 -0.67,0.59c-0.3,0.18 -0.59,0.28 -0.87,0.28c-0.5,0 -0.9,-0.25 -1.21,-0.73c-0.28,-0.44 -0.42,-0.96 -0.42,-1.56zm0.93,-0.67c0,0.3 0.04,0.59 0.12,0.87c0.08,0.29 0.2,0.55 0.36,0.79c0.17,0.26 0.34,0.45 0.5,0.56c0.11,0.08 0.21,0.12 0.31,0.12c0.22,0 0.41,-0.11 0.56,-0.33c0.14,-0.22 0.21,-0.47 0.21,-0.74c0,-0.17 -0.01,-0.34 -0.05,-0.49c-0.05,-0.23 -0.14,-0.49 -0.27,-0.77c-0.16,-0.35 -0.33,-0.6 -0.52,-0.75c-0.16,-0.14 -0.32,-0.2 -0.48,-0.2c-0.23,0 -0.41,0.08 -0.54,0.25c-0.13,0.17 -0.2,0.4 -0.2,0.69z" fill="#333333" id="svg_1844"/>
     </g>
    </g>
    <g id="svg_1845">
     <g id="svg_1846">
      <path d="m139.81,262.26c0,-1 -4.36,-5.29 -4.36,-5.29s0,0 -0.01,0.01l0,10.3l2.04,0l-1.62,-2.79c0.38,0.24 0.84,0.38 1.34,0.38c1.44,0 2.61,-1.17 2.61,-2.61z" fill="#616161" id="svg_1847" opacity="0.2"/>
     </g>
     <g id="svg_1848">
      <path d="m139.81,274.63c0,-1.01 -4.36,-5.3 -4.36,-5.3s0,0.01 -0.01,0.01l0,10.3l2.04,0.01l-1.62,-2.8c0.38,0.24 0.84,0.38 1.34,0.38c1.44,0 2.61,-1.16 2.61,-2.6z" fill="#616161" id="svg_1849" opacity="0.2"/>
     </g>
     <g id="svg_1850">
      <path d="m116.36,262.26c0,-1 4.37,-5.29 4.37,-5.29s0,0 0,0.01l0,10.3l-2.03,0l1.62,-2.79c-0.39,0.24 -0.85,0.38 -1.34,0.38c-1.44,0 -2.62,-1.17 -2.62,-2.61z" fill="#616161" id="svg_1851" opacity="0.2"/>
     </g>
     <g id="svg_1852">
      <path d="m123.77,269.33c0,-1.01 4.36,-5.29 4.36,-5.29s0.01,0 0.01,0l0,10.3l-2.03,0.01l1.62,-2.8c-0.39,0.24 -0.85,0.38 -1.34,0.38c-1.44,0 -2.62,-1.16 -2.62,-2.6z" fill="#616161" id="svg_1853" opacity="0.2"/>
     </g>
     <g id="svg_1854">
      <path d="m116.36,274.63c0,-1.01 4.37,-5.3 4.37,-5.3s0,0.01 0,0.01l0,10.3l-2.03,0.01l1.62,-2.8c-0.39,0.24 -0.85,0.38 -1.34,0.38c-1.44,0 -2.62,-1.16 -2.62,-2.6z" fill="#616161" id="svg_1855" opacity="0.2"/>
     </g>
     <g id="svg_1856">
      <path d="m139.79,299.29c0.01,1.01 -4.36,5.3 -4.36,5.3s0,-0.01 -0.01,-0.01l0,-10.3l2.04,-0.01l-1.63,2.79c0.39,-0.23 0.85,-0.37 1.34,-0.37c1.45,0 2.62,1.16 2.62,2.6z" fill="#616161" id="svg_1857" opacity="0.2"/>
     </g>
     <g id="svg_1858">
      <path d="m139.79,286.93c0.01,1 -4.36,5.29 -4.36,5.29s0,0 -0.01,-0.01l0,-10.3l2.04,0l-1.63,2.79c0.39,-0.24 0.85,-0.37 1.34,-0.38c1.45,0 2.62,1.17 2.62,2.61z" fill="#616161" id="svg_1859" opacity="0.2"/>
     </g>
     <g id="svg_1860">
      <path d="m116.35,299.29c-0.01,1.01 4.36,5.3 4.36,5.3s0,-0.01 0.01,-0.01l0,-10.3l-2.04,-0.01l1.62,2.79c-0.38,-0.23 -0.84,-0.37 -1.34,-0.37c-1.44,0 -2.61,1.16 -2.61,2.6z" fill="#616161" id="svg_1861" opacity="0.2"/>
     </g>
     <g id="svg_1862">
      <path d="m123.75,292.13c0,1.01 4.36,5.3 4.36,5.3s0.01,-0.01 0.01,-0.01l0,-10.3l-2.03,0l1.62,2.79c-0.39,-0.24 -0.85,-0.38 -1.34,-0.38c-1.44,-0.01 -2.62,1.16 -2.62,2.6z" fill="#616161" id="svg_1863" opacity="0.2"/>
     </g>
     <g id="svg_1864">
      <path d="m116.35,286.93c-0.01,1 4.36,5.29 4.36,5.29s0,0 0.01,-0.01l0,-10.3l-2.04,0l1.62,2.79c-0.38,-0.24 -0.84,-0.37 -1.34,-0.38c-1.44,0 -2.61,1.17 -2.61,2.61z" fill="#616161" id="svg_1865" opacity="0.2"/>
     </g>
     <g id="svg_1866">
      <path d="m113.11,264.16c0,-0.26 -1.17,-1.41 -1.17,-1.41l0,0.01l0,2.74l0.55,0l-0.44,-0.74c0.11,0.06 0.23,0.1 0.36,0.1c0.38,0 0.7,-0.31 0.7,-0.7z" fill="#616161" id="svg_1867" opacity="0.2"/>
     </g>
     <g id="svg_1868">
      <path d="m143.47,297.84c0,0.26 1.17,1.4 1.17,1.4s0,0 0,0l0,-2.74l-0.54,0l0.43,0.74c-0.11,-0.06 -0.23,-0.1 -0.36,-0.1c-0.38,0 -0.7,0.31 -0.7,0.7z" fill="#616161" id="svg_1869" opacity="0.2"/>
     </g>
    </g>
   </g>
   <g id="svg_1870">
    <path d="m113.35,263.63c-0.04,0.7 -1.43,1.75 -1.43,1.75s-1.44,-1.06 -1.44,-1.76c0,-0.48 0.39,-0.87 0.87,-0.87c0.27,0 0.57,0.25 0.57,0.25s0.28,-0.25 0.56,-0.24c0.48,0 0.89,0.39 0.87,0.87z" fill="#D66142" id="svg_1871"/>
    <path d="m112.48,262.76c-0.28,-0.01 -0.56,0.24 -0.56,0.24s-0.01,-0.01 -0.01,-0.01l0,2.39c0,0 0,0 0,0s1.4,-1.05 1.44,-1.75c0.02,-0.48 -0.39,-0.87 -0.87,-0.87z" fill="#616161" id="svg_1872" opacity="0.2"/>
   </g>
   <g id="svg_1873">
    <path d="m116.66,260.88c0.1,1.98 4.07,4.99 4.07,4.99s4.09,-3.03 4.09,-5.02c0,-1.36 -1.12,-2.47 -2.48,-2.47c-0.77,0 -1.62,0.69 -1.62,0.69s-0.81,-0.69 -1.6,-0.68c-1.37,0.02 -2.54,1.12 -2.46,2.49z" fill="#D66142" id="svg_1874"/>
    <path d="m119.12,258.39c0.79,-0.01 1.6,0.69 1.6,0.69s0.01,-0.01 0.03,-0.02l0,6.8c-0.01,0.01 -0.02,0.01 -0.02,0.01s-3.97,-3.01 -4.07,-4.99c-0.08,-1.37 1.09,-2.47 2.46,-2.49z" fill="#616161" id="svg_1875" opacity="0.2"/>
   </g>
   <g id="svg_1876">
    <path d="m123.98,266.62c0.1,1.98 4.08,4.99 4.08,4.99s4.09,-3.03 4.09,-5.02c0,-1.36 -1.12,-2.46 -2.49,-2.46c-0.76,0 -1.62,0.69 -1.62,0.69s-0.81,-0.69 -1.6,-0.68c-1.36,0.02 -2.53,1.11 -2.46,2.48z" fill="#D66142" id="svg_1877"/>
    <path d="m126.44,264.14c0.79,-0.01 1.6,0.68 1.6,0.68s0.02,-0.01 0.03,-0.02l0,6.81c0,0 -0.01,0 -0.01,0s-3.97,-3.01 -4.08,-4.99c-0.07,-1.37 1.1,-2.46 2.46,-2.48z" fill="#616161" id="svg_1878" opacity="0.2"/>
   </g>
   <g id="svg_1879">
    <path d="m139.52,260.88c-0.1,1.98 -4.08,4.99 -4.08,4.99s-4.08,-3.03 -4.08,-5.02c0,-1.36 1.11,-2.47 2.48,-2.47c0.77,0 1.62,0.69 1.62,0.69s0.81,-0.69 1.6,-0.68c1.36,0.02 2.54,1.12 2.46,2.49z" fill="#D66142" id="svg_1880"/>
    <path d="m137.06,258.39c-0.79,-0.01 -1.6,0.69 -1.6,0.69s-0.01,-0.01 -0.03,-0.02l0,6.8c0.01,0.01 0.01,0.01 0.01,0.01s3.98,-3.01 4.08,-4.99c0.08,-1.37 -1.1,-2.47 -2.46,-2.49z" fill="#616161" id="svg_1881" opacity="0.2"/>
   </g>
   <g id="svg_1882">
    <path d="m116.66,273.12c0.1,1.98 4.07,5 4.07,5s4.09,-3.04 4.09,-5.02c0,-1.37 -1.12,-2.47 -2.48,-2.47c-0.77,0 -1.62,0.69 -1.62,0.69s-0.81,-0.69 -1.6,-0.68c-1.37,0.02 -2.54,1.11 -2.46,2.48z" fill="#D66142" id="svg_1883"/>
    <path d="m119.12,270.64c0.79,-0.01 1.6,0.68 1.6,0.68s0.01,-0.01 0.03,-0.02l0,6.81c-0.01,0 -0.02,0.01 -0.02,0.01s-3.97,-3.02 -4.07,-5c-0.08,-1.37 1.09,-2.46 2.46,-2.48z" fill="#616161" id="svg_1884" opacity="0.2"/>
   </g>
   <g id="svg_1885">
    <path d="m139.52,273.12c-0.1,1.98 -4.08,5 -4.08,5s-4.08,-3.04 -4.08,-5.02c0,-1.37 1.11,-2.47 2.48,-2.47c0.77,0 1.62,0.69 1.62,0.69s0.81,-0.69 1.6,-0.68c1.36,0.02 2.54,1.11 2.46,2.48z" fill="#D66142" id="svg_1886"/>
    <path d="m137.06,270.64c-0.79,-0.01 -1.6,0.68 -1.6,0.68s-0.01,-0.01 -0.03,-0.02l0,6.81c0.01,0 0.01,0.01 0.01,0.01s3.98,-3.02 4.08,-5c0.08,-1.37 -1.1,-2.46 -2.46,-2.48z" fill="#616161" id="svg_1887" opacity="0.2"/>
   </g>
   <g id="svg_1888">
    <path d="m116.66,300.11c0.1,-1.98 4.07,-4.99 4.07,-4.99s4.09,3.03 4.09,5.02c0,1.36 -1.12,2.46 -2.48,2.46c-0.77,0 -1.62,-0.69 -1.62,-0.69s-0.81,0.69 -1.6,0.68c-1.37,-0.02 -2.54,-1.11 -2.46,-2.48z" fill="#D66142" id="svg_1889"/>
    <path d="m119.12,302.59c0.79,0.01 1.6,-0.68 1.6,-0.68s0.01,0.01 0.03,0.02l0,-6.8c-0.01,-0.01 -0.02,-0.01 -0.02,-0.01s-3.97,3.01 -4.07,4.99c-0.08,1.37 1.09,2.46 2.46,2.48z" fill="#616161" id="svg_1890" opacity="0.2"/>
   </g>
   <g id="svg_1891">
    <path d="m123.98,294.37c0.1,-1.99 4.08,-4.99 4.08,-4.99s4.09,3.03 4.09,5.01c0,1.37 -1.12,2.47 -2.49,2.47c-0.76,0 -1.62,-0.69 -1.62,-0.69s-0.81,0.69 -1.6,0.68c-1.36,-0.02 -2.53,-1.12 -2.46,-2.48z" fill="#D66142" id="svg_1892"/>
    <path d="m126.44,296.85c0.79,0.01 1.6,-0.68 1.6,-0.68s0.02,0.01 0.03,0.02l0,-6.81c0,0 -0.01,0 -0.01,0s-3.97,3 -4.08,4.99c-0.07,1.36 1.1,2.46 2.46,2.48z" fill="#616161" id="svg_1893" opacity="0.2"/>
   </g>
   <g id="svg_1894">
    <path d="m139.52,300.11c-0.1,-1.98 -4.08,-4.99 -4.08,-4.99s-4.08,3.03 -4.08,5.02c0,1.36 1.11,2.46 2.48,2.46c0.77,0 1.62,-0.69 1.62,-0.69s0.81,0.69 1.6,0.68c1.36,-0.02 2.54,-1.11 2.46,-2.48z" fill="#D66142" id="svg_1895"/>
    <path d="m137.06,302.59c-0.79,0.01 -1.6,-0.68 -1.6,-0.68s-0.01,0.01 -0.03,0.02l0,-6.8c0.01,-0.01 0.01,-0.01 0.01,-0.01s3.98,3.01 4.08,4.99c0.08,1.37 -1.1,2.46 -2.46,2.48z" fill="#616161" id="svg_1896" opacity="0.2"/>
   </g>
   <g id="svg_1897">
    <path d="m116.66,287.87c0.1,-1.99 4.07,-4.99 4.07,-4.99s4.09,3.03 4.09,5.01c0,1.37 -1.12,2.47 -2.48,2.47c-0.77,0 -1.62,-0.69 -1.62,-0.69s-0.81,0.69 -1.6,0.68c-1.37,-0.02 -2.54,-1.12 -2.46,-2.48z" fill="#D66142" id="svg_1898"/>
    <path d="m119.12,290.35c0.79,0.01 1.6,-0.68 1.6,-0.68s0.01,0.01 0.03,0.02l0,-6.81c-0.01,0 -0.02,0 -0.02,0s-3.97,3 -4.07,4.99c-0.08,1.36 1.09,2.46 2.46,2.48z" fill="#616161" id="svg_1899" opacity="0.2"/>
   </g>
   <g id="svg_1900">
    <path d="m139.52,287.87c-0.1,-1.99 -4.08,-4.99 -4.08,-4.99s-4.08,3.03 -4.08,5.01c0,1.37 1.11,2.47 2.48,2.47c0.77,0 1.62,-0.69 1.62,-0.69s0.81,0.69 1.6,0.68c1.36,-0.02 2.54,-1.12 2.46,-2.48z" fill="#D66142" id="svg_1901"/>
    <path d="m137.06,290.35c-0.79,0.01 -1.6,-0.68 -1.6,-0.68s-0.01,0.01 -0.03,0.02l0,-6.81c0.01,0 0.01,0 0.01,0s3.98,3 4.08,4.99c0.08,1.36 -1.1,2.46 -2.46,2.48z" fill="#616161" id="svg_1902" opacity="0.2"/>
   </g>
   <g id="svg_1903">
    <path d="m143.18,298.32c0.03,-0.71 1.46,-1.79 1.46,-1.79s1.46,1.08 1.46,1.8c0,0.49 -0.4,0.88 -0.89,0.88c-0.27,0 -0.58,-0.25 -0.58,-0.25s-0.29,0.25 -0.57,0.25c-0.49,-0.01 -0.91,-0.4 -0.88,-0.89z" fill="#D66142" id="svg_1904"/>
    <path d="m144.06,299.21c0.28,0 0.57,-0.25 0.57,-0.25s0.01,0.01 0.01,0.01l0,-2.44l0,0c0,0 -1.43,1.08 -1.46,1.79c-0.03,0.49 0.39,0.88 0.88,0.89z" fill="#616161" id="svg_1905" opacity="0.2"/>
   </g>
  </g>
 </g>

</svg>