<?xml version="1.0"?>
<svg width="40" height="56" xmlns="http://www.w3.org/2000/svg" xmlns:svg="http://www.w3.org/2000/svg" enable-background="new 0 0 450 450" version="1.1" xml:space="preserve">
 <g class="layer">
  <title>Layer 1</title>
  <g id="svg_506" transform="translate(-15.1966, 2.86929) matrix(1, 0, 0, 1, -335.387, -387.035)">
   <g id="svg_507">
    <g id="svg_508">
     <g id="svg_509">
      <path d="m355.12,439.99c-2.36,0.01 -4.28,-1.87 -4.28,-4.18l-0.12,-47.31c-0.01,-2.33 1.91,-4.22 4.27,-4.21l31.26,0.06c2.35,0 4.27,1.89 4.27,4.22l0,47.2c0,2.31 -1.91,4.19 -4.25,4.19l-31.15,0.03z" fill="#C9C9C9" id="svg_510"/>
     </g>
     <path d="m355.51,439.88c-2.33,0 -4.22,-1.89 -4.22,-4.2l0,-47.19c0,-2.32 1.89,-4.2 4.22,-4.2l30.8,0c2.32,0 4.21,1.88 4.21,4.2l0,47.19c0,2.31 -1.89,4.2 -4.21,4.2l-30.8,0z" fill="#FFFFFF" id="svg_511"/>
     <g id="svg_512">
      <path d="m383.99,433.62c0.07,-0.19 0.19,-0.41 0.36,-0.67c0.22,-0.34 0.4,-0.51 0.54,-0.51l1.86,0c0.03,-0.01 0.06,-0.02 0.09,-0.02c0.03,-0.01 0.07,-0.03 0.11,-0.05l0.11,0l0,0.15c-0.07,0.07 -0.14,0.14 -0.2,0.21c-0.22,0.29 -0.48,0.62 -0.79,1.02c-0.23,0.3 -0.4,0.53 -0.5,0.7c-0.17,0.27 -0.25,0.48 -0.25,0.64c0,0.11 0.02,0.22 0.06,0.33c0.04,0.11 0.1,0.21 0.18,0.29c0.04,0.04 0.12,0.1 0.23,0.16c0.14,0.08 0.25,0.12 0.32,0.12c0.12,0 0.28,-0.08 0.48,-0.24c0.2,-0.16 0.32,-0.24 0.35,-0.24c0.08,0 0.12,0.04 0.12,0.1c0,0.07 -0.08,0.2 -0.26,0.39c-0.17,0.19 -0.34,0.34 -0.49,0.44c-0.22,0.15 -0.34,0.22 -0.36,0.23c-0.19,0.11 -0.35,0.16 -0.49,0.16c-0.26,0 -0.5,-0.1 -0.71,-0.31c-0.23,-0.21 -0.33,-0.45 -0.33,-0.73c0,-0.27 0.07,-0.52 0.23,-0.75c0.02,-0.04 0.13,-0.19 0.33,-0.46c0.28,-0.38 0.45,-0.61 0.5,-0.68c0.23,-0.3 0.34,-0.46 0.34,-0.47c0,-0.06 -0.03,-0.09 -0.1,-0.1c-0.07,-0.02 -0.14,-0.02 -0.21,-0.02c-0.04,0 -0.09,0 -0.15,0c-0.06,0 -0.09,0 -0.1,0c-0.35,0 -0.62,0.04 -0.79,0.13c-0.13,0.11 -0.26,0.21 -0.39,0.32c-0.02,0 -0.03,0 -0.05,-0.01c-0.02,-0.01 -0.03,-0.02 -0.04,-0.02l0,-0.11z" fill="#333333" id="svg_513"/>
     </g>
     <g id="svg_514">
      <path d="m358.55,391.06c-0.07,0.19 -0.19,0.41 -0.36,0.67c-0.22,0.34 -0.4,0.52 -0.54,0.52l-1.86,0c-0.02,0 -0.05,0.01 -0.08,0.02c-0.03,0.01 -0.07,0.02 -0.12,0.04l-0.11,0l0,-0.15c0.08,-0.06 0.14,-0.13 0.21,-0.21c0.21,-0.28 0.48,-0.62 0.78,-1.02c0.23,-0.29 0.4,-0.52 0.51,-0.69c0.16,-0.27 0.24,-0.49 0.24,-0.65c0,-0.1 -0.02,-0.21 -0.06,-0.32c-0.04,-0.12 -0.1,-0.22 -0.17,-0.3c-0.05,-0.04 -0.12,-0.09 -0.23,-0.16c-0.15,-0.08 -0.26,-0.12 -0.33,-0.12c-0.12,0 -0.28,0.08 -0.48,0.24c-0.2,0.16 -0.32,0.24 -0.35,0.24c-0.08,0 -0.12,-0.03 -0.12,-0.1c0,-0.07 0.09,-0.2 0.26,-0.39c0.18,-0.18 0.34,-0.33 0.5,-0.44c0.21,-0.14 0.33,-0.22 0.36,-0.23c0.18,-0.11 0.34,-0.16 0.48,-0.16c0.26,0 0.5,0.1 0.72,0.31c0.22,0.21 0.33,0.46 0.33,0.74c0,0.27 -0.08,0.52 -0.24,0.75c-0.02,0.04 -0.13,0.19 -0.33,0.46c-0.28,0.38 -0.45,0.6 -0.5,0.67c-0.23,0.31 -0.34,0.46 -0.34,0.48c0,0.05 0.03,0.09 0.1,0.1c0.07,0.01 0.14,0.02 0.21,0.02c0.04,0 0.1,0 0.15,0c0.06,0 0.09,0 0.1,0c0.36,0 0.62,-0.05 0.79,-0.14c0.13,-0.1 0.26,-0.21 0.39,-0.31c0.02,0 0.04,0 0.05,0.01c0.02,0.01 0.04,0.02 0.04,0.02l0,0.1z" fill="#333333" id="svg_515"/>
     </g>
    </g>
    <g id="svg_516">
     <g id="svg_517">
      <path d="m375.08,403.39c0.01,-0.96 -4.19,-5.09 -4.19,-5.09s-0.01,0.01 -0.01,0.01l0,9.91l1.96,0l-1.56,-2.68c0.37,0.22 0.81,0.36 1.28,0.36c1.39,0 2.52,-1.12 2.52,-2.51z" fill="#616161" id="svg_518" opacity="0.2"/>
     </g>
     <g id="svg_519">
      <path d="m375.08,421.54c0.01,0.96 -4.19,5.09 -4.19,5.09s-0.01,-0.01 -0.01,-0.01l0,-9.91l1.96,0l-1.56,2.68c0.37,-0.22 0.81,-0.35 1.28,-0.36c1.39,0 2.52,1.12 2.52,2.51z" fill="#616161" id="svg_520" opacity="0.2"/>
     </g>
     <g id="svg_521">
      <path d="m358.05,395.31c0,-0.26 -1.12,-1.36 -1.12,-1.36s0,0.01 0,0.01l0,2.64l0.52,0l-0.41,-0.71c0.1,0.06 0.21,0.09 0.34,0.09c0.37,0 0.67,-0.3 0.67,-0.67z" fill="#616161" id="svg_522" opacity="0.2"/>
     </g>
     <g id="svg_523">
      <path d="m384.42,429.45c0,0.26 1.12,1.36 1.12,1.36l0,0l0,-2.65l-0.52,0l0.42,0.72c-0.1,-0.06 -0.22,-0.1 -0.35,-0.1c-0.37,0 -0.67,0.3 -0.67,0.67z" fill="#616161" id="svg_524" opacity="0.2"/>
     </g>
    </g>
   </g>
   <g id="svg_525">
    <path d="m374.83,401.69c-0.1,1.9 -3.92,4.8 -3.92,4.8s-3.93,-2.92 -3.93,-4.83c0,-1.31 1.07,-2.37 2.39,-2.37c0.73,0 1.55,0.66 1.55,0.66s0.78,-0.66 1.54,-0.65c1.31,0.01 2.44,1.07 2.37,2.39z" fill="#D66142" id="svg_526"/>
    <path d="m372.46,399.3c-0.76,-0.01 -1.54,0.65 -1.54,0.65s-0.01,-0.01 -0.02,-0.02l0,6.55c0.01,0 0.01,0.01 0.01,0.01s3.82,-2.9 3.92,-4.8c0.07,-1.32 -1.06,-2.38 -2.37,-2.39z" fill="#616161" id="svg_527" opacity="0.2"/>
   </g>
   <g id="svg_528">
    <path d="m366.92,422.48c0.1,-1.9 3.93,-4.8 3.93,-4.8s3.93,2.92 3.93,4.82c0,1.32 -1.07,2.38 -2.39,2.38c-0.74,0 -1.56,-0.67 -1.56,-0.67s-0.78,0.67 -1.54,0.65c-1.31,-0.01 -2.44,-1.07 -2.37,-2.38z" fill="#D66142" id="svg_529"/>
    <path d="m369.3,424.87c0.75,0.01 1.53,-0.65 1.53,-0.65s0.01,0 0.03,0.01l0,-6.54c-0.01,-0.01 -0.01,-0.01 -0.01,-0.01s-3.83,2.9 -3.93,4.8c-0.07,1.31 1.06,2.37 2.38,2.39z" fill="#616161" id="svg_530" opacity="0.2"/>
   </g>
   <g id="svg_531">
    <path d="m358.07,395.1c-0.03,0.67 -1.38,1.69 -1.38,1.69s-1.38,-1.03 -1.38,-1.7c0,-0.46 0.38,-0.83 0.84,-0.83c0.26,0 0.55,0.23 0.55,0.23s0.27,-0.23 0.54,-0.23c0.46,0.01 0.86,0.38 0.83,0.84z" fill="#D66142" id="svg_532"/>
    <path d="m357.24,394.26c-0.27,0 -0.54,0.23 -0.54,0.23s-0.01,0 -0.01,-0.01l0,2.31c0,0 0,0 0,0s1.35,-1.02 1.38,-1.69c0.03,-0.46 -0.37,-0.83 -0.83,-0.84z" fill="#616161" id="svg_533" opacity="0.2"/>
   </g>
   <g id="svg_534">
    <path d="m383.92,429.76c0.04,-0.69 1.41,-1.73 1.41,-1.73s1.41,1.05 1.41,1.74c0,0.47 -0.38,0.85 -0.85,0.85c-0.27,0 -0.56,-0.24 -0.56,-0.24s-0.28,0.24 -0.56,0.23c-0.46,0 -0.87,-0.38 -0.85,-0.85z" fill="#D66142" id="svg_535"/>
    <path d="m384.77,430.62c0.28,0 0.56,-0.24 0.56,-0.24s0,0.01 0,0.01l0,-2.35l0,-0.01c0,0 -1.37,1.04 -1.41,1.73c-0.02,0.47 0.39,0.85 0.85,0.86z" fill="#616161" id="svg_536" opacity="0.2"/>
   </g>
  </g>
 </g>

</svg>