<?xml version="1.0"?>
<svg width="40" height="56" xmlns="http://www.w3.org/2000/svg" xmlns:svg="http://www.w3.org/2000/svg" enable-background="new 0 0 450 450" version="1.1" xml:space="preserve">
 <g class="layer">
  <title>Layer 1</title>
  <g id="svg_470" transform="translate(0, -0.10627) translate(-15.1966, 2.97556) matrix(1, 0, 0, 1, -335.387, -321.06)">
   <g id="svg_471">
    <g id="svg_472">
     <g id="svg_473">
      <path d="m355.12,374.02c-2.35,0 -4.27,-1.88 -4.28,-4.19l-0.12,-47.31c-0.01,-2.33 1.91,-4.21 4.27,-4.21l31.26,0.06c2.35,0 4.27,1.9 4.27,4.22l0,47.2c0,2.31 -1.91,4.19 -4.25,4.19l-31.15,0.04z" fill="#C9C9C9" id="svg_474"/>
     </g>
     <path d="m355.51,373.9c-2.32,0 -4.22,-1.88 -4.22,-4.2l0,-47.19c0,-2.31 1.9,-4.2 4.22,-4.2l30.8,0c2.33,0 4.21,1.89 4.21,4.2l0,47.19c0,2.32 -1.88,4.2 -4.21,4.2l-30.8,0z" fill="#FFFFFF" id="svg_475"/>
     <g id="svg_476">
      <path d="m383.99,368.54c0,-0.17 0.05,-0.33 0.13,-0.51c0.12,-0.26 0.33,-0.54 0.64,-0.85c0.25,-0.26 0.46,-0.44 0.61,-0.54c0.23,-0.16 0.48,-0.24 0.74,-0.24c0.22,0 0.41,0.05 0.58,0.14c0.19,0.11 0.3,0.26 0.3,0.44c0,0.12 -0.13,0.35 -0.38,0.66c-0.24,0.31 -0.42,0.46 -0.52,0.46c-0.09,0 -0.14,-0.03 -0.14,-0.1c0,-0.06 0.07,-0.18 0.22,-0.36c0.06,-0.08 0.09,-0.15 0.09,-0.19c-0.03,-0.07 -0.07,-0.13 -0.11,-0.17c-0.13,-0.11 -0.29,-0.16 -0.5,-0.16c-0.18,0 -0.35,0.06 -0.5,0.17c-0.17,0.14 -0.26,0.32 -0.26,0.56c0,0.17 0.04,0.32 0.14,0.46c0.07,0.1 0.16,0.18 0.28,0.24c0.15,0.07 0.31,0.11 0.47,0.11c0.17,0.01 0.25,0.04 0.25,0.11c0,0.04 -0.1,0.18 -0.31,0.43c-0.16,0.2 -0.31,0.41 -0.45,0.64c0.04,0.05 0.08,0.07 0.1,0.07l0.94,0c0.04,0 0.12,-0.05 0.24,-0.15c0.13,-0.1 0.21,-0.15 0.25,-0.15c0.09,0 0.12,0.04 0.12,0.1c0,0.03 -0.04,0.1 -0.14,0.21c-0.09,0.11 -0.23,0.26 -0.41,0.44c-0.2,0.2 -0.33,0.32 -0.39,0.36c-0.1,0.08 -0.18,0.12 -0.25,0.12l-1.55,0c-0.01,-0.01 -0.02,-0.02 -0.03,-0.03c-0.01,-0.01 -0.01,-0.03 -0.01,-0.07c0,-0.12 0.14,-0.32 0.42,-0.59c0.28,-0.28 0.42,-0.47 0.42,-0.58c0,-0.02 -0.11,-0.07 -0.33,-0.16c-0.15,-0.05 -0.28,-0.13 -0.39,-0.22c-0.08,-0.08 -0.14,-0.17 -0.19,-0.28c-0.05,-0.11 -0.08,-0.24 -0.08,-0.37z" fill="#333333" id="svg_477"/>
     </g>
     <g id="svg_478">
      <path d="m358.56,324.2c0,0.16 -0.05,0.33 -0.12,0.5c-0.13,0.26 -0.34,0.55 -0.65,0.85c-0.25,0.26 -0.46,0.44 -0.61,0.54c-0.24,0.16 -0.48,0.24 -0.74,0.24c-0.22,0 -0.41,-0.04 -0.58,-0.14c-0.19,-0.11 -0.29,-0.25 -0.29,-0.44c0,-0.12 0.12,-0.34 0.37,-0.65c0.24,-0.31 0.42,-0.47 0.52,-0.47c0.09,0 0.14,0.03 0.14,0.1c0,0.06 -0.07,0.19 -0.22,0.36c-0.06,0.09 -0.09,0.15 -0.09,0.2c0.03,0.07 0.07,0.12 0.11,0.16c0.12,0.11 0.29,0.16 0.5,0.16c0.18,0 0.35,-0.06 0.5,-0.17c0.17,-0.14 0.27,-0.32 0.27,-0.55c0,-0.18 -0.05,-0.33 -0.14,-0.46c-0.08,-0.11 -0.17,-0.19 -0.29,-0.24c-0.15,-0.08 -0.3,-0.12 -0.47,-0.12c-0.16,-0.01 -0.25,-0.04 -0.25,-0.11c0,-0.03 0.1,-0.18 0.31,-0.43c0.16,-0.19 0.31,-0.41 0.46,-0.64c-0.05,-0.04 -0.09,-0.07 -0.11,-0.07l-0.93,0c-0.05,0 -0.13,0.05 -0.25,0.15c-0.12,0.1 -0.21,0.15 -0.25,0.15c-0.08,0 -0.12,-0.03 -0.12,-0.09c0,-0.04 0.05,-0.11 0.14,-0.22c0.1,-0.11 0.23,-0.25 0.41,-0.43c0.2,-0.2 0.33,-0.33 0.39,-0.37c0.1,-0.08 0.19,-0.12 0.25,-0.12l1.56,0c0,0.01 0.01,0.02 0.02,0.03c0.01,0.01 0.01,0.03 0.01,0.07c0,0.12 -0.14,0.32 -0.42,0.59c-0.28,0.28 -0.42,0.47 -0.42,0.58c0,0.02 0.11,0.08 0.33,0.16c0.15,0.05 0.28,0.13 0.39,0.22c0.08,0.08 0.15,0.18 0.19,0.28c0.05,0.12 0.08,0.24 0.08,0.38z" fill="#333333" id="svg_479"/>
     </g>
    </g>
    <g id="svg_480">
     <g id="svg_481">
      <path d="m375.08,327.69c0.01,-0.96 -4.19,-5.09 -4.19,-5.09s-0.01,0 -0.01,0.01l0,9.9l1.96,0.01l-1.57,-2.69c0.38,0.23 0.82,0.37 1.3,0.37c1.38,0 2.51,-1.12 2.51,-2.51z" fill="#616161" id="svg_482" opacity="0.2"/>
     </g>
     <g id="svg_483">
      <path d="m375.08,346.29c0.01,-0.96 -4.19,-5.09 -4.19,-5.09s-0.01,0.01 -0.01,0.01l0,9.91l1.96,0.01l-1.57,-2.69c0.38,0.23 0.82,0.36 1.3,0.36c1.38,0.01 2.51,-1.12 2.51,-2.51z" fill="#616161" id="svg_484" opacity="0.2"/>
     </g>
     <g id="svg_485">
      <path d="m375.08,364.17c0.01,0.96 -4.19,5.09 -4.19,5.09s-0.01,-0.01 -0.01,-0.01l0,-9.91l1.96,-0.01l-1.56,2.69c0.37,-0.23 0.81,-0.36 1.29,-0.36c1.38,-0.01 2.51,1.12 2.51,2.51z" fill="#616161" id="svg_486" opacity="0.2"/>
     </g>
     <g id="svg_487">
      <path d="m358.03,329.34c0,-0.26 -1.12,-1.36 -1.12,-1.36s0,0 -0.01,0l0,2.64l0.53,0l-0.42,-0.71c0.1,0.06 0.22,0.1 0.35,0.1c0.37,-0.01 0.67,-0.31 0.67,-0.67z" fill="#616161" id="svg_488" opacity="0.2"/>
     </g>
     <g id="svg_489">
      <path d="m384.51,363.47c0,0.26 1.12,1.36 1.12,1.36s0,0 0,0l0,-2.64l-0.52,0l0.41,0.71c-0.1,-0.06 -0.22,-0.1 -0.34,-0.1c-0.37,0.01 -0.67,0.3 -0.67,0.67z" fill="#616161" id="svg_490" opacity="0.2"/>
     </g>
    </g>
   </g>
   <g id="svg_491">
    <path d="m374.87,325.85c-0.11,1.91 -3.93,4.8 -3.93,4.8s-3.93,-2.92 -3.93,-4.82c0,-1.32 1.07,-2.38 2.38,-2.38c0.74,0 1.56,0.67 1.56,0.67s0.78,-0.67 1.54,-0.66c1.32,0.02 2.44,1.08 2.38,2.39z" fill="#D66142" id="svg_492"/>
    <path d="m372.49,323.46c-0.76,-0.01 -1.54,0.66 -1.54,0.66s-0.01,-0.01 -0.02,-0.03l0,6.55c0.01,0.01 0.01,0.01 0.01,0.01s3.82,-2.89 3.93,-4.8c0.06,-1.31 -1.06,-2.37 -2.38,-2.39z" fill="#616161" id="svg_493" opacity="0.2"/>
   </g>
   <g id="svg_494">
    <path d="m374.87,344.24c-0.11,1.91 -3.93,4.8 -3.93,4.8s-3.93,-2.91 -3.93,-4.82c0,-1.32 1.07,-2.38 2.38,-2.38c0.74,0 1.56,0.67 1.56,0.67s0.78,-0.67 1.54,-0.66c1.32,0.02 2.44,1.07 2.38,2.39z" fill="#D66142" id="svg_495"/>
    <path d="m372.49,341.85c-0.76,-0.01 -1.54,0.66 -1.54,0.66s-0.01,-0.01 -0.02,-0.02l0,6.54c0.01,0.01 0.01,0.01 0.01,0.01s3.82,-2.89 3.93,-4.8c0.06,-1.32 -1.06,-2.37 -2.38,-2.39z" fill="#616161" id="svg_496" opacity="0.2"/>
   </g>
   <g id="svg_497">
    <path d="m366.95,365.04c0.11,-1.91 3.93,-4.81 3.93,-4.81s3.93,2.92 3.93,4.83c0,1.31 -1.08,2.37 -2.39,2.37c-0.73,0 -1.56,-0.66 -1.56,-0.66s-0.78,0.66 -1.53,0.65c-1.32,-0.01 -2.45,-1.07 -2.38,-2.38z" fill="#D66142" id="svg_498"/>
    <path d="m369.33,367.42c0.75,0.01 1.53,-0.65 1.53,-0.65s0.01,0.01 0.03,0.02l0,-6.55c-0.01,0 -0.01,-0.01 -0.01,-0.01s-3.82,2.9 -3.93,4.81c-0.07,1.31 1.06,2.37 2.38,2.38z" fill="#616161" id="svg_499" opacity="0.2"/>
   </g>
   <g id="svg_500">
    <path d="m358.05,329.12c-0.04,0.67 -1.38,1.69 -1.38,1.69s-1.38,-1.02 -1.38,-1.7c0,-0.46 0.38,-0.83 0.84,-0.83c0.25,0 0.54,0.23 0.54,0.23s0.28,-0.23 0.55,-0.22c0.46,0 0.85,0.37 0.83,0.83z" fill="#D66142" id="svg_501"/>
    <path d="m357.21,328.29c-0.26,-0.01 -0.54,0.22 -0.54,0.22s0,0 0,0l0,2.3c0,0 0,0 0,0s1.34,-1.02 1.38,-1.69c0.02,-0.46 -0.37,-0.83 -0.84,-0.83z" fill="#616161" id="svg_502" opacity="0.2"/>
   </g>
   <g id="svg_503">
    <path d="m383.9,363.78c0.04,-0.68 1.41,-1.72 1.41,-1.72s1.41,1.05 1.41,1.73c0,0.47 -0.39,0.85 -0.86,0.85c-0.26,0 -0.56,-0.24 -0.56,-0.24s-0.28,0.24 -0.55,0.24c-0.47,-0.01 -0.88,-0.39 -0.85,-0.86z" fill="#D66142" id="svg_504"/>
    <path d="m384.75,364.64c0.27,0 0.55,-0.23 0.55,-0.23s0.01,0 0.01,0l0,-2.35c0,0 0,0 0,0s-1.37,1.04 -1.41,1.72c-0.03,0.47 0.38,0.85 0.85,0.86z" fill="#616161" id="svg_505" opacity="0.2"/>
   </g>
  </g>
 </g>

</svg>