<?xml version="1.0"?>
<svg width="40" height="56" xmlns="http://www.w3.org/2000/svg" xmlns:svg="http://www.w3.org/2000/svg" enable-background="new 0 0 450 450" version="1.1" xml:space="preserve">
 <g class="layer">
  <title>Layer 1</title>
  <g id="svg_429" transform="translate(-15.1966, 2.86929) translate(-335.387, -255.08)">
   <g id="svg_430">
    <g id="svg_431">
     <g id="svg_432">
      <path d="m355.12,308.04c-2.36,0 -4.28,-1.88 -4.28,-4.19l-0.12,-47.3c-0.01,-2.33 1.91,-4.22 4.27,-4.22l31.26,0.06c2.35,0 4.27,1.9 4.27,4.22l0,47.2c0,2.31 -1.91,4.19 -4.26,4.19l-31.14,0.04z" fill="#C9C9C9" id="svg_433"/>
     </g>
     <path d="m355.51,307.92c-2.33,0 -4.22,-1.88 -4.22,-4.2l0,-47.19c0,-2.31 1.89,-4.19 4.22,-4.19l30.8,0c2.32,0 4.21,1.88 4.21,4.19l0,47.19c0,2.32 -1.89,4.2 -4.21,4.2l-30.8,0z" fill="#FFFFFF" id="svg_434"/>
     <g id="svg_435">
      <path d="m356.21,257.84c0,0.08 -0.03,0.15 -0.08,0.21c-0.06,0.08 -0.1,0.13 -0.12,0.15c-0.2,0.3 -0.36,0.51 -0.48,0.62c-0.1,0.07 -0.2,0.13 -0.3,0.2c-0.03,0.04 -0.05,0.09 -0.05,0.15c0.02,0.06 0.02,0.09 0.02,0.12c0,0.11 0.01,0.2 0.02,0.29c0.02,0.08 0.04,0.13 0.07,0.13c0.04,0 0.08,-0.02 0.11,-0.05c0.12,-0.1 0.2,-0.15 0.23,-0.17c0.03,0.06 0.05,0.09 0.05,0.1c0,0.06 -0.12,0.2 -0.34,0.41c-0.27,0.25 -0.51,0.38 -0.74,0.38c-0.16,0 -0.26,-0.21 -0.31,-0.64c-0.04,-0.43 -0.08,-0.67 -0.12,-0.71l-1.42,0c-0.03,-0.02 -0.05,-0.03 -0.06,-0.04c0,0 0,-0.04 0,-0.1c0,-0.07 0.09,-0.25 0.28,-0.52c0.17,-0.25 0.43,-0.59 0.79,-1.03c0.11,-0.13 0.22,-0.27 0.33,-0.4c0.08,-0.09 0.18,-0.2 0.3,-0.33c0.13,-0.14 0.27,-0.29 0.41,-0.46c0.13,-0.15 0.23,-0.23 0.3,-0.23l0.08,0.02l0,2.16c0.07,0.03 0.12,0.05 0.15,0.05c0.03,-0.01 0.06,-0.01 0.07,-0.01c0.16,0 0.31,-0.05 0.44,-0.16c0.1,-0.09 0.2,-0.18 0.3,-0.27c0.03,0.02 0.04,0.03 0.05,0.03c0.01,0.01 0.02,0.05 0.02,0.1zm-2,0.22l0,-0.22l0,-0.09c0,-0.07 0,-0.16 -0.02,-0.27c-0.08,0.08 -0.19,0.2 -0.34,0.38c-0.04,0.06 -0.1,0.14 -0.18,0.24l0.05,0.03l0.41,0l0.08,-0.07z" fill="#333333" id="svg_436"/>
     </g>
     <g id="svg_437">
      <path d="m385.87,302.94c0,-0.08 0.02,-0.15 0.07,-0.22c0.07,-0.07 0.11,-0.12 0.12,-0.14c0.2,-0.3 0.36,-0.51 0.48,-0.62c0.11,-0.07 0.21,-0.14 0.31,-0.2c0.03,-0.04 0.04,-0.1 0.04,-0.15c-0.01,-0.05 -0.02,-0.09 -0.02,-0.12c0,-0.11 0,-0.2 -0.02,-0.29c-0.01,-0.09 -0.04,-0.13 -0.06,-0.13c-0.04,0 -0.08,0.02 -0.12,0.04c-0.12,0.1 -0.2,0.16 -0.23,0.18c-0.02,-0.06 -0.04,-0.09 -0.04,-0.1c0,-0.06 0.11,-0.2 0.34,-0.41c0.27,-0.25 0.51,-0.38 0.73,-0.38c0.17,0 0.27,0.21 0.32,0.64c0.04,0.43 0.08,0.67 0.12,0.71l1.42,0c0.03,0.02 0.05,0.03 0.05,0.04c0.01,0 0.01,0.04 0.01,0.09c0,0.08 -0.09,0.26 -0.28,0.53c-0.17,0.25 -0.43,0.59 -0.79,1.03c-0.11,0.13 -0.23,0.27 -0.34,0.4c-0.07,0.09 -0.17,0.2 -0.3,0.33c-0.12,0.13 -0.26,0.29 -0.41,0.46c-0.12,0.15 -0.22,0.22 -0.29,0.22l-0.08,-0.02l0,-2.15c-0.07,-0.03 -0.12,-0.05 -0.16,-0.05c-0.03,0.01 -0.05,0.01 -0.06,0.01c-0.17,0 -0.31,0.05 -0.45,0.16c-0.1,0.09 -0.2,0.18 -0.3,0.27c-0.02,-0.02 -0.03,-0.03 -0.04,-0.04c-0.01,-0.01 -0.02,-0.04 -0.02,-0.09zm1.99,-0.22l0,0.22l0,0.08c0,0.08 0.01,0.17 0.02,0.27c0.09,-0.07 0.2,-0.19 0.34,-0.37c0.05,-0.06 0.11,-0.14 0.19,-0.25l-0.05,-0.02l-0.41,0l-0.09,0.07z" fill="#333333" id="svg_438"/>
     </g>
    </g>
    <g id="svg_439">
     <g id="svg_440">
      <path d="m382.67,262.57c0,-0.97 -4.2,-5.1 -4.2,-5.1s0,0.01 0,0.01l0,9.91l1.95,0.01l-1.56,-2.69c0.38,0.22 0.82,0.36 1.3,0.36c1.38,0.01 2.51,-1.12 2.51,-2.5z" fill="#616161" id="svg_441" opacity="0.2"/>
     </g>
     <g id="svg_442">
      <path d="m360.12,262.57c-0.01,-0.97 4.19,-5.1 4.19,-5.1s0,0.01 0.01,0.01l0,9.91l-1.96,0.01l1.56,-2.69c-0.37,0.22 -0.81,0.36 -1.29,0.36c-1.38,0.01 -2.51,-1.12 -2.51,-2.5z" fill="#616161" id="svg_443" opacity="0.2"/>
     </g>
     <g id="svg_444">
      <path d="m382.65,298.19c0,0.96 -4.2,5.09 -4.2,5.09s0,0 0,-0.01l0,-9.91l1.95,0l-1.56,2.69c0.38,-0.23 0.82,-0.37 1.29,-0.37c1.39,0 2.52,1.12 2.52,2.51z" fill="#616161" id="svg_445" opacity="0.2"/>
     </g>
     <g id="svg_446">
      <path d="m360.1,298.19c-0.01,0.96 4.19,5.09 4.19,5.09s0.01,0 0.01,-0.01l0,-9.91l-1.96,0l1.56,2.69c-0.37,-0.23 -0.81,-0.37 -1.29,-0.37c-1.38,0 -2.51,1.12 -2.51,2.51z" fill="#616161" id="svg_447" opacity="0.2"/>
     </g>
     <g id="svg_448">
      <path d="m355.7,263.36c0,-0.26 -1.12,-1.36 -1.12,-1.36l0,0l0,2.65l0.52,0l-0.42,-0.72c0.1,0.06 0.22,0.1 0.35,0.1c0.36,0 0.67,-0.3 0.67,-0.67z" fill="#616161" id="svg_449" opacity="0.2"/>
     </g>
     <g id="svg_450">
      <path d="m386.5,297.5c0,0.26 1.12,1.35 1.12,1.35l0,0l0,-2.64l-0.52,0l0.42,0.71c-0.1,-0.06 -0.22,-0.09 -0.35,-0.09c-0.36,0 -0.67,0.3 -0.67,0.67z" fill="#616161" id="svg_451" opacity="0.2"/>
     </g>
    </g>
   </g>
   <g id="svg_452">
    <path d="m360.67,261.32c0.1,1.9 3.92,4.8 3.92,4.8s3.93,-2.92 3.93,-4.83c0,-1.31 -1.07,-2.37 -2.39,-2.37c-0.73,0 -1.56,0.66 -1.56,0.66s-0.77,-0.66 -1.53,-0.65c-1.32,0.01 -2.44,1.07 -2.37,2.39z" fill="#D66142" id="svg_453"/>
    <path d="m363.04,258.93c0.76,-0.01 1.53,0.65 1.53,0.65s0.02,-0.01 0.03,-0.02l0,6.55c-0.01,0.01 -0.01,0.01 -0.01,0.01s-3.83,-2.9 -3.93,-4.8c-0.06,-1.32 1.06,-2.38 2.38,-2.39z" fill="#616161" id="svg_454" opacity="0.2"/>
   </g>
   <g id="svg_455">
    <path d="m382.67,261.32c-0.11,1.9 -3.93,4.8 -3.93,4.8s-3.93,-2.92 -3.93,-4.83c0,-1.31 1.07,-2.37 2.39,-2.37c0.74,0 1.56,0.66 1.56,0.66s0.77,-0.66 1.53,-0.65c1.32,0.01 2.45,1.07 2.38,2.39z" fill="#D66142" id="svg_456"/>
    <path d="m380.29,258.93c-0.76,-0.01 -1.53,0.65 -1.53,0.65s-0.01,-0.01 -0.03,-0.02l0,6.55c0.01,0.01 0.01,0.01 0.01,0.01s3.82,-2.9 3.93,-4.8c0.07,-1.32 -1.06,-2.38 -2.38,-2.39z" fill="#616161" id="svg_457" opacity="0.2"/>
   </g>
   <g id="svg_458">
    <path d="m360.67,299.06c0.1,-1.9 3.92,-4.8 3.92,-4.8s3.93,2.92 3.93,4.82c0,1.31 -1.07,2.38 -2.39,2.38c-0.73,0 -1.56,-0.67 -1.56,-0.67s-0.77,0.67 -1.53,0.66c-1.32,-0.02 -2.44,-1.07 -2.37,-2.39z" fill="#D66142" id="svg_459"/>
    <path d="m363.04,301.45c0.76,0.01 1.53,-0.66 1.53,-0.66s0.02,0.01 0.03,0.02l0,-6.55c-0.01,0 -0.01,0 -0.01,0s-3.83,2.89 -3.93,4.8c-0.06,1.32 1.06,2.37 2.38,2.39z" fill="#616161" id="svg_460" opacity="0.2"/>
   </g>
   <g id="svg_461">
    <path d="m382.67,299.06c-0.11,-1.9 -3.93,-4.8 -3.93,-4.8s-3.93,2.92 -3.93,4.82c0,1.31 1.07,2.38 2.39,2.38c0.74,0 1.56,-0.67 1.56,-0.67s0.77,0.67 1.53,0.66c1.32,-0.02 2.45,-1.07 2.38,-2.39z" fill="#D66142" id="svg_462"/>
    <path d="m380.29,301.45c-0.76,0.01 -1.53,-0.66 -1.53,-0.66s-0.01,0.01 -0.03,0.02l0,-6.55c0.01,0 0.01,0 0.01,0s3.82,2.89 3.93,4.8c0.07,1.32 -1.06,2.37 -2.38,2.39z" fill="#616161" id="svg_463" opacity="0.2"/>
   </g>
   <g id="svg_464">
    <path d="m355.72,263.15c-0.04,0.67 -1.38,1.68 -1.38,1.68s-1.38,-1.02 -1.38,-1.69c0,-0.47 0.37,-0.84 0.83,-0.84c0.26,0 0.55,0.24 0.55,0.24s0.28,-0.24 0.54,-0.23c0.47,0 0.86,0.37 0.84,0.84z" fill="#D66142" id="svg_465"/>
    <path d="m354.88,262.31c-0.26,-0.01 -0.54,0.23 -0.54,0.23s0,0 -0.01,-0.01l0,2.3c0.01,0 0.01,0 0.01,0s1.34,-1.01 1.38,-1.68c0.02,-0.47 -0.37,-0.84 -0.84,-0.84z" fill="#616161" id="svg_466" opacity="0.2"/>
   </g>
   <g id="svg_467">
    <path d="m385.67,297.81c0.03,-0.69 1.4,-1.73 1.4,-1.73s1.41,1.05 1.41,1.73c0,0.48 -0.38,0.86 -0.85,0.86c-0.27,0 -0.57,-0.24 -0.57,-0.24s-0.27,0.24 -0.55,0.23c-0.46,-0.01 -0.87,-0.39 -0.84,-0.85z" fill="#D66142" id="svg_468"/>
    <path d="m386.51,298.66c0.28,0 0.55,-0.23 0.55,-0.23s0.01,0 0.02,0.01l0,-2.35c-0.01,-0.01 -0.01,-0.01 -0.01,-0.01s-1.37,1.04 -1.4,1.73c-0.03,0.46 0.38,0.84 0.84,0.85z" fill="#616161" id="svg_469" opacity="0.2"/>
   </g>
  </g>
 </g>

</svg>