<?xml version="1.0"?>
<svg width="40" height="56" xmlns="http://www.w3.org/2000/svg" xmlns:svg="http://www.w3.org/2000/svg" enable-background="new 0 0 450 450" version="1.1" xml:space="preserve">
 <g class="layer">
  <title>Layer 1</title>
  <g id="svg_383" transform="translate(-15.1966, 2.86929) translate(-335.387, -189.11)">
   <g id="svg_384">
    <g id="svg_385">
     <g id="svg_386">
      <path d="m355.12,242.07c-2.35,0 -4.27,-1.88 -4.28,-4.19l-0.12,-47.31c-0.01,-2.33 1.91,-4.22 4.27,-4.21l31.26,0.06c2.35,0 4.27,1.89 4.27,4.22l0,47.2c0,2.31 -1.91,4.18 -4.25,4.19l-31.15,0.04z" fill="#C9C9C9" id="svg_387"/>
     </g>
     <path d="m355.51,241.95c-2.32,0 -4.22,-1.89 -4.22,-4.2l0,-47.19c0,-2.32 1.9,-4.2 4.22,-4.2l30.8,0c2.32,0 4.21,1.88 4.21,4.2l0,47.19c0,2.31 -1.89,4.2 -4.21,4.2l-30.8,0z" fill="#FFFFFF" id="svg_388"/>
     <g id="svg_389">
      <path d="m356.25,189.92c-0.08,0.13 -0.19,0.27 -0.31,0.41c-0.17,0.18 -0.33,0.29 -0.48,0.35c-0.09,0.03 -0.24,0.06 -0.45,0.07c-0.21,0.01 -0.32,0.09 -0.32,0.23c0,0.12 0.06,0.19 0.19,0.22c0.23,0.05 0.43,0.14 0.59,0.27c0.16,0.12 0.28,0.26 0.36,0.41c0.07,0.14 0.11,0.29 0.11,0.44c0,0.22 -0.05,0.44 -0.16,0.65c-0.05,0.11 -0.13,0.24 -0.25,0.41c-0.31,0.39 -0.58,0.66 -0.82,0.81c-0.24,0.14 -0.56,0.22 -0.94,0.22c-0.23,0 -0.42,-0.04 -0.58,-0.1c-0.21,-0.09 -0.31,-0.22 -0.31,-0.4c0,-0.12 0.09,-0.32 0.28,-0.6c0.18,-0.28 0.32,-0.42 0.43,-0.42c0.07,0 0.1,0.08 0.11,0.25c0.01,0.16 0.03,0.28 0.07,0.35c0.05,0.06 0.1,0.1 0.13,0.13c0.13,0.09 0.25,0.13 0.38,0.13c0.17,0 0.32,-0.05 0.44,-0.17c0.16,-0.14 0.24,-0.35 0.24,-0.62c0,-0.26 -0.08,-0.49 -0.26,-0.68c-0.17,-0.19 -0.37,-0.3 -0.61,-0.33c-0.05,-0.01 -0.09,-0.01 -0.11,-0.01c-0.08,-0.02 -0.11,-0.03 -0.12,-0.04c-0.02,-0.02 -0.03,-0.06 -0.03,-0.12c0.02,-0.16 0.03,-0.32 0.05,-0.48c0.01,-0.16 0.02,-0.31 0.02,-0.46c0,-0.07 -0.01,-0.11 -0.04,-0.13c-0.02,-0.01 -0.07,-0.02 -0.15,-0.02l0,-0.14c0.06,-0.08 0.18,-0.19 0.35,-0.34c0.22,-0.18 0.36,-0.27 0.44,-0.27l1.31,0c0.06,0 0.13,-0.02 0.21,-0.07c0.08,-0.04 0.13,-0.06 0.15,-0.06l0.09,0.04l0,0.07l-0.01,0z" fill="#333333" id="svg_390"/>
     </g>
     <g id="svg_391">
      <path d="m385.83,238.91c0.08,-0.14 0.19,-0.27 0.31,-0.41c0.17,-0.18 0.33,-0.3 0.48,-0.35c0.09,-0.03 0.24,-0.06 0.45,-0.07c0.21,-0.02 0.32,-0.09 0.32,-0.23c0,-0.12 -0.06,-0.19 -0.19,-0.22c-0.23,-0.05 -0.43,-0.14 -0.59,-0.27c-0.16,-0.12 -0.28,-0.26 -0.36,-0.41c-0.07,-0.15 -0.11,-0.29 -0.11,-0.45c0,-0.22 0.05,-0.43 0.16,-0.65c0.05,-0.1 0.13,-0.23 0.25,-0.4c0.31,-0.4 0.58,-0.67 0.82,-0.81c0.24,-0.15 0.56,-0.22 0.94,-0.22c0.23,0 0.42,0.03 0.58,0.1c0.21,0.08 0.31,0.22 0.31,0.4c0,0.11 -0.09,0.31 -0.28,0.59c-0.18,0.29 -0.32,0.43 -0.43,0.43c-0.06,0 -0.1,-0.09 -0.11,-0.25c0,-0.17 -0.03,-0.28 -0.07,-0.35c-0.05,-0.06 -0.1,-0.1 -0.13,-0.13c-0.13,-0.09 -0.25,-0.14 -0.38,-0.14c-0.17,0 -0.31,0.06 -0.44,0.18c-0.16,0.14 -0.24,0.35 -0.24,0.62c0,0.26 0.09,0.49 0.26,0.68c0.17,0.19 0.37,0.3 0.62,0.33c0.04,0.01 0.08,0.01 0.1,0.01c0.08,0.01 0.12,0.02 0.13,0.03c0.02,0.02 0.03,0.07 0.03,0.13c-0.02,0.16 -0.04,0.32 -0.06,0.48c-0.01,0.15 -0.02,0.31 -0.02,0.46c0,0.06 0.02,0.1 0.04,0.12c0.02,0.01 0.08,0.02 0.15,0.02l0,0.15c-0.06,0.07 -0.17,0.19 -0.35,0.33c-0.21,0.19 -0.36,0.28 -0.44,0.28l-1.31,0c-0.06,0 -0.13,0.02 -0.21,0.06c-0.08,0.04 -0.13,0.07 -0.15,0.07l-0.08,-0.05l0,-0.06z" fill="#333333" id="svg_392"/>
     </g>
    </g>
    <g id="svg_393">
     <g id="svg_394">
      <path d="m382.2,196.59c0,-0.96 -4.2,-5.09 -4.2,-5.09s0,0 -0.01,0.01l0,9.91l1.96,0l-1.56,-2.69c0.37,0.23 0.82,0.36 1.29,0.37c1.39,0 2.52,-1.12 2.52,-2.51z" fill="#616161" id="svg_395" opacity="0.2"/>
     </g>
     <g id="svg_396">
      <path d="m359.64,196.59c0,-0.96 4.2,-5.09 4.2,-5.09s0,0 0,0.01l0,9.91l-1.95,0l1.56,-2.69c-0.37,0.23 -0.82,0.36 -1.29,0.37c-1.39,0 -2.52,-1.12 -2.52,-2.51z" fill="#616161" id="svg_397" opacity="0.2"/>
     </g>
     <g id="svg_398">
      <path d="m366.71,214c-0.01,-0.97 4.19,-5.09 4.19,-5.09s0.01,0 0.01,0l0,9.91l-1.96,0l1.56,-2.68c-0.37,0.23 -0.81,0.36 -1.29,0.36c-1.38,0 -2.51,-1.12 -2.51,-2.5z" fill="#616161" id="svg_399" opacity="0.2"/>
     </g>
     <g id="svg_400">
      <path d="m382.18,232.21c0,0.97 -4.2,5.1 -4.2,5.1s0,-0.01 0,-0.01l0,-9.91l1.95,-0.01l-1.56,2.69c0.37,-0.23 0.82,-0.36 1.29,-0.36c1.39,-0.01 2.52,1.11 2.52,2.5z" fill="#616161" id="svg_401" opacity="0.2"/>
     </g>
     <g id="svg_402">
      <path d="m359.62,232.21c0,0.97 4.2,5.1 4.2,5.1s0,-0.01 0.01,-0.01l0,-9.91l-1.96,-0.01l1.56,2.69c-0.37,-0.23 -0.82,-0.36 -1.29,-0.36c-1.39,-0.01 -2.52,1.11 -2.52,2.5z" fill="#616161" id="svg_403" opacity="0.2"/>
     </g>
     <g id="svg_404">
      <path d="m355.67,197.38c0,-0.25 -1.12,-1.36 -1.12,-1.36l0,0.01l0,2.64l0.52,0l-0.41,-0.71c0.1,0.06 0.22,0.09 0.34,0.09c0.37,0 0.67,-0.3 0.67,-0.67z" fill="#616161" id="svg_405" opacity="0.2"/>
     </g>
     <g id="svg_406">
      <path d="m386.48,231.52c0,0.26 1.12,1.36 1.12,1.36s0,0 0,0l0,-2.65l-0.52,0l0.41,0.72c-0.1,-0.06 -0.22,-0.1 -0.34,-0.1c-0.37,0 -0.67,0.3 -0.67,0.67z" fill="#616161" id="svg_407" opacity="0.2"/>
     </g>
    </g>
   </g>
   <g id="svg_408">
    <path d="m360.24,195.34c0.1,1.91 3.92,4.8 3.92,4.8s3.93,-2.92 3.93,-4.82c0,-1.32 -1.07,-2.38 -2.39,-2.38c-0.73,0 -1.55,0.67 -1.55,0.67s-0.78,-0.67 -1.54,-0.65c-1.32,0.01 -2.44,1.07 -2.37,2.38z" fill="#D66142" id="svg_409"/>
    <path d="m362.61,192.96c0.76,-0.02 1.54,0.65 1.54,0.65s0.01,-0.01 0.02,-0.02l0,6.55c-0.01,0 -0.01,0 -0.01,0s-3.82,-2.89 -3.93,-4.8c-0.06,-1.31 1.06,-2.37 2.38,-2.38z" fill="#616161" id="svg_410" opacity="0.2"/>
   </g>
   <g id="svg_411">
    <path d="m382.24,195.34c-0.11,1.91 -3.93,4.8 -3.93,4.8s-3.93,-2.92 -3.93,-4.82c0,-1.32 1.08,-2.38 2.39,-2.38c0.74,0 1.56,0.67 1.56,0.67s0.78,-0.67 1.54,-0.65c1.31,0.01 2.44,1.07 2.37,2.38z" fill="#D66142" id="svg_412"/>
    <path d="m379.87,192.96c-0.76,-0.02 -1.54,0.65 -1.54,0.65s-0.01,-0.01 -0.03,-0.02l0,6.55c0.01,0 0.01,0 0.01,0s3.82,-2.89 3.93,-4.8c0.07,-1.31 -1.06,-2.37 -2.37,-2.38z" fill="#616161" id="svg_413" opacity="0.2"/>
   </g>
   <g id="svg_414">
    <path d="m374.84,212.2c-0.11,1.9 -3.93,4.8 -3.93,4.8s-3.93,-2.92 -3.93,-4.82c0,-1.32 1.07,-2.38 2.39,-2.38c0.73,0 1.56,0.67 1.56,0.67s0.78,-0.67 1.53,-0.66c1.32,0.02 2.44,1.07 2.38,2.39z" fill="#D66142" id="svg_415"/>
    <path d="m372.46,209.81c-0.75,-0.01 -1.53,0.66 -1.53,0.66s-0.02,-0.01 -0.03,-0.03l0,6.55c0.01,0.01 0.01,0.01 0.01,0.01s3.82,-2.9 3.93,-4.8c0.06,-1.32 -1.06,-2.37 -2.38,-2.39z" fill="#616161" id="svg_416" opacity="0.2"/>
   </g>
   <g id="svg_417">
    <path d="m360.24,233.08c0.1,-1.9 3.92,-4.8 3.92,-4.8s3.93,2.92 3.93,4.83c0,1.31 -1.07,2.37 -2.39,2.37c-0.73,0 -1.55,-0.67 -1.55,-0.67s-0.78,0.67 -1.54,0.66c-1.32,-0.02 -2.44,-1.07 -2.37,-2.39z" fill="#D66142" id="svg_418"/>
    <path d="m362.61,235.47c0.76,0.01 1.54,-0.66 1.54,-0.66s0.01,0.01 0.02,0.03l0,-6.55c-0.01,-0.01 -0.01,-0.01 -0.01,-0.01s-3.82,2.9 -3.93,4.8c-0.06,1.32 1.06,2.37 2.38,2.39z" fill="#616161" id="svg_419" opacity="0.2"/>
   </g>
   <g id="svg_420">
    <path d="m382.24,233.08c-0.11,-1.9 -3.93,-4.8 -3.93,-4.8s-3.93,2.92 -3.93,4.83c0,1.31 1.08,2.37 2.39,2.37c0.74,0 1.56,-0.67 1.56,-0.67s0.78,0.67 1.54,0.66c1.31,-0.02 2.44,-1.07 2.37,-2.39z" fill="#D66142" id="svg_421"/>
    <path d="m379.87,235.47c-0.76,0.01 -1.54,-0.66 -1.54,-0.66s-0.01,0.01 -0.03,0.03l0,-6.55c0.01,-0.01 0.01,-0.01 0.01,-0.01s3.82,2.9 3.93,4.8c0.07,1.32 -1.06,2.37 -2.37,2.39z" fill="#616161" id="svg_422" opacity="0.2"/>
   </g>
   <g id="svg_423">
    <path d="m356.24,197.17c-0.03,0.67 -1.38,1.69 -1.38,1.69s-1.38,-1.03 -1.38,-1.7c0,-0.46 0.38,-0.83 0.84,-0.83c0.26,0 0.55,0.23 0.55,0.23s0.27,-0.23 0.54,-0.23c0.46,0.01 0.86,0.38 0.83,0.84z" fill="#D66142" id="svg_424"/>
    <path d="m355.41,196.33c-0.27,0 -0.54,0.23 -0.54,0.23s0,0 -0.01,-0.01l0,2.31c0,0 0,0 0,0s1.35,-1.02 1.38,-1.69c0.03,-0.46 -0.37,-0.83 -0.83,-0.84z" fill="#616161" id="svg_425" opacity="0.2"/>
   </g>
   <g id="svg_426">
    <path d="m386.19,231.83c0.04,-0.69 1.41,-1.72 1.41,-1.72s1.41,1.04 1.41,1.73c0,0.47 -0.39,0.85 -0.86,0.85c-0.27,0 -0.56,-0.24 -0.56,-0.24s-0.28,0.24 -0.55,0.23c-0.47,0 -0.87,-0.38 -0.85,-0.85z" fill="#D66142" id="svg_427"/>
    <path d="m387.04,232.68c0.27,0.01 0.55,-0.23 0.55,-0.23s0.01,0 0.01,0.01l0,-2.35c0,0 0,0 0,0s-1.37,1.03 -1.41,1.72c-0.02,0.47 0.38,0.85 0.85,0.85z" fill="#616161" id="svg_428" opacity="0.2"/>
   </g>
  </g>
 </g>

</svg>