<?xml version="1.0"?>
<svg width="40" height="56" xmlns="http://www.w3.org/2000/svg" xmlns:svg="http://www.w3.org/2000/svg" enable-background="new 0 0 450 450" version="1.1" xml:space="preserve">
 <g class="layer">
  <title>Layer 1</title>
  <g id="svg_332" transform="translate(-15.1966, 2.86929) translate(-335.387, -123.13)">
   <g id="svg_333">
    <g id="svg_334">
     <g id="svg_335">
      <path d="m355.12,176.09c-2.36,0 -4.28,-1.88 -4.28,-4.19l-0.12,-47.3c-0.01,-2.33 1.91,-4.22 4.27,-4.22l31.26,0.06c2.35,0.01 4.27,1.9 4.27,4.22l0,47.2c0,2.31 -1.91,4.19 -4.26,4.19l-31.14,0.04z" fill="#C9C9C9" id="svg_336"/>
     </g>
     <path d="m355.51,175.97c-2.33,0 -4.22,-1.88 -4.22,-4.2l0,-47.19c0,-2.31 1.89,-4.2 4.22,-4.2l30.8,0c2.32,0 4.21,1.89 4.21,4.2l0,47.19c0,2.32 -1.89,4.2 -4.21,4.2l-30.8,0z" fill="#FFFFFF" id="svg_337"/>
     <g id="svg_338">
      <path d="m356.21,126.81c0,0.2 -0.11,0.46 -0.31,0.79c-0.2,0.33 -0.41,0.54 -0.61,0.63c-0.16,0.07 -0.27,0.12 -0.35,0.15c-0.08,0.03 -0.15,0.04 -0.2,0.04c-0.06,0 -0.12,0 -0.17,0c-0.42,0 -0.75,-0.15 -0.99,-0.45c-0.2,-0.26 -0.3,-0.58 -0.3,-0.96c0,-0.25 0.05,-0.54 0.15,-0.87c0.1,-0.33 0.22,-0.61 0.37,-0.84c0.22,-0.32 0.36,-0.52 0.43,-0.6c0.03,-0.04 0.2,-0.18 0.48,-0.42c0.21,-0.18 0.36,-0.29 0.46,-0.35c0.06,-0.03 0.12,-0.05 0.17,-0.05c0.07,0 0.11,0.04 0.11,0.11c0,0.03 -0.1,0.13 -0.31,0.33c-0.15,0.14 -0.31,0.32 -0.46,0.52c-0.05,0.08 -0.13,0.21 -0.23,0.42c-0.11,0.23 -0.17,0.39 -0.17,0.46c0,0.01 0.01,0.03 0.02,0.04c0.02,0.02 0.03,0.02 0.05,0.02c0.1,-0.05 0.21,-0.11 0.33,-0.17c0.24,-0.11 0.41,-0.17 0.52,-0.17c0.2,0 0.41,0.13 0.63,0.38c0.25,0.29 0.38,0.62 0.38,0.99zm-0.88,0.66c0,-0.27 -0.09,-0.53 -0.27,-0.78c-0.19,-0.25 -0.38,-0.38 -0.57,-0.38c-0.07,0 -0.14,0.01 -0.2,0.04c-0.06,0.03 -0.09,0.08 -0.09,0.15c0,0.25 0.1,0.5 0.31,0.77c0.22,0.27 0.46,0.41 0.71,0.41c0.04,0 0.07,-0.01 0.08,-0.04c0.02,-0.03 0.03,-0.08 0.03,-0.17z" fill="#333333" id="svg_339"/>
     </g>
     <g id="svg_340">
      <path d="m385.87,170.07c0,-0.2 0.11,-0.47 0.31,-0.79c0.2,-0.33 0.41,-0.54 0.61,-0.63c0.16,-0.08 0.27,-0.12 0.35,-0.15c0.08,-0.03 0.15,-0.04 0.2,-0.04c0.06,0 0.12,0 0.17,0c0.43,0 0.75,0.15 0.99,0.45c0.2,0.26 0.3,0.58 0.3,0.96c0,0.25 -0.05,0.54 -0.15,0.87c-0.1,0.33 -0.23,0.6 -0.38,0.83c-0.21,0.33 -0.35,0.53 -0.42,0.6c-0.03,0.04 -0.19,0.19 -0.48,0.43c-0.21,0.18 -0.36,0.29 -0.45,0.34c-0.07,0.04 -0.13,0.06 -0.18,0.06c-0.08,0 -0.11,-0.04 -0.11,-0.12c0,-0.02 0.1,-0.12 0.31,-0.32c0.15,-0.15 0.31,-0.32 0.46,-0.52c0.06,-0.08 0.13,-0.21 0.23,-0.42c0.11,-0.23 0.17,-0.39 0.17,-0.46c0,-0.01 -0.01,-0.02 -0.02,-0.04c-0.01,-0.02 -0.03,-0.02 -0.05,-0.02c-0.1,0.06 -0.21,0.11 -0.33,0.17c-0.24,0.11 -0.41,0.17 -0.51,0.17c-0.21,0 -0.42,-0.13 -0.64,-0.38c-0.25,-0.29 -0.38,-0.62 -0.38,-0.99zm0.88,-0.66c0,0.27 0.09,0.52 0.27,0.78c0.19,0.25 0.37,0.38 0.57,0.38c0.08,0 0.14,-0.02 0.2,-0.05c0.06,-0.03 0.1,-0.08 0.1,-0.15c0,-0.24 -0.11,-0.5 -0.32,-0.76c-0.22,-0.28 -0.46,-0.42 -0.71,-0.42c-0.04,0 -0.06,0.01 -0.08,0.04c-0.02,0.03 -0.03,0.09 -0.03,0.18z" fill="#333333" id="svg_341"/>
     </g>
    </g>
    <g id="svg_342">
     <g id="svg_343">
      <path d="m382.64,129.77c0.01,-1.01 -4.36,-5.3 -4.36,-5.3s0,0.01 -0.01,0.01l0,10.3l2.04,0.01l-1.62,-2.8c0.38,0.24 0.84,0.38 1.34,0.38c1.43,0.01 2.61,-1.16 2.61,-2.6z" fill="#616161" id="svg_344" opacity="0.2"/>
     </g>
     <g id="svg_345">
      <path d="m382.64,148.79c0.01,-1.01 -4.36,-5.29 -4.36,-5.29s0,0 -0.01,0l0,10.3l2.04,0.01l-1.62,-2.8c0.38,0.24 0.84,0.38 1.34,0.38c1.43,0.01 2.61,-1.16 2.61,-2.6z" fill="#616161" id="svg_346" opacity="0.2"/>
     </g>
     <g id="svg_347">
      <path d="m359.2,129.77c-0.01,-1.01 4.36,-5.3 4.36,-5.3s0,0.01 0.01,0.01l0,10.3l-2.04,0.01l1.62,-2.8c-0.39,0.24 -0.85,0.38 -1.34,0.38c-1.44,0.01 -2.61,-1.16 -2.61,-2.6z" fill="#616161" id="svg_348" opacity="0.2"/>
     </g>
     <g id="svg_349">
      <path d="m359.2,147.86c-0.01,-1 4.36,-5.29 4.36,-5.29s0,0 0.01,0.01l0,10.3l-2.04,0l1.62,-2.79c-0.39,0.23 -0.85,0.37 -1.34,0.38c-1.44,0 -2.61,-1.17 -2.61,-2.61z" fill="#616161" id="svg_350" opacity="0.2"/>
     </g>
     <g id="svg_351">
      <path d="m382.62,166.8c0,1 -4.36,5.29 -4.36,5.29s0,0 -0.01,-0.01l0,-10.3l2.04,0l-1.63,2.79c0.39,-0.24 0.85,-0.37 1.35,-0.38c1.44,0 2.61,1.16 2.61,2.61z" fill="#616161" id="svg_352" opacity="0.2"/>
     </g>
     <g id="svg_353">
      <path d="m359.18,166.8c-0.01,1 4.36,5.29 4.36,5.29s0,0 0.01,-0.01l0,-10.3l-2.04,0l1.62,2.79c-0.39,-0.24 -0.85,-0.37 -1.34,-0.38c-1.44,0 -2.61,1.16 -2.61,2.61z" fill="#616161" id="svg_354" opacity="0.2"/>
     </g>
     <g id="svg_355">
      <path d="m355.74,131.67c0,-0.27 -1.16,-1.41 -1.16,-1.41l0,0l0,2.75l0.54,0l-0.43,-0.75c0.1,0.07 0.22,0.1 0.35,0.11c0.39,0 0.7,-0.32 0.7,-0.7z" fill="#616161" id="svg_356" opacity="0.2"/>
     </g>
     <g id="svg_357">
      <path d="m386.34,165.78c0,0.27 1.16,1.41 1.16,1.41s0,0 0,0l0,-2.75l-0.54,0l0.43,0.75c-0.1,-0.07 -0.22,-0.1 -0.35,-0.1c-0.39,0 -0.7,0.31 -0.7,0.69z" fill="#616161" id="svg_358" opacity="0.2"/>
     </g>
    </g>
   </g>
   <g id="svg_359">
    <path d="m356.01,131.13c-0.04,0.7 -1.44,1.76 -1.44,1.76s-1.43,-1.07 -1.43,-1.77c0,-0.48 0.39,-0.86 0.87,-0.86c0.27,0 0.57,0.24 0.57,0.24s0.28,-0.24 0.56,-0.24c0.48,0.01 0.9,0.39 0.87,0.87z" fill="#D66142" id="svg_360"/>
    <path d="m355.14,130.26c-0.27,0 -0.56,0.24 -0.56,0.24s0,0 -0.01,-0.01l0,2.4c0,0 0,0 0,0s1.4,-1.06 1.44,-1.76c0.03,-0.48 -0.39,-0.86 -0.87,-0.87z" fill="#616161" id="svg_361" opacity="0.2"/>
   </g>
   <g id="svg_362">
    <path d="m386.04,166.3c0.04,-0.71 1.46,-1.79 1.46,-1.79s1.47,1.08 1.47,1.8c0,0.49 -0.4,0.88 -0.89,0.88c-0.28,0 -0.58,-0.24 -0.58,-0.24s-0.29,0.24 -0.58,0.24c-0.49,-0.01 -0.91,-0.4 -0.88,-0.89z" fill="#D66142" id="svg_363"/>
    <path d="m386.92,167.19c0.29,0 0.58,-0.24 0.58,-0.24s0,0 0.01,0l0,-2.44c0,0 -0.01,0 -0.01,0s-1.42,1.08 -1.46,1.79c-0.03,0.49 0.39,0.88 0.88,0.89z" fill="#616161" id="svg_364" opacity="0.2"/>
   </g>
   <g id="svg_365">
    <path d="m359.18,128.38c0.11,1.98 4.08,4.99 4.08,4.99s4.09,-3.03 4.09,-5.01c0,-1.37 -1.12,-2.47 -2.48,-2.47c-0.77,0 -1.62,0.69 -1.62,0.69s-0.81,-0.69 -1.6,-0.68c-1.37,0.02 -2.54,1.12 -2.47,2.48z" fill="#D66142" id="svg_366"/>
    <path d="m361.65,125.9c0.79,-0.01 1.6,0.68 1.6,0.68s0.01,-0.01 0.02,-0.02l0,6.81c0,0 -0.01,0 -0.01,0s-3.97,-3.01 -4.08,-4.99c-0.07,-1.36 1.1,-2.46 2.47,-2.48z" fill="#616161" id="svg_367" opacity="0.2"/>
   </g>
   <g id="svg_368">
    <path d="m382.05,128.38c-0.1,1.98 -4.08,4.99 -4.08,4.99s-4.08,-3.03 -4.08,-5.01c0,-1.37 1.11,-2.47 2.48,-2.47c0.77,0 1.62,0.69 1.62,0.69s0.81,-0.69 1.6,-0.68c1.36,0.02 2.54,1.12 2.46,2.48z" fill="#D66142" id="svg_369"/>
    <path d="m379.59,125.9c-0.79,-0.01 -1.6,0.68 -1.6,0.68s-0.01,-0.01 -0.03,-0.02l0,6.81c0.01,0 0.01,0 0.01,0s3.98,-3.01 4.08,-4.99c0.08,-1.36 -1.1,-2.46 -2.46,-2.48z" fill="#616161" id="svg_370" opacity="0.2"/>
   </g>
   <g id="svg_371">
    <path d="m359.18,167.62c0.11,-1.98 4.08,-5 4.08,-5s4.09,3.04 4.09,5.02c0,1.37 -1.12,2.47 -2.48,2.47c-0.77,0 -1.62,-0.69 -1.62,-0.69s-0.81,0.69 -1.6,0.68c-1.37,-0.02 -2.54,-1.12 -2.47,-2.48z" fill="#D66142" id="svg_372"/>
    <path d="m361.65,170.1c0.79,0.01 1.6,-0.68 1.6,-0.68s0.01,0.01 0.02,0.02l0,-6.81c0,0 -0.01,-0.01 -0.01,-0.01s-3.97,3.02 -4.08,5c-0.07,1.36 1.1,2.46 2.47,2.48z" fill="#616161" id="svg_373" opacity="0.2"/>
   </g>
   <g id="svg_374">
    <path d="m382.05,167.62c-0.1,-1.98 -4.08,-5 -4.08,-5s-4.08,3.04 -4.08,5.02c0,1.37 1.11,2.47 2.48,2.47c0.77,0 1.62,-0.69 1.62,-0.69s0.81,0.69 1.6,0.68c1.36,-0.02 2.54,-1.12 2.46,-2.48z" fill="#D66142" id="svg_375"/>
    <path d="m379.59,170.1c-0.79,0.01 -1.6,-0.68 -1.6,-0.68s-0.01,0.01 -0.03,0.02l0,-6.81c0.01,0 0.01,-0.01 0.01,-0.01s3.98,3.02 4.08,5c0.08,1.36 -1.1,2.46 -2.46,2.48z" fill="#616161" id="svg_376" opacity="0.2"/>
   </g>
   <g id="svg_377">
    <path d="m359.18,149.25c0.11,-1.98 4.08,-5 4.08,-5s4.09,3.04 4.09,5.03c0,1.36 -1.12,2.46 -2.48,2.46c-0.77,0 -1.62,-0.69 -1.62,-0.69s-0.81,0.69 -1.6,0.68c-1.37,-0.02 -2.54,-1.11 -2.47,-2.48z" fill="#D66142" id="svg_378"/>
    <path d="m361.65,151.73c0.79,0.01 1.6,-0.68 1.6,-0.68s0.01,0.01 0.02,0.02l0,-6.81c0,0 -0.01,-0.01 -0.01,-0.01s-3.97,3.02 -4.08,5c-0.07,1.37 1.1,2.46 2.47,2.48z" fill="#616161" id="svg_379" opacity="0.2"/>
   </g>
   <g id="svg_380">
    <path d="m382.05,149.25c-0.1,-1.98 -4.08,-5 -4.08,-5s-4.08,3.04 -4.08,5.03c0,1.36 1.11,2.46 2.48,2.46c0.77,0 1.62,-0.69 1.62,-0.69s0.81,0.69 1.6,0.68c1.36,-0.02 2.54,-1.11 2.46,-2.48z" fill="#D66142" id="svg_381"/>
    <path d="m379.59,151.73c-0.79,0.01 -1.6,-0.68 -1.6,-0.68s-0.01,0.01 -0.03,0.02l0,-6.81c0.01,0 0.01,-0.01 0.01,-0.01s3.98,3.02 4.08,5c0.08,1.37 -1.1,2.46 -2.46,2.48z" fill="#616161" id="svg_382" opacity="0.2"/>
   </g>
  </g>
 </g>

</svg>