<?xml version="1.0"?>
<svg width="40" height="56" xmlns="http://www.w3.org/2000/svg" xmlns:svg="http://www.w3.org/2000/svg" enable-background="new 0 0 450 450" version="1.1" xml:space="preserve">
 <g class="layer">
  <title>Layer 1</title>
  <g id="svg_276" transform="translate(-15.1966, 2.97556) translate(-335.387, -57.1503)">
   <g id="svg_277">
    <g id="svg_278">
     <g id="svg_279">
      <path d="m355.12,110.11c-2.36,0.01 -4.28,-1.87 -4.28,-4.19l-0.12,-47.3c-0.01,-2.33 1.91,-4.22 4.27,-4.22l31.26,0.06c2.35,0.01 4.27,1.9 4.27,4.22l0,47.21c0,2.3 -1.91,4.18 -4.25,4.19l-31.15,0.03z" fill="#C9C9C9" id="svg_280"/>
     </g>
     <path d="m355.51,110c-2.33,0 -4.22,-1.89 -4.22,-4.2l0,-47.2c0,-2.31 1.89,-4.19 4.22,-4.19l30.8,0c2.32,0 4.21,1.88 4.21,4.19l0,47.2c0,2.31 -1.89,4.19 -4.21,4.19l-30.8,0l0,0.01z" fill="#FFFFFF" id="svg_281"/>
     <g id="svg_282">
      <path d="m356.24,57.99c-0.08,0.14 -0.15,0.28 -0.22,0.4c-0.14,0.3 -0.26,0.55 -0.35,0.75c-0.11,0.24 -0.22,0.47 -0.3,0.69c-0.13,0.31 -0.2,0.47 -0.2,0.47c-0.07,0.15 -0.17,0.34 -0.3,0.57c-0.16,0.27 -0.29,0.47 -0.38,0.59c-0.16,0.2 -0.32,0.38 -0.49,0.54c-0.18,0.17 -0.38,0.32 -0.6,0.45c-0.02,0 -0.03,-0.02 -0.05,-0.03c-0.01,-0.01 -0.02,-0.03 -0.02,-0.05c0,-0.03 0.09,-0.17 0.28,-0.4c0.12,-0.15 0.2,-0.27 0.26,-0.36c0.07,-0.12 0.14,-0.25 0.21,-0.4c0.06,-0.15 0.13,-0.31 0.2,-0.47c0.18,-0.37 0.34,-0.72 0.46,-1.03c0.08,-0.2 0.16,-0.42 0.24,-0.66c0,-0.08 -0.29,-0.12 -0.85,-0.12c-0.08,0 -0.17,0.01 -0.26,0.04c-0.09,0.02 -0.17,0.07 -0.25,0.13l-0.16,0l0,-0.12c0.26,-0.38 0.51,-0.64 0.76,-0.79c0.19,-0.12 0.4,-0.18 0.62,-0.18c0.06,0 0.16,0.01 0.3,0.02c0.14,0.02 0.24,0.03 0.32,0.03c0.1,0 0.19,-0.01 0.25,-0.01c0.19,-0.02 0.32,-0.07 0.41,-0.14l0.1,0l0.02,0.08z" fill="#333333" id="svg_283"/>
     </g>
     <g id="svg_284">
      <path d="m385.84,106.93c0.08,-0.14 0.15,-0.27 0.22,-0.4c0.14,-0.29 0.26,-0.54 0.35,-0.75c0.12,-0.24 0.22,-0.47 0.3,-0.68c0.13,-0.32 0.2,-0.47 0.2,-0.48c0.07,-0.15 0.18,-0.34 0.31,-0.57c0.15,-0.27 0.28,-0.46 0.37,-0.59c0.16,-0.2 0.32,-0.38 0.48,-0.53c0.19,-0.17 0.39,-0.33 0.61,-0.46c0.02,0.01 0.03,0.02 0.05,0.03c0.01,0.01 0.02,0.03 0.02,0.06c0,0.03 -0.09,0.16 -0.28,0.4c-0.12,0.14 -0.2,0.26 -0.26,0.35c-0.07,0.12 -0.14,0.25 -0.21,0.4c-0.06,0.15 -0.13,0.31 -0.2,0.47c-0.18,0.37 -0.34,0.72 -0.46,1.04c-0.08,0.19 -0.16,0.41 -0.24,0.66c0,0.08 0.29,0.12 0.86,0.12c0.08,0 0.16,-0.02 0.25,-0.04c0.09,-0.03 0.17,-0.07 0.25,-0.14l0.16,0l0,0.13c-0.26,0.37 -0.52,0.64 -0.76,0.78c-0.19,0.12 -0.4,0.18 -0.62,0.18c-0.06,0 -0.16,-0.01 -0.3,-0.02c-0.14,-0.02 -0.25,-0.03 -0.32,-0.03c-0.11,0.01 -0.18,0.01 -0.25,0.02c-0.19,0.02 -0.32,0.06 -0.41,0.13l-0.1,0l-0.02,-0.08z" fill="#333333" id="svg_285"/>
     </g>
    </g>
    <g id="svg_286">
     <g id="svg_287">
      <path d="m382.64,63.79c0.01,-1 -4.36,-5.29 -4.36,-5.29s0,0 -0.01,0.01l0,10.3l2.04,0l-1.62,-2.79c0.38,0.24 0.84,0.37 1.34,0.38c1.44,0 2.61,-1.17 2.61,-2.61z" fill="#616161" id="svg_288" opacity="0.2"/>
     </g>
     <g id="svg_289">
      <path d="m382.64,82.81c0.01,-1 -4.36,-5.29 -4.36,-5.29s0,0 -0.01,0.01l0,10.3l2.04,0l-1.62,-2.79c0.38,0.24 0.84,0.38 1.34,0.38c1.44,0 2.61,-1.17 2.61,-2.61z" fill="#616161" id="svg_290" opacity="0.2"/>
     </g>
     <g id="svg_291">
      <path d="m359.19,63.79c0,-1 4.37,-5.29 4.37,-5.29s0,0 0.01,0.01l0,10.3l-2.04,0l1.62,-2.79c-0.39,0.24 -0.85,0.37 -1.34,0.38c-1.44,0 -2.62,-1.17 -2.62,-2.61z" fill="#616161" id="svg_292" opacity="0.2"/>
     </g>
     <g id="svg_293">
      <path d="m366.34,73.47c0,-1 4.36,-5.29 4.36,-5.29s0,0 0.01,0.01l0,10.3l-2.04,0l1.63,-2.79c-0.39,0.23 -0.85,0.37 -1.35,0.38c-1.44,0 -2.61,-1.17 -2.61,-2.61z" fill="#616161" id="svg_294" opacity="0.2"/>
     </g>
     <g id="svg_295">
      <path d="m359.19,81.88c0,-1 4.37,-5.29 4.37,-5.29s0,0 0.01,0.01l0,10.3l-2.04,0.01l1.62,-2.8c-0.39,0.24 -0.85,0.37 -1.34,0.38c-1.44,0 -2.62,-1.16 -2.62,-2.61z" fill="#616161" id="svg_296" opacity="0.2"/>
     </g>
     <g id="svg_297">
      <path d="m382.62,100.82c0.01,1.01 -4.36,5.29 -4.36,5.29s0,0 -0.01,0l0,-10.3l2.04,-0.01l-1.63,2.79c0.39,-0.23 0.85,-0.37 1.35,-0.38c1.44,0 2.61,1.17 2.61,2.61z" fill="#616161" id="svg_298" opacity="0.2"/>
     </g>
     <g id="svg_299">
      <path d="m359.18,100.82c-0.01,1.01 4.36,5.29 4.36,5.29s0,0 0.01,0l0,-10.3l-2.04,-0.01l1.62,2.79c-0.38,-0.23 -0.85,-0.37 -1.34,-0.38c-1.44,0 -2.61,1.17 -2.61,2.61z" fill="#616161" id="svg_300" opacity="0.2"/>
     </g>
     <g id="svg_301">
      <path d="m355.86,65.69c0,-0.26 -1.17,-1.41 -1.17,-1.41s0,0 0,0l0,2.75l0.54,0l-0.43,-0.74c0.1,0.06 0.23,0.1 0.36,0.1c0.38,0 0.7,-0.31 0.7,-0.7z" fill="#616161" id="svg_302" opacity="0.2"/>
     </g>
     <g id="svg_303">
      <path d="m386.45,99.81c0,0.26 1.17,1.41 1.17,1.41s0,0 0,0l0,-2.75l-0.54,0l0.43,0.74c-0.1,-0.06 -0.23,-0.1 -0.36,-0.1c-0.38,0 -0.7,0.31 -0.7,0.7z" fill="#616161" id="svg_304" opacity="0.2"/>
     </g>
    </g>
   </g>
   <g id="svg_305">
    <path d="m355.87,65.16c-0.04,0.7 -1.44,1.75 -1.44,1.75s-1.43,-1.06 -1.43,-1.76c0,-0.48 0.39,-0.87 0.87,-0.87c0.27,0 0.57,0.24 0.57,0.24s0.28,-0.24 0.56,-0.24c0.48,0.01 0.89,0.4 0.87,0.88z" fill="#D66142" id="svg_306"/>
    <path d="m355,64.29c-0.28,-0.01 -0.56,0.23 -0.56,0.23s-0.01,0 -0.01,0l0,2.39c0,0 0,0 0,0s1.4,-1.05 1.44,-1.75c0.02,-0.48 -0.39,-0.87 -0.87,-0.87z" fill="#616161" id="svg_307" opacity="0.2"/>
   </g>
   <g id="svg_308">
    <path d="m385.89,100.32c0.04,-0.71 1.47,-1.79 1.47,-1.79s1.47,1.09 1.47,1.8c0,0.49 -0.41,0.89 -0.9,0.89c-0.27,0 -0.58,-0.25 -0.58,-0.25s-0.29,0.25 -0.57,0.24c-0.49,0 -0.91,-0.4 -0.89,-0.89z" fill="#D66142" id="svg_309"/>
    <path d="m386.78,101.21c0.28,0.01 0.57,-0.24 0.57,-0.24s0,0 0.01,0.01l0,-2.45c0,0 0,0 0,0s-1.43,1.08 -1.47,1.79c-0.02,0.49 0.4,0.89 0.89,0.89z" fill="#616161" id="svg_310" opacity="0.2"/>
   </g>
   <g id="svg_311">
    <path d="m359.64,62.41c0.1,1.98 4.08,4.99 4.08,4.99s4.08,-3.03 4.08,-5.02c0,-1.36 -1.11,-2.47 -2.48,-2.47c-0.76,0 -1.62,0.7 -1.62,0.7s-0.81,-0.7 -1.6,-0.68c-1.36,0.01 -2.54,1.11 -2.46,2.48z" fill="#D66142" id="svg_312"/>
    <path d="m362.1,59.92c0.79,-0.01 1.6,0.68 1.6,0.68s0.01,0 0.03,-0.02l0,6.81c-0.01,0.01 -0.01,0.01 -0.01,0.01s-3.98,-3.01 -4.08,-5c-0.08,-1.36 1.1,-2.46 2.46,-2.48z" fill="#616161" id="svg_313" opacity="0.2"/>
   </g>
   <g id="svg_314">
    <path d="m382.51,62.41c-0.11,1.98 -4.08,4.99 -4.08,4.99s-4.09,-3.03 -4.09,-5.02c0,-1.36 1.12,-2.47 2.48,-2.47c0.77,0 1.62,0.7 1.62,0.7s0.81,-0.7 1.6,-0.68c1.37,0.01 2.54,1.11 2.47,2.48z" fill="#D66142" id="svg_315"/>
    <path d="m380.04,59.92c-0.79,-0.01 -1.6,0.68 -1.6,0.68s-0.01,0 -0.02,-0.02l0,6.81c0.01,0.01 0.01,0.01 0.01,0.01s3.97,-3.01 4.08,-5c0.07,-1.36 -1.1,-2.46 -2.47,-2.48z" fill="#616161" id="svg_316" opacity="0.2"/>
   </g>
   <g id="svg_317">
    <path d="m366.83,72.08c0.11,1.98 4.08,4.99 4.08,4.99s4.08,-3.03 4.08,-5.01c0,-1.37 -1.11,-2.47 -2.48,-2.47c-0.76,0 -1.62,0.69 -1.62,0.69s-0.81,-0.69 -1.6,-0.68c-1.36,0.02 -2.53,1.12 -2.46,2.48z" fill="#D66142" id="svg_318"/>
    <path d="m369.29,69.6c0.79,-0.01 1.6,0.68 1.6,0.68s0.02,-0.01 0.03,-0.02l0,6.81c-0.01,0.01 -0.01,0.01 -0.01,0.01s-3.97,-3.01 -4.08,-5c-0.07,-1.36 1.1,-2.46 2.46,-2.48z" fill="#616161" id="svg_319" opacity="0.2"/>
   </g>
   <g id="svg_320">
    <path d="m359.64,101.64c0.1,-1.98 4.08,-4.99 4.08,-4.99s4.08,3.03 4.08,5.02c0,1.36 -1.11,2.46 -2.48,2.46c-0.76,0 -1.62,-0.69 -1.62,-0.69s-0.81,0.69 -1.6,0.68c-1.36,-0.02 -2.54,-1.11 -2.46,-2.48z" fill="#D66142" id="svg_321"/>
    <path d="m362.1,104.12c0.79,0.01 1.6,-0.68 1.6,-0.68s0.01,0.01 0.03,0.02l0,-6.8c-0.01,-0.01 -0.01,-0.01 -0.01,-0.01s-3.98,3.01 -4.08,4.99c-0.08,1.37 1.1,2.46 2.46,2.48z" fill="#616161" id="svg_322" opacity="0.2"/>
   </g>
   <g id="svg_323">
    <path d="m382.51,101.64c-0.11,-1.98 -4.08,-4.99 -4.08,-4.99s-4.09,3.03 -4.09,5.02c0,1.36 1.12,2.46 2.48,2.46c0.77,0 1.62,-0.69 1.62,-0.69s0.81,0.69 1.6,0.68c1.37,-0.02 2.54,-1.11 2.47,-2.48z" fill="#D66142" id="svg_324"/>
    <path d="m380.04,104.12c-0.79,0.01 -1.6,-0.68 -1.6,-0.68s-0.01,0.01 -0.02,0.02l0,-6.8c0.01,-0.01 0.01,-0.01 0.01,-0.01s3.97,3.01 4.08,4.99c0.07,1.37 -1.1,2.46 -2.47,2.48z" fill="#616161" id="svg_325" opacity="0.2"/>
   </g>
   <g id="svg_326">
    <path d="m359.64,83.27c0.1,-1.98 4.08,-4.99 4.08,-4.99s4.08,3.03 4.08,5.02c0,1.36 -1.11,2.46 -2.48,2.46c-0.76,0 -1.62,-0.69 -1.62,-0.69s-0.81,0.69 -1.6,0.68c-1.36,-0.01 -2.54,-1.11 -2.46,-2.48z" fill="#D66142" id="svg_327"/>
    <path d="m362.1,85.75c0.79,0.02 1.6,-0.68 1.6,-0.68s0.01,0.01 0.03,0.02l0,-6.8c-0.01,-0.01 -0.01,-0.01 -0.01,-0.01s-3.98,3.01 -4.08,4.99c-0.08,1.37 1.1,2.47 2.46,2.48z" fill="#616161" id="svg_328" opacity="0.2"/>
   </g>
   <g id="svg_329">
    <path d="m382.51,83.27c-0.11,-1.98 -4.08,-4.99 -4.08,-4.99s-4.09,3.03 -4.09,5.02c0,1.36 1.12,2.46 2.48,2.46c0.77,0 1.62,-0.69 1.62,-0.69s0.81,0.69 1.6,0.68c1.37,-0.01 2.54,-1.11 2.47,-2.48z" fill="#D66142" id="svg_330"/>
    <path d="m380.04,85.75c-0.79,0.02 -1.6,-0.68 -1.6,-0.68s-0.01,0.01 -0.02,0.02l0,-6.8c0.01,-0.01 0.01,-0.01 0.01,-0.01s3.97,3.01 4.08,4.99c0.07,1.37 -1.1,2.47 -2.47,2.48z" fill="#616161" id="svg_331" opacity="0.2"/>
   </g>
  </g>
 </g>

</svg>