<?xml version="1.0"?>
<svg width="40" height="56" xmlns="http://www.w3.org/2000/svg" xmlns:svg="http://www.w3.org/2000/svg" enable-background="new 0 0 450 450" version="1.1" xml:space="preserve">
 <g class="layer">
  <title>Layer 1</title>
  <g id="svg_2225" transform="translate(0.0311948, -0.0611899) matrix(1, 0, 0, 1.0019, -107.774, -385.455)">
   <g id="svg_2226">
    <g id="svg_2227">
     <g id="svg_2228">
      <path d="m112.28,440.54c-2.35,0 -4.27,-1.88 -4.28,-4.19l-0.12,-47.31c-0.01,-2.33 1.91,-4.22 4.27,-4.21l31.26,0.05c2.36,0.01 4.27,1.9 4.27,4.23l0,47.2c0,2.31 -1.91,4.19 -4.25,4.19l-31.15,0.04z" fill="#C9C9C9" id="svg_2229"/>
     </g>
     <path d="m112.67,440.42c-2.32,0 -4.21,-1.89 -4.21,-4.2l0,-47.19c0,-2.32 1.88,-4.2 4.21,-4.2l30.8,0c2.32,0 4.22,1.88 4.22,4.2l0,47.19c0,2.31 -1.9,4.2 -4.22,4.2l-30.8,0z" fill="#FFFFFF" id="svg_2230"/>
     <g id="svg_2231">
      <path d="m113.4,391.21c0,0.09 -0.04,0.22 -0.13,0.38c-0.12,0.22 -0.29,0.44 -0.51,0.66c-0.26,0.27 -0.4,0.4 -0.42,0.42c-0.16,0.12 -0.36,0.18 -0.59,0.18c-0.32,0 -0.6,-0.12 -0.84,-0.37c-0.2,-0.21 -0.3,-0.42 -0.3,-0.61c0,-0.14 0.07,-0.3 0.21,-0.48c0.13,-0.18 0.27,-0.37 0.41,-0.55c-0.1,-0.09 -0.19,-0.2 -0.28,-0.31c-0.08,-0.12 -0.12,-0.25 -0.12,-0.39c0,-0.18 0.07,-0.37 0.2,-0.57c0.13,-0.17 0.24,-0.32 0.33,-0.44c0.21,-0.31 0.38,-0.5 0.52,-0.59c0.14,-0.09 0.29,-0.13 0.45,-0.13c0.24,0 0.46,0.06 0.63,0.2c0.18,0.14 0.27,0.33 0.27,0.57c0,0.25 -0.11,0.49 -0.32,0.72c-0.21,0.23 -0.32,0.39 -0.32,0.47c0.21,0.14 0.4,0.27 0.55,0.41c0.17,0.14 0.26,0.29 0.26,0.43zm-0.79,0.54c0,-0.12 -0.16,-0.28 -0.47,-0.47c-0.27,-0.17 -0.45,-0.25 -0.53,-0.25c-0.03,0 -0.06,0.04 -0.12,0.13c-0.05,0.09 -0.07,0.17 -0.07,0.23c0,0.17 0.1,0.33 0.3,0.48c0.19,0.14 0.37,0.21 0.53,0.21c0.08,0 0.17,-0.04 0.24,-0.1c0.08,-0.07 0.12,-0.15 0.12,-0.23zm-0.23,-1.94c0,-0.1 -0.05,-0.2 -0.16,-0.31c-0.13,-0.13 -0.27,-0.19 -0.43,-0.19c-0.07,0 -0.13,0.02 -0.18,0.07c-0.05,0.04 -0.07,0.1 -0.07,0.16c0,0.13 0.1,0.28 0.31,0.43c0.18,0.14 0.29,0.21 0.34,0.21c0.04,0 0.08,-0.05 0.12,-0.14c0.05,-0.09 0.07,-0.16 0.07,-0.23z" fill="#333333" id="svg_2232"/>
     </g>
     <g id="svg_2233">
      <path d="m143,434.55c0,-0.09 0.04,-0.21 0.13,-0.37c0.12,-0.21 0.29,-0.44 0.51,-0.66c0.26,-0.26 0.4,-0.4 0.42,-0.42c0.16,-0.12 0.36,-0.18 0.6,-0.18c0.32,0 0.59,0.12 0.83,0.37c0.2,0.21 0.3,0.41 0.3,0.61c0,0.14 -0.07,0.3 -0.2,0.48c-0.14,0.18 -0.28,0.37 -0.42,0.55c0.1,0.09 0.2,0.2 0.28,0.32c0.08,0.11 0.12,0.24 0.12,0.38c0,0.18 -0.07,0.37 -0.2,0.57c-0.13,0.17 -0.24,0.32 -0.32,0.44c-0.22,0.31 -0.39,0.5 -0.53,0.59c-0.14,0.09 -0.29,0.13 -0.45,0.13c-0.24,0 -0.46,-0.06 -0.63,-0.2c-0.18,-0.14 -0.27,-0.33 -0.27,-0.56c0,-0.26 0.11,-0.5 0.32,-0.73c0.21,-0.23 0.32,-0.39 0.32,-0.47c-0.21,-0.14 -0.4,-0.27 -0.55,-0.4c-0.17,-0.15 -0.26,-0.3 -0.26,-0.45zm0.79,-0.53c0,0.13 0.16,0.29 0.47,0.47c0.28,0.17 0.45,0.25 0.53,0.25c0.03,0 0.07,-0.04 0.12,-0.13c0.05,-0.09 0.07,-0.17 0.07,-0.23c0,-0.17 -0.1,-0.33 -0.3,-0.48c-0.19,-0.14 -0.37,-0.21 -0.53,-0.21c-0.08,0 -0.16,0.04 -0.24,0.11c-0.08,0.07 -0.12,0.14 -0.12,0.22zm0.23,1.94c0,0.1 0.06,0.2 0.17,0.31c0.12,0.13 0.26,0.19 0.42,0.19c0.07,0 0.13,-0.02 0.18,-0.07c0.05,-0.04 0.07,-0.09 0.07,-0.16c0,-0.13 -0.1,-0.28 -0.31,-0.43c-0.17,-0.14 -0.29,-0.2 -0.34,-0.2c-0.04,0 -0.08,0.04 -0.12,0.13c-0.05,0.09 -0.07,0.17 -0.07,0.23z" fill="#333333" id="svg_2234"/>
     </g>
    </g>
    <g id="svg_2235">
     <g id="svg_2236">
      <path d="m139.81,394.21c0,-1 -4.37,-5.29 -4.37,-5.29s0,0.01 0,0.01l0,10.3l2.03,0l-1.62,-2.79c0.39,0.24 0.85,0.38 1.34,0.38c1.44,0 2.62,-1.16 2.62,-2.61z" fill="#616161" id="svg_2237" opacity="0.2"/>
     </g>
     <g id="svg_2238">
      <path d="m139.81,406.58c0,-1.01 -4.37,-5.29 -4.37,-5.29s0,0 0,0l0,10.31l2.03,0l-1.62,-2.79c0.39,0.23 0.85,0.37 1.34,0.37c1.44,0.01 2.62,-1.16 2.62,-2.6z" fill="#616161" id="svg_2239" opacity="0.2"/>
     </g>
     <g id="svg_2240">
      <path d="m116.36,394.21c0,-1 4.36,-5.29 4.36,-5.29s0,0.01 0.01,0.01l0,10.3l-2.04,0l1.63,-2.79c-0.39,0.24 -0.85,0.38 -1.35,0.38c-1.44,0 -2.61,-1.16 -2.61,-2.61z" fill="#616161" id="svg_2241" opacity="0.2"/>
     </g>
     <g id="svg_2242">
      <path d="m116.36,406.58c0,-1.01 4.36,-5.29 4.36,-5.29s0,0 0.01,0l0,10.31l-2.04,0l1.63,-2.79c-0.39,0.23 -0.85,0.37 -1.35,0.37c-1.44,0.01 -2.61,-1.16 -2.61,-2.6z" fill="#616161" id="svg_2243" opacity="0.2"/>
     </g>
     <g id="svg_2244">
      <path d="m139.78,431.25c0.01,1 -4.36,5.29 -4.36,5.29s0,-0.01 -0.01,-0.01l0,-10.3l2.04,0l-1.62,2.78c0.39,-0.23 0.84,-0.37 1.34,-0.37c1.44,0 2.61,1.16 2.61,2.61z" fill="#616161" id="svg_2245" opacity="0.2"/>
     </g>
     <g id="svg_2246">
      <path d="m139.78,418.88c0.01,1 -4.36,5.29 -4.36,5.29s0,0 -0.01,0l0,-10.3l2.04,-0.01l-1.62,2.79c0.39,-0.23 0.84,-0.37 1.34,-0.38c1.44,0 2.61,1.17 2.61,2.61z" fill="#616161" id="svg_2247" opacity="0.2"/>
     </g>
     <g id="svg_2248">
      <path d="m116.34,431.25c-0.01,1 4.36,5.29 4.36,5.29s0,-0.01 0.01,-0.01l0,-10.3l-2.04,0l1.62,2.78c-0.38,-0.23 -0.84,-0.37 -1.34,-0.37c-1.44,0 -2.61,1.16 -2.61,2.61z" fill="#616161" id="svg_2249" opacity="0.2"/>
     </g>
     <g id="svg_2250">
      <path d="m116.34,418.88c-0.01,1 4.36,5.29 4.36,5.29s0,0 0.01,0l0,-10.3l-2.04,-0.01l1.62,2.79c-0.38,-0.23 -0.84,-0.37 -1.34,-0.38c-1.44,0 -2.61,1.17 -2.61,2.61z" fill="#616161" id="svg_2251" opacity="0.2"/>
     </g>
     <g id="svg_2252">
      <path d="m113.13,396.12c0,-0.27 -1.16,-1.41 -1.16,-1.41l0,0l0,2.74l0.54,0.01l-0.43,-0.75c0.1,0.06 0.23,0.1 0.36,0.1c0.38,0 0.69,-0.31 0.69,-0.69z" fill="#616161" id="svg_2253" opacity="0.2"/>
     </g>
     <g id="svg_2254">
      <path d="m143.5,429.79c0,0.27 1.16,1.41 1.16,1.41s0,0 0,-0.01l0,-2.74l-0.54,0l0.43,0.74c-0.1,-0.06 -0.22,-0.1 -0.36,-0.1c-0.38,0 -0.69,0.31 -0.69,0.7z" fill="#616161" id="svg_2255" opacity="0.2"/>
     </g>
    </g>
   </g>
   <g id="svg_2256">
    <path d="m113.71,395.58c-0.04,0.7 -1.44,1.76 -1.44,1.76s-1.43,-1.07 -1.43,-1.77c0,-0.48 0.39,-0.87 0.87,-0.87c0.27,0 0.57,0.25 0.57,0.25s0.28,-0.25 0.56,-0.24c0.48,0 0.89,0.39 0.87,0.87z" fill="#D66142" id="svg_2257"/>
    <path d="m112.84,394.71c-0.28,0 -0.56,0.24 -0.56,0.24s-0.01,-0.01 -0.01,-0.01l0,2.39c0,0 0,0.01 0,0.01s1.4,-1.06 1.43,-1.76c0.03,-0.48 -0.38,-0.87 -0.86,-0.87z" fill="#616161" id="svg_2258" opacity="0.2"/>
   </g>
   <g id="svg_2259">
    <path d="m143.23,430.24c0.04,-0.71 1.47,-1.79 1.47,-1.79s1.46,1.09 1.46,1.8c0,0.49 -0.4,0.88 -0.89,0.88c-0.28,0 -0.58,-0.24 -0.58,-0.24s-0.29,0.24 -0.57,0.24c-0.5,0 -0.92,-0.4 -0.89,-0.89z" fill="#D66142" id="svg_2260"/>
    <path d="m144.12,431.13c0.28,0 0.57,-0.24 0.57,-0.24s0,0 0.01,0.01l0,-2.45c0,0 0,0 0,0s-1.43,1.08 -1.47,1.79c-0.03,0.49 0.39,0.89 0.89,0.89z" fill="#616161" id="svg_2261" opacity="0.2"/>
   </g>
   <g id="svg_2262">
    <path d="m116.93,392.83c0.11,1.98 4.08,4.99 4.08,4.99s4.09,-3.03 4.09,-5.02c0,-1.36 -1.12,-2.47 -2.48,-2.47c-0.77,0 -1.62,0.7 -1.62,0.7s-0.82,-0.7 -1.6,-0.68c-1.37,0.02 -2.54,1.11 -2.47,2.48z" fill="#D66142" id="svg_2263"/>
    <path d="m119.4,390.35c0.79,-0.02 1.6,0.68 1.6,0.68s0.01,-0.01 0.03,-0.02l0,6.8c-0.01,0.01 -0.02,0.01 -0.02,0.01s-3.97,-3.01 -4.08,-4.99c-0.07,-1.37 1.1,-2.46 2.47,-2.48z" fill="#616161" id="svg_2264" opacity="0.2"/>
   </g>
   <g id="svg_2265">
    <path d="m139.8,392.83c-0.11,1.98 -4.08,4.99 -4.08,4.99s-4.08,-3.03 -4.08,-5.02c0,-1.36 1.11,-2.47 2.48,-2.47c0.76,0 1.61,0.7 1.61,0.7s0.82,-0.7 1.61,-0.68c1.36,0.02 2.53,1.11 2.46,2.48z" fill="#D66142" id="svg_2266"/>
    <path d="m137.34,390.35c-0.79,-0.02 -1.61,0.68 -1.61,0.68s0,-0.01 -0.02,-0.02l0,6.8c0.01,0.01 0.01,0.01 0.01,0.01s3.97,-3.01 4.08,-4.99c0.07,-1.37 -1.1,-2.46 -2.46,-2.48z" fill="#616161" id="svg_2267" opacity="0.2"/>
   </g>
   <g id="svg_2268">
    <path d="m116.93,405.07c0.11,1.98 4.08,5 4.08,5s4.09,-3.04 4.09,-5.02c0,-1.37 -1.12,-2.47 -2.48,-2.47c-0.77,0 -1.62,0.69 -1.62,0.69s-0.82,-0.69 -1.6,-0.68c-1.37,0.02 -2.54,1.12 -2.47,2.48z" fill="#D66142" id="svg_2269"/>
    <path d="m119.4,402.59c0.79,-0.01 1.6,0.68 1.6,0.68s0.01,0 0.03,-0.02l0,6.81c-0.01,0 -0.02,0.01 -0.02,0.01s-3.97,-3.01 -4.08,-5c-0.07,-1.36 1.1,-2.46 2.47,-2.48z" fill="#616161" id="svg_2270" opacity="0.2"/>
   </g>
   <g id="svg_2271">
    <path d="m139.8,405.07c-0.11,1.98 -4.08,5 -4.08,5s-4.08,-3.04 -4.08,-5.02c0,-1.37 1.11,-2.47 2.48,-2.47c0.76,0 1.61,0.69 1.61,0.69s0.82,-0.69 1.61,-0.68c1.36,0.02 2.53,1.12 2.46,2.48z" fill="#D66142" id="svg_2272"/>
    <path d="m137.34,402.59c-0.79,-0.01 -1.61,0.68 -1.61,0.68s0,0 -0.02,-0.02l0,6.81c0.01,0 0.01,0.01 0.01,0.01s3.97,-3.01 4.08,-5c0.07,-1.36 -1.1,-2.46 -2.46,-2.48z" fill="#616161" id="svg_2273" opacity="0.2"/>
   </g>
   <g id="svg_2274">
    <path d="m116.93,432.06c0.11,-1.98 4.08,-4.99 4.08,-4.99s4.09,3.04 4.09,5.02c0,1.36 -1.12,2.47 -2.48,2.47c-0.77,0 -1.62,-0.69 -1.62,-0.69s-0.82,0.69 -1.6,0.68c-1.37,-0.03 -2.54,-1.12 -2.47,-2.49z" fill="#D66142" id="svg_2275"/>
    <path d="m119.4,434.54c0.79,0.02 1.6,-0.67 1.6,-0.67s0.01,0 0.03,0.02l0,-6.81c-0.01,-0.01 -0.02,-0.01 -0.02,-0.01s-3.97,3.01 -4.08,4.99c-0.07,1.37 1.1,2.46 2.47,2.48z" fill="#616161" id="svg_2276" opacity="0.2"/>
   </g>
   <g id="svg_2277">
    <path d="m139.8,432.06c-0.11,-1.98 -4.08,-4.99 -4.08,-4.99s-4.08,3.04 -4.08,5.02c0,1.36 1.11,2.47 2.48,2.47c0.76,0 1.61,-0.69 1.61,-0.69s0.82,0.69 1.61,0.68c1.36,-0.03 2.53,-1.12 2.46,-2.49z" fill="#D66142" id="svg_2278"/>
    <path d="m137.34,434.54c-0.79,0.02 -1.61,-0.67 -1.61,-0.67s0,0 -0.02,0.02l0,-6.81c0.01,-0.01 0.01,-0.01 0.01,-0.01s3.97,3.01 4.08,4.99c0.07,1.37 -1.1,2.46 -2.46,2.48z" fill="#616161" id="svg_2279" opacity="0.2"/>
   </g>
   <g id="svg_2280">
    <path d="m116.93,419.82c0.11,-1.98 4.08,-5 4.08,-5s4.09,3.04 4.09,5.03c0,1.36 -1.12,2.46 -2.48,2.46c-0.77,0 -1.62,-0.69 -1.62,-0.69s-0.82,0.69 -1.6,0.68c-1.37,-0.02 -2.54,-1.12 -2.47,-2.48z" fill="#D66142" id="svg_2281"/>
    <path d="m119.4,422.3c0.79,0.01 1.6,-0.68 1.6,-0.68s0.01,0.01 0.03,0.02l0,-6.81c-0.01,0 -0.02,-0.01 -0.02,-0.01s-3.97,3.01 -4.08,4.99c-0.07,1.37 1.1,2.47 2.47,2.49z" fill="#616161" id="svg_2282" opacity="0.2"/>
   </g>
   <g id="svg_2283">
    <path d="m139.8,419.82c-0.11,-1.98 -4.08,-5 -4.08,-5s-4.08,3.04 -4.08,5.03c0,1.36 1.11,2.46 2.48,2.46c0.76,0 1.61,-0.69 1.61,-0.69s0.82,0.69 1.61,0.68c1.36,-0.02 2.53,-1.12 2.46,-2.48z" fill="#D66142" id="svg_2284"/>
    <path d="m137.34,422.3c-0.79,0.01 -1.61,-0.68 -1.61,-0.68s0,0.01 -0.02,0.02l0,-6.81c0.01,0 0.01,-0.01 0.01,-0.01s3.97,3.01 4.08,4.99c0.07,1.37 -1.1,2.47 -2.46,2.49z" fill="#616161" id="svg_2285" opacity="0.2"/>
   </g>
  </g>
 </g>

</svg>