<?xml version="1.0"?>
<svg width="40" height="56" xmlns="http://www.w3.org/2000/svg" xmlns:svg="http://www.w3.org/2000/svg" enable-background="new 0 0 450 450" version="1.1" xml:space="preserve">
 <g class="layer">
  <title>Layer 1</title>
  <g id="svg_2038" transform="translate(-8.71413, 0.10627) translate(-99.0284, -318.805)">
   <g id="svg_2039">
    <g id="svg_2040">
     <g id="svg_2041">
      <path d="m112.28,374.56c-2.36,0 -4.28,-1.87 -4.28,-4.19l-0.12,-47.3c-0.01,-2.33 1.91,-4.22 4.27,-4.22l31.26,0.06c2.35,0 4.27,1.9 4.27,4.22l0,47.2c0,2.31 -1.91,4.19 -4.26,4.19l-31.14,0.04z" fill="#C9C9C9" id="svg_2042"/>
     </g>
     <path d="m112.67,374.44c-2.32,0 -4.22,-1.88 -4.22,-4.2l0,-47.19c0,-2.31 1.89,-4.19 4.22,-4.19l30.8,0c2.33,0 4.22,1.88 4.22,4.19l0,47.19c0,2.32 -1.9,4.2 -4.22,4.2l-30.8,0z" fill="#FFFFFF" id="svg_2043"/>
     <g id="svg_2044">
      <path d="m113.39,323.96c0,0.3 -0.06,0.62 -0.19,0.97c-0.14,0.34 -0.28,0.6 -0.42,0.76c-0.25,0.29 -0.49,0.53 -0.72,0.72c-0.36,0.32 -0.66,0.48 -0.88,0.48c-0.02,0 -0.04,-0.01 -0.06,-0.02c-0.02,-0.02 -0.04,-0.04 -0.06,-0.06c0.21,-0.13 0.41,-0.31 0.62,-0.55c0.22,-0.24 0.42,-0.56 0.63,-0.96l0,-0.08c-0.02,-0.01 -0.04,-0.02 -0.05,-0.03c-0.17,0.07 -0.31,0.14 -0.45,0.19c-0.14,0.06 -0.26,0.08 -0.36,0.08c-0.21,0 -0.41,-0.11 -0.6,-0.35c-0.22,-0.26 -0.32,-0.58 -0.32,-0.95c0,-0.37 0.21,-0.76 0.65,-1.16c0.41,-0.38 0.74,-0.57 1.01,-0.57c0.25,0 0.51,0.14 0.76,0.4c0.29,0.32 0.44,0.69 0.44,1.13zm-0.92,0.53c0,-0.36 -0.11,-0.66 -0.33,-0.9c-0.2,-0.22 -0.4,-0.32 -0.6,-0.32c-0.05,0 -0.08,0.03 -0.1,0.08c-0.02,0.07 -0.02,0.13 -0.02,0.2c0,0.31 0.07,0.57 0.23,0.77c0.18,0.25 0.36,0.37 0.54,0.37c0.08,0 0.14,-0.01 0.18,-0.03c0.07,-0.03 0.1,-0.09 0.1,-0.17z" fill="#333333" id="svg_2045"/>
     </g>
     <g id="svg_2046">
      <path d="m143.01,369.86c0,-0.3 0.06,-0.62 0.2,-0.97c0.13,-0.35 0.27,-0.6 0.41,-0.77c0.26,-0.29 0.5,-0.52 0.72,-0.71c0.37,-0.32 0.66,-0.48 0.88,-0.48c0.03,0 0.04,0.01 0.06,0.02c0.02,0.02 0.04,0.04 0.06,0.06c-0.2,0.13 -0.41,0.31 -0.62,0.55c-0.22,0.24 -0.42,0.56 -0.63,0.96l0,0.08c0.02,0.01 0.04,0.02 0.05,0.02c0.17,-0.07 0.31,-0.13 0.45,-0.19c0.14,-0.05 0.26,-0.07 0.37,-0.07c0.2,0 0.41,0.11 0.59,0.34c0.22,0.27 0.33,0.59 0.33,0.96c0,0.37 -0.22,0.75 -0.66,1.16c-0.41,0.38 -0.74,0.56 -1.01,0.56c-0.25,0 -0.5,-0.13 -0.76,-0.39c-0.29,-0.32 -0.44,-0.69 -0.44,-1.13zm0.93,-0.53c0,0.36 0.11,0.66 0.33,0.9c0.19,0.21 0.39,0.33 0.59,0.33c0.05,0 0.09,-0.04 0.1,-0.09c0.02,-0.06 0.03,-0.13 0.03,-0.21c0,-0.3 -0.08,-0.56 -0.23,-0.76c-0.19,-0.25 -0.37,-0.38 -0.54,-0.38c-0.09,0 -0.15,0.02 -0.19,0.04c-0.06,0.03 -0.09,0.09 -0.09,0.17z" fill="#333333" id="svg_2047"/>
     </g>
    </g>
    <g id="svg_2048">
     <g id="svg_2049">
      <path d="m139.8,328.24c0,-1.01 -4.36,-5.3 -4.36,-5.3s0,0.01 -0.01,0.01l0,10.31l2.04,0l-1.63,-2.79c0.39,0.23 0.85,0.37 1.35,0.38c1.44,0 2.61,-1.17 2.61,-2.61z" fill="#616161" id="svg_2050" opacity="0.2"/>
     </g>
     <g id="svg_2051">
      <path d="m139.8,340.6c0,-1 -4.36,-5.29 -4.36,-5.29s0,0 -0.01,0.01l0,10.3l2.04,0l-1.63,-2.79c0.39,0.24 0.85,0.38 1.35,0.38c1.44,0 2.61,-1.16 2.61,-2.61z" fill="#616161" id="svg_2052" opacity="0.2"/>
     </g>
     <g id="svg_2053">
      <path d="m116.36,328.24c-0.01,-1.01 4.36,-5.3 4.36,-5.3s0,0.01 0,0.01l0,10.31l-2.03,0l1.62,-2.79c-0.39,0.23 -0.84,0.37 -1.34,0.38c-1.44,0 -2.61,-1.17 -2.61,-2.61z" fill="#616161" id="svg_2054" opacity="0.2"/>
     </g>
     <g id="svg_2055">
      <path d="m123.76,346.69c0,-1 4.36,-5.29 4.36,-5.29s0.01,0.01 0.01,0.01l0,10.3l-2.03,0l1.62,-2.79c-0.39,0.24 -0.85,0.38 -1.34,0.38c-1.44,0.01 -2.62,-1.16 -2.62,-2.61z" fill="#616161" id="svg_2056" opacity="0.2"/>
     </g>
     <g id="svg_2057">
      <path d="m116.36,340.6c-0.01,-1 4.36,-5.29 4.36,-5.29s0,0 0,0.01l0,10.3l-2.03,0l1.62,-2.79c-0.39,0.24 -0.84,0.38 -1.34,0.38c-1.44,0 -2.61,-1.16 -2.61,-2.61z" fill="#616161" id="svg_2058" opacity="0.2"/>
     </g>
     <g id="svg_2059">
      <path d="m139.78,365.27c0.01,1 -4.36,5.29 -4.36,5.29s-0.01,0 -0.01,0l0,-10.31l2.04,0l-1.63,2.79c0.39,-0.23 0.85,-0.37 1.35,-0.38c1.43,0 2.61,1.17 2.61,2.61z" fill="#616161" id="svg_2060" opacity="0.2"/>
     </g>
     <g id="svg_2061">
      <path d="m139.78,352.91c0.01,1 -4.36,5.29 -4.36,5.29s-0.01,-0.01 -0.01,-0.01l0,-10.3l2.04,-0.01l-1.63,2.8c0.39,-0.24 0.85,-0.38 1.35,-0.38c1.43,0 2.61,1.16 2.61,2.61z" fill="#616161" id="svg_2062" opacity="0.2"/>
     </g>
     <g id="svg_2063">
      <path d="m116.34,365.27c-0.01,1 4.36,5.29 4.36,5.29s0,0 0,0l0,-10.31l-2.03,0l1.62,2.79c-0.39,-0.23 -0.85,-0.37 -1.34,-0.38c-1.44,0 -2.61,1.17 -2.61,2.61z" fill="#616161" id="svg_2064" opacity="0.2"/>
     </g>
     <g id="svg_2065">
      <path d="m116.34,352.91c-0.01,1 4.36,5.29 4.36,5.29s0,-0.01 0,-0.01l0,-10.3l-2.03,-0.01l1.62,2.8c-0.39,-0.24 -0.85,-0.38 -1.34,-0.38c-1.44,0 -2.61,1.16 -2.61,2.61z" fill="#616161" id="svg_2066" opacity="0.2"/>
     </g>
     <g id="svg_2067">
      <path d="m112.95,330.14c0,-0.27 -1.17,-1.41 -1.17,-1.41l0,0l0,2.75l0.55,0l-0.44,-0.74c0.11,0.06 0.23,0.1 0.36,0.1c0.38,0 0.7,-0.32 0.7,-0.7z" fill="#616161" id="svg_2068" opacity="0.2"/>
     </g>
     <g id="svg_2069">
      <path d="m143.31,363.81c0,0.27 1.17,1.41 1.17,1.41l0,0l0,-2.75l-0.55,0l0.44,0.74c-0.1,-0.06 -0.23,-0.1 -0.36,-0.1c-0.38,0.01 -0.7,0.31 -0.7,0.7z" fill="#616161" id="svg_2070" opacity="0.2"/>
     </g>
    </g>
   </g>
   <g id="svg_2071">
    <path d="m113.28,329.6c-0.04,0.7 -1.44,1.76 -1.44,1.76s-1.43,-1.07 -1.43,-1.76c0,-0.48 0.39,-0.87 0.87,-0.87c0.27,0 0.57,0.24 0.57,0.24s0.28,-0.24 0.56,-0.24c0.48,0.01 0.89,0.4 0.87,0.87z" fill="#D66142" id="svg_2072"/>
    <path d="m112.41,328.73c-0.28,0 -0.56,0.24 -0.56,0.24s-0.01,0 -0.01,-0.01l0,2.4c0,0 0,0 0,0s1.4,-1.06 1.44,-1.76c0.02,-0.47 -0.39,-0.86 -0.87,-0.87z" fill="#616161" id="svg_2073" opacity="0.2"/>
   </g>
   <g id="svg_2074">
    <path d="m142.8,364.27c0.04,-0.72 1.47,-1.8 1.47,-1.8s1.46,1.09 1.46,1.81c0,0.49 -0.4,0.88 -0.89,0.88c-0.27,0 -0.58,-0.25 -0.58,-0.25s-0.29,0.25 -0.58,0.25c-0.48,-0.01 -0.9,-0.4 -0.88,-0.89z" fill="#D66142" id="svg_2075"/>
    <path d="m143.69,365.16c0.28,0 0.57,-0.25 0.57,-0.25s0,0.01 0.01,0.01l0,-2.44c0,-0.01 0,-0.01 0,-0.01s-1.43,1.08 -1.47,1.8c-0.02,0.49 0.4,0.88 0.89,0.89z" fill="#616161" id="svg_2076" opacity="0.2"/>
   </g>
   <g id="svg_2077">
    <path d="m116.7,326.85c0.1,1.98 4.07,5 4.07,5s4.09,-3.04 4.09,-5.02c0,-1.37 -1.12,-2.47 -2.48,-2.47c-0.77,0 -1.62,0.69 -1.62,0.69s-0.81,-0.69 -1.6,-0.68c-1.37,0.02 -2.54,1.12 -2.46,2.48z" fill="#D66142" id="svg_2078"/>
    <path d="m119.16,324.37c0.79,-0.01 1.6,0.68 1.6,0.68s0.01,-0.01 0.03,-0.02l0,6.81c-0.01,0 -0.02,0.01 -0.02,0.01s-3.97,-3.02 -4.07,-5c-0.08,-1.36 1.09,-2.46 2.46,-2.48z" fill="#616161" id="svg_2079" opacity="0.2"/>
   </g>
   <g id="svg_2080">
    <path d="m124.02,345.05c0.11,1.98 4.08,4.99 4.08,4.99s4.09,-3.03 4.09,-5.02c0,-1.36 -1.12,-2.47 -2.48,-2.47c-0.77,0 -1.62,0.7 -1.62,0.7s-0.81,-0.7 -1.6,-0.69c-1.37,0.03 -2.54,1.12 -2.47,2.49z" fill="#D66142" id="svg_2081"/>
    <path d="m126.49,342.57c0.78,-0.02 1.6,0.68 1.6,0.68s0.01,-0.01 0.02,-0.03l0,6.81c0,0.01 -0.01,0.01 -0.01,0.01s-3.97,-3.01 -4.08,-4.99c-0.07,-1.37 1.1,-2.46 2.47,-2.48z" fill="#616161" id="svg_2082" opacity="0.2"/>
   </g>
   <g id="svg_2083">
    <path d="m139.56,326.85c-0.1,1.98 -4.08,5 -4.08,5s-4.08,-3.04 -4.08,-5.02c0,-1.37 1.12,-2.47 2.48,-2.47c0.77,0 1.62,0.69 1.62,0.69s0.81,-0.69 1.6,-0.68c1.36,0.02 2.54,1.12 2.46,2.48z" fill="#D66142" id="svg_2084"/>
    <path d="m137.1,324.37c-0.79,-0.01 -1.6,0.68 -1.6,0.68s-0.01,-0.01 -0.03,-0.02l0,6.81c0.01,0 0.01,0.01 0.01,0.01s3.98,-3.02 4.08,-5c0.08,-1.36 -1.1,-2.46 -2.46,-2.48z" fill="#616161" id="svg_2085" opacity="0.2"/>
   </g>
   <g id="svg_2086">
    <path d="m116.7,339.1c0.1,1.98 4.07,4.99 4.07,4.99s4.09,-3.03 4.09,-5.02c0,-1.36 -1.12,-2.46 -2.48,-2.46c-0.77,0 -1.62,0.69 -1.62,0.69s-0.81,-0.69 -1.6,-0.68c-1.37,0.01 -2.54,1.11 -2.46,2.48z" fill="#D66142" id="svg_2087"/>
    <path d="m119.16,336.62c0.79,-0.01 1.6,0.68 1.6,0.68s0.01,-0.01 0.03,-0.02l0,6.8c-0.01,0.01 -0.02,0.01 -0.02,0.01s-3.97,-3.01 -4.07,-4.99c-0.08,-1.37 1.09,-2.47 2.46,-2.48z" fill="#616161" id="svg_2088" opacity="0.2"/>
   </g>
   <g id="svg_2089">
    <path d="m139.56,339.1c-0.1,1.98 -4.08,4.99 -4.08,4.99s-4.08,-3.03 -4.08,-5.02c0,-1.36 1.12,-2.46 2.48,-2.46c0.77,0 1.62,0.69 1.62,0.69s0.81,-0.69 1.6,-0.68c1.36,0.01 2.54,1.11 2.46,2.48z" fill="#D66142" id="svg_2090"/>
    <path d="m137.1,336.62c-0.79,-0.01 -1.6,0.68 -1.6,0.68s-0.01,-0.01 -0.03,-0.02l0,6.8c0.01,0.01 0.01,0.01 0.01,0.01s3.98,-3.01 4.08,-4.99c0.08,-1.37 -1.1,-2.47 -2.46,-2.48z" fill="#616161" id="svg_2091" opacity="0.2"/>
   </g>
   <g id="svg_2092">
    <path d="m116.7,366.09c0.1,-1.98 4.07,-4.99 4.07,-4.99s4.09,3.03 4.09,5.01c0,1.37 -1.12,2.47 -2.48,2.47c-0.77,0 -1.62,-0.69 -1.62,-0.69s-0.81,0.69 -1.6,0.68c-1.37,-0.02 -2.54,-1.12 -2.46,-2.48z" fill="#D66142" id="svg_2093"/>
    <path d="m119.16,368.57c0.79,0.01 1.6,-0.68 1.6,-0.68s0.01,0.01 0.03,0.02l0,-6.81c-0.01,0 -0.02,-0.01 -0.02,-0.01s-3.97,3.02 -4.07,4.99c-0.08,1.37 1.09,2.47 2.46,2.49z" fill="#616161" id="svg_2094" opacity="0.2"/>
   </g>
   <g id="svg_2095">
    <path d="m139.56,366.09c-0.1,-1.98 -4.08,-4.99 -4.08,-4.99s-4.08,3.03 -4.08,5.01c0,1.37 1.12,2.47 2.48,2.47c0.77,0 1.62,-0.69 1.62,-0.69s0.81,0.69 1.6,0.68c1.36,-0.02 2.54,-1.12 2.46,-2.48z" fill="#D66142" id="svg_2096"/>
    <path d="m137.1,368.57c-0.79,0.01 -1.6,-0.68 -1.6,-0.68s-0.01,0.01 -0.03,0.02l0,-6.81c0.01,0 0.01,-0.01 0.01,-0.01s3.98,3.02 4.08,4.99c0.08,1.37 -1.1,2.47 -2.46,2.49z" fill="#616161" id="svg_2097" opacity="0.2"/>
   </g>
   <g id="svg_2098">
    <path d="m116.7,353.84c0.1,-1.98 4.07,-4.99 4.07,-4.99s4.09,3.03 4.09,5.02c0,1.36 -1.12,2.47 -2.48,2.47c-0.77,0 -1.62,-0.7 -1.62,-0.7s-0.81,0.7 -1.6,0.68c-1.37,-0.01 -2.54,-1.11 -2.46,-2.48z" fill="#D66142" id="svg_2099"/>
    <path d="m119.16,356.32c0.79,0.02 1.6,-0.68 1.6,-0.68s0.01,0.01 0.03,0.03l0,-6.81c-0.01,-0.01 -0.02,-0.01 -0.02,-0.01s-3.97,3.01 -4.07,4.99c-0.08,1.37 1.09,2.47 2.46,2.48z" fill="#616161" id="svg_2100" opacity="0.2"/>
   </g>
   <g id="svg_2101">
    <path d="m139.56,353.84c-0.1,-1.98 -4.08,-4.99 -4.08,-4.99s-4.08,3.03 -4.08,5.02c0,1.36 1.12,2.47 2.48,2.47c0.77,0 1.62,-0.7 1.62,-0.7s0.81,0.7 1.6,0.68c1.36,-0.01 2.54,-1.11 2.46,-2.48z" fill="#D66142" id="svg_2102"/>
    <path d="m137.1,356.32c-0.79,0.02 -1.6,-0.68 -1.6,-0.68s-0.01,0.01 -0.03,0.03l0,-6.81c0.01,-0.01 0.01,-0.01 0.01,-0.01s3.98,3.01 4.08,4.99c0.08,1.37 -1.1,2.47 -2.46,2.48z" fill="#616161" id="svg_2103" opacity="0.2"/>
   </g>
  </g>
 </g>

</svg>