<?xml version="1.0"?>
<svg width="40" height="56" xmlns="http://www.w3.org/2000/svg" xmlns:svg="http://www.w3.org/2000/svg" enable-background="new 0 0 450 450" version="1.1" xml:space="preserve">
 <g class="layer">
  <title>Layer 1</title>
  <g id="svg_2345" transform="translate(0.022388, 0.0516621) scale(1.01618, 1) translate(-0.022388, -0.0516621) translate(0.022388, 0.050025) matrix(1, 0, 0, 1.01544, -205.164, -122.974)">
   <g id="svg_2346">
    <g id="svg_2347">
     <g id="svg_2348">
      <path d="m209.6,176.06c-2.32,0 -4.21,-1.85 -4.22,-4.12l-0.11,-46.58c-0.01,-2.29 1.88,-4.15 4.2,-4.15l30.78,0.06c2.32,0 4.2,1.87 4.2,4.15l0,46.48c0,2.27 -1.87,4.12 -4.18,4.12l-30.67,0.04z" fill="#C9C9C9" id="svg_2349"/>
     </g>
     <path d="m209.98,175.94c-2.29,0 -4.15,-1.85 -4.15,-4.13l0,-46.47c0,-2.27 1.86,-4.13 4.15,-4.13l30.33,0c2.29,0 4.15,1.85 4.15,4.13l0,46.47c0,2.28 -1.86,4.13 -4.15,4.13l-30.33,0z" fill="#FFFFFF" id="svg_2350"/>
     <g id="svg_2351">
      <path d="m238.06,168.55l1.28,0l0,2.11l0.78,0c0.04,-0.06 0.09,-0.19 0.15,-0.41c0.13,-0.54 0.29,-0.97 0.48,-1.3c0.07,-0.14 0.16,-0.26 0.27,-0.34c0.12,-0.11 0.26,-0.16 0.4,-0.16c0.09,0 0.2,0.03 0.31,0.1c0.14,0.09 0.21,0.19 0.21,0.3c0,0.06 -0.02,0.11 -0.06,0.15c-0.04,0.03 -0.09,0.05 -0.14,0.05c-0.11,0 -0.17,-0.06 -0.18,-0.19c-0.01,-0.13 -0.06,-0.19 -0.15,-0.19c-0.22,0 -0.36,0.11 -0.45,0.33c-0.05,0.15 -0.08,0.35 -0.08,0.63c0,0.17 0.01,0.35 0.03,0.57c0.02,0.21 0.04,0.43 0.06,0.67c0,0.27 -0.05,0.52 -0.16,0.75c-0.09,0.19 -0.23,0.38 -0.42,0.58c-0.11,0.12 -0.29,0.29 -0.53,0.5l0.04,0.07l1.13,0c0.07,0 0.14,-0.01 0.2,-0.03c0.11,-0.03 0.23,-0.07 0.34,-0.11l0,0.07c-0.05,0.08 -0.08,0.14 -0.11,0.18c-0.07,0.12 -0.12,0.18 -0.13,0.18c-0.02,0 -0.05,-0.02 -0.09,-0.04c-0.05,-0.02 -0.1,-0.04 -0.15,-0.04l-3.03,0l0,-4.43zm1.32,2.44l0,1.69c0.11,-0.03 0.23,-0.15 0.35,-0.37c0.04,-0.07 0.09,-0.18 0.15,-0.33c0.04,-0.1 0.07,-0.22 0.1,-0.36c0.07,-0.29 0.11,-0.43 0.11,-0.44l0,-0.19l-0.71,0z" fill="#333333" id="svg_2352"/>
     </g>
     <g id="svg_2353">
      <path d="m212.95,129.11l-1.28,0l0,-2.1l-0.78,0c-0.05,0.05 -0.1,0.19 -0.15,0.41c-0.13,0.54 -0.29,0.97 -0.48,1.3c-0.08,0.14 -0.17,0.26 -0.27,0.34c-0.13,0.11 -0.26,0.16 -0.4,0.16c-0.1,0 -0.2,-0.04 -0.32,-0.11c-0.14,-0.08 -0.21,-0.18 -0.21,-0.3c0,-0.05 0.02,-0.1 0.07,-0.14c0.04,-0.04 0.08,-0.05 0.13,-0.05c0.12,0 0.18,0.06 0.19,0.19c0.01,0.12 0.05,0.19 0.15,0.19c0.21,0 0.36,-0.11 0.44,-0.33c0.05,-0.15 0.08,-0.36 0.08,-0.63c0,-0.17 -0.01,-0.35 -0.03,-0.57c-0.02,-0.21 -0.03,-0.43 -0.06,-0.67c0,-0.27 0.06,-0.52 0.17,-0.75c0.09,-0.19 0.22,-0.38 0.41,-0.58c0.11,-0.12 0.29,-0.29 0.54,-0.5l-0.05,-0.07l-1.12,0c-0.08,0 -0.14,0.01 -0.2,0.03c-0.12,0.03 -0.23,0.07 -0.35,0.1l0,-0.06c0.05,-0.08 0.09,-0.14 0.11,-0.18c0.08,-0.12 0.13,-0.18 0.14,-0.18c0.01,0 0.04,0.02 0.09,0.04c0.05,0.02 0.09,0.04 0.14,0.04l3.04,0l0,4.42zm-1.32,-2.43l0,-1.69c-0.12,0.03 -0.24,0.15 -0.35,0.36c-0.05,0.08 -0.09,0.19 -0.15,0.34c-0.04,0.1 -0.08,0.22 -0.11,0.36c-0.07,0.29 -0.1,0.43 -0.11,0.44l0,0.19l0.72,0z" fill="#333333" id="svg_2354"/>
     </g>
    </g>
    <g id="svg_2355">
     <g id="svg_2356">
      <path d="m233.8,148.73c0,-1.99 -8.64,-10.48 -8.64,-10.48s-0.02,0.01 -0.02,0.01l0,20.41l4.03,0l-3.22,-5.53c0.78,0.47 1.69,0.75 2.66,0.75c2.86,0.01 5.19,-2.3 5.19,-5.16z" fill="#616161" id="svg_2357" opacity="0.2"/>
     </g>
     <g id="svg_2358">
      <path d="m212.51,132.07c0,-0.26 -1.1,-1.34 -1.1,-1.34s0,0 0,0l0,2.6l0.51,0l-0.41,-0.7c0.1,0.06 0.21,0.09 0.34,0.09c0.37,0 0.66,-0.29 0.66,-0.65z" fill="#616161" id="svg_2359" opacity="0.2"/>
     </g>
     <g id="svg_2360">
      <path d="m238.54,165.68c0,0.25 1.1,1.33 1.1,1.33s0.01,0 0.01,0l0,-2.6l-0.52,0l0.41,0.7c-0.1,-0.05 -0.21,-0.09 -0.34,-0.09c-0.36,0 -0.66,0.29 -0.66,0.66z" fill="#616161" id="svg_2361" opacity="0.2"/>
     </g>
    </g>
   </g>
   <g id="svg_2362">
    <path d="m233.9,146.76c-0.24,4.31 -8.89,10.87 -8.89,10.87s-8.9,-6.61 -8.9,-10.93c0,-2.97 2.43,-5.37 5.4,-5.37c1.67,0 3.53,1.5 3.53,1.5s1.77,-1.5 3.48,-1.47c2.98,0.03 5.53,2.42 5.38,5.4z" fill="#D66142" id="svg_2363"/>
    <path d="m228.52,141.35c-1.71,-0.02 -3.48,1.48 -3.48,1.48s-0.02,-0.02 -0.06,-0.04l0,14.82c0.02,0.01 0.03,0.02 0.03,0.02s8.65,-6.56 8.88,-10.87c0.16,-2.98 -2.39,-5.37 -5.37,-5.41z" fill="#616161" id="svg_2364" opacity="0.2"/>
   </g>
   <g id="svg_2365">
    <path d="m212.5,131.85c-0.03,0.66 -1.35,1.67 -1.35,1.67s-1.36,-1.01 -1.36,-1.67c0,-0.46 0.37,-0.82 0.82,-0.82c0.26,0 0.54,0.22 0.54,0.22s0.27,-0.22 0.54,-0.22c0.45,0 0.84,0.37 0.81,0.82z" fill="#D66142" id="svg_2366"/>
    <path d="m211.69,131.03c-0.27,0 -0.54,0.22 -0.54,0.22s0,0 -0.01,0l0,2.27c0,0 0.01,0 0.01,0s1.32,-1 1.35,-1.66c0.03,-0.46 -0.36,-0.83 -0.81,-0.83z" fill="#616161" id="svg_2367" opacity="0.2"/>
   </g>
   <g id="svg_2368">
    <path d="m237.96,165.98c0.03,-0.67 1.39,-1.7 1.39,-1.7s1.38,1.03 1.38,1.71c0,0.46 -0.38,0.84 -0.84,0.84c-0.26,0 -0.55,-0.24 -0.55,-0.24s-0.28,0.24 -0.54,0.23c-0.47,0 -0.86,-0.38 -0.84,-0.84z" fill="#D66142" id="svg_2369"/>
    <path d="m238.8,166.82c0.26,0.01 0.54,-0.23 0.54,-0.23s0,0.01 0.01,0.01l0,-2.31c0,0 0,0 0,0s-1.36,1.02 -1.39,1.69c-0.02,0.46 0.37,0.84 0.84,0.84z" fill="#616161" id="svg_2370" opacity="0.2"/>
   </g>
  </g>
 </g>

</svg>