<?xml version="1.0"?>
<svg width="40" height="56" xmlns="http://www.w3.org/2000/svg" xmlns:svg="http://www.w3.org/2000/svg" enable-background="new 0 0 450 450" version="1.1" xml:space="preserve">
 <g class="layer">
  <title>Layer 1</title>
  <g id="svg_1154" transform="translate(0.00507898, 0.0193588) scale(1.00306, 1.00437) translate(-0.00507898, -0.0193588) translate(-18.8794, -0.121803) matrix(1, 0, 0, 1, -88.9737, -187.237)">
   <g id="svg_1155">
    <g id="svg_1156">
     <g id="svg_1157">
      <path d="m112.36,242.94c-2.34,0 -4.25,-1.87 -4.26,-4.17l-0.12,-47.07c-0.01,-2.32 1.9,-4.2 4.25,-4.2l31.11,0.06c2.34,0 4.24,1.89 4.24,4.2l0,46.97c0,2.3 -1.89,4.17 -4.23,4.17l-30.99,0.04z" fill="#C9C9C9" id="svg_1158"/>
      <path d="m112.5,242.88c-2.31,0 -4.19,-1.87 -4.19,-4.18l0,-46.96c0,-2.3 1.88,-4.18 4.19,-4.18l30.66,0c2.31,0 4.19,1.88 4.19,4.18l0,46.96c0,2.31 -1.88,4.18 -4.19,4.18l-30.66,0z" fill="#FFFFFF" id="svg_1159"/>
      <g id="svg_1160">
       <path d="m143.39,241.94l-30.65,0c-1.8,0 -3.25,-1.45 -3.25,-3.24l0,-46.95c0,-1.72 1.36,-3.12 2.09,-3.39l0.11,-0.04l30.82,0.01c3.05,0.24 4.13,1.92 4.13,3.42l0,46.95c0,1.79 -1.46,3.24 -3.25,3.24zm-31.44,-52.33c-0.33,0.21 -1.18,1.07 -1.18,2.14l0,46.96c0,1.07 0.88,1.95 1.97,1.95l30.65,0c1.08,0 1.96,-0.88 1.96,-1.95l0,-46.96c0,-1.19 -1.09,-1.99 -2.92,-2.14l-30.48,0z" fill="#D66142" id="svg_1161"/>
      </g>
      <g id="svg_1162">
       <path d="m115.38,191.37c-0.12,0.21 -0.28,0.37 -0.47,0.49c-0.19,0.11 -0.38,0.17 -0.56,0.17c-0.06,0 -0.28,-0.05 -0.65,-0.14c-0.17,-0.05 -0.33,-0.07 -0.47,-0.07c-0.09,0 -0.18,0.01 -0.27,0.04c-0.09,0.02 -0.17,0.05 -0.23,0.11l-0.07,0l0,-0.09c0.13,-0.28 0.28,-0.48 0.45,-0.61c0.18,-0.12 0.41,-0.18 0.69,-0.18c0.21,0 0.41,0.04 0.59,0.1c0.19,0.07 0.37,0.1 0.55,0.1c0.06,0 0.12,0 0.19,0c0.08,-0.01 0.16,-0.02 0.25,-0.03l0,0.11zm0.02,3.56c0,0.4 -0.15,0.72 -0.45,0.96c-0.3,0.24 -0.69,0.37 -1.16,0.37c-0.29,0 -0.53,-0.06 -0.72,-0.17c-0.23,-0.14 -0.35,-0.33 -0.35,-0.58c0,-0.12 0.03,-0.22 0.1,-0.31c0.09,-0.12 0.22,-0.18 0.39,-0.18c0.11,0 0.2,0.03 0.29,0.1c0.08,0.07 0.12,0.16 0.12,0.27c0,0.17 -0.07,0.29 -0.22,0.35c-0.14,0.06 -0.22,0.1 -0.22,0.13c0.03,0.05 0.06,0.09 0.08,0.11c0.09,0.08 0.21,0.12 0.37,0.12c0.17,0 0.3,-0.04 0.42,-0.12c0.11,-0.07 0.17,-0.18 0.17,-0.32l0,-3.42c0.21,-0.07 0.41,-0.14 0.59,-0.21c0.18,-0.06 0.34,-0.16 0.49,-0.29l0.1,0l0,3.19z" fill="#333333" id="svg_1163"/>
      </g>
      <g id="svg_1164">
       <path d="m140.88,236.03c0,-0.4 0.16,-0.72 0.46,-0.96c0.3,-0.24 0.69,-0.37 1.16,-0.37c0.28,0 0.52,0.06 0.72,0.17c0.23,0.14 0.34,0.33 0.34,0.58c0,0.12 -0.03,0.22 -0.09,0.31c-0.09,0.12 -0.22,0.19 -0.39,0.19c-0.11,0 -0.21,-0.04 -0.29,-0.11c-0.08,-0.07 -0.12,-0.16 -0.12,-0.27c0,-0.17 0.07,-0.29 0.21,-0.35c0.15,-0.06 0.22,-0.1 0.22,-0.13c-0.02,-0.05 -0.05,-0.09 -0.08,-0.11c-0.08,-0.08 -0.21,-0.12 -0.37,-0.12c-0.16,0 -0.3,0.04 -0.41,0.12c-0.12,0.08 -0.18,0.18 -0.18,0.32l0,3.42c-0.21,0.07 -0.4,0.14 -0.59,0.21c-0.18,0.07 -0.34,0.16 -0.48,0.29l-0.1,0l0,-3.19l-0.01,0zm0.03,3.56c0.12,-0.21 0.28,-0.37 0.46,-0.49c0.19,-0.11 0.38,-0.17 0.57,-0.17c0.06,0 0.27,0.05 0.64,0.14c0.17,0.04 0.33,0.07 0.47,0.07c0.09,0 0.18,-0.01 0.27,-0.04c0.1,-0.02 0.17,-0.05 0.24,-0.11l0.07,0l0,0.09c-0.13,0.28 -0.28,0.48 -0.46,0.6c-0.17,0.13 -0.4,0.19 -0.69,0.19c-0.2,0 -0.4,-0.04 -0.59,-0.1c-0.19,-0.07 -0.37,-0.1 -0.54,-0.1c-0.06,0 -0.12,0 -0.2,0c-0.08,0.01 -0.16,0.01 -0.24,0.03l0,-0.11z" fill="#333333" id="svg_1165"/>
      </g>
     </g>
     <g id="svg_1166">
      <g id="svg_1167">
       <g id="svg_1168">
        <g id="svg_1169">
         <polygon fill="#757575" id="svg_1170" points="125.088,204.769 123.706,205.315 124.023,205.896 129.487,205.83 129.873,205.315          128.651,204.769        "/>
         <g id="svg_1171">
          <path d="m131.46,196.12c-0.01,0.31 -0.92,4.37 -1.08,4.71c-1,2.17 -3.59,1.01 -3.59,1.01s-2.46,1.18 -3.45,-0.98c-0.18,-0.37 -1.23,-4.44 -1.23,-4.77c0,-1.56 1.28,-2.83 2.84,-2.83c0.88,0 1.86,0.79 1.86,0.79s0.92,-0.79 1.83,-0.77c1.57,0.02 2.9,1.28 2.82,2.84z" fill="#D66142" id="svg_1172"/>
          <rect fill="#EBB07A" height="3.72" id="svg_1173" width="3.56" x="125.09" y="203.06"/>
          <path d="m128.65,203.78l0,0.9c-0.43,0.41 -0.93,0.68 -1.45,0.68l-0.68,0c-0.51,0 -1,-0.26 -1.43,-0.66l0,-0.89l0.31,0.49l0.08,-1.24l2.77,0l0.08,1.24l0.32,-0.52z" fill="#616161" id="svg_1174" opacity="0.2"/>
          <path d="m127.19,194.59l-0.33,0l-0.34,0c-1.75,0 -3.18,1.2 -3.18,2.68c0,0 0.01,3.64 0.04,3.81c0.24,1.57 1.56,3.99 3.14,3.99l0.34,0l0.33,0c1.59,0 2.91,-2.42 3.15,-3.99c0.03,-0.17 0.04,-3.81 0.04,-3.81c0,-1.48 -1.42,-2.68 -3.19,-2.68z" fill="#EBB07A" id="svg_1175"/>
          <g id="svg_1176">
           <path d="m124.81,198.89c-0.06,0.09 -0.1,0.18 -0.1,0.29c0,0.28 0.26,0.5 0.59,0.5c0.33,0 0.59,-0.22 0.59,-0.5c0,-0.11 -0.04,-0.2 -0.11,-0.29l-0.97,0z" fill="#333333" id="svg_1177"/>
           <polygon fill="#616161" id="svg_1178" opacity="0.2" points="127.087,198.407 126.861,198.407 126.631,198.407 126.315,200.739            126.861,201.367 127.404,200.739          "/>
           <path d="m128.91,198.89c0.06,0.09 0.1,0.18 0.1,0.29c0,0.28 -0.26,0.5 -0.59,0.5c-0.33,0 -0.59,-0.22 -0.59,-0.5c0,-0.11 0.04,-0.2 0.11,-0.29l0.97,0z" fill="#333333" id="svg_1179"/>
          </g>
          <g id="svg_1180" opacity="0.2">
           <rect fill="#616161" height="0.32" id="svg_1181" width="1.3" x="126.22" y="202.54"/>
          </g>
          <polygon fill="#D66142" id="svg_1182" points="127.769,197.634 129.534,197.848 127.769,198.061         "/>
          <polygon fill="#D66142" id="svg_1183" points="125.95,198.061 124.224,197.848 125.95,197.634         "/>
         </g>
         <path d="m131.46,196.04c-0.01,0.31 -0.11,0.64 -0.27,0.99c-0.47,-0.92 -1.45,-1.53 -2.55,-1.55c-0.91,-0.01 -1.83,0.78 -1.83,0.78s-0.98,-0.79 -1.86,-0.79c-1.13,0 -2.1,0.66 -2.56,1.61c-0.17,-0.37 -0.28,-0.73 -0.28,-1.07c0,-1.56 1.28,-2.82 2.84,-2.82c0.88,0 0.97,0.34 1.84,0.34c0.88,0 0.95,-0.34 1.85,-0.33c1.57,0.02 2.9,1.28 2.82,2.84z" fill="#D66142" id="svg_1184"/>
         <path d="m126.09,203.33c0.7,0.2 0.77,1.44 0.77,1.44s0.08,-1.26 0.8,-1.44l-1.57,0z" fill="#D66142" id="svg_1185"/>
         <path d="m128.86,202.56c-0.01,0.14 -0.05,0.28 -0.12,0.44c-0.21,-0.41 -0.65,-0.68 -1.13,-0.69c-0.4,0 -1.24,0 -1.63,0c-0.5,0 -0.93,0.29 -1.13,0.71c-0.08,-0.16 -0.13,-0.32 -0.13,-0.47c0,-0.69 0.57,-1.25 1.26,-1.25c0.39,0 0.81,0.58 0.81,0.58s0.42,-0.58 0.82,-0.58c0.69,0.01 1.29,0.57 1.25,1.26z" fill="#D66142" id="svg_1186"/>
         <path d="m135.75,205.79l-1.34,1.26l-0.6,1.79c0,0 2,-0.4 2.02,-0.35l-0.08,-2.7z" fill="#757575" id="svg_1187"/>
         <path d="m118.11,205.79l1.35,1.26l0.59,1.79c0,0 -2,-0.4 -2.01,-0.35l0.07,-2.7z" fill="#757575" id="svg_1188"/>
         <path d="m118.92,206.78l-0.19,0.38l-0.44,1.43c0,0 2.49,-0.69 2.38,-0.62l-1.75,-1.19z" fill="#9C4129" id="svg_1189"/>
         <path d="m137.37,210.72l-1.34,0.4l-2.43,0.72l-0.15,0.05l-3.11,0.93l-0.09,0.02l-0.19,0.06l-0.95,0.28l-0.37,0.11l-1.18,0.36l-0.59,0.17l-2.29,0.69l-0.48,0.14l-0.11,0.03l-0.6,0.18l-0.37,0.11l-1.09,0.33l-1.64,0.48l0,-0.46l-0.01,-1.35l-1.08,1.83l0,0.31l-1.14,0.34l-2.74,0.82l0,-3.84l0.01,-0.2l0,-0.01c0,-0.01 0,-0.01 0,-0.01l0.03,-0.58l0.09,-0.21l0.54,-1.28l0.54,-1.28l0.58,-1.36l0.21,-0.52l0.24,-0.57l0.4,-0.1l0.67,-0.15l0.03,-0.02l0.05,-0.01l0.08,-0.02l0.05,-0.01l0.14,-0.03l0.19,-0.05l0.01,0l0.02,-0.01l0.09,-0.02l1.82,-0.44l0.2,-0.05l0.08,-0.01l0.2,-0.06l1.45,-0.35l0.03,0l0.16,-0.05l0.56,-0.13l0.12,-0.03l1.07,-0.26l3.57,0l0.84,0.21l0.21,0.05l0.12,0.02l1.29,0.32l1.16,0.28l2.17,0.53l0.12,0.03l0.5,0.12l0.69,0.16l0.04,0.01l0.26,0.07l0.54,1.35l0.54,1.35l0.15,0.37l0.09,0.24z" fill="#ABABAB" id="svg_1190"/>
         <polygon fill="#FFFFFF" id="svg_1191" opacity="0.2" points="131.111,206.212 127.363,209.963 127.203,210.121 126.565,210.759          126.559,210.765 125.528,211.794 125.476,211.849 123.675,213.648 123.119,214.202 122.868,214.456 122.591,214.733          122.029,215.298 120.395,215.784 120.39,215.322 122.067,213.648 122.346,213.369 122.539,213.176 123.118,212.594          123.293,212.42 123.469,212.244 123.543,212.172 125.663,210.053 125.697,210.02 125.776,209.939 125.779,209.936          126.385,209.328 126.541,209.172 129.819,205.896        "/>
         <polygon fill="#FFFFFF" id="svg_1192" opacity="0.2" points="135.754,207.338 133.502,209.594 130.307,212.787 130.251,212.844          130.059,212.898 129.11,213.183 128.743,213.294 127.56,213.648 126.969,213.823 124.677,214.507 124.199,214.645          124.091,214.679 124.176,214.597 124.514,214.255 126.122,212.648 126.285,212.487 127.151,211.618 127.253,211.519          128.099,210.673 132.276,206.496 134.438,207.02 134.565,207.05 135.063,207.171        "/>
         <path d="m130.34,212.81l-0.09,0.03l-0.19,0.06l-0.95,0.28l-0.37,0.11l-1.18,0.36l-0.59,0.17l-2.29,0.69l-0.48,0.14l-0.11,0.03l-0.6,0.18l-0.37,0.11l-0.25,-0.51l-0.53,-1.09l-1.68,-3.5l-0.81,-1.71l-0.08,-0.16l0,0l-0.46,-0.95l0,0l-0.01,-0.04l0.09,-0.02l1.82,-0.44l0.2,-0.04l0.08,-0.02l0.2,-0.06l1.45,-0.34l0.03,-0.01l0.16,-0.04c0.52,0.52 1.74,1.71 3.21,3.13c0.26,0.26 0.54,0.52 0.82,0.79c0.24,0.23 0.49,0.47 0.74,0.71c0.73,0.7 1.48,1.42 2.2,2.12c0.02,0 0.03,0.01 0.04,0.02z" fill="#616161" id="svg_1193" opacity="0.2"/>
         <path d="m126.97,213.82l-2.29,0.69l-0.48,0.14l-0.11,0.03l-0.6,0.18l-0.37,-0.66l-0.58,-1.02l-1.88,-3.31l-0.66,-1.18l-0.28,-0.49l-0.64,-1.13l-0.17,-0.29l0.2,-0.05l3.77,-0.94c0.04,0.05 0.13,0.15 0.26,0.3c0.54,0.57 1.77,1.79 3.24,3.24c0.27,0.26 0.54,0.52 0.82,0.79c0.24,0.24 0.49,0.48 0.73,0.72c0.7,0.69 1.43,1.39 2.13,2.06l-0.95,0.28l-0.37,0.11l-1.18,0.36l-0.59,0.17z" fill="#D66142" id="svg_1194"/>
         <polygon fill="#EBEBEB" id="svg_1195" points="123.706,205.315 123.889,205.905 126.712,207.542 126.628,205.614        "/>
         <polygon fill="#EBEBEB" id="svg_1196" points="129.873,205.315 129.689,205.905 126.871,207.542 126.952,205.614        "/>
         <path d="m126.56,210.76l0.53,0.56c-0.19,-0.2 -0.37,-0.38 -0.53,-0.56c-0.31,-0.32 -0.58,-0.6 -0.78,-0.82c-0.2,-0.21 -0.34,-0.36 -0.42,-0.44l0.42,0.44l0.78,0.82z" fill="#616161" id="svg_1197" opacity="0.2"/>
         <path d="m127.25,211.52c0.63,0.59 1.26,1.16 1.86,1.66l-0.37,0.11l-1.59,-1.67l-0.7,-0.74l-0.08,-0.08l-0.71,-0.75l-1.4,-1.47l-0.03,-0.04c0.01,0.01 0.02,0.03 0.03,0.04c0.44,0.44 0.92,0.93 1.44,1.44c0.23,0.24 0.48,0.48 0.73,0.71c0.02,0.03 0.05,0.05 0.08,0.08c0.24,0.24 0.49,0.48 0.74,0.71z" fill="#616161" id="svg_1198" opacity="0.2"/>
         <polygon fill="#616161" id="svg_1199" opacity="0.2" points="124.677,214.507 124.199,214.645 124.176,214.597 123.675,213.648          123.118,212.594 122.502,211.424 121.758,210.106 123.293,212.42 123.937,213.387 124.514,214.255        "/>
         <polygon fill="#616161" id="svg_1200" opacity="0.2" points="127.56,213.648 126.969,213.823 126.533,213.162 126.122,212.648          125.476,211.849 125.163,211.46 125.528,211.794 126.285,212.487        "/>
         <polygon fill="#616161" id="svg_1201" opacity="0.2" points="120.379,213.974 119.3,215.795 119.3,216.109 118.16,216.452          117.331,216.28 118.472,215.762        "/>
         <polygon fill="#616161" id="svg_1202" opacity="0.2" points="137.373,210.717 136.03,211.117 133.603,211.844 133.449,211.888          133.302,210.068 133.502,209.594 133.814,208.843 134.565,207.05 135.063,207.171 135.754,207.338 135.796,207.347          136.057,207.41 136.595,208.761 137.133,210.114 137.286,210.488        "/>
         <path d="m136.03,211.12l-2.43,0.72l-0.01,-1.72l0.62,-1.24l0.07,-0.13l0.78,-1.58l0.7,-1.38c0,0 1.76,2.21 1.81,2.17c0.01,0 0.06,0.26 0.13,0.66c0.08,0.49 0.19,1.2 0.3,1.91l-0.56,0.16l-0.07,0.03l-1.34,0.4z" fill="#ABABAB" id="svg_1203"/>
         <path d="m120.43,210.26l-0.05,3.06l-4.17,-0.7c0,0 -0.01,-0.17 0.02,-0.34l1.19,-4.29l0.24,-0.58l1.1,-0.26l0.05,-0.01l0.08,-0.02l0.05,-0.01l1.49,3.15z" fill="#616161" id="svg_1204" opacity="0.2"/>
         <path d="m120.38,213.68l-3.94,-0.36l-1.01,-0.09l0,0c0,0 0,-0.01 0,-0.01c0,-0.01 0,-0.01 0,-0.01c0.02,-0.08 0.06,-0.38 0.12,-0.79c0.22,-1.48 0.67,-4.46 0.72,-4.46c0.06,0.04 1.81,-2.18 1.81,-2.18l0.02,0.03l0.66,1.34l1.49,2.97l0.13,3.56z" fill="#ABABAB" id="svg_1205"/>
         <path d="m138,210.53l0,0l-0.01,0l-0.55,0.17l-0.06,0.02l-0.08,0.02l-0.21,0.06l-1.06,0.32l0.56,-2.36l0.14,-0.58l-0.97,-2.39c0.1,0.13 1.73,2.17 1.81,2.17c0.01,0 0.06,0.26 0.13,0.67c0.01,0.03 0.01,0.06 0.02,0.1c0.01,0.07 0.03,0.14 0.04,0.23c0.01,0.09 0.03,0.19 0.05,0.29c0,0.08 0.02,0.16 0.03,0.24c0,0.03 0.01,0.06 0.01,0.09l0.04,0.25c0.01,0.05 0.02,0.11 0.03,0.17c0,0.02 0,0.04 0.01,0.06c0.03,0.16 0.05,0.31 0.07,0.47z" fill="#FFFFFF" id="svg_1206" opacity="0.2"/>
         <path d="m118.09,205.82l-0.96,2.37l0.07,0.31l0.83,3.46l-1.59,1.36l-0.35,0.3c0,0 -0.52,2.11 -0.58,2.18c-0.01,0.01 -0.04,0 -0.09,-0.01l0,-2.36l0.01,-0.2c0,0 0,-0.01 0,-0.01c0,-0.01 0,-0.01 0,-0.01l0.03,-0.58l0.09,-0.21l0,-0.01c0.03,-0.17 0.05,-0.34 0.08,-0.53c0.14,-0.92 0.32,-2.1 0.46,-2.93c0.01,-0.07 0.02,-0.15 0.03,-0.22c0.08,-0.46 0.14,-0.77 0.15,-0.77c0.09,0 1.81,-2.17 1.81,-2.17l0.03,0l-0.02,0.03z" fill="#FFFFFF" id="svg_1207" opacity="0.2"/>
         <g id="svg_1208">
          <path d="m116.91,209.99c-0.05,0.39 -1.27,1.92 -1.27,1.92s0,-0.02 -0.01,-0.03c0.14,-0.92 0.32,-2.1 0.46,-2.93c0.13,-0.03 0.29,-0.05 0.35,-0.04c0.34,0.04 0.54,0.53 0.47,1.08z" fill="#D66142" id="svg_1209"/>
          <path d="m137.99,210.53l-0.55,0.17l-0.06,0.02l-0.08,0.02c-0.21,-0.31 -0.39,-0.61 -0.4,-0.75c-0.07,-0.55 0.14,-1.04 0.47,-1.08c0.07,-0.01 0.24,0.01 0.39,0.05c0,0 0.01,0 0.01,0l0.07,0.53l0.02,0.09l0.04,0.25l0.09,0.7z" fill="#D66142" id="svg_1210"/>
         </g>
         <g id="svg_1211">
          <path d="m123.75,207.05c0.49,0.91 -0.64,3.41 -0.64,3.41s-2.58,-0.96 -2.85,-1.93c-0.16,-0.6 0.14,-1.23 0.66,-1.46c0.3,-0.13 0.74,-0.01 0.74,-0.01s0.21,-0.4 0.52,-0.54c0.55,-0.23 1.26,-0.03 1.57,0.53z" fill="#616161" id="svg_1212" opacity="0.2"/>
          <path d="m123.72,207.37c0.31,0.83 -0.69,2.74 -0.69,2.74s-2.13,-0.54 -2.49,-1.35c-0.24,-0.56 -0.01,-1.2 0.52,-1.44c0.3,-0.13 0.76,0.01 0.76,0.01s0.19,-0.42 0.49,-0.55c0.54,-0.23 1.19,0.02 1.41,0.59z" fill="#FFD675" id="svg_1213"/>
          <path d="m122.76,209.5c-0.8,-0.26 -1.61,-0.65 -1.74,-0.95c-0.07,-0.15 -0.08,-0.31 -0.02,-0.45c0.05,-0.14 0.14,-0.25 0.27,-0.3c0,0 0.03,-0.02 0.11,-0.02c0.12,0 0.25,0.03 0.29,0.04l0.43,0.12l0.19,-0.4c0.05,-0.12 0.16,-0.26 0.23,-0.29c0.06,-0.03 0.13,-0.04 0.21,-0.04c0.18,0 0.41,0.09 0.51,0.34c0.13,0.34 -0.16,1.24 -0.48,1.95z" fill="#616161" id="svg_1214" opacity="0.2"/>
         </g>
        </g>
       </g>
       <path d="m138,210.53c-0.01,-0.08 -0.02,-0.16 -0.03,-0.24c-0.02,-0.12 -0.04,-0.24 -0.06,-0.36c0,-0.04 -0.01,-0.07 -0.02,-0.1l-0.04,-0.25c0,-0.03 -0.01,-0.06 -0.01,-0.09l-0.07,-0.53c-0.01,0 -0.01,0 -0.01,0c-0.02,-0.08 -0.03,-0.15 -0.04,-0.23c-0.01,-0.04 -0.01,-0.07 -0.02,-0.1c-0.02,-0.1 -0.03,-0.19 -0.05,-0.27c-0.01,-0.09 -0.03,-0.16 -0.04,-0.23c-0.02,-0.11 -0.03,-0.17 -0.04,-0.17c-0.08,0 -1.71,-2.04 -1.81,-2.17l0,0c0,0 -0.01,-0.01 -0.01,-0.01l-1.31,1.24l-2.17,-0.53l-1.16,-0.28l-1.29,-0.31l-0.12,-0.03l0,0l0.17,-0.56l-1.22,-0.54l0,-0.38c0.88,-0.83 1.53,-2.26 1.69,-3.31c0,-0.02 0,-0.09 0.01,-0.19c0.01,-0.02 0.02,-0.04 0.03,-0.06c0.16,-0.34 1.07,-4.4 1.08,-4.71c0.01,-0.03 0,-0.05 0,-0.08c0,0 0,0 0,0c0.08,-1.56 -1.26,-2.82 -2.82,-2.84c-0.9,-0.01 -0.98,0.33 -1.84,0.33l0,20.34l0.17,-0.05l0.59,-0.17l1.18,-0.36l0.37,-0.11l0.95,-0.28l0.19,-0.06l0.08,-0.03l3.12,-0.92l0.15,-0.05l2.43,-0.72l0,0l1.06,-0.32l0.07,-0.02l0.18,-0.05l0.03,-0.01l0.03,-0.02l0.04,-0.01l0.45,-0.13l0.1,-0.03l0,0l0.01,0l0,0l0,0z" fill="#616161" id="svg_1215" opacity="0.2"/>
      </g>
      <g id="svg_1216">
       <g id="svg_1217">
        <g id="svg_1218">
         <polygon fill="#757575" id="svg_1219" points="128.342,225.788 129.723,225.245 129.405,224.661 123.941,224.729 123.556,225.245          124.778,225.788        "/>
         <g id="svg_1220">
          <path d="m121.96,234.44c0.02,-0.31 0.92,-4.37 1.09,-4.71c1,-2.17 3.59,-1.01 3.59,-1.01s2.45,-1.18 3.45,0.98c0.18,0.37 1.23,4.43 1.23,4.77c0,1.56 -1.28,2.82 -2.85,2.82c-0.87,0 -1.85,-0.79 -1.85,-0.79s-0.93,0.79 -1.83,0.78c-1.57,-0.02 -2.91,-1.28 -2.83,-2.84z" fill="#D66142" id="svg_1221"/>
          <rect fill="#EBB07A" height="3.72" id="svg_1222" width="3.56" x="124.78" y="223.78"/>
          <path d="m124.78,226.78l0,-0.9c0.43,-0.42 0.93,-0.68 1.45,-0.68l0.68,0c0.51,0 1,0.26 1.43,0.66l0,0.89l-0.31,-0.49l-0.08,1.24l-2.76,0l-0.09,-1.24l-0.32,0.52z" fill="#616161" id="svg_1223" opacity="0.2"/>
          <path d="m126.23,235.97l0.34,0l0.34,0c1.75,0 3.18,-1.2 3.18,-2.68c0,0 -0.01,-3.64 -0.04,-3.81c-0.24,-1.57 -1.56,-3.99 -3.14,-3.99l-0.34,0l-0.34,0c-1.58,0 -2.9,2.42 -3.14,3.99c-0.03,0.17 -0.04,3.81 -0.04,3.81c0,1.48 1.42,2.68 3.18,2.68z" fill="#EBB07A" id="svg_1224"/>
          <g id="svg_1225">
           <path d="m128.62,231.66c0.06,-0.08 0.1,-0.18 0.1,-0.28c0,-0.28 -0.26,-0.5 -0.59,-0.5c-0.33,0 -0.59,0.22 -0.59,0.5c0,0.1 0.04,0.2 0.1,0.28l0.98,0z" fill="#333333" id="svg_1226"/>
           <polygon fill="#616161" id="svg_1227" opacity="0.2" points="126.341,232.152 126.568,232.152 126.799,232.152 127.114,229.816            126.568,229.191 126.025,229.816          "/>
           <path d="m124.52,231.66c-0.06,-0.08 -0.1,-0.18 -0.1,-0.28c0,-0.28 0.26,-0.5 0.59,-0.5c0.33,0 0.59,0.22 0.59,0.5c0,0.1 -0.04,0.2 -0.1,0.28l-0.98,0z" fill="#333333" id="svg_1228"/>
          </g>
          <g id="svg_1229" opacity="0.2">
           <rect fill="#616161" height="0.32" id="svg_1230" width="1.3" x="125.91" y="227.69"/>
          </g>
          <polygon fill="#D66142" id="svg_1231" points="125.661,232.926 123.896,232.711 125.661,232.5         "/>
          <polygon fill="#D66142" id="svg_1232" points="127.477,232.5 129.206,232.711 127.477,232.926         "/>
         </g>
         <path d="m121.96,234.52c0.02,-0.31 0.12,-0.64 0.28,-0.98c0.46,0.91 1.45,1.52 2.55,1.54c0.9,0.01 1.83,-0.77 1.83,-0.77s0.98,0.78 1.85,0.78c1.13,0 2.11,-0.66 2.57,-1.61c0.17,0.37 0.28,0.73 0.28,1.07c0,1.56 -1.28,2.82 -2.85,2.82c-0.87,0 -0.96,-0.34 -1.83,-0.34c-0.88,0 -0.95,0.34 -1.85,0.33c-1.57,-0.02 -2.91,-1.28 -2.83,-2.84z" fill="#D66142" id="svg_1233"/>
         <path d="m127.34,227.23c-0.7,-0.2 -0.78,-1.44 -0.78,-1.44s-0.07,1.25 -0.79,1.44l1.57,0z" fill="#D66142" id="svg_1234"/>
         <path d="m124.57,228c0.01,-0.14 0.05,-0.28 0.12,-0.44c0.21,0.4 0.64,0.68 1.13,0.69c0.4,0 1.24,0 1.63,0c0.5,0 0.93,-0.29 1.13,-0.71c0.08,0.16 0.13,0.32 0.13,0.47c0,0.69 -0.57,1.25 -1.26,1.25c-0.39,0 -0.81,-0.58 -0.81,-0.58s-0.42,0.58 -0.82,0.58c-0.69,-0.01 -1.29,-0.57 -1.25,-1.26z" fill="#D66142" id="svg_1235"/>
         <path d="m117.67,224.77l1.35,-1.26l0.59,-1.79c0,0 -2,0.4 -2.01,0.35l0.07,2.7z" fill="#757575" id="svg_1236"/>
         <path d="m135.32,224.77l-1.35,-1.26l-0.59,-1.79c0,0 2,0.4 2.01,0.35l-0.07,2.7z" fill="#757575" id="svg_1237"/>
         <path d="m134.51,223.78l0.19,-0.38l0.44,-1.43c0,0 -2.49,0.69 -2.38,0.62l1.75,1.19z" fill="#9C4129" id="svg_1238"/>
         <polygon fill="#ABABAB" id="svg_1239" points="116.055,219.842 117.4,219.439 119.826,218.717 119.98,218.673 123.093,217.741          123.179,217.715 123.37,217.66 124.319,217.375 124.685,217.267 125.871,216.911 126.459,216.735 128.753,216.052          129.23,215.911 129.339,215.88 129.937,215.7 130.314,215.588 131.401,215.263 133.036,214.775 133.039,215.236          133.052,216.584 134.127,214.764 134.127,214.45 135.268,214.107 138.005,213.29 138.005,217.133 137.996,217.33          137.996,217.344 137.996,217.349 137.969,217.924 137.877,218.14 137.338,219.418 136.798,220.694 136.224,222.06          136.006,222.571 135.767,223.146 135.364,223.245 134.7,223.403 134.668,223.41 134.617,223.422 134.535,223.445          134.491,223.452 134.349,223.489 134.156,223.536 134.151,223.536 134.132,223.542 134.033,223.566 132.215,224.006          132.02,224.054 131.938,224.072 131.741,224.122 130.285,224.474 130.258,224.48 130.091,224.52 129.54,224.656          129.419,224.686 128.342,224.944 124.777,224.944 123.931,224.739 123.726,224.689 123.611,224.661 122.318,224.347          121.154,224.064 118.99,223.54 118.865,223.51 118.364,223.389 117.674,223.22 117.631,223.211 117.373,223.146          116.833,221.796 116.295,220.444 116.144,220.07        "/>
         <polygon fill="#FFFFFF" id="svg_1240" opacity="0.2" points="122.318,224.347 126.067,220.598 126.227,220.438 126.865,219.8          126.871,219.794 127.899,218.764 127.954,218.71 129.756,216.908 130.31,216.355 130.562,216.101 130.838,215.825          131.401,215.263 133.036,214.775 133.039,215.236 131.363,216.908 131.084,217.19 130.89,217.383 130.312,217.963          130.135,218.14 129.96,218.314 129.885,218.386 127.767,220.506 127.733,220.538 127.652,220.618 127.651,220.62          127.044,221.232 126.887,221.387 123.611,224.661        "/>
         <polygon fill="#FFFFFF" id="svg_1241" opacity="0.2" points="117.674,223.22 119.928,220.967 123.122,217.773 123.179,217.715          123.37,217.66 124.319,217.375 124.685,217.267 125.871,216.911 126.459,216.735 128.753,216.052 129.23,215.911          129.339,215.88 129.255,215.964 128.915,216.303 127.308,217.91 127.143,218.073 126.278,218.939 126.175,219.04          125.331,219.888 121.154,224.064 118.99,223.54 118.865,223.51 118.364,223.389        "/>
         <path d="m123.09,217.74l0.09,-0.02l0.19,-0.06l0.95,-0.28l0.37,-0.11l1.18,-0.36l0.59,-0.17l2.29,-0.69l0.48,-0.14l0.11,-0.03l0.6,-0.18l0.37,-0.11l0.25,0.51l0.52,1.09l1.69,3.5l0.81,1.7l0.08,0.17l0,0l0.46,0.95l0,0l0.01,0.03l-0.1,0.03l-1.82,0.44l-0.19,0.04l-0.08,0.02l-0.2,0.05l-1.46,0.35l-0.02,0.01l-0.17,0.04c-0.51,-0.52 -1.73,-1.72 -3.2,-3.13c-0.27,-0.26 -0.55,-0.52 -0.82,-0.79c-0.24,-0.24 -0.49,-0.47 -0.74,-0.71c-0.73,-0.7 -1.48,-1.42 -2.21,-2.12c-0.01,-0.01 -0.02,-0.02 -0.03,-0.03z" fill="#616161" id="svg_1242" opacity="0.2"/>
         <path d="m126.46,216.74l2.29,-0.69l0.48,-0.14l0.11,-0.03l0.6,-0.18l0.37,0.65l0.58,1.03l1.88,3.31l0.66,1.18l0.28,0.49l0.64,1.13l0.16,0.29l-0.19,0.05l-3.78,0.94c-0.03,-0.05 -0.12,-0.15 -0.26,-0.3c-0.53,-0.57 -1.76,-1.79 -3.24,-3.24c-0.26,-0.26 -0.53,-0.53 -0.81,-0.79c-0.24,-0.24 -0.49,-0.48 -0.73,-0.72c-0.71,-0.69 -1.43,-1.39 -2.13,-2.06l0.95,-0.29l0.37,-0.1l1.18,-0.36l0.59,-0.17z" fill="#D66142" id="svg_1243"/>
         <polygon fill="#EBEBEB" id="svg_1244" points="129.723,225.245 129.54,224.654 126.718,223.017 126.8,224.944        "/>
         <polygon fill="#EBEBEB" id="svg_1245" points="123.556,225.245 123.739,224.654 126.559,223.017 126.477,224.944        "/>
         <path d="m126.86,219.8l-0.52,-0.56c0.19,0.2 0.37,0.38 0.53,0.55c0.31,0.33 0.58,0.61 0.78,0.83c0.2,0.21 0.34,0.36 0.42,0.44l-0.42,-0.44l-0.79,-0.82z" fill="#616161" id="svg_1246" opacity="0.2"/>
         <path d="m126.17,219.04c-0.62,-0.59 -1.25,-1.16 -1.85,-1.66l0.37,-0.11l1.59,1.67l0.7,0.74l0.08,0.08l0.71,0.75l1.4,1.47l0.03,0.04c-0.01,-0.01 -0.02,-0.03 -0.04,-0.04c-0.43,-0.44 -0.91,-0.94 -1.43,-1.44c-0.24,-0.23 -0.48,-0.48 -0.73,-0.71c-0.03,-0.03 -0.05,-0.06 -0.08,-0.08c-0.25,-0.24 -0.49,-0.48 -0.75,-0.71z" fill="#616161" id="svg_1247" opacity="0.2"/>
         <polygon fill="#616161" id="svg_1248" opacity="0.2" points="128.753,216.052 129.23,215.911 129.255,215.964 129.756,216.908          130.312,217.963 130.928,219.137 131.673,220.451 130.135,218.14 129.492,217.172 128.915,216.303        "/>
         <polygon fill="#616161" id="svg_1249" opacity="0.2" points="125.871,216.911 126.459,216.735 126.897,217.398 127.308,217.91          127.954,218.71 128.266,219.097 127.899,218.764 127.143,218.073        "/>
         <polygon fill="#616161" id="svg_1250" opacity="0.2" points="133.052,216.584 134.127,214.764 134.127,214.45 135.268,214.107          136.099,214.276 134.957,214.799        "/>
         <polygon fill="#616161" id="svg_1251" opacity="0.2" points="116.055,219.842 117.4,219.439 119.826,218.717 119.98,218.673          120.126,220.492 119.928,220.967 119.615,221.717 118.865,223.51 118.364,223.389 117.674,223.22 117.631,223.211          117.373,223.146 116.833,221.796 116.295,220.444 116.144,220.07        "/>
         <path d="m117.4,219.44l2.43,-0.72l0.01,1.72l-0.62,1.23l-0.07,0.14l-0.78,1.58l-0.69,1.38c0,0 -1.77,-2.22 -1.82,-2.18c-0.01,0 -0.06,-0.26 -0.13,-0.66c-0.08,-0.48 -0.19,-1.19 -0.3,-1.9l0.56,-0.17l0.07,-0.02l1.34,-0.4z" fill="#ABABAB" id="svg_1252"/>
         <path d="m133,220.3l0.05,-3.06l4.17,0.7c0,0 0.01,0.17 -0.02,0.34l-1.2,4.29l-0.24,0.58l-1.09,0.26l-0.05,0.01l-0.09,0.02l-0.04,0.01l-1.49,-3.15z" fill="#616161" id="svg_1253" opacity="0.2"/>
         <path d="m133.05,216.88l3.94,0.36l1,0.09l0.01,0c0,0 0,0.01 -0.01,0.02c0,0 0,0 0,0c-0.01,0.08 -0.05,0.38 -0.11,0.79c-0.23,1.48 -0.67,4.46 -0.72,4.46c-0.06,-0.04 -1.82,2.17 -1.82,2.17l-0.01,-0.02l-0.66,-1.34l-1.49,-2.97l-0.13,-3.56z" fill="#ABABAB" id="svg_1254"/>
         <path d="m115.42,220.03l0.01,0l0,0l0.56,-0.17l0.06,-0.02l0.08,-0.02l0.21,-0.06l1.06,-0.32l-0.57,2.36l-0.13,0.57l0.97,2.4c-0.1,-0.13 -1.73,-2.17 -1.81,-2.17c-0.01,0 -0.06,-0.27 -0.13,-0.67c-0.01,-0.03 -0.02,-0.06 -0.02,-0.1c-0.01,-0.08 -0.03,-0.15 -0.04,-0.23c-0.01,-0.09 -0.03,-0.19 -0.05,-0.3c-0.01,-0.07 -0.02,-0.15 -0.04,-0.24c0,-0.02 -0.01,-0.05 -0.01,-0.08l-0.04,-0.25c-0.01,-0.06 -0.02,-0.11 -0.02,-0.17c-0.01,-0.02 -0.01,-0.04 -0.01,-0.06c-0.03,-0.16 -0.05,-0.31 -0.08,-0.47z" fill="#FFFFFF" id="svg_1255" opacity="0.2"/>
         <path d="m135.34,224.74l0.96,-2.36l-0.07,-0.32l-0.83,-3.46l1.59,-1.36l0.35,-0.3c0,0 0.52,-2.11 0.58,-2.18c0.01,-0.02 0.04,-0.01 0.09,0.01l0,2.36l-0.01,0.2c0,0 0,0 0,0.01c0,0.01 0,0.01 0,0.01l-0.03,0.57l-0.09,0.22l0,0.01c-0.03,0.16 -0.05,0.34 -0.08,0.53c-0.14,0.92 -0.32,2.1 -0.46,2.93c-0.01,0.07 -0.02,0.15 -0.03,0.22c-0.08,0.46 -0.14,0.77 -0.15,0.77c-0.09,0 -1.82,2.17 -1.82,2.17l-0.02,0l0.02,-0.03z" fill="#FFFFFF" id="svg_1256" opacity="0.2"/>
         <g id="svg_1257">
          <path d="m136.52,220.56c0.05,-0.38 1.27,-1.91 1.27,-1.91s0,0.01 0,0.03c-0.13,0.92 -0.31,2.1 -0.45,2.93c-0.14,0.03 -0.29,0.05 -0.36,0.04c-0.33,-0.04 -0.54,-0.53 -0.46,-1.09z" fill="#D66142" id="svg_1258"/>
          <path d="m115.44,220.03l0.55,-0.17l0.06,-0.02l0.08,-0.02c0.21,0.31 0.38,0.6 0.4,0.75c0.07,0.55 -0.14,1.04 -0.46,1.08c-0.08,0.01 -0.25,-0.01 -0.4,-0.05c0,0 -0.01,0 -0.01,0l-0.08,-0.54l-0.01,-0.08l-0.04,-0.25l-0.09,-0.7z" fill="#D66142" id="svg_1259"/>
         </g>
         <g id="svg_1260">
          <path d="m129.68,223.51c-0.49,-0.91 0.64,-3.41 0.64,-3.41s2.58,0.96 2.85,1.93c0.16,0.6 -0.14,1.23 -0.66,1.45c-0.3,0.14 -0.74,0.02 -0.74,0.02s-0.21,0.4 -0.52,0.54c-0.55,0.23 -1.27,0.03 -1.57,-0.53z" fill="#616161" id="svg_1261" opacity="0.2"/>
          <path d="m129.71,223.19c-0.32,-0.83 0.68,-2.74 0.68,-2.74s2.14,0.54 2.5,1.35c0.24,0.56 0,1.2 -0.52,1.44c-0.3,0.13 -0.76,-0.01 -0.76,-0.01s-0.19,0.42 -0.5,0.55c-0.53,0.23 -1.18,-0.02 -1.4,-0.59z" fill="#FFD675" id="svg_1262"/>
          <path d="m130.67,221.06c0.8,0.26 1.61,0.65 1.75,0.95c0.06,0.15 0.07,0.31 0.01,0.45c-0.04,0.14 -0.14,0.25 -0.27,0.3c0,0 -0.03,0.02 -0.11,0.02c-0.12,0 -0.25,-0.03 -0.29,-0.04l-0.43,-0.13l-0.19,0.41c-0.05,0.12 -0.17,0.26 -0.23,0.29c-0.06,0.03 -0.13,0.04 -0.21,0.04c-0.17,0 -0.41,-0.09 -0.51,-0.34c-0.13,-0.34 0.16,-1.24 0.48,-1.95z" fill="#616161" id="svg_1263" opacity="0.2"/>
         </g>
        </g>
       </g>
       <path d="m115.42,220.03c0.02,0.08 0.03,0.15 0.04,0.23c0.02,0.13 0.04,0.25 0.06,0.37c0.01,0.03 0.01,0.07 0.02,0.1l0.03,0.25c0.01,0.03 0.02,0.06 0.02,0.08l0.07,0.53c0.01,0 0.01,0.01 0.01,0.01c0.01,0.08 0.03,0.15 0.04,0.23c0.01,0.03 0.01,0.07 0.02,0.1c0.02,0.1 0.03,0.19 0.05,0.27c0.01,0.09 0.03,0.16 0.04,0.22c0.02,0.11 0.04,0.18 0.04,0.18c0.08,0 1.71,2.04 1.81,2.17l0,0c0,0 0.01,0 0.01,0l1.31,-1.23l2.17,0.52l1.16,0.29l1.29,0.31l0.12,0.03l0,0l-0.17,0.55l1.22,0.55l0,0.37c-0.88,0.84 -1.52,2.27 -1.69,3.32c0,0.02 0,0.09 -0.01,0.19c-0.01,0.02 -0.02,0.03 -0.03,0.06c-0.16,0.34 -1.06,4.4 -1.08,4.71c0,0.03 0,0.05 0,0.07c0,0 0,0.01 0,0.01c-0.08,1.56 1.26,2.81 2.83,2.84c0.89,0.01 0.97,-0.33 1.83,-0.34l0,-20.33l-0.17,0.04l-0.59,0.18l-1.18,0.35l-0.37,0.11l-0.95,0.29l-0.19,0.05l-0.08,0.03l-3.12,0.93l-0.15,0.05l-2.43,0.72l0,0l-1.06,0.31l-0.07,0.02l-0.18,0.06l-0.03,0.01l-0.03,0.01l-0.03,0.01l-0.46,0.13l-0.1,0.04l0,0l-0.01,0c0,0 0,0 0,0l-0.01,0z" fill="#616161" id="svg_1264" opacity="0.2"/>
      </g>
     </g>
    </g>
   </g>
   <g id="svg_1265">
    <path d="m116.58,198.69c-0.07,1.28 -2.64,3.23 -2.64,3.23s-2.65,-1.96 -2.65,-3.25c0,-0.88 0.73,-1.59 1.61,-1.59c0.49,0 1.05,0.44 1.05,0.44s0.52,-0.44 1.03,-0.44c0.88,0.02 1.64,0.73 1.6,1.61z" fill="#D66142" id="svg_1266"/>
    <path d="m114.98,197.09c-0.51,-0.01 -1.04,0.43 -1.04,0.43s0,0 -0.01,-0.01l0,4.4c0,0.01 0,0.01 0,0.01s2.57,-1.95 2.64,-3.23c0.05,-0.88 -0.71,-1.59 -1.59,-1.6z" fill="#616161" id="svg_1267" opacity="0.2"/>
   </g>
   <g id="svg_1268">
    <path d="m139.53,231.96c0.07,-1.28 2.64,-3.23 2.64,-3.23s2.64,1.97 2.64,3.25c0,0.88 -0.72,1.59 -1.61,1.59c-0.49,0 -1.04,-0.44 -1.04,-0.44s-0.53,0.44 -1.04,0.44c-0.88,-0.01 -1.64,-0.73 -1.59,-1.61z" fill="#D66142" id="svg_1269"/>
    <path d="m141.12,233.57c0.51,0 1.04,-0.44 1.04,-0.44s0,0 0.01,0.01l0,-4.4c0,0 0,0 0,0s-2.57,1.94 -2.64,3.22c-0.05,0.88 0.71,1.6 1.59,1.61z" fill="#616161" id="svg_1270" opacity="0.2"/>
   </g>
  </g>
 </g>

</svg>