<?xml version="1.0"?>
<svg width="40" height="56" xmlns="http://www.w3.org/2000/svg" xmlns:svg="http://www.w3.org/2000/svg" enable-background="new 0 0 450 450" version="1.1" xml:space="preserve">
 <g class="layer">
  <title>Layer 1</title>
  <g id="svg_784" transform="translate(-0.0630826, 0.00434076) scale(0.996972, 1.00437) translate(0.0630826, -0.00434076) translate(-18.7576, -0.121803) matrix(1, 0, 0, 1, -88.9737, -54.8921)">
   <g id="svg_785">
    <g id="svg_786">
     <g id="svg_787">
      <path d="m112.2,110.61c-2.34,0.01 -4.25,-1.86 -4.29,-4.24l-0.12,-47.07c0.03,-2.24 1.94,-4.13 4.29,-4.12l31.11,0.06c2.34,0 4.24,1.88 4.24,4.2l0,46.97c0,2.29 -1.9,4.16 -4.23,4.17l-31,0.03z" fill="#C9C9C9" id="svg_788"/>
      <path d="m112.55,110.58c-2.35,0 -4.26,-1.87 -4.27,-4.17l-0.11,-47.07c-0.01,-2.32 1.9,-4.2 4.25,-4.2l31.11,0.06c2.34,0.01 4.24,1.89 4.24,4.2l0,46.97c0,2.3 -1.9,4.17 -4.23,4.17l-30.99,0.04z" fill="#FFFFFF" id="svg_789"/>
      <g id="svg_790">
       <path d="m143.24,109.62l-30.66,0c-1.79,0 -3.25,-1.46 -3.25,-3.24l0,-46.96c0,-1.78 1.46,-3.23 3.25,-3.23l30.66,0c1.79,0 3.25,1.45 3.25,3.23l0,46.96c0,1.78 -1.46,3.24 -3.25,3.24zm-30.66,-52.15c-1.08,0 -1.96,0.87 -1.96,1.95l0,46.96c0,1.08 0.88,1.95 1.96,1.95l30.66,0c1.08,0 1.96,-0.87 1.96,-1.95l0,-46.96c0,-1.08 -0.88,-1.95 -1.96,-1.95l-30.66,0z" fill="#D66142" id="svg_791"/>
      </g>
      <g id="svg_792">
       <path d="m115.37,62.77c-0.02,0.04 -0.14,0.14 -0.35,0.3c-0.26,0.2 -0.49,0.32 -0.69,0.38l-1.06,-1.95l-0.06,0.04l0,1.71l-1.26,0l0,-4.44l1.26,0l0,2.52c0.21,-0.03 0.41,-0.18 0.58,-0.45c0.16,-0.24 0.24,-0.47 0.24,-0.68c0,-0.16 -0.03,-0.29 -0.08,-0.4c-0.05,-0.11 -0.11,-0.21 -0.16,-0.31c0,-0.04 0.14,-0.17 0.41,-0.38c0.23,-0.17 0.39,-0.29 0.49,-0.37c0.08,0.07 0.15,0.18 0.22,0.34c0.06,0.15 0.09,0.29 0.09,0.41c0,0.11 -0.02,0.24 -0.07,0.39c-0.04,0.15 -0.1,0.29 -0.17,0.41c-0.12,0.18 -0.22,0.32 -0.32,0.41c-0.18,0.19 -0.28,0.29 -0.29,0.32l1.22,1.75z" fill="#333333" id="svg_793"/>
      </g>
      <g id="svg_794">
       <path d="m140.6,103.54c0.03,-0.04 0.15,-0.14 0.36,-0.3c0.26,-0.19 0.49,-0.32 0.69,-0.38l1.06,1.95l0.07,-0.04l0,-1.71l1.25,0l0,4.45l-1.25,0l0,-2.52c-0.22,0.03 -0.41,0.17 -0.59,0.44c-0.16,0.24 -0.24,0.47 -0.24,0.69c0,0.15 0.03,0.28 0.08,0.4c0.05,0.1 0.11,0.2 0.16,0.3c0,0.04 -0.14,0.17 -0.41,0.38c-0.23,0.17 -0.39,0.29 -0.49,0.37c-0.08,-0.07 -0.15,-0.18 -0.21,-0.33c-0.07,-0.16 -0.1,-0.3 -0.1,-0.42c0,-0.11 0.02,-0.24 0.07,-0.39c0.04,-0.15 0.1,-0.29 0.18,-0.41c0.11,-0.18 0.21,-0.32 0.31,-0.41c0.18,-0.19 0.28,-0.29 0.29,-0.32l-1.23,-1.75z" fill="#333333" id="svg_795"/>
      </g>
     </g>
    </g>
    <g id="svg_796">
     <g id="svg_797">
      <g id="svg_798">
       <g id="svg_799">
        <g id="svg_800">
         <g id="svg_801">
          <path d="m139.24,72.87l0,5.48l-5.71,1.72l-10.88,3.27l-1.12,0.33l-4.95,1.49l0,-12.59c0.04,-0.02 0.16,-0.09 0.35,-0.2c0.05,-0.02 0.08,-0.04 0.13,-0.07c0.81,-0.46 2.45,-1.4 3.95,-2.25c0.12,-0.07 0.23,-0.13 0.35,-0.2c0.11,-0.06 0.22,-0.12 0.33,-0.18c0.11,-0.07 0.22,-0.13 0.33,-0.19c0.29,-0.17 0.58,-0.33 0.83,-0.48c0.02,-0.01 0.04,-0.02 0.06,-0.03c0.02,-0.01 0.03,-0.02 0.05,-0.03c0.11,-0.06 0.21,-0.12 0.31,-0.17c0,0 0,0 0,0c0.13,-0.08 0.25,-0.15 0.35,-0.2c0.05,-0.04 0.1,-0.06 0.15,-0.09c0.03,-0.01 0.06,-0.03 0.08,-0.04c0.03,-0.02 0.05,-0.03 0.08,-0.05c0.02,-0.01 0.04,-0.02 0.07,-0.03c0.02,-0.02 0.04,-0.03 0.05,-0.04c0.02,-0.01 0.04,-0.01 0.04,-0.01l7.55,0c0,0 0.02,0 0.05,0.03c0.02,0 0.05,0.02 0.08,0.04c0.02,0.01 0.04,0.02 0.06,0.03c0.02,0.02 0.04,0.03 0.07,0.04c0.09,0.05 0.21,0.12 0.34,0.2c0.11,0.05 0.22,0.12 0.34,0.18c0.04,0.03 0.09,0.06 0.14,0.09c0.03,0.02 0.07,0.04 0.11,0.06l0,0c0.04,0.03 0.09,0.05 0.14,0.08c0.06,0.03 0.14,0.07 0.21,0.12c0.02,0.01 0.05,0.03 0.07,0.04c0.1,0.05 0.2,0.11 0.3,0.17c1.04,0.59 2.32,1.32 3.4,1.93c0.11,0.07 0.21,0.13 0.31,0.18c0.16,0.09 0.31,0.18 0.45,0.26c0.09,0.05 0.18,0.1 0.28,0.15c0.08,0.06 0.17,0.1 0.25,0.15c0.12,0.07 0.23,0.13 0.33,0.19c0.05,0.03 0.1,0.06 0.15,0.08c0.27,0.16 0.43,0.25 0.43,0.25l0.09,0.29z" fill="#D66142" id="svg_802"/>
          <g id="svg_803">
           <g id="svg_804">
            <g id="svg_805">
             <g id="svg_806">
              <path d="m127.92,74.82l-2.07,-3.58l4.14,0l-2.07,3.58zm-1.67,-3.35l1.67,2.89l1.67,-2.89l-3.34,0z" fill="#FFD675" id="svg_807"/>
             </g>
            </g>
            <path d="m125.15,68.31c-0.04,0.01 -7.52,4.27 -7.52,4.27l-1.05,3.23l0,9.35l4.95,-1.48l1.12,-0.34l2.95,-9.69l0.4,-1.3l0.57,-1.24l1.29,-2.75l0,-0.06l-2.71,0l0,0.01z" fill="#616161" id="svg_808" opacity="0.2"/>
            <path d="m124.09,68.31c0,0 -0.02,0 -0.04,0.01c-0.01,0.01 -0.03,0.02 -0.05,0.03c-0.02,0.02 -0.05,0.03 -0.07,0.04c-0.02,0.01 -0.05,0.03 -0.07,0.04c-0.03,0.02 -0.06,0.03 -0.09,0.05c-0.05,0.02 -0.09,0.05 -0.15,0.08c-0.1,0.06 -0.22,0.13 -0.35,0.2c0,0 0,0 0,0c-0.1,0.06 -0.2,0.12 -0.31,0.18c-0.04,0.02 -0.07,0.04 -0.11,0.06c-0.25,0.15 -0.53,0.3 -0.83,0.47c-0.11,0.07 -0.22,0.13 -0.33,0.19c-0.11,0.06 -0.22,0.13 -0.33,0.19c-0.11,0.06 -0.23,0.13 -0.34,0.19c-0.49,0.28 -0.99,0.56 -1.47,0.84c-0.14,0.08 -0.29,0.16 -0.43,0.24c-0.84,0.48 -1.59,0.91 -2.06,1.18c-0.04,0.02 -0.09,0.05 -0.13,0.07c-0.19,0.11 -0.31,0.18 -0.35,0.2l0,12.59l0.89,-0.27l0.49,-0.14l3.51,-1.06l0.06,-0.02c0.16,-0.38 0.33,-0.8 0.51,-1.23c1.19,-2.84 2.63,-6.45 3.56,-8.8c0.58,-1.46 0.97,-2.43 0.97,-2.43l0,-0.1l0.26,-2.81l-2.74,0l0,0.01z" fill="#EBEBEB" id="svg_809"/>
           </g>
           <g id="svg_810">
            <g id="svg_811">
             <path d="m139.24,76.38l-1.15,-3.8c0,0 -7.47,-4.26 -7.51,-4.27l-2.72,0l0,0.05l1.87,3.99l2.42,8.28l7.09,-2.56l0,-1.69z" fill="#616161" id="svg_812" opacity="0.2"/>
             <path d="m139.24,72.87l0,5.48l-5.71,1.72c-0.88,-1.67 -2.99,-6.01 -3.92,-7.92c-0.28,-0.58 -0.45,-0.94 -0.45,-0.94l-0.26,-2.91l2.74,0c0,0 0.02,0.01 0.05,0.04c0.02,0 0.05,0.02 0.08,0.04c0.02,0.01 0.04,0.02 0.06,0.03c0.02,0.01 0.04,0.03 0.07,0.04c0.09,0.05 0.21,0.12 0.34,0.19c0.1,0.06 0.22,0.12 0.34,0.19c0.04,0.03 0.09,0.06 0.14,0.08c0.03,0.02 0.07,0.05 0.1,0.07l0.01,0c0.04,0.02 0.09,0.05 0.14,0.07c0.06,0.04 0.13,0.08 0.21,0.12c0.02,0.02 0.05,0.03 0.07,0.05c0.1,0.05 0.2,0.11 0.3,0.17c1.04,0.59 2.32,1.32 3.4,1.93c0.11,0.07 0.21,0.13 0.31,0.18c0.16,0.09 0.31,0.18 0.45,0.26c0.09,0.05 0.18,0.1 0.27,0.15c0.09,0.05 0.17,0.1 0.26,0.15c0.12,0.07 0.23,0.13 0.32,0.19c0.06,0.03 0.11,0.06 0.15,0.08c0.28,0.16 0.44,0.25 0.44,0.25l0.09,0.29z" fill="#EBEBEB" id="svg_813"/>
            </g>
           </g>
          </g>
          <g id="svg_814">
           <polygon fill="#EBBE9F" id="svg_815" points="132.227,66.455 132.149,65.434 132.146,65.396 131.913,62.269 130.751,61.682            128.508,60.548 127.888,60.881 127.266,60.548 125.025,61.682 123.863,62.269 123.63,65.396 123.627,65.434            123.551,66.455 123.875,69.392 127.883,72.356 127.883,72.363 127.883,72.364 127.888,72.36 127.894,72.364            127.894,72.363 127.894,72.356 131.907,69.379          "/>
           <path d="m127.89,68.3l1.38,-0.04l-1.03,-0.65c0,0 -0.17,0 -0.35,-0.01l0,0c0,0 0,0 0,0c0,0 0,0 -0.01,0l0,0c-0.18,0.01 -0.34,0.01 -0.34,0.01l-1.03,0.65l1.37,0.04l0,0l0.01,0l0,0l0,0z" fill="#EBBE9F" id="svg_816"/>
           <polygon fill="#616161" id="svg_817" opacity="0.2" points="128.724,66.338 128.16,64.382 127.894,64.382 127.883,64.382            127.617,64.382 127.052,66.338 127.617,66.942 127.883,66.952 127.883,66.952 127.888,66.952 127.894,66.952            127.894,66.952 128.16,66.942          "/>
           <g id="svg_818">
            <polygon fill="#9C9C9C" id="svg_819" points="128.481,63.858 130.249,63.636 130.288,63.63 130.307,63.642 131.148,64.088             130.23,63.831 130.288,63.836 128.575,64.319           "/>
            <path d="m129.1,64.6c-0.03,0.06 -0.04,0.13 -0.04,0.2c0,0.28 0.22,0.5 0.49,0.5c0.28,0 0.5,-0.22 0.5,-0.5c0,-0.07 -0.01,-0.14 -0.04,-0.2l-0.91,0z" fill="#333333" id="svg_820"/>
            <polygon fill="#9C9C9C" id="svg_821" points="127.293,63.858 125.526,63.636 125.487,63.63 125.47,63.642 124.626,64.088             125.544,63.831 125.486,63.836 127.2,64.319           "/>
            <path d="m126.67,64.6c0.03,0.06 0.05,0.13 0.05,0.2c0,0.28 -0.22,0.5 -0.5,0.5c-0.28,0 -0.5,-0.22 -0.5,-0.5c0,-0.07 0.02,-0.14 0.05,-0.2l0.9,0z" fill="#333333" id="svg_822"/>
            <path d="m132.15,65.43c-0.03,0.02 -0.05,0.04 -0.05,0.04l-0.81,-2.89l-0.54,-0.9l1.16,0.59l0.24,3.13l0,0.03z" fill="#9C9C9C" id="svg_823"/>
            <path d="m123.63,65.43c0.03,0.02 0.04,0.04 0.04,0.04l0.82,-2.89l0.54,-0.9l-1.17,0.59l-0.23,3.13l0,0.03z" fill="#9C9C9C" id="svg_824"/>
           </g>
           <path d="m131.99,61.15l0,1.2c-1.04,0.28 -2.2,0.4 -3.31,0.43c-0.74,0.02 -1.46,0.01 -2.11,-0.03c-0.33,-0.02 -0.63,-0.04 -0.91,-0.07c-0.34,-0.03 -0.64,-0.06 -0.9,-0.09c-0.63,-0.08 -1.02,-0.14 -1.02,-0.14l0,-1.14c0,0 4.11,-2.19 4.13,-2.19c0,0.01 0.51,0.26 1.17,0.59c0.21,0.1 0.44,0.22 0.67,0.33c0.22,0.11 0.44,0.22 0.65,0.32c0.61,0.3 1.17,0.57 1.45,0.7c0.11,0.06 0.18,0.09 0.18,0.09z" fill="#FFD675" id="svg_825"/>
           <g id="svg_826">
            <path d="m129.71,60.04l-4.05,2.64c-0.34,-0.03 -0.64,-0.06 -0.9,-0.09l4.28,-2.88c0.21,0.1 0.44,0.22 0.67,0.33z" fill="#FFFFFF" id="svg_827" opacity="0.2"/>
            <path d="m131.81,61.06l-3.13,1.72c-0.74,0.02 -1.46,0 -2.11,-0.03l3.79,-2.39c0.61,0.3 1.17,0.57 1.45,0.7z" fill="#FFFFFF" id="svg_828" opacity="0.2"/>
           </g>
          </g>
         </g>
         <g id="svg_829">
          <polygon fill="#333333" id="svg_830" points="119.765,76.567 119.63,77.53 120.104,76.682         "/>
          <polygon fill="#333333" id="svg_831" points="121.661,76.567 121.524,77.53 121.998,76.682         "/>
          <polygon fill="#333333" id="svg_832" points="123.556,76.567 123.42,77.53 123.892,76.682         "/>
          <polygon fill="#333333" id="svg_833" points="117.396,79.67 117.26,80.633 117.734,79.784         "/>
          <polygon fill="#333333" id="svg_834" points="119.29,79.67 119.155,80.633 119.63,79.784         "/>
          <polygon fill="#333333" id="svg_835" points="121.185,79.67 121.051,80.633 121.524,79.784         "/>
          <polygon fill="#333333" id="svg_836" points="117.977,82.796 117.84,83.759 118.314,82.912         "/>
          <polygon fill="#333333" id="svg_837" points="119.871,82.796 119.734,83.759 120.21,82.912         "/>
          <path d="m121.9,82.72c-0.09,0.22 -0.18,0.43 -0.26,0.62l-0.02,0.01l0.09,-0.69l0.19,0.06z" fill="#333333" id="svg_838"/>
          <polygon fill="#333333" id="svg_839" points="123.082,71.156 122.944,72.119 123.42,71.271         "/>
          <polygon fill="#333333" id="svg_840" points="121.185,70.768 121.051,71.73 121.524,70.881         "/>
          <path d="m119.42,71.12l-0.27,0.47l0.05,-0.35c0.07,-0.04 0.15,-0.08 0.22,-0.12z" fill="#333333" id="svg_841"/>
          <polygon fill="#333333" id="svg_842" points="117.835,84.746 117.587,84.82 117.607,84.67         "/>
          <polygon fill="#333333" id="svg_843" points="117.444,73.438 117.31,74.401 117.782,73.552         "/>
          <polygon fill="#333333" id="svg_844" points="119.553,73.438 119.415,74.401 119.891,73.552         "/>
          <polygon fill="#333333" id="svg_845" points="121.447,73.438 121.312,74.401 121.787,73.552         "/>
          <polygon fill="#333333" id="svg_846" points="123.341,73.438 123.206,74.401 123.68,73.552         "/>
          <polygon fill="#333333" id="svg_847" points="125.284,71.659 125.148,72.621 125.623,71.772         "/>
          <polygon fill="#333333" id="svg_848" points="117.656,76.567 117.521,77.53 117.996,76.682         "/>
         </g>
         <g id="svg_849">
          <polygon fill="#333333" id="svg_850" points="136.418,76.567 136.553,77.53 136.081,76.682         "/>
          <polygon fill="#333333" id="svg_851" points="134.523,76.567 134.659,77.53 134.185,76.682         "/>
          <polygon fill="#333333" id="svg_852" points="132.629,76.567 132.763,77.53 132.29,76.682         "/>
          <polygon fill="#333333" id="svg_853" points="133.104,71.156 133.239,72.119 132.763,71.271         "/>
          <polygon fill="#333333" id="svg_854" points="134.997,70.768 135.132,71.73 134.659,70.881         "/>
          <path d="m136.76,71.12l0.27,0.47l-0.05,-0.35c-0.07,-0.04 -0.14,-0.08 -0.22,-0.12z" fill="#333333" id="svg_855"/>
          <polygon fill="#333333" id="svg_856" points="138.739,73.438 138.876,74.401 138.402,73.552         "/>
          <polygon fill="#333333" id="svg_857" points="136.631,73.438 136.767,74.401 136.292,73.552         "/>
          <polygon fill="#333333" id="svg_858" points="134.737,73.438 134.873,74.401 134.396,73.552         "/>
          <polygon fill="#333333" id="svg_859" points="132.842,73.438 132.978,74.401 132.502,73.552         "/>
          <polygon fill="#333333" id="svg_860" points="130.899,71.659 131.037,72.621 130.56,71.772         "/>
          <polygon fill="#333333" id="svg_861" points="138.527,76.567 138.662,77.53 138.187,76.682         "/>
         </g>
        </g>
       </g>
       <path d="m132.83,68.97l0,0.01l0,0c-0.15,0.87 -1.86,2.22 -3.22,3.17c-0.92,0.65 -1.69,1.11 -1.69,1.11s-4.98,-2.57 -5.01,-4.29c0.02,-0.01 0.04,-0.02 0.05,-0.03c0.11,-0.06 0.21,-0.12 0.31,-0.18c0,0 0,0 0.01,0c0.12,-0.07 0.24,-0.14 0.34,-0.19c0.06,-0.04 0.1,-0.06 0.15,-0.09c0.03,-0.02 0.06,-0.03 0.09,-0.04c0.02,-0.02 0.05,-0.03 0.07,-0.05c0.02,-0.01 0.05,-0.02 0.07,-0.04c0.02,-0.01 0.04,-0.02 0.05,-0.03c0.02,-0.01 0.04,-0.02 0.04,-0.02l7.55,0c0,0 0.02,0.01 0.05,0.04c0.03,0 0.05,0.02 0.09,0.04c0.02,0.01 0.04,0.02 0.05,0.03c0.03,0.02 0.05,0.03 0.07,0.04c0.09,0.05 0.21,0.12 0.35,0.19c0.1,0.06 0.21,0.12 0.33,0.19c0.04,0.03 0.09,0.06 0.14,0.08c0.03,0.03 0.07,0.05 0.11,0.06z" fill="#616161" id="svg_862" opacity="0.2"/>
       <path d="m132.08,68.9c-0.14,1.45 -4.28,3.56 -4.28,3.56s-4.19,-2.3 -4.16,-3.75c0.02,-0.99 1.19,-1.77 2.6,-1.75c0.79,0.02 1.66,0.54 1.66,0.54s0.85,-0.49 1.66,-0.46c1.41,0.04 2.61,0.87 2.52,1.86z" fill="#9C9C9C" id="svg_863"/>
       <g id="svg_864">
        <polygon fill="#EBBE9F" id="svg_865" points="127.006,67.603 127.91,67.813 128.809,67.603 129.042,68.795 126.781,68.787       "/>
        <rect fill="#616161" height="0.35" id="svg_866" opacity="0.2" width="1.79" x="127.06" y="68.05"/>
       </g>
       <g id="svg_867">
        <path d="m129.9,75.9c0.04,0.99 -2.12,2.54 -2.12,2.54s-2.1,-1.58 -1.95,-2.7c0.09,-0.69 0.71,-1.21 1.37,-1.2c0.36,0.01 0.76,0.33 0.76,0.33s0.37,-0.3 0.72,-0.29c0.59,0.02 1.2,0.69 1.22,1.32z" fill="#616161" id="svg_868" opacity="0.2"/>
        <path d="m129.74,75.7c-0.07,0.9 -1.92,2.24 -1.92,2.24s-1.84,-1.42 -1.82,-2.33c0.01,-0.62 0.53,-1.11 1.16,-1.1c0.35,0 0.73,0.33 0.73,0.33s0.38,-0.31 0.74,-0.3c0.62,0.02 1.15,0.53 1.11,1.16z" fill="#FFD675" id="svg_869"/>
        <path d="m127.83,77.29c-0.69,-0.59 -1.33,-1.33 -1.32,-1.67c0.01,-0.34 0.29,-0.6 0.63,-0.6c0.11,0 0.32,0.13 0.42,0.21l0.33,0.27l0.32,-0.27c0.1,-0.07 0.29,-0.18 0.4,-0.18c0.18,0.01 0.35,0.09 0.47,0.22c0.07,0.08 0.15,0.21 0.14,0.39c-0.02,0.35 -0.69,1.07 -1.39,1.63z" fill="#616161" id="svg_870" opacity="0.2"/>
       </g>
       <path d="m128.54,60.17c-0.02,0.33 -0.69,0.81 -0.69,0.81s-0.66,-0.51 -0.65,-0.84c0,-0.22 0.19,-0.4 0.41,-0.4c0.13,0 0.27,0.12 0.27,0.12s0.13,-0.11 0.26,-0.11c0.23,0.01 0.42,0.2 0.4,0.42z" fill="#D66142" id="svg_871"/>
      </g>
      <path d="m139.24,76.38l0,-3.51l-0.09,-0.29c0,0 -0.16,-0.09 -0.43,-0.25c-0.05,-0.02 -0.1,-0.05 -0.16,-0.08c-0.09,-0.06 -0.2,-0.12 -0.32,-0.19c-0.08,-0.05 -0.17,-0.1 -0.26,-0.15c-0.09,-0.05 -0.18,-0.1 -0.27,-0.15c-0.14,-0.08 -0.29,-0.17 -0.45,-0.26c-0.08,-0.05 -0.18,-0.1 -0.27,-0.15l-0.01,-0.11c-0.07,-0.04 -0.14,-0.08 -0.22,-0.12l0.09,0.14c-1.06,-0.6 -2.3,-1.3 -3.3,-1.87c-0.1,-0.06 -0.2,-0.12 -0.3,-0.17c-0.02,-0.01 -0.05,-0.03 -0.07,-0.05c-0.07,-0.04 -0.15,-0.08 -0.21,-0.11c-0.05,-0.03 -0.1,-0.06 -0.14,-0.08l0,-0.01c-0.04,-0.01 -0.08,-0.03 -0.11,-0.06c-0.05,-0.02 -0.1,-0.05 -0.14,-0.08c-0.12,-0.07 -0.23,-0.13 -0.34,-0.19c-0.07,-0.03 -0.13,-0.07 -0.19,-0.1c-0.01,-0.05 -0.02,-0.09 -0.04,-0.14l0.21,-1.94l-0.07,-1.03l-0.01,-0.03l-0.22,-3.03c0.02,-0.01 0.05,-0.01 0.07,-0.02l0,-1.2c0,0 -0.07,-0.03 -0.18,-0.08c-0.28,-0.14 -0.84,-0.41 -1.45,-0.71c-0.21,-0.1 -0.43,-0.21 -0.65,-0.32c-0.23,-0.11 -0.46,-0.22 -0.67,-0.33c-0.66,-0.33 -1.17,-0.58 -1.17,-0.59c-0.01,0 -0.03,0.01 -0.06,0.03l0,22.64l4.3,-1.29l0.04,0.13l2.43,-0.87l4.66,-1.4l0,-0.29l0,0l0,-1.69l0,0z" fill="#616161" id="svg_872" opacity="0.2"/>
     </g>
     <g id="svg_873">
      <g id="svg_874">
       <g id="svg_875">
        <g id="svg_876">
         <g id="svg_877">
          <path d="m139.24,80.5l0,12.59c-0.04,0.02 -0.16,0.09 -0.36,0.2c-0.04,0.03 -0.08,0.05 -0.12,0.07c-0.1,0.06 -0.22,0.12 -0.34,0.2c-0.02,0.01 -0.04,0.02 -0.06,0.03c-0.11,0.06 -0.23,0.13 -0.35,0.2c-0.14,0.08 -0.3,0.17 -0.46,0.26c-0.16,0.1 -0.33,0.19 -0.51,0.29c-0.11,0.07 -0.23,0.13 -0.34,0.2c-0.14,0.08 -0.29,0.16 -0.43,0.24c-0.48,0.28 -0.98,0.56 -1.46,0.84c-0.12,0.07 -0.23,0.13 -0.34,0.19l-0.01,0c-0.11,0.06 -0.22,0.13 -0.33,0.19c-0.11,0.06 -0.22,0.13 -0.33,0.19c-0.3,0.17 -0.57,0.33 -0.82,0.47c-0.03,0.01 -0.05,0.03 -0.07,0.04c-0.02,0 -0.03,0.02 -0.05,0.03c-0.11,0.06 -0.21,0.11 -0.31,0.17c0,0 0,0 0,0c-0.13,0.07 -0.25,0.14 -0.35,0.2c-0.01,0.01 -0.03,0.01 -0.04,0.02c0,0 0,0 0,0c-0.04,0.02 -0.07,0.05 -0.11,0.06c-0.02,0.01 -0.03,0.02 -0.05,0.03c-0.01,0.01 -0.02,0.01 -0.04,0.02c-0.02,0.02 -0.05,0.03 -0.07,0.04c-0.01,0.01 -0.02,0.01 -0.03,0.02c-0.02,0.01 -0.03,0.01 -0.04,0.02c-0.02,0.02 -0.04,0.02 -0.05,0.03c-0.02,0.01 -0.04,0.02 -0.04,0.02l-7.55,0c0,0 -0.02,-0.01 -0.05,-0.03c-0.02,-0.01 -0.05,-0.03 -0.09,-0.05c-0.01,-0.01 -0.04,-0.02 -0.05,-0.03c-0.03,-0.01 -0.05,-0.03 -0.07,-0.04c-0.03,-0.02 -0.07,-0.03 -0.1,-0.05c-0.02,-0.01 -0.03,-0.02 -0.05,-0.03c-0.01,0 -0.01,0 -0.01,0c-0.06,-0.04 -0.12,-0.07 -0.18,-0.11c-0.1,-0.05 -0.22,-0.12 -0.34,-0.19c-0.04,-0.02 -0.09,-0.05 -0.14,-0.08c-0.03,-0.02 -0.07,-0.04 -0.11,-0.06l0,0c-0.04,-0.03 -0.09,-0.06 -0.14,-0.08c-0.06,-0.04 -0.14,-0.08 -0.21,-0.12c-0.02,-0.01 -0.05,-0.03 -0.07,-0.04c-0.1,-0.05 -0.2,-0.11 -0.3,-0.17c-0.52,-0.3 -1.1,-0.63 -1.68,-0.96c-0.25,-0.14 -0.5,-0.28 -0.74,-0.42c-0.07,-0.04 -0.14,-0.08 -0.2,-0.12c-0.24,-0.13 -0.46,-0.26 -0.68,-0.38c-0.03,-0.02 -0.06,-0.04 -0.1,-0.06c-0.01,-0.01 -0.03,-0.02 -0.04,-0.02l-0.01,0c-0.09,-0.06 -0.17,-0.11 -0.27,-0.16c-0.15,-0.09 -0.3,-0.17 -0.44,-0.25c-0.1,-0.06 -0.19,-0.11 -0.28,-0.16c-0.08,-0.05 -0.17,-0.1 -0.25,-0.15c-0.12,-0.06 -0.23,-0.12 -0.33,-0.18c-0.05,-0.03 -0.1,-0.06 -0.15,-0.09c-0.27,-0.16 -0.43,-0.25 -0.43,-0.25l-0.09,-0.29l0,-5.48l4.66,-1.4l0.03,-0.01l0.02,-0.01l1,-0.3l1.41,-0.42l0.01,0l0,0l4.3,-1.29l5.16,-1.56l0,0l1.12,-0.33l0.06,-0.02l3.51,-1.05l0.49,-0.15l0.89,-0.27z" fill="#D66142" id="svg_878"/>
          <g id="svg_879">
           <g id="svg_880">
            <g id="svg_881">
             <g id="svg_882">
              <path d="m126.5,94.2l0.06,0.12l0.05,0.11l2.66,0c0.01,-0.02 0.02,-0.06 0.03,-0.11c0.02,-0.03 0.04,-0.08 0.05,-0.12l-2.85,0zm3.1,-0.4l-0.05,-0.09l-0.31,-0.54l0,-0.01l-1.23,-2.12l-0.11,-0.19l0,-0.01l-0.01,0.02l-1.43,2.48c0,0.01 0,0.01 -0.01,0.01l-0.17,0.3l-0.02,0.03l-0.43,0.75l4.14,0l-0.37,-0.63zm-3.38,0.4l0.16,-0.27l0.02,-0.02c0,0 0,0 0,-0.01l0.49,-0.85l1.01,-1.75l0.11,0.19l0.82,1.43l0,0.01l0.61,1.04l0.04,0.08l0.05,0.07l0.04,0.08l-3.35,0zm0.28,0l0.06,0.12l0.05,0.11l2.66,0c0.01,-0.02 0.02,-0.06 0.03,-0.11c0.02,-0.03 0.04,-0.08 0.05,-0.12l-2.85,0z" fill="#FFD675" id="svg_883"/>
             </g>
            </g>
            <path d="m130.68,97.36c0.03,-0.01 7.51,-4.27 7.51,-4.27l1.05,-3.24l0,-9.34l-4.95,1.48l-1.12,0.34l-2.95,9.69l-0.4,1.3l-0.57,1.24l-1.29,2.75l0,0.05l2.72,0z" fill="#616161" id="svg_884" opacity="0.2"/>
            <path d="m131.74,97.36c0,0 0.01,-0.01 0.03,-0.02c0.02,-0.01 0.03,-0.02 0.06,-0.03c0.02,-0.01 0.04,-0.02 0.06,-0.03c0.02,-0.02 0.05,-0.03 0.08,-0.05c0.02,-0.01 0.05,-0.03 0.08,-0.05c0.05,-0.02 0.1,-0.05 0.15,-0.08c0.1,-0.06 0.22,-0.12 0.35,-0.2c0,0 0,0 0,0c0.1,-0.05 0.2,-0.11 0.31,-0.17c0.04,-0.03 0.08,-0.04 0.11,-0.07c0.26,-0.14 0.54,-0.3 0.84,-0.47c0.1,-0.06 0.21,-0.12 0.32,-0.19c0.11,-0.06 0.22,-0.12 0.34,-0.19c0.11,-0.06 0.22,-0.12 0.34,-0.19c0.48,-0.28 0.98,-0.56 1.46,-0.84c0.15,-0.07 0.29,-0.16 0.43,-0.24c0.84,-0.48 1.59,-0.91 2.06,-1.17c0.04,-0.03 0.09,-0.05 0.13,-0.08c0.19,-0.1 0.31,-0.18 0.35,-0.2l0,-12.58l-0.88,0.26l-0.5,0.15l-3.51,1.05l-0.06,0.02c-0.16,0.39 -0.33,0.8 -0.51,1.23c-1.18,2.85 -2.63,6.45 -3.56,8.8c-0.58,1.46 -0.97,2.44 -0.97,2.44l0,0.1l-0.26,2.8l2.75,0z" fill="#EBEBEB" id="svg_885"/>
           </g>
           <g id="svg_886">
            <g id="svg_887">
             <path d="m127.96,97.31l0,0.05l-2.72,0c-0.01,0 -0.56,-0.31 -1.36,-0.77c-0.03,-0.01 -0.05,-0.03 -0.08,-0.04c-0.19,-0.11 -0.39,-0.23 -0.6,-0.35c-0.71,-0.4 -1.54,-0.87 -2.32,-1.32c-0.02,-0.01 -0.04,-0.02 -0.07,-0.04c-1.63,-0.93 -3.08,-1.76 -3.08,-1.76l-1.15,-3.79l0,-1.69l4.66,-1.69l0.03,-0.01l0.03,-0.01l0.99,-0.3l1.41,-0.42l0.01,0l2.35,8.05l0.03,0.09l0.1,0.22l0.07,0.15l0.12,0.25l0.08,0.17l0.04,0.1l0.06,0.12l0.05,0.11l0.06,0.12l1.08,2.32l0.18,0.39l0.03,0.05z" fill="#616161" id="svg_888" opacity="0.2"/>
             <path d="m126.92,97.36l-2.74,0c0,0 -0.02,-0.01 -0.05,-0.03c-0.02,-0.01 -0.05,-0.03 -0.09,-0.05c-0.01,-0.01 -0.04,-0.02 -0.05,-0.02c-0.02,-0.02 -0.05,-0.03 -0.07,-0.05c-0.03,-0.01 -0.07,-0.03 -0.1,-0.05c-0.02,-0.01 -0.03,-0.02 -0.05,-0.03c0,0 0,0 0,0c-0.06,-0.04 -0.13,-0.07 -0.19,-0.11c-0.1,-0.05 -0.21,-0.12 -0.34,-0.19c-0.04,-0.02 -0.09,-0.05 -0.14,-0.08c-0.03,-0.02 -0.07,-0.04 -0.1,-0.06l-0.01,0c-0.04,-0.03 -0.09,-0.05 -0.13,-0.07c-0.07,-0.05 -0.15,-0.09 -0.21,-0.13c-0.03,-0.01 -0.05,-0.03 -0.08,-0.04c-0.1,-0.05 -0.2,-0.11 -0.3,-0.17c-0.52,-0.3 -1.09,-0.63 -1.68,-0.96c-0.25,-0.14 -0.49,-0.28 -0.73,-0.42c-0.08,-0.04 -0.14,-0.08 -0.21,-0.12c-0.23,-0.13 -0.46,-0.26 -0.67,-0.38c-0.04,-0.02 -0.07,-0.04 -0.11,-0.06c-0.01,0 -0.03,-0.01 -0.04,-0.02l-0.01,0c-0.08,-0.05 -0.17,-0.1 -0.26,-0.16c-0.16,-0.09 -0.31,-0.17 -0.45,-0.25c-0.09,-0.05 -0.18,-0.11 -0.27,-0.16c-0.09,-0.05 -0.17,-0.1 -0.26,-0.14c-0.11,-0.07 -0.22,-0.13 -0.32,-0.19c-0.06,-0.03 -0.11,-0.06 -0.15,-0.09c-0.28,-0.15 -0.44,-0.25 -0.44,-0.25l-0.09,-0.29l0,-5.48l4.66,-1.4l0.03,-0.01l0.03,-0.01l0.99,-0.3c0.84,1.59 2.79,5.6 3.78,7.63c0.05,0.1 0.09,0.2 0.14,0.3c0.02,0.04 0.04,0.09 0.07,0.13c0.04,0.09 0.08,0.18 0.12,0.25c0,0.01 0,0.01 0,0.01c0.03,0.06 0.06,0.12 0.09,0.18c0.01,0.04 0.03,0.07 0.05,0.11c0.02,0.04 0.04,0.08 0.05,0.1c0.03,0.06 0.05,0.1 0.06,0.13c0.01,0.02 0.01,0.03 0.01,0.03l0.01,0.09l0.21,2.32l0.04,0.49z" fill="#EBEBEB" id="svg_889"/>
            </g>
           </g>
          </g>
          <g id="svg_890">
           <polygon fill="#EBBE9F" id="svg_891" points="123.596,99.211 123.673,100.233 123.675,100.271 123.909,103.397 125.07,103.985            127.313,105.119 127.934,104.786 128.553,105.119 130.796,103.985 131.96,103.397 132.191,100.271 132.195,100.233            132.271,99.211 131.949,96.275 127.938,93.311 127.938,93.303 127.938,93.303 127.934,93.307 127.928,93.303            127.928,93.303 127.928,93.311 123.913,96.286          "/>
           <path d="m127.93,97.36l-1.38,0.05l1.03,0.65c0,0 0.17,0 0.35,0l0,0c0,0 0,0 0,0c0.01,0 0.01,0 0.01,0l0,0c0.18,0 0.34,0 0.34,0l1.03,-0.65l-1.37,-0.05l0,0l-0.01,0l0,0l0,0z" fill="#EBBE9F" id="svg_892"/>
           <polygon fill="#616161" id="svg_893" opacity="0.2" points="127.098,99.328 127.66,101.285 127.928,101.285 127.938,101.285            128.207,101.285 128.769,99.328 128.207,98.725 127.938,98.715 127.938,98.714 127.934,98.715 127.928,98.714            127.928,98.715 127.66,98.725          "/>
           <g id="svg_894">
            <polygon fill="#9C9C9C" id="svg_895" points="127.34,101.809 125.571,102.031 125.534,102.037 125.513,102.025 124.672,101.579             125.59,101.836 125.534,101.831 127.248,101.349           "/>
            <path d="m126.72,101.07c0.03,-0.06 0.05,-0.13 0.05,-0.21c0,-0.27 -0.23,-0.5 -0.5,-0.5c-0.28,0 -0.5,0.23 -0.5,0.5c0,0.08 0.01,0.15 0.04,0.21l0.91,0z" fill="#333333" id="svg_896"/>
            <polygon fill="#9C9C9C" id="svg_897" points="128.529,101.809 130.295,102.031 130.333,102.037 130.354,102.025             131.195,101.579 130.277,101.836 130.335,101.831 128.62,101.349           "/>
            <path d="m129.15,101.07c-0.03,-0.06 -0.05,-0.13 -0.05,-0.21c0,-0.27 0.22,-0.5 0.5,-0.5c0.28,0 0.5,0.23 0.5,0.5c0,0.08 -0.02,0.15 -0.05,0.21l-0.9,0z" fill="#333333" id="svg_898"/>
            <path d="m123.67,100.23c0.03,-0.02 0.05,-0.03 0.05,-0.03l0.81,2.89l0.54,0.9l-1.16,-0.59l-0.24,-3.13l0,-0.04z" fill="#9C9C9C" id="svg_899"/>
            <path d="m132.19,100.23c-0.02,-0.02 -0.04,-0.03 -0.04,-0.03l-0.82,2.89l-0.53,0.9l1.16,-0.59l0.23,-3.13l0,-0.04z" fill="#9C9C9C" id="svg_900"/>
           </g>
           <path d="m123.83,104.51l0,-1.19c1.04,-0.28 2.2,-0.4 3.31,-0.43c0.74,-0.03 1.46,-0.01 2.11,0.03c0.33,0.02 0.63,0.04 0.91,0.07c0.34,0.03 0.64,0.06 0.91,0.09c0.62,0.08 1.01,0.14 1.01,0.14l0,1.14c0,0 -4.1,2.19 -4.13,2.19c0,-0.01 -0.51,-0.27 -1.17,-0.59c-0.21,-0.11 -0.44,-0.22 -0.67,-0.33c-0.22,-0.11 -0.44,-0.22 -0.65,-0.32c-0.61,-0.3 -1.17,-0.57 -1.45,-0.71c-0.11,-0.05 -0.18,-0.09 -0.18,-0.09z" fill="#FFD675" id="svg_901"/>
           <g id="svg_902">
            <path d="m126.11,105.63l4.05,-2.65c0.34,0.03 0.64,0.07 0.91,0.1l-4.29,2.88c-0.21,-0.11 -0.44,-0.22 -0.67,-0.33z" fill="#FFFFFF" id="svg_903" opacity="0.2"/>
            <path d="m124.01,104.6l3.13,-1.72c0.74,-0.02 1.46,0 2.11,0.04l-3.79,2.39c-0.61,-0.3 -1.17,-0.57 -1.45,-0.71z" fill="#FFFFFF" id="svg_904" opacity="0.2"/>
           </g>
          </g>
         </g>
         <g id="svg_905">
          <polygon fill="#333333" id="svg_906" points="136.055,89.101 136.194,88.138 135.717,88.986         "/>
          <polygon fill="#333333" id="svg_907" points="134.161,89.101 134.296,88.138 133.822,88.986         "/>
          <polygon fill="#333333" id="svg_908" points="132.265,89.101 132.403,88.138 131.928,88.986         "/>
          <polygon fill="#333333" id="svg_909" points="138.424,85.997 138.561,85.035 138.087,85.884         "/>
          <polygon fill="#333333" id="svg_910" points="136.53,85.997 136.665,85.035 136.194,85.884         "/>
          <polygon fill="#333333" id="svg_911" points="134.635,85.997 134.772,85.035 134.296,85.884         "/>
          <polygon fill="#333333" id="svg_912" points="137.847,82.869 137.981,81.908 137.507,82.755         "/>
          <polygon fill="#333333" id="svg_913" points="135.95,82.869 136.086,81.908 135.612,82.755         "/>
          <path d="m133.92,82.94c0.09,-0.21 0.18,-0.42 0.26,-0.61l0.03,-0.01l-0.1,0.69l-0.19,-0.07z" fill="#333333" id="svg_914"/>
          <polygon fill="#333333" id="svg_915" points="132.74,94.511 132.877,93.547 132.403,94.395         "/>
          <polygon fill="#333333" id="svg_916" points="134.635,94.897 134.772,93.937 134.296,94.783         "/>
          <path d="m136.4,94.55l0.27,-0.47l-0.05,0.35c-0.07,0.04 -0.14,0.08 -0.22,0.12z" fill="#333333" id="svg_917"/>
          <polygon fill="#333333" id="svg_918" points="137.987,80.92 138.235,80.848 138.212,80.997         "/>
          <polygon fill="#333333" id="svg_919" points="138.377,92.228 138.512,91.266 138.038,92.115         "/>
          <polygon fill="#333333" id="svg_920" points="136.269,92.228 136.406,91.266 135.931,92.115         "/>
          <polygon fill="#333333" id="svg_921" points="134.374,92.228 134.512,91.266 134.037,92.115         "/>
          <polygon fill="#333333" id="svg_922" points="132.479,92.228 132.616,91.266 132.142,92.115         "/>
          <polygon fill="#333333" id="svg_923" points="130.538,94.009 130.673,93.046 130.199,93.895         "/>
          <polygon fill="#333333" id="svg_924" points="138.165,89.101 138.299,88.138 137.826,88.986         "/>
         </g>
         <g id="svg_925">
          <polygon fill="#333333" id="svg_926" points="119.404,89.101 119.267,88.138 119.741,88.986         "/>
          <polygon fill="#333333" id="svg_927" points="121.299,89.101 121.162,88.138 121.636,88.986         "/>
          <polygon fill="#333333" id="svg_928" points="123.195,89.101 123.058,88.138 123.531,88.986         "/>
          <polygon fill="#333333" id="svg_929" points="122.718,94.511 122.583,93.547 123.058,94.395         "/>
          <polygon fill="#333333" id="svg_930" points="120.824,94.897 120.687,93.937 121.162,94.783         "/>
          <path d="m119.06,94.55l-0.27,-0.47l0.05,0.35c0.07,0.04 0.14,0.08 0.22,0.12z" fill="#333333" id="svg_931"/>
          <polygon fill="#333333" id="svg_932" points="117.081,92.228 116.944,91.266 117.421,92.115         "/>
          <polygon fill="#333333" id="svg_933" points="119.189,92.228 119.053,91.266 119.528,92.115         "/>
          <polygon fill="#333333" id="svg_934" points="121.085,92.228 120.948,91.266 121.423,92.115         "/>
          <polygon fill="#333333" id="svg_935" points="122.979,92.228 122.842,91.266 123.317,92.115         "/>
          <polygon fill="#333333" id="svg_936" points="124.92,94.009 124.785,93.046 125.26,93.895         "/>
          <polygon fill="#333333" id="svg_937" points="117.296,89.101 117.159,88.138 117.634,88.986         "/>
         </g>
        </g>
       </g>
       <path d="m122.99,96.69l0,0l0.01,0c0.14,-0.87 1.85,-2.22 3.21,-3.17c0.93,-0.65 1.69,-1.11 1.69,-1.11s4.99,2.57 5.01,4.29c-0.02,0.01 -0.03,0.02 -0.05,0.03c-0.11,0.06 -0.21,0.12 -0.31,0.17c0,0 0,0 0,0c-0.13,0.08 -0.25,0.15 -0.35,0.2c-0.05,0.04 -0.1,0.06 -0.15,0.09c-0.03,0.01 -0.06,0.03 -0.09,0.04c-0.02,0.02 -0.05,0.03 -0.07,0.05c-0.02,0.01 -0.04,0.02 -0.06,0.04c-0.03,0.01 -0.04,0.02 -0.06,0.02c-0.02,0.02 -0.03,0.02 -0.03,0.02l-7.56,0c0,0 -0.02,-0.01 -0.05,-0.03c-0.02,-0.01 -0.05,-0.02 -0.09,-0.05c-0.01,0 -0.04,-0.01 -0.05,-0.02c-0.02,-0.02 -0.05,-0.03 -0.07,-0.04c-0.09,-0.06 -0.21,-0.12 -0.34,-0.2c-0.11,-0.05 -0.22,-0.12 -0.33,-0.18c-0.05,-0.03 -0.1,-0.06 -0.15,-0.09c-0.03,-0.02 -0.07,-0.04 -0.11,-0.06z" fill="#616161" id="svg_938" opacity="0.2"/>
       <path d="m123.74,96.77c0.14,-1.45 4.29,-3.57 4.29,-3.57s4.18,2.3 4.15,3.75c-0.02,1 -1.19,1.78 -2.6,1.76c-0.78,-0.02 -1.66,-0.54 -1.66,-0.54s-0.85,0.48 -1.66,0.46c-1.41,-0.04 -2.61,-0.87 -2.52,-1.86z" fill="#9C9C9C" id="svg_939"/>
       <g id="svg_940">
        <polygon fill="#EBBE9F" id="svg_941" points="128.814,98.063 127.91,97.854 127.01,98.063 126.781,96.871 129.04,96.879       "/>
        <rect fill="#616161" height="0.35" id="svg_942" opacity="0.2" width="1.79" x="126.97" y="97.27"/>
       </g>
       <g id="svg_943">
        <path d="m125.92,89.77c-0.04,-1 2.12,-2.55 2.12,-2.55s2.1,1.59 1.95,2.71c-0.09,0.69 -0.71,1.21 -1.37,1.19c-0.36,-0.01 -0.75,-0.32 -0.75,-0.32s-0.38,0.3 -0.73,0.29c-0.59,-0.02 -1.2,-0.69 -1.22,-1.32z" fill="#616161" id="svg_944" opacity="0.2"/>
        <path d="m126.08,89.97c0.07,-0.91 1.92,-2.25 1.92,-2.25s1.84,1.42 1.82,2.33c-0.01,0.62 -0.53,1.12 -1.15,1.11c-0.35,-0.01 -0.74,-0.33 -0.74,-0.33s-0.38,0.31 -0.73,0.29c-0.63,-0.01 -1.16,-0.53 -1.12,-1.15z" fill="#FFD675" id="svg_945"/>
        <path d="m127.99,88.38c0.68,0.59 1.32,1.32 1.32,1.66c-0.01,0.34 -0.29,0.61 -0.64,0.61c-0.1,-0.01 -0.31,-0.13 -0.41,-0.21l-0.33,-0.28l-0.33,0.27c-0.09,0.08 -0.28,0.19 -0.39,0.18c-0.18,0 -0.35,-0.08 -0.48,-0.21c-0.06,-0.08 -0.15,-0.21 -0.13,-0.39c0.02,-0.35 0.69,-1.07 1.39,-1.63z" fill="#616161" id="svg_946" opacity="0.2"/>
       </g>
       <path d="m127.28,105.5c0.02,-0.33 0.69,-0.81 0.69,-0.81s0.67,0.51 0.66,0.84c-0.01,0.22 -0.19,0.4 -0.42,0.39c-0.13,0 -0.26,-0.11 -0.26,-0.11s-0.14,0.11 -0.27,0.1c-0.22,0 -0.41,-0.19 -0.4,-0.41z" fill="#D66142" id="svg_947"/>
      </g>
      <path d="m123.7,85.17l-1.41,0.42l-0.99,0.3l-0.03,0.01l-0.03,0.01l-4.66,1.4l0,0.29l0,1.69l0,3.51l0.09,0.29c0,0 0.16,0.09 0.44,0.24c0.04,0.03 0.09,0.06 0.15,0.09c0.1,0.06 0.21,0.12 0.32,0.19c0.09,0.04 0.17,0.09 0.26,0.14c0.09,0.06 0.18,0.11 0.27,0.16c0.14,0.08 0.29,0.16 0.45,0.25c0.09,0.06 0.17,0.11 0.27,0.16l0.01,0.11c0.07,0.04 0.14,0.08 0.22,0.12l-0.08,-0.15c0.21,0.13 0.44,0.25 0.67,0.38c0.07,0.04 0.14,0.08 0.21,0.13c0.24,0.13 0.49,0.27 0.73,0.41c0.58,0.33 1.16,0.66 1.68,0.96c0.1,0.06 0.21,0.12 0.3,0.17c0.03,0.01 0.05,0.03 0.08,0.04c0.07,0.05 0.14,0.08 0.21,0.13c0.04,0.02 0.09,0.04 0.13,0.07l0,0c0.04,0.02 0.08,0.04 0.12,0.06c0.04,0.03 0.09,0.06 0.14,0.09c0.12,0.06 0.23,0.13 0.33,0.18c0.06,0.04 0.13,0.08 0.19,0.11c0,0.01 0.01,0.03 0.01,0.04c0,0.01 0.01,0.01 0.01,0.01c0,0.03 0.01,0.06 0.02,0.09l-0.21,1.94l0.08,1.03l0,0.03l0.23,3.03l0,0.01c-0.03,0 -0.05,0.01 -0.07,0.01l0,1.19c0,0 0.06,0.04 0.18,0.09c0.27,0.14 0.83,0.41 1.44,0.71c0.21,0.11 0.44,0.21 0.66,0.32c0.22,0.11 0.45,0.22 0.66,0.33c0.67,0.32 1.18,0.58 1.18,0.59c0,0 0.02,-0.01 0.05,-0.03l0,-0.67l0,-0.72l0,-0.3l0,-0.11l0,-0.33l0,-0.69l0,-0.82l0,-1.59l0,-2.57l0,-0.5l0,-0.15l0,-0.19l0,-0.26l0,-0.25l0,-0.01l0,-0.09l0,-0.07l0,-0.32l0,-2.45l0,-0.23l0,-0.83l0,-0.16l0,-0.75l0,-0.97l0,-0.45l0,-0.14l0,-0.01l0,-0.67l0,-1.83l0,-0.66l0,-0.49l0,-3.36l-4.3,1.29l0,0l-0.01,0z" fill="#616161" id="svg_948" opacity="0.2"/>
     </g>
    </g>
   </g>
   <g id="svg_949">
    <path d="m116.53,66.37c-0.06,1.28 -2.64,3.22 -2.64,3.22s-2.64,-1.96 -2.64,-3.24c0,-0.88 0.72,-1.59 1.61,-1.59c0.49,0 1.05,0.44 1.05,0.44s0.52,-0.44 1.03,-0.44c0.88,0.01 1.64,0.72 1.59,1.61z" fill="#D66142" id="svg_950"/>
    <path d="m114.94,64.76c-0.51,0 -1.03,0.44 -1.03,0.44s-0.01,0 -0.02,-0.01l0,4.4c0,0 0,0.01 0,0.01s2.58,-1.95 2.64,-3.23c0.05,-0.89 -0.71,-1.6 -1.59,-1.61z" fill="#616161" id="svg_951" opacity="0.2"/>
   </g>
   <g id="svg_952">
    <path d="m139.49,99.64c0.06,-1.28 2.64,-3.23 2.64,-3.23s2.64,1.96 2.64,3.25c0,0.88 -0.72,1.59 -1.61,1.59c-0.49,0 -1.04,-0.45 -1.04,-0.45s-0.53,0.45 -1.04,0.44c-0.88,-0.01 -1.64,-0.72 -1.59,-1.6z" fill="#D66142" id="svg_953"/>
    <path d="m141.08,101.24c0.51,0.01 1.03,-0.44 1.03,-0.44s0.01,0.01 0.02,0.02l0,-4.41c0,0 -0.01,0 -0.01,0s-2.57,1.95 -2.63,3.23c-0.05,0.88 0.71,1.59 1.59,1.6z" fill="#616161" id="svg_954" opacity="0.2"/>
   </g>
  </g>
 </g>

</svg>