<?xml version="1.0"?>
<svg width="40" height="56" xmlns="http://www.w3.org/2000/svg" xmlns:svg="http://www.w3.org/2000/svg" enable-background="new 0 0 450 450" version="1.1" xml:space="preserve">
 <g class="layer">
  <title>Layer 1</title>
  <g id="svg_955" transform="translate(0.00507898, 0.0193445) scale(1.00306, 1.00437) translate(-0.00507898, -0.0193445) translate(-18.8794, -0.121803) matrix(1, 0, 0, 1, -88.9737, -120.827)">
   <g id="svg_956">
    <g id="svg_957">
     <g id="svg_958">
      <path d="m112.36,176.53c-2.34,0.01 -4.25,-1.86 -4.26,-4.16l-0.12,-47.08c-0.01,-2.31 1.9,-4.2 4.25,-4.19l31.11,0.06c2.34,0 4.24,1.88 4.24,4.2l0,46.97c0,2.29 -1.89,4.17 -4.23,4.17l-30.99,0.03z" fill="#C9C9C9" id="svg_959"/>
      <path d="m112.38,176.41c-2.31,0 -4.19,-1.88 -4.19,-4.18l0,-46.96c0,-2.3 1.88,-4.18 4.19,-4.18l30.66,0c2.31,0 4.19,1.88 4.19,4.18l0,46.96c0,2.3 -1.88,4.18 -4.19,4.18l-30.66,0z" fill="#FFFFFF" id="svg_960"/>
      <g id="svg_961">
       <path d="m143.39,175.54l-30.65,0c-1.79,0 -3.25,-1.45 -3.25,-3.24l0,-46.96c0,-1.71 1.36,-3.11 2.09,-3.38l0.11,-0.04l30.82,0c3.05,0.24 4.13,1.93 4.13,3.42l0,46.96c0,1.79 -1.45,3.24 -3.25,3.24zm-31.44,-52.33c-0.33,0.2 -1.18,1.07 -1.18,2.13l0,46.96c0,1.08 0.89,1.95 1.97,1.95l30.65,0c1.09,0 1.97,-0.87 1.97,-1.95l0,-46.96c0,-1.19 -1.09,-1.98 -2.93,-2.13l-30.48,0z" fill="#D66142" id="svg_962"/>
      </g>
      <g id="svg_963">
       <path d="m115.51,126.91c0,0.21 -0.05,0.45 -0.15,0.7c-0.11,0.26 -0.23,0.46 -0.37,0.61c-0.05,0.05 -0.15,0.14 -0.28,0.25c-0.19,0.15 -0.4,0.3 -0.61,0.42c-0.06,0.04 -0.1,0.06 -0.13,0.08c-0.09,0.06 -0.14,0.1 -0.14,0.13c0,0.05 0.14,0.13 0.43,0.25c0.26,0.1 0.46,0.17 0.58,0.2c0.02,0 0.05,0 0.09,0l0.11,0c0.03,0 0.07,0 0.1,0c0.03,0 0.07,0.01 0.11,0.02c-0.03,0.02 -0.08,0.05 -0.15,0.09c-0.07,0.03 -0.14,0.07 -0.21,0.1c-0.1,0.09 -0.18,0.15 -0.24,0.2c-0.05,0.05 -0.1,0.07 -0.13,0.07c-0.09,0 -0.24,-0.1 -0.46,-0.31c-0.21,-0.2 -0.42,-0.31 -0.61,-0.31c-0.12,0 -0.24,0.05 -0.36,0.14c-0.11,0.09 -0.18,0.14 -0.21,0.14c-0.04,0 -0.07,-0.04 -0.07,-0.1c0,-0.05 0.07,-0.12 0.21,-0.23c0.09,-0.06 0.18,-0.13 0.26,-0.2c-0.22,-0.13 -0.43,-0.26 -0.64,-0.4c-0.2,-0.14 -0.38,-0.32 -0.54,-0.52c-0.14,-0.19 -0.24,-0.38 -0.32,-0.58c-0.07,-0.21 -0.1,-0.42 -0.1,-0.64c0,-0.33 0.06,-0.6 0.19,-0.81c0.05,-0.07 0.2,-0.24 0.46,-0.51c0.08,-0.08 0.29,-0.25 0.61,-0.52c0.41,-0.33 0.66,-0.5 0.74,-0.5c0.07,0 0.21,0.08 0.41,0.22c0.24,0.17 0.52,0.41 0.84,0.74c0.2,0.2 0.35,0.4 0.44,0.6c0.1,0.2 0.14,0.42 0.14,0.67zm-1.02,0.57c0,-0.18 -0.04,-0.39 -0.12,-0.61c-0.08,-0.23 -0.19,-0.44 -0.33,-0.64c-0.11,-0.15 -0.32,-0.34 -0.61,-0.56c-0.1,-0.08 -0.23,-0.17 -0.41,-0.28c-0.07,0 -0.16,0.12 -0.26,0.36c-0.11,0.24 -0.16,0.4 -0.16,0.47c0,0.33 0.07,0.64 0.21,0.93c0.12,0.23 0.3,0.48 0.55,0.74c0.1,0.1 0.35,0.33 0.74,0.69c0.14,-0.13 0.24,-0.32 0.31,-0.58c0.05,-0.19 0.08,-0.37 0.08,-0.52z" fill="#333333" id="svg_964"/>
      </g>
      <g id="svg_965">
       <path d="m140.78,171.24c0,-0.21 0.05,-0.44 0.15,-0.7c0.11,-0.25 0.23,-0.45 0.37,-0.6c0.05,-0.06 0.15,-0.14 0.28,-0.25c0.19,-0.16 0.4,-0.3 0.61,-0.43c0.06,-0.04 0.1,-0.06 0.13,-0.08c0.09,-0.06 0.14,-0.1 0.14,-0.12c0,-0.05 -0.15,-0.14 -0.43,-0.25c-0.26,-0.11 -0.46,-0.17 -0.58,-0.2c-0.02,-0.01 -0.05,-0.01 -0.09,-0.01l-0.11,0c-0.03,0 -0.06,0 -0.1,0c-0.03,0 -0.07,-0.01 -0.11,-0.02c0.03,-0.02 0.08,-0.05 0.15,-0.09c0.07,-0.03 0.14,-0.06 0.21,-0.1c0.1,-0.09 0.18,-0.15 0.24,-0.2c0.05,-0.05 0.1,-0.07 0.13,-0.07c0.09,0 0.25,0.1 0.46,0.31c0.21,0.21 0.42,0.31 0.61,0.31c0.12,0 0.24,-0.05 0.36,-0.14c0.11,-0.09 0.18,-0.13 0.21,-0.13c0.05,0 0.07,0.03 0.07,0.09c0,0.05 -0.07,0.12 -0.21,0.23c-0.09,0.07 -0.18,0.13 -0.26,0.2c0.22,0.13 0.43,0.26 0.64,0.41c0.2,0.14 0.38,0.31 0.54,0.52c0.14,0.18 0.24,0.37 0.32,0.58c0.07,0.2 0.11,0.41 0.11,0.63c0,0.33 -0.07,0.6 -0.2,0.81c-0.05,0.08 -0.2,0.25 -0.46,0.51c-0.08,0.08 -0.29,0.25 -0.61,0.52c-0.41,0.33 -0.66,0.5 -0.74,0.5c-0.07,0 -0.21,-0.07 -0.41,-0.21c-0.24,-0.17 -0.52,-0.42 -0.84,-0.74c-0.2,-0.21 -0.35,-0.41 -0.44,-0.6c-0.1,-0.2 -0.14,-0.43 -0.14,-0.68zm1.02,-0.57c0,0.19 0.04,0.39 0.12,0.62c0.08,0.22 0.19,0.43 0.33,0.63c0.11,0.16 0.32,0.35 0.61,0.57c0.1,0.07 0.24,0.16 0.41,0.28c0.07,0 0.16,-0.13 0.26,-0.37c0.11,-0.24 0.16,-0.39 0.16,-0.47c0,-0.33 -0.07,-0.64 -0.22,-0.92c-0.11,-0.24 -0.29,-0.48 -0.54,-0.74c-0.1,-0.11 -0.35,-0.33 -0.74,-0.69c-0.14,0.13 -0.24,0.32 -0.31,0.57c-0.05,0.2 -0.08,0.37 -0.08,0.52z" fill="#333333" id="svg_966"/>
      </g>
     </g>
     <g id="svg_967">
      <g id="svg_968">
       <g id="svg_969">
        <g id="svg_970">
         <g id="svg_971">
          <polygon fill="#C9C9C9" id="svg_972" points="134.032,136.786 133.973,137.622 133.935,138.131 133.779,140.314 133.741,140.825           133.693,141.523 133.693,141.526 133.646,142.169 133.147,142.18 132.913,142.183 132.425,142.195 132.148,142.201           131.812,142.208 131.216,142.219 130.556,142.234 127.45,142.298 127.444,142.298 124.339,142.234 123.679,142.219           123.083,142.208 122.747,142.201 122.47,142.195 122.225,142.189 121.981,142.183 121.745,142.18 121.249,142.169           121.202,141.526 121.202,141.523 121.153,140.825 121.114,140.314 120.96,138.131 120.921,137.622 120.863,136.786                   "/>
          <path d="m133.43,136.79l-3.89,2.8l-0.02,0c-0.33,0.43 -0.73,0.75 -1.16,0.94c-0.27,0.11 -0.56,0.17 -0.85,0.17c-0.02,0 -0.04,0 -0.06,0c0,0 0,0 -0.01,0l0,-3.91l5.99,0z" fill="#616161" id="svg_973" opacity="0.2"/>
          <g id="svg_974">
           <path d="m136.14,145.38l-2.5,0.74l-0.24,0.07l-0.07,0.02c-0.19,-0.33 -0.35,-0.57 -0.42,-0.67c-0.02,-0.04 -0.04,-0.06 -0.05,-0.06c0,0 0,0.01 -0.01,0.01c-0.01,0.02 -0.01,0.03 -0.02,0.04c-0.2,0.34 -0.31,0.65 -0.38,0.95l-0.67,0.2l-4.33,1.29l-2.7,0.8l-0.91,0.28c-0.03,-0.11 -0.07,-0.23 -0.11,-0.34c-1.56,-0.68 -0.85,-1.75 -1.61,-3.09c-0.01,-0.02 -0.02,-0.04 -0.04,-0.05c-0.01,-0.03 -0.03,-0.06 -0.05,-0.09c-0.09,0.11 -1.86,2.8 -2.16,4.75l-0.22,0.07l-1.75,0.52l-0.05,0c-0.03,-3.85 1.15,-6.41 2.22,-7.96c0.08,-0.11 0.15,-0.21 0.23,-0.31c0.07,-0.09 0.14,-0.18 0.21,-0.26l0.01,-0.01c0,0 0,-0.01 0,-0.01c0.05,-0.06 0.1,-0.13 0.16,-0.18c0.05,-0.07 0.1,-0.13 0.15,-0.18c0.13,-0.15 0.26,-0.28 0.37,-0.39l0,0l0,0c0.03,-0.03 0.06,-0.05 0.09,-0.08c0.03,-0.03 0.05,-0.05 0.08,-0.07c0.02,-0.03 0.05,-0.05 0.07,-0.07c0.05,-0.05 0.09,-0.08 0.14,-0.12c0.17,-0.15 0.27,-0.22 0.27,-0.22l0.41,0.1l0.07,0.02l0.16,0.04l0.04,0.01l0.57,-0.03l0.87,-0.03l0.93,-0.04l2.55,-0.1l0,0l2.6,0.11l0.88,0.03l0.87,0.03l0.56,0.03l0.05,-0.01l0.16,-0.04l0.07,-0.02l0.4,-0.1c0,0 0.11,0.07 0.28,0.22c0.04,0.03 0.08,0.07 0.13,0.12c0.03,0.02 0.05,0.04 0.08,0.06c0.02,0.03 0.05,0.05 0.07,0.08c0.03,0.03 0.06,0.05 0.09,0.08l0,0c0.03,0.02 0.05,0.05 0.09,0.08c0.03,0.03 0.06,0.06 0.09,0.1c0.06,0.06 0.13,0.13 0.19,0.21c0.05,0.04 0.09,0.09 0.13,0.14c0.01,0.02 0.02,0.02 0.03,0.04c0.05,0.05 0.1,0.12 0.16,0.18c0,0 0,0.01 0,0.01l0,0c0.07,0.08 0.14,0.18 0.22,0.27c0.07,0.1 0.14,0.2 0.22,0.31c0.45,0.65 0.93,1.49 1.32,2.52z" fill="#FDD8AB" id="svg_975"/>
           <path d="m127.45,143.75l0.57,0l-0.26,2.06c-0.1,0 -0.21,0.01 -0.31,0.01l0,-2.07z" fill="#616161" id="svg_976" opacity="0.2"/>
          </g>
          <g id="svg_977">
           <g id="svg_978">
            <path d="m127.45,136.79l-5.99,0l3.9,2.8l0.02,0c0,0 1.24,1.11 2.01,1.11c0.02,0 0.04,0 0.06,0l0,-3.91z" fill="#616161" id="svg_979" opacity="0.2"/>
            <path d="m127.45,143.75l-0.57,0l0.25,2.06c0.11,0 0.21,0.01 0.32,0.01l0,-2.07z" fill="#616161" id="svg_980" opacity="0.2"/>
           </g>
           <path d="m125.36,145.48c-2.89,-0.64 -4.46,-1.62 -5.28,-2.62c0.6,-0.86 1.17,-1.4 1.5,-1.68l3.78,4.3z" fill="#616161" id="svg_981" opacity="0.2"/>
           <path d="m132.69,141.91c0,0.73 -0.28,1.42 -0.76,2c-0.39,0.49 -0.94,0.92 -1.58,1.24c-0.01,0 -0.01,0 -0.02,0.01c-0.25,0.12 -0.52,0.23 -0.8,0.32c-0.55,0.18 -1.14,0.29 -1.77,0.33c-0.03,0 -0.07,0 -0.1,0c-0.07,0.01 -0.14,0.01 -0.21,0.01c0,0 0,0 0,0c-0.07,0 -0.15,0 -0.21,-0.01c-0.04,0 -0.07,0 -0.11,0c-0.62,-0.04 -1.22,-0.15 -1.76,-0.33c-0.28,-0.09 -0.55,-0.2 -0.8,-0.32c-0.01,-0.01 -0.01,-0.01 -0.02,-0.01c-0.64,-0.32 -1.19,-0.75 -1.58,-1.23c-0.49,-0.59 -0.76,-1.27 -0.76,-2.01c0,-0.53 -0.12,-0.58 0.15,-1.05l1.54,-0.02l2.63,-0.03l0,-0.55c0.28,0.12 0.56,0.19 0.86,0.19c0.02,0 0.04,-0.01 0.06,-0.01c0,0 0,0 0,0c0.02,0 0.04,0.01 0.06,0.01c0.29,0 0.58,-0.07 0.85,-0.19l0,0.55l2.63,0.03l1.54,0.02c0.27,0.47 0.16,0.52 0.16,1.05z" fill="#FDD8AB" id="svg_982"/>
           <path d="m132.53,140.86l-1.54,-0.02l-0.73,2.32c-0.18,-0.03 -0.37,-0.05 -0.56,-0.06c-1.09,-0.01 -2.23,0.95 -2.23,0.95s-1.19,-0.96 -2.26,-0.96c-0.2,0 -0.4,0.02 -0.59,0.05l-0.73,-2.3l-1.53,0.02c-0.27,0.47 -0.16,0.52 -0.16,1.06c0,0.73 0.29,1.41 0.77,1.99c-0.01,0 -0.01,0 -0.01,0.01c0.03,0.04 0.07,0.07 0.11,0.11c0.05,0.06 0.11,0.13 0.17,0.19c0.07,0.07 0.15,0.14 0.23,0.21c0.05,0.04 0.1,0.08 0.15,0.13c0.1,0.08 0.21,0.15 0.32,0.23c0.04,0.02 0.07,0.05 0.11,0.08c0.16,0.1 0.32,0.19 0.49,0.28c0.01,0 0.01,0 0.02,0c0.25,0.12 0.52,0.24 0.8,0.32c0.55,0.18 1.14,0.3 1.77,0.33c0.03,0 0.07,0.01 0.1,0.01c0.07,0 0.14,0 0.21,0c0,0 0,0 0,0c0.08,0 0.15,0 0.21,0c0.04,0 0.07,-0.01 0.11,-0.01c0.62,-0.03 1.22,-0.15 1.76,-0.33c0.29,-0.08 0.55,-0.2 0.8,-0.32c0.01,0 0.02,0 0.02,0c0.17,-0.09 0.34,-0.18 0.5,-0.29c0.03,-0.01 0.05,-0.04 0.08,-0.06c0.12,-0.08 0.24,-0.16 0.35,-0.24c0.05,-0.05 0.1,-0.09 0.16,-0.14c0.07,-0.07 0.15,-0.13 0.22,-0.2c0.06,-0.07 0.12,-0.13 0.18,-0.2c0.03,-0.04 0.07,-0.07 0.1,-0.11c0,0 -0.01,0 -0.01,0c0.48,-0.59 0.76,-1.27 0.76,-2c0,-0.53 0.12,-0.58 -0.15,-1.05z" fill="#616161" id="svg_983" opacity="0.2"/>
           <path d="m128.36,139.9l0,0.36c-0.27,0.12 -0.56,0.19 -0.85,0.19c-0.02,0 -0.05,-0.01 -0.06,-0.01c-0.02,0 -0.04,0.01 -0.06,0.01c-0.3,0 -0.58,-0.07 -0.86,-0.19l0,-0.36c0,-0.08 0.02,-0.15 0.03,-0.21c0.01,-0.05 0.02,-0.1 0.05,-0.14c0.13,-0.32 0.44,-0.54 0.81,-0.54c0.01,0 0.02,0 0.03,0c0.01,0 0.01,0 0.02,0c0.34,0 0.63,0.19 0.78,0.47c0.03,0.06 0.07,0.13 0.08,0.21c0.02,0.06 0.03,0.13 0.03,0.21z" fill="#FDD8AB" id="svg_984"/>
          </g>
          <path d="m128.36,139.9l0,0.36c-0.27,0.12 -0.56,0.19 -0.85,0.19c-0.02,0 -0.05,-0.01 -0.06,-0.01c-0.02,0 -0.04,0.01 -0.06,0.01c-0.3,0 -0.58,-0.07 -0.86,-0.19l0,-0.36c0,-0.08 0.02,-0.15 0.03,-0.21c0.01,-0.05 0.02,-0.1 0.05,-0.14c0.34,0.17 0.65,0.3 0.78,0.3c0.01,0 0.04,0 0.05,0c0,0 0,0 0.01,0c0.02,0 0.04,0 0.06,0c0.11,0 0.41,-0.17 0.74,-0.37c0.03,0.06 0.07,0.13 0.08,0.2c0.02,0.07 0.03,0.14 0.03,0.22z" fill="#616161" id="svg_985" opacity="0.2"/>
          <path d="m134.82,142.86c-0.82,1 -2.4,1.98 -5.29,2.62l1.57,-1.78l0.09,-0.11l1.23,-1.39l0.26,-0.3l0.64,-0.72c0.04,0.04 0.08,0.08 0.13,0.12c0.02,0.02 0.05,0.05 0.07,0.07c0.03,0.02 0.06,0.05 0.09,0.07c0.02,0.03 0.05,0.05 0.08,0.08l0,0l0,0.01c0.03,0.02 0.06,0.05 0.09,0.08c0.03,0.03 0.06,0.06 0.09,0.09c0.06,0.07 0.13,0.14 0.19,0.21c0.05,0.05 0.09,0.09 0.13,0.15c0.01,0 0.02,0.02 0.03,0.02c0.05,0.06 0.1,0.13 0.16,0.19c0,0 0,0.01 0,0.01l0,0l0,0.01c0.07,0.08 0.14,0.17 0.21,0.26c0.08,0.1 0.15,0.2 0.23,0.31z" fill="#616161" id="svg_986" opacity="0.2"/>
          <path d="m135.19,139.87c0,0.18 -0.01,0.36 -0.04,0.55c-0.08,0.59 -0.31,1.23 -0.77,1.86l0,0.01c-0.43,0.6 -1.07,1.21 -1.99,1.8c-0.05,0.03 -0.11,0.07 -0.17,0.1c-0.53,0.33 -1.15,0.65 -1.87,0.96c-0.02,0.01 -0.03,0.01 -0.05,0.02c-0.01,0.01 -0.02,0.01 -0.03,0.02c-0.05,0.01 -0.09,0.03 -0.14,0.05c-0.12,0.05 -0.26,0.11 -0.4,0.16c-0.06,0.03 -0.13,0.05 -0.2,0.08l1.68,-3.26l0.58,-1.11l0.13,-0.26l2.11,-4.06c0,0 1.16,1.32 1.16,3.08z" fill="#EBEBEB" id="svg_987"/>
          <path d="m125.36,145.48c-1.07,-0.41 -1.96,-0.84 -2.69,-1.29c-0.06,-0.03 -0.11,-0.07 -0.17,-0.11c-1.87,-1.2 -2.6,-2.5 -2.76,-3.66c-0.03,-0.19 -0.04,-0.37 -0.04,-0.55c0.01,-1.76 1.16,-3.09 1.16,-3.09l4.5,8.7z" fill="#EBEBEB" id="svg_988"/>
          <g id="svg_989">
           <polygon fill="#333333" id="svg_990" points="121.579,141.956 122.122,142.679 121.877,141.808          "/>
           <polygon fill="#333333" id="svg_991" points="123.459,143.709 124.002,144.433 123.755,143.563          "/>
           <polygon fill="#333333" id="svg_992" points="120.59,137.642 121.133,138.365 120.888,137.495          "/>
           <polygon fill="#333333" id="svg_993" points="121.307,139.16 121.851,139.881 121.605,139.01          "/>
           <polygon fill="#333333" id="svg_994" points="122.024,140.675 122.568,141.398 122.321,140.528          "/>
           <polygon fill="#333333" id="svg_995" points="122.743,142.193 123.285,142.915 123.04,142.045          "/>
           <path d="m122.67,144.19c-0.06,-0.03 -0.11,-0.07 -0.17,-0.1l-0.31,-0.43l0.29,-0.15l0.19,0.68z" fill="#333333" id="svg_996"/>
           <polygon fill="#333333" id="svg_997" points="120.145,138.922 120.687,139.645 120.441,138.774          "/>
           <polygon fill="#333333" id="svg_998" points="120.863,140.439 121.405,141.161 121.16,140.292          "/>
           <path d="m119.98,140.73l-0.24,-0.31c-0.03,-0.19 -0.04,-0.37 -0.04,-0.55l0.03,-0.01l0.25,0.87z" fill="#333333" id="svg_999"/>
           <polygon fill="#333333" id="svg_1000" points="120.463,141.804 121.005,142.524 120.76,141.655          "/>
          </g>
          <g id="svg_1001">
           <polygon fill="#333333" id="svg_1002" points="133.316,141.956 132.772,142.679 133.018,141.808          "/>
           <polygon fill="#333333" id="svg_1003" points="131.436,143.709 130.895,144.433 131.138,143.563          "/>
           <polygon fill="#333333" id="svg_1004" points="134.305,137.642 133.762,138.365 134.008,137.495          "/>
           <polygon fill="#333333" id="svg_1005" points="133.588,139.16 133.044,139.881 133.29,139.01          "/>
           <polygon fill="#333333" id="svg_1006" points="132.871,140.675 132.326,141.398 132.574,140.528          "/>
           <polygon fill="#333333" id="svg_1007" points="132.153,142.193 131.61,142.915 131.855,142.045          "/>
           <path d="m132.22,144.19c0.06,-0.03 0.12,-0.07 0.17,-0.1l0.32,-0.43l-0.3,-0.15l-0.19,0.68z" fill="#333333" id="svg_1008"/>
           <polygon fill="#333333" id="svg_1009" points="134.751,138.922 134.209,139.645 134.454,138.774          "/>
           <polygon fill="#333333" id="svg_1010" points="134.035,140.439 133.49,141.161 133.735,140.292          "/>
           <path d="m135.19,139.87c0,0.18 -0.01,0.36 -0.04,0.55l-0.23,0.31l0.25,-0.87l0.02,0.01z" fill="#333333" id="svg_1011"/>
           <polygon fill="#333333" id="svg_1012" points="134.432,141.804 133.89,142.524 134.135,141.655          "/>
          </g>
         </g>
         <g id="svg_1013">
          <path d="m132.83,145.53c-0.2,0.34 -0.31,0.65 -0.38,0.95l-0.67,0.2l-4.33,1.29l-2.7,0.81l-0.91,0.27c-0.03,-0.11 -0.07,-0.22 -0.11,-0.34c-1.56,-0.68 -0.85,-1.74 -1.61,-3.09c-0.01,-0.02 -0.02,-0.04 -0.04,-0.05c0.26,-0.55 0.66,-1.02 1.16,-1.35c0.56,-0.4 1.24,-0.63 1.97,-0.63c1.07,0 2.27,0.96 2.27,0.96s1.13,-0.96 2.23,-0.94c0.71,0.01 1.39,0.23 1.95,0.6c0.5,0.34 0.91,0.79 1.17,1.32z" fill="#D66142" id="svg_1014"/>
          <path d="m134.86,130.37c-0.19,3.6 -7.41,9.08 -7.41,9.08s-7.43,-5.51 -7.43,-9.13c0,-2.47 2.03,-4.47 4.51,-4.47c1.39,0 2.95,1.25 2.95,1.25s1.47,-1.25 2.9,-1.23c2.49,0.03 4.62,2.02 4.48,4.5z" fill="#D66142" id="svg_1015"/>
          <g id="svg_1016">
           <path d="m124.75,148.78l-0.91,0.27c-0.03,-0.11 -0.07,-0.22 -0.11,-0.34c-1.62,-0.7 -0.8,-1.81 -1.7,-3.23c-0.1,0.11 -1.86,2.81 -2.16,4.75l-0.22,0.07c-0.46,-2.03 2.88,-5.59 2.88,-5.59s1.11,3.55 2.22,4.07z" fill="#616161" id="svg_1017" opacity="0.2"/>
           <path d="m133.64,146.12l-0.23,0.07l-0.08,0.02c-0.19,-0.32 -0.35,-0.57 -0.42,-0.67c-0.02,-0.03 -0.04,-0.06 -0.04,-0.06c-0.23,0.35 -0.35,0.69 -0.42,1l-0.67,0.2c0.5,-0.94 0.55,-2.08 0.55,-2.08s0.77,0.78 1.31,1.52z" fill="#616161" id="svg_1018" opacity="0.2"/>
          </g>
          <path d="m128.52,130.85c-0.84,0 -0.81,0.37 -1.01,0.77c-0.21,-0.4 -0.3,-0.77 -1.13,-0.77c-0.84,0 -2,2.36 -2,4.35c0,1.41 0.42,2.67 1.08,3.52c0,0.01 0,0.01 0.01,0.02c0,0 0,0 0,0l0,0c0.34,0.44 0.74,0.76 1.18,0.95c0.25,0.1 0.52,0.16 0.79,0.16l0,0c0,0 0,0 0.01,0l0,0l0,0c0.27,0 0.54,-0.06 0.79,-0.16c0.44,-0.19 0.85,-0.51 1.19,-0.95l0,0c0,0 0,0 0,0c0,0 0.01,-0.01 0.01,-0.02c0.66,-0.85 1.08,-2.11 1.08,-3.52c0,-1.99 -0.99,-4.26 -2,-4.35z" fill="#FDD8AB" id="svg_1019"/>
          <g id="svg_1020">
           <g id="svg_1021">
            <path d="m125.15,134.93c-0.02,0.03 -0.02,0.07 -0.02,0.11c0,0.24 0.29,0.43 0.65,0.43c0.36,0 0.65,-0.19 0.65,-0.43c0,-0.04 0,-0.08 -0.02,-0.11l-1.26,0z" fill="#333333" id="svg_1022"/>
           </g>
           <g id="svg_1023">
            <path d="m129.75,134.93c0.01,0.03 0.02,0.07 0.02,0.11c0,0.24 -0.29,0.43 -0.66,0.43c-0.36,0 -0.65,-0.19 -0.65,-0.43c0,-0.04 0.01,-0.08 0.02,-0.11l1.27,0z" fill="#333333" id="svg_1024"/>
           </g>
           <g id="svg_1025">
            <path d="m128.3,138.15l-0.85,0l0,0l-0.86,0c0.17,0.23 0.49,0.38 0.86,0.39l0,0c0,0 0,0 0,0l0,0l0,0c0.36,-0.01 0.68,-0.16 0.85,-0.39z" fill="#D66F53" id="svg_1026"/>
            <path d="m127.45,138.11c-0.39,-0.46 -0.94,0.12 -0.94,0.12l0.94,0l0,0l0.94,0c0,0 -0.55,-0.58 -0.94,-0.12z" fill="#D66142" id="svg_1027"/>
           </g>
           <path d="m127.45,135.66l0,-0.02l0,0.01l0,-0.01l0,0.02l-0.5,1.57c0,0 0.18,0.15 0.48,0.15c0.29,0 0.51,-0.15 0.51,-0.15l-0.49,-1.57z" fill="#616161" id="svg_1028" opacity="0.2"/>
           <polygon fill="#D66142" id="svg_1029" points="128.39,133.991 129.688,134.061 129.706,134.063 129.716,134.073 130.232,134.636            129.661,134.128 129.688,134.14 128.388,134.204          "/>
           <polygon fill="#D66142" id="svg_1030" points="126.619,134.204 125.32,134.14 125.345,134.128 124.776,134.636 125.29,134.073            125.302,134.063 125.318,134.061 126.618,133.991          "/>
          </g>
         </g>
         <g id="svg_1031">
          <path d="m132.83,145.53c-0.2,0.34 -0.31,0.65 -0.38,0.95l-0.67,0.2l-4.33,1.29l-2.7,0.81l-0.91,0.27c-0.03,-0.11 -0.07,-0.22 -0.11,-0.34c-1.56,-0.68 -0.85,-1.74 -1.61,-3.09c-0.01,-0.02 -0.02,-0.04 -0.04,-0.05c0.26,-0.55 0.66,-1.02 1.16,-1.35c0.56,-0.4 1.24,-0.63 1.97,-0.63c1.07,0 2.27,0.96 2.27,0.96s1.13,-0.96 2.23,-0.94c0.71,0.01 1.39,0.23 1.95,0.6c0.5,0.34 0.91,0.79 1.17,1.32z" fill="#D66142" id="svg_1032"/>
          <path d="m134.86,130.37c-0.19,3.6 -7.41,9.08 -7.41,9.08s-7.43,-5.51 -7.43,-9.13c0,-2.47 2.03,-4.47 4.51,-4.47c1.39,0 2.95,1.25 2.95,1.25s1.47,-1.25 2.9,-1.23c2.49,0.03 4.62,2.02 4.48,4.5z" fill="#D66142" id="svg_1033"/>
          <g id="svg_1034">
           <path d="m124.75,148.78l-0.91,0.27c-0.03,-0.11 -0.07,-0.22 -0.11,-0.34c-1.62,-0.7 -0.8,-1.81 -1.7,-3.23c-0.1,0.11 -1.86,2.81 -2.16,4.75l-0.22,0.07c-0.46,-2.03 2.88,-5.59 2.88,-5.59s1.11,3.55 2.22,4.07z" fill="#616161" id="svg_1035" opacity="0.2"/>
           <path d="m133.64,146.12l-0.23,0.07l-0.08,0.02c-0.19,-0.32 -0.35,-0.57 -0.42,-0.67c-0.02,-0.03 -0.04,-0.06 -0.04,-0.06c-0.23,0.35 -0.35,0.69 -0.42,1l-0.67,0.2c0.5,-0.94 0.55,-2.08 0.55,-2.08s0.77,0.78 1.31,1.52z" fill="#616161" id="svg_1036" opacity="0.2"/>
          </g>
          <path d="m128.52,130.85c-0.84,0 -0.81,0.37 -1.01,0.77c-0.21,-0.4 -0.3,-0.77 -1.13,-0.77c-0.84,0 -2,2.36 -2,4.35c0,1.41 0.42,2.67 1.08,3.52c0,0.01 0,0.01 0.01,0.02c0,0 0,0 0,0l0,0c0.34,0.44 0.74,0.76 1.18,0.95c0.25,0.1 0.52,0.16 0.79,0.16l0,0c0,0 0,0 0.01,0l0,0l0,0c0.27,0 0.54,-0.06 0.79,-0.16c0.44,-0.19 0.85,-0.51 1.19,-0.95l0,0c0,0 0,0 0,0c0,0 0.01,-0.01 0.01,-0.02c0.66,-0.85 1.08,-2.11 1.08,-3.52c0,-1.99 -0.99,-4.26 -2,-4.35z" fill="#FDD8AB" id="svg_1037"/>
          <g id="svg_1038">
           <g id="svg_1039">
            <path d="m125.15,134.93c-0.02,0.03 -0.02,0.07 -0.02,0.11c0,0.24 0.29,0.43 0.65,0.43c0.36,0 0.65,-0.19 0.65,-0.43c0,-0.04 0,-0.08 -0.02,-0.11l-1.26,0z" fill="#333333" id="svg_1040"/>
           </g>
           <g id="svg_1041">
            <path d="m129.75,134.93c0.01,0.03 0.02,0.07 0.02,0.11c0,0.24 -0.29,0.43 -0.66,0.43c-0.36,0 -0.65,-0.19 -0.65,-0.43c0,-0.04 0.01,-0.08 0.02,-0.11l1.27,0z" fill="#333333" id="svg_1042"/>
           </g>
           <g id="svg_1043">
            <path d="m128.3,138.15l-0.85,0l0,0l-0.86,0c0.17,0.23 0.49,0.38 0.86,0.39l0,0c0,0 0,0 0,0l0,0l0,0c0.36,-0.01 0.68,-0.16 0.85,-0.39z" fill="#D66F53" id="svg_1044"/>
            <path d="m127.45,138.11c-0.39,-0.46 -0.94,0.12 -0.94,0.12l0.94,0l0,0l0.94,0c0,0 -0.55,-0.58 -0.94,-0.12z" fill="#D66142" id="svg_1045"/>
           </g>
           <path d="m127.45,135.66l0,-0.02l0,0.01l0,-0.01l0,0.02l-0.5,1.57c0,0 0.18,0.15 0.48,0.15c0.29,0 0.51,-0.15 0.51,-0.15l-0.49,-1.57z" fill="#616161" id="svg_1046" opacity="0.2"/>
           <polygon fill="#D66142" id="svg_1047" points="128.39,133.991 129.688,134.061 129.706,134.063 129.716,134.073 130.232,134.636            129.661,134.128 129.688,134.14 128.388,134.204          "/>
           <polygon fill="#D66142" id="svg_1048" points="126.619,134.204 125.32,134.14 125.345,134.128 124.776,134.636 125.29,134.073            125.302,134.063 125.318,134.061 126.618,133.991          "/>
          </g>
         </g>
        </g>
        <path d="m128.35,130.88c0.05,-0.02 0.11,-0.03 0.17,-0.03c-0.06,0 -0.12,0.02 -0.17,0.03z" fill="#616161" id="svg_1049" opacity="0.2"/>
        <path d="m127.89,131.09c0,-0.01 0.01,-0.01 0.02,-0.02c-0.01,0.01 -0.02,0.01 -0.02,0.02z" fill="#616161" id="svg_1050" opacity="0.2"/>
        <path d="m128.03,131c0.01,-0.01 0.02,-0.01 0.03,-0.02c-0.01,0.01 -0.02,0.01 -0.03,0.02z" fill="#616161" id="svg_1051" opacity="0.2"/>
        <path d="m128.18,130.93c0.02,-0.01 0.04,-0.01 0.06,-0.02c-0.02,0.01 -0.04,0.01 -0.06,0.02z" fill="#616161" id="svg_1052" opacity="0.2"/>
        <g id="svg_1053">
         <path d="m129.53,128.41c0.06,1 -2.08,2.59 -2.08,2.59s-2.12,-1.55 -2,-2.66c0.08,-0.7 0.69,-1.23 1.35,-1.23c0.36,0 0.76,0.31 0.76,0.31s0.37,-0.31 0.72,-0.3c0.59,0 1.21,0.67 1.25,1.29z" fill="#616161" id="svg_1054" opacity="0.2"/>
         <path d="m129.38,128.5c-0.05,0.91 -1.87,2.28 -1.87,2.28s-1.87,-1.38 -1.87,-2.29c0,-0.63 0.51,-1.13 1.14,-1.13c0.35,0 0.74,0.31 0.74,0.31s0.37,-0.31 0.73,-0.31c0.62,0.01 1.16,0.51 1.13,1.14z" fill="#FFD675" id="svg_1055"/>
         <path d="m127.5,130.13c-0.7,-0.58 -1.35,-1.31 -1.35,-1.64c0,-0.34 0.28,-0.62 0.62,-0.62c0.1,0 0.32,0.12 0.42,0.2l0.33,0.27l0.33,-0.27c0.09,-0.08 0.28,-0.19 0.39,-0.19c0.18,0 0.35,0.08 0.47,0.21c0.08,0.07 0.16,0.2 0.15,0.38c-0.02,0.35 -0.67,1.08 -1.36,1.66z" fill="#616161" id="svg_1056" opacity="0.2"/>
        </g>
        <path d="m134.82,142.86c-0.08,-0.11 -0.15,-0.21 -0.22,-0.31c-0.03,-0.03 -0.05,-0.06 -0.08,-0.09c-0.05,-0.06 -0.09,-0.12 -0.14,-0.17l0,-0.01c0.46,-0.63 0.69,-1.27 0.77,-1.86c0.03,-0.19 0.04,-0.37 0.04,-0.55c0,-1.76 -1.16,-3.08 -1.16,-3.08l-3.49,0c1.99,-1.89 4.22,-4.44 4.32,-6.42c0.14,-2.48 -1.99,-4.47 -4.48,-4.51c-1.43,-0.02 -2.9,1.24 -2.9,1.24s-0.01,-0.01 -0.02,-0.01l0,20.88l4.32,-1.29l0.54,-0.16l0.13,-0.04l0,0l0,0c0,-0.01 0,-0.02 0.01,-0.04c0.07,-0.3 0.19,-0.62 0.4,-0.96c0,0 0.01,0 0.01,0.01c0.01,0.01 0.02,0.02 0.04,0.05c0.07,0.1 0.22,0.35 0.42,0.67l0,0l0.01,0l0.06,-0.02l0.1,-0.03l0.14,-0.04l2.49,-0.74c-0.38,-1.03 -0.86,-1.87 -1.31,-2.52z" fill="#616161" id="svg_1057" opacity="0.2"/>
       </g>
      </g>
      <g id="svg_1058">
       <g id="svg_1059">
        <g id="svg_1060">
         <g id="svg_1061">
          <polygon fill="#C9C9C9" id="svg_1062" points="119.957,161.498 120.017,160.662 120.058,160.151 120.21,157.969 120.25,157.458           120.297,156.761 120.297,156.757 120.345,156.115 120.842,156.104 121.077,156.1 121.566,156.088 121.841,156.083           122.179,156.077 122.775,156.064 123.434,156.049 126.539,155.985 126.546,155.985 129.651,156.049 130.311,156.064           130.908,156.077 131.244,156.083 131.52,156.088 131.765,156.094 132.01,156.1 132.245,156.104 132.742,156.115           132.789,156.757 132.789,156.761 132.836,157.458 132.874,157.969 133.032,160.151 133.068,160.662 133.129,161.498                   "/>
          <path d="m120.56,161.5l3.89,-2.81l0.02,0c0.33,-0.42 0.73,-0.75 1.16,-0.93c0.27,-0.12 0.56,-0.18 0.85,-0.18c0.02,0 0.04,0 0.06,0c0,0 0,0 0.01,0l0,3.92l-5.99,0z" fill="#616161" id="svg_1063" opacity="0.2"/>
          <g id="svg_1064">
           <path d="m117.85,152.9l2.5,-0.74l0.24,-0.07l0.07,-0.02c0.19,0.33 0.35,0.57 0.42,0.68c0.03,0.03 0.04,0.05 0.05,0.06c0,-0.01 0,-0.02 0.01,-0.02c0.01,-0.01 0.01,-0.02 0.02,-0.04c0.2,-0.33 0.31,-0.65 0.38,-0.94l0.67,-0.2l4.33,-1.3l2.7,-0.8l0.91,-0.28c0.03,0.11 0.07,0.23 0.11,0.35c1.56,0.67 0.85,1.74 1.61,3.09c0.01,0.01 0.02,0.03 0.04,0.05c0.01,0.03 0.03,0.06 0.05,0.09c0.09,-0.12 1.86,-2.81 2.16,-4.76l0.22,-0.07l1.75,-0.52l0.04,0c0.03,3.85 -1.14,6.42 -2.22,7.96c-0.07,0.11 -0.15,0.21 -0.22,0.31c-0.08,0.09 -0.14,0.19 -0.21,0.27l-0.01,0c0,0 0,0.01 0,0.01c-0.05,0.06 -0.1,0.13 -0.16,0.18c-0.05,0.07 -0.1,0.13 -0.15,0.18c-0.14,0.15 -0.26,0.28 -0.37,0.39l0,0l0,0c-0.03,0.03 -0.06,0.05 -0.09,0.08c-0.03,0.03 -0.05,0.06 -0.08,0.08c-0.02,0.02 -0.05,0.04 -0.07,0.06c-0.05,0.05 -0.09,0.09 -0.14,0.12c-0.17,0.15 -0.27,0.22 -0.27,0.22l-0.41,-0.1l-0.07,-0.02l-0.16,-0.04l-0.05,-0.01l-0.56,0.03l-0.87,0.03l-0.93,0.04l-2.54,0.1l-0.01,0l-2.6,-0.1l-0.87,-0.04l-0.88,-0.03l-0.56,-0.03l-0.05,0.01l-0.15,0.04l-0.08,0.02l-0.4,0.1c0,0 -0.11,-0.07 -0.28,-0.22c-0.04,-0.03 -0.08,-0.07 -0.14,-0.11c-0.02,-0.03 -0.04,-0.05 -0.07,-0.07c-0.02,-0.02 -0.05,-0.05 -0.07,-0.08c-0.04,-0.03 -0.06,-0.05 -0.09,-0.08l-0.01,0c-0.02,-0.02 -0.05,-0.05 -0.08,-0.08c-0.03,-0.03 -0.06,-0.06 -0.09,-0.1c-0.06,-0.06 -0.13,-0.13 -0.19,-0.21c-0.05,-0.04 -0.09,-0.09 -0.14,-0.14c-0.01,-0.01 -0.01,-0.02 -0.02,-0.04c-0.05,-0.05 -0.1,-0.12 -0.16,-0.18c0,0 0,0 0,-0.01l0,0c-0.07,-0.08 -0.14,-0.18 -0.22,-0.27c-0.07,-0.1 -0.14,-0.2 -0.22,-0.31c-0.45,-0.65 -0.92,-1.48 -1.32,-2.52z" fill="#FDD8AB" id="svg_1065"/>
           <path d="m126.55,154.54l-0.58,0l0.26,-2.06c0.1,-0.01 0.21,-0.01 0.32,-0.01l0,2.07z" fill="#616161" id="svg_1066" opacity="0.2"/>
          </g>
          <g id="svg_1067">
           <g id="svg_1068">
            <path d="m126.54,161.5l5.99,0l-3.9,-2.81l-0.02,0c0,0 -1.24,-1.11 -2.01,-1.11c-0.02,0 -0.04,0 -0.06,0l0,3.92z" fill="#616161" id="svg_1069" opacity="0.2"/>
            <path d="m126.54,154.54l0.57,0l-0.25,-2.06c-0.11,-0.01 -0.21,-0.01 -0.32,-0.01l0,2.07z" fill="#616161" id="svg_1070" opacity="0.2"/>
           </g>
           <path d="m128.62,152.81c2.9,0.63 4.47,1.61 5.29,2.61c-0.6,0.86 -1.17,1.41 -1.49,1.68l-3.8,-4.29z" fill="#616161" id="svg_1071" opacity="0.2"/>
           <path d="m121.31,156.37c0,-0.73 0.27,-1.41 0.75,-2c0.4,-0.49 0.94,-0.92 1.58,-1.24c0.01,0 0.01,0 0.02,0c0.25,-0.12 0.52,-0.23 0.8,-0.32c0.55,-0.18 1.14,-0.3 1.77,-0.34c0.03,0 0.07,0 0.1,0c0.07,0 0.14,0 0.21,0c0,0 0,0 0,0c0.07,0 0.15,0 0.21,0c0.04,0 0.07,0 0.11,0c0.62,0.04 1.22,0.16 1.76,0.34c0.28,0.09 0.55,0.2 0.8,0.32c0.01,0 0.01,0 0.02,0c0.64,0.32 1.19,0.75 1.58,1.24c0.49,0.58 0.76,1.27 0.76,2c0,0.54 0.11,0.58 -0.15,1.05l-1.54,0.02l-2.64,0.03l0,0.55c-0.27,-0.12 -0.55,-0.19 -0.85,-0.19c-0.02,0 -0.04,0.01 -0.06,0.01c0,0 0,0 0,0c-0.02,0 -0.04,-0.01 -0.06,-0.01c-0.29,0 -0.58,0.07 -0.85,0.19l0,-0.55l-2.64,-0.03l-1.54,-0.02c-0.26,-0.47 -0.14,-0.51 -0.14,-1.05z" fill="#FDD8AB" id="svg_1072"/>
           <path d="m121.46,157.42l1.54,0.02l0.73,-2.31c0.18,0.03 0.37,0.05 0.56,0.05c1.1,0.02 2.22,-0.95 2.22,-0.95s1.2,0.97 2.27,0.97c0.2,0 0.4,-0.02 0.59,-0.06l0.72,2.3l1.54,-0.02c0.27,-0.47 0.15,-0.51 0.15,-1.05c0,-0.74 -0.28,-1.42 -0.76,-2c0,0 0.01,0 0.01,0c-0.04,-0.04 -0.08,-0.08 -0.11,-0.12c-0.06,-0.06 -0.11,-0.13 -0.17,-0.19c-0.07,-0.07 -0.15,-0.14 -0.23,-0.21c-0.05,-0.04 -0.1,-0.09 -0.15,-0.13c-0.1,-0.08 -0.21,-0.15 -0.32,-0.23c-0.04,-0.02 -0.08,-0.05 -0.12,-0.08c-0.15,-0.1 -0.32,-0.19 -0.49,-0.28c0,0 0,0 -0.01,0c-0.25,-0.12 -0.52,-0.24 -0.8,-0.33c-0.55,-0.18 -1.14,-0.29 -1.77,-0.33c-0.03,0 -0.07,0 -0.1,0c-0.07,0 -0.14,0 -0.21,0c0,0 0,0 -0.01,0c-0.07,0 -0.14,0 -0.21,0c-0.03,0 -0.06,0 -0.1,0c-0.62,0.04 -1.22,0.15 -1.77,0.33c-0.28,0.1 -0.54,0.21 -0.8,0.33c0,0 -0.01,0 -0.01,0c-0.17,0.09 -0.34,0.19 -0.5,0.28c-0.03,0.03 -0.06,0.05 -0.09,0.07c-0.12,0.08 -0.23,0.16 -0.34,0.24c-0.06,0.05 -0.1,0.09 -0.16,0.14c-0.07,0.07 -0.15,0.13 -0.22,0.2c-0.06,0.07 -0.12,0.13 -0.18,0.2c-0.03,0.04 -0.07,0.07 -0.1,0.11c0,0 0,0 0,0c-0.47,0.59 -0.75,1.27 -0.75,2c0,0.54 -0.12,0.58 0.15,1.05z" fill="#616161" id="svg_1073" opacity="0.2"/>
           <path d="m125.63,158.39l0,-0.37c0.27,-0.12 0.56,-0.18 0.85,-0.18c0.02,0 0.04,0 0.06,0c0.02,0 0.04,0 0.06,0c0.3,0 0.58,0.06 0.86,0.18l0,0.37c0,0.07 -0.02,0.14 -0.03,0.21c-0.01,0.05 -0.02,0.09 -0.05,0.14c-0.13,0.31 -0.45,0.53 -0.81,0.53c-0.01,0 -0.02,0 -0.03,0c-0.01,0 -0.01,0 -0.02,0c-0.34,0 -0.63,-0.19 -0.78,-0.46c-0.04,-0.07 -0.07,-0.14 -0.08,-0.21c-0.02,-0.07 -0.03,-0.14 -0.03,-0.21z" fill="#FDD8AB" id="svg_1074"/>
          </g>
          <path d="m125.63,158.39l0,-0.37c0.27,-0.12 0.56,-0.18 0.85,-0.18c0.02,0 0.04,0 0.06,0c0.02,0 0.04,0 0.06,0c0.3,0 0.58,0.06 0.86,0.18l0,0.37c0,0.07 -0.02,0.14 -0.03,0.21c-0.01,0.05 -0.02,0.09 -0.05,0.14c-0.34,-0.17 -0.65,-0.31 -0.78,-0.31c-0.02,0 -0.04,0 -0.05,0c0,0 0,0 -0.01,0c-0.02,0 -0.04,0 -0.06,0c-0.11,0 -0.41,0.17 -0.74,0.38c-0.04,-0.07 -0.07,-0.14 -0.08,-0.21c-0.02,-0.07 -0.03,-0.14 -0.03,-0.21z" fill="#616161" id="svg_1075" opacity="0.2"/>
          <path d="m119.17,155.42c0.82,-1 2.4,-1.98 5.29,-2.62l-1.57,1.79l-0.1,0.1l-1.23,1.4l-0.26,0.29l-0.63,0.72c-0.04,-0.04 -0.09,-0.07 -0.13,-0.12c-0.03,-0.02 -0.05,-0.04 -0.08,-0.06c-0.02,-0.03 -0.05,-0.05 -0.08,-0.08c-0.03,-0.02 -0.05,-0.05 -0.08,-0.08l0,0l0,0c-0.03,-0.03 -0.06,-0.05 -0.09,-0.09c-0.03,-0.03 -0.06,-0.06 -0.09,-0.09c-0.06,-0.06 -0.13,-0.13 -0.19,-0.21c-0.05,-0.04 -0.09,-0.09 -0.13,-0.14c-0.01,-0.01 -0.02,-0.02 -0.03,-0.03c-0.05,-0.06 -0.1,-0.12 -0.16,-0.19c0,0 0,-0.01 0,-0.01l-0.01,0l0,0c-0.07,-0.09 -0.13,-0.18 -0.21,-0.27c-0.07,-0.1 -0.14,-0.2 -0.22,-0.31z" fill="#616161" id="svg_1076" opacity="0.2"/>
          <path d="m118.8,158.41c0,-0.18 0.01,-0.36 0.04,-0.54c0.08,-0.6 0.31,-1.23 0.77,-1.87l0,0c0.43,-0.61 1.07,-1.22 1.99,-1.8c0.05,-0.04 0.11,-0.07 0.17,-0.11c0.53,-0.33 1.15,-0.65 1.87,-0.96c0.02,0 0.03,-0.01 0.05,-0.02c0.01,0 0.02,-0.01 0.04,-0.01c0.04,-0.02 0.08,-0.04 0.12,-0.05c0.13,-0.06 0.27,-0.11 0.4,-0.17c0.07,-0.02 0.14,-0.05 0.21,-0.08l-1.68,3.26l-0.58,1.11l-0.13,0.26l-2.11,4.07c0,0 -1.16,-1.33 -1.16,-3.09z" fill="#EBEBEB" id="svg_1077"/>
          <path d="m128.62,152.81c1.08,0.4 1.97,0.84 2.69,1.28c0.07,0.04 0.12,0.07 0.18,0.11c1.87,1.2 2.6,2.5 2.76,3.67c0.03,0.18 0.04,0.36 0.04,0.54c0,1.76 -1.16,3.09 -1.16,3.09l-4.51,-8.69z" fill="#EBEBEB" id="svg_1078"/>
          <g id="svg_1079">
           <polygon fill="#333333" id="svg_1080" points="132.412,156.327 131.869,155.605 132.114,156.475          "/>
           <polygon fill="#333333" id="svg_1081" points="130.532,154.574 129.989,153.851 130.234,154.721          "/>
           <polygon fill="#333333" id="svg_1082" points="133.401,160.641 132.856,159.919 133.102,160.789          "/>
           <polygon fill="#333333" id="svg_1083" points="132.682,159.124 132.142,158.402 132.385,159.273          "/>
           <polygon fill="#333333" id="svg_1084" points="131.966,157.607 131.423,156.885 131.669,157.755          "/>
           <polygon fill="#333333" id="svg_1085" points="131.249,156.09 130.706,155.368 130.953,156.238          "/>
           <path d="m131.31,154.09c0.07,0.04 0.12,0.07 0.18,0.11l0.32,0.42l-0.3,0.15l-0.2,-0.68z" fill="#333333" id="svg_1086"/>
           <polygon fill="#333333" id="svg_1087" points="133.846,159.361 133.304,158.64 133.55,159.508          "/>
           <polygon fill="#333333" id="svg_1088" points="133.129,157.845 132.586,157.121 132.831,157.991          "/>
           <path d="m134.01,157.56l0.24,0.31c0.03,0.18 0.04,0.36 0.04,0.54l-0.03,0.02l-0.25,-0.87z" fill="#333333" id="svg_1089"/>
           <polygon fill="#333333" id="svg_1090" points="133.527,156.48 132.984,155.758 133.229,156.628          "/>
          </g>
          <g id="svg_1091">
           <polygon fill="#333333" id="svg_1092" points="120.674,156.327 121.218,155.605 120.971,156.475          "/>
           <polygon fill="#333333" id="svg_1093" points="122.556,154.574 123.098,153.851 122.852,154.721          "/>
           <polygon fill="#333333" id="svg_1094" points="119.687,160.641 120.229,159.919 119.984,160.789          "/>
           <polygon fill="#333333" id="svg_1095" points="120.403,159.124 120.946,158.402 120.701,159.273          "/>
           <polygon fill="#333333" id="svg_1096" points="121.12,157.607 121.663,156.885 121.416,157.755          "/>
           <polygon fill="#333333" id="svg_1097" points="121.837,156.09 122.38,155.368 122.134,156.238          "/>
           <path d="m121.77,154.09c-0.06,0.04 -0.12,0.07 -0.17,0.11l-0.32,0.42l0.3,0.15l0.19,-0.68z" fill="#333333" id="svg_1098"/>
           <polygon fill="#333333" id="svg_1099" points="119.24,159.361 119.782,158.64 119.537,159.508          "/>
           <polygon fill="#333333" id="svg_1100" points="119.956,157.845 120.5,157.121 120.254,157.991          "/>
           <path d="m118.8,158.41c0,-0.18 0.01,-0.36 0.04,-0.54l0.23,-0.31l-0.25,0.87l-0.02,-0.02z" fill="#333333" id="svg_1101"/>
           <polygon fill="#333333" id="svg_1102" points="119.558,156.48 120.101,155.758 119.856,156.628          "/>
          </g>
         </g>
         <g id="svg_1103">
          <path d="m121.16,152.75c0.2,-0.34 0.31,-0.65 0.38,-0.95l0.67,-0.2l4.33,-1.29l2.71,-0.8l0.9,-0.28c0.03,0.11 0.07,0.23 0.11,0.34c1.56,0.68 0.86,1.75 1.62,3.09c0,0.02 0.01,0.04 0.03,0.05c-0.26,0.55 -0.66,1.02 -1.15,1.36c-0.57,0.39 -1.25,0.62 -1.98,0.62c-1.07,0 -2.27,-0.96 -2.27,-0.96s-1.13,0.96 -2.23,0.94c-0.71,-0.01 -1.39,-0.23 -1.95,-0.6c-0.5,-0.33 -0.91,-0.79 -1.17,-1.32z" fill="#D66142" id="svg_1104"/>
          <path d="m119.13,167.91c0.19,-3.6 7.42,-9.07 7.42,-9.07s7.42,5.51 7.42,9.12c0,2.48 -2.03,4.48 -4.51,4.48c-1.39,0 -2.95,-1.25 -2.95,-1.25s-1.47,1.25 -2.9,1.23c-2.49,-0.03 -4.61,-2.03 -4.48,-4.51z" fill="#D66142" id="svg_1105"/>
          <g id="svg_1106">
           <path d="m129.24,149.51l0.91,-0.27c0.03,0.1 0.07,0.22 0.11,0.34c1.62,0.69 0.8,1.81 1.7,3.22c0.1,-0.11 1.86,-2.8 2.17,-4.75l0.21,-0.07c0.46,2.04 -2.88,5.59 -2.88,5.59s-1.1,-3.55 -2.22,-4.06z" fill="#616161" id="svg_1107" opacity="0.2"/>
           <path d="m120.35,152.16l0.24,-0.07l0.07,-0.02c0.19,0.33 0.35,0.57 0.42,0.67c0.02,0.04 0.04,0.06 0.05,0.07c0.22,-0.36 0.34,-0.69 0.41,-1.01l0.67,-0.2c-0.5,0.94 -0.55,2.08 -0.55,2.08s-0.77,-0.77 -1.31,-1.52z" fill="#616161" id="svg_1108" opacity="0.2"/>
          </g>
          <path d="m125.47,167.43c0.84,0 0.81,-0.36 1.01,-0.77c0.21,0.41 0.3,0.77 1.14,0.77c0.83,0 1.99,-2.36 1.99,-4.34c0,-1.42 -0.41,-2.68 -1.08,-3.53c0,-0.01 0,-0.01 -0.01,-0.02c0,0 0,0 0,0l0,0c-0.34,-0.43 -0.74,-0.76 -1.18,-0.94c-0.26,-0.11 -0.52,-0.16 -0.79,-0.17l0,0c-0.01,0 -0.01,0 -0.01,0c0,0 0,0 0,0l0,0c-0.27,0.01 -0.54,0.06 -0.79,0.17c-0.44,0.18 -0.85,0.51 -1.19,0.94l0,0c0,0 0,0 0,0c0,0.01 -0.01,0.01 -0.01,0.02c-0.66,0.85 -1.08,2.11 -1.08,3.53c0,1.98 0.99,4.26 2,4.34z" fill="#FDD8AB" id="svg_1109"/>
          <g id="svg_1110">
           <g id="svg_1111">
            <path d="m128.84,163.35c0.02,-0.03 0.02,-0.07 0.02,-0.1c0,-0.24 -0.29,-0.43 -0.65,-0.43c-0.36,0 -0.65,0.19 -0.65,0.43c0,0.03 0,0.07 0.02,0.1l1.26,0z" fill="#333333" id="svg_1112"/>
           </g>
           <g id="svg_1113">
            <path d="m124.24,163.35c-0.01,-0.03 -0.02,-0.07 -0.02,-0.1c0,-0.24 0.3,-0.43 0.66,-0.43c0.36,0 0.65,0.19 0.65,0.43c0,0.03 -0.01,0.07 -0.02,0.1l-1.27,0z" fill="#333333" id="svg_1114"/>
           </g>
           <g id="svg_1115">
            <path d="m125.69,160.13l0.85,0l0.01,0l0.85,0c-0.17,-0.23 -0.49,-0.38 -0.85,-0.38l0,0c-0.01,0 -0.01,0 -0.01,0c0,0 0,0 0,0l0,0c-0.36,0 -0.68,0.15 -0.85,0.38z" fill="#D66F53" id="svg_1116"/>
            <path d="m126.54,160.18c0.39,0.45 0.94,-0.12 0.94,-0.12l-0.93,0l-0.01,0l-0.94,0c0,0 0.55,0.57 0.94,0.12z" fill="#D66142" id="svg_1117"/>
           </g>
           <path d="m126.54,162.63l0,0.01l0,-0.01l0.01,0.01l0,-0.01l0.49,-1.57c0,0 -0.18,-0.16 -0.47,-0.16c-0.3,0 -0.52,0.16 -0.52,0.16l0.49,1.57z" fill="#616161" id="svg_1118" opacity="0.2"/>
           <polygon fill="#D66142" id="svg_1119" points="125.602,164.292 124.303,164.222 124.284,164.221 124.275,164.211 123.761,163.646            124.331,164.155 124.303,164.144 125.602,164.08          "/>
           <polygon fill="#D66142" id="svg_1120" points="127.372,164.08 128.673,164.144 128.645,164.155 129.215,163.646 128.701,164.211            128.69,164.221 128.673,164.222 127.372,164.292          "/>
          </g>
         </g>
         <g id="svg_1121">
          <path d="m121.16,152.75c0.2,-0.34 0.31,-0.65 0.38,-0.95l0.67,-0.2l4.33,-1.29l2.71,-0.8l0.9,-0.28c0.03,0.11 0.07,0.23 0.11,0.34c1.56,0.68 0.86,1.75 1.62,3.09c0,0.02 0.01,0.04 0.03,0.05c-0.26,0.55 -0.66,1.02 -1.15,1.36c-0.57,0.39 -1.25,0.62 -1.98,0.62c-1.07,0 -2.27,-0.96 -2.27,-0.96s-1.13,0.96 -2.23,0.94c-0.71,-0.01 -1.39,-0.23 -1.95,-0.6c-0.5,-0.33 -0.91,-0.79 -1.17,-1.32z" fill="#D66142" id="svg_1122"/>
          <path d="m119.13,167.91c0.19,-3.6 7.42,-9.07 7.42,-9.07s7.42,5.51 7.42,9.12c0,2.48 -2.03,4.48 -4.51,4.48c-1.39,0 -2.95,-1.25 -2.95,-1.25s-1.47,1.25 -2.9,1.23c-2.49,-0.03 -4.61,-2.03 -4.48,-4.51z" fill="#D66142" id="svg_1123"/>
          <g id="svg_1124">
           <path d="m129.24,149.51l0.91,-0.27c0.03,0.1 0.07,0.22 0.11,0.34c1.62,0.69 0.8,1.81 1.7,3.22c0.1,-0.11 1.86,-2.8 2.17,-4.75l0.21,-0.07c0.46,2.04 -2.88,5.59 -2.88,5.59s-1.1,-3.55 -2.22,-4.06z" fill="#616161" id="svg_1125" opacity="0.2"/>
           <path d="m120.35,152.16l0.24,-0.07l0.07,-0.02c0.19,0.33 0.35,0.57 0.42,0.67c0.02,0.04 0.04,0.06 0.05,0.07c0.22,-0.36 0.34,-0.69 0.41,-1.01l0.67,-0.2c-0.5,0.94 -0.55,2.08 -0.55,2.08s-0.77,-0.77 -1.31,-1.52z" fill="#616161" id="svg_1126" opacity="0.2"/>
          </g>
          <path d="m125.47,167.43c0.84,0 0.81,-0.36 1.01,-0.77c0.21,0.41 0.3,0.77 1.14,0.77c0.83,0 1.99,-2.36 1.99,-4.34c0,-1.42 -0.41,-2.68 -1.08,-3.53c0,-0.01 0,-0.01 -0.01,-0.02c0,0 0,0 0,0l0,0c-0.34,-0.43 -0.74,-0.76 -1.18,-0.94c-0.26,-0.11 -0.52,-0.16 -0.79,-0.17l0,0c-0.01,0 -0.01,0 -0.01,0c0,0 0,0 0,0l0,0c-0.27,0.01 -0.54,0.06 -0.79,0.17c-0.44,0.18 -0.85,0.51 -1.19,0.94l0,0c0,0 0,0 0,0c0,0.01 -0.01,0.01 -0.01,0.02c-0.66,0.85 -1.08,2.11 -1.08,3.53c0,1.98 0.99,4.26 2,4.34z" fill="#FDD8AB" id="svg_1127"/>
          <g id="svg_1128">
           <g id="svg_1129">
            <path d="m128.84,163.35c0.02,-0.03 0.02,-0.07 0.02,-0.1c0,-0.24 -0.29,-0.43 -0.65,-0.43c-0.36,0 -0.65,0.19 -0.65,0.43c0,0.03 0,0.07 0.02,0.1l1.26,0z" fill="#333333" id="svg_1130"/>
           </g>
           <g id="svg_1131">
            <path d="m124.24,163.35c-0.01,-0.03 -0.02,-0.07 -0.02,-0.1c0,-0.24 0.3,-0.43 0.66,-0.43c0.36,0 0.65,0.19 0.65,0.43c0,0.03 -0.01,0.07 -0.02,0.1l-1.27,0z" fill="#333333" id="svg_1132"/>
           </g>
           <g id="svg_1133">
            <path d="m125.69,160.13l0.85,0l0.01,0l0.85,0c-0.17,-0.23 -0.49,-0.38 -0.85,-0.38l0,0c-0.01,0 -0.01,0 -0.01,0c0,0 0,0 0,0l0,0c-0.36,0 -0.68,0.15 -0.85,0.38z" fill="#D66F53" id="svg_1134"/>
            <path d="m126.54,160.18c0.39,0.45 0.94,-0.12 0.94,-0.12l-0.93,0l-0.01,0l-0.94,0c0,0 0.55,0.57 0.94,0.12z" fill="#D66142" id="svg_1135"/>
           </g>
           <path d="m126.54,162.63l0,0.01l0,-0.01l0.01,0.01l0,-0.01l0.49,-1.57c0,0 -0.18,-0.16 -0.47,-0.16c-0.3,0 -0.52,0.16 -0.52,0.16l0.49,1.57z" fill="#616161" id="svg_1136" opacity="0.2"/>
           <polygon fill="#D66142" id="svg_1137" points="125.602,164.292 124.303,164.222 124.284,164.221 124.275,164.211 123.761,163.646            124.331,164.155 124.303,164.144 125.602,164.08          "/>
           <polygon fill="#D66142" id="svg_1138" points="127.372,164.08 128.673,164.144 128.645,164.155 129.215,163.646 128.701,164.211            128.69,164.221 128.673,164.222 127.372,164.292          "/>
          </g>
         </g>
        </g>
        <path d="m125.64,167.41c-0.05,0.01 -0.11,0.02 -0.17,0.02c0.06,0 0.12,-0.01 0.17,-0.02z" fill="#616161" id="svg_1139" opacity="0.2"/>
        <path d="m126.11,167.2c-0.01,0 -0.02,0 -0.03,0.01c0.01,0 0.02,-0.01 0.03,-0.01z" fill="#616161" id="svg_1140" opacity="0.2"/>
        <path d="m125.96,167.28c-0.01,0.01 -0.02,0.01 -0.03,0.02c0.01,-0.01 0.02,-0.01 0.03,-0.02z" fill="#616161" id="svg_1141" opacity="0.2"/>
        <path d="m125.81,167.35c-0.02,0.01 -0.04,0.01 -0.06,0.02c0.02,0 0.04,-0.01 0.06,-0.02z" fill="#616161" id="svg_1142" opacity="0.2"/>
        <g id="svg_1143">
         <path d="m124.46,169.87c-0.05,-0.99 2.07,-2.59 2.07,-2.59s2.13,1.55 2.01,2.67c-0.08,0.7 -0.69,1.22 -1.35,1.22c-0.37,0 -0.76,-0.3 -0.76,-0.3s-0.37,0.3 -0.72,0.3c-0.59,-0.01 -1.21,-0.67 -1.25,-1.3z" fill="#616161" id="svg_1144" opacity="0.2"/>
         <path d="m124.62,169.78c0.05,-0.9 1.86,-2.28 1.86,-2.28s1.87,1.39 1.87,2.3c0,0.62 -0.51,1.12 -1.13,1.12c-0.35,0 -0.75,-0.31 -0.75,-0.31s-0.37,0.31 -0.73,0.31c-0.62,-0.01 -1.16,-0.51 -1.12,-1.14z" fill="#FFD675" id="svg_1145"/>
         <path d="m126.49,168.15c0.7,0.58 1.35,1.31 1.35,1.65c0,0.33 -0.28,0.61 -0.62,0.61c-0.1,0 -0.32,-0.12 -0.42,-0.2l-0.33,-0.27l-0.33,0.28c-0.09,0.07 -0.28,0.19 -0.39,0.19c-0.18,-0.01 -0.35,-0.08 -0.47,-0.21c-0.08,-0.08 -0.16,-0.21 -0.15,-0.39c0.02,-0.35 0.67,-1.08 1.36,-1.66z" fill="#616161" id="svg_1146" opacity="0.2"/>
        </g>
        <path d="m119.17,155.42c0.08,0.11 0.15,0.21 0.22,0.31c0.03,0.03 0.05,0.06 0.08,0.09c0.04,0.06 0.09,0.12 0.14,0.18l0,0c-0.46,0.64 -0.69,1.27 -0.77,1.87c-0.03,0.18 -0.04,0.36 -0.04,0.54c0,1.76 1.16,3.09 1.16,3.09l3.49,0c-1.99,1.89 -4.22,4.43 -4.32,6.41c-0.14,2.48 1.99,4.48 4.48,4.51c1.43,0.02 2.9,-1.23 2.9,-1.23s0.01,0 0.01,0.01l0,-20.88l-4.31,1.29l-0.54,0.16l-0.13,0.04l0,0l0,0c-0.01,0.01 -0.01,0.02 -0.01,0.03c-0.08,0.3 -0.19,0.62 -0.41,0.97c0,-0.01 0,-0.01 -0.01,-0.01c0,-0.01 -0.01,-0.03 -0.03,-0.06c-0.07,-0.1 -0.23,-0.34 -0.43,-0.67l0,0l0,0l-0.07,0.02l-0.1,0.03l-0.13,0.04l-2.5,0.74c0.4,1.04 0.87,1.87 1.32,2.52z" fill="#616161" id="svg_1147" opacity="0.2"/>
       </g>
      </g>
     </g>
    </g>
   </g>
   <g id="svg_1148">
    <path d="m116.63,132.29c-0.07,1.28 -2.64,3.23 -2.64,3.23s-2.64,-1.96 -2.64,-3.25c0,-0.88 0.72,-1.59 1.6,-1.59c0.5,0 1.05,0.44 1.05,0.44s0.52,-0.44 1.04,-0.44c0.88,0.02 1.64,0.73 1.59,1.61z" fill="#D66142" id="svg_1149"/>
    <path d="m115.04,130.68c-0.51,0 -1.04,0.44 -1.04,0.44s0,0 -0.01,-0.01l0,4.4c0,0 0,0.01 0,0.01s2.57,-1.95 2.64,-3.23c0.05,-0.88 -0.71,-1.59 -1.59,-1.61z" fill="#616161" id="svg_1150" opacity="0.2"/>
   </g>
   <g id="svg_1151">
    <path d="m139.59,165.56c0.06,-1.28 2.63,-3.23 2.63,-3.23s2.65,1.96 2.65,3.25c0,0.88 -0.73,1.59 -1.61,1.59c-0.49,0 -1.05,-0.45 -1.05,-0.45s-0.52,0.45 -1.03,0.44c-0.89,-0.01 -1.64,-0.72 -1.59,-1.6z" fill="#D66142" id="svg_1152"/>
    <path d="m141.18,167.16c0.51,0.01 1.03,-0.43 1.03,-0.43s0.01,0 0.02,0.01l0,-4.4c0,-0.01 -0.01,-0.01 -0.01,-0.01s-2.57,1.95 -2.63,3.23c-0.05,0.88 0.7,1.59 1.59,1.6z" fill="#616161" id="svg_1153" opacity="0.2"/>
   </g>
  </g>
 </g>

</svg>