<?xml version="1.0"?>
<svg width="40" height="56" xmlns="http://www.w3.org/2000/svg" xmlns:svg="http://www.w3.org/2000/svg" enable-background="new 0 0 450 450" version="1.1" xml:space="preserve">
 <g class="layer">
  <title>Layer 1</title>
  <g id="svg_2407" transform="translate(0.0023837, 0.0516326) scale(1.01347, 1) translate(-0.0023837, -0.0516326) translate(0.0023837, 0.0499897) matrix(1, 0, 0, 1.01544, -205.144, -324.224)">
   <g id="svg_2408">
    <path d="m209.58,374.25c-2.32,0 -4.21,-1.85 -4.21,-4.13l-0.12,-46.57c-0.01,-2.3 1.88,-4.16 4.21,-4.15l30.77,0.05c2.32,0.01 4.21,1.87 4.21,4.16l0,46.47c0,2.28 -1.88,4.13 -4.19,4.13l-30.67,0.04z" fill="#C9C9C9" id="svg_2409"/>
    <path d="m210,374.19c-2.29,0 -4.15,-1.86 -4.15,-4.13l0,-46.47c0,-2.28 1.86,-4.14 4.15,-4.14l30.33,0c2.29,0 4.15,1.86 4.15,4.14l0,46.47c0,2.27 -1.86,4.13 -4.15,4.13l-30.33,0z" fill="#FFFFFF" id="svg_2410"/>
   </g>
   <g id="svg_2411">
    <g id="svg_2412">
     <path d="m209.77,322.37c-0.09,0.15 -0.21,0.27 -0.34,0.35c-0.14,0.08 -0.27,0.12 -0.41,0.12c-0.04,0 -0.19,-0.03 -0.46,-0.1c-0.13,-0.03 -0.24,-0.05 -0.34,-0.05c-0.07,0 -0.13,0.01 -0.2,0.03c-0.06,0.02 -0.12,0.04 -0.17,0.08l-0.05,0l0,-0.06c0.1,-0.21 0.21,-0.35 0.33,-0.44c0.13,-0.09 0.3,-0.13 0.5,-0.13c0.15,0 0.29,0.02 0.43,0.07c0.13,0.05 0.26,0.07 0.39,0.07c0.04,0 0.09,0 0.14,0c0.06,-0.01 0.11,-0.01 0.18,-0.02l0,0.08zm0.01,2.57c0,0.29 -0.11,0.52 -0.33,0.69c-0.21,0.18 -0.49,0.27 -0.83,0.27c-0.21,0 -0.38,-0.04 -0.52,-0.13c-0.17,-0.09 -0.25,-0.23 -0.25,-0.41c0,-0.09 0.02,-0.16 0.07,-0.23c0.06,-0.08 0.16,-0.13 0.28,-0.13c0.08,0 0.14,0.03 0.21,0.08c0.05,0.05 0.09,0.11 0.09,0.19c0,0.12 -0.06,0.21 -0.16,0.25c-0.11,0.05 -0.16,0.08 -0.16,0.1c0.02,0.03 0.04,0.06 0.06,0.08c0.06,0.06 0.15,0.08 0.27,0.08c0.11,0 0.21,-0.02 0.29,-0.08c0.09,-0.06 0.13,-0.13 0.13,-0.23l0,-2.48c0.15,-0.05 0.29,-0.1 0.43,-0.14c0.13,-0.05 0.25,-0.12 0.35,-0.22l0.07,0l0,2.31z" fill="#333333" id="svg_2413"/>
     <path d="m209.59,328.31c0,0.14 -0.03,0.28 -0.08,0.41c-0.04,0.08 -0.08,0.15 -0.13,0.22c-0.09,0.13 -0.16,0.23 -0.22,0.29c-0.16,0.19 -0.26,0.29 -0.31,0.29c-0.04,0 -0.09,-0.02 -0.15,-0.07c-0.06,-0.05 -0.11,-0.1 -0.17,-0.15c-0.14,-0.11 -0.25,-0.25 -0.33,-0.39c-0.08,-0.15 -0.12,-0.32 -0.12,-0.49c0,-0.13 0.02,-0.26 0.06,-0.37c0.04,-0.12 0.09,-0.22 0.16,-0.31c0.33,-0.43 0.51,-0.64 0.56,-0.64c0.02,0 0.1,0.07 0.24,0.21c0.14,0.15 0.25,0.28 0.31,0.39c0.05,0.08 0.09,0.18 0.13,0.29c0.03,0.11 0.05,0.22 0.05,0.32zm-0.41,0.52c0,-0.24 -0.06,-0.46 -0.18,-0.68c-0.17,-0.32 -0.33,-0.48 -0.45,-0.48c-0.03,0 -0.06,0.03 -0.07,0.08c-0.02,0.06 -0.02,0.11 -0.02,0.17c0,0.26 0.05,0.47 0.15,0.62c0.08,0.12 0.25,0.28 0.51,0.49c0.02,-0.03 0.04,-0.05 0.05,-0.08c0.01,-0.03 0.01,-0.07 0.01,-0.12z" fill="#333333" id="svg_2414"/>
     <path d="m209.61,333.33c-0.06,0.07 -0.11,0.12 -0.15,0.16c-0.11,0.11 -0.19,0.16 -0.24,0.16c-0.13,0 -0.23,-0.19 -0.31,-0.57c-0.04,-0.21 -0.08,-0.35 -0.14,-0.42l-0.06,0c-0.01,0.01 -0.02,0.03 -0.02,0.04l0,0.94l-0.61,0l0,-2.95c0.03,-0.03 0.09,-0.06 0.17,-0.1c0.18,-0.07 0.3,-0.12 0.35,-0.15l0.09,0l0,1.19c0.06,0 0.16,-0.05 0.32,-0.16c0.09,-0.05 0.17,-0.11 0.25,-0.16c0.04,0 0.09,0.05 0.15,0.14c0.07,0.12 0.11,0.24 0.11,0.36c0,0.15 -0.06,0.28 -0.18,0.38c-0.12,0.11 -0.19,0.18 -0.19,0.21c0,0.01 0.04,0.07 0.11,0.16c0.07,0.1 0.11,0.16 0.12,0.19c0.01,0.03 0.03,0.13 0.07,0.3c0,0.02 0.01,0.05 0.02,0.09c0.01,0.03 0.04,0.07 0.08,0.11c0.04,0.04 0.06,0.06 0.06,0.08zm-0.6,-1.25c0,-0.07 -0.02,-0.13 -0.05,-0.19c-0.05,-0.08 -0.09,-0.12 -0.13,-0.12c-0.03,0.01 -0.05,0.02 -0.06,0.02c-0.04,0.03 -0.06,0.06 -0.06,0.09l0,0.55c0.1,-0.01 0.17,-0.06 0.23,-0.15c0.05,-0.07 0.07,-0.14 0.07,-0.2z" fill="#333333" id="svg_2415"/>
     <path d="m209.48,336.05c0,0.09 -0.12,0.24 -0.35,0.44c-0.23,0.19 -0.35,0.31 -0.35,0.34c0,0.08 0.19,0.27 0.56,0.56c-0.01,0.02 -0.08,0.09 -0.21,0.2c-0.13,0.11 -0.2,0.17 -0.22,0.17c-0.02,0 -0.07,-0.02 -0.14,-0.08c-0.06,-0.05 -0.14,-0.11 -0.22,-0.19c-0.13,-0.13 -0.23,-0.29 -0.3,-0.47c-0.05,-0.15 -0.08,-0.29 -0.08,-0.41c0,-0.09 0.02,-0.19 0.06,-0.3c0.04,-0.12 0.1,-0.24 0.17,-0.35c0.04,-0.06 0.13,-0.17 0.28,-0.33c0.17,-0.17 0.27,-0.26 0.32,-0.26c0.01,0 0.04,0.04 0.1,0.12c0.05,0.07 0.11,0.14 0.16,0.22c0.01,0.01 0.05,0.06 0.11,0.15c0.07,0.11 0.11,0.17 0.11,0.19zm-0.48,0.25c0,-0.02 -0.03,-0.07 -0.09,-0.16c-0.08,-0.12 -0.14,-0.21 -0.2,-0.29l-0.04,0c-0.03,0.08 -0.06,0.15 -0.08,0.23c-0.01,0.07 -0.03,0.12 -0.03,0.16c0,0.09 0.02,0.17 0.04,0.25c0.02,0.07 0.05,0.11 0.09,0.11c0.03,0 0.09,-0.04 0.18,-0.13c0.08,-0.09 0.13,-0.15 0.13,-0.17z" fill="#333333" id="svg_2416"/>
     <path d="m209.45,339.86c0,0.02 -0.03,0.07 -0.08,0.13c-0.11,0.13 -0.18,0.19 -0.2,0.19c-0.02,0 -0.05,-0.02 -0.08,-0.06c-0.05,-0.05 -0.1,-0.1 -0.14,-0.13l0,1.91l-0.61,0l0,-1.91c0,-0.02 -0.02,-0.06 -0.05,-0.1c-0.03,-0.05 -0.06,-0.09 -0.09,-0.11c0.02,-0.03 0.08,-0.08 0.18,-0.17c0.11,-0.08 0.18,-0.12 0.23,-0.12c0.04,0 0.08,0.03 0.13,0.08c0.06,0.06 0.11,0.11 0.16,0.17c0.03,0 0.08,-0.04 0.17,-0.13c0.08,-0.08 0.12,-0.12 0.13,-0.12c0.06,0.04 0.1,0.08 0.13,0.1c0.08,0.09 0.12,0.18 0.12,0.27z" fill="#333333" id="svg_2417"/>
    </g>
    <g id="svg_2418">
     <path d="m241.28,368.5c0,-0.29 0.11,-0.52 0.33,-0.7c0.22,-0.17 0.49,-0.26 0.84,-0.26c0.2,0 0.38,0.04 0.52,0.12c0.16,0.1 0.25,0.24 0.25,0.42c0,0.08 -0.03,0.16 -0.07,0.22c-0.07,0.09 -0.16,0.14 -0.28,0.14c-0.08,0 -0.15,-0.03 -0.21,-0.08c-0.06,-0.05 -0.09,-0.12 -0.09,-0.19c0,-0.13 0.05,-0.21 0.16,-0.26c0.1,-0.04 0.15,-0.07 0.15,-0.09c-0.02,-0.04 -0.03,-0.06 -0.05,-0.08c-0.07,-0.06 -0.15,-0.08 -0.27,-0.08c-0.12,0 -0.22,0.02 -0.3,0.08c-0.09,0.05 -0.13,0.13 -0.13,0.23l0,2.48c-0.15,0.05 -0.29,0.09 -0.42,0.14c-0.14,0.05 -0.25,0.12 -0.36,0.21l-0.07,0l0,-2.3zm0.02,2.57c0.09,-0.15 0.2,-0.27 0.34,-0.35c0.13,-0.09 0.27,-0.13 0.4,-0.13c0.05,0 0.2,0.04 0.47,0.1c0.12,0.04 0.23,0.05 0.34,0.05c0.06,0 0.13,-0.01 0.19,-0.02c0.07,-0.02 0.13,-0.04 0.17,-0.08l0.05,0l0,0.06c-0.09,0.21 -0.2,0.35 -0.32,0.44c-0.13,0.09 -0.3,0.13 -0.5,0.13c-0.15,0 -0.29,-0.02 -0.43,-0.07c-0.14,-0.05 -0.27,-0.07 -0.39,-0.07c-0.04,0 -0.09,0 -0.15,0c-0.05,0 -0.11,0.01 -0.17,0.02l0,-0.08z" fill="#D66142" id="svg_2419"/>
     <path d="m241.48,365.13c0,-0.14 0.02,-0.28 0.08,-0.41c0.03,-0.08 0.07,-0.16 0.13,-0.22c0.09,-0.13 0.16,-0.23 0.21,-0.29c0.16,-0.19 0.26,-0.29 0.32,-0.29c0.04,0 0.09,0.02 0.14,0.07c0.06,0.05 0.12,0.1 0.17,0.15c0.15,0.11 0.26,0.25 0.34,0.39c0.08,0.15 0.12,0.32 0.12,0.49c0,0.13 -0.02,0.26 -0.06,0.37c-0.04,0.12 -0.1,0.22 -0.17,0.31c-0.32,0.43 -0.51,0.64 -0.56,0.64c-0.02,0 -0.1,-0.07 -0.23,-0.21c-0.15,-0.15 -0.26,-0.28 -0.32,-0.39c-0.05,-0.08 -0.09,-0.18 -0.12,-0.29c-0.04,-0.11 -0.05,-0.22 -0.05,-0.32zm0.4,-0.52c0,0.24 0.06,0.46 0.18,0.68c0.18,0.32 0.33,0.48 0.45,0.48c0.04,0 0.06,-0.03 0.08,-0.08c0.01,-0.06 0.01,-0.11 0.01,-0.17c0,-0.26 -0.05,-0.47 -0.15,-0.62c-0.07,-0.12 -0.24,-0.28 -0.5,-0.49c-0.03,0.03 -0.05,0.06 -0.06,0.08c-0.01,0.03 -0.01,0.07 -0.01,0.12z" fill="#D66142" id="svg_2420"/>
     <path d="m241.46,360.11c0.06,-0.07 0.11,-0.12 0.14,-0.16c0.11,-0.11 0.19,-0.16 0.25,-0.16c0.13,0 0.23,0.19 0.3,0.57c0.05,0.21 0.09,0.35 0.15,0.42l0.05,0c0.02,-0.01 0.02,-0.03 0.02,-0.04l0,-0.94l0.61,0l0,2.95c-0.03,0.03 -0.09,0.06 -0.16,0.1c-0.18,0.07 -0.3,0.12 -0.35,0.14l-0.1,0l0,-1.18c-0.05,0 -0.16,0.05 -0.32,0.16c-0.08,0.05 -0.16,0.1 -0.25,0.16c-0.03,0 -0.08,-0.05 -0.14,-0.15c-0.08,-0.11 -0.11,-0.23 -0.11,-0.35c0,-0.15 0.06,-0.28 0.18,-0.39c0.12,-0.1 0.18,-0.17 0.18,-0.2c0,-0.01 -0.03,-0.07 -0.1,-0.16c-0.07,-0.1 -0.12,-0.16 -0.12,-0.19c-0.02,-0.03 -0.04,-0.13 -0.07,-0.3c-0.01,-0.03 -0.01,-0.06 -0.02,-0.09c-0.02,-0.04 -0.04,-0.07 -0.08,-0.11c-0.04,-0.04 -0.06,-0.06 -0.06,-0.08zm0.59,1.25c0,0.07 0.02,0.13 0.05,0.19c0.05,0.08 0.1,0.12 0.14,0.12c0.03,-0.01 0.04,-0.02 0.06,-0.03c0.04,-0.02 0.05,-0.05 0.05,-0.08l0,-0.55c-0.09,0.01 -0.17,0.06 -0.22,0.15c-0.05,0.07 -0.08,0.14 -0.08,0.2z" fill="#D66142" id="svg_2421"/>
     <path d="m241.59,357.39c0,-0.09 0.11,-0.24 0.35,-0.44c0.23,-0.2 0.35,-0.31 0.35,-0.34c0,-0.08 -0.19,-0.27 -0.57,-0.56c0.01,-0.02 0.09,-0.09 0.21,-0.2c0.14,-0.11 0.21,-0.17 0.23,-0.17c0.02,0 0.06,0.02 0.13,0.07c0.07,0.05 0.15,0.12 0.23,0.2c0.13,0.13 0.23,0.29 0.29,0.47c0.06,0.15 0.09,0.28 0.09,0.41c0,0.08 -0.02,0.19 -0.06,0.3c-0.05,0.12 -0.1,0.23 -0.18,0.35c-0.03,0.06 -0.13,0.17 -0.28,0.33c-0.16,0.17 -0.27,0.26 -0.31,0.26c-0.01,0 -0.05,-0.04 -0.11,-0.12c-0.05,-0.07 -0.1,-0.14 -0.15,-0.22c-0.01,-0.01 -0.05,-0.06 -0.11,-0.15c-0.08,-0.11 -0.11,-0.17 -0.11,-0.19zm0.48,-0.25c0,0.02 0.03,0.07 0.08,0.16c0.08,0.12 0.15,0.21 0.2,0.28l0.04,0c0.03,-0.07 0.06,-0.14 0.08,-0.22c0.02,-0.07 0.03,-0.12 0.03,-0.16c0,-0.09 -0.01,-0.17 -0.03,-0.25c-0.02,-0.07 -0.06,-0.11 -0.09,-0.11c-0.04,0 -0.1,0.04 -0.18,0.13c-0.09,0.09 -0.13,0.15 -0.13,0.17z" fill="#D66142" id="svg_2422"/>
     <path d="m241.61,353.58c0,-0.03 0.03,-0.07 0.09,-0.14c0.11,-0.12 0.17,-0.19 0.2,-0.19c0.02,0 0.04,0.02 0.08,0.06c0.05,0.06 0.09,0.1 0.14,0.13l0,-1.9l0.61,0l0,1.9c0,0.03 0.01,0.07 0.05,0.11c0.02,0.05 0.06,0.08 0.08,0.1c-0.01,0.03 -0.07,0.09 -0.18,0.17c-0.1,0.09 -0.18,0.13 -0.22,0.13c-0.04,0 -0.08,-0.03 -0.14,-0.09c-0.05,-0.05 -0.1,-0.11 -0.16,-0.16c-0.02,0 -0.08,0.04 -0.16,0.12c-0.08,0.09 -0.13,0.13 -0.13,0.13c-0.06,-0.04 -0.1,-0.08 -0.13,-0.1c-0.08,-0.09 -0.13,-0.18 -0.13,-0.27z" fill="#D66142" id="svg_2423"/>
    </g>
    <g id="svg_2424">
     <g id="svg_2425">
      <path d="m225.13,336.01c-7.36,0 -13.34,5.99 -13.34,13.35c0,2.99 0.99,5.76 2.66,7.99c0.83,1.1 1.83,2.08 2.96,2.88c2.17,1.55 4.84,2.47 7.72,2.47c2.95,0 5.69,-0.97 7.9,-2.6c1.17,-0.87 2.2,-1.91 3.03,-3.11c1.52,-2.16 2.41,-4.79 2.41,-7.63c0,-7.36 -5.98,-13.35 -13.34,-13.35zm10.49,20.06c-0.63,0.98 -1.4,1.87 -2.27,2.64c-2.19,1.93 -5.07,3.1 -8.22,3.1c-2.85,0 -5.48,-0.96 -7.58,-2.57c-1.02,-0.79 -1.92,-1.73 -2.66,-2.8c-1.4,-2.01 -2.22,-4.45 -2.22,-7.08c0,-6.87 5.59,-12.46 12.46,-12.46c6.87,0 12.46,5.59 12.46,12.46c0,2.47 -0.73,4.77 -1.97,6.71z" fill="#D66142" id="svg_2426"/>
     </g>
     <g id="svg_2427">
      <g id="svg_2428">
       <path d="m226.45,344.42l0,1.93c0,0.86 -0.59,1.55 -1.32,1.55c-0.37,0 -0.7,-0.17 -0.94,-0.45c-0.24,-0.28 -0.39,-0.67 -0.39,-1.1l0,-1.93c0,-0.85 0.6,-1.55 1.33,-1.55c0.37,0 0.69,0.18 0.93,0.46c0.25,0.28 0.39,0.66 0.39,1.09z" fill="#EBB07A" id="svg_2429"/>
       <g id="svg_2430">
        <path d="m226.45,344.42l0,0.54c-0.4,0.1 -0.83,0.14 -1.27,0.14c-0.47,0 -0.93,-0.06 -1.38,-0.17l0,-0.51c0,-0.86 0.6,-1.55 1.33,-1.55c0.37,0 0.69,0.17 0.94,0.45c0.24,0.29 0.38,0.67 0.38,1.1z" fill="#616161" id="svg_2431" opacity="0.2"/>
       </g>
      </g>
      <path d="m230.9,338.78c0,3.16 -2.56,5.73 -5.72,5.73c-3.17,0 -5.83,-2.68 -5.83,-5.85c0,-0.27 0.03,-0.53 0.06,-0.79c0.15,-1.06 0.61,-2.02 1.28,-2.79c0.73,-0.84 1.69,-1.47 2.8,-1.79c0.53,-0.16 1.1,-0.24 1.69,-0.24c0.54,0 1.06,0.08 1.56,0.22c1.09,0.3 2.05,0.93 2.77,1.78c0.69,0.79 1.16,1.77 1.33,2.86c0.04,0.28 0.06,0.57 0.06,0.87z" fill="#EBB07A" id="svg_2432"/>
      <g id="svg_2433">
       <polygon fill="#D66142" id="svg_2434" points="212.968,334 213.807,332.797 214.729,333.94 213.889,335.144      "/>
       <path d="m214.87,336.29c0,-0.22 -0.97,-1.16 -0.97,-1.16s-0.93,0.97 -0.93,1.16c0,0.32 0.26,0.57 0.57,0.57c0.11,0 0.21,-0.03 0.3,-0.08l-0.36,0.61l0.88,0l-0.36,-0.61c0.08,0.05 0.18,0.08 0.29,0.08c0.32,0 0.58,-0.25 0.58,-0.57z" fill="#333333" id="svg_2435"/>
       <g id="svg_2436">
        <path d="m226.45,333.3l-0.53,0.38l-0.72,-0.63l-5.75,4.6l-0.48,-1.83l-0.44,-1.7l-0.28,-1.07l-0.32,-0.89l-0.38,-1.05l-0.33,-0.91l-0.26,0.12l-1.11,0.55l-0.88,0.42l-0.59,0.29l-0.31,0.67l-0.27,0.58l-0.31,-0.68l-0.28,-0.65l0.66,-1.02l1.16,-1.8l0.72,-1.12l1.47,0.15l3.57,0.36l1.4,0.14c0,0 0.35,0.47 0.79,1.06c0.46,0.62 1.04,1.38 1.45,1.9c0.29,0.38 0.5,0.63 0.53,0.63l0.12,0.12l1.37,1.38z" fill="#D66142" id="svg_2437"/>
        <polygon fill="#333333" id="svg_2438" points="213.793,332.83 213.214,331.488 214.302,331.751       "/>
        <polygon fill="#333333" id="svg_2439" points="215.848,330.865 214.969,331.292 213.865,330.482 215.026,328.68       "/>
        <path d="m224.43,331.18l-5.9,2.94l-0.28,-1.07l-0.32,-0.89l5.05,-2.89c0.46,0.62 1.04,1.38 1.45,1.91z" fill="#333333" id="svg_2440"/>
        <path d="m220.78,328.07c-0.89,0.91 -2.28,2.28 -3.23,3.04l-0.33,-0.91l-0.26,0.12l0.26,-2.61l3.56,0.36z" fill="#333333" id="svg_2441"/>
       </g>
       <g id="svg_2442">
        <path d="m225.35,333.05l5.46,4.6l0.48,-1.83l0.44,-1.7l0.28,-1.07l0.32,-0.89l0.39,-1.05l0.33,-0.91l0.25,0.12l1.11,0.55l0.89,0.42l0.58,0.29l0.31,0.67l0.28,0.58l0.3,-0.68l0.29,-0.65l-0.66,-1.02l-1.16,-1.8l-0.72,-1.12l-1.48,0.15l-3.56,0.36l-1.41,0.14c0,0 -0.34,0.47 -0.79,1.06c-0.46,0.62 -1.03,1.38 -1.44,1.9c-0.29,0.38 -0.5,0.63 -0.53,0.63l-0.12,0.12l0.16,1.13z" fill="#D66142" id="svg_2443"/>
        <polygon fill="#333333" id="svg_2444" points="235.962,331.751 237.046,331.488 236.469,332.83       "/>
        <polygon fill="#333333" id="svg_2445" points="234.413,330.865 235.295,331.292 236.396,330.482 235.237,328.68       "/>
        <path d="m225.84,331.18l5.89,2.94l0.28,-1.07l0.32,-0.89l-5.05,-2.89c-0.46,0.62 -1.03,1.38 -1.44,1.91z" fill="#333333" id="svg_2446"/>
        <path d="m229.48,328.07c0.9,0.91 2.28,2.28 3.24,3.04l0.33,-0.91l0.25,0.12l-0.26,-2.61l-3.56,0.36z" fill="#333333" id="svg_2447"/>
       </g>
       <path d="m237.44,333.18c0,0.22 -0.95,1.15 -0.95,1.15s-0.93,-0.97 -0.93,-1.15c0,-0.32 0.26,-0.57 0.57,-0.57c0.11,0 0.21,0.03 0.3,0.08l0.08,0.08l0.07,-0.08c0.09,-0.05 0.19,-0.08 0.3,-0.08c0.31,0 0.56,0.25 0.56,0.57z" fill="#D66142" id="svg_2448"/>
       <path d="m237.03,334.97c0.01,-0.04 0.01,-0.07 0.01,-0.11c0,-0.3 -0.23,-0.53 -0.52,-0.53c-0.3,0 -0.53,0.23 -0.53,0.53c0,0.06 0.01,0.12 0.03,0.17c-0.25,0.02 -0.46,0.24 -0.46,0.5c0,0.27 0.23,0.49 0.5,0.49c0.07,0 0.15,-0.01 0.21,-0.04c0.06,-0.01 0.12,-0.04 0.18,-0.07l-0.33,0.58l0.81,0l-0.33,-0.58c0.06,0.04 0.14,0.07 0.22,0.07c0.06,0.03 0.13,0.04 0.2,0.04c0.29,0 0.52,-0.23 0.52,-0.52c0,-0.29 -0.23,-0.52 -0.51,-0.53z" fill="#333333" id="svg_2449"/>
       <path d="m230.84,337.91l-0.03,0.1l-2.93,-2.37l-2.75,2.02l-2.69,-2.06l-2.99,2.41l-0.04,-0.14c0.16,-1.06 0.61,-2.02 1.28,-2.79l2.8,-1.79c0.53,-0.16 1.1,-0.24 1.69,-0.24c0.54,0 1.06,0.08 1.56,0.22l2.77,1.77c0.69,0.8 1.16,1.78 1.33,2.87z" fill="#616161" id="svg_2450" opacity="0.2"/>
       <polygon fill="#333333" id="svg_2451" points="231.288,335.825 225.185,331.922 225.13,331.978 225.076,331.922 218.972,335.825        219.451,337.655 222.438,335.248 225.13,337.31 227.883,335.287 230.811,337.655      "/>
      </g>
      <path d="m236.06,356.99c-0.47,0.67 -0.99,1.3 -1.57,1.86c-0.46,0.45 -0.94,0.87 -1.46,1.25l-0.38,-0.12l0.7,-1.28l0.34,-0.6l-2.3,-3.3l0,6.33c-0.48,0.25 -0.97,0.48 -1.49,0.68c-1.48,0.57 -3.09,0.89 -4.77,0.89c-0.47,0 -0.93,-0.03 -1.39,-0.08c-1.34,-0.13 -2.62,-0.47 -3.82,-0.98l-0.02,-0.98l-0.12,-6.38l-2.51,3.46l-0.31,0.42l0.59,1.08l0.45,0.81l-0.59,0.18c-1.13,-0.8 -2.13,-1.78 -2.96,-2.88l0.44,-0.91l2.19,-4.58l1.48,-3.07l1.76,-0.84c0.6,-0.77 1.51,-1.28 2.55,-1.35c0,0 0.01,0 0.02,0c0.07,-0.01 0.14,-0.01 0.21,-0.01l4.75,0c0.08,0 0.15,0 0.23,0.01l0.01,0c1.11,0.07 2.08,0.65 2.67,1.52l1.33,0.6l1.54,3.22l1.99,4.13l0.44,0.92z" fill="#333333" id="svg_2452"/>
      <g id="svg_2453">
       <path d="m223.74,362.62c-1.34,-0.13 -2.62,-0.47 -3.82,-0.98l-0.02,-0.98l-0.12,-6.38l-2.51,3.46l2.94,-5.32l0.51,8.58l3.02,1.62z" fill="#616161" id="svg_2454" opacity="0.2"/>
       <path d="m234.57,358l-0.08,0.85c-0.46,0.45 -0.94,0.87 -1.46,1.25l-0.38,-0.12l0.7,-1.28l0.34,-0.6l-2.3,-3.3l0,6.33c-0.48,0.25 -0.98,0.48 -1.49,0.68l0.82,-0.63l0.4,-8.35l3.45,5.17z" fill="#616161" id="svg_2455" opacity="0.2"/>
      </g>
      <g id="svg_2456">
       <g id="svg_2457" opacity="0.2">
        <path d="m220.32,347.95l-1.76,0.84l-1.48,3.07l5.79,-5.26c-1.04,0.07 -1.95,0.58 -2.55,1.35z" fill="#616161" id="svg_2458"/>
        <path d="m225.81,346.59l-2.96,0.01l0,0l0,0.01l2.07,8.49c-0.33,0.11 -0.57,0.42 -0.58,0.78c-0.01,0.46 0.36,0.83 0.82,0.82c0.46,0 0.84,-0.37 0.84,-0.83c0.01,-0.39 -0.25,-0.71 -0.61,-0.8l2.38,-8.49l-1.96,0.01z" fill="#616161" id="svg_2459"/>
        <path d="m232.09,348.72l-1.33,-0.6c-0.59,-0.87 -1.56,-1.45 -2.67,-1.52l-0.28,0l5.82,5.34l-1.54,-3.22z" fill="#616161" id="svg_2460"/>
       </g>
       <g id="svg_2461">
        <polygon fill="#D66142" id="svg_2462" points="222.881,346.588 219.569,346.588 215.825,350.994 222.881,346.589 225.124,353.818         227.824,346.588 222.883,346.588       "/>
        <polygon fill="#D66142" id="svg_2463" points="231.137,346.588 227.824,346.588 234.882,350.994       "/>
       </g>
       <path d="m216.19,351.59c0,0.46 -0.37,0.83 -0.83,0.83c-0.46,0 -0.83,-0.37 -0.83,-0.83c0,-0.46 0.37,-0.83 0.83,-0.83c0.46,0 0.83,0.37 0.83,0.83z" fill="#FFD675" id="svg_2464"/>
       <path d="m225.96,354.65c0,0.46 -0.38,0.83 -0.84,0.83c-0.45,0 -0.83,-0.37 -0.83,-0.83c0,-0.46 0.38,-0.83 0.83,-0.83c0.46,0 0.84,0.37 0.84,0.83z" fill="#FFD675" id="svg_2465"/>
       <path d="m236.24,351.59c0,0.46 -0.38,0.83 -0.84,0.83c-0.45,0 -0.83,-0.37 -0.83,-0.83c0,-0.46 0.38,-0.83 0.83,-0.83c0.46,0 0.84,0.37 0.84,0.83z" fill="#FFD675" id="svg_2466"/>
      </g>
      <g id="svg_2467">
       <path d="m223.05,339.38c0.02,-0.08 0.04,-0.16 0.04,-0.24c0,-0.53 -0.43,-0.96 -0.96,-0.96c-0.53,0 -0.96,0.43 -0.96,0.96c0,0.08 0.02,0.16 0.04,0.24l1.84,0z" fill="#333333" id="svg_2468"/>
       <path d="m229.05,339.38c0.02,-0.08 0.04,-0.16 0.04,-0.24c0,-0.53 -0.43,-0.96 -0.96,-0.96c-0.53,0 -0.96,0.43 -0.96,0.96c0,0.08 0.02,0.16 0.04,0.24l1.84,0z" fill="#333333" id="svg_2469"/>
       <path d="m225.96,340.41c0,0.46 -0.37,0.84 -0.83,0.84c-0.46,0 -0.83,-0.38 -0.83,-0.84c0,-0.46 0.37,-1.8 0.83,-1.8c0.46,0 0.83,1.34 0.83,1.8z" fill="#616161" id="svg_2470" opacity="0.2"/>
      </g>
     </g>
     <g id="svg_2471">
      <path d="m237.03,334.97c0.01,-0.04 0.01,-0.07 0.01,-0.11c0,-0.3 -0.23,-0.53 -0.52,-0.53c-0.3,0 -0.53,0.23 -0.53,0.53c0,0.06 0.01,0.12 0.03,0.17c-0.25,0.02 -0.46,0.24 -0.46,0.5c0,0.27 0.23,0.49 0.5,0.49c0.07,0 0.15,-0.01 0.21,-0.04c0.06,-0.01 0.12,-0.04 0.18,-0.07l-0.33,0.58l0.81,0l-0.33,-0.58c0.06,0.04 0.14,0.07 0.22,0.07c0.06,0.03 0.13,0.04 0.2,0.04c0.29,0 0.52,-0.23 0.52,-0.52c0,-0.29 -0.23,-0.52 -0.51,-0.53z" fill="#616161" id="svg_2472" opacity="0.2"/>
      <path d="m236.88,332.61c-0.11,0 -0.21,0.03 -0.3,0.08l-0.07,0.07l-0.01,0l0.27,-0.61l0.28,-0.65l-0.01,-0.01l-0.64,-1.01l-1.16,-1.8l-0.72,-1.12l-1.48,0.15l-3.56,0.36l-1.41,0.14c0,0 -0.34,0.46 -0.79,1.06c-0.46,0.62 -1.03,1.38 -1.44,1.9c-0.29,0.38 -0.5,0.63 -0.53,0.63l-0.12,0.12l-0.06,0.05l0,0l0,30.72c0,0 0,0 0,0c1.68,0 3.29,-0.31 4.77,-0.88c0.52,-0.2 1.01,-0.43 1.49,-0.68l0,-6.33l2.3,3.29l-0.34,0.61l-0.7,1.28l0.38,0.11c0.52,-0.37 1,-0.79 1.46,-1.24c0.58,-0.57 1.1,-1.19 1.57,-1.86l-0.44,-0.92l-1.99,-4.14l-1.17,-2.45l2.39,1.49c-0.17,0.15 -0.28,0.37 -0.28,0.62c0,0.46 0.38,0.83 0.83,0.83c0.46,0 0.83,-0.37 0.83,-0.83c0,-0.46 -0.37,-0.83 -0.83,-0.83c-0.21,0 -0.39,0.08 -0.54,0.21l-3.72,-4.39l-3.32,0l0,0.01l0,0l0,-0.01l-1.39,0c0.01,-0.07 0.02,-0.15 0.02,-0.23l0,-1.94c0,-0.02 0,-0.03 0,-0.05c2.55,-0.58 4.45,-2.86 4.45,-5.58c0,-0.3 -0.02,-0.59 -0.06,-0.88c-0.02,-0.09 -0.03,-0.18 -0.05,-0.27l0.02,0.02l0.48,-1.83l0.44,-1.7l0.28,-1.07l0.32,-0.89l0.38,-1.05l0.33,-0.92l0.26,0.13l1.11,0.54l0.88,0.43l0.58,0.29l0.32,0.66l0.2,0.43c-0.07,-0.04 -0.16,-0.06 -0.26,-0.06c-0.31,0 -0.57,0.25 -0.57,0.57c0,0.18 0.93,1.15 0.93,1.15s0.95,-0.94 0.95,-1.15c0,-0.32 -0.25,-0.57 -0.56,-0.57z" fill="#616161" id="svg_2473" opacity="0.2"/>
     </g>
     <g id="svg_2474">
      <path d="m238.47,349.36c0,2.83 -0.89,5.47 -2.41,7.63c-0.83,1.2 -1.86,2.24 -3.03,3.11c-0.52,0.38 -1.07,0.72 -1.64,1.03c-1.87,1 -4,1.56 -6.26,1.56c-1.85,0 -3.61,-0.37 -5.21,-1.06c-0.89,-0.38 -1.73,-0.85 -2.51,-1.4c-1.13,-0.81 -2.13,-1.78 -2.95,-2.89c-1.68,-2.22 -2.67,-4.99 -2.67,-7.99c0,-4.51 2.25,-8.5 5.69,-10.91l0,1.1c-2.92,2.28 -4.81,5.83 -4.81,9.81c0,2.63 0.82,5.08 2.22,7.09c0.74,1.06 1.64,2.01 2.66,2.8c0.73,0.55 1.52,1.03 2.35,1.42c1.59,0.74 3.37,1.15 5.23,1.15c2.28,0 4.42,-0.62 6.26,-1.69c0.7,-0.41 1.36,-0.89 1.96,-1.42c0.87,-0.77 1.64,-1.65 2.27,-2.63c1.24,-1.94 1.97,-4.25 1.97,-6.72c0,-4.16 -2.05,-7.85 -5.2,-10.11l0,-1.07c3.66,2.38 6.08,6.5 6.08,11.19z" fill="#D66142" id="svg_2475"/>
     </g>
     <g id="svg_2476">
      <g id="svg_2477">
       <g id="svg_2478">
        <rect fill="#FFFFFF" height="6.88" id="svg_2479" transform="matrix(0.9605 -0.2784 0.2784 0.9605 -92.6356 75.0183)" width="4.56" x="215.51" y="360.21"/>
        <path d="m216.42,367.85l-2.04,-7.01l4.8,-1.39l2.03,7.01l-4.79,1.39zm-1.51,-6.73l1.8,6.2l3.98,-1.15l-1.8,-6.2l-3.98,1.15z" fill="#333333" id="svg_2480"/>
       </g>
       <polygon fill="#D66142" id="svg_2481" points="216.522,364.147 217.327,362.099 219.07,363.445 218.263,365.493      "/>
      </g>
      <g id="svg_2482">
       <g id="svg_2483">
        <rect fill="#FFFFFF" height="6.88" id="svg_2484" transform="matrix(0.9585 -0.2851 0.2851 0.9585 -93.9093 78.6943)" width="4.57" x="221.09" y="358.51"/>
        <path d="m222.03,366.16l-2.09,-7l4.79,-1.42l2.08,7l-4.78,1.42zm-1.56,-6.72l1.84,6.19l3.97,-1.18l-1.83,-6.19l-3.98,1.18z" fill="#333333" id="svg_2485"/>
       </g>
       <path d="m224.73,361.68c-0.1,-0.32 -1.88,-1.27 -1.88,-1.27s-0.93,1.81 -0.85,2.08c0.13,0.45 0.61,0.71 1.07,0.58c0.15,-0.05 0.29,-0.13 0.39,-0.25l-0.25,1.04l1.25,-0.37l-0.77,-0.73c0.14,0.03 0.3,0.03 0.46,-0.01c0.45,-0.13 0.71,-0.62 0.58,-1.07z" fill="#333333" id="svg_2486"/>
      </g>
      <g id="svg_2487">
       <g id="svg_2488">
        <rect fill="#FFFFFF" height="6.88" id="svg_2489" transform="matrix(0.9604 -0.2785 0.2785 0.9604 -91.287 78.0176)" width="4.57" x="226.66" y="356.86"/>
        <path d="m227.56,364.5l-2.03,-7.02l4.79,-1.38l2.03,7.01l-4.79,1.39zm-1.5,-6.73l1.79,6.21l3.98,-1.16l-1.79,-6.2l-3.98,1.15z" fill="#333333" id="svg_2490"/>
       </g>
       <path d="m230.31,359.57c0.09,0.32 -0.88,2.07 -0.88,2.07s-1.74,-1 -1.82,-1.27c-0.14,-0.45 0.12,-0.93 0.57,-1.06c0.16,-0.05 0.32,-0.04 0.46,-0.01l0.15,0.08l0.07,-0.14c0.11,-0.11 0.23,-0.2 0.39,-0.24c0.45,-0.14 0.93,0.12 1.06,0.57z" fill="#D66142" id="svg_2491"/>
      </g>
      <g id="svg_2492">
       <g id="svg_2493">
        <rect fill="#FFFFFF" height="6.88" id="svg_2494" transform="matrix(0.9605 -0.2783 0.2783 0.9605 -90.5307 79.436)" width="4.57" x="232.24" y="355.14"/>
        <path d="m233.14,362.78l-2.03,-7.01l4.79,-1.39l2.03,7.01l-4.79,1.39zm-1.51,-6.72l1.8,6.2l3.98,-1.15l-1.8,-6.21l-3.98,1.16z" fill="#333333" id="svg_2495"/>
       </g>
       <path d="m235.15,357.97c0,-0.06 -0.02,-0.11 -0.03,-0.17c-0.13,-0.42 -0.57,-0.66 -0.98,-0.53c-0.42,0.12 -0.66,0.56 -0.53,0.98c0.02,0.09 0.06,0.17 0.12,0.24c-0.36,0.14 -0.56,0.53 -0.45,0.91c0.12,0.39 0.53,0.61 0.92,0.5c0.11,-0.03 0.2,-0.09 0.28,-0.15c0.09,-0.05 0.17,-0.11 0.23,-0.18l-0.23,0.97l1.18,-0.35l-0.73,-0.68c0.11,0.03 0.23,0.03 0.35,0.01c0.1,0.01 0.2,0 0.3,-0.03c0.42,-0.12 0.66,-0.56 0.54,-0.98c-0.13,-0.41 -0.56,-0.65 -0.97,-0.54z" fill="#333333" id="svg_2496"/>
      </g>
     </g>
     <g id="svg_2497">
      <g id="svg_2498">
       <polygon fill="#333333" id="svg_2499" points="227.175,337.897 226.601,337.581 226.805,337.211 227.169,337.412 228.577,336.598        229.213,337.085 228.959,337.42 228.544,337.105      "/>
      </g>
      <g id="svg_2500">
       <polygon fill="#333333" id="svg_2501" points="223.087,337.897 221.719,337.105 221.305,337.422 221.048,337.085 221.685,336.598        223.091,337.412 223.456,337.211 223.66,337.581      "/>
      </g>
      <polygon fill="#333333" id="svg_2502" points="221.824,341.654 223.804,343.301 226.311,343.301 228.459,341.654 225.04,342.265           "/>
     </g>
    </g>
   </g>
  </g>
 </g>

</svg>