<?xml version="1.0"?>
<svg width="40" height="56" xmlns="http://www.w3.org/2000/svg" xmlns:svg="http://www.w3.org/2000/svg" enable-background="new 0 0 450 450" version="1.1" xml:space="preserve">
 <g class="layer">
  <title>Layer 1</title>
  <g id="svg_1906" transform="translate(-8.71413, 0.10627) translate(-148.343, -252.825)">
   <g id="svg_1907">
    <g id="svg_1908">
     <g id="svg_1909">
      <path d="m161.6,308.58c-2.36,0.01 -4.28,-1.87 -4.28,-4.19l-0.12,-47.3c-0.01,-2.33 1.91,-4.22 4.27,-4.22l31.26,0.06c2.35,0.01 4.26,1.9 4.26,4.22l0,47.21c0,2.3 -1.9,4.18 -4.25,4.19l-31.14,0.03z" fill="#C9C9C9" id="svg_1910"/>
     </g>
     <path d="m161.99,308.47c-2.33,0 -4.22,-1.89 -4.22,-4.2l0,-47.19c0,-2.32 1.89,-4.2 4.22,-4.2l30.8,0c2.33,0 4.21,1.88 4.21,4.2l0,47.19c0,2.31 -1.88,4.2 -4.21,4.2l-30.8,0z" fill="#FFFFFF" id="svg_1911"/>
     <g id="svg_1912">
      <path d="m160.69,260.29c0,0.07 -0.13,0.18 -0.38,0.35c-0.28,0.18 -0.52,0.27 -0.73,0.27c-0.11,0 -0.19,-0.05 -0.26,-0.15c-0.05,-0.08 -0.08,-0.15 -0.08,-0.21l0,-3.17c0,-0.06 0,-0.11 -0.02,-0.13c-0.02,-0.02 -0.05,-0.03 -0.09,-0.03c-0.02,0 -0.07,0 -0.14,0.02c-0.08,0.02 -0.14,0.02 -0.17,0.01c-0.02,-0.02 -0.03,-0.03 -0.03,-0.05c0,-0.05 0.05,-0.1 0.15,-0.17c0.1,-0.06 0.2,-0.14 0.3,-0.24c0.09,-0.07 0.18,-0.14 0.27,-0.22c0.09,-0.07 0.17,-0.1 0.23,-0.1c0.1,0 0.2,0.06 0.29,0.16c0.1,0.12 0.15,0.22 0.15,0.32l0,3.36c0.01,0.02 0.03,0.03 0.04,0.03c0.02,0.03 0.05,0.04 0.06,0.04c0.04,-0.01 0.06,-0.02 0.08,-0.03c0.06,-0.02 0.12,-0.06 0.2,-0.13l0.11,0l0.02,0.07z" fill="#333333" id="svg_1913"/>
      <path d="m164.57,258.74c0,0.25 -0.05,0.48 -0.15,0.7c-0.16,0.36 -0.43,0.68 -0.82,0.95c-0.22,0.15 -0.37,0.25 -0.47,0.31c-0.25,0.13 -0.53,0.2 -0.84,0.2c-0.48,0 -0.86,-0.2 -1.16,-0.61c-0.28,-0.38 -0.42,-0.82 -0.42,-1.33c0,-0.34 0.09,-0.67 0.26,-1.01c0.11,-0.22 0.25,-0.43 0.43,-0.63c0.21,-0.24 0.44,-0.44 0.67,-0.58c0.3,-0.19 0.59,-0.28 0.87,-0.28c0.5,0 0.9,0.24 1.21,0.73c0.28,0.44 0.42,0.96 0.42,1.55zm-0.93,0.67c0,-0.3 -0.04,-0.59 -0.12,-0.87c-0.09,-0.28 -0.21,-0.54 -0.36,-0.78c-0.17,-0.27 -0.34,-0.45 -0.5,-0.56c-0.11,-0.08 -0.21,-0.12 -0.31,-0.12c-0.23,0 -0.41,0.11 -0.56,0.33c-0.14,0.21 -0.21,0.46 -0.21,0.74c0,0.17 0.01,0.33 0.05,0.48c0.04,0.23 0.14,0.49 0.27,0.78c0.15,0.34 0.33,0.59 0.52,0.75c0.16,0.13 0.32,0.2 0.47,0.2c0.24,0 0.42,-0.09 0.55,-0.26c0.13,-0.16 0.2,-0.4 0.2,-0.69z" fill="#333333" id="svg_1914"/>
     </g>
     <g id="svg_1915">
      <path d="m194.35,301.58c0,-0.07 0.13,-0.19 0.38,-0.35c0.28,-0.18 0.52,-0.28 0.73,-0.28c0.11,0 0.2,0.06 0.26,0.16c0.05,0.08 0.07,0.14 0.07,0.2l0,3.18c0,0.06 0.01,0.11 0.03,0.13c0.02,0.02 0.05,0.03 0.09,0.03c0.02,0 0.07,-0.01 0.14,-0.02c0.08,-0.02 0.13,-0.02 0.17,-0.01c0.02,0.02 0.02,0.03 0.02,0.05c0,0.05 -0.04,0.1 -0.15,0.16c-0.09,0.07 -0.19,0.15 -0.3,0.24c-0.08,0.08 -0.17,0.15 -0.26,0.23c-0.09,0.06 -0.17,0.1 -0.23,0.1c-0.11,0 -0.21,-0.06 -0.3,-0.17c-0.09,-0.11 -0.14,-0.21 -0.14,-0.31l0,-3.36c-0.02,-0.02 -0.03,-0.03 -0.04,-0.04c-0.03,-0.02 -0.05,-0.03 -0.07,-0.03c-0.03,0.01 -0.06,0.02 -0.08,0.03c-0.05,0.02 -0.12,0.06 -0.2,0.13l-0.1,0l-0.02,-0.07z" fill="#333333" id="svg_1916"/>
      <path d="m190.47,303.12c0,-0.24 0.05,-0.47 0.15,-0.69c0.16,-0.36 0.43,-0.68 0.82,-0.95c0.22,-0.16 0.37,-0.26 0.47,-0.31c0.25,-0.14 0.53,-0.2 0.84,-0.2c0.47,0 0.86,0.2 1.16,0.61c0.28,0.38 0.42,0.82 0.42,1.33c0,0.34 -0.09,0.67 -0.26,1.01c-0.11,0.22 -0.25,0.42 -0.43,0.62c-0.22,0.25 -0.44,0.44 -0.67,0.59c-0.3,0.19 -0.59,0.28 -0.87,0.28c-0.5,0 -0.9,-0.25 -1.21,-0.73c-0.28,-0.44 -0.42,-0.96 -0.42,-1.56zm0.93,-0.66c0,0.29 0.04,0.58 0.12,0.86c0.08,0.29 0.2,0.55 0.36,0.79c0.17,0.26 0.34,0.45 0.5,0.56c0.11,0.08 0.21,0.12 0.31,0.12c0.23,0 0.41,-0.11 0.56,-0.33c0.14,-0.22 0.21,-0.46 0.21,-0.74c0,-0.17 -0.01,-0.33 -0.05,-0.48c-0.05,-0.23 -0.14,-0.5 -0.27,-0.78c-0.15,-0.35 -0.33,-0.6 -0.52,-0.76c-0.16,-0.12 -0.32,-0.19 -0.47,-0.19c-0.24,0 -0.42,0.09 -0.56,0.25c-0.13,0.17 -0.19,0.4 -0.19,0.7z" fill="#333333" id="svg_1917"/>
     </g>
    </g>
   </g>
   <g id="svg_1918">
    <path d="m186.99,260.33c0.04,-0.18 0.07,-0.36 0.06,-0.54c0.01,-1.33 -1.08,-2.41 -2.41,-2.41c-1.33,0.01 -2.4,1.08 -2.4,2.41c0,0.28 0.05,0.56 0.14,0.81c-1.17,0.09 -2.09,1.07 -2.1,2.27c0.01,1.26 1.03,2.27 2.28,2.27c0.34,0 1.52,-0.37 1.78,-0.52l-1.54,2.65l3.75,0l-1.54,-2.65c0.31,0.19 1.62,0.52 1.94,0.52c1.34,0 2.41,-1.08 2.41,-2.41c0,-1.31 -1.05,-2.38 -2.37,-2.4z" fill="#333333" id="svg_1919"/>
    <path d="m186.99,260.33c0.04,-0.18 0.07,-0.36 0.06,-0.54c0.01,-1.33 -1.08,-2.41 -2.41,-2.41c0,0 0,0.01 -0.01,0.01l0,9.88l1.92,0l-1.54,-2.64c0.31,0.18 1.62,0.51 1.94,0.51c1.34,0 2.41,-1.08 2.41,-2.41c0,-1.31 -1.05,-2.38 -2.37,-2.4z" fill="#616161" id="svg_1920" opacity="0.2"/>
   </g>
   <g id="svg_1921">
    <path d="m179.63,267.34c0.04,-0.18 0.06,-0.36 0.06,-0.54c0,-1.33 -1.08,-2.41 -2.41,-2.41c-1.33,0 -2.41,1.08 -2.41,2.41c0,0.28 0.05,0.56 0.15,0.81c-1.18,0.09 -2.1,1.07 -2.1,2.27c0,1.26 1.02,2.27 2.28,2.27c0.33,0.01 1.52,-0.36 1.77,-0.52l-1.54,2.65l3.76,-0.01l-1.54,-2.64c0.3,0.19 1.62,0.52 1.94,0.52c1.33,0 2.41,-1.08 2.41,-2.41c0,-1.31 -1.06,-2.38 -2.37,-2.4z" fill="#333333" id="svg_1922"/>
    <path d="m179.63,267.34c0.04,-0.18 0.06,-0.36 0.06,-0.54c0,-1.33 -1.08,-2.41 -2.41,-2.41c0,0 -0.01,0 -0.01,0l0,9.89l1.92,-0.01l-1.54,-2.64c0.31,0.19 1.62,0.52 1.94,0.52c1.33,0 2.41,-1.08 2.41,-2.41c0,-1.31 -1.06,-2.38 -2.37,-2.4z" fill="#616161" id="svg_1923" opacity="0.2"/>
   </g>
   <g id="svg_1924">
    <path d="m186.99,272.49c0.04,-0.18 0.07,-0.35 0.06,-0.54c0.01,-1.33 -1.08,-2.4 -2.41,-2.4c-1.33,0 -2.4,1.07 -2.4,2.4c0,0.29 0.05,0.56 0.14,0.82c-1.17,0.09 -2.09,1.07 -2.1,2.27c0.01,1.25 1.03,2.27 2.28,2.27c0.34,0 1.52,-0.37 1.78,-0.52l-1.54,2.64l3.75,0l-1.54,-2.64c0.31,0.18 1.62,0.52 1.94,0.52c1.34,0 2.41,-1.08 2.41,-2.41c0,-1.32 -1.05,-2.39 -2.37,-2.41z" fill="#333333" id="svg_1925"/>
    <path d="m186.99,272.49c0.04,-0.18 0.07,-0.35 0.06,-0.54c0.01,-1.33 -1.08,-2.4 -2.41,-2.4c0,0 0,0 -0.01,0l0,9.88l1.92,0l-1.54,-2.64c0.31,0.18 1.62,0.52 1.94,0.52c1.34,0 2.41,-1.08 2.41,-2.41c0,-1.32 -1.05,-2.39 -2.37,-2.41z" fill="#616161" id="svg_1926" opacity="0.2"/>
   </g>
   <g id="svg_1927">
    <path d="m167.8,260.33c-0.03,-0.18 -0.06,-0.36 -0.06,-0.54c0,-1.33 1.08,-2.41 2.41,-2.41c1.33,0.01 2.41,1.08 2.41,2.41c0,0.28 -0.05,0.56 -0.14,0.81c1.17,0.09 2.09,1.07 2.09,2.27c0,1.26 -1.02,2.27 -2.27,2.27c-0.34,0 -1.53,-0.37 -1.78,-0.52l1.54,2.65l-3.76,0l1.54,-2.65c-0.3,0.19 -1.62,0.52 -1.94,0.52c-1.33,0 -2.41,-1.08 -2.4,-2.41c-0.01,-1.31 1.05,-2.38 2.36,-2.4z" fill="#333333" id="svg_1928"/>
    <path d="m167.8,260.33c-0.03,-0.18 -0.06,-0.36 -0.06,-0.54c0,-1.33 1.08,-2.41 2.41,-2.41c0,0 0.01,0.01 0.01,0.01l0,9.88l-1.92,0l1.54,-2.64c-0.31,0.18 -1.62,0.51 -1.94,0.51c-1.33,0 -2.41,-1.08 -2.41,-2.41c0,-1.31 1.06,-2.38 2.37,-2.4z" fill="#616161" id="svg_1929" opacity="0.2"/>
   </g>
   <g id="svg_1930">
    <path d="m167.8,272.49c-0.03,-0.18 -0.06,-0.35 -0.06,-0.54c0,-1.33 1.08,-2.4 2.41,-2.4c1.33,0 2.41,1.07 2.41,2.4c0,0.29 -0.05,0.56 -0.14,0.82c1.17,0.09 2.09,1.07 2.09,2.27c0,1.25 -1.02,2.27 -2.27,2.27c-0.34,0 -1.53,-0.37 -1.78,-0.52l1.54,2.64l-3.76,0l1.54,-2.64c-0.3,0.18 -1.62,0.52 -1.94,0.52c-1.33,0 -2.41,-1.08 -2.4,-2.41c-0.01,-1.32 1.05,-2.39 2.36,-2.41z" fill="#333333" id="svg_1931"/>
    <path d="m167.8,272.49c-0.03,-0.18 -0.06,-0.35 -0.06,-0.54c0,-1.33 1.08,-2.4 2.41,-2.4c0,0 0.01,0 0.01,0l0,9.88l-1.92,0l1.54,-2.64c-0.31,0.18 -1.62,0.52 -1.94,0.52c-1.33,0 -2.41,-1.08 -2.41,-2.41c0,-1.32 1.06,-2.39 2.37,-2.41z" fill="#616161" id="svg_1932" opacity="0.2"/>
   </g>
   <g id="svg_1933">
    <path d="m186.99,301.02c0.04,0.17 0.07,0.35 0.06,0.53c0.01,1.33 -1.08,2.41 -2.41,2.41c-1.33,0 -2.4,-1.08 -2.4,-2.41c0,-0.28 0.05,-0.56 0.14,-0.81c-1.17,-0.09 -2.09,-1.07 -2.1,-2.27c0.01,-1.25 1.03,-2.27 2.28,-2.27c0.34,0 1.52,0.37 1.78,0.52l-1.54,-2.64l3.75,0l-1.54,2.64c0.31,-0.19 1.62,-0.52 1.94,-0.52c1.34,0 2.41,1.08 2.41,2.41c0,1.32 -1.05,2.39 -2.37,2.41z" fill="#333333" id="svg_1934"/>
    <path d="m186.99,301.02c0.04,0.17 0.07,0.35 0.06,0.53c0.01,1.33 -1.08,2.41 -2.41,2.41c0,0 0,0 -0.01,0l0,-9.88l1.92,0l-1.54,2.64c0.31,-0.19 1.62,-0.52 1.94,-0.52c1.34,0 2.41,1.08 2.41,2.41c0,1.32 -1.05,2.39 -2.37,2.41z" fill="#616161" id="svg_1935" opacity="0.2"/>
   </g>
   <g id="svg_1936">
    <path d="m179.63,294.01c0.04,0.17 0.06,0.35 0.06,0.54c0,1.32 -1.08,2.4 -2.41,2.4c-1.33,0 -2.41,-1.08 -2.41,-2.4c0,-0.29 0.05,-0.56 0.15,-0.82c-1.18,-0.09 -2.1,-1.07 -2.1,-2.26c0,-1.26 1.02,-2.28 2.28,-2.28c0.33,0 1.52,0.37 1.77,0.52l-1.54,-2.65l3.76,0.01l-1.54,2.64c0.3,-0.19 1.62,-0.52 1.94,-0.52c1.33,0 2.41,1.08 2.41,2.41c0,1.32 -1.06,2.39 -2.37,2.41z" fill="#333333" id="svg_1937"/>
    <path d="m179.63,294.01c0.04,0.17 0.06,0.35 0.06,0.54c0,1.32 -1.08,2.4 -2.41,2.4c0,0 -0.01,0 -0.01,0l0,-9.88l1.92,0l-1.54,2.64c0.31,-0.19 1.62,-0.52 1.94,-0.52c1.33,0 2.41,1.08 2.41,2.41c0,1.32 -1.06,2.39 -2.37,2.41z" fill="#616161" id="svg_1938" opacity="0.2"/>
   </g>
   <g id="svg_1939">
    <path d="m186.99,288.85c0.04,0.18 0.07,0.35 0.06,0.54c0.01,1.33 -1.08,2.4 -2.41,2.4c-1.33,0 -2.4,-1.07 -2.4,-2.4c0,-0.29 0.05,-0.56 0.14,-0.82c-1.17,-0.08 -2.09,-1.07 -2.1,-2.26c0.01,-1.26 1.03,-2.28 2.28,-2.28c0.34,0 1.52,0.37 1.78,0.52l-1.54,-2.64l3.75,0l-1.54,2.64c0.31,-0.18 1.62,-0.51 1.94,-0.51c1.34,-0.01 2.41,1.07 2.41,2.41c0,1.31 -1.05,2.38 -2.37,2.4z" fill="#333333" id="svg_1940"/>
    <path d="m186.99,288.85c0.04,0.18 0.07,0.35 0.06,0.54c0.01,1.33 -1.08,2.4 -2.41,2.4c0,0 0,0 -0.01,0l0,-9.88l1.92,0l-1.54,2.64c0.31,-0.19 1.62,-0.51 1.94,-0.51c1.34,-0.01 2.41,1.07 2.41,2.41c0,1.31 -1.05,2.38 -2.37,2.4z" fill="#616161" id="svg_1941" opacity="0.2"/>
   </g>
   <g id="svg_1942">
    <path d="m167.8,301.02c-0.03,0.17 -0.06,0.35 -0.06,0.53c0,1.33 1.08,2.41 2.41,2.41c1.33,0 2.41,-1.08 2.41,-2.41c0,-0.28 -0.05,-0.56 -0.14,-0.81c1.17,-0.09 2.09,-1.07 2.09,-2.27c0,-1.25 -1.02,-2.27 -2.27,-2.27c-0.34,0 -1.53,0.37 -1.78,0.52l1.54,-2.64l-3.76,0l1.54,2.64c-0.3,-0.19 -1.62,-0.52 -1.94,-0.52c-1.33,0 -2.41,1.08 -2.4,2.41c-0.01,1.32 1.05,2.39 2.36,2.41z" fill="#333333" id="svg_1943"/>
    <path d="m167.8,301.02c-0.03,0.17 -0.06,0.35 -0.06,0.53c0,1.33 1.08,2.41 2.41,2.41c0,0 0.01,0 0.01,0l0,-9.88l-1.92,0l1.54,2.64c-0.31,-0.19 -1.62,-0.52 -1.94,-0.52c-1.33,0 -2.41,1.08 -2.41,2.41c0,1.32 1.06,2.39 2.37,2.41z" fill="#616161" id="svg_1944" opacity="0.2"/>
   </g>
   <g id="svg_1945">
    <path d="m167.8,288.85c-0.03,0.18 -0.06,0.35 -0.06,0.54c0,1.33 1.08,2.4 2.41,2.4c1.33,0 2.41,-1.07 2.41,-2.4c0,-0.29 -0.05,-0.56 -0.14,-0.82c1.17,-0.08 2.09,-1.07 2.09,-2.26c0,-1.26 -1.02,-2.28 -2.27,-2.28c-0.34,0 -1.53,0.37 -1.78,0.52l1.54,-2.64l-3.76,0l1.54,2.64c-0.3,-0.18 -1.62,-0.51 -1.94,-0.51c-1.33,-0.01 -2.41,1.07 -2.4,2.41c-0.01,1.31 1.05,2.38 2.36,2.4z" fill="#333333" id="svg_1946"/>
    <path d="m167.8,288.85c-0.03,0.18 -0.06,0.35 -0.06,0.54c0,1.33 1.08,2.4 2.41,2.4c0,0 0.01,0 0.01,0l0,-9.88l-1.92,0l1.54,2.64c-0.31,-0.19 -1.62,-0.51 -1.94,-0.51c-1.33,-0.01 -2.41,1.07 -2.41,2.41c0,1.31 1.06,2.38 2.37,2.4z" fill="#616161" id="svg_1947" opacity="0.2"/>
   </g>
   <g id="svg_1948">
    <path d="m161.54,263.69c0.01,-0.04 0.01,-0.08 0.01,-0.13c0,-0.3 -0.24,-0.54 -0.55,-0.54c-0.3,0 -0.55,0.24 -0.55,0.54c0,0.07 0.02,0.13 0.04,0.19c-0.27,0.02 -0.48,0.25 -0.48,0.52c0,0.29 0.23,0.52 0.52,0.52c0.07,0 0.34,-0.09 0.4,-0.12l-0.35,0.6l0.86,0l-0.35,-0.6c0.07,0.04 0.37,0.12 0.44,0.12c0.3,0 0.55,-0.25 0.55,-0.55c0,-0.3 -0.24,-0.55 -0.54,-0.55z" fill="#333333" id="svg_1949"/>
    <path d="m161.54,263.69c0.01,-0.04 0.01,-0.08 0.01,-0.13c0,-0.3 -0.24,-0.54 -0.55,-0.54c0,0 0,0 0,0l0,2.25l0.44,0l-0.35,-0.6c0.07,0.04 0.37,0.12 0.44,0.12c0.3,0 0.55,-0.25 0.55,-0.55c0,-0.3 -0.24,-0.55 -0.54,-0.55z" fill="#616161" id="svg_1950" opacity="0.2"/>
   </g>
   <g id="svg_1951">
    <path d="m194.37,299c0.01,0.04 0.01,0.08 0.01,0.12c0,0.31 -0.24,0.55 -0.55,0.55c-0.3,0 -0.55,-0.24 -0.55,-0.55c0,-0.06 0.02,-0.12 0.04,-0.18c-0.27,-0.02 -0.48,-0.25 -0.48,-0.52c0,-0.28 0.23,-0.52 0.52,-0.52c0.07,0 0.35,0.08 0.4,0.12l-0.35,-0.6l0.86,0l-0.35,0.6c0.07,-0.04 0.37,-0.12 0.44,-0.12c0.31,0 0.55,0.25 0.55,0.55c0,0.3 -0.24,0.55 -0.54,0.55z" fill="#333333" id="svg_1952"/>
    <path d="m194.37,299c0.01,0.04 0.01,0.08 0.01,0.12c0,0.31 -0.24,0.55 -0.55,0.55c0,0 0,0 0,0l0,-2.25l0.44,0l-0.35,0.6c0.07,-0.04 0.37,-0.12 0.44,-0.12c0.31,0 0.55,0.25 0.55,0.55c0,0.3 -0.24,0.55 -0.54,0.55z" fill="#616161" id="svg_1953" opacity="0.2"/>
   </g>
  </g>
 </g>

</svg>