<?xml version="1.0"?>
<svg width="40" height="56" xmlns="http://www.w3.org/2000/svg" xmlns:svg="http://www.w3.org/2000/svg" enable-background="new 0 0 450 450" version="1.1" xml:space="preserve">
 <g class="layer">
  <title>Layer 1</title>
  <g id="svg_692" transform="translate(-15.1966, 2.97556) translate(-384.707, -387.035)">
   <g id="svg_693">
    <g id="svg_694">
     <g id="svg_695">
      <path d="m404.41,439.99c-2.36,0.01 -4.28,-1.87 -4.25,-4.18l-0.12,-47.31c-0.04,-2.33 1.88,-4.22 4.24,-4.21l31.26,0.05c2.36,0.01 4.27,1.9 4.3,4.23l0,47.2c-0.03,2.31 -1.94,4.19 -4.28,4.19l-31.15,0.03z" fill="#C9C9C9" id="svg_696"/>
     </g>
     <path d="m404.8,439.88c-2.32,0 -4.21,-1.89 -4.19,-4.2l0,-47.19c-0.02,-2.32 1.87,-4.2 4.19,-4.2l30.8,0c2.33,0 4.22,1.88 4.24,4.2l0,47.19c-0.02,2.31 -1.91,4.2 -4.24,4.2l-30.8,0z" fill="#FFFFFF" id="svg_697"/>
     <g id="svg_698">
      <path d="m433.28,433.62c0.07,-0.19 0.19,-0.41 0.36,-0.67c0.22,-0.34 0.41,-0.51 0.55,-0.51l1.86,0c0.02,-0.01 0.05,-0.01 0.08,-0.02c0.03,-0.01 0.07,-0.03 0.12,-0.05l0.11,0l0,0.15c-0.08,0.07 -0.15,0.14 -0.21,0.22c-0.22,0.28 -0.48,0.61 -0.79,1.01c-0.23,0.3 -0.39,0.53 -0.5,0.7c-0.16,0.27 -0.25,0.48 -0.25,0.65c0,0.1 0.02,0.21 0.06,0.32c0.05,0.11 0.11,0.21 0.18,0.29c0.04,0.04 0.12,0.1 0.23,0.16c0.14,0.08 0.25,0.12 0.32,0.12c0.12,0 0.28,-0.08 0.48,-0.24c0.2,-0.16 0.32,-0.24 0.35,-0.24c0.08,0 0.13,0.04 0.13,0.1c0,0.07 -0.09,0.21 -0.27,0.39c-0.17,0.19 -0.34,0.34 -0.49,0.44c-0.22,0.14 -0.34,0.22 -0.36,0.24c-0.19,0.1 -0.35,0.15 -0.48,0.15c-0.26,0 -0.5,-0.1 -0.72,-0.31c-0.22,-0.21 -0.33,-0.45 -0.33,-0.73c0,-0.27 0.08,-0.52 0.23,-0.75c0.02,-0.04 0.14,-0.19 0.34,-0.46c0.28,-0.38 0.44,-0.61 0.5,-0.68c0.22,-0.3 0.34,-0.46 0.34,-0.47c0,-0.06 -0.04,-0.1 -0.11,-0.11c-0.07,-0.01 -0.14,-0.01 -0.2,-0.01c-0.05,0 -0.1,0 -0.16,0c-0.06,0 -0.09,0 -0.09,0c-0.36,0 -0.62,0.04 -0.8,0.13c-0.13,0.11 -0.26,0.21 -0.39,0.32c-0.01,0 -0.03,-0.01 -0.05,-0.01c-0.02,-0.01 -0.03,-0.02 -0.04,-0.02l0,-0.11z" fill="#333333" id="svg_699"/>
     </g>
     <g id="svg_700">
      <path d="m407.85,391.06c-0.08,0.19 -0.2,0.41 -0.36,0.67c-0.23,0.34 -0.41,0.52 -0.55,0.52l-1.86,0c-0.02,0 -0.05,0.01 -0.08,0.02c-0.03,0.01 -0.07,0.02 -0.12,0.04l-0.11,0l0,-0.15c0.08,-0.06 0.15,-0.13 0.21,-0.21c0.21,-0.28 0.48,-0.62 0.79,-1.02c0.22,-0.29 0.39,-0.52 0.5,-0.69c0.16,-0.27 0.25,-0.49 0.25,-0.65c0,-0.1 -0.03,-0.21 -0.07,-0.33s-0.1,-0.21 -0.17,-0.29c-0.04,-0.04 -0.12,-0.09 -0.24,-0.16c-0.14,-0.08 -0.25,-0.12 -0.32,-0.12c-0.12,0 -0.28,0.08 -0.48,0.24c-0.2,0.16 -0.32,0.24 -0.35,0.24c-0.08,0 -0.12,-0.03 -0.12,-0.1c0,-0.07 0.09,-0.2 0.26,-0.39c0.18,-0.19 0.34,-0.33 0.5,-0.44c0.21,-0.14 0.33,-0.22 0.36,-0.23c0.18,-0.11 0.34,-0.16 0.48,-0.16c0.26,0 0.5,0.1 0.72,0.31c0.22,0.21 0.33,0.46 0.33,0.73c0,0.28 -0.08,0.53 -0.23,0.76c-0.03,0.04 -0.14,0.19 -0.34,0.46c-0.28,0.38 -0.45,0.6 -0.5,0.67c-0.23,0.3 -0.34,0.46 -0.34,0.48c0,0.05 0.03,0.09 0.11,0.1c0.07,0.01 0.14,0.02 0.2,0.02c0.04,0 0.1,0 0.15,0c0.06,0 0.1,0 0.1,0c0.36,0 0.62,-0.05 0.79,-0.14c0.13,-0.1 0.26,-0.21 0.39,-0.31c0.02,0 0.04,0 0.06,0.01c0.01,0.01 0.03,0.02 0.04,0.02l0,0.1z" fill="#333333" id="svg_701"/>
     </g>
    </g>
   </g>
   <g id="svg_702">
    <path d="m417.96,401.39c-0.04,-0.17 -0.06,-0.34 -0.06,-0.51c0,-1.28 1.04,-2.32 2.32,-2.32c1.28,0 2.31,1.03 2.31,2.32c0,0.27 -0.05,0.53 -0.14,0.78c1.13,0.09 2.02,1.03 2.02,2.18c0,1.21 -0.98,2.19 -2.19,2.19c-0.32,0 -1.46,-0.36 -1.71,-0.5l1.48,2.54l-3.61,0l1.48,-2.54c-0.29,0.18 -1.56,0.5 -1.86,0.5c-1.29,0 -2.32,-1.04 -2.32,-2.32c0,-1.27 1.02,-2.3 2.28,-2.32z" fill="#333333" id="svg_703"/>
    <path d="m417.96,401.39c-0.04,-0.17 -0.06,-0.34 -0.06,-0.51c0,-1.28 1.04,-2.32 2.32,-2.32c0,0 0,0 0.01,0l0,9.51l-1.85,0l1.48,-2.54c-0.29,0.18 -1.56,0.5 -1.86,0.5c-1.29,0 -2.32,-1.04 -2.32,-2.32c0,-1.27 1.02,-2.3 2.28,-2.32z" fill="#616161" id="svg_704" opacity="0.2"/>
   </g>
   <g id="svg_705">
    <path d="m406.72,394.87c0.01,-0.04 0.01,-0.08 0.01,-0.12c0,-0.29 -0.23,-0.53 -0.52,-0.52c-0.3,0 -0.53,0.23 -0.53,0.52c0,0.06 0.01,0.13 0.03,0.18c-0.26,0.02 -0.46,0.23 -0.46,0.5c0,0.27 0.22,0.5 0.5,0.5c0.07,0 0.33,-0.08 0.39,-0.12l-0.34,0.58l0.83,0l-0.34,-0.58c0.06,0.05 0.35,0.12 0.42,0.12c0.3,0 0.53,-0.24 0.53,-0.53c0,-0.29 -0.23,-0.52 -0.52,-0.53z" fill="#333333" id="svg_706"/>
    <path d="m406.72,394.87c0.01,-0.04 0.01,-0.08 0.01,-0.12c0,-0.29 -0.23,-0.53 -0.52,-0.52l-0.01,0l0,2.16l0.43,0l-0.34,-0.58c0.07,0.05 0.35,0.12 0.42,0.12c0.3,0 0.53,-0.24 0.53,-0.53c0,-0.29 -0.23,-0.52 -0.52,-0.53z" fill="#616161" id="svg_707" opacity="0.2"/>
   </g>
   <g id="svg_708">
    <path d="m435.41,429.93c0.01,0.03 0.02,0.07 0.02,0.11c0,0.29 -0.24,0.53 -0.53,0.53c-0.3,0 -0.53,-0.24 -0.53,-0.53c0,-0.06 0.01,-0.12 0.03,-0.18c-0.26,-0.02 -0.46,-0.23 -0.46,-0.49c0,-0.28 0.22,-0.5 0.5,-0.5c0.07,0 0.33,0.08 0.39,0.11l-0.34,-0.58l0.83,0l-0.34,0.58c0.07,-0.04 0.36,-0.11 0.42,-0.11c0.3,0 0.53,0.23 0.53,0.53c0,0.28 -0.23,0.52 -0.52,0.53z" fill="#333333" id="svg_709"/>
    <path d="m435.41,429.93c0.01,0.03 0.02,0.07 0.02,0.11c0,0.29 -0.24,0.53 -0.53,0.53c0,0 0,0 0,0l-0.01,-2.17l0.43,0l-0.34,0.58c0.07,-0.04 0.36,-0.11 0.42,-0.11c0.3,0 0.53,0.23 0.53,0.53c0,0.28 -0.23,0.52 -0.52,0.53z" fill="#616161" id="svg_710" opacity="0.2"/>
   </g>
   <g id="svg_711">
    <path d="m418.32,422.89c-0.03,0.17 -0.06,0.34 -0.06,0.52c0,1.28 1.04,2.31 2.32,2.31c1.28,0 2.31,-1.03 2.32,-2.31c0,-0.28 -0.05,-0.54 -0.14,-0.79c1.13,-0.08 2.01,-1.03 2.01,-2.18c0,-1.21 -0.98,-2.18 -2.19,-2.19c-0.32,0 -1.46,0.36 -1.71,0.5l1.49,-2.54l-3.62,0.01l1.49,2.54c-0.3,-0.19 -1.56,-0.5 -1.87,-0.5c-1.28,0 -2.32,1.03 -2.32,2.32c0,1.26 1.02,2.29 2.28,2.31z" fill="#333333" id="svg_712"/>
    <path d="m418.32,422.89c-0.03,0.17 -0.06,0.34 -0.06,0.52c0,1.28 1.04,2.31 2.32,2.31c0,0 0.01,0 0.01,0l0,-9.51l-1.85,0.01l1.49,2.54c-0.3,-0.19 -1.56,-0.5 -1.87,-0.5c-1.28,0 -2.32,1.03 -2.32,2.32c0,1.26 1.02,2.29 2.28,2.31z" fill="#616161" id="svg_713" opacity="0.2"/>
   </g>
  </g>
 </g>

</svg>