<?xml version="1.0"?>
<svg width="40" height="56" xmlns="http://www.w3.org/2000/svg" xmlns:svg="http://www.w3.org/2000/svg" enable-background="new 0 0 450 450" version="1.1" xml:space="preserve">
 <g class="layer">
  <title>Layer 1</title>
  <g id="svg_667" transform="translate(0.022901, 0.0833699) scale(1.0474, 1) translate(-0.022901, -0.0833699) translate(0.022901, 0.0857548) matrix(1, 0, 0, 1.04989, -400.883, -335.495)">
   <g id="svg_668">
    <g id="svg_669">
     <g id="svg_670">
      <path d="m405.16,372.67c-2.24,0.01 -4.07,-1.78 -4.05,-3.98l-0.11,-45.02c-0.03,-2.22 1.79,-4.02 4.04,-4.01l29.75,0.05c2.23,0.01 4.06,1.81 4.08,4.02l0,44.92c-0.02,2.2 -1.84,3.99 -4.07,3.99l-29.64,0.03z" fill="#C9C9C9" id="svg_671"/>
     </g>
     <path d="m405.53,372.56c-2.21,0 -4.01,-1.79 -3.98,-4l0,-44.91c-0.03,-2.2 1.77,-3.99 3.98,-3.99l29.31,0c2.21,0 4.01,1.79 4.04,3.99l0,44.91c-0.03,2.21 -1.83,4 -4.04,4l-29.31,0z" fill="#FFFFFF" id="svg_672"/>
     <g id="svg_673">
      <path d="m432.64,367.45c0,-0.15 0.04,-0.31 0.11,-0.48c0.12,-0.25 0.32,-0.52 0.61,-0.8c0.25,-0.25 0.44,-0.42 0.58,-0.52c0.23,-0.15 0.47,-0.23 0.71,-0.23c0.21,0 0.39,0.04 0.55,0.14c0.19,0.1 0.28,0.24 0.28,0.41c0,0.12 -0.11,0.33 -0.35,0.63c-0.23,0.29 -0.4,0.44 -0.5,0.44c-0.08,0 -0.13,-0.03 -0.13,-0.09c0,-0.06 0.07,-0.18 0.2,-0.35c0.07,-0.08 0.1,-0.14 0.1,-0.18c-0.04,-0.07 -0.08,-0.12 -0.11,-0.16c-0.12,-0.1 -0.28,-0.15 -0.48,-0.15c-0.17,0 -0.33,0.05 -0.47,0.16c-0.17,0.13 -0.26,0.31 -0.26,0.53c0,0.16 0.05,0.3 0.14,0.43c0.07,0.1 0.16,0.18 0.27,0.24c0.14,0.06 0.29,0.1 0.44,0.11c0.16,0 0.24,0.03 0.24,0.1c0,0.03 -0.1,0.17 -0.29,0.4c-0.15,0.19 -0.3,0.39 -0.44,0.62c0.05,0.04 0.08,0.06 0.11,0.06l0.89,0c0.03,0 0.11,-0.05 0.23,-0.14c0.11,-0.09 0.19,-0.14 0.24,-0.14c0.07,0 0.11,0.03 0.11,0.09c0,0.03 -0.04,0.09 -0.14,0.2c-0.09,0.1 -0.22,0.24 -0.39,0.41c-0.19,0.2 -0.31,0.31 -0.36,0.35c-0.1,0.08 -0.18,0.12 -0.24,0.12l-1.48,0c-0.01,-0.01 -0.02,-0.02 -0.03,-0.03c0,-0.01 -0.01,-0.03 -0.01,-0.07c0,-0.11 0.14,-0.3 0.4,-0.57c0.27,-0.26 0.4,-0.44 0.4,-0.54c0,-0.02 -0.1,-0.07 -0.31,-0.15c-0.15,-0.06 -0.27,-0.13 -0.37,-0.22c-0.08,-0.07 -0.14,-0.16 -0.19,-0.26c-0.04,-0.11 -0.06,-0.23 -0.06,-0.36z" fill="#333333" id="svg_674"/>
     </g>
     <g id="svg_675">
      <path d="m408.43,325.26c0,0.16 -0.04,0.32 -0.12,0.48c-0.11,0.25 -0.31,0.52 -0.6,0.81c-0.25,0.24 -0.44,0.41 -0.58,0.51c-0.23,0.16 -0.47,0.23 -0.71,0.23c-0.21,0 -0.39,-0.04 -0.55,-0.13c-0.19,-0.11 -0.28,-0.25 -0.28,-0.42c0,-0.12 0.11,-0.33 0.35,-0.62c0.23,-0.3 0.4,-0.45 0.5,-0.45c0.08,0 0.13,0.03 0.13,0.1s-0.07,0.17 -0.21,0.34c-0.06,0.08 -0.09,0.14 -0.09,0.18c0.04,0.07 0.07,0.13 0.11,0.16c0.12,0.11 0.28,0.16 0.48,0.16c0.17,0 0.33,-0.06 0.47,-0.16c0.17,-0.14 0.25,-0.31 0.25,-0.53c0,-0.16 -0.04,-0.31 -0.13,-0.44c-0.07,-0.1 -0.16,-0.18 -0.27,-0.23c-0.14,-0.07 -0.29,-0.11 -0.45,-0.11c-0.16,-0.01 -0.23,-0.04 -0.23,-0.11c0,-0.03 0.09,-0.16 0.29,-0.4c0.15,-0.19 0.29,-0.39 0.43,-0.61c-0.04,-0.04 -0.07,-0.06 -0.1,-0.06l-0.89,0c-0.04,0 -0.12,0.04 -0.23,0.13s-0.2,0.14 -0.24,0.14c-0.07,0 -0.11,-0.02 -0.11,-0.08c0,-0.03 0.04,-0.1 0.13,-0.21c0.09,-0.1 0.22,-0.24 0.39,-0.41c0.2,-0.19 0.32,-0.31 0.37,-0.35c0.1,-0.07 0.18,-0.11 0.24,-0.11l1.48,0c0.01,0.01 0.02,0.02 0.02,0.03c0.01,0 0.01,0.02 0.01,0.07c0,0.11 -0.13,0.3 -0.4,0.56c-0.26,0.26 -0.4,0.44 -0.4,0.54c0,0.03 0.11,0.08 0.32,0.15c0.15,0.06 0.27,0.13 0.37,0.22c0.07,0.07 0.14,0.16 0.18,0.27c0.05,0.1 0.07,0.22 0.07,0.35z" fill="#333333" id="svg_676"/>
     </g>
    </g>
   </g>
   <g id="svg_677">
    <path d="m417.88,327.03c-0.03,-0.16 -0.06,-0.32 -0.05,-0.49c-0.01,-1.22 0.98,-2.2 2.2,-2.2c1.22,0 2.2,0.98 2.21,2.2c0,0.26 -0.05,0.51 -0.14,0.74c1.08,0.09 1.92,0.99 1.92,2.08c0,1.15 -0.93,2.08 -2.08,2.08c-0.31,0 -1.4,-0.34 -1.63,-0.48l1.41,2.43l-3.44,-0.01l1.41,-2.42c-0.28,0.18 -1.48,0.48 -1.77,0.48c-1.22,0 -2.21,-0.99 -2.21,-2.21c0,-1.2 0.97,-2.18 2.17,-2.2z" fill="#333333" id="svg_678"/>
    <path d="m417.88,327.03c-0.03,-0.16 -0.06,-0.32 -0.05,-0.49c-0.01,-1.22 0.98,-2.2 2.2,-2.2c0,0 0.01,0 0.01,0l0,9.05l-1.76,-0.01l1.41,-2.42c-0.28,0.18 -1.48,0.48 -1.77,0.48c-1.22,0 -2.21,-0.99 -2.21,-2.2c0,-1.21 0.97,-2.19 2.17,-2.21z" fill="#616161" id="svg_679" opacity="0.2"/>
   </g>
   <g id="svg_680">
    <path d="m417.88,344.33c-0.03,-0.16 -0.06,-0.32 -0.05,-0.49c-0.01,-1.21 0.98,-2.2 2.2,-2.2c1.22,0 2.2,0.98 2.21,2.2c0,0.27 -0.05,0.52 -0.14,0.75c1.08,0.08 1.92,0.98 1.92,2.07c0,1.15 -0.93,2.08 -2.08,2.09c-0.31,0 -1.4,-0.35 -1.63,-0.48l1.41,2.42l-3.44,0l1.41,-2.42c-0.28,0.17 -1.48,0.47 -1.77,0.47c-1.22,0 -2.21,-0.99 -2.21,-2.2c0,-1.21 0.97,-2.19 2.17,-2.21z" fill="#333333" id="svg_681"/>
    <path d="m417.88,344.33c-0.03,-0.16 -0.06,-0.32 -0.05,-0.49c-0.01,-1.21 0.98,-2.2 2.2,-2.2c0,0 0.01,0 0.01,0l0,9.05l-1.76,0l1.41,-2.42c-0.28,0.17 -1.48,0.47 -1.77,0.47c-1.22,0 -2.21,-0.98 -2.21,-2.2c0,-1.21 0.97,-2.19 2.17,-2.21z" fill="#616161" id="svg_682" opacity="0.2"/>
   </g>
   <g id="svg_683">
    <path d="m418.23,364.79c-0.04,0.16 -0.06,0.32 -0.06,0.49c0,1.22 0.99,2.21 2.21,2.2c1.21,0 2.2,-0.98 2.2,-2.2c0,-0.26 -0.05,-0.51 -0.13,-0.74c1.07,-0.08 1.92,-0.98 1.92,-2.08c0,-1.15 -0.94,-2.08 -2.09,-2.08c-0.3,0 -1.39,0.34 -1.62,0.48l1.41,-2.42l-3.44,0l1.41,2.42c-0.28,-0.17 -1.49,-0.48 -1.78,-0.48c-1.22,0 -2.2,0.99 -2.2,2.21c0,1.2 0.96,2.18 2.17,2.2z" fill="#333333" id="svg_684"/>
    <path d="m418.23,364.79c-0.04,0.16 -0.06,0.32 -0.06,0.49c0,1.22 0.99,2.21 2.21,2.2c0,0 0,0 0,0l0,-9.04l-1.75,0l1.41,2.42c-0.28,-0.17 -1.48,-0.48 -1.78,-0.48c-1.22,0 -2.2,0.99 -2.2,2.21c0,1.2 0.96,2.18 2.17,2.2z" fill="#616161" id="svg_685" opacity="0.2"/>
   </g>
   <g id="svg_686">
    <path d="m407.19,329.73c0.01,-0.04 0.01,-0.07 0.01,-0.11c0,-0.28 -0.22,-0.51 -0.5,-0.5c-0.28,0 -0.51,0.22 -0.51,0.5c0,0.06 0.01,0.11 0.03,0.17c-0.24,0.02 -0.43,0.22 -0.43,0.47c0,0.26 0.21,0.48 0.47,0.48c0.07,0 0.32,-0.08 0.37,-0.11l-0.32,0.55l0.79,0l-0.32,-0.55c0.06,0.04 0.33,0.11 0.4,0.11c0.28,0 0.5,-0.23 0.5,-0.51c0,-0.27 -0.22,-0.5 -0.49,-0.5z" fill="#333333" id="svg_687"/>
    <path d="m407.19,329.73c0.01,-0.04 0.01,-0.07 0.01,-0.11c0,-0.28 -0.22,-0.51 -0.5,-0.5l0,0l0,2.06l0.4,0l-0.33,-0.55c0.07,0.03 0.34,0.11 0.41,0.11c0.28,0 0.5,-0.23 0.5,-0.51c0,-0.27 -0.22,-0.5 -0.49,-0.5z" fill="#616161" id="svg_688" opacity="0.2"/>
   </g>
   <g id="svg_689">
    <path d="m434.49,363.09c0.01,0.04 0.01,0.07 0.01,0.11c0,0.28 -0.22,0.5 -0.5,0.5c-0.28,0 -0.5,-0.22 -0.5,-0.5c0,-0.06 0.01,-0.12 0.03,-0.17c-0.25,-0.02 -0.44,-0.22 -0.44,-0.47c0,-0.27 0.21,-0.48 0.47,-0.48c0.07,0 0.32,0.08 0.38,0.11l-0.33,-0.55l0.79,0l-0.32,0.55c0.06,-0.04 0.34,-0.11 0.4,-0.11c0.28,0 0.51,0.23 0.51,0.5c0,0.28 -0.22,0.5 -0.5,0.51z" fill="#333333" id="svg_690"/>
    <path d="m434.49,363.09c0.01,0.04 0.01,0.07 0.01,0.11c0,0.28 -0.22,0.5 -0.5,0.5l0,0l0,-2.06l0.4,0l-0.32,0.55c0.06,-0.04 0.34,-0.11 0.4,-0.11c0.28,0 0.51,0.23 0.51,0.51c0,0.27 -0.22,0.49 -0.5,0.5z" fill="#616161" id="svg_691" opacity="0.2"/>
   </g>
  </g>
 </g>

</svg>