<?xml version="1.0"?>
<svg width="40" height="56" xmlns="http://www.w3.org/2000/svg" xmlns:svg="http://www.w3.org/2000/svg" enable-background="new 0 0 450 450" version="1.1" xml:space="preserve">
 <g class="layer">
  <title>Layer 1</title>
  <g id="svg_639" transform="translate(0.022901, 0.0831975) scale(1.0474, 1) translate(-0.022901, -0.0831975) translate(0.022901, 0.0774139) matrix(1, 0, 0, 1.0499, -400.883, -266.216)">
   <g id="svg_640">
    <g id="svg_641">
     <g id="svg_642">
      <path d="m405.16,306.69c-2.24,0.01 -4.07,-1.78 -4.05,-3.98l-0.11,-45.02c-0.03,-2.22 1.79,-4.01 4.04,-4.01l29.75,0.05c2.24,0.01 4.06,1.81 4.08,4.02l0,44.92c-0.02,2.2 -1.84,3.99 -4.07,3.99l-29.64,0.03z" fill="#C9C9C9" id="svg_643"/>
     </g>
     <path d="m405.53,306.58c-2.21,0 -4.01,-1.79 -3.98,-3.99l0,-44.91c-0.03,-2.21 1.77,-4 3.98,-4l29.31,0c2.22,0 4.01,1.8 4.04,4l0,44.91c-0.03,2.2 -1.82,3.99 -4.04,3.99l-29.31,0z" fill="#FFFFFF" id="svg_644"/>
     <g id="svg_645">
      <path d="m406.2,258.92c0,0.07 -0.03,0.14 -0.07,0.21c-0.06,0.06 -0.1,0.11 -0.11,0.14c-0.19,0.28 -0.35,0.48 -0.46,0.59c-0.1,0.06 -0.2,0.12 -0.29,0.18c-0.03,0.05 -0.05,0.1 -0.05,0.15c0.01,0.05 0.02,0.09 0.02,0.11c0,0.1 0.01,0.2 0.02,0.28c0.02,0.08 0.04,0.12 0.07,0.12c0.03,0 0.07,-0.01 0.1,-0.04c0.12,-0.1 0.19,-0.15 0.22,-0.16c0.03,0.05 0.04,0.08 0.04,0.09c0,0.06 -0.1,0.19 -0.32,0.39c-0.25,0.24 -0.48,0.36 -0.7,0.36c-0.15,0 -0.25,-0.21 -0.29,-0.61c-0.05,-0.41 -0.09,-0.64 -0.12,-0.68l-1.35,0c-0.03,-0.01 -0.05,-0.03 -0.05,-0.03c-0.01,-0.01 -0.01,-0.04 -0.01,-0.09c0,-0.07 0.09,-0.24 0.27,-0.5c0.16,-0.24 0.41,-0.57 0.75,-0.98c0.11,-0.13 0.21,-0.26 0.32,-0.39c0.07,-0.08 0.16,-0.19 0.29,-0.31c0.12,-0.13 0.24,-0.27 0.38,-0.43c0.12,-0.15 0.22,-0.22 0.29,-0.22l0.07,0.02l0,2.05c0.06,0.03 0.11,0.04 0.15,0.04c0.03,0 0.05,0 0.06,0c0.16,0 0.3,-0.05 0.43,-0.15c0.09,-0.09 0.18,-0.17 0.28,-0.26c0.02,0.01 0.03,0.02 0.05,0.03c0,0.01 0.01,0.04 0.01,0.09zm-1.9,0.21l0,-0.21l0,-0.08c0,-0.07 -0.01,-0.16 -0.02,-0.26c-0.08,0.07 -0.19,0.19 -0.32,0.36c-0.05,0.05 -0.1,0.13 -0.18,0.23l0.05,0.02l0.39,0l0.08,-0.06z" fill="#333333" id="svg_646"/>
     </g>
     <g id="svg_647">
      <path d="m434.43,301.84c0,-0.07 0.02,-0.14 0.07,-0.21c0.06,-0.06 0.09,-0.11 0.11,-0.13c0.19,-0.29 0.34,-0.49 0.46,-0.6c0.1,-0.06 0.19,-0.12 0.28,-0.18c0.03,-0.05 0.05,-0.1 0.05,-0.15c-0.01,-0.05 -0.02,-0.09 -0.02,-0.11c0,-0.1 -0.01,-0.2 -0.02,-0.28c-0.01,-0.08 -0.04,-0.12 -0.06,-0.12c-0.04,0 -0.07,0.02 -0.11,0.04c-0.12,0.1 -0.19,0.15 -0.22,0.16c-0.03,-0.05 -0.04,-0.08 -0.04,-0.09c0,-0.06 0.11,-0.19 0.32,-0.39c0.25,-0.24 0.49,-0.36 0.7,-0.36c0.16,0 0.25,0.21 0.3,0.62c0.04,0.4 0.08,0.63 0.11,0.67l1.36,0c0.02,0.02 0.04,0.03 0.05,0.03c0,0.01 0,0.04 0,0.09c0,0.07 -0.08,0.24 -0.26,0.5c-0.17,0.24 -0.42,0.57 -0.76,0.98c-0.1,0.13 -0.21,0.26 -0.32,0.39c-0.07,0.08 -0.16,0.19 -0.28,0.31c-0.12,0.13 -0.25,0.27 -0.39,0.44c-0.12,0.14 -0.21,0.21 -0.28,0.21l-0.08,-0.02l0,-2.05c-0.06,-0.03 -0.11,-0.04 -0.14,-0.04c-0.04,0 -0.06,0 -0.07,0c-0.15,0 -0.3,0.05 -0.42,0.15c-0.1,0.09 -0.19,0.17 -0.29,0.26c-0.02,-0.01 -0.03,-0.02 -0.04,-0.03c-0.01,-0.01 -0.01,-0.04 -0.01,-0.09zm1.89,-0.21l0,0.21l0,0.08c0,0.07 0.01,0.16 0.02,0.26c0.08,-0.07 0.19,-0.19 0.33,-0.36c0.04,-0.05 0.1,-0.13 0.17,-0.23l-0.04,-0.02l-0.39,0l-0.09,0.06z" fill="#333333" id="svg_648"/>
     </g>
    </g>
   </g>
   <g id="svg_649">
    <path d="m429.3,261.56c0.04,-0.16 0.06,-0.32 0.06,-0.49c0,-1.22 -0.99,-2.2 -2.2,-2.2c-1.22,0 -2.21,0.98 -2.21,2.2c0,0.26 0.05,0.51 0.13,0.74c-1.07,0.09 -1.91,0.99 -1.92,2.08c0,1.15 0.94,2.08 2.09,2.08c0.31,0.01 1.39,-0.34 1.63,-0.47l-1.42,2.42l3.44,-0.01l-1.41,-2.41c0.28,0.17 1.49,0.47 1.78,0.47c1.22,0 2.2,-0.99 2.2,-2.21c0.01,-1.2 -0.97,-2.18 -2.17,-2.2z" fill="#333333" id="svg_650"/>
    <path d="m429.3,261.56c0.04,-0.16 0.06,-0.32 0.06,-0.49c0,-1.22 -0.99,-2.2 -2.2,-2.2c-0.01,0 -0.01,0 -0.01,0l0,9.05l1.75,0l-1.41,-2.42c0.28,0.17 1.49,0.47 1.78,0.47c1.22,0 2.21,-0.99 2.2,-2.2c0.01,-1.21 -0.97,-2.19 -2.17,-2.21z" fill="#616161" id="svg_651" opacity="0.2"/>
   </g>
   <g id="svg_652">
    <path d="m429.3,298.81c0.04,0.16 0.06,0.32 0.06,0.5c0,1.21 -0.99,2.2 -2.2,2.2c-1.22,0 -2.21,-0.99 -2.21,-2.2c0,-0.27 0.05,-0.52 0.13,-0.75c-1.07,-0.08 -1.91,-0.98 -1.92,-2.07c0,-1.15 0.94,-2.08 2.09,-2.09c0.31,0 1.39,0.34 1.63,0.48l-1.42,-2.42l3.44,0l-1.41,2.42c0.28,-0.17 1.49,-0.47 1.78,-0.47c1.22,0 2.2,0.99 2.2,2.2c0.01,1.2 -0.97,2.19 -2.17,2.2z" fill="#333333" id="svg_653"/>
    <path d="m429.3,298.81c0.04,0.16 0.06,0.32 0.06,0.5c0,1.21 -0.99,2.2 -2.2,2.2c-0.01,0 -0.01,0 -0.01,0l0,-9.05l1.75,0l-1.41,2.42c0.28,-0.17 1.49,-0.47 1.78,-0.48c1.22,0 2.21,0.99 2.2,2.21c0.01,1.2 -0.97,2.19 -2.17,2.2z" fill="#616161" id="svg_654" opacity="0.2"/>
   </g>
   <g id="svg_655">
    <path d="m411.14,261.56c-0.03,-0.16 -0.06,-0.32 -0.06,-0.49c0,-1.22 0.99,-2.2 2.21,-2.2c1.22,0 2.2,0.98 2.2,2.2c0,0.26 -0.04,0.51 -0.13,0.74c1.07,0.09 1.92,0.99 1.92,2.08c0,1.15 -0.93,2.08 -2.09,2.08c-0.3,0.01 -1.39,-0.34 -1.62,-0.47l1.41,2.42l-3.44,-0.01l1.41,-2.41c-0.28,0.17 -1.48,0.47 -1.77,0.47c-1.23,0 -2.21,-0.99 -2.21,-2.21c0,-1.2 0.97,-2.18 2.17,-2.2z" fill="#333333" id="svg_656"/>
    <path d="m411.14,261.56c-0.03,-0.16 -0.06,-0.32 -0.06,-0.49c0,-1.22 0.99,-2.2 2.21,-2.2c0,0 0,0 0.01,0l0,9.05l-1.76,0l1.41,-2.42c-0.28,0.17 -1.48,0.47 -1.77,0.47c-1.23,0 -2.21,-0.99 -2.21,-2.2c0,-1.21 0.97,-2.19 2.17,-2.21z" fill="#616161" id="svg_657" opacity="0.2"/>
   </g>
   <g id="svg_658">
    <path d="m411.14,298.81c-0.03,0.16 -0.06,0.32 -0.06,0.5c0,1.21 0.99,2.2 2.21,2.2c1.22,0 2.2,-0.99 2.2,-2.2c0,-0.27 -0.04,-0.52 -0.13,-0.75c1.07,-0.08 1.92,-0.98 1.92,-2.07c0,-1.15 -0.93,-2.08 -2.09,-2.09c-0.3,0 -1.39,0.34 -1.62,0.48l1.41,-2.42l-3.44,0l1.41,2.42c-0.28,-0.17 -1.48,-0.47 -1.77,-0.47c-1.23,0 -2.21,0.99 -2.21,2.2c0,1.2 0.97,2.19 2.17,2.2z" fill="#333333" id="svg_659"/>
    <path d="m411.14,298.81c-0.03,0.16 -0.06,0.32 -0.06,0.5c0,1.21 0.99,2.2 2.21,2.2c0,0 0,0 0.01,0l0,-9.05l-1.76,0l1.41,2.42c-0.28,-0.17 -1.48,-0.47 -1.77,-0.48c-1.23,0 -2.21,0.99 -2.21,2.21c0,1.2 0.97,2.19 2.17,2.2z" fill="#616161" id="svg_660" opacity="0.2"/>
   </g>
   <g id="svg_661">
    <path d="m405.01,263.75c0.01,-0.03 0.01,-0.07 0.01,-0.11c0,-0.28 -0.22,-0.5 -0.5,-0.5c-0.28,0 -0.51,0.22 -0.51,0.5c0,0.06 0.02,0.12 0.03,0.17c-0.24,0.02 -0.43,0.22 -0.43,0.47c0,0.27 0.21,0.48 0.47,0.48c0.07,0 0.32,-0.08 0.37,-0.11l-0.32,0.56l0.79,0l-0.32,-0.56c0.06,0.04 0.33,0.11 0.4,0.11c0.28,0 0.5,-0.23 0.5,-0.5c0,-0.28 -0.22,-0.5 -0.49,-0.51z" fill="#333333" id="svg_662"/>
    <path d="m405.01,263.75c0.01,-0.03 0.01,-0.07 0.01,-0.11c0,-0.28 -0.22,-0.5 -0.5,-0.5c0,0 0,0 -0.01,0l0,2.06l0.41,0l-0.33,-0.55c0.07,0.04 0.34,0.11 0.41,0.11c0.28,0 0.5,-0.23 0.5,-0.51c0,-0.27 -0.22,-0.49 -0.49,-0.5z" fill="#616161" id="svg_663" opacity="0.2"/>
   </g>
   <g id="svg_664">
    <path d="m436.49,297.11c0.01,0.04 0.01,0.08 0.01,0.11c0,0.28 -0.23,0.51 -0.5,0.5c-0.28,0 -0.51,-0.22 -0.51,-0.5c0,-0.06 0.01,-0.11 0.03,-0.17c-0.24,-0.02 -0.44,-0.22 -0.44,-0.47c0,-0.27 0.22,-0.48 0.48,-0.48c0.07,0 0.32,0.08 0.37,0.11l-0.32,-0.55l0.78,0l-0.32,0.55c0.07,-0.04 0.34,-0.11 0.41,-0.11c0.28,0 0.5,0.23 0.5,0.51c0,0.27 -0.22,0.5 -0.49,0.5z" fill="#333333" id="svg_665"/>
    <path d="m436.49,297.11c0.01,0.04 0.01,0.08 0.01,0.11c0,0.28 -0.23,0.51 -0.5,0.5c0,0 0,0 -0.01,0l0,-2.06l0.41,0l-0.33,0.55c0.07,-0.03 0.34,-0.11 0.41,-0.11c0.28,0 0.5,0.23 0.5,0.51c0,0.27 -0.22,0.5 -0.49,0.5z" fill="#616161" id="svg_666" opacity="0.2"/>
   </g>
  </g>
 </g>

</svg>