<?xml version="1.0"?>
<svg width="40" height="56" xmlns="http://www.w3.org/2000/svg" xmlns:svg="http://www.w3.org/2000/svg" enable-background="new 0 0 450 450" version="1.1" xml:space="preserve">
 <g class="layer">
  <title>Layer 1</title>
  <g id="svg_608" transform="translate(0.022901, -0.0226201) scale(1.0474, 1) translate(-0.022901, 0.0226201) translate(0.022901, -0.0288852) matrix(1, 0, 0, 1.05389, -400.883, -197.703)">
   <g id="svg_609">
    <g id="svg_610">
     <g id="svg_611">
      <path d="m405.16,240.72c-2.24,0 -4.07,-1.79 -4.05,-3.99l-0.11,-45.01c-0.03,-2.22 1.79,-4.02 4.04,-4.01l29.75,0.05c2.24,0 4.06,1.81 4.08,4.02l0,44.92c-0.02,2.19 -1.84,3.98 -4.07,3.98l-29.64,0.04z" fill="#C9C9C9" id="svg_612"/>
     </g>
     <path d="m405.53,240.6c-2.21,0 -4.01,-1.79 -3.98,-3.99l0,-44.91c-0.03,-2.2 1.77,-3.99 3.98,-3.99l29.31,0c2.21,0 4.01,1.79 4.04,3.99l0,44.91c-0.03,2.2 -1.83,3.99 -4.04,3.99l-29.31,0z" fill="#FFFFFF" id="svg_613"/>
     <g id="svg_614">
      <path d="m406.24,191.09c-0.08,0.13 -0.18,0.26 -0.31,0.39c-0.15,0.17 -0.3,0.29 -0.44,0.34c-0.09,0.03 -0.24,0.05 -0.44,0.06c-0.2,0.02 -0.3,0.09 -0.3,0.22c0,0.11 0.06,0.18 0.19,0.21c0.21,0.05 0.4,0.14 0.55,0.26c0.16,0.12 0.27,0.25 0.34,0.39c0.07,0.14 0.11,0.28 0.11,0.42c0,0.21 -0.05,0.42 -0.15,0.62c-0.05,0.1 -0.13,0.23 -0.24,0.39c-0.29,0.37 -0.55,0.63 -0.78,0.77c-0.23,0.14 -0.53,0.2 -0.9,0.2c-0.21,0 -0.4,-0.03 -0.55,-0.09c-0.19,-0.08 -0.29,-0.21 -0.29,-0.38c0,-0.11 0.08,-0.3 0.26,-0.56c0.18,-0.27 0.31,-0.41 0.41,-0.41c0.07,0 0.1,0.08 0.11,0.24c0,0.16 0.03,0.27 0.06,0.34c0.05,0.05 0.1,0.09 0.13,0.12c0.12,0.08 0.24,0.12 0.36,0.12c0.16,0 0.3,-0.05 0.42,-0.16c0.15,-0.13 0.23,-0.33 0.23,-0.59c0,-0.25 -0.09,-0.47 -0.25,-0.65c-0.16,-0.18 -0.36,-0.29 -0.58,-0.31c-0.05,-0.01 -0.09,-0.01 -0.11,-0.01c-0.07,-0.01 -0.11,-0.02 -0.11,-0.03c-0.02,-0.02 -0.03,-0.07 -0.03,-0.12c0.01,-0.15 0.03,-0.31 0.05,-0.46c0.01,-0.15 0.02,-0.29 0.02,-0.43c0,-0.07 -0.01,-0.11 -0.04,-0.12c-0.02,-0.02 -0.07,-0.02 -0.14,-0.02l0,-0.14c0.06,-0.08 0.17,-0.18 0.33,-0.32c0.2,-0.18 0.35,-0.26 0.42,-0.26l1.25,0c0.06,0 0.12,-0.03 0.2,-0.07c0.08,-0.04 0.12,-0.06 0.14,-0.06l0.08,0.04l0,0.06z" fill="#333333" id="svg_615"/>
     </g>
     <g id="svg_616">
      <path d="m434.39,237.71c0.07,-0.12 0.17,-0.26 0.3,-0.39c0.16,-0.17 0.31,-0.28 0.44,-0.33c0.09,-0.03 0.24,-0.05 0.44,-0.07c0.2,-0.01 0.3,-0.08 0.3,-0.21c0,-0.11 -0.06,-0.19 -0.18,-0.21c-0.22,-0.05 -0.41,-0.14 -0.56,-0.26c-0.16,-0.12 -0.27,-0.25 -0.34,-0.39c-0.07,-0.14 -0.11,-0.28 -0.11,-0.43c0,-0.2 0.05,-0.41 0.15,-0.62c0.05,-0.09 0.13,-0.22 0.24,-0.38c0.29,-0.38 0.55,-0.63 0.78,-0.77c0.23,-0.14 0.53,-0.21 0.9,-0.21c0.21,0 0.4,0.03 0.55,0.1c0.2,0.08 0.3,0.2 0.3,0.38c0,0.11 -0.09,0.3 -0.27,0.57c-0.18,0.26 -0.31,0.4 -0.41,0.4c-0.06,0 -0.1,-0.08 -0.11,-0.24c0,-0.16 -0.02,-0.27 -0.06,-0.34c-0.05,-0.05 -0.09,-0.09 -0.13,-0.12c-0.12,-0.08 -0.24,-0.12 -0.36,-0.12c-0.16,0 -0.3,0.05 -0.42,0.16c-0.15,0.13 -0.22,0.33 -0.22,0.59c0,0.25 0.08,0.46 0.24,0.65c0.16,0.18 0.36,0.28 0.59,0.31c0.04,0.01 0.08,0.01 0.1,0.01c0.07,0.01 0.11,0.02 0.12,0.03c0.01,0.03 0.02,0.06 0.02,0.12c-0.02,0.15 -0.03,0.31 -0.04,0.46c-0.02,0.15 -0.02,0.29 -0.02,0.43c0,0.07 0.01,0.11 0.03,0.12c0.02,0.02 0.07,0.02 0.14,0.02l0,0.14c-0.05,0.08 -0.16,0.18 -0.33,0.32c-0.2,0.18 -0.34,0.26 -0.42,0.26l-1.25,0c-0.05,0 -0.12,0.02 -0.19,0.07c-0.08,0.04 -0.13,0.06 -0.15,0.06l-0.08,-0.04l0,-0.07l0.01,0z" fill="#333333" id="svg_617"/>
     </g>
    </g>
   </g>
   <g id="svg_618">
    <path d="m429.28,195.59c0.04,-0.16 0.06,-0.33 0.06,-0.5c0,-1.21 -0.99,-2.2 -2.21,-2.2c-1.21,0 -2.2,0.98 -2.2,2.2c0,0.27 0.05,0.52 0.13,0.75c-1.07,0.08 -1.92,0.98 -1.92,2.07c0,1.15 0.94,2.09 2.09,2.09c0.3,0 1.39,-0.34 1.62,-0.48l-1.41,2.42l3.44,0l-1.41,-2.42c0.28,0.17 1.48,0.47 1.78,0.47c1.22,0.01 2.2,-0.98 2.2,-2.2c0,-1.21 -0.97,-2.18 -2.17,-2.2z" fill="#333333" id="svg_619"/>
    <path d="m429.28,195.59c0.04,-0.16 0.06,-0.33 0.06,-0.5c0,-1.21 -0.99,-2.2 -2.21,-2.2c0,0 -0.01,0 -0.01,0l0,9.05l1.76,0l-1.41,-2.42c0.28,0.17 1.48,0.47 1.77,0.47c1.22,0 2.21,-0.98 2.21,-2.2c0,-1.21 -0.97,-2.18 -2.17,-2.2z" fill="#616161" id="svg_620" opacity="0.2"/>
   </g>
   <g id="svg_621">
    <path d="m411.71,195.59c-0.03,-0.16 -0.05,-0.33 -0.05,-0.5c0,-1.21 0.99,-2.2 2.21,-2.2c1.21,0 2.2,0.98 2.2,2.2c0,0.27 -0.05,0.52 -0.13,0.75c1.07,0.08 1.91,0.98 1.92,2.07c0,1.15 -0.94,2.09 -2.09,2.09c-0.31,0 -1.39,-0.34 -1.63,-0.48l1.42,2.42l-3.44,0l1.41,-2.42c-0.28,0.17 -1.49,0.47 -1.78,0.47c-1.22,0.01 -2.21,-0.98 -2.2,-2.2c0,-1.21 0.97,-2.18 2.16,-2.2z" fill="#333333" id="svg_622"/>
    <path d="m411.71,195.59c-0.03,-0.16 -0.05,-0.33 -0.05,-0.5c0,-1.21 0.99,-2.2 2.21,-2.2c0,0 0,0 0.01,0l0,9.05l-1.76,0l1.41,-2.42c-0.28,0.17 -1.49,0.47 -1.78,0.47c-1.22,0 -2.21,-0.98 -2.2,-2.2c0,-1.21 0.97,-2.18 2.16,-2.2z" fill="#616161" id="svg_623" opacity="0.2"/>
   </g>
   <g id="svg_624">
    <path d="m418.14,212.05c-0.03,-0.16 -0.05,-0.32 -0.05,-0.49c0,-1.22 0.99,-2.2 2.21,-2.2c1.21,0 2.2,0.98 2.2,2.2c0,0.26 -0.05,0.51 -0.13,0.74c1.07,0.09 1.91,0.98 1.92,2.08c0,1.15 -0.94,2.08 -2.09,2.08c-0.3,0 -1.39,-0.33 -1.63,-0.47l1.42,2.42l-3.44,-0.01l1.41,-2.42c-0.28,0.18 -1.48,0.48 -1.78,0.48c-1.22,0 -2.21,-0.99 -2.2,-2.21c0,-1.2 0.96,-2.18 2.16,-2.2z" fill="#333333" id="svg_625"/>
    <path d="m418.14,212.05c-0.03,-0.16 -0.05,-0.32 -0.05,-0.49c0,-1.22 0.99,-2.2 2.21,-2.2c0,0 0,0 0.01,0l0,9.05l-1.76,-0.01l1.41,-2.42c-0.28,0.18 -1.48,0.48 -1.78,0.48c-1.22,0 -2.21,-0.99 -2.2,-2.21c0,-1.2 0.96,-2.18 2.16,-2.2z" fill="#616161" id="svg_626" opacity="0.2"/>
   </g>
   <g id="svg_627">
    <path d="m429.28,232.84c0.04,0.16 0.06,0.32 0.06,0.49c0,1.22 -0.99,2.2 -2.21,2.2c-1.21,0 -2.2,-0.98 -2.2,-2.2c0,-0.26 0.05,-0.51 0.13,-0.75c-1.07,-0.08 -1.92,-0.98 -1.92,-2.07c0,-1.15 0.94,-2.08 2.09,-2.08c0.3,-0.01 1.39,0.33 1.62,0.47l-1.41,-2.42l3.44,0l-1.41,2.43c0.28,-0.18 1.48,-0.48 1.78,-0.48c1.22,0 2.2,0.99 2.2,2.21c0,1.2 -0.97,2.18 -2.17,2.2z" fill="#333333" id="svg_628"/>
    <path d="m429.28,232.84c0.04,0.16 0.06,0.32 0.06,0.49c0,1.22 -0.99,2.2 -2.21,2.2c0,0 -0.01,0 -0.01,0l0,-9.05l1.76,0l-1.41,2.42c0.28,-0.17 1.48,-0.47 1.77,-0.47c1.22,0 2.21,0.99 2.21,2.21c0,1.2 -0.97,2.18 -2.17,2.2z" fill="#616161" id="svg_629" opacity="0.2"/>
   </g>
   <g id="svg_630">
    <path d="m411.71,232.84c-0.03,0.16 -0.05,0.32 -0.05,0.49c0,1.22 0.99,2.2 2.21,2.2c1.21,0 2.2,-0.98 2.2,-2.2c0,-0.26 -0.05,-0.51 -0.13,-0.75c1.07,-0.08 1.91,-0.98 1.92,-2.07c0,-1.15 -0.94,-2.08 -2.09,-2.08c-0.31,-0.01 -1.39,0.33 -1.63,0.47l1.42,-2.42l-3.44,0l1.41,2.43c-0.28,-0.18 -1.49,-0.48 -1.78,-0.48c-1.22,0 -2.21,0.99 -2.2,2.21c0,1.2 0.97,2.18 2.16,2.2z" fill="#333333" id="svg_631"/>
    <path d="m411.71,232.84c-0.03,0.16 -0.05,0.32 -0.05,0.49c0,1.22 0.99,2.2 2.21,2.2c0,0 0,0 0.01,0l0,-9.05l-1.76,0l1.41,2.42c-0.28,-0.17 -1.49,-0.47 -1.78,-0.47c-1.22,0 -2.21,0.99 -2.2,2.21c0,1.2 0.97,2.18 2.16,2.2z" fill="#616161" id="svg_632" opacity="0.2"/>
   </g>
   <g id="svg_633">
    <path d="m405.02,197.77c0.01,-0.03 0.01,-0.07 0.01,-0.11c0,-0.28 -0.22,-0.5 -0.5,-0.5c-0.28,0 -0.5,0.22 -0.51,0.5c0,0.07 0.02,0.12 0.03,0.17c-0.24,0.02 -0.43,0.23 -0.43,0.48c0,0.26 0.21,0.47 0.47,0.47c0.07,0 0.32,-0.07 0.37,-0.1l-0.32,0.55l0.79,0l-0.32,-0.55c0.06,0.03 0.33,0.1 0.4,0.1c0.28,0 0.5,-0.22 0.5,-0.5c0,-0.28 -0.22,-0.5 -0.49,-0.51z" fill="#333333" id="svg_634"/>
    <path d="m405.02,197.77c0.01,-0.03 0.01,-0.07 0.01,-0.11c0,-0.28 -0.22,-0.5 -0.5,-0.5c0,0 0,0 0,0l0,2.06l0.4,0l-0.32,-0.55c0.06,0.04 0.33,0.11 0.4,0.11c0.28,0 0.5,-0.23 0.5,-0.5c0,-0.28 -0.22,-0.5 -0.49,-0.51z" fill="#616161" id="svg_635" opacity="0.2"/>
   </g>
   <g id="svg_636">
    <path d="m436.5,231.13c0.01,0.04 0.01,0.08 0.01,0.12c0,0.27 -0.22,0.5 -0.5,0.5c-0.28,0 -0.51,-0.23 -0.51,-0.5c0,-0.06 0.01,-0.12 0.03,-0.17c-0.24,-0.02 -0.43,-0.23 -0.44,-0.48c0,-0.26 0.22,-0.47 0.48,-0.47c0.07,0 0.32,0.07 0.37,0.1l-0.32,-0.55l0.79,0l-0.33,0.56c0.07,-0.04 0.34,-0.11 0.41,-0.11c0.28,0 0.5,0.22 0.5,0.5c0,0.28 -0.22,0.5 -0.49,0.5z" fill="#333333" id="svg_637"/>
    <path d="m436.5,231.13c0.01,0.04 0.01,0.08 0.01,0.12c0,0.27 -0.22,0.5 -0.5,0.5l-0.01,0l0,-2.07l0.4,0l-0.32,0.56c0.07,-0.04 0.34,-0.11 0.41,-0.11c0.28,0 0.5,0.23 0.5,0.5c0,0.28 -0.22,0.5 -0.49,0.5z" fill="#616161" id="svg_638" opacity="0.2"/>
   </g>
  </g>
 </g>

</svg>