<?xml version="1.0"?>
<svg width="40" height="56" xmlns="http://www.w3.org/2000/svg" xmlns:svg="http://www.w3.org/2000/svg" enable-background="new 0 0 450 450" version="1.1" xml:space="preserve">
 <g class="layer">
  <title>Layer 1</title>
  <g id="svg_574" transform="translate(-15.1966, 2.86929) translate(-384.702, -123.13)">
   <g id="svg_575">
    <g id="svg_576">
     <g id="svg_577">
      <path d="m404.44,176.09c-2.36,0 -4.28,-1.87 -4.28,-4.19l-0.13,-47.3c0,-2.33 1.92,-4.22 4.28,-4.22l31.26,0.06c2.35,0 4.27,1.9 4.27,4.22l0,47.2c0,2.31 -1.91,4.19 -4.26,4.19l-31.14,0.04z" fill="#C9C9C9" id="svg_578"/>
     </g>
     <path d="m404.82,175.97c-2.32,0 -4.21,-1.88 -4.21,-4.2l0,-47.19c0,-2.31 1.89,-4.2 4.21,-4.2l30.81,0c2.32,0 4.21,1.89 4.21,4.2l0,47.19c0,2.32 -1.89,4.2 -4.21,4.2l-30.81,0z" fill="#FFFFFF" id="svg_579"/>
     <g id="svg_580">
      <path d="m405.53,126.81c0,0.2 -0.11,0.47 -0.31,0.79c-0.21,0.32 -0.41,0.53 -0.61,0.63c-0.16,0.07 -0.28,0.12 -0.36,0.15c-0.08,0.02 -0.14,0.04 -0.19,0.04c-0.06,0 -0.12,0 -0.18,0c-0.42,0 -0.74,-0.15 -0.98,-0.45c-0.2,-0.26 -0.3,-0.58 -0.3,-0.96c0,-0.25 0.05,-0.54 0.15,-0.87c0.1,-0.33 0.22,-0.61 0.37,-0.83c0.22,-0.33 0.36,-0.53 0.42,-0.61c0.04,-0.04 0.2,-0.18 0.49,-0.42c0.21,-0.18 0.36,-0.29 0.45,-0.35c0.07,-0.03 0.13,-0.05 0.18,-0.05c0.07,0 0.11,0.04 0.11,0.11c0,0.03 -0.1,0.13 -0.31,0.33c-0.16,0.14 -0.31,0.32 -0.46,0.52c-0.06,0.08 -0.13,0.21 -0.23,0.42c-0.11,0.23 -0.17,0.39 -0.17,0.46c0,0.01 0.01,0.03 0.02,0.04c0.01,0.02 0.03,0.02 0.05,0.02c0.1,-0.06 0.21,-0.11 0.33,-0.17c0.24,-0.11 0.41,-0.17 0.51,-0.17c0.21,0 0.42,0.13 0.64,0.38c0.25,0.29 0.38,0.62 0.38,0.99zm-0.88,0.66c0,-0.27 -0.09,-0.53 -0.27,-0.78c-0.19,-0.26 -0.38,-0.38 -0.57,-0.38c-0.08,0 -0.14,0.01 -0.2,0.04c-0.07,0.03 -0.1,0.08 -0.1,0.15c0,0.25 0.11,0.5 0.31,0.76c0.23,0.28 0.47,0.42 0.72,0.42c0.03,0 0.06,-0.01 0.08,-0.04c0.02,-0.03 0.03,-0.08 0.03,-0.17z" fill="#333333" id="svg_581"/>
     </g>
     <g id="svg_582">
      <path d="m435.19,170.07c0,-0.2 0.1,-0.47 0.31,-0.79c0.2,-0.33 0.41,-0.54 0.61,-0.63c0.15,-0.07 0.27,-0.12 0.35,-0.15c0.08,-0.03 0.15,-0.04 0.2,-0.04c0.06,0 0.12,0 0.17,0c0.43,0 0.75,0.15 0.98,0.45c0.21,0.26 0.31,0.58 0.31,0.96c0,0.25 -0.05,0.54 -0.15,0.87c-0.1,0.33 -0.22,0.61 -0.37,0.84c-0.22,0.32 -0.36,0.52 -0.43,0.59c-0.03,0.05 -0.19,0.19 -0.48,0.42c-0.21,0.19 -0.36,0.3 -0.45,0.35c-0.07,0.04 -0.13,0.06 -0.18,0.06c-0.08,0 -0.11,-0.04 -0.11,-0.12c0,-0.02 0.1,-0.12 0.31,-0.32c0.15,-0.15 0.3,-0.32 0.46,-0.52c0.05,-0.08 0.13,-0.22 0.23,-0.42c0.11,-0.23 0.17,-0.39 0.17,-0.46c0,-0.02 -0.01,-0.03 -0.02,-0.04c-0.02,-0.02 -0.03,-0.02 -0.05,-0.02c-0.1,0.05 -0.22,0.11 -0.33,0.17c-0.24,0.11 -0.41,0.17 -0.52,0.17c-0.2,0 -0.41,-0.13 -0.63,-0.38c-0.25,-0.29 -0.38,-0.62 -0.38,-0.99zm0.88,-0.66c0,0.27 0.09,0.53 0.27,0.78c0.19,0.25 0.38,0.38 0.57,0.38c0.07,0 0.14,-0.01 0.2,-0.04c0.06,-0.04 0.09,-0.09 0.09,-0.15c0,-0.25 -0.1,-0.51 -0.31,-0.77c-0.22,-0.28 -0.46,-0.42 -0.71,-0.42c-0.04,0 -0.07,0.02 -0.09,0.04c-0.01,0.03 -0.02,0.09 -0.02,0.18z" fill="#333333" id="svg_583"/>
     </g>
    </g>
   </g>
   <g id="svg_584">
    <path d="m429.53,127.83c0.03,-0.17 0.06,-0.35 0.06,-0.54c0,-1.33 -1.08,-2.4 -2.41,-2.4c-1.33,0 -2.41,1.07 -2.41,2.4c0,0.29 0.05,0.56 0.15,0.82c-1.18,0.09 -2.1,1.07 -2.1,2.26c0,1.26 1.02,2.28 2.28,2.28c0.33,0 1.52,-0.37 1.78,-0.52l-1.55,2.64l3.76,0l-1.54,-2.64c0.31,0.19 1.62,0.52 1.94,0.52c1.33,0 2.41,-1.08 2.41,-2.41c0,-1.32 -1.06,-2.39 -2.37,-2.41z" fill="#333333" id="svg_585"/>
    <path d="m429.53,127.83c0.03,-0.17 0.06,-0.35 0.06,-0.54c0,-1.33 -1.08,-2.4 -2.41,-2.4c0,0 -0.01,0 -0.01,0l0,9.88l1.92,0l-1.54,-2.64c0.31,0.19 1.62,0.52 1.94,0.52c1.33,0 2.41,-1.08 2.41,-2.41c0,-1.32 -1.06,-2.39 -2.37,-2.41z" fill="#616161" id="svg_586" opacity="0.2"/>
   </g>
   <g id="svg_587">
    <path d="m429.53,146.65c0.03,-0.17 0.06,-0.35 0.06,-0.54c0,-1.33 -1.08,-2.4 -2.41,-2.4c-1.33,0 -2.41,1.07 -2.41,2.4c0,0.29 0.05,0.57 0.15,0.82c-1.18,0.09 -2.1,1.07 -2.1,2.26c0,1.26 1.02,2.28 2.28,2.28c0.33,0 1.52,-0.37 1.78,-0.52l-1.55,2.64l3.76,0l-1.54,-2.64c0.31,0.19 1.62,0.52 1.94,0.52c1.33,0 2.41,-1.08 2.41,-2.41c0,-1.32 -1.06,-2.39 -2.37,-2.41z" fill="#333333" id="svg_588"/>
    <path d="m429.53,146.65c0.03,-0.17 0.06,-0.35 0.06,-0.54c0,-1.33 -1.08,-2.4 -2.41,-2.4c0,0 -0.01,0 -0.01,0l0,9.88l1.92,0l-1.54,-2.64c0.31,0.19 1.62,0.52 1.94,0.52c1.33,0 2.41,-1.08 2.41,-2.41c0,-1.32 -1.06,-2.39 -2.37,-2.41z" fill="#616161" id="svg_589" opacity="0.2"/>
   </g>
   <g id="svg_590">
    <path d="m410.34,127.83c-0.03,-0.17 -0.06,-0.35 -0.06,-0.54c0,-1.33 1.08,-2.4 2.41,-2.4c1.33,0 2.41,1.07 2.41,2.4c0,0.29 -0.06,0.56 -0.15,0.82c1.17,0.09 2.1,1.07 2.1,2.26c0,1.26 -1.02,2.28 -2.28,2.28c-0.33,0 -1.52,-0.37 -1.78,-0.52l1.55,2.64l-3.76,0l1.54,-2.64c-0.31,0.19 -1.62,0.52 -1.94,0.52c-1.33,0 -2.41,-1.08 -2.41,-2.41c0,-1.32 1.06,-2.39 2.37,-2.41z" fill="#333333" id="svg_591"/>
    <path d="m410.34,127.83c-0.03,-0.17 -0.06,-0.35 -0.06,-0.54c0,-1.33 1.08,-2.4 2.41,-2.4c0,0 0.01,0 0.01,0l0,9.88l-1.92,0l1.54,-2.64c-0.31,0.19 -1.62,0.52 -1.94,0.52c-1.33,0 -2.41,-1.08 -2.41,-2.41c0,-1.32 1.06,-2.39 2.37,-2.41z" fill="#616161" id="svg_592" opacity="0.2"/>
   </g>
   <g id="svg_593">
    <path d="m410.34,146.65c-0.03,-0.17 -0.06,-0.35 -0.06,-0.54c0,-1.33 1.08,-2.4 2.41,-2.4c1.33,0 2.41,1.07 2.41,2.4c0,0.29 -0.06,0.57 -0.15,0.82c1.17,0.09 2.1,1.07 2.1,2.26c0,1.26 -1.02,2.28 -2.28,2.28c-0.33,0 -1.52,-0.37 -1.78,-0.52l1.55,2.64l-3.76,0l1.54,-2.64c-0.31,0.19 -1.62,0.52 -1.94,0.52c-1.33,0 -2.41,-1.08 -2.41,-2.41c0,-1.32 1.06,-2.39 2.37,-2.41z" fill="#333333" id="svg_594"/>
    <path d="m410.34,146.65c-0.03,-0.17 -0.06,-0.35 -0.06,-0.54c0,-1.33 1.08,-2.4 2.41,-2.4c0,0 0.01,0 0.01,0l0,9.88l-1.92,0l1.54,-2.64c-0.31,0.19 -1.62,0.52 -1.94,0.52c-1.33,0 -2.41,-1.08 -2.41,-2.41c0,-1.32 1.06,-2.39 2.37,-2.41z" fill="#616161" id="svg_595" opacity="0.2"/>
   </g>
   <g id="svg_596">
    <path d="m429.53,168.52c0.03,0.18 0.06,0.35 0.06,0.54c0,1.33 -1.08,2.41 -2.41,2.4c-1.33,0 -2.41,-1.07 -2.41,-2.4c0,-0.29 0.05,-0.56 0.15,-0.82c-1.18,-0.09 -2.1,-1.07 -2.1,-2.26c0,-1.26 1.02,-2.28 2.28,-2.28c0.33,0 1.52,0.37 1.78,0.52l-1.55,-2.64l3.76,0l-1.54,2.64c0.31,-0.19 1.62,-0.52 1.94,-0.52c1.33,0 2.41,1.08 2.41,2.41c0,1.32 -1.06,2.39 -2.37,2.41z" fill="#333333" id="svg_597"/>
    <path d="m429.53,168.52c0.03,0.18 0.06,0.35 0.06,0.54c0,1.33 -1.08,2.41 -2.41,2.4c0,0 -0.01,0 -0.01,0l0,-9.88l1.92,0l-1.54,2.64c0.31,-0.18 1.62,-0.51 1.94,-0.51c1.33,-0.01 2.41,1.08 2.41,2.41c0,1.31 -1.06,2.38 -2.37,2.4z" fill="#616161" id="svg_598" opacity="0.2"/>
   </g>
   <g id="svg_599">
    <path d="m410.34,168.52c-0.03,0.18 -0.06,0.35 -0.06,0.54c0,1.33 1.08,2.41 2.41,2.4c1.33,0 2.41,-1.07 2.41,-2.4c0,-0.29 -0.06,-0.56 -0.15,-0.82c1.17,-0.09 2.1,-1.07 2.1,-2.26c0,-1.26 -1.02,-2.28 -2.28,-2.28c-0.33,0 -1.52,0.37 -1.78,0.52l1.55,-2.64l-3.76,0l1.54,2.64c-0.31,-0.19 -1.62,-0.52 -1.94,-0.52c-1.33,0 -2.41,1.08 -2.41,2.41c0,1.32 1.06,2.39 2.37,2.41z" fill="#333333" id="svg_600"/>
    <path d="m410.34,168.52c-0.03,0.18 -0.06,0.35 -0.06,0.54c0,1.33 1.08,2.41 2.41,2.4c0,0 0.01,0 0.01,0l0,-9.88l-1.92,0l1.54,2.64c-0.31,-0.18 -1.62,-0.51 -1.94,-0.51c-1.33,-0.01 -2.41,1.08 -2.41,2.41c0,1.31 1.06,2.38 2.37,2.4z" fill="#616161" id="svg_601" opacity="0.2"/>
   </g>
   <g id="svg_602">
    <path d="m404.32,131.19c0.01,-0.04 0.01,-0.08 0.01,-0.12c0,-0.3 -0.24,-0.55 -0.55,-0.55c-0.3,0 -0.55,0.25 -0.55,0.55c0,0.07 0.01,0.13 0.03,0.19c-0.26,0.02 -0.47,0.24 -0.47,0.51c0,0.29 0.23,0.52 0.52,0.52c0.07,0 0.34,-0.08 0.4,-0.11l-0.35,0.6l0.86,0l-0.36,-0.6c0.07,0.04 0.38,0.11 0.45,0.11c0.3,0 0.55,-0.24 0.55,-0.55c0,-0.3 -0.24,-0.54 -0.54,-0.55z" fill="#333333" id="svg_603"/>
    <path d="m404.32,131.19c0.01,-0.04 0.01,-0.08 0.01,-0.12c0,-0.3 -0.24,-0.55 -0.55,-0.55c0,0 0,0 0,0l0,2.26l0.44,0l-0.35,-0.61c0.06,0.05 0.37,0.12 0.44,0.12c0.3,0 0.55,-0.25 0.55,-0.55c0,-0.3 -0.24,-0.54 -0.54,-0.55z" fill="#616161" id="svg_604" opacity="0.2"/>
   </g>
   <g id="svg_605">
    <path d="m437.15,166.5c0.01,0.05 0.02,0.09 0.01,0.13c0,0.3 -0.24,0.55 -0.55,0.55c-0.3,0 -0.55,-0.25 -0.55,-0.55c0,-0.07 0.02,-0.13 0.04,-0.19c-0.27,-0.02 -0.48,-0.24 -0.48,-0.51c0,-0.29 0.23,-0.52 0.52,-0.52c0.08,0 0.35,0.08 0.41,0.11l-0.36,-0.6l0.86,0l-0.35,0.61c0.07,-0.05 0.37,-0.12 0.44,-0.12c0.3,0 0.55,0.24 0.55,0.55c0,0.3 -0.24,0.54 -0.54,0.54z" fill="#333333" id="svg_606"/>
    <path d="m437.15,166.5c0.01,0.05 0.02,0.09 0.01,0.13c0,0.3 -0.24,0.55 -0.55,0.55c0,0 0,0 0,0l0,-2.26l0.44,0l-0.35,0.61c0.07,-0.05 0.37,-0.12 0.44,-0.12c0.3,0 0.55,0.24 0.55,0.55c0,0.3 -0.24,0.54 -0.54,0.54z" fill="#616161" id="svg_607" opacity="0.2"/>
   </g>
  </g>
 </g>

</svg>