<?xml version="1.0"?>
<svg width="40" height="56" xmlns="http://www.w3.org/2000/svg" xmlns:svg="http://www.w3.org/2000/svg" enable-background="new 0 0 450 450" version="1.1" xml:space="preserve">
 <g class="layer">
  <title>Layer 1</title>
  <g id="svg_537" transform="translate(-15.1966, 2.86929) translate(-384.707, -57.1553)">
   <g id="svg_538">
    <g id="svg_539">
     <g id="svg_540">
      <path d="m404.44,110.11c-2.36,0.01 -4.28,-1.87 -4.28,-4.19l-0.12,-47.3c-0.01,-2.33 1.91,-4.22 4.27,-4.21l31.26,0.05c2.35,0.01 4.27,1.9 4.27,4.22l0,47.21c0,2.3 -1.91,4.18 -4.26,4.19l-31.14,0.03z" fill="#C9C9C9" id="svg_541"/>
     </g>
     <path d="m404.82,110c-2.32,0 -4.21,-1.89 -4.21,-4.2l0,-47.2c0,-2.31 1.89,-4.19 4.21,-4.19l30.81,0c2.32,0 4.21,1.88 4.21,4.19l0,47.2c0,2.31 -1.89,4.2 -4.21,4.2l-30.81,0z" fill="#FFFFFF" id="svg_542"/>
     <g id="svg_543">
      <path d="m405.56,57.99c-0.08,0.14 -0.15,0.27 -0.22,0.4c-0.14,0.3 -0.26,0.55 -0.36,0.76c-0.11,0.23 -0.21,0.46 -0.29,0.68c-0.14,0.31 -0.2,0.47 -0.2,0.47c-0.07,0.15 -0.17,0.34 -0.31,0.57c-0.15,0.27 -0.28,0.47 -0.37,0.59c-0.16,0.21 -0.32,0.38 -0.49,0.54c-0.18,0.17 -0.38,0.32 -0.61,0.46c-0.01,-0.01 -0.03,-0.02 -0.04,-0.04c-0.02,-0.01 -0.03,-0.03 -0.03,-0.05c0,-0.03 0.1,-0.17 0.29,-0.4c0.11,-0.15 0.2,-0.27 0.25,-0.36c0.08,-0.12 0.15,-0.25 0.21,-0.4c0.07,-0.15 0.14,-0.31 0.21,-0.47c0.18,-0.37 0.34,-0.72 0.46,-1.03c0.08,-0.2 0.16,-0.42 0.23,-0.66c0,-0.08 -0.28,-0.12 -0.85,-0.12c-0.08,0 -0.16,0.01 -0.25,0.04c-0.09,0.02 -0.17,0.07 -0.25,0.13l-0.16,0l0,-0.12c0.26,-0.38 0.51,-0.64 0.76,-0.79c0.19,-0.12 0.4,-0.18 0.61,-0.18c0.07,0 0.17,0.01 0.31,0.03c0.14,0.01 0.24,0.02 0.32,0.02c0.1,-0.01 0.18,-0.01 0.25,-0.01c0.18,-0.02 0.32,-0.07 0.4,-0.14l0.11,0l0.02,0.08z" fill="#333333" id="svg_544"/>
     </g>
     <g id="svg_545">
      <path d="m435.16,106.93c0.08,-0.14 0.15,-0.27 0.21,-0.4c0.15,-0.29 0.27,-0.54 0.36,-0.75c0.11,-0.24 0.21,-0.47 0.3,-0.68c0.13,-0.32 0.2,-0.47 0.2,-0.48c0.07,-0.15 0.17,-0.34 0.3,-0.57c0.16,-0.27 0.29,-0.46 0.38,-0.59c0.16,-0.2 0.32,-0.38 0.48,-0.53c0.19,-0.17 0.39,-0.33 0.61,-0.46c0.02,0.01 0.03,0.02 0.05,0.03c0.01,0.01 0.02,0.03 0.02,0.06c0,0.03 -0.1,0.16 -0.28,0.4c-0.12,0.14 -0.2,0.26 -0.26,0.35c-0.07,0.12 -0.14,0.25 -0.21,0.4c-0.07,0.15 -0.13,0.31 -0.2,0.47c-0.19,0.38 -0.34,0.72 -0.47,1.04c-0.07,0.2 -0.15,0.41 -0.23,0.66c0,0.08 0.29,0.12 0.86,0.12c0.07,0 0.16,-0.02 0.25,-0.04c0.09,-0.03 0.17,-0.07 0.25,-0.14l0.16,0l0,0.13c-0.26,0.38 -0.52,0.64 -0.76,0.79c-0.19,0.12 -0.4,0.17 -0.62,0.17c-0.06,0 -0.16,0 -0.3,-0.02c-0.14,-0.02 -0.25,-0.02 -0.32,-0.02c-0.11,0 -0.19,0 -0.25,0.01c-0.19,0.02 -0.32,0.06 -0.41,0.13l-0.1,0l-0.02,-0.08z" fill="#333333" id="svg_546"/>
     </g>
    </g>
   </g>
   <g id="svg_547">
    <path d="m429.82,61.86c0.04,-0.18 0.06,-0.36 0.06,-0.54c0,-1.33 -1.08,-2.41 -2.41,-2.41c-1.33,0 -2.41,1.08 -2.41,2.41c0,0.28 0.06,0.56 0.15,0.81c-1.17,0.09 -2.1,1.07 -2.1,2.27c0,1.26 1.02,2.27 2.28,2.27c0.33,0 1.52,-0.37 1.78,-0.52l-1.54,2.65l3.75,-0.01l-1.54,-2.64c0.31,0.19 1.62,0.52 1.94,0.52c1.34,0 2.41,-1.08 2.41,-2.41c0,-1.31 -1.06,-2.38 -2.37,-2.4z" fill="#333333" id="svg_548"/>
    <path d="m429.82,61.86c0.04,-0.18 0.06,-0.36 0.06,-0.54c0,-1.33 -1.08,-2.41 -2.41,-2.41c0,0 0,0 -0.01,0l0,9.89l1.92,-0.01l-1.54,-2.64c0.31,0.19 1.62,0.52 1.94,0.52c1.34,0 2.41,-1.08 2.41,-2.41c0,-1.31 -1.06,-2.38 -2.37,-2.4z" fill="#616161" id="svg_549" opacity="0.2"/>
   </g>
   <g id="svg_550">
    <path d="m429.82,80.68c0.04,-0.18 0.06,-0.36 0.06,-0.54c0,-1.33 -1.08,-2.41 -2.41,-2.41c-1.33,0 -2.41,1.08 -2.41,2.41c0,0.28 0.06,0.56 0.15,0.81c-1.17,0.09 -2.1,1.07 -2.1,2.27c0,1.25 1.02,2.27 2.28,2.27c0.33,0 1.52,-0.37 1.78,-0.52l-1.54,2.65l3.75,-0.01l-1.54,-2.64c0.31,0.19 1.62,0.52 1.94,0.52c1.34,0 2.41,-1.08 2.41,-2.41c0,-1.31 -1.06,-2.38 -2.37,-2.4z" fill="#333333" id="svg_551"/>
    <path d="m429.82,80.68c0.04,-0.18 0.06,-0.36 0.06,-0.54c0,-1.33 -1.08,-2.41 -2.41,-2.41c0,0 0,0 -0.01,0l0,9.89l1.92,-0.01l-1.54,-2.64c0.31,0.19 1.62,0.52 1.94,0.52c1.34,0 2.41,-1.08 2.41,-2.41c0,-1.31 -1.06,-2.38 -2.37,-2.4z" fill="#616161" id="svg_552" opacity="0.2"/>
   </g>
   <g id="svg_553">
    <path d="m422.19,71.33c0.04,-0.17 0.07,-0.35 0.06,-0.54c0.01,-1.32 -1.07,-2.4 -2.4,-2.4c-1.33,0 -2.41,1.07 -2.41,2.4c0,0.29 0.05,0.57 0.14,0.82c-1.17,0.09 -2.09,1.07 -2.09,2.26c0,1.26 1.02,2.28 2.27,2.28c0.34,0 1.53,-0.37 1.78,-0.52l-1.54,2.64l3.76,0l-1.55,-2.64c0.31,0.19 1.63,0.52 1.94,0.52c1.34,0 2.42,-1.08 2.41,-2.41c0,-1.32 -1.05,-2.39 -2.37,-2.41z" fill="#333333" id="svg_554"/>
    <path d="m422.19,71.33c0.04,-0.17 0.07,-0.35 0.06,-0.54c0.01,-1.32 -1.07,-2.4 -2.4,-2.4c-0.01,0 -0.01,0 -0.02,0l0,9.88l1.93,0l-1.55,-2.64c0.31,0.19 1.63,0.52 1.94,0.52c1.34,0 2.42,-1.08 2.41,-2.41c0,-1.32 -1.05,-2.39 -2.37,-2.41z" fill="#616161" id="svg_555" opacity="0.2"/>
   </g>
   <g id="svg_556">
    <path d="m410.63,61.86c-0.03,-0.18 -0.06,-0.36 -0.06,-0.54c0,-1.33 1.08,-2.41 2.41,-2.41c1.33,0 2.41,1.08 2.41,2.41c0,0.28 -0.05,0.56 -0.14,0.81c1.17,0.09 2.09,1.07 2.09,2.27c0,1.26 -1.02,2.27 -2.28,2.27c-0.33,0 -1.52,-0.37 -1.77,-0.52l1.54,2.65l-3.76,-0.01l1.54,-2.64c-0.3,0.19 -1.62,0.52 -1.94,0.52c-1.33,0 -2.41,-1.08 -2.41,-2.41c0,-1.31 1.06,-2.38 2.37,-2.4z" fill="#333333" id="svg_557"/>
    <path d="m410.63,61.86c-0.03,-0.18 -0.06,-0.36 -0.06,-0.54c0,-1.33 1.08,-2.41 2.41,-2.41c0.01,0 0.01,0 0.01,0l0,9.89l-1.92,-0.01l1.54,-2.64c-0.3,0.19 -1.62,0.52 -1.94,0.52c-1.33,0 -2.41,-1.08 -2.41,-2.41c0,-1.31 1.06,-2.38 2.37,-2.4z" fill="#616161" id="svg_558" opacity="0.2"/>
   </g>
   <g id="svg_559">
    <path d="m410.63,80.68c-0.03,-0.18 -0.06,-0.36 -0.06,-0.54c0,-1.33 1.08,-2.41 2.41,-2.41c1.33,0 2.41,1.08 2.41,2.41c0,0.28 -0.05,0.56 -0.14,0.81c1.17,0.09 2.09,1.07 2.09,2.27c0,1.25 -1.02,2.27 -2.28,2.27c-0.33,0 -1.52,-0.37 -1.77,-0.52l1.54,2.65l-3.76,-0.01l1.54,-2.64c-0.3,0.19 -1.62,0.52 -1.94,0.52c-1.33,0 -2.41,-1.08 -2.41,-2.41c0,-1.31 1.06,-2.38 2.37,-2.4z" fill="#333333" id="svg_560"/>
    <path d="m410.63,80.68c-0.03,-0.18 -0.06,-0.36 -0.06,-0.54c0,-1.33 1.08,-2.41 2.41,-2.41c0.01,0 0.01,0 0.01,0l0,9.89l-1.92,-0.01l1.54,-2.64c-0.3,0.19 -1.62,0.52 -1.94,0.52c-1.33,0 -2.41,-1.08 -2.41,-2.41c0,-1.31 1.06,-2.38 2.37,-2.4z" fill="#616161" id="svg_561" opacity="0.2"/>
   </g>
   <g id="svg_562">
    <path d="m429.82,102.55c0.04,0.17 0.06,0.35 0.06,0.54c0,1.32 -1.08,2.4 -2.41,2.4c-1.33,0 -2.41,-1.07 -2.41,-2.4c0,-0.29 0.06,-0.57 0.15,-0.82c-1.17,-0.09 -2.1,-1.07 -2.1,-2.27c0,-1.25 1.02,-2.27 2.28,-2.27c0.33,0 1.52,0.37 1.78,0.52l-1.54,-2.65l3.75,0.01l-1.54,2.64c0.31,-0.19 1.62,-0.52 1.94,-0.52c1.34,0 2.41,1.08 2.41,2.41c0,1.32 -1.06,2.38 -2.37,2.41z" fill="#333333" id="svg_563"/>
    <path d="m429.82,102.55c0.04,0.17 0.06,0.35 0.06,0.54c0,1.32 -1.08,2.4 -2.41,2.4c0,0 0,0 -0.01,0l0,-9.88l1.92,0l-1.54,2.64c0.31,-0.19 1.62,-0.52 1.94,-0.52c1.34,0 2.41,1.08 2.41,2.41c0,1.32 -1.06,2.38 -2.37,2.41z" fill="#616161" id="svg_564" opacity="0.2"/>
   </g>
   <g id="svg_565">
    <path d="m410.63,102.55c-0.03,0.17 -0.06,0.35 -0.06,0.54c0,1.32 1.08,2.4 2.41,2.4c1.33,0 2.41,-1.07 2.41,-2.4c0,-0.29 -0.05,-0.57 -0.14,-0.82c1.17,-0.09 2.09,-1.07 2.09,-2.27c0,-1.25 -1.02,-2.27 -2.28,-2.27c-0.33,0 -1.52,0.37 -1.77,0.52l1.54,-2.65l-3.76,0.01l1.54,2.64c-0.3,-0.19 -1.62,-0.52 -1.94,-0.52c-1.33,0 -2.41,1.08 -2.41,2.41c0,1.32 1.06,2.38 2.37,2.41z" fill="#333333" id="svg_566"/>
    <path d="m410.63,102.55c-0.03,0.17 -0.06,0.35 -0.06,0.54c0,1.32 1.08,2.4 2.41,2.4c0.01,0 0.01,0 0.01,0l0,-9.88l-1.92,0l1.54,2.64c-0.3,-0.19 -1.62,-0.52 -1.94,-0.52c-1.33,0 -2.41,1.08 -2.41,2.41c0,1.32 1.06,2.38 2.37,2.41z" fill="#616161" id="svg_567" opacity="0.2"/>
   </g>
   <g id="svg_568">
    <path d="m404.7,65.22c0.01,-0.04 0.01,-0.08 0.01,-0.13c0,-0.3 -0.25,-0.54 -0.55,-0.54c-0.3,0 -0.55,0.24 -0.55,0.54c0,0.07 0.01,0.13 0.03,0.19c-0.26,0.02 -0.47,0.25 -0.47,0.52c0,0.29 0.23,0.52 0.51,0.52c0.08,0 0.35,-0.09 0.41,-0.12l-0.35,0.6l0.86,0l-0.36,-0.6c0.07,0.04 0.37,0.12 0.45,0.12c0.3,0 0.55,-0.25 0.55,-0.55c0,-0.3 -0.24,-0.55 -0.54,-0.55z" fill="#333333" id="svg_569"/>
    <path d="m404.7,65.22c0.01,-0.04 0.01,-0.08 0.01,-0.13c0,-0.3 -0.25,-0.54 -0.55,-0.54c0,0 0,0 0,0l0,2.25l0.44,0l-0.36,-0.6c0.07,0.04 0.38,0.12 0.45,0.12c0.3,0 0.55,-0.25 0.55,-0.55c0,-0.3 -0.24,-0.55 -0.54,-0.55z" fill="#616161" id="svg_570" opacity="0.2"/>
   </g>
   <g id="svg_571">
    <path d="m437.53,100.53c0.01,0.04 0.01,0.08 0.01,0.12c0,0.31 -0.24,0.55 -0.55,0.55c-0.3,0 -0.55,-0.24 -0.55,-0.55c0,-0.06 0.02,-0.12 0.04,-0.18c-0.27,-0.02 -0.48,-0.25 -0.48,-0.52c0,-0.29 0.23,-0.52 0.52,-0.52c0.08,0 0.35,0.08 0.4,0.12l-0.35,-0.6l0.86,0l-0.35,0.6c0.07,-0.04 0.37,-0.12 0.44,-0.12c0.3,0 0.55,0.25 0.55,0.55c0,0.3 -0.24,0.55 -0.54,0.55z" fill="#333333" id="svg_572"/>
    <path d="m437.53,100.53c0.01,0.04 0.01,0.08 0.01,0.12c0,0.31 -0.24,0.55 -0.55,0.55c0,0 0,0 0,0l0,-2.25l0.44,0l-0.35,0.6c0.07,-0.04 0.37,-0.12 0.44,-0.12c0.31,0 0.55,0.25 0.55,0.55c0,0.3 -0.24,0.55 -0.54,0.55z" fill="#616161" id="svg_573" opacity="0.2"/>
   </g>
  </g>
 </g>

</svg>