<?xml version="1.0"?>
<svg width="40" height="56" xmlns="http://www.w3.org/2000/svg" xmlns:svg="http://www.w3.org/2000/svg" enable-background="new 0 0 450 450" version="1.1" xml:space="preserve">
 <g class="layer">
  <title>Layer 1</title>
  <g id="svg_2286" transform="translate(-8.71413, 0.10627) matrix(1, 0, 0, 1, -148.343, -384.785)">
   <g id="svg_2287">
    <g id="svg_2288">
     <g id="svg_2289">
      <path d="m161.6,440.54c-2.36,0 -4.28,-1.88 -4.28,-4.19l-0.12,-47.31c-0.01,-2.33 1.91,-4.22 4.27,-4.21l31.26,0.06c2.35,0 4.26,1.89 4.26,4.22l0,47.2c0,2.31 -1.9,4.19 -4.25,4.19l-31.14,0.04z" fill="#C9C9C9" id="svg_2290"/>
     </g>
     <path d="m161.99,440.42c-2.33,0 -4.22,-1.88 -4.22,-4.2l0,-47.19c0,-2.32 1.89,-4.2 4.22,-4.2l30.8,0c2.32,0 4.21,1.88 4.21,4.2l0,47.19c0,2.32 -1.89,4.2 -4.21,4.2l-30.8,0z" fill="#FFFFFF" id="svg_2291"/>
     <g id="svg_2292">
      <path d="m162.72,391.22c0,0.09 -0.05,0.21 -0.13,0.37c-0.12,0.22 -0.29,0.44 -0.51,0.66c-0.26,0.27 -0.4,0.4 -0.42,0.42c-0.16,0.12 -0.36,0.18 -0.6,0.18c-0.32,0 -0.6,-0.12 -0.83,-0.37c-0.2,-0.21 -0.3,-0.41 -0.3,-0.61c0,-0.14 0.07,-0.3 0.2,-0.48c0.14,-0.18 0.28,-0.37 0.42,-0.55c-0.11,-0.09 -0.2,-0.2 -0.28,-0.31c-0.08,-0.12 -0.12,-0.25 -0.12,-0.39c0,-0.18 0.07,-0.37 0.2,-0.57c0.13,-0.17 0.24,-0.32 0.32,-0.44c0.21,-0.31 0.39,-0.5 0.53,-0.59c0.14,-0.09 0.29,-0.13 0.45,-0.13c0.24,0 0.45,0.06 0.63,0.2c0.18,0.14 0.27,0.33 0.27,0.57c0,0.25 -0.11,0.49 -0.32,0.72c-0.21,0.23 -0.32,0.39 -0.32,0.47c0.21,0.14 0.4,0.28 0.55,0.41c0.17,0.14 0.26,0.29 0.26,0.44zm-0.8,0.54c0,-0.14 -0.15,-0.3 -0.46,-0.48c-0.28,-0.17 -0.45,-0.25 -0.53,-0.25c-0.03,0 -0.07,0.04 -0.12,0.13c-0.05,0.09 -0.07,0.17 -0.07,0.23c0,0.17 0.1,0.33 0.3,0.48c0.19,0.14 0.36,0.21 0.53,0.21c0.08,0 0.16,-0.04 0.24,-0.11c0.08,-0.06 0.11,-0.14 0.11,-0.21zm-0.22,-1.95c0,-0.1 -0.06,-0.2 -0.17,-0.31c-0.12,-0.13 -0.26,-0.19 -0.42,-0.19c-0.07,0 -0.13,0.02 -0.18,0.06s-0.07,0.1 -0.07,0.17c0,0.13 0.1,0.28 0.31,0.43c0.17,0.14 0.29,0.21 0.34,0.21c0.04,0 0.08,-0.05 0.12,-0.14c0.05,-0.09 0.07,-0.16 0.07,-0.23z" fill="#333333" id="svg_2293"/>
     </g>
     <g id="svg_2294">
      <path d="m192.32,434.56c0,-0.09 0.04,-0.22 0.13,-0.38c0.12,-0.21 0.28,-0.43 0.51,-0.66c0.26,-0.26 0.4,-0.4 0.41,-0.42c0.17,-0.12 0.36,-0.18 0.6,-0.18c0.32,0 0.6,0.13 0.84,0.37c0.2,0.21 0.3,0.42 0.3,0.61c0,0.14 -0.07,0.3 -0.21,0.48c-0.13,0.19 -0.27,0.37 -0.42,0.55c0.11,0.1 0.2,0.2 0.29,0.32c0.08,0.12 0.12,0.24 0.12,0.38c0,0.18 -0.07,0.37 -0.2,0.57c-0.13,0.18 -0.24,0.33 -0.33,0.45c-0.21,0.3 -0.38,0.49 -0.52,0.58c-0.14,0.09 -0.29,0.14 -0.45,0.14c-0.24,0 -0.46,-0.07 -0.63,-0.21c-0.18,-0.14 -0.27,-0.33 -0.27,-0.56c0,-0.26 0.11,-0.5 0.32,-0.73c0.21,-0.23 0.32,-0.38 0.32,-0.47c-0.22,-0.14 -0.4,-0.27 -0.55,-0.4c-0.18,-0.15 -0.26,-0.3 -0.26,-0.44zm0.79,-0.54c0,0.13 0.15,0.29 0.46,0.47c0.28,0.17 0.46,0.26 0.54,0.26c0.02,0 0.06,-0.05 0.11,-0.14c0.06,-0.09 0.08,-0.17 0.08,-0.23c0,-0.17 -0.1,-0.33 -0.3,-0.48c-0.19,-0.14 -0.37,-0.2 -0.53,-0.2c-0.09,0 -0.17,0.03 -0.24,0.1c-0.08,0.07 -0.12,0.14 -0.12,0.22zm0.23,1.94c0,0.1 0.05,0.21 0.16,0.31c0.13,0.13 0.27,0.19 0.42,0.19c0.08,0 0.14,-0.02 0.19,-0.06c0.05,-0.05 0.07,-0.1 0.07,-0.17c0,-0.13 -0.1,-0.28 -0.31,-0.43c-0.18,-0.13 -0.29,-0.2 -0.34,-0.2c-0.04,0 -0.08,0.04 -0.13,0.13c-0.04,0.09 -0.06,0.17 -0.06,0.23z" fill="#333333" id="svg_2295"/>
     </g>
    </g>
   </g>
   <g id="svg_2296">
    <path d="m186.98,392.28c0.04,-0.18 0.06,-0.35 0.06,-0.54c0,-1.33 -1.08,-2.41 -2.41,-2.41c-1.33,0.01 -2.41,1.08 -2.41,2.41c0,0.29 0.06,0.56 0.15,0.81c-1.17,0.09 -2.1,1.07 -2.1,2.27c0,1.26 1.02,2.27 2.28,2.28c0.33,0 1.52,-0.37 1.78,-0.52l-1.54,2.64l3.75,0l-1.54,-2.64c0.31,0.18 1.62,0.51 1.94,0.51c1.33,0 2.41,-1.08 2.41,-2.41c0,-1.31 -1.06,-2.38 -2.37,-2.4z" fill="#333333" id="svg_2297"/>
    <path d="m186.98,392.28c0.04,-0.18 0.06,-0.35 0.06,-0.54c0,-1.33 -1.08,-2.41 -2.41,-2.41c0,0 0,0.01 -0.01,0.01l0,9.88l1.92,0l-1.54,-2.64c0.31,0.18 1.62,0.51 1.94,0.51c1.33,0 2.41,-1.08 2.41,-2.41c0,-1.31 -1.06,-2.38 -2.37,-2.4z" fill="#616161" id="svg_2298" opacity="0.2"/>
   </g>
   <g id="svg_2299">
    <path d="m186.98,404.44c0.04,-0.17 0.06,-0.35 0.06,-0.54c0,-1.32 -1.08,-2.4 -2.41,-2.4c-1.33,0 -2.41,1.08 -2.41,2.4c0,0.29 0.06,0.57 0.15,0.82c-1.17,0.09 -2.1,1.07 -2.1,2.27c0,1.26 1.02,2.27 2.28,2.27c0.33,0 1.52,-0.37 1.78,-0.52l-1.54,2.65l3.75,-0.01l-1.54,-2.64c0.31,0.19 1.62,0.52 1.94,0.52c1.33,0 2.41,-1.08 2.41,-2.41c0,-1.31 -1.06,-2.38 -2.37,-2.41z" fill="#333333" id="svg_2300"/>
    <path d="m186.98,404.44c0.04,-0.17 0.06,-0.35 0.06,-0.54c0,-1.32 -1.08,-2.4 -2.41,-2.4c0,0 0,0 -0.01,0l0,9.88l1.92,0l-1.54,-2.64c0.31,0.19 1.62,0.52 1.94,0.52c1.33,0 2.41,-1.08 2.41,-2.41c0,-1.31 -1.06,-2.38 -2.37,-2.41z" fill="#616161" id="svg_2301" opacity="0.2"/>
   </g>
   <g id="svg_2302">
    <path d="m167.79,392.28c-0.03,-0.18 -0.06,-0.35 -0.05,-0.54c-0.01,-1.33 1.08,-2.41 2.4,-2.41c1.33,0.01 2.41,1.08 2.41,2.41c0,0.29 -0.05,0.56 -0.14,0.81c1.17,0.09 2.09,1.07 2.09,2.27c0,1.26 -1.02,2.27 -2.27,2.28c-0.34,0 -1.53,-0.37 -1.78,-0.52l1.54,2.64l-3.76,0l1.55,-2.64c-0.31,0.18 -1.63,0.51 -1.94,0.51c-1.34,0 -2.41,-1.08 -2.41,-2.41c-0.01,-1.31 1.05,-2.38 2.36,-2.4z" fill="#333333" id="svg_2303"/>
    <path d="m167.79,392.28c-0.03,-0.18 -0.06,-0.35 -0.05,-0.54c-0.01,-1.33 1.08,-2.41 2.4,-2.41c0.01,0 0.01,0.01 0.01,0.01l0,9.88l-1.92,0l1.55,-2.64c-0.31,0.18 -1.63,0.51 -1.94,0.51c-1.34,0 -2.41,-1.08 -2.41,-2.41c-0.01,-1.31 1.05,-2.38 2.36,-2.4z" fill="#616161" id="svg_2304" opacity="0.2"/>
   </g>
   <g id="svg_2305">
    <path d="m167.79,404.44c-0.03,-0.17 -0.06,-0.35 -0.05,-0.54c-0.01,-1.32 1.08,-2.4 2.4,-2.4c1.33,0 2.41,1.08 2.41,2.4c0,0.29 -0.05,0.57 -0.14,0.82c1.17,0.09 2.09,1.07 2.09,2.27c0,1.26 -1.02,2.27 -2.27,2.27c-0.34,0 -1.53,-0.37 -1.78,-0.52l1.54,2.65l-3.76,-0.01l1.55,-2.64c-0.31,0.19 -1.63,0.52 -1.94,0.52c-1.34,0 -2.41,-1.08 -2.41,-2.41c-0.01,-1.31 1.05,-2.38 2.36,-2.41z" fill="#333333" id="svg_2306"/>
    <path d="m167.79,404.44c-0.03,-0.17 -0.06,-0.35 -0.05,-0.54c-0.01,-1.32 1.08,-2.4 2.4,-2.4c0.01,0 0.01,0 0.01,0l0,9.88l-1.92,0l1.55,-2.64c-0.31,0.19 -1.63,0.52 -1.94,0.52c-1.34,0 -2.41,-1.08 -2.41,-2.41c-0.01,-1.31 1.05,-2.38 2.36,-2.41z" fill="#616161" id="svg_2307" opacity="0.2"/>
   </g>
   <g id="svg_2308">
    <path d="m186.98,432.97c0.04,0.17 0.06,0.35 0.06,0.54c0,1.33 -1.08,2.4 -2.41,2.4c-1.33,0 -2.41,-1.07 -2.41,-2.4c0,-0.29 0.06,-0.57 0.15,-0.82c-1.17,-0.09 -2.1,-1.07 -2.1,-2.26c0,-1.26 1.02,-2.28 2.28,-2.28c0.33,0 1.52,0.37 1.78,0.52l-1.54,-2.64l3.75,0l-1.54,2.64c0.31,-0.18 1.62,-0.51 1.94,-0.51c1.33,-0.01 2.41,1.08 2.41,2.41c0,1.31 -1.06,2.38 -2.37,2.4z" fill="#333333" id="svg_2309"/>
    <path d="m186.98,432.97c0.04,0.17 0.06,0.35 0.06,0.54c0,1.33 -1.08,2.4 -2.41,2.4c0,0 0,0 -0.01,0l0,-9.88l1.92,0l-1.54,2.64c0.31,-0.19 1.62,-0.52 1.94,-0.52c1.33,0 2.41,1.08 2.41,2.41c0,1.32 -1.06,2.39 -2.37,2.41z" fill="#616161" id="svg_2310" opacity="0.2"/>
   </g>
   <g id="svg_2311">
    <path d="m186.98,420.8c0.04,0.18 0.06,0.35 0.06,0.54c0,1.33 -1.08,2.41 -2.41,2.41c-1.33,0 -2.41,-1.08 -2.41,-2.41c0,-0.28 0.06,-0.56 0.15,-0.81c-1.17,-0.09 -2.1,-1.07 -2.1,-2.27c0,-1.26 1.02,-2.27 2.28,-2.27c0.33,-0.01 1.52,0.37 1.78,0.52l-1.54,-2.65l3.75,0.01l-1.54,2.64c0.31,-0.19 1.62,-0.52 1.94,-0.52c1.33,0 2.41,1.08 2.41,2.41c0,1.31 -1.06,2.38 -2.37,2.4z" fill="#333333" id="svg_2312"/>
    <path d="m186.98,420.8c0.04,0.18 0.06,0.35 0.06,0.54c0,1.33 -1.08,2.41 -2.41,2.41c0,0 0,0 -0.01,0l0,-9.89l1.92,0.01l-1.54,2.64c0.31,-0.19 1.62,-0.52 1.94,-0.52c1.33,0 2.41,1.08 2.41,2.41c0,1.31 -1.06,2.38 -2.37,2.4z" fill="#616161" id="svg_2313" opacity="0.2"/>
   </g>
   <g id="svg_2314">
    <path d="m167.79,432.97c-0.03,0.17 -0.06,0.35 -0.05,0.54c-0.01,1.33 1.08,2.4 2.4,2.4c1.33,0 2.41,-1.07 2.41,-2.4c0,-0.29 -0.05,-0.57 -0.14,-0.82c1.17,-0.09 2.09,-1.07 2.09,-2.26c0,-1.26 -1.02,-2.28 -2.27,-2.28c-0.34,0 -1.53,0.37 -1.78,0.52l1.54,-2.64l-3.76,0l1.55,2.64c-0.31,-0.18 -1.63,-0.51 -1.94,-0.51c-1.34,-0.01 -2.41,1.08 -2.41,2.41c-0.01,1.31 1.05,2.38 2.36,2.4z" fill="#333333" id="svg_2315"/>
    <path d="m167.79,432.97c-0.03,0.17 -0.06,0.35 -0.05,0.54c-0.01,1.33 1.08,2.4 2.4,2.4c0.01,0 0.01,0 0.01,0l0,-9.88l-1.92,0l1.55,2.64c-0.31,-0.19 -1.63,-0.52 -1.94,-0.52c-1.34,0 -2.41,1.08 -2.41,2.41c-0.01,1.32 1.05,2.39 2.36,2.41z" fill="#616161" id="svg_2316" opacity="0.2"/>
   </g>
   <g id="svg_2317">
    <path d="m167.79,420.8c-0.03,0.18 -0.06,0.35 -0.05,0.54c-0.01,1.33 1.08,2.41 2.4,2.41c1.33,0 2.41,-1.08 2.41,-2.41c0,-0.28 -0.05,-0.56 -0.14,-0.81c1.17,-0.09 2.09,-1.07 2.09,-2.27c0,-1.26 -1.02,-2.27 -2.27,-2.27c-0.34,-0.01 -1.53,0.37 -1.78,0.52l1.54,-2.65l-3.76,0.01l1.55,2.64c-0.31,-0.19 -1.63,-0.52 -1.94,-0.52c-1.34,0 -2.41,1.08 -2.41,2.41c-0.01,1.31 1.05,2.38 2.36,2.4z" fill="#333333" id="svg_2318"/>
    <path d="m167.79,420.8c-0.03,0.18 -0.06,0.35 -0.05,0.54c-0.01,1.33 1.08,2.41 2.4,2.41c0.01,0 0.01,0 0.01,0l0,-9.89l-1.92,0.01l1.55,2.64c-0.31,-0.19 -1.63,-0.52 -1.94,-0.52c-1.34,0 -2.41,1.08 -2.41,2.41c-0.01,1.31 1.05,2.38 2.36,2.4z" fill="#616161" id="svg_2319" opacity="0.2"/>
   </g>
   <g id="svg_2320">
    <path d="m161.47,395.64c0.01,-0.04 0.01,-0.08 0.01,-0.12c0,-0.3 -0.24,-0.55 -0.55,-0.55c-0.3,0 -0.55,0.25 -0.55,0.55c0,0.06 0.01,0.13 0.03,0.19c-0.26,0.02 -0.47,0.24 -0.47,0.51c0,0.29 0.23,0.52 0.52,0.52c0.07,0 0.35,-0.08 0.4,-0.12l-0.35,0.61l0.86,0l-0.35,-0.61c0.07,0.05 0.37,0.12 0.44,0.12c0.3,0 0.55,-0.24 0.55,-0.55c0,-0.3 -0.24,-0.54 -0.54,-0.55z" fill="#333333" id="svg_2321"/>
    <path d="m161.47,395.64c0.01,-0.04 0.01,-0.08 0.01,-0.12c0,-0.3 -0.24,-0.55 -0.55,-0.55c0,0 0,0 0,0l0,2.26l0.44,-0.01l-0.35,-0.6c0.07,0.04 0.37,0.12 0.44,0.12c0.3,0 0.55,-0.25 0.55,-0.55c0,-0.3 -0.24,-0.54 -0.54,-0.55z" fill="#616161" id="svg_2322" opacity="0.2"/>
   </g>
   <g id="svg_2323">
    <path d="m194.3,430.95c0.01,0.04 0.01,0.08 0.01,0.13c0,0.3 -0.25,0.54 -0.55,0.54c-0.3,0 -0.54,-0.24 -0.55,-0.54c0,-0.07 0.01,-0.13 0.04,-0.19c-0.27,-0.02 -0.48,-0.24 -0.48,-0.52c0,-0.28 0.23,-0.52 0.52,-0.52c0.07,0 0.34,0.09 0.4,0.12l-0.35,-0.6l0.86,0l-0.35,0.6c0.07,-0.04 0.37,-0.12 0.44,-0.12c0.3,0 0.55,0.25 0.55,0.55c0,0.3 -0.24,0.55 -0.54,0.55z" fill="#333333" id="svg_2324"/>
    <path d="m194.3,430.95c0.01,0.04 0.01,0.08 0.01,0.13c0,0.3 -0.25,0.54 -0.55,0.54c0,0 0,0 0,0l0,-2.25l0.44,0l-0.35,0.6c0.07,-0.04 0.37,-0.11 0.44,-0.11c0.3,-0.01 0.55,0.24 0.55,0.54c0,0.3 -0.24,0.55 -0.54,0.55z" fill="#616161" id="svg_2325" opacity="0.2"/>
   </g>
  </g>
 </g>

</svg>