<?xml version="1.0"?>
<svg width="40" height="56" xmlns="http://www.w3.org/2000/svg" xmlns:svg="http://www.w3.org/2000/svg" enable-background="new 0 0 450 450" version="1.1" xml:space="preserve">
 <g class="layer">
  <title>Layer 1</title>
  <g id="svg_2104" transform="translate(-8.71413) translate(-148.348, -318.805)">
   <g id="svg_2105">
    <g id="svg_2106">
     <g id="svg_2107">
      <path d="m161.6,374.56c-2.36,0 -4.28,-1.87 -4.28,-4.19l-0.12,-47.3c-0.01,-2.33 1.91,-4.22 4.27,-4.22l31.26,0.06c2.35,0.01 4.27,1.9 4.27,4.22l0,47.2c0,2.31 -1.91,4.19 -4.25,4.19l-31.15,0.04z" fill="#C9C9C9" id="svg_2108"/>
     </g>
     <path d="m161.99,374.44c-2.33,0 -4.22,-1.88 -4.22,-4.2l0,-47.19c0,-2.31 1.89,-4.19 4.22,-4.19l30.8,0c2.32,0 4.22,1.88 4.22,4.19l0,47.19c0,2.32 -1.9,4.2 -4.22,4.2l-30.8,0z" fill="#FFFFFF" id="svg_2109"/>
     <g id="svg_2110">
      <path d="m162.71,323.96c0,0.3 -0.06,0.62 -0.2,0.97c-0.13,0.35 -0.27,0.6 -0.41,0.76c-0.26,0.29 -0.5,0.53 -0.72,0.72c-0.37,0.32 -0.67,0.48 -0.88,0.48c-0.02,0 -0.05,-0.01 -0.07,-0.02c-0.02,-0.02 -0.03,-0.04 -0.05,-0.06c0.2,-0.13 0.41,-0.31 0.62,-0.55c0.21,-0.24 0.42,-0.56 0.63,-0.96l0,-0.08c-0.02,-0.01 -0.04,-0.02 -0.05,-0.03c-0.17,0.08 -0.32,0.14 -0.45,0.19c-0.14,0.06 -0.26,0.08 -0.37,0.08c-0.21,0 -0.41,-0.11 -0.59,-0.35c-0.22,-0.26 -0.33,-0.58 -0.33,-0.96c0,-0.36 0.22,-0.75 0.66,-1.15c0.4,-0.38 0.74,-0.56 1.01,-0.56c0.25,0 0.5,0.13 0.75,0.39c0.3,0.31 0.45,0.69 0.45,1.13zm-0.93,0.53c0,-0.36 -0.1,-0.66 -0.33,-0.9c-0.19,-0.21 -0.39,-0.32 -0.59,-0.32c-0.05,0 -0.08,0.02 -0.1,0.08c-0.02,0.07 -0.03,0.13 -0.03,0.2c0,0.31 0.08,0.57 0.23,0.77c0.19,0.25 0.37,0.37 0.54,0.37c0.09,0 0.15,-0.01 0.19,-0.03c0.06,-0.03 0.09,-0.09 0.09,-0.17z" fill="#333333" id="svg_2111"/>
     </g>
     <g id="svg_2112">
      <path d="m192.33,369.86c0,-0.3 0.06,-0.62 0.2,-0.97c0.13,-0.35 0.27,-0.6 0.41,-0.76c0.26,-0.29 0.5,-0.53 0.72,-0.72c0.37,-0.32 0.66,-0.48 0.88,-0.48c0.02,0 0.05,0.01 0.06,0.02c0.02,0.02 0.04,0.04 0.06,0.06c-0.2,0.13 -0.41,0.31 -0.62,0.55c-0.22,0.24 -0.42,0.56 -0.63,0.96l0,0.08c0.02,0.01 0.04,0.02 0.05,0.03c0.17,-0.08 0.32,-0.14 0.45,-0.19c0.14,-0.06 0.26,-0.08 0.37,-0.08c0.21,0 0.41,0.11 0.59,0.35c0.22,0.26 0.33,0.58 0.33,0.95c0,0.37 -0.22,0.76 -0.66,1.16c-0.4,0.38 -0.74,0.56 -1.01,0.56c-0.25,0 -0.5,-0.13 -0.75,-0.39c-0.3,-0.31 -0.45,-0.69 -0.45,-1.13zm0.93,-0.53c0,0.36 0.11,0.66 0.32,0.9c0.2,0.22 0.4,0.33 0.6,0.33c0.05,0 0.08,-0.04 0.1,-0.09c0.02,-0.06 0.03,-0.13 0.03,-0.2c0,-0.31 -0.08,-0.57 -0.24,-0.77c-0.18,-0.25 -0.36,-0.37 -0.53,-0.37c-0.09,0 -0.15,0.01 -0.19,0.03c-0.07,0.03 -0.09,0.09 -0.09,0.17z" fill="#333333" id="svg_2113"/>
     </g>
    </g>
   </g>
   <g id="svg_2114">
    <path d="m187.04,326.3c0.04,-0.17 0.07,-0.35 0.06,-0.54c0.01,-1.33 -1.08,-2.4 -2.4,-2.4c-1.33,0 -2.41,1.07 -2.41,2.4c0,0.29 0.05,0.57 0.14,0.82c-1.17,0.09 -2.09,1.07 -2.1,2.27c0.01,1.25 1.03,2.27 2.28,2.27c0.34,0 1.53,-0.37 1.78,-0.52l-1.54,2.64l3.76,0l-1.55,-2.64c0.31,0.19 1.63,0.52 1.94,0.52c1.34,0 2.41,-1.08 2.41,-2.41c0,-1.32 -1.06,-2.39 -2.37,-2.41z" fill="#333333" id="svg_2115"/>
    <path d="m187.04,326.3c0.04,-0.17 0.07,-0.35 0.06,-0.54c0.01,-1.33 -1.08,-2.4 -2.4,-2.4c-0.01,0 -0.01,0 -0.02,0l0,9.88l1.93,0l-1.55,-2.64c0.31,0.19 1.63,0.52 1.94,0.52c1.34,0 2.41,-1.08 2.41,-2.41c0,-1.32 -1.06,-2.39 -2.37,-2.41z" fill="#616161" id="svg_2116" opacity="0.2"/>
   </g>
   <g id="svg_2117">
    <path d="m179.68,344.71c0.04,-0.18 0.06,-0.35 0.06,-0.54c0,-1.33 -1.08,-2.41 -2.41,-2.4c-1.33,0 -2.4,1.07 -2.41,2.4c0,0.29 0.06,0.56 0.15,0.81c-1.17,0.09 -2.1,1.08 -2.1,2.27c0,1.26 1.02,2.27 2.28,2.28c0.33,0 1.52,-0.37 1.78,-0.52l-1.55,2.64l3.76,-0.01l-1.54,-2.63c0.31,0.18 1.62,0.51 1.94,0.51c1.33,0 2.41,-1.08 2.41,-2.41c0,-1.31 -1.06,-2.38 -2.37,-2.4z" fill="#333333" id="svg_2118"/>
    <path d="m179.68,344.71c0.04,-0.18 0.06,-0.35 0.06,-0.54c0,-1.33 -1.08,-2.41 -2.41,-2.4c0,0 0,0 -0.01,0l0,9.88l1.92,-0.01l-1.54,-2.63c0.31,0.18 1.62,0.51 1.94,0.51c1.33,0 2.41,-1.08 2.41,-2.41c0,-1.31 -1.06,-2.38 -2.37,-2.4z" fill="#616161" id="svg_2119" opacity="0.2"/>
   </g>
   <g id="svg_2120">
    <path d="m187.04,338.47c0.04,-0.18 0.07,-0.35 0.06,-0.54c0.01,-1.33 -1.08,-2.41 -2.4,-2.4c-1.33,0 -2.41,1.07 -2.41,2.4c0,0.29 0.05,0.56 0.14,0.81c-1.17,0.09 -2.09,1.07 -2.1,2.27c0.01,1.26 1.03,2.27 2.28,2.28c0.34,0 1.53,-0.37 1.78,-0.52l-1.54,2.64l3.76,0l-1.55,-2.64c0.31,0.18 1.63,0.51 1.94,0.51c1.34,0 2.41,-1.07 2.41,-2.41c0,-1.31 -1.06,-2.38 -2.37,-2.4z" fill="#333333" id="svg_2121"/>
    <path d="m187.04,338.47c0.04,-0.18 0.07,-0.35 0.06,-0.54c0.01,-1.33 -1.08,-2.41 -2.4,-2.4c-0.01,0 -0.01,0 -0.02,0l0,9.88l1.93,0l-1.55,-2.64c0.31,0.18 1.63,0.51 1.94,0.51c1.34,0 2.41,-1.07 2.41,-2.41c0,-1.31 -1.06,-2.38 -2.37,-2.4z" fill="#616161" id="svg_2122" opacity="0.2"/>
   </g>
   <g id="svg_2123">
    <path d="m167.85,326.3c-0.03,-0.17 -0.06,-0.35 -0.05,-0.54c-0.01,-1.33 1.08,-2.4 2.4,-2.4c1.33,0 2.41,1.07 2.41,2.4c0,0.29 -0.05,0.57 -0.14,0.82c1.17,0.09 2.09,1.07 2.1,2.27c-0.01,1.25 -1.03,2.27 -2.28,2.27c-0.34,0 -1.53,-0.37 -1.78,-0.52l1.54,2.64l-3.76,0l1.55,-2.64c-0.31,0.19 -1.62,0.52 -1.94,0.52c-1.34,0 -2.41,-1.08 -2.41,-2.41c0,-1.32 1.05,-2.39 2.36,-2.41z" fill="#333333" id="svg_2124"/>
    <path d="m167.85,326.3c-0.03,-0.17 -0.06,-0.35 -0.05,-0.54c-0.01,-1.33 1.08,-2.4 2.4,-2.4c0.01,0 0.01,0 0.01,0l0,9.88l-1.92,0l1.55,-2.64c-0.31,0.19 -1.63,0.52 -1.94,0.52c-1.34,0 -2.42,-1.08 -2.41,-2.41c0,-1.32 1.05,-2.39 2.36,-2.41z" fill="#616161" id="svg_2125" opacity="0.2"/>
   </g>
   <g id="svg_2126">
    <path d="m167.85,338.47c-0.03,-0.18 -0.06,-0.35 -0.05,-0.54c-0.01,-1.33 1.08,-2.41 2.4,-2.4c1.33,0 2.41,1.07 2.41,2.4c0,0.29 -0.05,0.56 -0.14,0.81c1.17,0.09 2.09,1.07 2.1,2.27c-0.01,1.26 -1.03,2.27 -2.28,2.28c-0.34,0 -1.53,-0.37 -1.78,-0.52l1.54,2.64l-3.76,0l1.55,-2.64c-0.31,0.18 -1.62,0.51 -1.94,0.51c-1.34,0 -2.41,-1.07 -2.41,-2.41c0,-1.31 1.05,-2.38 2.36,-2.4z" fill="#333333" id="svg_2127"/>
    <path d="m167.85,338.47c-0.03,-0.18 -0.06,-0.35 -0.05,-0.54c-0.01,-1.33 1.08,-2.41 2.4,-2.4c0.01,0 0.01,0 0.01,0l0,9.88l-1.92,0l1.55,-2.64c-0.31,0.18 -1.63,0.51 -1.94,0.51c-1.34,0 -2.42,-1.07 -2.41,-2.41c0,-1.31 1.05,-2.38 2.36,-2.4z" fill="#616161" id="svg_2128" opacity="0.2"/>
   </g>
   <g id="svg_2129">
    <path d="m187.04,366.99c0.04,0.18 0.07,0.35 0.06,0.54c0.01,1.33 -1.08,2.41 -2.4,2.41c-1.33,-0.01 -2.41,-1.08 -2.41,-2.41c0,-0.29 0.05,-0.56 0.14,-0.81c-1.17,-0.09 -2.09,-1.07 -2.1,-2.27c0.01,-1.26 1.03,-2.27 2.28,-2.27c0.34,-0.01 1.53,0.37 1.78,0.52l-1.54,-2.65l3.76,0.01l-1.55,2.64c0.31,-0.19 1.63,-0.52 1.94,-0.52c1.34,0 2.41,1.08 2.41,2.41c0,1.31 -1.06,2.38 -2.37,2.4z" fill="#333333" id="svg_2130"/>
    <path d="m187.04,366.99c0.04,0.18 0.07,0.35 0.06,0.54c0.01,1.33 -1.08,2.41 -2.4,2.41c-0.01,0 -0.01,0 -0.02,0l0,-9.89l1.93,0l-1.55,2.65c0.31,-0.19 1.63,-0.52 1.94,-0.52c1.34,0 2.41,1.08 2.41,2.41c0,1.31 -1.06,2.38 -2.37,2.4z" fill="#616161" id="svg_2131" opacity="0.2"/>
   </g>
   <g id="svg_2132">
    <path d="m187.04,354.83c0.04,0.17 0.07,0.35 0.06,0.54c0.01,1.32 -1.08,2.4 -2.4,2.4c-1.33,0 -2.41,-1.07 -2.41,-2.4c0,-0.29 0.05,-0.57 0.14,-0.82c-1.17,-0.09 -2.09,-1.07 -2.1,-2.26c0.01,-1.26 1.03,-2.28 2.28,-2.28c0.34,0 1.53,0.37 1.78,0.52l-1.54,-2.64l3.76,0l-1.55,2.64c0.31,-0.19 1.63,-0.52 1.94,-0.52c1.34,0 2.41,1.08 2.41,2.41c0,1.32 -1.06,2.39 -2.37,2.41z" fill="#333333" id="svg_2133"/>
    <path d="m187.04,354.83c0.04,0.17 0.07,0.35 0.06,0.54c0.01,1.32 -1.08,2.4 -2.4,2.4c-0.01,0 -0.01,0 -0.02,0l0,-9.88l1.93,0l-1.55,2.64c0.31,-0.19 1.63,-0.52 1.94,-0.52c1.34,0 2.41,1.08 2.41,2.41c0,1.32 -1.06,2.39 -2.37,2.41z" fill="#616161" id="svg_2134" opacity="0.2"/>
   </g>
   <g id="svg_2135">
    <path d="m167.85,366.99c-0.03,0.18 -0.06,0.35 -0.05,0.54c-0.01,1.33 1.08,2.41 2.4,2.41c1.33,-0.01 2.41,-1.08 2.41,-2.41c0,-0.29 -0.05,-0.56 -0.14,-0.81c1.17,-0.09 2.09,-1.07 2.1,-2.27c-0.01,-1.26 -1.03,-2.27 -2.28,-2.27c-0.34,-0.01 -1.53,0.37 -1.78,0.52l1.54,-2.65l-3.76,0.01l1.55,2.64c-0.31,-0.19 -1.62,-0.52 -1.94,-0.52c-1.34,0 -2.41,1.08 -2.41,2.41c0,1.31 1.05,2.38 2.36,2.4z" fill="#333333" id="svg_2136"/>
    <path d="m167.85,366.99c-0.03,0.18 -0.06,0.35 -0.05,0.54c-0.01,1.33 1.08,2.41 2.4,2.41c0.01,0 0.01,0 0.01,0l0,-9.89l-1.92,0l1.55,2.65c-0.31,-0.19 -1.63,-0.52 -1.94,-0.52c-1.34,0 -2.42,1.08 -2.41,2.41c0,1.31 1.05,2.38 2.36,2.4z" fill="#616161" id="svg_2137" opacity="0.2"/>
   </g>
   <g id="svg_2138">
    <path d="m167.85,354.83c-0.03,0.17 -0.06,0.35 -0.05,0.54c-0.01,1.32 1.08,2.4 2.4,2.4c1.33,0 2.41,-1.07 2.41,-2.4c0,-0.29 -0.05,-0.57 -0.14,-0.82c1.17,-0.09 2.09,-1.07 2.1,-2.26c-0.01,-1.26 -1.03,-2.28 -2.28,-2.28c-0.34,0 -1.53,0.37 -1.78,0.52l1.54,-2.64l-3.76,0l1.55,2.64c-0.31,-0.19 -1.62,-0.52 -1.94,-0.52c-1.34,0 -2.41,1.08 -2.41,2.41c0,1.32 1.05,2.39 2.36,2.41z" fill="#333333" id="svg_2139"/>
    <path d="m167.85,354.83c-0.03,0.17 -0.06,0.35 -0.05,0.54c-0.01,1.32 1.08,2.4 2.4,2.4c0.01,0 0.01,0 0.01,0l0,-9.88l-1.92,0l1.55,2.64c-0.31,-0.19 -1.63,-0.52 -1.94,-0.52c-1.34,0 -2.42,1.08 -2.41,2.41c0,1.32 1.05,2.39 2.36,2.41z" fill="#616161" id="svg_2140" opacity="0.2"/>
   </g>
   <g id="svg_2141">
    <path d="m161.5,329.67c0.01,-0.04 0.02,-0.08 0.02,-0.13c0,-0.3 -0.25,-0.55 -0.55,-0.55c-0.31,0 -0.55,0.25 -0.55,0.55c0,0.07 0.01,0.13 0.03,0.19c-0.27,0.02 -0.48,0.24 -0.48,0.52c0,0.28 0.23,0.51 0.52,0.52c0.08,0 0.35,-0.09 0.41,-0.12l-0.36,0.6l0.86,0l-0.35,-0.6c0.07,0.04 0.37,0.11 0.44,0.11c0.31,0 0.55,-0.24 0.55,-0.55c0,-0.3 -0.24,-0.54 -0.54,-0.54z" fill="#333333" id="svg_2142"/>
    <path d="m161.5,329.67c0.01,-0.04 0.02,-0.08 0.02,-0.13c0,-0.3 -0.25,-0.55 -0.55,-0.55c0,0 -0.01,0 -0.01,0l0,2.26l0.44,0l-0.35,-0.6c0.07,0.04 0.37,0.11 0.45,0.11c0.3,0 0.54,-0.24 0.54,-0.54c0,-0.31 -0.24,-0.55 -0.54,-0.55z" fill="#616161" id="svg_2143" opacity="0.2"/>
   </g>
   <g id="svg_2144">
    <path d="m194.34,364.98c0,0.04 0.01,0.08 0.01,0.12c0,0.3 -0.25,0.55 -0.55,0.55c-0.3,0 -0.55,-0.25 -0.55,-0.55c0,-0.06 0.01,-0.13 0.03,-0.18c-0.26,-0.03 -0.48,-0.25 -0.48,-0.52c0,-0.29 0.24,-0.52 0.52,-0.52c0.08,0 0.35,0.08 0.41,0.12l-0.35,-0.61l0.85,0l-0.35,0.61c0.07,-0.05 0.37,-0.12 0.44,-0.12c0.31,0 0.56,0.24 0.56,0.55c0,0.3 -0.25,0.54 -0.54,0.55z" fill="#333333" id="svg_2145"/>
    <path d="m194.34,364.98c0,0.04 0.01,0.08 0.01,0.12c0,0.3 -0.25,0.55 -0.55,0.55c0,0 0,0 0,0l0,-2.26l0.44,0l-0.36,0.61c0.07,-0.05 0.37,-0.12 0.45,-0.12c0.3,0 0.55,0.24 0.55,0.55c0,0.3 -0.25,0.54 -0.54,0.55z" fill="#616161" id="svg_2146" opacity="0.2"/>
   </g>
  </g>
 </g>

</svg>