<?xml version="1.0"?>
<svg width="40" height="56" xmlns="http://www.w3.org/2000/svg" xmlns:svg="http://www.w3.org/2000/svg" enable-background="new 0 0 450 450" version="1.1" xml:space="preserve">
 <g class="layer">
  <title>Layer 1</title>
  <g id="svg_2326" transform="translate(0.00742385, 0.0516335) scale(1.01347, 1) translate(-0.00742385, -0.0516335) translate(0.00742385, 0.0499929) matrix(1, 0, 0, 1.01544, -205.144, -55.8936)">
   <g id="svg_2327">
    <g id="svg_2328">
     <g id="svg_2329">
      <path d="m209.58,110c-2.31,0 -4.2,-1.85 -4.21,-4.13l-0.12,-46.57c0,-2.29 1.88,-4.16 4.21,-4.15l30.78,0.05c2.31,0.01 4.2,1.87 4.23,4.16l0,46.48c-0.03,2.27 -1.91,4.12 -4.22,4.12l-30.67,0.04z" fill="#C9C9C9" id="svg_2330"/>
     </g>
     <path d="m209.99,109.88c-2.28,0 -4.14,-1.85 -4.14,-4.13l0,-46.47c0,-2.28 1.86,-4.13 4.14,-4.13l30.33,0c2.29,0 4.15,1.85 4.15,4.13l0,46.47c0,2.28 -1.86,4.13 -4.15,4.13l-30.33,0z" fill="#FFFFFF" id="svg_2331"/>
     <g id="svg_2332">
      <path d="m238.04,102.49l1.28,0l0,2.1l0.79,0c0.04,-0.05 0.09,-0.18 0.14,-0.4c0.13,-0.54 0.3,-0.98 0.48,-1.31c0.08,-0.14 0.17,-0.25 0.27,-0.33c0.13,-0.11 0.27,-0.16 0.41,-0.16c0.09,0 0.2,0.03 0.31,0.1c0.14,0.09 0.21,0.19 0.21,0.3c0,0.06 -0.02,0.11 -0.06,0.14c-0.04,0.04 -0.09,0.06 -0.14,0.06c-0.11,0 -0.18,-0.06 -0.18,-0.19c-0.01,-0.13 -0.07,-0.19 -0.16,-0.19c-0.21,0 -0.36,0.11 -0.44,0.33c-0.05,0.14 -0.08,0.35 -0.08,0.63c0,0.16 0.01,0.35 0.03,0.56c0.02,0.21 0.04,0.44 0.06,0.67c0,0.28 -0.06,0.53 -0.16,0.76c-0.09,0.18 -0.23,0.38 -0.42,0.58c-0.11,0.12 -0.29,0.29 -0.53,0.5l0.04,0.06l1.13,0c0.07,0 0.14,-0.01 0.19,-0.02c0.12,-0.04 0.23,-0.07 0.35,-0.11l0,0.07c-0.05,0.08 -0.09,0.14 -0.11,0.17c-0.08,0.12 -0.12,0.18 -0.14,0.18c-0.01,0 -0.04,-0.01 -0.09,-0.04c-0.05,-0.02 -0.09,-0.03 -0.14,-0.03l-3.04,0l0,-4.43zm1.33,2.43l0,1.7c0.11,-0.03 0.23,-0.16 0.35,-0.37c0.04,-0.08 0.09,-0.19 0.14,-0.33c0.04,-0.1 0.08,-0.22 0.11,-0.36c0.07,-0.29 0.11,-0.44 0.11,-0.45l0,-0.19l-0.71,0z" fill="#333333" id="svg_2333"/>
     </g>
     <g id="svg_2334">
      <path d="m212.94,63.05l-1.28,0l0,-2.1l-0.78,0c-0.05,0.05 -0.1,0.19 -0.16,0.41c-0.13,0.53 -0.29,0.97 -0.48,1.3c-0.07,0.14 -0.16,0.25 -0.27,0.34c-0.13,0.1 -0.26,0.15 -0.4,0.15c-0.1,0 -0.2,-0.03 -0.31,-0.1c-0.14,-0.08 -0.21,-0.18 -0.21,-0.3c0,-0.05 0.02,-0.1 0.06,-0.14c0.04,-0.04 0.09,-0.06 0.14,-0.06c0.11,0 0.18,0.07 0.18,0.2c0.01,0.12 0.06,0.19 0.15,0.19c0.22,0 0.37,-0.11 0.45,-0.33c0.05,-0.15 0.08,-0.36 0.08,-0.63c0,-0.17 -0.01,-0.36 -0.03,-0.57c-0.02,-0.21 -0.04,-0.43 -0.06,-0.67c0,-0.27 0.05,-0.52 0.16,-0.75c0.09,-0.19 0.23,-0.38 0.42,-0.58c0.11,-0.12 0.29,-0.29 0.54,-0.5l-0.05,-0.07l-1.13,0c-0.07,0 -0.14,0.01 -0.2,0.03c-0.11,0.03 -0.23,0.07 -0.34,0.1l0,-0.06c0.05,-0.08 0.09,-0.14 0.11,-0.18c0.08,-0.12 0.12,-0.18 0.14,-0.18c0.01,0 0.04,0.01 0.09,0.04c0.05,0.02 0.09,0.04 0.14,0.04l3.04,0l0,4.42zm-1.33,-2.43l0,-1.7c-0.11,0.04 -0.23,0.16 -0.34,0.37c-0.05,0.08 -0.1,0.19 -0.15,0.33c-0.04,0.11 -0.08,0.23 -0.11,0.36c-0.07,0.29 -0.11,0.44 -0.11,0.45l0,0.19l0.71,0z" fill="#333333" id="svg_2335"/>
     </g>
    </g>
   </g>
   <g id="svg_2336">
    <path d="m229.34,78.21c0.07,-0.35 0.12,-0.71 0.12,-1.08c0.01,-2.68 -2.18,-4.84 -4.85,-4.84c-2.67,0.01 -4.84,2.16 -4.84,4.84c0,0.57 0.1,1.12 0.29,1.63c-2.36,0.19 -4.21,2.16 -4.22,4.56c0.01,2.53 2.06,4.57 4.58,4.58c0.68,0 3.07,-0.74 3.58,-1.05l-3.1,5.32l7.56,-0.01l-3.11,-5.31c0.62,0.38 3.26,1.04 3.91,1.04c2.68,0 4.85,-2.17 4.84,-4.85c0,-2.64 -2.13,-4.79 -4.76,-4.83z" fill="#333333" id="svg_2337"/>
    <path d="m229.34,78.21c0.07,-0.35 0.12,-0.71 0.12,-1.08c0.01,-2.68 -2.18,-4.84 -4.85,-4.84c0,0 -0.01,0 -0.02,0l0,19.88l3.87,-0.01l-3.11,-5.31c0.62,0.38 3.26,1.04 3.91,1.04c2.68,0 4.85,-2.17 4.84,-4.85c0,-2.64 -2.13,-4.79 -4.76,-4.83z" fill="#616161" id="svg_2338" opacity="0.2"/>
   </g>
   <g id="svg_2339">
    <path d="m211.85,65.57c0.01,-0.04 0.02,-0.08 0.02,-0.12c0,-0.29 -0.24,-0.52 -0.53,-0.52c-0.28,0 -0.52,0.23 -0.52,0.52c0,0.06 0.02,0.12 0.03,0.18c-0.25,0.02 -0.45,0.23 -0.45,0.49c0,0.27 0.22,0.49 0.5,0.49c0.07,0 0.33,-0.08 0.38,-0.11l-0.34,0.57l0.82,0l-0.34,-0.57c0.07,0.04 0.35,0.11 0.42,0.11c0.29,0 0.52,-0.23 0.52,-0.52c0,-0.29 -0.23,-0.52 -0.51,-0.52z" fill="#333333" id="svg_2340"/>
    <path d="m211.85,65.57c0.01,-0.04 0.02,-0.08 0.02,-0.12c0,-0.29 -0.24,-0.52 -0.53,-0.52c0,0 0,0 0,0l0,2.14l0.42,0l-0.34,-0.57c0.07,0.04 0.35,0.11 0.42,0.11c0.29,0 0.52,-0.23 0.52,-0.52c0,-0.29 -0.23,-0.52 -0.51,-0.52z" fill="#616161" id="svg_2341" opacity="0.2"/>
   </g>
   <g id="svg_2342">
    <path d="m240.1,100.08c0.01,0.04 0.02,0.08 0.02,0.12c0,0.29 -0.24,0.52 -0.53,0.52c-0.28,0 -0.52,-0.23 -0.52,-0.52c0,-0.06 0.01,-0.12 0.03,-0.18c-0.25,-0.02 -0.45,-0.23 -0.45,-0.49c0,-0.27 0.22,-0.49 0.49,-0.49c0.08,0 0.33,0.08 0.39,0.11l-0.33,-0.57l0.81,0l-0.34,0.57c0.07,-0.04 0.35,-0.11 0.42,-0.11c0.29,0 0.52,0.23 0.52,0.52c0,0.29 -0.23,0.52 -0.51,0.52z" fill="#333333" id="svg_2343"/>
    <path d="m240.1,100.08c0.01,0.04 0.02,0.08 0.02,0.12c0,0.29 -0.24,0.52 -0.53,0.52c0,0 0,0 0,0l0,-2.14l0.42,0l-0.34,0.57c0.07,-0.04 0.36,-0.11 0.42,-0.11c0.29,0 0.52,0.23 0.52,0.52c0,0.29 -0.23,0.52 -0.51,0.52z" fill="#616161" id="svg_2344" opacity="0.2"/>
   </g>
  </g>
 </g>

</svg>