<?xml version="1.0"?>
<svg width="40" height="56" xmlns="http://www.w3.org/2000/svg" xmlns:svg="http://www.w3.org/2000/svg" enable-background="new 0 0 450 450" version="1.1" xml:space="preserve">
 <g class="layer">
  <title>Layer 1</title>
  <g id="svg_1626" transform="translate(0.0761966, 0.0138284) scale(1, 1.00381) translate(-0.0761966, -0.0138284) translate(-8.71413) matrix(1, 0, 0, 1, -148.343, -187.32)">
   <g id="svg_1627">
    <g id="svg_1628">
     <g id="svg_1629">
      <path d="m161.62,243c-2.34,0.01 -4.26,-1.87 -4.26,-4.17l-0.12,-47.16c-0.01,-2.32 1.9,-4.21 4.26,-4.2l31.16,0.06c2.34,0 4.25,1.89 4.25,4.2l0,47.06c0,2.3 -1.9,4.17 -4.24,4.18l-31.05,0.03z" fill="#C9C9C9" id="svg_1630"/>
      <path d="m162.06,242.85c-2.32,0 -4.2,-1.87 -4.2,-4.18l0,-47.05c0,-2.3 1.88,-4.18 4.2,-4.18l30.7,0c2.32,0 4.2,1.88 4.2,4.18l0,47.05c0,2.31 -1.88,4.18 -4.2,4.18l-30.7,0z" fill="#FFFFFF" id="svg_1631"/>
      <g id="svg_1632">
       <path d="m192.71,242l-30.71,0c-1.79,0 -3.25,-1.45 -3.25,-3.24l0,-47.04c0,-1.72 1.36,-3.12 2.09,-3.39l0.11,-0.04l30.87,0c3.06,0.24 4.14,1.93 4.14,3.43l0,47.04c0.01,1.79 -1.46,3.24 -3.25,3.24zm-31.5,-52.42c-0.33,0.2 -1.18,1.07 -1.18,2.14l0,47.04c0,1.08 0.89,1.96 1.97,1.96l30.71,0c1.09,0 1.97,-0.88 1.97,-1.96l0,-47.04c0,-1.19 -1.1,-1.99 -2.93,-2.14l-30.54,0z" fill="#333333" id="svg_1633"/>
      </g>
      <g id="svg_1634">
       <path d="m164.65,191.34c-0.13,0.21 -0.28,0.38 -0.47,0.49c-0.19,0.11 -0.38,0.17 -0.56,0.17c-0.06,0 -0.28,-0.05 -0.65,-0.14c-0.17,-0.04 -0.33,-0.07 -0.47,-0.07c-0.09,0 -0.18,0.02 -0.27,0.04c-0.09,0.02 -0.17,0.06 -0.24,0.11l-0.06,0l0,-0.09c0.12,-0.28 0.27,-0.48 0.45,-0.6c0.18,-0.12 0.41,-0.18 0.69,-0.18c0.21,0 0.41,0.03 0.59,0.1c0.19,0.06 0.37,0.1 0.55,0.1c0.05,0 0.12,-0.01 0.2,-0.01c0.07,-0.01 0.15,-0.01 0.24,-0.03l0,0.11zm0.02,3.57c0,0.4 -0.15,0.72 -0.45,0.96c-0.31,0.24 -0.69,0.36 -1.16,0.36c-0.29,0 -0.53,-0.05 -0.73,-0.17c-0.23,-0.13 -0.34,-0.32 -0.34,-0.57c0,-0.12 0.03,-0.22 0.09,-0.31c0.09,-0.12 0.22,-0.18 0.39,-0.18c0.11,0 0.21,0.03 0.29,0.1c0.08,0.07 0.13,0.16 0.13,0.27c0,0.17 -0.08,0.29 -0.22,0.35c-0.15,0.06 -0.22,0.1 -0.22,0.13c0.02,0.05 0.05,0.09 0.08,0.11c0.08,0.08 0.21,0.11 0.37,0.11c0.16,0 0.3,-0.03 0.42,-0.11c0.11,-0.08 0.17,-0.18 0.17,-0.32l0,-3.43c0.21,-0.07 0.41,-0.14 0.59,-0.21c0.18,-0.06 0.34,-0.16 0.49,-0.29l0.1,0l0,3.2z" fill="#333333" id="svg_1635"/>
      </g>
      <g id="svg_1636">
       <path d="m190.2,236.08c0,-0.4 0.15,-0.72 0.45,-0.96c0.31,-0.24 0.69,-0.37 1.16,-0.37c0.29,0 0.53,0.06 0.73,0.18c0.23,0.13 0.34,0.32 0.34,0.57c0,0.12 -0.03,0.22 -0.09,0.31c-0.09,0.12 -0.22,0.19 -0.39,0.19c-0.11,0 -0.21,-0.04 -0.29,-0.11c-0.09,-0.07 -0.13,-0.16 -0.13,-0.27c0,-0.17 0.08,-0.29 0.22,-0.35c0.15,-0.06 0.22,-0.1 0.22,-0.13c-0.02,-0.05 -0.05,-0.09 -0.08,-0.11c-0.08,-0.08 -0.21,-0.12 -0.37,-0.12c-0.16,0 -0.3,0.04 -0.42,0.12c-0.11,0.07 -0.17,0.18 -0.17,0.32l0,3.43c-0.21,0.07 -0.41,0.14 -0.59,0.21c-0.18,0.06 -0.34,0.16 -0.49,0.29l-0.1,0l0,-3.2zm0.02,3.57c0.12,-0.21 0.28,-0.38 0.47,-0.49c0.19,-0.12 0.38,-0.17 0.56,-0.17c0.06,0 0.28,0.04 0.65,0.14c0.17,0.04 0.33,0.06 0.47,0.06c0.09,0 0.18,-0.01 0.27,-0.03c0.1,-0.02 0.17,-0.06 0.24,-0.11l0.07,0l0,0.08c-0.13,0.29 -0.28,0.49 -0.46,0.61c-0.17,0.12 -0.4,0.18 -0.69,0.18c-0.2,0 -0.4,-0.03 -0.59,-0.1c-0.19,-0.06 -0.37,-0.1 -0.54,-0.1c-0.06,0 -0.13,0 -0.2,0.01c-0.08,0 -0.16,0.01 -0.25,0.02l0,-0.1z" fill="#333333" id="svg_1637"/>
      </g>
     </g>
     <g id="svg_1638">
      <g id="svg_1639">
       <g id="svg_1640">
        <polygon fill="#757575" id="svg_1641" points="174.373,204.763 172.992,205.311 173.308,205.895 178.782,205.828 179.169,205.311         177.945,204.763       "/>
        <g id="svg_1642">
         <rect fill="#EBB07A" height="3.73" id="svg_1643" width="3.57" x="174.38" y="203.05"/>
         <path d="m177.94,203.77l0,0.91c-0.43,0.41 -0.93,0.68 -1.45,0.68l-0.68,0c-0.51,0 -1,-0.26 -1.44,-0.67l0,-0.89l0.31,0.49l0.08,-1.24l2.78,0l0.08,1.24l0.32,-0.52z" fill="#616161" id="svg_1644" opacity="0.2"/>
         <path d="m178.15,193.92c0.03,-0.15 0.07,-0.31 0.05,-0.47c-0.06,-0.49 -1.08,-1.14 -2.05,-1.14c-1.14,0 -2,0.58 -2.08,1.14c-0.03,0.25 0.05,0.48 0.13,0.7c-1.01,0.08 -1.8,0.92 -1.8,1.94c0,1.08 0.87,1.95 1.95,1.95c0.29,0 1.31,-0.31 1.53,-0.44l0.57,0c0.27,0.16 1.39,0.44 1.66,0.44c1.15,0 2.07,-0.92 2.07,-2.06c0,-1.13 -0.91,-2.04 -2.03,-2.06z" fill="#333333" id="svg_1645"/>
         <path d="m176.49,194.56l-0.34,0l-0.34,0c-1.76,0 -3.19,1.21 -3.19,2.69c0,0 0.02,3.65 0.04,3.82c0.25,1.57 1.57,4 3.15,4l0.34,0l0.34,0c1.58,0 2.9,-2.43 3.15,-4c0.02,-0.17 0.04,-3.82 0.04,-3.82c0,-1.48 -1.43,-2.69 -3.19,-2.69z" fill="#EBB07A" id="svg_1646"/>
         <path d="m175.38,204.57c-0.01,0.06 -0.02,0.12 -0.02,0.19c0,0.47 0.38,0.85 0.85,0.85c0.48,0 0.86,-0.38 0.86,-0.85c0,-0.1 -0.02,-0.2 -0.05,-0.29c0.41,-0.03 0.74,-0.38 0.74,-0.8c0,-0.45 -0.36,-0.81 -0.81,-0.81c-0.12,0 -0.54,0.13 -0.63,0.19l-0.24,0c-0.11,-0.07 -0.57,-0.19 -0.68,-0.19c-0.48,0 -0.86,0.39 -0.86,0.86c0,0.46 0.38,0.84 0.84,0.85z" fill="#333333" id="svg_1647"/>
         <path d="m177,203.67c-0.09,0 -0.17,-0.03 -0.22,-0.06l-0.2,-0.12l-0.84,-0.01l-0.2,0.13c-0.07,0.04 -0.14,0.06 -0.22,0.06c-0.13,0 -0.19,-0.01 -0.32,-0.13c-0.2,-0.24 0.87,-1.71 1.15,-1.71c0.28,0 1.4,1.38 1.17,1.71c-0.08,0.08 -0.19,0.13 -0.31,0.13l-0.01,0z" fill="#EBB07A" id="svg_1648"/>
         <g id="svg_1649">
          <path d="m174.1,198.88c-0.07,0.08 -0.11,0.18 -0.11,0.29c0,0.27 0.27,0.5 0.6,0.5c0.32,0 0.59,-0.23 0.59,-0.5c0,-0.11 -0.04,-0.21 -0.11,-0.29l-0.97,0z" fill="#333333" id="svg_1650"/>
          <polygon fill="#616161" id="svg_1651" opacity="0.2" points="176.379,198.391 176.151,198.391 175.921,198.391 175.605,200.729           176.151,201.356 176.695,200.729         "/>
          <path d="m178.2,198.88c0.07,0.08 0.11,0.18 0.11,0.29c0,0.27 -0.27,0.5 -0.6,0.5c-0.32,0 -0.59,-0.23 -0.59,-0.5c0,-0.11 0.04,-0.21 0.11,-0.29l0.97,0z" fill="#333333" id="svg_1652"/>
         </g>
         <g id="svg_1653" opacity="0.2">
          <rect fill="#616161" height="0.32" id="svg_1654" width="1.3" x="175.51" y="202.54"/>
         </g>
         <polygon fill="#333333" id="svg_1655" points="177.06,197.615 178.828,197.832 177.06,198.045        "/>
         <polygon fill="#333333" id="svg_1656" points="175.238,198.045 173.509,197.832 175.238,197.615        "/>
        </g>
        <path d="m185.06,205.78l-1.35,1.27l-0.59,1.79c0,0 2,-0.4 2.01,-0.35l-0.07,-2.71z" fill="#757575" id="svg_1657"/>
        <path d="m167.38,205.78l1.35,1.27l0.6,1.79c0,0 -2.01,-0.4 -2.02,-0.35l0.07,-2.71z" fill="#757575" id="svg_1658"/>
        <path d="m168.19,206.78l-0.19,0.37l-0.44,1.44c0,0 2.5,-0.69 2.39,-0.62l-1.76,-1.19z" fill="#1C1C1C" id="svg_1659"/>
        <polygon fill="#ABABAB" id="svg_1660" points="186.684,210.722 185.335,211.126 182.905,211.851 182.75,211.896 179.634,212.826         179.547,212.852 179.355,212.909 178.404,213.193 178.037,213.305 176.851,213.659 176.259,213.837 173.963,214.523         173.483,214.659 173.375,214.693 172.776,214.872 172.397,214.986 171.31,215.31 169.672,215.801 169.669,215.336         169.656,213.986 168.577,215.811 168.577,216.126 167.435,216.469 164.694,217.286 164.694,213.438 164.703,213.241         164.703,213.226 164.703,213.222 164.729,212.645 164.822,212.429 165.361,211.148 165.902,209.871 166.478,208.502         166.695,207.988 166.936,207.414 167.339,207.314 168.004,207.157 168.038,207.146 168.089,207.136 168.17,207.113         168.214,207.105 168.356,207.071 168.55,207.023 168.554,207.023 168.574,207.015 168.673,206.992 170.495,206.551         170.688,206.503 170.772,206.485 170.968,206.435 172.428,206.085 172.454,206.076 172.622,206.034 173.174,205.9         173.295,205.87 174.375,205.612 177.945,205.612 178.791,205.817 178.997,205.869 179.114,205.895 180.409,206.212         181.574,206.493 183.742,207.019 183.868,207.05 184.369,207.171 185.061,207.34 185.102,207.347 185.362,207.414         185.901,208.766 186.442,210.121 186.595,210.493       "/>
        <polygon fill="#FFFFFF" id="svg_1661" opacity="0.2" points="180.409,206.212 176.653,209.966 176.492,210.126 175.854,210.765         175.849,210.77 174.816,211.803 174.762,211.855 172.959,213.663 172.404,214.217 172.149,214.47 171.873,214.746         171.31,215.31 169.672,215.801 169.669,215.336 171.348,213.663 171.627,213.38 171.822,213.189 172.4,212.605         172.577,212.429 172.752,212.255 172.827,212.181 174.951,210.058 174.984,210.026 175.064,209.945 175.067,209.941         175.676,209.33 175.83,209.175 179.114,205.895       "/>
        <polygon fill="#FFFFFF" id="svg_1662" opacity="0.2" points="185.061,207.34 182.803,209.597 179.604,212.798 179.547,212.852         179.355,212.909 178.404,213.193 178.037,213.305 176.851,213.659 176.259,213.837 173.963,214.523 173.483,214.659         173.375,214.693 173.458,214.608 173.8,214.27 175.41,212.657 175.573,212.494 176.442,211.627 176.544,211.527         177.39,210.678 181.574,206.493 183.742,207.019 183.868,207.05 184.369,207.171       "/>
        <path d="m179.63,212.83l-0.08,0.02l-0.19,0.06l-0.96,0.28l-0.36,0.11l-1.19,0.36l-0.59,0.18l-2.3,0.68l-0.48,0.14l-0.1,0.03l-0.6,0.18l-0.38,0.12l-0.25,-0.52l-0.52,-1.09l-1.69,-3.51l-0.81,-1.7l-0.08,-0.17l0,0l-0.46,-0.95l0,0l-0.01,-0.04l0.09,-0.02l1.83,-0.44l0.19,-0.05l0.08,-0.02l0.2,-0.05l1.46,-0.35l0.03,-0.01l0.16,-0.04c0.52,0.53 1.74,1.73 3.21,3.14c0.27,0.26 0.54,0.53 0.82,0.79c0.24,0.24 0.49,0.48 0.74,0.72c0.73,0.7 1.48,1.42 2.21,2.12c0.01,0.01 0.02,0.01 0.03,0.03z" fill="#616161" id="svg_1663" opacity="0.2"/>
        <path d="m176.26,213.84l-2.3,0.68l-0.48,0.14l-0.1,0.03l-0.6,0.18l-0.38,-0.65l-0.58,-1.03l-1.88,-3.32l-0.66,-1.18l-0.28,-0.49l-0.64,-1.13l-0.17,-0.29l0.2,-0.05l3.78,-0.95c0.04,0.06 0.13,0.16 0.26,0.31c0.53,0.56 1.77,1.79 3.25,3.24c0.26,0.26 0.53,0.53 0.81,0.8c0.25,0.23 0.49,0.48 0.74,0.71c0.7,0.69 1.43,1.39 2.13,2.07l-0.95,0.28l-0.37,0.11l-1.19,0.36l-0.59,0.18z" fill="#333333" id="svg_1664"/>
        <polygon fill="#EBEBEB" id="svg_1665" points="172.992,205.311 173.174,205.902 176,207.542 175.917,205.612       "/>
        <polygon fill="#EBEBEB" id="svg_1666" points="179.169,205.311 178.985,205.902 176.16,207.542 176.242,205.612       "/>
        <path d="m175.85,210.76l0.53,0.56c-0.19,-0.19 -0.37,-0.38 -0.53,-0.55c-0.31,-0.32 -0.58,-0.6 -0.78,-0.82c-0.2,-0.21 -0.34,-0.37 -0.42,-0.45l0.42,0.44l0.78,0.82z" fill="#616161" id="svg_1667" opacity="0.2"/>
        <path d="m176.54,211.53c0.63,0.59 1.27,1.16 1.86,1.66l-0.36,0.11l-1.6,-1.67l-0.7,-0.75l-0.08,-0.08l-0.71,-0.74l-1.4,-1.48l-0.04,-0.04c0.01,0.01 0.02,0.03 0.04,0.04c0.44,0.45 0.92,0.94 1.44,1.44c0.23,0.24 0.48,0.48 0.73,0.72c0.03,0.03 0.05,0.05 0.08,0.08c0.24,0.24 0.49,0.47 0.74,0.71z" fill="#616161" id="svg_1668" opacity="0.2"/>
        <polygon fill="#616161" id="svg_1669" opacity="0.2" points="173.963,214.523 173.483,214.659 173.458,214.608 172.959,213.663         172.4,212.605 171.783,211.429 171.038,210.114 172.577,212.429 173.22,213.399 173.8,214.27       "/>
        <polygon fill="#616161" id="svg_1670" opacity="0.2" points="176.851,213.659 176.259,213.837 175.822,213.173 175.41,212.657         174.762,211.855 174.449,211.469 174.816,211.803 175.573,212.494       "/>
        <polygon fill="#616161" id="svg_1671" opacity="0.2" points="169.656,213.986 168.577,215.811 168.577,216.126 167.435,216.469         166.603,216.3 167.748,215.777       "/>
        <polygon fill="#616161" id="svg_1672" opacity="0.2" points="186.684,210.722 185.335,211.126 182.905,211.851 182.75,211.896         182.604,210.073 182.803,209.597 183.117,208.845 183.868,207.05 184.369,207.171 185.061,207.34 185.102,207.347         185.362,207.414 185.901,208.766 186.442,210.121 186.595,210.493       "/>
        <path d="m185.34,211.13l-2.44,0.72l-0.01,-1.72l0.62,-1.24l0.07,-0.14l0.79,-1.58l0.69,-1.39c0,0 1.76,2.23 1.82,2.18c0.01,0 0.06,0.27 0.13,0.67c0.08,0.49 0.19,1.19 0.3,1.91l-0.56,0.16l-0.07,0.02l-1.34,0.41z" fill="#ABABAB" id="svg_1673"/>
        <path d="m169.71,210.27l-0.05,3.06l-4.18,-0.7c0,0 -0.01,-0.17 0.02,-0.34l1.19,-4.3l0.25,-0.58l1.1,-0.26l0.05,-0.02l0.08,-0.02l0.04,-0.01l1.5,3.17z" fill="#616161" id="svg_1674" opacity="0.2"/>
        <path d="m169.66,213.69l-3.95,-0.36l-1.01,-0.09l0,0c0,0 0,-0.01 0,-0.02c0,0 0,0 0,0c0.01,-0.08 0.06,-0.38 0.12,-0.79c0.22,-1.48 0.67,-4.47 0.72,-4.47c0.06,0.04 1.82,-2.18 1.82,-2.18l0.01,0.03l0.67,1.34l1.49,2.98l0.13,3.56z" fill="#ABABAB" id="svg_1675"/>
        <path d="m187.32,210.53l-0.01,0l-0.56,0.17l-0.06,0.03l-0.29,0.08l-0.32,0.09l-0.74,0.22l0.56,-2.35l0.14,-0.58l-0.97,-2.41c0.1,0.13 1.73,2.18 1.81,2.18c0.01,0 0.05,0.23 0.11,0.58c0.01,0.02 0.02,0.06 0.02,0.09c0.01,0.03 0.01,0.06 0.02,0.1c0.02,0.16 0.06,0.34 0.08,0.53c0.01,0.08 0.02,0.15 0.04,0.24c0,0.02 0.01,0.05 0.02,0.09c0.02,0.13 0.04,0.26 0.06,0.41c0,0.03 0,0.05 0.01,0.07c0.03,0.15 0.05,0.31 0.08,0.46z" fill="#FFFFFF" id="svg_1676" opacity="0.2"/>
        <path d="m167.37,205.82l-0.96,2.37l0.07,0.31l0.83,3.46l-1.6,1.38l-0.35,0.3c0,0 -0.52,2.1 -0.58,2.17c-0.01,0.02 -0.04,0.01 -0.09,-0.01l0,-2.36l0.01,-0.2c0,0 0,-0.01 0,-0.01c0,0 0,0 0,0l0.03,-0.59l0.08,-0.19l0.01,-0.02l0,-0.02c0.16,-1 0.41,-2.7 0.57,-3.68c0.02,-0.07 0.02,-0.14 0.04,-0.2c0.06,-0.35 0.1,-0.57 0.11,-0.57c0.09,0 1.82,-2.18 1.82,-2.18l0.02,0l-0.01,0.04z" fill="#FFFFFF" id="svg_1677" opacity="0.2"/>
        <path d="m176.15,193.86l-2.38,0.7l-1.32,1.8l0,2.99l0.43,0.25l0.07,-3.11c0,0 0.08,-1.08 1.01,-1.08c0.93,0 2.19,0.65 2.19,0.65s1.28,-0.65 2.19,-0.65c0.91,0 1.01,1.08 1.01,1.08l0.07,3.11l0.43,-0.25l0.28,-2.83l-1.3,-1.96l-2.68,-0.7z" fill="#333333" id="svg_1678"/>
        <g id="svg_1679">
         <path d="m166.03,210.76c-0.08,0.52 -0.4,0.9 -0.71,0.85c-0.11,-0.02 -0.2,-0.09 -0.27,-0.19l0.18,1.06l-0.41,-0.06c0.15,-1.01 0.41,-2.7 0.57,-3.69c0.02,-0.02 0.03,-0.03 0.03,-0.03s0.68,1.7 0.61,2.06z" fill="#333333" id="svg_1680"/>
        </g>
        <path d="m172.06,207.05c-0.01,-0.06 -0.03,-0.12 -0.06,-0.18c-0.19,-0.41 -0.72,-0.6 -1.19,-0.44c-0.49,0.16 -0.76,0.65 -0.59,1.1c0.04,0.1 0.09,0.18 0.16,0.26c-0.46,0.21 -0.71,0.72 -0.55,1.19c0.17,0.51 0.77,0.74 1.3,0.5c0.14,-0.06 0.56,-0.42 0.63,-0.52l-0.18,1.37l1.5,-0.72l-1.06,-0.77c0.15,0.02 0.7,-0.07 0.82,-0.13c0.48,-0.21 0.66,-0.75 0.43,-1.2c-0.22,-0.42 -0.75,-0.62 -1.21,-0.46z" fill="#616161" id="svg_1681" opacity="0.2"/>
        <path d="m172.04,207.22c-0.02,-0.06 -0.03,-0.13 -0.06,-0.19c-0.19,-0.44 -0.7,-0.65 -1.15,-0.46c-0.44,0.19 -0.65,0.7 -0.46,1.15c0.05,0.09 0.1,0.18 0.17,0.25c-0.38,0.2 -0.55,0.66 -0.38,1.06c0.18,0.41 0.67,0.61 1.09,0.43c0.11,-0.05 0.45,-0.34 0.52,-0.43l-0.14,1.11l1.25,-0.54l-0.89,-0.66c0.13,0.02 0.61,-0.06 0.72,-0.11c0.45,-0.19 0.65,-0.7 0.46,-1.15c-0.19,-0.43 -0.69,-0.64 -1.13,-0.46z" fill="#FFD675" id="svg_1682"/>
        <path d="m171.96,209.18l0.49,0.37l-0.56,0.24l0.07,-0.61zm-1.04,0.13c-0.24,0 -0.46,-0.14 -0.56,-0.37c-0.12,-0.29 0,-0.63 0.28,-0.78l0.25,-0.13l-0.2,-0.21c-0.05,-0.05 -0.09,-0.11 -0.12,-0.18c-0.14,-0.34 0.02,-0.73 0.35,-0.87c0.08,-0.04 0.17,-0.06 0.26,-0.06c0.26,0 0.5,0.16 0.6,0.41c0.02,0.04 0.04,0.08 0.05,0.14l0.05,0.25l0.24,-0.1c0.08,-0.03 0.16,-0.04 0.25,-0.04c0.26,0 0.5,0.15 0.6,0.4c0.07,0.16 0.08,0.34 0.01,0.5c-0.06,0.17 -0.19,0.29 -0.35,0.36c-0.07,0.03 -0.43,0.09 -0.59,0.09l-0.45,0.19c-0.05,0.06 -0.35,0.31 -0.43,0.35c-0.07,0.03 -0.16,0.05 -0.24,0.05z" fill="#616161" id="svg_1683" opacity="0.2"/>
       </g>
       <path d="m187.32,210.53c-0.03,-0.14 -0.05,-0.28 -0.07,-0.42c-0.01,-0.02 -0.01,-0.04 -0.01,-0.05c0,-0.03 -0.01,-0.04 -0.01,-0.06c-0.02,-0.15 -0.04,-0.28 -0.06,-0.41c-0.01,-0.04 -0.01,-0.07 -0.01,-0.09c-0.02,-0.09 -0.03,-0.16 -0.04,-0.24c-0.03,-0.19 -0.06,-0.37 -0.09,-0.53c0,-0.04 -0.01,-0.07 -0.02,-0.1c0,-0.03 0,-0.07 -0.01,-0.09c-0.07,-0.35 -0.11,-0.58 -0.12,-0.58c-0.08,0 -1.71,-2.05 -1.81,-2.18l0,0.02c0,-0.01 -0.01,-0.02 -0.01,-0.02l-1.32,1.24l-2.17,-0.53l-1.16,-0.28l-1.29,-0.31l-0.12,-0.03l0,0l0.17,-0.56l-1.22,-0.55l0,-0.37c0.88,-0.84 1.52,-2.27 1.69,-3.32c0.01,-0.07 0.02,-0.81 0.02,-1.61l0.19,-0.11l0.28,-2.83l-0.02,-0.03c0.04,-0.17 0.07,-0.33 0.07,-0.51c0,-1.13 -0.91,-2.04 -2.03,-2.06c0.03,-0.15 0.07,-0.31 0.05,-0.46c-0.06,-0.5 -1.08,-1.15 -2.05,-1.15l0,21.56l0.11,-0.03l0.59,-0.18l1.19,-0.35l0.36,-0.11l0.96,-0.29l0.19,-0.06l0.08,-0.02l3.12,-0.93l0.15,-0.05l2.44,-0.72l1.13,-0.34l0.22,-0.06l0.03,-0.02l0.03,-0.01l0.56,-0.16c0,0 0,0 0,-0.01l0.01,0z" fill="#616161" id="svg_1684" opacity="0.2"/>
      </g>
      <g id="svg_1685">
       <g id="svg_1686">
        <polygon fill="#757575" id="svg_1687" points="177.636,225.821 179.02,225.275 178.703,224.691 173.228,224.758 172.843,225.275         174.066,225.821       "/>
        <g id="svg_1688">
         <rect fill="#EBB07A" height="3.73" id="svg_1689" width="3.57" x="174.07" y="223.81"/>
         <path d="m174.07,226.81l0,-0.9c0.43,-0.42 0.93,-0.68 1.45,-0.68l0.68,0c0.52,0 1,0.26 1.44,0.66l0,0.89l-0.31,-0.49l-0.08,1.24l-2.77,0l-0.09,-1.24l-0.32,0.52z" fill="#616161" id="svg_1690" opacity="0.2"/>
         <path d="m173.86,236.67c-0.03,0.15 -0.07,0.3 -0.05,0.46c0.06,0.5 1.08,1.15 2.05,1.15c1.14,0 2,-0.59 2.08,-1.15c0.03,-0.24 -0.05,-0.48 -0.13,-0.69c1.01,-0.08 1.8,-0.92 1.8,-1.95c0,-1.08 -0.87,-1.95 -1.95,-1.95c-0.29,0 -1.31,0.32 -1.52,0.45l-0.58,0c-0.27,-0.16 -1.39,-0.45 -1.66,-0.45c-1.15,0 -2.07,0.93 -2.07,2.07c0,1.13 0.91,2.04 2.03,2.06z" fill="#333333" id="svg_1691"/>
         <path d="m175.52,236.02l0.34,0l0.34,0c1.76,0 3.19,-1.2 3.19,-2.69c0,0 -0.01,-3.64 -0.04,-3.82c-0.25,-1.57 -1.57,-3.99 -3.15,-3.99l-0.34,0l-0.34,0c-1.58,0 -2.9,2.42 -3.14,3.99c-0.03,0.18 -0.05,3.82 -0.05,3.82c0,1.49 1.43,2.69 3.19,2.69z" fill="#EBB07A" id="svg_1692"/>
         <path d="m176.63,226.01c0.01,-0.05 0.02,-0.12 0.02,-0.18c0,-0.47 -0.38,-0.85 -0.85,-0.85c-0.47,0 -0.86,0.38 -0.86,0.85c0,0.1 0.02,0.19 0.06,0.28c-0.42,0.04 -0.75,0.38 -0.75,0.81c0,0.44 0.36,0.8 0.81,0.8c0.12,0 0.54,-0.13 0.63,-0.18l0.24,0c0.11,0.06 0.57,0.18 0.68,0.18c0.48,0 0.86,-0.38 0.86,-0.85c0,-0.47 -0.38,-0.85 -0.84,-0.86z" fill="#333333" id="svg_1693"/>
         <path d="m175.01,226.91c0.09,0 0.17,0.04 0.22,0.07l0.2,0.12l0.84,0l0.2,-0.12c0.07,-0.04 0.14,-0.07 0.22,-0.07c0.13,0 0.19,0.01 0.32,0.14c0.2,0.23 -0.87,1.71 -1.15,1.71c-0.28,0 -1.39,-1.39 -1.17,-1.72c0.08,-0.08 0.19,-0.13 0.31,-0.13l0.01,0z" fill="#EBB07A" id="svg_1694"/>
         <g id="svg_1695">
          <path d="m177.91,231.71c0.07,-0.08 0.11,-0.18 0.11,-0.29c0,-0.27 -0.27,-0.5 -0.6,-0.5c-0.33,0 -0.59,0.23 -0.59,0.5c0,0.11 0.04,0.21 0.11,0.29l0.97,0z" fill="#333333" id="svg_1696"/>
          <polygon fill="#616161" id="svg_1697" opacity="0.2" points="175.632,232.195 175.861,232.195 176.09,232.195 176.406,229.857           175.861,229.23 175.316,229.857         "/>
          <path d="m173.81,231.71c-0.06,-0.08 -0.1,-0.18 -0.1,-0.29c0,-0.27 0.26,-0.5 0.59,-0.5c0.33,0 0.59,0.23 0.59,0.5c0,0.11 -0.04,0.21 -0.1,0.29l-0.98,0z" fill="#333333" id="svg_1698"/>
         </g>
         <g id="svg_1699" opacity="0.2">
          <rect fill="#616161" height="0.32" id="svg_1700" width="1.3" x="175.2" y="227.73"/>
         </g>
         <polygon fill="#333333" id="svg_1701" points="174.95,232.971 173.183,232.754 174.95,232.541        "/>
         <polygon fill="#333333" id="svg_1702" points="176.771,232.541 178.501,232.754 176.771,232.971        "/>
        </g>
        <path d="m166.95,224.8l1.35,-1.26l0.59,-1.8c0,0 -2,0.4 -2.01,0.35l0.07,2.71z" fill="#757575" id="svg_1703"/>
        <path d="m184.63,224.8l-1.35,-1.26l-0.59,-1.8c0,0 2,0.4 2.01,0.35l-0.07,2.71z" fill="#757575" id="svg_1704"/>
        <path d="m183.82,223.81l0.19,-0.38l0.44,-1.44c0,0 -2.5,0.7 -2.38,0.62l1.75,1.2z" fill="#1C1C1C" id="svg_1705"/>
        <polygon fill="#ABABAB" id="svg_1706" points="165.328,219.861 166.676,219.46 169.106,218.736 169.261,218.69 172.379,217.761         172.464,217.73 172.654,217.676 173.606,217.393 173.974,217.282 175.161,216.927 175.751,216.75 178.048,216.064         178.528,215.925 178.636,215.894 179.234,215.714 179.613,215.6 180.702,215.276 182.339,214.786 182.343,215.25         182.354,216.601 183.433,214.775 183.433,214.461 184.576,214.118 187.317,213.301 187.317,217.148 187.308,217.346         187.308,217.361 187.308,217.365 187.28,217.941 187.188,218.156 186.649,219.439 186.108,220.715 185.533,222.085         185.316,222.598 185.075,223.173 184.671,223.271 184.005,223.43 183.974,223.439 183.922,223.45 183.839,223.472         183.797,223.479 183.655,223.516 183.461,223.563 183.458,223.563 183.437,223.571 183.338,223.595 181.516,224.036         181.323,224.083 181.238,224.101 181.041,224.151 179.583,224.502 179.557,224.507 179.39,224.553 178.837,224.686         178.715,224.716 177.635,224.975 174.066,224.975 173.219,224.769 173.013,224.718 172.897,224.691 171.602,224.375         170.437,224.09 168.268,223.566 168.143,223.536 167.642,223.415 166.95,223.246 166.909,223.239 166.648,223.173         166.109,221.822 165.568,220.466 165.416,220.093       "/>
        <polygon fill="#FFFFFF" id="svg_1707" opacity="0.2" points="171.602,224.375 175.357,220.62 175.518,220.46 176.157,219.822         176.163,219.814 177.195,218.783 177.248,218.73 179.052,216.924 179.607,216.37 179.862,216.117 180.137,215.841         180.702,215.276 182.339,214.786 182.343,215.25 180.662,216.924 180.384,217.207 180.189,217.398 179.611,217.981         179.435,218.156 179.258,218.332 179.184,218.403 177.06,220.529 177.027,220.561 176.947,220.642 176.944,220.645         176.336,221.257 176.18,221.411 172.897,224.691       "/>
        <polygon fill="#FFFFFF" id="svg_1708" opacity="0.2" points="166.95,223.246 169.208,220.989 172.407,217.788 172.464,217.73         172.654,217.676 173.606,217.393 173.974,217.282 175.161,216.927 175.751,216.75 178.048,216.064 178.528,215.925         178.636,215.894 178.551,215.977 178.211,216.317 176.602,217.926 176.436,218.089 175.569,218.959 175.466,219.06         174.62,219.908 170.437,224.09 168.268,223.566 168.143,223.536 167.642,223.415       "/>
        <path d="m172.38,217.76l0.09,-0.03l0.19,-0.05l0.95,-0.29l0.36,-0.11l1.19,-0.35l0.59,-0.18l2.3,-0.69l0.48,-0.13l0.11,-0.04l0.6,-0.18l0.37,-0.11l0.25,0.52l0.52,1.09l1.69,3.51l0.82,1.7l0.07,0.16l0.01,0.01l0.45,0.95l0,0l0.02,0.03l-0.1,0.02l-1.82,0.45l-0.2,0.04l-0.08,0.02l-0.2,0.05l-1.46,0.35l-0.02,0.01l-0.17,0.04c-0.51,-0.53 -1.73,-1.72 -3.21,-3.14c-0.26,-0.26 -0.54,-0.52 -0.82,-0.79c-0.24,-0.24 -0.49,-0.47 -0.74,-0.71c-0.73,-0.7 -1.48,-1.43 -2.21,-2.12c-0.01,-0.01 -0.02,-0.02 -0.03,-0.03z" fill="#616161" id="svg_1709" opacity="0.2"/>
        <path d="m175.75,216.75l2.3,-0.69l0.48,-0.14l0.11,-0.03l0.59,-0.18l0.38,0.66l0.58,1.03l1.88,3.31l0.67,1.18l0.27,0.49l0.65,1.13l0.16,0.3l-0.2,0.05l-3.78,0.94c-0.04,-0.05 -0.12,-0.15 -0.26,-0.3c-0.53,-0.57 -1.77,-1.8 -3.24,-3.24c-0.27,-0.27 -0.54,-0.54 -0.82,-0.8c-0.24,-0.24 -0.49,-0.48 -0.73,-0.72c-0.71,-0.69 -1.43,-1.39 -2.13,-2.07l0.95,-0.28l0.37,-0.11l1.18,-0.35l0.59,-0.18z" fill="#333333" id="svg_1710"/>
        <polygon fill="#EBEBEB" id="svg_1711" points="179.02,225.275 178.837,224.685 176.011,223.044 176.093,224.975       "/>
        <polygon fill="#EBEBEB" id="svg_1712" points="172.843,225.275 173.026,224.685 175.852,223.044 175.77,224.975       "/>
        <path d="m176.16,219.82l-0.53,-0.56c0.19,0.19 0.37,0.38 0.53,0.55c0.31,0.33 0.58,0.61 0.79,0.83c0.19,0.21 0.34,0.36 0.41,0.44l-0.42,-0.44l-0.78,-0.82z" fill="#616161" id="svg_1713" opacity="0.2"/>
        <path d="m175.47,219.06c-0.63,-0.59 -1.27,-1.16 -1.86,-1.67l0.36,-0.11l1.6,1.68l0.71,0.74l0.07,0.09l0.71,0.74l1.4,1.48l0.04,0.03c-0.01,-0.01 -0.02,-0.02 -0.04,-0.03c-0.43,-0.45 -0.92,-0.94 -1.43,-1.45c-0.24,-0.23 -0.49,-0.48 -0.74,-0.71c-0.02,-0.03 -0.05,-0.06 -0.08,-0.08c-0.24,-0.24 -0.49,-0.48 -0.74,-0.71z" fill="#616161" id="svg_1714" opacity="0.2"/>
        <polygon fill="#616161" id="svg_1715" opacity="0.2" points="178.048,216.064 178.528,215.925 178.551,215.977 179.052,216.924         179.611,217.981 180.227,219.158 180.973,220.473 179.435,218.156 178.79,217.188 178.211,216.317       "/>
        <polygon fill="#616161" id="svg_1716" opacity="0.2" points="175.161,216.927 175.751,216.75 176.19,217.414 176.602,217.926         177.248,218.73 177.561,219.117 177.195,218.783 176.436,218.089       "/>
        <polygon fill="#616161" id="svg_1717" opacity="0.2" points="182.354,216.601 183.433,214.775 183.433,214.461 184.576,214.118         185.408,214.287 184.264,214.809       "/>
        <polygon fill="#616161" id="svg_1718" opacity="0.2" points="165.328,219.861 166.676,219.46 169.106,218.736 169.261,218.69         169.407,220.513 169.208,220.989 168.895,221.742 168.143,223.536 167.642,223.415 166.95,223.246 166.909,223.239         166.648,223.173 166.109,221.822 165.568,220.466 165.416,220.093       "/>
        <path d="m166.68,219.46l2.43,-0.72l0.01,1.72l-0.62,1.24l-0.07,0.13l-0.79,1.58l-0.69,1.39c0,0 -1.76,-2.22 -1.82,-2.18c-0.01,0 -0.06,-0.26 -0.13,-0.66c-0.08,-0.49 -0.19,-1.2 -0.3,-1.91l0.56,-0.17l0.07,-0.02l1.35,-0.4z" fill="#ABABAB" id="svg_1719"/>
        <path d="m182.31,220.32l0.04,-3.07l4.18,0.71c0,0 0.01,0.17 -0.02,0.34l-1.2,4.3l-0.24,0.57l-1.1,0.27l-0.05,0.01l-0.08,0.02l-0.04,0.01l-1.49,-3.16z" fill="#616161" id="svg_1720" opacity="0.2"/>
        <path d="m182.35,216.9l3.95,0.35l1.01,0.1l0,0c0,0 0,0 0,0.01c0,0.01 0,0.01 0,0.01c-0.01,0.07 -0.06,0.37 -0.12,0.79c-0.22,1.48 -0.67,4.46 -0.72,4.46c-0.06,-0.04 -1.82,2.18 -1.82,2.18l-0.01,-0.02l-0.67,-1.34l-1.48,-2.98l-0.14,-3.56z" fill="#ABABAB" id="svg_1721"/>
        <path d="m164.69,220.06l0.01,0l0.56,-0.17l0.06,-0.03l0.29,-0.08l0.32,-0.09l0.74,-0.23l-0.56,2.36l-0.14,0.58l0.97,2.4c-0.1,-0.13 -1.73,-2.18 -1.81,-2.18c-0.01,0 -0.05,-0.22 -0.11,-0.58c-0.01,-0.02 -0.02,-0.05 -0.02,-0.08c-0.01,-0.03 -0.01,-0.07 -0.02,-0.11c-0.02,-0.16 -0.05,-0.33 -0.08,-0.53c-0.01,-0.07 -0.02,-0.15 -0.04,-0.23c0,-0.03 -0.01,-0.06 -0.02,-0.09c-0.02,-0.13 -0.04,-0.27 -0.06,-0.42c0,-0.02 0,-0.04 -0.01,-0.07c-0.03,-0.15 -0.05,-0.3 -0.08,-0.45z" fill="#FFFFFF" id="svg_1722" opacity="0.2"/>
        <path d="m184.64,224.77l0.97,-2.37l-0.08,-0.31l-0.83,-3.47l1.6,-1.37l0.35,-0.3c0,0 0.52,-2.11 0.58,-2.18c0.01,-0.01 0.04,-0.01 0.09,0.02l0,2.35l-0.01,0.2c0,0 0,0.01 0,0.02c0,0 0,0 0,0l-0.03,0.58l-0.08,0.2l-0.01,0.02l0,0.01c-0.16,1.01 -0.41,2.7 -0.57,3.68c-0.01,0.08 -0.02,0.14 -0.03,0.2c-0.06,0.36 -0.11,0.57 -0.12,0.57c-0.09,0 -1.82,2.18 -1.82,2.18l-0.02,0l0.01,-0.03z" fill="#FFFFFF" id="svg_1723" opacity="0.2"/>
        <path d="m175.86,236.73l2.38,-0.71l1.32,-1.79l0,-2.99l-0.43,-0.25l-0.07,3.1c0,0 -0.08,1.08 -1.01,1.08c-0.93,0 -2.19,-0.64 -2.19,-0.64s-1.28,0.64 -2.19,0.64c-0.91,0 -1.01,-1.08 -1.01,-1.08l-0.07,-3.1l-0.43,0.25l-0.28,2.83l1.3,1.95l2.68,0.71z" fill="#333333" id="svg_1724"/>
        <g id="svg_1725">
         <path d="m185.98,219.83c0.08,-0.52 0.4,-0.9 0.71,-0.85c0.11,0.02 0.2,0.08 0.27,0.18l-0.18,-1.06l0.41,0.07c-0.15,1 -0.41,2.7 -0.57,3.68c-0.02,0.02 -0.03,0.03 -0.03,0.03s-0.67,-1.69 -0.61,-2.05z" fill="#333333" id="svg_1726"/>
        </g>
        <path d="m179.95,223.54c0.01,0.06 0.03,0.12 0.06,0.18c0.2,0.41 0.72,0.6 1.2,0.44c0.48,-0.16 0.76,-0.65 0.58,-1.1c-0.03,-0.1 -0.09,-0.18 -0.16,-0.26c0.46,-0.21 0.71,-0.73 0.55,-1.19c-0.17,-0.51 -0.77,-0.74 -1.3,-0.51c-0.14,0.07 -0.55,0.42 -0.63,0.53l0.18,-1.38l-1.5,0.73l1.06,0.76c-0.15,-0.02 -0.7,0.07 -0.82,0.13c-0.48,0.21 -0.66,0.76 -0.43,1.2c0.23,0.43 0.75,0.63 1.21,0.47z" fill="#616161" id="svg_1727" opacity="0.2"/>
        <path d="m179.97,223.37c0.02,0.06 0.03,0.12 0.06,0.19c0.19,0.44 0.7,0.64 1.15,0.45c0.44,-0.19 0.65,-0.7 0.46,-1.14c-0.04,-0.1 -0.1,-0.18 -0.17,-0.25c0.38,-0.2 0.55,-0.66 0.38,-1.06c-0.18,-0.42 -0.67,-0.61 -1.08,-0.43c-0.12,0.04 -0.46,0.34 -0.52,0.42l0.13,-1.1l-1.25,0.54l0.89,0.66c-0.13,-0.02 -0.61,0.06 -0.72,0.1c-0.44,0.19 -0.65,0.71 -0.46,1.15c0.19,0.44 0.69,0.65 1.13,0.47z" fill="#FFD675" id="svg_1728"/>
        <path d="m180.05,221.4l-0.49,-0.36l0.56,-0.24l-0.07,0.6zm1.04,-0.13c0.25,0 0.47,0.15 0.56,0.38c0.13,0.29 0,0.63 -0.28,0.78l-0.25,0.13l0.2,0.2c0.05,0.06 0.09,0.12 0.12,0.19c0.14,0.34 -0.01,0.72 -0.35,0.87c-0.08,0.03 -0.17,0.05 -0.26,0.05c-0.26,0 -0.5,-0.16 -0.6,-0.4c-0.02,-0.04 -0.03,-0.08 -0.05,-0.14l-0.05,-0.26l-0.24,0.1c-0.08,0.03 -0.16,0.05 -0.25,0.05c-0.26,0 -0.5,-0.16 -0.6,-0.4c-0.07,-0.16 -0.08,-0.34 -0.01,-0.5c0.07,-0.17 0.19,-0.3 0.35,-0.36c0.07,-0.03 0.44,-0.09 0.59,-0.09l0.45,-0.19c0.05,-0.06 0.35,-0.32 0.43,-0.35c0.08,-0.04 0.16,-0.06 0.24,-0.06z" fill="#616161" id="svg_1729" opacity="0.2"/>
       </g>
       <path d="m164.69,220.06c0.03,0.13 0.05,0.27 0.07,0.41c0.01,0.02 0.01,0.04 0.01,0.06c0.01,0.02 0.01,0.04 0.01,0.05c0.02,0.15 0.04,0.29 0.06,0.42c0.01,0.04 0.02,0.06 0.02,0.09c0.01,0.08 0.03,0.16 0.04,0.24c0.03,0.19 0.05,0.37 0.08,0.52c0,0.04 0.01,0.08 0.02,0.11c0,0.03 0.01,0.06 0.01,0.09c0.07,0.35 0.11,0.58 0.12,0.58c0.08,0 1.71,2.05 1.81,2.17l0,-0.01c0,0 0.01,0.01 0.01,0.01l1.32,-1.23l2.17,0.52l1.16,0.29l1.3,0.31l0.11,0.03l0,0l-0.17,0.56l1.22,0.54l0,0.38c-0.88,0.83 -1.52,2.26 -1.69,3.31c-0.01,0.08 -0.02,0.82 -0.03,1.62l-0.18,0.11l-0.28,2.82l0.02,0.04c-0.04,0.16 -0.07,0.33 -0.07,0.51c0,1.12 0.91,2.04 2.03,2.06c-0.03,0.15 -0.07,0.3 -0.05,0.46c0.06,0.49 1.08,1.15 2.05,1.15l0,-21.56l-0.11,0.03l-0.59,0.18l-1.19,0.35l-0.36,0.11l-0.96,0.28l-0.19,0.06l-0.08,0.03l-3.12,0.93l-0.15,0.05l-2.44,0.72l-1.13,0.34l-0.22,0.06l-0.03,0.02l-0.03,0l-0.56,0.17c0,0 0,0 0,0.01l-0.01,0z" fill="#616161" id="svg_1730" opacity="0.2"/>
      </g>
     </g>
    </g>
   </g>
   <g id="svg_1731">
    <path d="m164.26,198.52c0.01,-0.08 0.02,-0.17 0.02,-0.25c0,-0.61 -0.5,-1.11 -1.11,-1.11c-0.61,0 -1.11,0.5 -1.11,1.11c0,0.13 0.03,0.26 0.07,0.37c-0.54,0.05 -0.96,0.5 -0.96,1.05c0,0.57 0.46,1.04 1.04,1.04c0.16,0 0.71,-0.16 0.82,-0.23l-0.71,1.21l1.73,0l-0.71,-1.21c0.15,0.08 0.75,0.23 0.9,0.23c0.61,0 1.11,-0.49 1.11,-1.1c0,-0.61 -0.49,-1.11 -1.09,-1.11z" fill="#333333" id="svg_1732"/>
    <path d="m166.38,210.84c-0.09,0.53 -0.46,0.91 -0.84,0.85c-0.09,-0.01 -0.45,-0.2 -0.52,-0.29l0.28,1.12l-0.49,-0.07l0.01,-0.02l0,-0.02c0.16,-1 0.41,-2.7 0.57,-3.68c0.02,-0.07 0.02,-0.14 0.04,-0.2c0.33,0.1 0.54,0.55 0.46,1.03c-0.01,0.08 -0.03,0.15 -0.05,0.22c0.37,0.06 0.61,0.53 0.54,1.06z" fill="#333333" id="svg_1733"/>
    <path d="m187.32,210.53l-0.01,0l-0.56,0.17l-0.06,0.03l-0.29,0.08l-0.32,0.09c-0.01,-0.02 -0.01,-0.04 -0.02,-0.06c-0.07,-0.52 0.17,-1 0.54,-1.06c-0.02,-0.07 -0.04,-0.14 -0.05,-0.21c-0.08,-0.48 0.12,-0.92 0.45,-1.03c0,0.03 0.01,0.06 0.01,0.09c0.01,0.03 0.02,0.07 0.02,0.1c0.03,0.16 0.06,0.34 0.09,0.53c0,0.08 0.02,0.15 0.03,0.24c0,0.02 0.01,0.05 0.02,0.09c0.02,0.13 0.04,0.27 0.06,0.41c0,0.03 0,0.05 0.01,0.07c0.03,0.15 0.05,0.31 0.08,0.46z" fill="#333333" id="svg_1734"/>
    <path d="m164.26,198.52c0.01,-0.08 0.02,-0.17 0.02,-0.25c0,-0.61 -0.5,-1.11 -1.11,-1.11c0,0 0,0 0,0l0,4.55l0.88,0l-0.71,-1.21c0.14,0.08 0.75,0.23 0.9,0.23c0.61,0 1.11,-0.49 1.11,-1.1c0,-0.61 -0.49,-1.11 -1.09,-1.11z" fill="#616161" id="svg_1735" opacity="0.2"/>
   </g>
   <g id="svg_1736">
    <path d="m190.85,231.7c-0.02,0.08 -0.03,0.16 -0.03,0.25c0,0.61 0.5,1.1 1.11,1.1c0.61,0 1.11,-0.49 1.11,-1.1c0,-0.14 -0.02,-0.26 -0.07,-0.38c0.54,-0.04 0.97,-0.49 0.97,-1.04c0,-0.58 -0.47,-1.05 -1.05,-1.05c-0.15,0 -0.7,0.17 -0.82,0.24l0.71,-1.22l-1.73,0l0.71,1.22c-0.14,-0.09 -0.75,-0.24 -0.89,-0.24c-0.62,0 -1.11,0.5 -1.11,1.11c0,0.61 0.49,1.1 1.09,1.11z" fill="#333333" id="svg_1737"/>
    <path d="m190.85,231.7c-0.02,0.08 -0.03,0.16 -0.03,0.25c0,0.61 0.5,1.1 1.11,1.1c0,0 0,0 0.01,0l0,-4.55l-0.89,0l0.71,1.22c-0.14,-0.09 -0.75,-0.24 -0.89,-0.24c-0.62,0 -1.11,0.5 -1.11,1.11c0,0.61 0.49,1.1 1.09,1.11z" fill="#616161" id="svg_1738" opacity="0.2"/>
   </g>
  </g>
 </g>

</svg>