<?xml version="1.0"?>
<svg width="40" height="56" xmlns="http://www.w3.org/2000/svg" xmlns:svg="http://www.w3.org/2000/svg" enable-background="new 0 0 450 450" version="1.1" xml:space="preserve">
 <g class="layer">
  <title>Layer 1</title>
  <g id="svg_1271" transform="translate(0.033348, 0.0664143) scale(0.993933, 1) translate(-0.033348, -0.0664143) translate(0.0337221, 0.0661461) matrix(0.996976, 0, 0, 1.00218, -156.344, -54.9679)">
   <g id="svg_1272">
    <g id="svg_1273">
     <g id="svg_1274">
      <path d="m161.35,110.56c-2.34,0.01 -4.25,-1.87 -4.29,-4.25l-0.12,-47.16c0.02,-2.24 1.93,-4.13 4.29,-4.12l31.16,0.06c2.35,0 4.25,1.89 4.25,4.2l0,47.06c0,2.3 -1.9,4.17 -4.24,4.18l-31.05,0.03z" fill="#C9C9C9" id="svg_1275"/>
      <path d="m161.68,110.51c-2.35,0 -4.26,-1.87 -4.27,-4.18l-0.12,-47.16c0,-2.32 1.91,-4.2 4.26,-4.2l31.17,0.06c2.34,0 4.25,1.89 4.25,4.21l0,47.05c0,2.3 -1.9,4.18 -4.24,4.18l-31.05,0.04z" fill="#FFFFFF" id="svg_1276"/>
      <g id="svg_1277">
       <path d="m192.44,109.56l-30.7,0c-1.8,0 -3.26,-1.45 -3.26,-3.24l0,-47.04c0,-1.79 1.46,-3.24 3.26,-3.24l30.7,0c1.8,0 3.26,1.45 3.26,3.24l0,47.04c0,1.79 -1.46,3.24 -3.26,3.24zm-30.7,-52.24c-1.09,0 -1.97,0.88 -1.97,1.96l0,47.04c0,1.08 0.88,1.95 1.97,1.95l30.7,0c1.09,0 1.97,-0.87 1.97,-1.95l0,-47.04c0,-1.08 -0.88,-1.96 -1.97,-1.96l-30.7,0z" fill="#333333" id="svg_1278"/>
      </g>
      <g id="svg_1279">
       <path d="m164.53,62.63c-0.03,0.04 -0.14,0.15 -0.35,0.3c-0.27,0.2 -0.49,0.33 -0.69,0.38l-1.07,-1.95l-0.06,0.04l0,1.71l-1.25,0l0,-4.45l1.25,0l0,2.52c0.22,-0.03 0.41,-0.17 0.58,-0.44c0.16,-0.24 0.24,-0.47 0.24,-0.69c0,-0.15 -0.02,-0.29 -0.07,-0.4c-0.06,-0.1 -0.11,-0.2 -0.17,-0.31c0,-0.04 0.14,-0.17 0.42,-0.37c0.23,-0.17 0.39,-0.3 0.49,-0.37c0.08,0.06 0.15,0.17 0.21,0.33c0.07,0.15 0.1,0.29 0.1,0.41c0,0.11 -0.02,0.24 -0.07,0.39c-0.05,0.16 -0.11,0.3 -0.18,0.42c-0.11,0.18 -0.22,0.31 -0.31,0.41c-0.19,0.19 -0.29,0.29 -0.3,0.31l1.23,1.76z" fill="#333333" id="svg_1280"/>
      </g>
      <g id="svg_1281">
       <path d="m189.81,103.47c0.03,-0.04 0.14,-0.14 0.35,-0.29c0.27,-0.2 0.5,-0.33 0.69,-0.39l1.07,1.96l0.06,-0.05l0,-1.7l1.25,0l0,4.45l-1.25,0l0,-2.53c-0.22,0.03 -0.41,0.18 -0.59,0.45c-0.15,0.24 -0.23,0.47 -0.23,0.68c0,0.16 0.02,0.29 0.07,0.41c0.06,0.1 0.11,0.2 0.17,0.3c0,0.05 -0.14,0.17 -0.42,0.38c-0.23,0.17 -0.39,0.29 -0.49,0.37c-0.08,-0.07 -0.15,-0.18 -0.21,-0.33c-0.07,-0.16 -0.1,-0.3 -0.1,-0.42c0,-0.1 0.02,-0.24 0.07,-0.39c0.04,-0.15 0.1,-0.29 0.18,-0.41c0.11,-0.18 0.22,-0.32 0.31,-0.41c0.19,-0.19 0.28,-0.3 0.3,-0.32l-1.23,-1.76z" fill="#333333" id="svg_1282"/>
      </g>
     </g>
    </g>
    <g id="svg_1283">
     <g id="svg_1284">
      <g id="svg_1285">
       <g id="svg_1286">
        <g id="svg_1287">
         <g id="svg_1288">
          <path d="m188.44,72.75l-0.09,-0.29c0,0 -5.31,-3.03 -7.01,-4c-0.32,-0.18 -0.51,-0.28 -0.52,-0.28l-7.56,0c0,0 -0.01,0 -0.03,0.02c-0.02,0 -0.04,0.01 -0.06,0.03c-0.02,0.01 -0.04,0.02 -0.07,0.03c-0.02,0.02 -0.05,0.03 -0.07,0.05c-0.03,0.01 -0.05,0.03 -0.09,0.04c-0.04,0.03 -0.09,0.06 -0.15,0.09c-0.1,0.06 -0.21,0.12 -0.34,0.2c-0.01,0 -0.01,0 -0.01,0c-0.1,0.06 -0.2,0.11 -0.31,0.18c-0.04,0.01 -0.07,0.04 -0.11,0.06c-0.25,0.14 -0.53,0.3 -0.83,0.47c-0.11,0.06 -0.22,0.13 -0.33,0.19c-0.11,0.06 -0.22,0.13 -0.34,0.19c-0.11,0.06 -0.22,0.13 -0.34,0.19c-1.5,0.86 -3.15,1.8 -3.96,2.26c-0.04,0.02 -0.08,0.05 -0.12,0.07c-0.19,0.11 -0.32,0.18 -0.35,0.2l0,12.61l4.95,-1.48l1.12,-0.34l16.62,-4.99l0,-5.5z" fill="#333333" id="svg_1289"/>
          <g id="svg_1290">
           <g id="svg_1291">
            <g id="svg_1292">
             <g id="svg_1293">
              <path d="m177.1,74.71l-2.07,-3.59l4.15,0l-2.08,3.59zm-1.67,-3.36l1.67,2.9l1.68,-2.9l-3.35,0z" fill="#FFD675" id="svg_1294"/>
             </g>
            </g>
            <path d="m174.32,68.18c-0.04,0.01 -7.53,4.28 -7.53,4.28l-1.04,3.24l0,9.36l4.94,-1.48l1.13,-0.34l2.96,-9.71l0.39,-1.3l0.58,-1.24l1.29,-2.76l0,-0.05l-2.72,0z" fill="#616161" id="svg_1295" opacity="0.2"/>
            <path d="m173.26,68.18c0,0 -0.01,0 -0.03,0.02c-0.02,0 -0.04,0.01 -0.06,0.03c-0.02,0.01 -0.04,0.02 -0.07,0.03c-0.02,0.02 -0.04,0.03 -0.07,0.05c-0.03,0.01 -0.05,0.03 -0.09,0.04c-0.04,0.03 -0.09,0.06 -0.15,0.09c-0.1,0.06 -0.21,0.12 -0.34,0.2c-0.01,0 -0.01,0 -0.01,0c-0.1,0.05 -0.2,0.11 -0.31,0.18c-0.03,0.01 -0.07,0.04 -0.11,0.06c-0.25,0.14 -0.53,0.3 -0.83,0.47c-0.11,0.06 -0.22,0.13 -0.33,0.19c-0.11,0.06 -0.22,0.12 -0.34,0.19c-0.11,0.06 -0.22,0.13 -0.34,0.19c-0.48,0.28 -0.98,0.56 -1.46,0.84c-0.15,0.08 -0.29,0.16 -0.43,0.24c-0.85,0.48 -1.6,0.91 -2.07,1.18c-0.04,0.03 -0.08,0.05 -0.12,0.07c-0.19,0.11 -0.32,0.18 -0.35,0.2l0,12.61l0.88,-0.26l0.5,-0.15l3.51,-1.06l0.06,-0.01c0.16,-0.39 0.33,-0.81 0.52,-1.24c1.18,-2.85 2.63,-6.46 3.56,-8.81c0.58,-1.47 0.97,-2.44 0.97,-2.44l0,-0.1l0.26,-2.81l-2.75,0z" fill="#EBEBEB" id="svg_1296"/>
           </g>
           <g id="svg_1297">
            <g id="svg_1298">
             <path d="m188.44,76.27l-1.15,-3.81c0,0 -7.49,-4.27 -7.52,-4.28l-2.73,0l0,0.05l1.87,4l2.43,8.3l7.1,-2.57l0,-1.69z" fill="#616161" id="svg_1299" opacity="0.2"/>
             <path d="m188.44,72.75l-0.09,-0.29c0,0 -7.49,-4.27 -7.52,-4.28l-2.75,0l0.26,2.91c0,0 3.23,6.7 4.38,8.87l5.72,-1.71l0,-5.5z" fill="#EBEBEB" id="svg_1300"/>
            </g>
           </g>
          </g>
          <g id="svg_1301">
           <polygon fill="#EBBE9F" id="svg_1302" points="181.413,66.324 181.336,65.3 181.333,65.264 181.099,62.131 179.936,61.542            177.689,60.405 177.067,60.74 176.445,60.405 174.199,61.542 173.036,62.131 172.801,65.264 172.798,65.3 172.722,66.324            173.655,69.434 177.062,72.236 177.062,72.243 177.062,72.243 177.067,72.24 177.073,72.243 177.073,72.243            177.073,72.236 180.725,69.255          "/>
           <path d="m177.07,68.18l1.38,-0.05l-1.03,-0.65c0,0 -0.16,0 -0.35,-0.01l0,0c0,0 0,0 0,0c0,0 0,0 -0.01,0l0,0c-0.18,0.01 -0.34,0.01 -0.34,0.01l-1.03,0.65l1.37,0.05l0,0l0.01,0l0,0l0,0z" fill="#EBBE9F" id="svg_1303"/>
           <polygon fill="#616161" id="svg_1304" opacity="0.2" points="177.906,66.207 177.341,64.247 177.073,64.247 177.062,64.247            176.793,64.247 176.231,66.207 176.793,66.813 177.062,66.822 177.062,66.822 177.067,66.822 177.073,66.822            177.073,66.822 177.341,66.813          "/>
           <g id="svg_1305">
            <polygon fill="#9C9C9C" id="svg_1306" points="177.663,63.723 179.433,63.5 179.472,63.494 179.491,63.505 180.334,63.952             179.414,63.696 179.472,63.701 177.755,64.184           "/>
            <path d="m178.28,64.46c-0.03,0.07 -0.04,0.13 -0.04,0.21c0,0.27 0.22,0.5 0.5,0.5c0.27,0 0.5,-0.23 0.5,-0.5c0,-0.08 -0.02,-0.15 -0.05,-0.21l-0.91,0z" fill="#333333" id="svg_1307"/>
            <polygon fill="#9C9C9C" id="svg_1308" points="176.471,63.723 174.702,63.5 174.663,63.494 174.644,63.505 173.8,63.952             174.718,63.696 174.663,63.701 176.379,64.184           "/>
            <path d="m175.85,64.46c0.03,0.07 0.05,0.13 0.05,0.21c0,0.27 -0.23,0.5 -0.5,0.5c-0.28,0 -0.5,-0.23 -0.5,-0.5c0,-0.08 0.01,-0.15 0.04,-0.21l0.91,0z" fill="#333333" id="svg_1309"/>
            <path d="m181.34,65.3c-0.03,0.02 -0.05,0.03 -0.05,0.03l-0.82,-2.89l-0.53,-0.9l1.16,0.59l0.23,3.13l0.01,0.04z" fill="#9C9C9C" id="svg_1310"/>
            <path d="m172.8,65.3c0.03,0.02 0.04,0.03 0.04,0.03l0.82,-2.89l0.54,-0.9l-1.17,0.59l-0.23,3.13l0,0.04z" fill="#9C9C9C" id="svg_1311"/>
           </g>
           <path d="m181.18,61.01l0,1.2c-1.04,0.28 -2.2,0.4 -3.32,0.44c-0.74,0.02 -1.46,0 -2.12,-0.04c-0.32,-0.02 -0.62,-0.04 -0.91,-0.07c-0.33,-0.03 -0.64,-0.06 -0.9,-0.09c-0.63,-0.08 -1.01,-0.14 -1.01,-0.14l0,-1.14c0,0 4.11,-2.2 4.13,-2.2c0,0.02 0.51,0.27 1.18,0.6c0.21,0.1 0.43,0.21 0.66,0.33c0.22,0.1 0.44,0.21 0.66,0.32c0.61,0.3 1.17,0.57 1.44,0.7c0.12,0.06 0.19,0.09 0.19,0.09z" fill="#FFD675" id="svg_1312"/>
           <g id="svg_1313">
            <path d="m178.89,59.9l-4.06,2.64c-0.33,-0.03 -0.64,-0.06 -0.9,-0.09l4.29,-2.88c0.22,0.1 0.44,0.21 0.67,0.33z" fill="#FFFFFF" id="svg_1314" opacity="0.2"/>
            <path d="m180.99,60.92l-3.13,1.73c-0.74,0.02 -1.46,0 -2.12,-0.04l3.81,-2.39c0.61,0.3 1.17,0.57 1.44,0.7z" fill="#FFFFFF" id="svg_1315" opacity="0.2"/>
           </g>
          </g>
         </g>
         <g id="svg_1316">
          <polygon fill="#333333" id="svg_1317" points="168.93,76.454 168.794,77.419 169.27,76.568         "/>
          <polygon fill="#333333" id="svg_1318" points="170.829,76.454 170.692,77.419 171.169,76.568         "/>
          <polygon fill="#333333" id="svg_1319" points="172.727,76.454 172.59,77.419 173.065,76.568         "/>
          <polygon fill="#333333" id="svg_1320" points="166.557,79.563 166.42,80.527 166.895,79.677         "/>
          <polygon fill="#333333" id="svg_1321" points="168.456,79.563 168.319,80.527 168.794,79.677         "/>
          <polygon fill="#333333" id="svg_1322" points="170.354,79.563 170.217,80.527 170.692,79.677         "/>
          <polygon fill="#333333" id="svg_1323" points="167.137,82.695 167.003,83.659 167.475,82.81         "/>
          <polygon fill="#333333" id="svg_1324" points="169.036,82.695 168.899,83.659 169.376,82.81         "/>
          <path d="m171.07,82.62c-0.09,0.22 -0.18,0.42 -0.26,0.62l-0.03,0.01l0.1,-0.69l0.19,0.06z" fill="#333333" id="svg_1325"/>
          <polygon fill="#333333" id="svg_1326" points="172.252,71.034 172.116,71.998 172.59,71.149         "/>
          <polygon fill="#333333" id="svg_1327" points="170.354,70.645 170.217,71.609 170.692,70.76         "/>
          <path d="m168.58,71l-0.26,0.47l0.05,-0.35c0.07,-0.04 0.14,-0.09 0.21,-0.12z" fill="#333333" id="svg_1328"/>
          <polygon fill="#333333" id="svg_1329" points="166.998,84.649 166.75,84.723 166.771,84.571         "/>
          <polygon fill="#333333" id="svg_1330" points="166.605,73.32 166.47,74.285 166.945,73.434         "/>
          <polygon fill="#333333" id="svg_1331" points="168.717,73.32 168.58,74.285 169.057,73.434         "/>
          <polygon fill="#333333" id="svg_1332" points="170.615,73.32 170.478,74.285 170.956,73.434         "/>
          <polygon fill="#333333" id="svg_1333" points="172.514,73.32 172.376,74.285 172.851,73.434         "/>
          <polygon fill="#333333" id="svg_1334" points="174.46,71.536 174.323,72.502 174.797,71.65         "/>
          <polygon fill="#333333" id="svg_1335" points="166.818,76.454 166.684,77.419 167.159,76.568         "/>
         </g>
         <g id="svg_1336">
          <polygon fill="#333333" id="svg_1337" points="185.613,76.454 185.748,77.419 185.275,76.568         "/>
          <polygon fill="#333333" id="svg_1338" points="183.714,76.454 183.852,77.419 183.374,76.568         "/>
          <polygon fill="#333333" id="svg_1339" points="181.816,76.454 181.953,77.419 181.479,76.568         "/>
          <polygon fill="#333333" id="svg_1340" points="182.29,71.034 182.428,71.998 181.953,71.149         "/>
          <polygon fill="#333333" id="svg_1341" points="184.189,70.645 184.326,71.609 183.852,70.76         "/>
          <path d="m185.83,71.28l0.26,0.47l-0.05,-0.35c-0.07,-0.04 -0.14,-0.08 -0.21,-0.12z" fill="#333333" id="svg_1342"/>
          <polygon fill="#333333" id="svg_1343" points="187.938,73.32 188.076,74.285 187.598,73.434         "/>
          <polygon fill="#333333" id="svg_1344" points="185.827,73.32 185.963,74.285 185.486,73.434         "/>
          <polygon fill="#333333" id="svg_1345" points="183.928,73.32 184.065,74.285 183.59,73.434         "/>
          <polygon fill="#333333" id="svg_1346" points="182.03,73.32 182.166,74.285 181.692,73.434         "/>
          <polygon fill="#333333" id="svg_1347" points="180.086,71.536 180.221,72.502 179.746,71.65         "/>
          <polygon fill="#333333" id="svg_1348" points="187.725,76.454 187.862,77.419 187.385,76.568         "/>
         </g>
        </g>
        <path d="m175.37,70.91c-0.04,0.14 -0.05,0.29 -0.05,0.44c0,1.09 0.88,1.97 1.97,1.97c1.09,0 1.97,-0.88 1.97,-1.97c0,-0.23 -0.04,-0.46 -0.12,-0.66c0.96,-0.08 1.71,-0.88 1.72,-1.86c-0.01,-1.03 -0.84,-1.86 -1.87,-1.86c-0.27,0 -1.24,0.3 -1.45,0.42l-0.55,0.01c-0.25,-0.16 -1.33,-0.43 -1.59,-0.43c-1.09,0 -1.98,0.89 -1.97,1.97c0,1.08 0.86,1.96 1.94,1.97z" fill="#9C9C9C" id="svg_1349"/>
        <path d="m177.33,59.73c0,-0.02 0,-0.05 0,-0.07c0,-0.17 -0.14,-0.32 -0.31,-0.32c-0.17,0 -0.31,0.14 -0.31,0.32c0,0.04 0.01,0.07 0.02,0.1c-0.16,0.02 -0.28,0.14 -0.28,0.3c0,0.16 0.14,0.29 0.3,0.29c0.04,0 0.2,-0.04 0.23,-0.06l-0.2,0.34l0.49,0l-0.2,-0.34c0.04,0.02 0.21,0.06 0.25,0.06c0.17,0 0.32,-0.14 0.32,-0.31c-0.01,-0.17 -0.14,-0.31 -0.31,-0.31z" fill="#333333" id="svg_1350"/>
        <path d="m178.17,76.07c0.01,-0.08 0.02,-0.16 0.01,-0.24c-0.03,-0.58 -0.52,-1.03 -1.11,-1.03c-0.58,0 -1.08,0.45 -1.1,1.03c-0.01,0.13 0.01,0.26 0.05,0.37c-0.56,0.05 -1.03,0.52 -1.09,1.11c-0.05,0.66 0.43,1.22 1.08,1.21c0.17,0 0.79,-0.21 0.92,-0.3l-0.84,1.55l2.03,-0.02l-0.85,-1.53c0.16,0.11 0.83,0.28 1,0.28c0.68,0 1.17,-0.59 1.1,-1.28c-0.06,-0.64 -0.6,-1.14 -1.2,-1.15z" fill="#616161" id="svg_1351" opacity="0.2"/>
        <path d="m178.15,76.01c0.02,-0.08 0.03,-0.17 0.03,-0.25c0,-0.62 -0.5,-1.12 -1.12,-1.12c-0.62,0 -1.12,0.5 -1.12,1.12c0,0.13 0.02,0.26 0.07,0.38c-0.55,0.04 -0.98,0.49 -0.98,1.05c0,0.58 0.47,1.06 1.06,1.06c0.15,0 0.71,-0.17 0.83,-0.24l-0.72,1.23l1.75,-0.01l-0.72,-1.22c0.14,0.08 0.75,0.24 0.9,0.24c0.62,0 1.12,-0.5 1.12,-1.12c0,-0.62 -0.49,-1.11 -1.1,-1.12z" fill="#FFD675" id="svg_1352"/>
        <path d="m177.04,78.34l0.45,0.58l-0.85,0l0.4,-0.58zm-0.96,-0.52c-0.34,0 -0.62,-0.29 -0.62,-0.63c0,-0.33 0.25,-0.6 0.58,-0.63l0.57,-0.04l-0.2,-0.53c-0.03,-0.07 -0.05,-0.15 -0.05,-0.23c0,-0.38 0.32,-0.69 0.7,-0.69c0.18,0 0.36,0.07 0.49,0.2c0.13,0.13 0.2,0.3 0.2,0.49c0,0.05 -0.01,0.1 -0.02,0.16l-0.12,0.51l0.53,0.01c0.38,0 0.68,0.31 0.68,0.69c0,0.18 -0.07,0.35 -0.2,0.48c-0.13,0.13 -0.31,0.21 -0.49,0.21l0,0c-0.08,-0.01 -0.35,-0.07 -0.53,-0.13l-0.55,-0.26l-0.5,0.26c-0.15,0.06 -0.39,0.12 -0.47,0.13z" fill="#616161" id="svg_1353" opacity="0.2"/>
       </g>
       <g id="svg_1354">
        <polygon fill="#EBBE9F" id="svg_1355" points="175.469,67.754 178.813,67.754 178.343,68.948 176.079,68.94       "/>
        <rect fill="#616161" height="0.35" id="svg_1356" opacity="0.2" width="1.79" x="176.24" y="67.92"/>
       </g>
      </g>
      <g id="svg_1357">
       <g id="svg_1358"/>
      </g>
     </g>
     <path d="m188.35,72.46c0,0 -5.31,-3.03 -7.01,-4c-0.16,-0.09 -0.29,-0.16 -0.38,-0.21l0.45,-1.93l-0.07,-1.02l-0.01,-0.04l-0.22,-3.03c0.02,-0.01 0.04,-0.02 0.07,-0.02l0,-1.2c0,0 -0.07,-0.03 -0.19,-0.09c-0.27,-0.13 -0.83,-0.4 -1.44,-0.7c-0.22,-0.11 -0.44,-0.22 -0.66,-0.32c-0.23,-0.12 -0.45,-0.23 -0.66,-0.33c-0.67,-0.33 -1.18,-0.59 -1.18,-0.6c0,0 -0.01,0.01 -0.01,0.01l0,22.69l4.26,-1.28l0.04,0.14l2.42,-0.88l4.68,-1.4l0,-5.5l-0.09,-0.29z" fill="#616161" id="svg_1359" opacity="0.2"/>
    </g>
    <g id="svg_1360">
     <g id="svg_1361">
      <g id="svg_1362">
       <g id="svg_1363">
        <g id="svg_1364">
         <g id="svg_1365">
          <path d="m165.75,92.72l0.08,0.28c0,0 5.31,3.04 7.01,4c0.32,0.18 0.51,0.29 0.52,0.29l7.56,0c0,0 0.02,-0.01 0.04,-0.02c0.01,-0.01 0.03,-0.02 0.05,-0.03c0.02,-0.01 0.05,-0.03 0.07,-0.04c0.02,-0.01 0.05,-0.03 0.07,-0.04c0.03,-0.02 0.06,-0.03 0.09,-0.05c0.05,-0.03 0.09,-0.06 0.15,-0.09c0.1,-0.05 0.22,-0.12 0.35,-0.19l0,-0.01c0.1,-0.05 0.2,-0.11 0.31,-0.17c0.04,-0.02 0.08,-0.04 0.11,-0.07c0.26,-0.14 0.54,-0.3 0.84,-0.47c0.11,-0.06 0.21,-0.12 0.32,-0.19c0.11,-0.06 0.23,-0.12 0.34,-0.18c0.11,-0.07 0.23,-0.14 0.34,-0.2c1.5,-0.85 3.16,-1.8 3.96,-2.26c0.05,-0.02 0.09,-0.05 0.13,-0.07c0.19,-0.11 0.31,-0.18 0.35,-0.2l0,-12.61l-4.95,1.49l-1.12,0.33l-16.62,5l0,5.5z" fill="#333333" id="svg_1366"/>
          <g id="svg_1367">
           <g id="svg_1368">
            <g id="svg_1369">
             <g id="svg_1370">
              <path d="m177.08,90.76l2.07,3.59l-4.14,0l2.07,-3.59zm1.67,3.36l-1.67,-2.9l-1.68,2.9l3.35,0z" fill="#FFD675" id="svg_1371"/>
             </g>
            </g>
            <path d="m179.86,97.29c0.04,-0.01 7.53,-4.28 7.53,-4.28l1.05,-3.24l0,-9.37l-4.95,1.49l-1.12,0.34l-2.96,9.71l-0.4,1.3l-0.58,1.24l-1.29,2.75l0,0.06l2.72,0z" fill="#616161" id="svg_1372" opacity="0.2"/>
            <path d="m180.92,97.29c0,0 0.02,-0.01 0.04,-0.02c0.01,-0.01 0.03,-0.02 0.05,-0.03c0.02,-0.01 0.05,-0.03 0.07,-0.04c0.02,-0.01 0.05,-0.03 0.07,-0.04c0.03,-0.02 0.06,-0.03 0.09,-0.05c0.05,-0.03 0.09,-0.06 0.15,-0.09c0.1,-0.05 0.22,-0.12 0.35,-0.19l0,-0.01c0.1,-0.05 0.2,-0.11 0.31,-0.17c0.04,-0.02 0.08,-0.04 0.11,-0.07c0.26,-0.14 0.54,-0.3 0.84,-0.47c0.11,-0.06 0.21,-0.12 0.32,-0.19c0.12,-0.06 0.23,-0.12 0.34,-0.18c0.11,-0.07 0.23,-0.13 0.34,-0.2c0.49,-0.28 0.99,-0.56 1.47,-0.84c0.14,-0.08 0.29,-0.16 0.43,-0.24c0.84,-0.48 1.6,-0.91 2.06,-1.18c0.05,-0.02 0.09,-0.05 0.13,-0.07c0.19,-0.11 0.31,-0.18 0.35,-0.2l0,-12.61l-0.88,0.27l-0.5,0.14l-3.52,1.06l-0.05,0.02c-0.17,0.39 -0.34,0.8 -0.52,1.23c-1.18,2.85 -2.63,6.46 -3.56,8.81c-0.59,1.47 -0.97,2.44 -0.97,2.44l-0.01,0.1l-0.26,2.82l2.75,0z" fill="#EBEBEB" id="svg_1373"/>
           </g>
           <g id="svg_1374">
            <g id="svg_1375">
             <path d="m165.75,89.19l1.14,3.81c0,0 7.49,4.28 7.53,4.29l2.72,0l0,-0.06l-1.87,-4l-2.43,-8.29l-7.1,2.57l0,1.68l0.01,0z" fill="#616161" id="svg_1376" opacity="0.2"/>
             <path d="m165.75,92.71l0.08,0.29c0,0 7.49,4.28 7.53,4.29l2.74,0l-0.26,-2.91c0,0 -3.23,-6.71 -4.38,-8.88l-5.71,1.72l0,5.49z" fill="#EBEBEB" id="svg_1377"/>
            </g>
           </g>
          </g>
          <g id="svg_1378">
           <polygon fill="#EBBE9F" id="svg_1379" points="172.77,99.139 172.846,100.162 172.849,100.2 173.083,103.332 174.246,103.92            176.493,105.058 177.115,104.724 177.737,105.058 179.983,103.92 181.146,103.332 181.381,100.2 181.384,100.162            181.46,99.139 180.527,96.03 177.12,93.228 177.12,93.221 177.118,93.219 177.115,93.223 177.109,93.219 177.109,93.221            177.109,93.228 173.457,96.208          "/>
           <path d="m177.11,97.29l-1.38,0.04l1.03,0.65c0,0 0.17,0.01 0.35,0.01l0,0c0,0 0,0 0,0c0.01,0 0.01,0 0.01,0l0,0c0.18,0 0.35,-0.01 0.35,-0.01l1.02,-0.65l-1.37,-0.04l0,0l-0.01,0l0,0l0,0z" fill="#EBBE9F" id="svg_1380"/>
           <polygon fill="#616161" id="svg_1381" opacity="0.2" points="176.276,99.256 176.84,101.217 177.109,101.217 177.118,101.217            177.386,101.217 177.953,99.256 177.386,98.651 177.118,98.641 177.118,98.641 177.115,98.641 177.109,98.641            177.109,98.641 176.84,98.651          "/>
           <g id="svg_1382">
            <polygon fill="#9C9C9C" id="svg_1383" points="176.519,101.74 174.749,101.963 174.71,101.968 174.692,101.957 173.848,101.511             174.768,101.768 174.71,101.764 176.427,101.28           "/>
            <path d="m175.9,101c0.02,-0.06 0.04,-0.13 0.04,-0.2c0,-0.28 -0.22,-0.5 -0.5,-0.5c-0.27,0 -0.5,0.22 -0.5,0.5c0,0.07 0.02,0.14 0.05,0.2l0.91,0z" fill="#333333" id="svg_1384"/>
            <polygon fill="#9C9C9C" id="svg_1385" points="177.71,101.74 179.48,101.963 179.517,101.968 179.538,101.957 180.382,101.511             179.461,101.768 179.52,101.764 177.8,101.28           "/>
            <path d="m178.33,101c-0.03,-0.06 -0.05,-0.13 -0.05,-0.2c0,-0.28 0.23,-0.5 0.5,-0.5c0.28,0 0.5,0.22 0.5,0.5c0,0.07 -0.01,0.14 -0.04,0.2l-0.91,0z" fill="#333333" id="svg_1386"/>
            <path d="m172.85,100.16c0.03,-0.02 0.04,-0.03 0.04,-0.03l0.82,2.89l0.54,0.9l-1.17,-0.59l-0.23,-3.13l0,-0.04z" fill="#9C9C9C" id="svg_1387"/>
            <path d="m181.38,100.16c-0.03,-0.02 -0.04,-0.03 -0.04,-0.03l-0.82,2.89l-0.54,0.9l1.17,-0.59l0.23,-3.13l0,-0.04z" fill="#9C9C9C" id="svg_1388"/>
           </g>
           <path d="m173,104.45l0,-1.2c1.04,-0.28 2.2,-0.4 3.32,-0.43c0.74,-0.02 1.46,-0.01 2.12,0.03c0.32,0.02 0.62,0.04 0.91,0.07c0.33,0.03 0.64,0.06 0.9,0.09c0.63,0.08 1.01,0.14 1.01,0.14l0,1.14c0,0 -4.1,2.2 -4.12,2.2c0,-0.01 -0.52,-0.27 -1.18,-0.6c-0.21,-0.1 -0.44,-0.21 -0.67,-0.32c-0.22,-0.11 -0.44,-0.22 -0.66,-0.33c-0.61,-0.29 -1.17,-0.57 -1.44,-0.7c-0.12,-0.06 -0.19,-0.09 -0.19,-0.09z" fill="#FFD675" id="svg_1389"/>
           <g id="svg_1390">
            <path d="m175.29,105.57l4.06,-2.65c0.33,0.03 0.64,0.06 0.9,0.09l-4.29,2.89c-0.21,-0.11 -0.44,-0.22 -0.67,-0.33z" fill="#FFFFFF" id="svg_1391" opacity="0.2"/>
            <path d="m173.19,104.54l3.13,-1.72c0.74,-0.02 1.46,-0.01 2.12,0.03l-3.81,2.39c-0.61,-0.29 -1.17,-0.57 -1.44,-0.7z" fill="#FFFFFF" id="svg_1392" opacity="0.2"/>
           </g>
          </g>
         </g>
         <g id="svg_1393">
          <polygon fill="#333333" id="svg_1394" points="185.251,89.009 185.389,88.045 184.912,88.895         "/>
          <polygon fill="#333333" id="svg_1395" points="183.351,89.009 183.488,88.045 183.013,88.895         "/>
          <polygon fill="#333333" id="svg_1396" points="181.455,89.009 181.589,88.045 181.117,88.895         "/>
          <polygon fill="#333333" id="svg_1397" points="187.624,85.901 187.759,84.936 187.287,85.787         "/>
          <polygon fill="#333333" id="svg_1398" points="185.726,85.901 185.863,84.936 185.389,85.787         "/>
          <polygon fill="#333333" id="svg_1399" points="183.828,85.901 183.965,84.936 183.488,85.787         "/>
          <polygon fill="#333333" id="svg_1400" points="187.044,82.769 187.179,81.804 186.705,82.653         "/>
          <polygon fill="#333333" id="svg_1401" points="185.146,82.769 185.283,81.804 184.806,82.653         "/>
          <path d="m183.11,82.84c0.09,-0.21 0.18,-0.42 0.26,-0.61l0.03,-0.01l-0.1,0.69l-0.19,-0.07z" fill="#333333" id="svg_1402"/>
          <polygon fill="#333333" id="svg_1403" points="181.929,94.43 182.066,93.465 181.589,94.313         "/>
          <polygon fill="#333333" id="svg_1404" points="183.828,94.817 183.965,93.855 183.488,94.704         "/>
          <path d="m185.6,94.47l0.26,-0.47l-0.05,0.35c-0.06,0.04 -0.14,0.08 -0.21,0.12z" fill="#333333" id="svg_1405"/>
          <polygon fill="#333333" id="svg_1406" points="187.185,80.816 187.432,80.741 187.411,80.893         "/>
          <polygon fill="#333333" id="svg_1407" points="187.577,92.144 187.712,91.179 187.237,92.029         "/>
          <polygon fill="#333333" id="svg_1408" points="185.462,92.144 185.602,91.179 185.125,92.029         "/>
          <polygon fill="#333333" id="svg_1409" points="183.567,92.144 183.704,91.179 183.227,92.029         "/>
          <polygon fill="#333333" id="svg_1410" points="181.669,92.144 181.806,91.179 181.328,92.029         "/>
          <polygon fill="#333333" id="svg_1411" points="179.723,93.927 179.86,92.962 179.385,93.813         "/>
          <polygon fill="#333333" id="svg_1412" points="187.364,89.009 187.498,88.045 187.023,88.895         "/>
         </g>
         <g id="svg_1413">
          <polygon fill="#333333" id="svg_1414" points="168.569,89.009 168.432,88.045 168.907,88.895         "/>
          <polygon fill="#333333" id="svg_1415" points="170.468,89.009 170.331,88.045 170.805,88.895         "/>
          <polygon fill="#333333" id="svg_1416" points="172.366,89.009 172.229,88.045 172.704,88.895         "/>
          <polygon fill="#333333" id="svg_1417" points="171.889,94.43 171.754,93.465 172.229,94.313         "/>
          <polygon fill="#333333" id="svg_1418" points="169.99,94.817 169.856,93.855 170.331,94.704         "/>
          <path d="m168.35,94.18l-0.26,-0.47l0.05,0.35c0.07,0.04 0.14,0.08 0.21,0.12z" fill="#333333" id="svg_1419"/>
          <polygon fill="#333333" id="svg_1420" points="166.244,92.144 166.106,91.179 166.583,92.029         "/>
          <polygon fill="#333333" id="svg_1421" points="168.355,92.144 168.218,91.179 168.693,92.029         "/>
          <polygon fill="#333333" id="svg_1422" points="170.254,92.144 170.117,91.179 170.591,92.029         "/>
          <polygon fill="#333333" id="svg_1423" points="172.152,92.144 172.015,91.179 172.49,92.029         "/>
          <polygon fill="#333333" id="svg_1424" points="174.096,93.927 173.961,92.962 174.436,93.813         "/>
          <polygon fill="#333333" id="svg_1425" points="166.457,89.009 166.32,88.045 166.794,88.895         "/>
         </g>
        </g>
        <path d="m178.81,94.55c0.04,-0.14 0.06,-0.29 0.05,-0.44c0,-1.08 -0.88,-1.97 -1.97,-1.97c-1.09,0.01 -1.97,0.89 -1.97,1.97c0,0.24 0.04,0.46 0.12,0.67c-0.96,0.07 -1.71,0.87 -1.72,1.85c0.01,1.03 0.84,1.86 1.87,1.86c0.27,0 1.25,-0.3 1.45,-0.42l0.55,0c0.26,0.15 1.33,0.42 1.59,0.42c1.09,0 1.98,-0.88 1.97,-1.97c0,-1.08 -0.86,-1.95 -1.94,-1.97z" fill="#9C9C9C" id="svg_1426"/>
        <path d="m176.86,105.74c-0.01,0.02 -0.01,0.04 -0.01,0.07c0,0.17 0.14,0.31 0.31,0.31c0.17,0 0.31,-0.14 0.31,-0.31c0,-0.04 0,-0.08 -0.01,-0.11c0.15,-0.01 0.27,-0.14 0.27,-0.29c0,-0.17 -0.13,-0.3 -0.3,-0.3c-0.04,0 -0.2,0.05 -0.23,0.07l0.2,-0.35l-0.49,0l0.2,0.35c-0.04,-0.03 -0.21,-0.07 -0.25,-0.07c-0.17,0 -0.31,0.14 -0.31,0.31c0,0.17 0.14,0.31 0.31,0.32z" fill="#333333" id="svg_1427"/>
        <path d="m176.01,89.39c-0.01,0.08 -0.01,0.16 -0.01,0.25c0.03,0.57 0.53,1.02 1.11,1.02c0.58,0 1.08,-0.45 1.11,-1.03c0,-0.13 -0.02,-0.25 -0.06,-0.37c0.56,-0.04 1.03,-0.51 1.09,-1.1c0.05,-0.66 -0.43,-1.22 -1.08,-1.22c-0.17,0 -0.78,0.22 -0.92,0.3l0.85,-1.55l-2.03,0.02l0.84,1.53c-0.16,-0.1 -0.83,-0.28 -1,-0.28c-0.68,0.01 -1.17,0.6 -1.1,1.29c0.06,0.64 0.6,1.14 1.2,1.14z" fill="#616161" id="svg_1428" opacity="0.2"/>
        <path d="m176.03,89.46c-0.02,0.08 -0.03,0.16 -0.03,0.25c0,0.61 0.51,1.12 1.12,1.12c0.62,-0.01 1.12,-0.51 1.12,-1.12c0,-0.14 -0.02,-0.26 -0.06,-0.38c0.54,-0.04 0.97,-0.5 0.97,-1.05c0,-0.59 -0.47,-1.06 -1.06,-1.06c-0.15,0 -0.71,0.17 -0.82,0.24l0.71,-1.23l-1.74,0l0.72,1.23c-0.15,-0.09 -0.76,-0.24 -0.91,-0.24c-0.62,0 -1.12,0.5 -1.12,1.12c0,0.61 0.49,1.11 1.1,1.12z" fill="#FFD675" id="svg_1429"/>
        <path d="m177.14,87.12l-0.45,-0.57l0.86,0l-0.41,0.57zm0.96,0.53c0.34,0 0.62,0.28 0.62,0.63c0,0.32 -0.25,0.6 -0.58,0.62l-0.56,0.04l0.19,0.54c0.03,0.07 0.04,0.15 0.04,0.23c0,0.37 -0.31,0.68 -0.69,0.68c-0.18,0 -0.36,-0.07 -0.49,-0.2c-0.13,-0.13 -0.2,-0.3 -0.19,-0.48c-0.01,-0.06 0,-0.11 0.01,-0.16l0.12,-0.51l-0.53,-0.01c-0.37,-0.01 -0.68,-0.32 -0.68,-0.69c0,-0.19 0.07,-0.36 0.2,-0.49c0.13,-0.13 0.31,-0.2 0.49,-0.2l0,0c0.08,0 0.35,0.07 0.54,0.12l0.54,0.26l0.5,-0.26c0.16,-0.05 0.39,-0.12 0.47,-0.12z" fill="#616161" id="svg_1430" opacity="0.2"/>
       </g>
       <g id="svg_1431">
        <polygon fill="#EBBE9F" id="svg_1432" points="178.712,97.71 175.372,97.71 175.838,96.515 178.104,96.523       "/>
        <rect fill="#616161" height="0.35" id="svg_1433" opacity="0.2" width="1.79" x="176.15" y="97.19"/>
       </g>
      </g>
      <g id="svg_1434">
       <g id="svg_1435"/>
      </g>
     </g>
     <path d="m165.83,93c0,0 5.31,3.04 7.01,4c0.16,0.09 0.29,0.16 0.38,0.21l-0.45,1.93l0.08,1.02l0,0.04l0.23,3.04c-0.03,0 -0.05,0.01 -0.08,0.02l0,1.19c0,0 0.07,0.03 0.19,0.09c0.27,0.14 0.83,0.41 1.44,0.7c0.22,0.11 0.44,0.22 0.66,0.33c0.23,0.11 0.46,0.22 0.67,0.32c0.66,0.33 1.18,0.59 1.18,0.6c0,0 0,-0.01 0.01,-0.01l0,-22.69l-4.27,1.28l-0.04,-0.13l-2.42,0.87l-4.68,1.41l0,5.5l0.09,0.28z" fill="#616161" id="svg_1436" opacity="0.2"/>
    </g>
   </g>
   <g id="svg_1437">
    <path d="m163.71,66.08c0.02,-0.09 0.03,-0.17 0.03,-0.25c0,-0.61 -0.5,-1.11 -1.11,-1.11c-0.61,0 -1.11,0.49 -1.11,1.11c0,0.13 0.02,0.25 0.07,0.37c-0.54,0.05 -0.97,0.5 -0.97,1.05c0,0.58 0.47,1.04 1.05,1.04c0.15,0 0.7,-0.17 0.82,-0.23l-0.71,1.21l1.73,0l-0.71,-1.21c0.14,0.08 0.75,0.23 0.89,0.23c0.62,0 1.11,-0.49 1.11,-1.11c0,-0.6 -0.48,-1.1 -1.09,-1.1z" fill="#333333" id="svg_1438"/>
    <path d="m163.71,66.08c0.02,-0.09 0.03,-0.17 0.03,-0.25c0,-0.61 -0.5,-1.11 -1.11,-1.11c0,0 0,0 0,0l0,4.55l0.88,0l-0.71,-1.21c0.14,0.08 0.75,0.23 0.89,0.23c0.62,0 1.11,-0.49 1.11,-1.11c0,-0.6 -0.48,-1.1 -1.09,-1.1z" fill="#616161" id="svg_1439" opacity="0.2"/>
   </g>
   <g id="svg_1440">
    <path d="m190.31,99.26c-0.02,0.08 -0.03,0.16 -0.03,0.25c0,0.61 0.5,1.1 1.11,1.1c0.61,0 1.11,-0.49 1.11,-1.1c0,-0.13 -0.03,-0.26 -0.07,-0.38c0.54,-0.04 0.97,-0.49 0.97,-1.04c0,-0.58 -0.48,-1.05 -1.05,-1.05c-0.16,0 -0.7,0.17 -0.82,0.24l0.71,-1.22l-1.73,0l0.71,1.22c-0.14,-0.09 -0.75,-0.24 -0.89,-0.24c-0.62,0 -1.11,0.5 -1.11,1.11c0,0.61 0.48,1.1 1.09,1.11z" fill="#333333" id="svg_1441"/>
    <path d="m190.31,99.26c-0.02,0.08 -0.03,0.16 -0.03,0.25c0,0.61 0.5,1.1 1.11,1.1c0,0 0,0 0,0l0,-4.55l-0.88,0l0.71,1.22c-0.14,-0.09 -0.75,-0.24 -0.9,-0.24c-0.61,0 -1.11,0.5 -1.11,1.11c0.01,0.61 0.49,1.1 1.1,1.11z" fill="#616161" id="svg_1442" opacity="0.2"/>
   </g>
  </g>
 </g>

</svg>