<?xml version="1.0"?>
<svg width="40" height="56" xmlns="http://www.w3.org/2000/svg" xmlns:svg="http://www.w3.org/2000/svg" enable-background="new 0 0 450 450" version="1.1" xml:space="preserve">
 <g class="layer">
  <title>Layer 1</title>
  <g id="svg_1443" transform="translate(-0.0100843, 0.0450996) scale(1.00266, 1) translate(0.0100843, -0.0450996) translate(-8.8204, 0.10627) matrix(1, 0, 0, 1, -148.343, -120.915)">
   <g id="svg_1444">
    <g id="svg_1445">
     <g id="svg_1446">
      <path d="m161.65,176.49c-2.35,0.01 -4.26,-1.87 -4.27,-4.17l-0.12,-47.16c-0.01,-2.32 1.91,-4.2 4.26,-4.2l31.16,0.06c2.35,0 4.26,1.89 4.26,4.21l0,47.05c0,2.3 -1.9,4.18 -4.24,4.18l-31.05,0.03z" fill="#C9C9C9" id="svg_1447"/>
      <path d="m161.87,176.67c-2.32,0 -4.2,-1.88 -4.2,-4.19l0,-47.04c0,-2.31 1.88,-4.19 4.2,-4.19l30.71,0c2.31,0 4.2,1.88 4.2,4.19l0,47.04c0,2.31 -1.89,4.19 -4.2,4.19l-30.71,0z" fill="#FFFFFF" id="svg_1448"/>
      <g id="svg_1449">
       <path d="m192.74,175.49l-30.71,0c-1.8,0 -3.25,-1.45 -3.25,-3.24l0,-47.04c0,-1.72 1.36,-3.12 2.09,-3.39l0.11,-0.04l30.87,0.01c3.06,0.24 4.15,1.92 4.15,3.42l0,47.05c-0.01,1.78 -1.47,3.23 -3.26,3.23zm-31.5,-52.42c-0.33,0.21 -1.18,1.07 -1.18,2.14l0,47.05c0,1.07 0.88,1.95 1.97,1.95l30.71,0c1.08,0 1.97,-0.88 1.97,-1.95l0,-47.05c0,-1.19 -1.1,-1.99 -2.93,-2.14l-30.54,0z" fill="#333333" id="svg_1450"/>
      </g>
      <g id="svg_1451">
       <path d="m164.81,126.78c0,0.22 -0.05,0.45 -0.16,0.7c-0.1,0.26 -0.22,0.46 -0.36,0.61c-0.06,0.06 -0.15,0.14 -0.29,0.25c-0.19,0.16 -0.39,0.3 -0.6,0.43c-0.06,0.03 -0.11,0.06 -0.14,0.08c-0.09,0.06 -0.14,0.1 -0.14,0.12c0,0.05 0.15,0.14 0.44,0.25c0.25,0.11 0.45,0.17 0.58,0.2c0.02,0.01 0.04,0.01 0.08,0.01l0.11,0c0.04,0 0.07,0 0.1,0c0.04,0 0.07,0.01 0.11,0.02c-0.02,0.02 -0.07,0.05 -0.14,0.08c-0.08,0.04 -0.15,0.07 -0.22,0.11c-0.1,0.08 -0.18,0.15 -0.23,0.2c-0.06,0.05 -0.1,0.07 -0.13,0.07c-0.1,0 -0.25,-0.11 -0.47,-0.31c-0.21,-0.21 -0.41,-0.31 -0.61,-0.31c-0.12,0 -0.24,0.04 -0.36,0.14c-0.11,0.09 -0.18,0.13 -0.21,0.13c-0.04,0 -0.07,-0.03 -0.07,-0.1c0,-0.04 0.07,-0.12 0.21,-0.22c0.09,-0.07 0.18,-0.14 0.27,-0.2c-0.23,-0.13 -0.44,-0.27 -0.65,-0.41c-0.2,-0.14 -0.38,-0.32 -0.54,-0.52c-0.14,-0.19 -0.24,-0.38 -0.32,-0.58c-0.07,-0.21 -0.11,-0.42 -0.11,-0.64c0,-0.33 0.07,-0.6 0.2,-0.81c0.05,-0.08 0.2,-0.25 0.46,-0.51c0.08,-0.08 0.29,-0.26 0.62,-0.52c0.41,-0.33 0.65,-0.5 0.73,-0.5c0.08,0 0.21,0.07 0.41,0.21c0.24,0.17 0.52,0.42 0.84,0.74c0.21,0.21 0.36,0.41 0.45,0.61c0.09,0.2 0.14,0.42 0.14,0.67zm-1.03,0.58c0,-0.19 -0.04,-0.4 -0.12,-0.62c-0.08,-0.23 -0.19,-0.44 -0.33,-0.64c-0.11,-0.16 -0.31,-0.34 -0.61,-0.56c-0.1,-0.08 -0.23,-0.17 -0.41,-0.28c-0.07,0 -0.16,0.12 -0.26,0.36c-0.11,0.24 -0.16,0.4 -0.16,0.47c0,0.33 0.07,0.64 0.22,0.93c0.11,0.23 0.3,0.48 0.54,0.74c0.1,0.1 0.35,0.33 0.75,0.69c0.13,-0.12 0.23,-0.32 0.3,-0.58c0.05,-0.19 0.08,-0.36 0.08,-0.51z" fill="#333333" id="svg_1452"/>
      </g>
      <g id="svg_1453">
       <path d="m190.12,171.19c0,-0.21 0.05,-0.44 0.16,-0.7c0.1,-0.25 0.22,-0.46 0.36,-0.61c0.06,-0.05 0.15,-0.14 0.28,-0.25c0.2,-0.15 0.4,-0.3 0.61,-0.42c0.06,-0.04 0.11,-0.06 0.13,-0.08c0.1,-0.06 0.14,-0.1 0.14,-0.13c0,-0.05 -0.14,-0.13 -0.43,-0.25c-0.26,-0.1 -0.45,-0.17 -0.58,-0.2c-0.02,0 -0.05,0 -0.09,0l-0.11,0c-0.03,0 -0.06,0 -0.1,0c-0.03,0 -0.07,-0.01 -0.1,-0.02c0.02,-0.03 0.07,-0.06 0.14,-0.09c0.07,-0.03 0.14,-0.07 0.22,-0.1c0.1,-0.09 0.18,-0.16 0.23,-0.2c0.05,-0.05 0.1,-0.07 0.13,-0.07c0.09,0 0.25,0.1 0.46,0.31c0.22,0.2 0.42,0.31 0.62,0.31c0.12,0 0.24,-0.05 0.35,-0.14c0.12,-0.09 0.19,-0.14 0.21,-0.14c0.05,0 0.08,0.04 0.08,0.1c0,0.05 -0.07,0.12 -0.21,0.23c-0.09,0.07 -0.18,0.13 -0.27,0.2c0.22,0.13 0.44,0.26 0.64,0.41c0.21,0.14 0.39,0.31 0.55,0.52c0.14,0.18 0.24,0.37 0.32,0.58c0.07,0.2 0.1,0.42 0.1,0.63c0,0.34 -0.06,0.61 -0.19,0.81c-0.05,0.08 -0.2,0.25 -0.46,0.51c-0.08,0.08 -0.29,0.26 -0.62,0.53c-0.41,0.33 -0.65,0.5 -0.73,0.5c-0.08,0 -0.21,-0.08 -0.41,-0.22c-0.24,-0.17 -0.53,-0.41 -0.85,-0.74c-0.2,-0.2 -0.35,-0.4 -0.44,-0.6c-0.09,-0.2 -0.14,-0.43 -0.14,-0.68zm1.03,-0.57c0,0.19 0.04,0.39 0.12,0.62c0.07,0.22 0.19,0.43 0.33,0.63c0.11,0.16 0.31,0.35 0.61,0.57c0.09,0.07 0.23,0.17 0.41,0.28c0.07,0 0.15,-0.12 0.26,-0.36c0.1,-0.25 0.15,-0.4 0.15,-0.48c0,-0.33 -0.07,-0.64 -0.21,-0.92c-0.12,-0.24 -0.3,-0.49 -0.55,-0.74c-0.1,-0.11 -0.35,-0.34 -0.74,-0.7c-0.13,0.13 -0.24,0.32 -0.3,0.58c-0.06,0.2 -0.08,0.37 -0.08,0.52z" fill="#333333" id="svg_1454"/>
      </g>
     </g>
     <g id="svg_1455">
      <g id="svg_1456">
       <g id="svg_1457">
        <g id="svg_1458">
         <g id="svg_1459">
          <polygon fill="#C9C9C9" id="svg_1460" points="183.363,136.674 183.303,137.511 183.263,138.023 183.107,140.209 183.071,140.721           183.023,141.419 183.023,141.422 182.973,142.066 182.475,142.078 182.24,142.081 181.752,142.092 181.476,142.098           181.138,142.105 180.54,142.116 179.877,142.131 176.766,142.197 176.761,142.197 173.652,142.131 172.988,142.116           172.392,142.105 172.055,142.098 171.778,142.092 171.535,142.087 171.29,142.081 171.053,142.078 170.557,142.066           170.507,141.422 170.507,141.419 170.46,140.721 170.42,140.209 170.267,138.023 170.227,137.511 170.166,136.674                   "/>
          <path d="m182.82,138.24c-0.6,0.63 -2.35,1.24 -3.88,1.24l-0.02,0c-0.33,0.43 -0.72,0.76 -1.16,0.94c-0.27,0.12 -0.56,0.18 -0.85,0.18c-0.02,0 -0.04,0 -0.06,-0.01c0,0 0,0 -0.01,0l0,-3.92l5.98,1.57z" fill="#616161" id="svg_1461" opacity="0.2"/>
          <g id="svg_1462">
           <path d="m185.47,145.28l-2.5,0.75l-0.24,0.07l-0.07,0.02c-0.19,-0.33 -0.35,-0.57 -0.42,-0.68c-0.03,-0.03 -0.04,-0.05 -0.05,-0.05c0,0 0,0.01 -0.01,0.01c-0.21,0.35 -0.33,0.68 -0.4,0.98l-0.67,0.21l-4.34,1.29l-2.71,0.81l-0.9,0.27c-0.03,-0.11 -0.07,-0.22 -0.12,-0.34c-1.56,-0.68 -0.85,-1.75 -1.61,-3.09c-0.03,-0.05 -0.06,-0.1 -0.09,-0.14c-0.09,0.11 -1.86,2.8 -2.17,4.76l-0.21,0.06l-1.76,0.53l-0.04,0c-0.03,-3.86 1.14,-6.43 2.22,-7.98c0.08,-0.11 0.15,-0.21 0.23,-0.31c0.07,-0.09 0.14,-0.19 0.21,-0.26l0,-0.01c0,-0.01 0,-0.01 0,-0.01c0.06,-0.05 0.11,-0.12 0.17,-0.18c0.02,-0.03 0.04,-0.06 0.07,-0.08c0.02,-0.04 0.05,-0.07 0.08,-0.1c0.13,-0.15 0.26,-0.28 0.37,-0.39l0,0c0.03,-0.03 0.06,-0.05 0.09,-0.08c0.02,-0.03 0.05,-0.06 0.08,-0.08s0.05,-0.04 0.07,-0.07c0.05,-0.04 0.09,-0.07 0.14,-0.11c0.17,-0.15 0.28,-0.22 0.28,-0.22l0.4,0.1l0.07,0.02l0.16,0.04l0.05,0.01l0.56,-0.02l0.88,-0.04l0.93,-0.04l2.55,-0.1l0,0l2.6,0.11l0.88,0.03l0.87,0.04l0.57,0.02l0.05,-0.01l0.16,-0.05l0.07,-0.01l0.4,-0.1c0,0 0.11,0.07 0.28,0.22c0.04,0.04 0.09,0.07 0.13,0.11c0.03,0.03 0.05,0.05 0.08,0.07c0.02,0.02 0.05,0.05 0.08,0.07l0.08,0.09l0.01,0c0.02,0.02 0.05,0.05 0.08,0.09c0.03,0.02 0.06,0.05 0.09,0.09c0.06,0.06 0.13,0.13 0.19,0.21c0.04,0.03 0.08,0.07 0.12,0.12c0,0.01 0.01,0.02 0.02,0.02c0.01,0.02 0.01,0.02 0.02,0.04c0.06,0.06 0.1,0.12 0.16,0.18c0,0 0.01,0 0.01,0.01l0,0.01c0.06,0.07 0.13,0.17 0.21,0.26c0.07,0.1 0.15,0.2 0.22,0.31c0.45,0.66 0.93,1.49 1.32,2.52z" fill="#FDD8AB" id="svg_1463"/>
           <path d="m176.76,143.65l0.58,0l-0.26,2.06c-0.1,0.01 -0.21,0.01 -0.32,0.01l0,-2.07z" fill="#616161" id="svg_1464" opacity="0.2"/>
          </g>
          <g id="svg_1465">
           <g id="svg_1466">
            <path d="m176.77,136.68l-6.33,0.92c0.98,1.39 2.7,1.88 4.23,1.88l0.02,0c0.54,0.7 1.25,1.12 2.02,1.12c0.02,0 0.04,-0.01 0.06,-0.01l0,-3.91z" fill="#616161" id="svg_1467" opacity="0.2"/>
            <path d="m176.77,143.65l-0.58,0l0.26,2.06c0.1,0.01 0.21,0.01 0.31,0.01l0,-2.07l0.01,0z" fill="#616161" id="svg_1468" opacity="0.2"/>
           </g>
           <path d="m174.68,145.38c-2.9,-0.64 -4.48,-1.62 -5.3,-2.62c0.6,-0.86 1.18,-1.41 1.5,-1.68l3.8,4.3z" fill="#616161" id="svg_1469" opacity="0.2"/>
           <g id="svg_1470">
            <path d="m176.77,139.74c-0.02,0 -0.04,0.01 -0.07,0.01c-0.28,0 -0.56,-0.06 -0.82,-0.17c-0.02,0.07 -0.03,0.14 -0.03,0.21l0,0.37c0.27,0.12 0.56,0.18 0.85,0.18c0.03,0 0.05,0 0.07,0l0,-0.6z" fill="#FDD8AB" id="svg_1471"/>
            <path d="m176.77,138.91c-0.01,0 -0.02,-0.01 -0.04,-0.01c-0.41,0 -0.76,0.29 -0.85,0.68c0.26,0.11 0.54,0.17 0.83,0.17c0.02,0 0.04,-0.01 0.06,-0.01l0,-0.83z" fill="#FDD8AB" id="svg_1472"/>
           </g>
           <path d="m181.86,140.76l-1.54,-0.02l-2.64,-0.03l0,-0.55c-0.27,0.12 -0.56,0.18 -0.86,0.18c-0.01,0 -0.03,0 -0.05,0l0,0c0,0 0,0 -0.01,0l0,0l0,0c-0.02,0 -0.04,0 -0.05,0c-0.3,0 -0.59,-0.06 -0.86,-0.18l0,0.55l-2.64,0.03l-1.54,0.02c-0.27,0.47 -0.15,0.51 -0.15,1.05c0,1.35 0.93,2.54 2.34,3.24c0.01,0 0.01,0.01 0.02,0.01c0.25,0.12 0.52,0.23 0.8,0.32c0.55,0.18 1.14,0.3 1.77,0.33c0.04,0 0.07,0 0.1,0.01c0.07,0 0.14,0 0.21,0l0,0l0,0c0.01,0 0.01,0 0.01,0l0,0c0.07,0 0.14,0 0.21,0c0.03,0 0.07,-0.01 0.1,-0.01c0.63,-0.03 1.22,-0.15 1.77,-0.33c0.28,-0.09 0.55,-0.2 0.8,-0.32c0.01,0 0.01,0 0.02,-0.01c1.41,-0.7 2.34,-1.89 2.34,-3.24c0,-0.54 0.12,-0.58 -0.15,-1.05z" fill="#FDD8AB" id="svg_1473"/>
           <g id="svg_1474">
            <path d="m174.68,145.38c-0.28,-0.1 -0.55,-0.21 -0.8,-0.32c-0.01,0 -0.01,0 -0.02,-0.01c-1.41,-0.7 -2.34,-1.89 -2.34,-3.24c0,-0.54 -0.12,-0.58 0.15,-1.05l1.54,-0.02l1.47,4.64z" fill="#616161" id="svg_1475" opacity="0.2"/>
            <path d="m178.85,145.38c0.28,-0.1 0.55,-0.21 0.8,-0.32c0.01,0 0.01,0 0.02,-0.01c1.41,-0.7 2.34,-1.89 2.34,-3.24c0,-0.54 0.12,-0.58 -0.15,-1.05l-1.54,-0.02l-1.47,4.64z" fill="#616161" id="svg_1476" opacity="0.2"/>
           </g>
           <path d="m176.76,139.74c0.02,0 0.04,0.01 0.06,0.01c0.29,0 0.57,-0.06 0.83,-0.17c0.02,0.07 0.03,0.14 0.03,0.21l0,0.37c-0.27,0.12 -0.56,0.18 -0.86,0.18c-0.02,0 -0.04,0 -0.06,0l0,-0.6z" fill="#FDD8AB" id="svg_1477"/>
           <path d="m176.76,138.91c0.02,0 0.02,-0.01 0.03,-0.01c0.42,0 0.77,0.29 0.86,0.68c-0.26,0.11 -0.54,0.17 -0.82,0.17c-0.03,0 -0.05,-0.01 -0.06,-0.01l0,-0.83l-0.01,0z" fill="#FDD8AB" id="svg_1478"/>
          </g>
          <path d="m185.47,145.28l-2.5,0.75l-0.24,0.07l-0.07,0.02c-0.19,-0.33 -0.35,-0.57 -0.42,-0.68c-0.03,-0.03 -0.04,-0.05 -0.05,-0.05c0,0 0,0.01 -0.01,0.01c-0.21,0.35 -0.33,0.68 -0.4,0.98l-0.67,0.21l-4.34,1.29l-2.71,0.81l-0.9,0.27c-0.03,-0.11 -0.07,-0.22 -0.12,-0.34c-1.56,-0.68 -0.85,-1.75 -1.61,-3.09c-0.03,-0.05 -0.06,-0.1 -0.09,-0.14c-0.09,0.11 -1.86,2.8 -2.17,4.76l-0.21,0.06l-1.76,0.53l-0.04,0c-0.03,-3.86 1.14,-6.43 2.22,-7.98c0.08,-0.11 0.15,-0.21 0.23,-0.31c0.07,-0.09 0.14,-0.19 0.21,-0.26l0,-0.01c0,-0.01 0,-0.01 0,-0.01c0.06,-0.05 0.11,-0.12 0.17,-0.18c0.01,-0.01 0.01,-0.02 0.02,-0.03c0.02,-0.02 0.03,-0.03 0.05,-0.05l2.01,1.76l0.31,0.27l0.1,-0.15c0.27,0.05 0.55,0.09 0.84,0.09c0.56,0 2.55,-0.62 2.97,-0.88l1.13,0c0.52,0.32 2.71,0.87 3.25,0.87c0.18,0 0.36,-0.01 0.53,-0.03l0.21,0.33l0.45,-0.48l1.65,-1.76c0,0.01 0.01,0.02 0.02,0.02c0.01,0.02 0.01,0.02 0.02,0.04c0.06,0.05 0.11,0.12 0.16,0.18c0,0 0.01,0 0.01,0.01l0,0.01c0.04,0.04 0.08,0.09 0.12,0.14c0.03,0.04 0.06,0.08 0.09,0.12c0.07,0.09 0.15,0.2 0.22,0.3c0.45,0.67 0.93,1.5 1.32,2.53z" fill="#333333" id="svg_1479"/>
          <path d="m184.15,142.76c-0.82,1 -2.4,1.98 -5.3,2.62l1.57,-1.78l0.1,-0.11l1.23,-1.4l0.26,-0.29l0.64,-0.72c0.04,0.03 0.08,0.07 0.13,0.12c0.02,0.02 0.05,0.04 0.07,0.06c0.03,0.02 0.06,0.05 0.09,0.08c0.02,0.02 0.05,0.05 0.08,0.08l0,0l0,0c0.03,0.02 0.06,0.05 0.08,0.08c0.04,0.03 0.07,0.06 0.1,0.1c0.06,0.06 0.13,0.13 0.19,0.2c0.05,0.05 0.09,0.1 0.13,0.15c0.01,0.01 0.02,0.02 0.03,0.03c0.05,0.06 0.1,0.12 0.16,0.19c0,0 0,0 0,0.01l0,0l0,0c0.07,0.09 0.14,0.18 0.21,0.27c0.08,0.1 0.15,0.2 0.23,0.31z" fill="#616161" id="svg_1480" opacity="0.2"/>
          <path d="m184.52,139.76c0,0.18 -0.01,0.36 -0.04,0.55c-0.08,0.6 -0.31,1.23 -0.77,1.87l0,0c-0.43,0.61 -1.08,1.22 -1.99,1.81c-0.06,0.03 -0.12,0.07 -0.17,0.1c-0.54,0.33 -1.16,0.65 -1.88,0.96c-0.01,0.01 -0.03,0.02 -0.04,0.02c-0.02,0.01 -0.03,0.01 -0.04,0.02c-0.04,0.02 -0.09,0.03 -0.13,0.05c-0.13,0.06 -0.27,0.11 -0.4,0.16c-0.07,0.03 -0.14,0.06 -0.21,0.08l1.69,-3.26l0.58,-1.12l0.13,-0.25l2.11,-4.08c0,0 1.16,1.33 1.16,3.09z" fill="#EBEBEB" id="svg_1481"/>
          <path d="m174.68,145.38c-1.08,-0.4 -1.97,-0.84 -2.7,-1.29c-0.05,-0.03 -0.11,-0.07 -0.17,-0.11c-1.88,-1.2 -2.6,-2.5 -2.76,-3.67c-0.03,-0.19 -0.04,-0.37 -0.04,-0.55c0,-1.76 1.16,-3.08 1.16,-3.08l4.51,8.7z" fill="#EBEBEB" id="svg_1482"/>
          <g id="svg_1483">
           <polygon fill="#333333" id="svg_1484" points="170.886,141.854 171.43,142.578 171.185,141.706          "/>
           <polygon fill="#333333" id="svg_1485" points="172.769,143.61 173.315,144.333 173.067,143.462          "/>
           <polygon fill="#333333" id="svg_1486" points="169.895,137.533 170.438,138.256 170.193,137.383          "/>
           <polygon fill="#333333" id="svg_1487" points="170.615,139.052 171.158,139.774 170.913,138.904          "/>
           <polygon fill="#333333" id="svg_1488" points="171.332,140.571 171.875,141.295 171.63,140.422          "/>
           <polygon fill="#333333" id="svg_1489" points="172.052,142.09 172.595,142.815 172.35,141.944          "/>
           <path d="m171.98,144.09c-0.05,-0.03 -0.11,-0.07 -0.17,-0.11l-0.32,-0.42l0.3,-0.15l0.19,0.68z" fill="#333333" id="svg_1490"/>
           <polygon fill="#333333" id="svg_1491" points="169.448,138.814 169.993,139.537 169.746,138.667          "/>
           <polygon fill="#333333" id="svg_1492" points="170.166,140.333 170.712,141.058 170.464,140.188          "/>
           <path d="m169.28,140.62l-0.24,-0.31c-0.02,-0.18 -0.03,-0.37 -0.03,-0.55l0.02,-0.01l0.25,0.87z" fill="#333333" id="svg_1493"/>
           <polygon fill="#333333" id="svg_1494" points="169.767,141.699 170.311,142.424 170.065,141.552          "/>
          </g>
          <g id="svg_1495">
           <polygon fill="#333333" id="svg_1496" points="182.644,141.854 182.101,142.578 182.346,141.706          "/>
           <polygon fill="#333333" id="svg_1497" points="180.761,143.61 180.218,144.333 180.463,143.462          "/>
           <polygon fill="#333333" id="svg_1498" points="183.632,137.533 183.092,138.256 183.337,137.383          "/>
           <polygon fill="#333333" id="svg_1499" points="182.915,139.052 182.372,139.774 182.617,138.904          "/>
           <polygon fill="#333333" id="svg_1500" points="182.198,140.571 181.652,141.295 181.9,140.422          "/>
           <polygon fill="#333333" id="svg_1501" points="181.478,142.09 180.935,142.815 181.183,141.944          "/>
           <path d="m181.48,143.75c0.06,-0.03 0.5,-0.43 0.5,-0.43l-0.3,-0.14l-0.2,0.57z" fill="#333333" id="svg_1502"/>
           <polygon fill="#333333" id="svg_1503" points="184.081,138.814 183.538,139.537 183.783,138.667          "/>
           <polygon fill="#333333" id="svg_1504" points="183.363,140.333 182.817,141.058 183.065,140.188          "/>
           <path d="m184.52,139.76c0,0.18 -0.01,0.36 -0.04,0.55l-0.23,0.31l0.25,-0.87l0.02,0.01z" fill="#333333" id="svg_1505"/>
           <polygon fill="#333333" id="svg_1506" points="183.762,141.699 183.218,142.424 183.463,141.552          "/>
          </g>
         </g>
         <path d="m176.16,137.72l-0.38,0.63c-0.78,0 -1.48,0 -1.88,0c0.83,0 1.6,-0.22 2.26,-0.63z" fill="#333333" id="svg_1507"/>
         <path d="m179.5,138.36c-0.41,0 -1.04,0 -1.75,0l-0.4,-0.63c0.63,0.37 1.36,0.61 2.15,0.63z" fill="#333333" id="svg_1508"/>
         <path d="m179.6,138.37c-0.01,0 -0.03,0 -0.05,-0.01c0.48,0.01 0.61,0.01 0.05,0.01z" fill="#333333" id="svg_1509"/>
         <g id="svg_1510">
          <path d="m184.7,134.88c0,2.23 -1.8,4.03 -4.03,4.03c-0.54,0 -2.74,-0.55 -3.26,-0.87l-1.12,0c-0.43,0.26 -2.41,0.88 -2.98,0.88c-2.1,-0.01 -3.81,-1.71 -3.81,-3.81c0,-2 1.55,-3.65 3.51,-3.8c-0.16,-0.42 -0.24,-0.88 -0.24,-1.36c0,-0.19 0.01,-0.38 0.04,-0.56l0,-0.01c0.02,-0.22 0.08,-0.43 0.14,-0.64l0,0c0.52,-1.63 2.04,-2.81 3.85,-2.81c1.76,-0.01 3.27,1.12 3.81,2.7c0.08,0.22 0.13,0.43 0.17,0.66c0.03,0.21 0.05,0.44 0.05,0.66c0.01,0.31 -0.04,0.61 -0.1,0.9c2.2,0.04 3.97,1.82 3.97,4.03z" fill="#333333" id="svg_1511"/>
          <g id="svg_1512">
           <path d="m174.06,148.69l-0.91,0.27c-0.03,-0.11 -0.07,-0.23 -0.11,-0.34c-1.62,-0.7 -0.8,-1.82 -1.7,-3.24c-0.1,0.12 -1.87,2.81 -2.17,4.77l-0.22,0.06c-0.46,-2.03 2.62,-5.44 2.62,-5.44s1.38,3.4 2.49,3.92z" fill="#616161" id="svg_1513" opacity="0.2"/>
           <path d="m182.97,146.03l-0.24,0.07l-0.07,0.02c-0.2,-0.33 -0.35,-0.57 -0.42,-0.68c-0.03,-0.03 -0.04,-0.05 -0.05,-0.06c-0.22,0.36 -0.34,0.69 -0.41,1l-0.67,0.21c0.49,-0.94 0.85,-1.82 0.85,-1.82s0.47,0.51 1.01,1.26z" fill="#616161" id="svg_1514" opacity="0.2"/>
          </g>
          <path d="m178.49,139.55l-0.81,0.61c-0.27,0.12 -0.56,0.18 -0.85,0.18c-0.02,0 -0.05,0 -0.06,0c-0.02,0 -0.05,0 -0.07,0c-0.29,0 -0.58,-0.06 -0.85,-0.18l-0.8,-0.6l0.25,-0.42c0.5,0.25 1.2,0.61 1.4,0.61c0.02,0 0.04,-0.01 0.06,-0.01c0,0 0,0 0.01,0c0.02,0 0.04,0.01 0.06,0.01c0.18,0 0.82,-0.42 1.32,-0.75l0.34,0.55z" fill="#616161" id="svg_1515" opacity="0.2"/>
          <path d="m177.84,130.73c-0.47,0.05 -0.87,0.34 -1.08,0.74c-0.2,-0.4 -0.6,-0.69 -1.07,-0.74c-1.17,0.66 -2,2.36 -2,4.35c0,1.42 0.42,2.68 1.08,3.54c0,0 0.01,0.01 0.01,0.01c0,0 0,0 0,0l0,0c0.34,0.44 0.75,0.76 1.19,0.95c0.25,0.1 0.52,0.16 0.79,0.16l0,0l0,0c0.01,0 0.01,0 0.01,0l0,0c0.27,0 0.54,-0.06 0.79,-0.16c0.44,-0.19 0.85,-0.51 1.19,-0.95l0,0c0,0 0,0 0,0c0,0 0.01,-0.01 0.01,-0.01c0.66,-0.86 1.08,-2.12 1.08,-3.54c0,-1.99 -0.83,-3.69 -2,-4.35z" fill="#FDD8AB" id="svg_1516"/>
          <path d="m178.92,130.4c0,-0.51 -2.18,-2.65 -2.18,-2.65s-2.12,2.21 -2.12,2.64c0,0.71 0.58,1.3 1.3,1.3c0.24,0 0.48,-0.07 0.67,-0.19l0.36,0c0.19,0.12 0.42,0.19 0.67,0.19c0.72,0.01 1.3,-0.57 1.3,-1.29z" fill="#333333" id="svg_1517"/>
          <g id="svg_1518">
           <g id="svg_1519">
            <path d="m174.46,134.81c-0.01,0.04 -0.02,0.07 -0.02,0.11c0,0.24 0.29,0.43 0.65,0.43c0.37,0 0.66,-0.19 0.66,-0.43c0,-0.04 -0.01,-0.07 -0.02,-0.11l-1.27,0z" fill="#333333" id="svg_1520"/>
           </g>
           <g id="svg_1521">
            <path d="m179.07,134.81c0.01,0.04 0.02,0.07 0.02,0.11c0,0.24 -0.29,0.43 -0.65,0.43c-0.37,0 -0.66,-0.19 -0.66,-0.43c0,-0.04 0.01,-0.07 0.02,-0.11l1.27,0z" fill="#333333" id="svg_1522"/>
           </g>
           <g id="svg_1523">
            <path d="m177.62,138.04l-0.85,0l-0.01,0l-0.85,0c0.17,0.23 0.49,0.39 0.85,0.39l0,0l0,0c0.01,0 0.01,0 0.01,0l0,0c0.36,0 0.68,-0.16 0.85,-0.39z" fill="#454545" id="svg_1524"/>
            <path d="m176.76,138c-0.38,-0.46 -0.94,0.12 -0.94,0.12l0.94,0l0.01,0l0.94,0c0,0 -0.56,-0.58 -0.95,-0.12z" fill="#333333" id="svg_1525"/>
           </g>
           <polygon fill="#616161" id="svg_1526" opacity="0.2" points="176.766,135.542 176.766,135.527 176.764,135.535 176.764,135.527            176.764,135.542 176.27,137.117 176.764,137.117 176.766,137.117 177.259,137.117          "/>
           <polygon fill="#333333" id="svg_1527" points="177.707,133.874 179.01,133.945 179.029,133.945 179.037,133.956 179.553,134.521            178.984,134.013 179.01,134.023 177.707,134.087          "/>
           <polygon fill="#333333" id="svg_1528" points="175.936,134.087 174.633,134.023 174.66,134.013 174.087,134.521 174.604,133.956            174.615,133.945 174.63,133.945 175.933,133.874          "/>
          </g>
          <g id="svg_1529">
           <path d="m177.77,126.3c0.02,-0.08 0.02,-0.16 0.02,-0.24c-0.02,-0.55 -0.49,-0.98 -1.05,-0.99c-0.57,0 -1.06,0.44 -1.09,1.01c-0.01,0.13 0.01,0.25 0.05,0.37c-0.55,0.04 -1.03,0.51 -1.08,1.09c-0.05,0.64 0.44,1.15 1.07,1.12c0.17,0 0.76,-0.22 0.89,-0.3l-0.81,1.47l1.91,-0.11l-0.78,-1.38c0.15,0.09 0.79,0.24 0.94,0.23c0.63,-0.03 1.09,-0.58 1.04,-1.22c-0.05,-0.59 -0.54,-1.05 -1.11,-1.05z" fill="#616161" id="svg_1530" opacity="0.2"/>
           <path d="m177.69,126.33c0.02,-0.08 0.03,-0.15 0.03,-0.23c0,-0.57 -0.46,-1.03 -1.02,-1.03c-0.57,0 -1.03,0.46 -1.03,1.02c0,0.12 0.02,0.24 0.06,0.35c-0.5,0.03 -0.89,0.45 -0.9,0.96c0,0.53 0.43,0.97 0.97,0.97c0.14,0 0.64,-0.15 0.75,-0.22l-0.66,1.12l1.6,0.01l-0.65,-1.13c0.13,0.08 0.69,0.23 0.82,0.23c0.57,0 1.03,-0.46 1.03,-1.02c0.01,-0.56 -0.44,-1.02 -1,-1.03z" fill="#FFD675" id="svg_1531"/>
           <path d="m176.7,128.33l0.42,0.74l-0.85,-0.01l0.43,-0.73zm-0.9,-0.17c-0.42,0 -0.75,-0.35 -0.75,-0.76c0,-0.39 0.31,-0.72 0.69,-0.75l0.29,-0.02l-0.1,-0.26c-0.03,-0.09 -0.05,-0.18 -0.05,-0.28c0.01,-0.44 0.37,-0.8 0.82,-0.8c0.22,0 0.42,0.08 0.57,0.24c0.15,0.15 0.24,0.36 0.23,0.57c0.01,0.06 0,0.11 -0.02,0.19l-0.05,0.25l0.26,0.01c0.44,0 0.79,0.37 0.79,0.81c0,0.21 -0.08,0.42 -0.24,0.57c-0.15,0.15 -0.35,0.24 -0.57,0.23c-0.11,0 -0.62,-0.13 -0.72,-0.19l-0.1,0.1l-0.4,-0.1c-0.09,0.05 -0.55,0.19 -0.65,0.19z" fill="#616161" id="svg_1532" opacity="0.2"/>
          </g>
         </g>
        </g>
        <path d="m177.66,130.76c0.06,-0.02 0.12,-0.03 0.18,-0.03c-0.06,0 -0.12,0.01 -0.18,0.03z" fill="#616161" id="svg_1533" opacity="0.2"/>
        <path d="m177.2,130.97c0.01,-0.01 0.02,-0.01 0.02,-0.02c0,0.01 -0.01,0.01 -0.02,0.02z" fill="#616161" id="svg_1534" opacity="0.2"/>
        <path d="m177.35,130.88c0.01,-0.01 0.02,-0.01 0.03,-0.02c-0.01,0.01 -0.02,0.01 -0.03,0.02z" fill="#616161" id="svg_1535" opacity="0.2"/>
        <path d="m177.5,130.81c0.02,-0.01 0.04,-0.01 0.06,-0.02c-0.02,0.01 -0.04,0.01 -0.06,0.02z" fill="#616161" id="svg_1536" opacity="0.2"/>
       </g>
       <path d="m184.15,142.76c-0.08,-0.11 -0.15,-0.21 -0.22,-0.31c-0.04,-0.05 -0.08,-0.1 -0.12,-0.15c-0.03,-0.04 -0.07,-0.08 -0.1,-0.11l0,-0.01c0,0 0,0 0,0l0,0c0.46,-0.64 0.69,-1.27 0.77,-1.87c0.03,-0.19 0.04,-0.37 0.04,-0.55c0,-0.98 -0.36,-1.83 -0.68,-2.39c0.54,-0.69 0.86,-1.55 0.86,-2.49c0,-2.21 -1.77,-3.99 -3.97,-4.03c0.07,-0.29 0.11,-0.59 0.1,-0.9c0,-0.22 -0.01,-0.45 -0.05,-0.66c-0.04,-0.23 -0.09,-0.45 -0.17,-0.66c-0.44,-1.27 -1.5,-2.26 -2.82,-2.59c-0.03,-0.54 -0.49,-0.97 -1.05,-0.97c-0.01,0 -0.01,0 -0.02,0l0,22.83l0.05,-0.02l4.33,-1.3l0,0.01l0.67,-0.21l0,0l0.01,0c0.06,-0.27 0.17,-0.57 0.34,-0.88c0.03,-0.04 0.04,-0.07 0.07,-0.11c0,0 0,-0.01 0,-0.01c0,0 0,0.01 0,0.01c0.01,0 0.02,0.02 0.04,0.05c0.08,0.11 0.23,0.35 0.43,0.68l0.04,-0.01l0.03,-0.01l0.24,-0.07l2.5,-0.75c-0.39,-1.03 -0.87,-1.86 -1.32,-2.52z" fill="#616161" id="svg_1537" opacity="0.2"/>
      </g>
      <g id="svg_1538">
       <g id="svg_1539">
        <g id="svg_1540">
         <g id="svg_1541">
          <polygon fill="#C9C9C9" id="svg_1542" points="169.265,161.419 169.324,160.58 169.364,160.069 169.519,157.884 169.558,157.371           169.605,156.672 169.605,156.67 169.652,156.025 170.151,156.014 170.388,156.011 170.876,155.999 171.153,155.993           171.49,155.987 172.086,155.975 172.748,155.96 175.859,155.895 175.867,155.895 178.976,155.96 179.638,155.975           180.236,155.987 180.571,155.993 180.851,155.999 181.093,156.005 181.338,156.011 181.573,156.014 182.071,156.025           182.119,156.67 182.119,156.672 182.169,157.371 182.206,157.884 182.361,160.069 182.401,160.58 182.459,161.419                   "/>
          <path d="m169.81,159.85c0.59,-0.63 2.35,-1.24 3.88,-1.24l0.01,0c0.34,-0.43 0.73,-0.75 1.16,-0.94c0.28,-0.11 0.57,-0.18 0.86,-0.18c0.02,0 0.04,0.01 0.06,0.01c0,0 0,0 0,0l0,3.92l-5.97,-1.57z" fill="#616161" id="svg_1543" opacity="0.2"/>
          <g id="svg_1544">
           <path d="m167.16,152.81l2.5,-0.75l0.23,-0.07l0.07,-0.01c0.2,0.32 0.36,0.57 0.43,0.67c0.02,0.04 0.03,0.06 0.04,0.06c0.01,0 0.01,-0.02 0.02,-0.02c0.21,-0.35 0.33,-0.68 0.4,-0.98l0.67,-0.2l4.34,-1.3l2.71,-0.81l0.9,-0.27c0.03,0.11 0.07,0.22 0.12,0.35c1.56,0.67 0.85,1.74 1.61,3.09c0.03,0.05 0.06,0.09 0.09,0.14c0.09,-0.11 1.86,-2.81 2.16,-4.77l0.22,-0.06l1.76,-0.52l0.04,0c0.03,3.85 -1.14,6.42 -2.22,7.97c-0.08,0.11 -0.15,0.22 -0.23,0.31c-0.07,0.09 -0.14,0.19 -0.21,0.27l-0.01,0c0,0.01 0,0.01 0,0.01c-0.05,0.06 -0.1,0.13 -0.16,0.18c-0.02,0.03 -0.04,0.06 -0.06,0.09c-0.03,0.03 -0.06,0.06 -0.09,0.09c-0.13,0.15 -0.26,0.28 -0.37,0.39l0,0c-0.04,0.03 -0.06,0.06 -0.09,0.09c-0.03,0.02 -0.05,0.05 -0.08,0.07c-0.02,0.02 -0.05,0.04 -0.07,0.07c-0.05,0.04 -0.09,0.08 -0.14,0.11c-0.17,0.15 -0.28,0.22 -0.28,0.22l-0.4,-0.09l-0.07,-0.02l-0.16,-0.05l-0.05,0l-0.56,0.02l-0.88,0.03l-0.92,0.04l-2.55,0.1l-0.01,0l-2.6,-0.1l-0.88,-0.04l-0.87,-0.03l-0.57,-0.02l-0.05,0l-0.15,0.05l-0.08,0.02l-0.4,0.09c0,0 -0.11,-0.07 -0.28,-0.22c-0.04,-0.03 -0.08,-0.07 -0.14,-0.11c-0.02,-0.02 -0.04,-0.05 -0.07,-0.07c-0.02,-0.02 -0.05,-0.05 -0.08,-0.07l-0.08,-0.09l0,0c-0.03,-0.02 -0.06,-0.05 -0.09,-0.08c-0.03,-0.03 -0.06,-0.06 -0.09,-0.1c-0.06,-0.06 -0.13,-0.12 -0.19,-0.21c-0.04,-0.03 -0.08,-0.07 -0.11,-0.12c-0.01,0 -0.02,-0.01 -0.02,-0.02c-0.01,-0.02 -0.02,-0.02 -0.03,-0.03c-0.05,-0.06 -0.1,-0.13 -0.16,-0.19c0,0 0,0 0,-0.01l0,0c-0.07,-0.08 -0.14,-0.18 -0.22,-0.27c-0.07,-0.09 -0.14,-0.2 -0.22,-0.3c-0.46,-0.66 -0.93,-1.5 -1.32,-2.53z" fill="#FDD8AB" id="svg_1545"/>
           <path d="m175.87,154.44l-0.58,0l0.26,-2.06c0.1,0 0.21,-0.01 0.32,-0.01l0,2.07z" fill="#616161" id="svg_1546" opacity="0.2"/>
          </g>
          <g id="svg_1547">
           <g id="svg_1548">
            <path d="m175.86,161.42l6.33,-0.93c-0.99,-1.39 -2.7,-1.88 -4.23,-1.88l-0.02,0c-0.55,-0.69 -1.25,-1.12 -2.02,-1.12c-0.02,0 -0.04,0.01 -0.06,0.01l0,3.92z" fill="#616161" id="svg_1549" opacity="0.2"/>
            <path d="m175.86,154.44l0.57,0l-0.25,-2.06c-0.11,0 -0.21,-0.01 -0.32,-0.01l0,2.07z" fill="#616161" id="svg_1550" opacity="0.2"/>
           </g>
           <path d="m177.95,152.71c2.9,0.64 4.48,1.62 5.3,2.62c-0.6,0.86 -1.18,1.41 -1.5,1.69l-3.8,-4.31z" fill="#616161" id="svg_1551" opacity="0.2"/>
           <g id="svg_1552">
            <path d="m175.86,158.35c0.02,0 0.04,0 0.06,0c0.29,0 0.57,0.06 0.83,0.17c0.02,-0.07 0.03,-0.14 0.03,-0.22l0,-0.37c-0.27,-0.11 -0.56,-0.18 -0.86,-0.18c-0.02,0 -0.04,0.01 -0.06,0.01l0,0.59z" fill="#FDD8AB" id="svg_1553"/>
            <path d="m175.86,159.19c0.01,0 0.02,0 0.03,0c0.42,0 0.77,-0.29 0.86,-0.68c-0.26,-0.11 -0.54,-0.17 -0.83,-0.17c-0.02,0 -0.04,0.01 -0.06,0.01l0,0.84z" fill="#FDD8AB" id="svg_1554"/>
           </g>
           <path d="m170.77,157.34l1.54,0.02l2.64,0.03l0,0.54c0.27,-0.12 0.56,-0.18 0.85,-0.18c0.02,0 0.04,0 0.06,0l0,0l0,0c0,0 0,0 0,0l0,0c0.02,0 0.04,0 0.06,0c0.3,0 0.59,0.06 0.86,0.18l0,-0.54l2.64,-0.03l1.54,-0.02c0.27,-0.47 0.15,-0.52 0.15,-1.06c0,-1.35 -0.93,-2.53 -2.34,-3.24c-0.01,0 -0.01,-0.01 -0.02,-0.01c-0.25,-0.12 -0.52,-0.23 -0.8,-0.32c-0.55,-0.18 -1.15,-0.29 -1.77,-0.33c-0.04,0 -0.07,0 -0.1,0c-0.07,-0.01 -0.14,-0.01 -0.21,-0.01l0,0c0,0 0,0 -0.01,0l0,0l0,0c-0.07,0 -0.14,0 -0.21,0.01c-0.03,0 -0.07,0 -0.1,0c-0.63,0.04 -1.23,0.15 -1.77,0.33c-0.28,0.09 -0.55,0.2 -0.81,0.32c0,0.01 0,0.01 -0.01,0.01c-1.42,0.71 -2.34,1.89 -2.34,3.24c0,0.54 -0.12,0.59 0.15,1.06z" fill="#FDD8AB" id="svg_1555"/>
           <g id="svg_1556">
            <path d="m177.95,152.71c0.28,0.11 0.55,0.21 0.8,0.32c0.01,0.01 0.01,0.01 0.02,0.01c1.41,0.71 2.34,1.89 2.34,3.24c0,0.54 0.12,0.59 -0.15,1.06l-1.54,0.02l-1.47,-4.65z" fill="#616161" id="svg_1557" opacity="0.2"/>
            <path d="m173.78,152.71c-0.29,0.11 -0.55,0.21 -0.81,0.32c0,0.01 0,0.01 -0.01,0.01c-1.41,0.71 -2.34,1.89 -2.34,3.24c0,0.54 -0.12,0.59 0.15,1.06l1.54,0.02l1.47,-4.65z" fill="#616161" id="svg_1558" opacity="0.2"/>
           </g>
           <path d="m175.87,158.35c-0.03,0 -0.05,0 -0.07,0c-0.28,0 -0.56,0.06 -0.82,0.17c-0.02,-0.07 -0.03,-0.14 -0.03,-0.22l0,-0.37c0.27,-0.11 0.56,-0.18 0.85,-0.18c0.02,0 0.04,0.01 0.07,0.01l0,0.59z" fill="#FDD8AB" id="svg_1559"/>
           <path d="m175.87,159.19c-0.02,0 -0.03,0 -0.04,0c-0.41,0 -0.76,-0.29 -0.85,-0.68c0.26,-0.11 0.54,-0.17 0.82,-0.17c0.02,0 0.04,0.01 0.07,0.01l0,0.84z" fill="#FDD8AB" id="svg_1560"/>
          </g>
          <path d="m167.16,152.81l2.5,-0.75l0.23,-0.07l0.07,-0.01c0.2,0.32 0.36,0.57 0.43,0.67c0.02,0.04 0.03,0.06 0.04,0.06c0.01,0 0.01,-0.02 0.02,-0.02c0.21,-0.35 0.33,-0.68 0.4,-0.98l0.67,-0.2l4.34,-1.3l2.71,-0.81l0.9,-0.27c0.03,0.11 0.07,0.22 0.12,0.35c1.56,0.67 0.85,1.74 1.61,3.09c0.03,0.05 0.06,0.09 0.09,0.14c0.09,-0.11 1.86,-2.81 2.16,-4.77l0.22,-0.06l1.76,-0.52l0.04,0c0.03,3.85 -1.14,6.42 -2.22,7.97c-0.08,0.11 -0.15,0.22 -0.23,0.31c-0.07,0.09 -0.14,0.19 -0.21,0.27l-0.01,0c0,0.01 0,0.01 0,0.01c-0.05,0.06 -0.1,0.13 -0.16,0.18c-0.01,0.01 -0.02,0.02 -0.02,0.03c-0.02,0.02 -0.03,0.04 -0.04,0.06l-2.02,-1.77l-0.31,-0.27l-0.1,0.16c-0.27,-0.06 -0.55,-0.1 -0.84,-0.1c-0.56,0 -2.55,0.62 -2.98,0.88l-1.12,0c-0.52,-0.31 -2.72,-0.87 -3.25,-0.87c-0.18,0 -0.36,0.01 -0.53,0.04l-0.21,-0.34l-0.45,0.48l-1.65,1.76c0,-0.01 -0.01,-0.01 -0.02,-0.02c-0.01,-0.02 -0.01,-0.02 -0.02,-0.03c-0.06,-0.06 -0.11,-0.13 -0.16,-0.19c0,0 -0.01,0 -0.01,-0.01l0,0c-0.03,-0.05 -0.07,-0.1 -0.12,-0.15c-0.03,-0.04 -0.06,-0.08 -0.09,-0.12c-0.07,-0.09 -0.15,-0.19 -0.22,-0.3c-0.46,-0.66 -0.93,-1.5 -1.32,-2.53z" fill="#333333" id="svg_1561"/>
          <path d="m168.48,155.33c0.82,-1 2.4,-1.98 5.3,-2.62l-1.58,1.79l-0.09,0.1l-1.23,1.4l-0.26,0.29l-0.64,0.72c-0.04,-0.03 -0.09,-0.07 -0.13,-0.11c-0.03,-0.02 -0.05,-0.05 -0.08,-0.07c-0.03,-0.02 -0.05,-0.05 -0.08,-0.07c-0.03,-0.03 -0.05,-0.06 -0.08,-0.09l-0.01,0l0,0c-0.02,-0.02 -0.05,-0.05 -0.08,-0.08c-0.03,-0.03 -0.06,-0.06 -0.09,-0.09c-0.07,-0.07 -0.13,-0.14 -0.2,-0.21c-0.04,-0.05 -0.08,-0.1 -0.13,-0.15c-0.01,-0.01 -0.02,-0.02 -0.02,-0.03c-0.05,-0.06 -0.11,-0.12 -0.16,-0.19c0,0 0,0 0,0l-0.01,0l0,-0.01c-0.07,-0.08 -0.13,-0.17 -0.21,-0.27c-0.07,-0.1 -0.15,-0.2 -0.22,-0.31z" fill="#616161" id="svg_1562" opacity="0.2"/>
          <path d="m168.1,158.33c0,-0.18 0.01,-0.36 0.04,-0.55c0.09,-0.6 0.32,-1.23 0.77,-1.87l0,0c0.44,-0.61 1.08,-1.22 2,-1.8c0.05,-0.04 0.11,-0.08 0.17,-0.11c0.53,-0.33 1.16,-0.65 1.88,-0.96c0.01,-0.01 0.03,-0.01 0.04,-0.02c0.02,-0.01 0.03,-0.01 0.04,-0.01c0.04,-0.02 0.09,-0.04 0.13,-0.06c0.13,-0.05 0.27,-0.11 0.4,-0.16c0.07,-0.03 0.14,-0.05 0.21,-0.08l-1.69,3.26l-0.58,1.12l-0.13,0.25l-2.11,4.08c-0.01,0 -1.17,-1.33 -1.17,-3.09z" fill="#EBEBEB" id="svg_1563"/>
          <path d="m177.95,152.71c1.08,0.41 1.97,0.84 2.7,1.29c0.05,0.04 0.11,0.07 0.17,0.11c1.87,1.2 2.6,2.51 2.76,3.67c0.03,0.19 0.04,0.37 0.04,0.55c0,1.76 -1.16,3.09 -1.16,3.09l-4.51,-8.71z" fill="#EBEBEB" id="svg_1564"/>
          <g id="svg_1565">
           <polygon fill="#333333" id="svg_1566" points="181.742,156.238 181.199,155.513 181.444,156.386          "/>
           <polygon fill="#333333" id="svg_1567" points="179.856,154.482 179.313,153.757 179.561,154.63          "/>
           <polygon fill="#333333" id="svg_1568" points="182.733,160.56 182.188,159.836 182.433,160.708          "/>
           <polygon fill="#333333" id="svg_1569" points="182.013,159.04 181.47,158.318 181.715,159.189          "/>
           <polygon fill="#333333" id="svg_1570" points="181.296,157.521 180.75,156.797 180.998,157.669          "/>
           <polygon fill="#333333" id="svg_1571" points="180.576,156.001 180.033,155.278 180.278,156.148          "/>
           <path d="m180.65,154c0.05,0.03 0.11,0.07 0.17,0.11l0.31,0.42l-0.3,0.15l-0.18,-0.68z" fill="#333333" id="svg_1572"/>
           <polygon fill="#333333" id="svg_1573" points="183.179,159.277 182.636,158.555 182.881,159.425          "/>
           <polygon fill="#333333" id="svg_1574" points="182.459,157.759 181.916,157.035 182.164,157.906          "/>
           <path d="m183.35,157.47l0.23,0.31c0.03,0.19 0.04,0.37 0.04,0.55l-0.02,0.01l-0.25,-0.87z" fill="#333333" id="svg_1575"/>
           <polygon fill="#333333" id="svg_1576" points="182.86,156.391 182.316,155.669 182.562,156.539          "/>
          </g>
          <g id="svg_1577">
           <polygon fill="#333333" id="svg_1578" points="169.983,156.238 170.528,155.513 170.283,156.386          "/>
           <polygon fill="#333333" id="svg_1579" points="171.867,154.482 172.411,153.757 172.165,154.63          "/>
           <polygon fill="#333333" id="svg_1580" points="168.992,160.56 169.537,159.836 169.29,160.708          "/>
           <polygon fill="#333333" id="svg_1581" points="169.71,159.04 170.256,158.318 170.008,159.189          "/>
           <polygon fill="#333333" id="svg_1582" points="170.43,157.521 170.974,156.797 170.728,157.669          "/>
           <polygon fill="#333333" id="svg_1583" points="171.15,156.001 171.693,155.278 171.445,156.148          "/>
           <path d="m171.15,154.34c-0.06,0.03 -0.5,0.43 -0.5,0.43l0.3,0.15l0.2,-0.58z" fill="#333333" id="svg_1584"/>
           <polygon fill="#333333" id="svg_1585" points="168.546,159.277 169.089,158.555 168.843,159.425          "/>
           <polygon fill="#333333" id="svg_1586" points="169.264,157.759 169.808,157.035 169.563,157.906          "/>
           <path d="m168.1,158.33c0,-0.18 0.01,-0.36 0.04,-0.55l0.24,-0.31l-0.25,0.87l-0.03,-0.01z" fill="#333333" id="svg_1587"/>
           <polygon fill="#333333" id="svg_1588" points="168.864,156.391 169.409,155.669 169.164,156.539          "/>
          </g>
         </g>
         <path d="m176.47,160.37l0.38,-0.63c0.78,0 1.47,0 1.88,0c-0.83,0 -1.61,0.22 -2.26,0.63z" fill="#333333" id="svg_1589"/>
         <path d="m173.13,159.73c0.41,0 1.04,0 1.75,0.01l0.4,0.63c-0.63,-0.38 -1.36,-0.62 -2.15,-0.64z" fill="#333333" id="svg_1590"/>
         <path d="m173.02,159.73c0.02,0 0.04,0 0.06,0c-0.49,0 -0.61,0 -0.06,0z" fill="#333333" id="svg_1591"/>
         <g id="svg_1592">
          <path d="m167.93,163.22c-0.01,-2.23 1.8,-4.04 4.03,-4.04c0.53,0 2.73,0.56 3.25,0.87l1.12,0c0.43,-0.25 2.42,-0.87 2.98,-0.87c2.11,0 3.81,1.7 3.82,3.8c-0.01,2.01 -1.55,3.65 -3.52,3.8c0.16,0.43 0.25,0.88 0.25,1.36c0,0.19 -0.01,0.38 -0.04,0.57l0,0c-0.03,0.22 -0.08,0.43 -0.14,0.64l0,0c-0.52,1.63 -2.05,2.81 -3.85,2.82c-1.77,0 -3.27,-1.13 -3.81,-2.71c-0.08,-0.21 -0.14,-0.43 -0.17,-0.66c-0.04,-0.21 -0.06,-0.43 -0.06,-0.66c0,-0.31 0.04,-0.6 0.11,-0.9c-2.2,-0.03 -3.97,-1.82 -3.97,-4.02z" fill="#333333" id="svg_1593"/>
          <g id="svg_1594">
           <path d="m178.57,149.4l0.9,-0.27c0.04,0.11 0.07,0.23 0.12,0.34c1.62,0.7 0.8,1.82 1.7,3.24c0.1,-0.11 1.86,-2.81 2.17,-4.77l0.21,-0.06c0.47,2.03 -2.61,5.45 -2.61,5.45s-1.38,-3.41 -2.49,-3.93z" fill="#616161" id="svg_1595" opacity="0.2"/>
           <path d="m169.66,152.06l0.23,-0.07l0.08,-0.02c0.19,0.33 0.35,0.57 0.42,0.68c0.03,0.03 0.04,0.05 0.05,0.06c0.22,-0.36 0.34,-0.69 0.41,-1l0.67,-0.2c-0.5,0.93 -0.85,1.82 -0.85,1.82s-0.47,-0.52 -1.01,-1.27z" fill="#616161" id="svg_1596" opacity="0.2"/>
          </g>
          <path d="m174.13,158.54l0.82,-0.61c0.27,-0.12 0.56,-0.18 0.85,-0.18c0.02,0 0.04,0 0.06,0c0.02,0 0.05,0 0.06,0c0.3,0 0.58,0.06 0.86,0.18l0.8,0.61l-0.25,0.42c-0.5,-0.25 -1.21,-0.61 -1.41,-0.61c-0.01,0 -0.04,0 -0.05,0c0,0 0,0 -0.01,0c-0.02,0 -0.04,0 -0.06,0c-0.18,0 -0.82,0.42 -1.32,0.75l-0.35,-0.56z" fill="#616161" id="svg_1597" opacity="0.2"/>
          <path d="m174.79,167.37c0.47,-0.06 0.87,-0.34 1.07,-0.75c0.2,0.41 0.6,0.7 1.08,0.75c1.17,-0.67 2,-2.37 2,-4.36c0,-1.41 -0.42,-2.68 -1.08,-3.53c-0.01,-0.01 -0.01,-0.01 -0.01,-0.02c0,0 0,0 -0.01,0l0,0c-0.34,-0.44 -0.74,-0.76 -1.18,-0.95c-0.25,-0.1 -0.52,-0.16 -0.8,-0.16l0,0c0,0 0,0 0,0l0,0l0,0c-0.28,0 -0.54,0.06 -0.79,0.16c-0.45,0.19 -0.85,0.51 -1.19,0.95l0,0c0,0 0,0 0,0c-0.01,0 -0.01,0.01 -0.01,0.02c-0.66,0.85 -1.09,2.12 -1.09,3.53c0,1.99 0.84,3.69 2.01,4.36z" fill="#FDD8AB" id="svg_1598"/>
          <path d="m173.71,167.7c-0.01,0.5 2.17,2.64 2.17,2.64s2.12,-2.21 2.12,-2.63c0.01,-0.72 -0.58,-1.31 -1.3,-1.31c-0.24,0 -0.47,0.07 -0.66,0.19l-0.36,0c-0.19,-0.12 -0.42,-0.19 -0.67,-0.19c-0.72,0 -1.3,0.58 -1.3,1.3z" fill="#333333" id="svg_1599"/>
          <g id="svg_1600">
           <g id="svg_1601">
            <path d="m178.17,163.28c0.01,-0.04 0.02,-0.07 0.02,-0.11c0,-0.24 -0.3,-0.43 -0.66,-0.43c-0.36,0 -0.65,0.19 -0.65,0.43c0,0.04 0,0.07 0.02,0.11l1.27,0z" fill="#333333" id="svg_1602"/>
           </g>
           <g id="svg_1603">
            <path d="m173.56,163.28c-0.02,-0.04 -0.02,-0.07 -0.02,-0.11c0,-0.24 0.29,-0.43 0.65,-0.43c0.36,0 0.66,0.19 0.66,0.43c0,0.04 -0.01,0.07 -0.02,0.11l-1.27,0z" fill="#333333" id="svg_1604"/>
           </g>
           <g id="svg_1605">
            <path d="m175.01,160.05l0.85,0l0.01,0l0.85,0c-0.17,-0.23 -0.49,-0.38 -0.85,-0.39l0,0c0,0 0,0 -0.01,0l0,0l0,0c-0.36,0.01 -0.68,0.16 -0.85,0.39z" fill="#454545" id="svg_1606"/>
            <path d="m175.86,160.09c0.39,0.46 0.95,-0.12 0.95,-0.12l-0.95,0l0,0l-0.94,0c0,0 0.55,0.58 0.94,0.12z" fill="#333333" id="svg_1607"/>
           </g>
           <polygon fill="#616161" id="svg_1608" opacity="0.2" points="175.862,162.55 175.862,162.565 175.862,162.556 175.865,162.565            175.865,162.55 176.357,160.976 175.865,160.976 175.862,160.976 175.366,160.976          "/>
           <polygon fill="#333333" id="svg_1609" points="174.92,164.217 173.618,164.148 173.6,164.146 173.589,164.135 173.075,163.571            173.645,164.08 173.618,164.068 174.92,164.005          "/>
           <polygon fill="#333333" id="svg_1610" points="176.692,164.005 177.995,164.068 177.969,164.08 178.541,163.571 178.024,164.135            178.014,164.146 177.995,164.148 176.692,164.217          "/>
          </g>
          <g id="svg_1611">
           <path d="m174.85,171.8c-0.01,0.07 -0.02,0.15 -0.01,0.23c0.01,0.55 0.48,0.99 1.05,0.99c0.57,0 1.06,-0.44 1.09,-1.01c0.01,-0.13 -0.01,-0.25 -0.05,-0.36c0.55,-0.05 1.03,-0.51 1.07,-1.1c0.05,-0.63 -0.43,-1.15 -1.06,-1.12c-0.17,0 -0.77,0.22 -0.89,0.3l0.81,-1.47l-1.91,0.11l0.77,1.38c-0.15,-0.09 -0.78,-0.24 -0.93,-0.23c-0.63,0.03 -1.09,0.58 -1.04,1.22c0.04,0.59 0.53,1.05 1.1,1.06z" fill="#616161" id="svg_1612" opacity="0.2"/>
           <path d="m174.94,171.76c-0.02,0.08 -0.03,0.15 -0.03,0.23c0,0.57 0.46,1.03 1.02,1.03c0.57,0 1.03,-0.46 1.03,-1.02c0,-0.12 -0.02,-0.24 -0.06,-0.35c0.5,-0.03 0.89,-0.45 0.89,-0.96c0.01,-0.53 -0.43,-0.97 -0.96,-0.97c-0.14,0 -0.65,0.16 -0.76,0.22l0.66,-1.12l-1.6,-0.01l0.66,1.13c-0.13,-0.08 -0.69,-0.23 -0.83,-0.23c-0.56,0 -1.03,0.46 -1.03,1.02c0,0.56 0.45,1.02 1.01,1.03z" fill="#FFD675" id="svg_1613"/>
           <path d="m175.93,169.76l-0.42,-0.73l0.85,0l-0.43,0.73zm0.9,0.18c0.42,0 0.75,0.34 0.75,0.75c0,0.39 -0.31,0.72 -0.7,0.75l-0.28,0.02l0.1,0.27c0.03,0.08 0.05,0.18 0.05,0.27c-0.01,0.44 -0.37,0.81 -0.82,0.81c-0.21,0 -0.42,-0.09 -0.57,-0.25c-0.15,-0.15 -0.23,-0.35 -0.23,-0.57c0,-0.05 0,-0.11 0.02,-0.18l0.05,-0.26l-0.26,0c-0.44,-0.01 -0.79,-0.37 -0.79,-0.81c0,-0.22 0.08,-0.42 0.24,-0.58c0.15,-0.15 0.35,-0.23 0.57,-0.23c0.11,0 0.62,0.13 0.72,0.19l0.1,-0.09l0.4,0.09c0.09,-0.05 0.55,-0.18 0.65,-0.18z" fill="#616161" id="svg_1614" opacity="0.2"/>
          </g>
         </g>
        </g>
        <path d="m174.96,167.34c-0.05,0.01 -0.11,0.02 -0.17,0.03c0.06,-0.01 0.12,-0.02 0.17,-0.03z" fill="#616161" id="svg_1615" opacity="0.2"/>
        <path d="m175.42,167.13c0,0 -0.01,0.01 -0.02,0.01c0.01,0 0.02,-0.01 0.02,-0.01z" fill="#616161" id="svg_1616" opacity="0.2"/>
        <path d="m175.28,167.22c-0.01,0 -0.02,0 -0.03,0.01c0.01,-0.01 0.02,-0.01 0.03,-0.01z" fill="#616161" id="svg_1617" opacity="0.2"/>
        <path d="m175.13,167.28c-0.02,0.01 -0.04,0.02 -0.06,0.02c0.02,0 0.04,-0.01 0.06,-0.02z" fill="#616161" id="svg_1618" opacity="0.2"/>
       </g>
       <path d="m168.47,155.33c0.08,0.11 0.16,0.22 0.23,0.31c0.04,0.05 0.08,0.1 0.12,0.15c0.03,0.04 0.06,0.08 0.09,0.12l0,0c0,0 0,0 0,0l0,0c-0.45,0.64 -0.68,1.28 -0.77,1.87c-0.03,0.19 -0.04,0.37 -0.04,0.55c0,0.98 0.37,1.84 0.69,2.39c-0.54,0.69 -0.86,1.56 -0.86,2.5c0,2.2 1.77,3.99 3.97,4.02c-0.07,0.3 -0.11,0.59 -0.11,0.9c0,0.23 0.02,0.45 0.06,0.66c0.03,0.23 0.09,0.45 0.17,0.66c0.44,1.27 1.5,2.26 2.82,2.59c0.03,0.54 0.49,0.97 1.05,0.97c0.01,0 0.01,0 0.02,0l0,-22.83l-0.05,0.02l-4.34,1.3l0,0l-0.67,0.2c0,0 0,0 0,0l0,0c-0.07,0.27 -0.17,0.57 -0.35,0.88c-0.02,0.04 -0.04,0.07 -0.06,0.11c0,0 0,0.01 -0.01,0.01c0,0 0,0 0,0c-0.01,-0.01 -0.02,-0.03 -0.04,-0.06c-0.07,-0.11 -0.23,-0.35 -0.42,-0.68l-0.04,0.02l-0.04,0l-0.23,0.08l-2.51,0.74c0.4,1.03 0.87,1.87 1.32,2.52z" fill="#616161" id="svg_1619" opacity="0.2"/>
      </g>
     </g>
    </g>
   </g>
   <g id="svg_1620">
    <path d="m164.38,132.01c0.02,-0.08 0.03,-0.16 0.03,-0.25c0,-0.61 -0.5,-1.11 -1.11,-1.11c-0.61,0.01 -1.11,0.5 -1.11,1.11c0,0.13 0.02,0.26 0.07,0.38c-0.54,0.04 -0.97,0.49 -0.97,1.04c0,0.58 0.47,1.05 1.05,1.05c0.15,0 0.7,-0.17 0.82,-0.24l-0.71,1.22l1.73,-0.01l-0.71,-1.21c0.14,0.08 0.74,0.24 0.89,0.24c0.62,0 1.11,-0.5 1.11,-1.11c0,-0.61 -0.48,-1.1 -1.09,-1.11z" fill="#333333" id="svg_1621"/>
    <path d="m164.38,132.01c0.02,-0.08 0.03,-0.16 0.03,-0.25c0,-0.61 -0.5,-1.11 -1.11,-1.11c0,0 0,0 -0.01,0l0,4.56l0.89,-0.01l-0.71,-1.21c0.14,0.08 0.75,0.24 0.89,0.24c0.62,0 1.11,-0.5 1.11,-1.11c0,-0.61 -0.48,-1.1 -1.09,-1.11z" fill="#616161" id="svg_1622" opacity="0.2"/>
   </g>
   <g id="svg_1623">
    <path d="m190.5,165.19c-0.01,0.08 -0.03,0.17 -0.03,0.25c0,0.61 0.5,1.11 1.11,1.11c0.62,0 1.11,-0.5 1.11,-1.11c0,-0.13 -0.02,-0.26 -0.06,-0.37c0.54,-0.05 0.96,-0.5 0.96,-1.05c0,-0.58 -0.47,-1.05 -1.05,-1.05c-0.15,0 -0.7,0.17 -0.82,0.24l0.71,-1.21l-1.73,0l0.71,1.21c-0.14,-0.08 -0.74,-0.23 -0.89,-0.23c-0.61,0 -1.11,0.49 -1.11,1.11c0,0.6 0.49,1.09 1.09,1.1z" fill="#333333" id="svg_1624"/>
    <path d="m190.5,165.19c-0.01,0.08 -0.03,0.17 -0.03,0.25c0,0.61 0.5,1.11 1.11,1.11c0,0 0,0 0.01,0l0,-4.55l-0.89,0l0.71,1.21c-0.14,-0.08 -0.74,-0.23 -0.89,-0.24c-0.62,0 -1.11,0.5 -1.11,1.11c0,0.61 0.49,1.1 1.09,1.11z" fill="#616161" id="svg_1625" opacity="0.2"/>
   </g>
  </g>
 </g>

</svg>