<?xml version="1.0"?>
<svg width="40" height="56" xmlns="http://www.w3.org/2000/svg" xmlns:svg="http://www.w3.org/2000/svg" enable-background="new 0 0 450 450" version="1.1" xml:space="preserve">
 <g class="layer">
  <title>Layer 1</title>
  <g id="svg_1785" transform="translate(0.0312367, 0.0451028) scale(1) translate(-0.0312367, -0.0451028) translate(-8.71413, 0.10627) matrix(1, 0, 0, 1, -50.0784, -253.145)">
   <g id="svg_1786">
    <g id="svg_1787">
     <path d="m63.33,308.9c-2.35,0 -4.27,-1.87 -4.28,-4.19l-0.12,-47.3c0,-2.33 1.91,-4.22 4.27,-4.22l31.27,0.06c2.35,0 4.26,1.9 4.26,4.22l0,47.2c0,2.31 -1.9,4.19 -4.25,4.19l-31.15,0.04z" fill="#C9C9C9" id="svg_1788"/>
    </g>
    <path d="m63.72,308.78c-2.32,0 -4.21,-1.88 -4.21,-4.2l0,-47.19c0,-2.31 1.89,-4.2 4.21,-4.2l30.81,0c2.32,0 4.21,1.89 4.21,4.2l0,47.19c0,2.32 -1.89,4.2 -4.21,4.2l-30.81,0z" fill="#FFFFFF" id="svg_1789"/>
    <g id="svg_1790">
     <path d="m62.42,260.6c0,0.07 -0.13,0.19 -0.38,0.35c-0.28,0.19 -0.52,0.28 -0.72,0.28c-0.11,0 -0.2,-0.05 -0.27,-0.16c-0.04,-0.07 -0.07,-0.14 -0.07,-0.2l0,-3.18c0,-0.06 -0.01,-0.1 -0.03,-0.13c-0.02,-0.02 -0.04,-0.03 -0.08,-0.03c-0.03,0 -0.07,0.01 -0.15,0.02c-0.07,0.02 -0.13,0.02 -0.17,0.02c-0.01,-0.02 -0.02,-0.04 -0.02,-0.06c0,-0.04 0.05,-0.1 0.15,-0.16c0.09,-0.07 0.2,-0.15 0.3,-0.24c0.09,-0.07 0.17,-0.15 0.27,-0.23c0.09,-0.06 0.17,-0.1 0.23,-0.1c0.1,0 0.2,0.06 0.29,0.17c0.1,0.11 0.15,0.21 0.15,0.31l0,3.36c0.01,0.02 0.02,0.03 0.03,0.04c0.03,0.02 0.05,0.03 0.07,0.03c0.03,-0.01 0.06,-0.02 0.08,-0.03c0.05,-0.02 0.12,-0.06 0.2,-0.12l0.1,0l0.02,0.06z" fill="#333333" id="svg_1791"/>
     <path d="m66.3,259.06c0,0.24 -0.05,0.48 -0.14,0.7c-0.16,0.35 -0.43,0.67 -0.82,0.94c-0.22,0.16 -0.38,0.26 -0.48,0.31c-0.24,0.14 -0.52,0.2 -0.84,0.2c-0.47,0 -0.85,-0.2 -1.15,-0.6c-0.28,-0.39 -0.42,-0.83 -0.42,-1.34c0,-0.33 0.08,-0.67 0.25,-1.01c0.11,-0.21 0.26,-0.42 0.43,-0.62c0.22,-0.24 0.44,-0.44 0.68,-0.59c0.29,-0.18 0.58,-0.28 0.86,-0.28c0.5,0 0.91,0.25 1.22,0.74c0.27,0.43 0.41,0.95 0.41,1.55zm-0.92,0.67c0,-0.3 -0.05,-0.59 -0.13,-0.87c-0.08,-0.29 -0.2,-0.55 -0.36,-0.79c-0.17,-0.26 -0.33,-0.45 -0.49,-0.56c-0.11,-0.08 -0.21,-0.11 -0.31,-0.11c-0.23,0 -0.42,0.1 -0.56,0.32c-0.15,0.22 -0.22,0.47 -0.22,0.74c0,0.17 0.02,0.34 0.05,0.48c0.05,0.24 0.14,0.5 0.28,0.79c0.15,0.34 0.32,0.59 0.52,0.75c0.15,0.13 0.31,0.19 0.47,0.19c0.24,0 0.42,-0.08 0.55,-0.25c0.13,-0.17 0.2,-0.4 0.2,-0.69z" fill="#333333" id="svg_1792"/>
    </g>
    <g id="svg_1793">
     <path d="m96.09,301.9c0,-0.07 0.13,-0.19 0.38,-0.36c0.28,-0.18 0.52,-0.27 0.72,-0.27c0.11,0 0.2,0.05 0.26,0.15c0.05,0.08 0.08,0.15 0.08,0.21l0,3.17c0,0.07 0.01,0.11 0.03,0.13c0.01,0.03 0.04,0.04 0.08,0.04c0.02,0 0.07,-0.01 0.15,-0.03c0.07,-0.01 0.13,-0.02 0.17,-0.01c0.01,0.02 0.02,0.04 0.02,0.06c0,0.04 -0.05,0.1 -0.15,0.16c-0.1,0.07 -0.2,0.15 -0.3,0.24c-0.09,0.07 -0.17,0.15 -0.26,0.22c-0.1,0.07 -0.17,0.1 -0.24,0.1c-0.1,0 -0.2,-0.05 -0.29,-0.16c-0.1,-0.11 -0.14,-0.22 -0.14,-0.31l0,-3.36c-0.02,-0.03 -0.03,-0.04 -0.04,-0.04c-0.03,-0.03 -0.05,-0.04 -0.07,-0.04c-0.03,0.01 -0.06,0.02 -0.08,0.03c-0.05,0.03 -0.12,0.07 -0.2,0.13l-0.1,0l-0.02,-0.06z" fill="#333333" id="svg_1794"/>
     <path d="m92.21,303.44c0,-0.24 0.05,-0.48 0.14,-0.7c0.16,-0.36 0.44,-0.67 0.82,-0.94c0.22,-0.16 0.38,-0.26 0.48,-0.31c0.24,-0.14 0.52,-0.21 0.84,-0.21c0.47,0 0.85,0.21 1.15,0.61c0.28,0.38 0.42,0.82 0.42,1.34c0,0.33 -0.08,0.67 -0.25,1.01c-0.11,0.21 -0.26,0.42 -0.43,0.62c-0.22,0.24 -0.45,0.44 -0.68,0.58c-0.29,0.19 -0.58,0.28 -0.86,0.28c-0.5,0 -0.91,-0.24 -1.22,-0.73c-0.27,-0.44 -0.41,-0.96 -0.41,-1.55zm0.92,-0.67c0,0.3 0.04,0.59 0.13,0.87c0.08,0.28 0.2,0.54 0.36,0.78c0.17,0.27 0.33,0.46 0.49,0.57c0.11,0.07 0.21,0.11 0.31,0.11c0.23,0 0.42,-0.11 0.56,-0.32c0.14,-0.22 0.22,-0.47 0.22,-0.75c0,-0.17 -0.02,-0.33 -0.05,-0.48c-0.05,-0.23 -0.14,-0.49 -0.28,-0.78c-0.15,-0.34 -0.32,-0.59 -0.51,-0.75c-0.16,-0.13 -0.32,-0.19 -0.48,-0.19c-0.24,0 -0.42,0.08 -0.55,0.25c-0.13,0.17 -0.2,0.4 -0.2,0.69z" fill="#333333" id="svg_1795"/>
    </g>
   </g>
   <g id="svg_1796">
    <g id="svg_1797">
     <path d="m90.87,262.58c0,-1.01 -4.36,-5.29 -4.36,-5.29s-4.26,4.42 -4.26,5.27c0,1.44 1.16,2.61 2.6,2.61c0.5,0.01 0.96,-0.13 1.35,-0.37l-1.64,2.79l3.97,0.01l-1.62,-2.79c0.39,0.23 0.85,0.37 1.34,0.37c1.44,0.01 2.62,-1.16 2.62,-2.6z" fill="#333333" id="svg_1798"/>
     <path d="m90.87,262.58c0,-1.01 -4.36,-5.29 -4.36,-5.29s-0.01,0 -0.01,0l0,10.3l2.03,0.01l-1.62,-2.79c0.39,0.23 0.85,0.37 1.34,0.37c1.44,0.01 2.62,-1.16 2.62,-2.6z" fill="#616161" id="svg_1799" opacity="0.2"/>
    </g>
    <g id="svg_1800">
     <path d="m90.87,274.94c0,-1 -4.36,-5.29 -4.36,-5.29s-4.26,4.42 -4.26,5.27c0,1.45 1.16,2.62 2.6,2.62c0.5,0 0.96,-0.14 1.35,-0.38l-1.64,2.79l3.97,0.01l-1.62,-2.79c0.39,0.23 0.85,0.37 1.34,0.38c1.44,0 2.62,-1.17 2.62,-2.61z" fill="#333333" id="svg_1801"/>
     <path d="m90.87,274.94c0,-1 -4.36,-5.29 -4.36,-5.29s-0.01,0 -0.01,0.01l0,10.3l2.03,0l-1.62,-2.79c0.39,0.24 0.85,0.37 1.34,0.38c1.44,0 2.62,-1.17 2.62,-2.61z" fill="#616161" id="svg_1802" opacity="0.2"/>
    </g>
    <g id="svg_1803">
     <path d="m67.42,262.58c0,-1.01 4.36,-5.29 4.36,-5.29s4.26,4.42 4.26,5.27c0,1.44 -1.17,2.61 -2.61,2.61c-0.49,0.01 -0.95,-0.13 -1.34,-0.37l1.63,2.79l-3.97,0.01l1.63,-2.79c-0.39,0.23 -0.85,0.37 -1.34,0.37c-1.44,0.01 -2.62,-1.16 -2.62,-2.6z" fill="#333333" id="svg_1804"/>
     <path d="m67.42,262.58c0,-1.01 4.36,-5.29 4.36,-5.29s0.01,0 0.01,0l0,10.3l-2.04,0.01l1.63,-2.79c-0.39,0.23 -0.85,0.37 -1.34,0.37c-1.44,0.01 -2.62,-1.16 -2.62,-2.6z" fill="#616161" id="svg_1805" opacity="0.2"/>
    </g>
    <g id="svg_1806">
     <path d="m74.83,269.64c-0.01,-1 4.36,-5.29 4.36,-5.29s4.25,4.42 4.25,5.27c0,1.45 -1.16,2.62 -2.6,2.62c-0.49,0 -0.95,-0.14 -1.35,-0.37l1.64,2.78l-3.97,0.01l1.62,-2.79c-0.39,0.23 -0.84,0.37 -1.34,0.38c-1.44,0 -2.61,-1.17 -2.61,-2.61z" fill="#333333" id="svg_1807"/>
     <path d="m74.83,269.64c-0.01,-1 4.36,-5.29 4.36,-5.29s0,0 0.01,0.01l0,10.3l-2.04,0l1.62,-2.79c-0.39,0.24 -0.84,0.37 -1.34,0.38c-1.44,0 -2.61,-1.17 -2.61,-2.61z" fill="#616161" id="svg_1808" opacity="0.2"/>
    </g>
    <g id="svg_1809">
     <path d="m67.42,274.94c0,-1 4.36,-5.29 4.36,-5.29s4.26,4.42 4.26,5.27c0,1.45 -1.17,2.62 -2.61,2.62c-0.49,0 -0.95,-0.14 -1.34,-0.38l1.63,2.79l-3.97,0.01l1.63,-2.79c-0.39,0.23 -0.85,0.37 -1.34,0.38c-1.44,0 -2.62,-1.17 -2.62,-2.61z" fill="#333333" id="svg_1810"/>
     <path d="m67.42,274.94c0,-1 4.36,-5.29 4.36,-5.29s0.01,0 0.01,0.01l0,10.3l-2.04,0l1.63,-2.79c-0.39,0.24 -0.85,0.37 -1.34,0.38c-1.44,0 -2.62,-1.17 -2.62,-2.61z" fill="#616161" id="svg_1811" opacity="0.2"/>
    </g>
    <g id="svg_1812">
     <path d="m90.85,299.61c0,1 -4.37,5.29 -4.37,5.29s-4.25,-4.42 -4.25,-5.27c0,-1.45 1.16,-2.62 2.6,-2.62c0.5,0 0.96,0.13 1.35,0.37l-1.64,-2.78l3.97,-0.01l-1.62,2.79c0.39,-0.24 0.85,-0.37 1.34,-0.38c1.44,0 2.62,1.17 2.62,2.61z" fill="#333333" id="svg_1813"/>
     <path d="m90.85,299.61c0,1 -4.37,5.29 -4.37,5.29s0,0 0,-0.01l0,-10.3l2.04,0l-1.63,2.79c0.39,-0.24 0.85,-0.38 1.34,-0.38c1.44,0 2.62,1.17 2.62,2.61z" fill="#616161" id="svg_1814" opacity="0.2"/>
    </g>
    <g id="svg_1815">
     <path d="m90.85,287.24c0,1.01 -4.37,5.3 -4.37,5.3s-4.25,-4.43 -4.25,-5.28c0,-1.44 1.16,-2.61 2.6,-2.61c0.5,0 0.96,0.13 1.35,0.37l-1.64,-2.79l3.97,0l-1.62,2.79c0.39,-0.24 0.85,-0.38 1.34,-0.38c1.44,0 2.62,1.16 2.62,2.6z" fill="#333333" id="svg_1816"/>
     <path d="m90.85,287.24c0,1.01 -4.37,5.3 -4.37,5.3s0,-0.01 0,-0.01l0,-10.3l2.04,-0.01l-1.63,2.8c0.39,-0.24 0.85,-0.38 1.34,-0.38c1.44,0 2.62,1.16 2.62,2.6z" fill="#616161" id="svg_1817" opacity="0.2"/>
    </g>
    <g id="svg_1818">
     <path d="m67.4,299.61c0,1 4.36,5.29 4.36,5.29s4.26,-4.42 4.26,-5.27c0,-1.45 -1.16,-2.62 -2.61,-2.62c-0.49,0 -0.95,0.13 -1.34,0.37l1.63,-2.78l-3.97,-0.01l1.63,2.79c-0.39,-0.24 -0.85,-0.37 -1.34,-0.38c-1.44,0 -2.62,1.17 -2.62,2.61z" fill="#333333" id="svg_1819"/>
     <path d="m67.4,299.61c0,1 4.36,5.29 4.36,5.29s0.01,0 0.01,-0.01l0,-10.3l-2.04,0l1.63,2.79c-0.39,-0.24 -0.85,-0.38 -1.34,-0.38c-1.44,0 -2.62,1.17 -2.62,2.61z" fill="#616161" id="svg_1820" opacity="0.2"/>
    </g>
    <g id="svg_1821">
     <path d="m74.81,292.45c-0.01,1 4.36,5.29 4.36,5.29s4.25,-4.42 4.25,-5.27c0.01,-1.44 -1.16,-2.61 -2.6,-2.62c-0.49,0 -0.95,0.14 -1.35,0.38l1.64,-2.79l-3.97,-0.01l1.62,2.79c-0.39,-0.23 -0.84,-0.37 -1.34,-0.38c-1.44,0 -2.61,1.17 -2.61,2.61z" fill="#333333" id="svg_1822"/>
     <path d="m74.81,292.45c-0.01,1 4.36,5.29 4.36,5.29s0,0 0,-0.01l0,-10.3l-2.03,0l1.62,2.79c-0.39,-0.23 -0.85,-0.37 -1.34,-0.38c-1.44,0 -2.61,1.17 -2.61,2.61z" fill="#616161" id="svg_1823" opacity="0.2"/>
    </g>
    <g id="svg_1824">
     <path d="m67.4,287.24c0,1.01 4.36,5.3 4.36,5.3s4.26,-4.43 4.26,-5.28c0,-1.44 -1.16,-2.61 -2.61,-2.61c-0.49,0 -0.95,0.13 -1.34,0.37l1.63,-2.79l-3.97,0l1.63,2.79c-0.39,-0.24 -0.85,-0.38 -1.34,-0.38c-1.44,0 -2.62,1.16 -2.62,2.6z" fill="#333333" id="svg_1825"/>
     <path d="m67.4,287.24c0,1.01 4.36,5.3 4.36,5.3s0.01,-0.01 0.01,-0.01l0,-10.3l-2.04,-0.01l1.63,2.8c-0.39,-0.24 -0.85,-0.38 -1.34,-0.38c-1.44,0 -2.62,1.16 -2.62,2.6z" fill="#616161" id="svg_1826" opacity="0.2"/>
    </g>
    <g id="svg_1827">
     <path d="m64.16,264.48c0,-0.27 -1.16,-1.41 -1.16,-1.41s-1.14,1.18 -1.14,1.4c0,0.39 0.31,0.7 0.7,0.7c0.13,0 0.25,-0.03 0.35,-0.1l-0.43,0.75l1.06,0l-0.44,-0.75c0.11,0.07 0.23,0.1 0.36,0.11c0.39,0 0.7,-0.32 0.7,-0.7z" fill="#333333" id="svg_1828"/>
     <path d="m64.16,264.48c0,-0.27 -1.16,-1.41 -1.16,-1.41s0,0 0,0l0,2.75l0.54,0l-0.43,-0.75c0.1,0.07 0.22,0.1 0.35,0.11c0.39,0 0.7,-0.32 0.7,-0.7z" fill="#616161" id="svg_1829" opacity="0.2"/>
    </g>
    <g id="svg_1830">
     <path d="m94.53,298.15c0,0.27 1.16,1.41 1.16,1.41s1.14,-1.18 1.14,-1.41c0,-0.38 -0.31,-0.69 -0.7,-0.69c-0.13,-0.01 -0.25,0.03 -0.36,0.1l0.44,-0.75l-1.06,0l0.44,0.75c-0.11,-0.07 -0.23,-0.11 -0.36,-0.11c-0.39,0 -0.7,0.32 -0.7,0.7z" fill="#333333" id="svg_1831"/>
     <path d="m94.53,298.15c0,0.27 1.16,1.41 1.16,1.41l0,0l0,-2.75l-0.54,0l0.43,0.75c-0.1,-0.07 -0.22,-0.11 -0.35,-0.11c-0.39,0 -0.7,0.32 -0.7,0.7z" fill="#616161" id="svg_1832" opacity="0.2"/>
    </g>
   </g>
  </g>
 </g>

</svg>