<?xml version="1.0"?>
<svg width="40" height="56" xmlns="http://www.w3.org/2000/svg" xmlns:svg="http://www.w3.org/2000/svg" enable-background="new 0 0 450 450" version="1.1" xml:space="preserve">
 <g class="layer">
  <title>Layer 1</title>
  <g id="svg_254" transform="translate(-15.1966, 2.97556) translate(-286.442, -387.35)">
   <g id="svg_255">
    <g id="svg_256">
     <path d="m306.17,440.31c-2.35,0 -4.27,-1.87 -4.28,-4.19l-0.12,-47.3c0,-2.33 1.91,-4.22 4.28,-4.22l31.26,0.06c2.35,0 4.26,1.9 4.26,4.22l0,47.2c0,2.31 -1.9,4.19 -4.25,4.19l-31.15,0.04z" fill="#C9C9C9" id="svg_257"/>
    </g>
    <path d="m306.56,440.19c-2.32,0 -4.21,-1.88 -4.21,-4.2l0,-47.19c0,-2.31 1.89,-4.2 4.21,-4.2l30.81,0c2.32,0 4.21,1.89 4.21,4.2l0,47.19c0,2.32 -1.89,4.2 -4.21,4.2l-30.81,0z" fill="#FFFFFF" id="svg_258"/>
    <g id="svg_259">
     <path d="m335.05,433.94c0.07,-0.19 0.19,-0.41 0.35,-0.67c0.23,-0.34 0.41,-0.52 0.55,-0.52l1.86,0c0.02,0 0.05,-0.01 0.08,-0.02c0.03,-0.01 0.07,-0.02 0.12,-0.05l0.11,0l0,0.16c-0.08,0.06 -0.15,0.13 -0.21,0.21c-0.21,0.28 -0.48,0.62 -0.79,1.02c-0.22,0.29 -0.39,0.52 -0.5,0.69c-0.16,0.27 -0.25,0.49 -0.25,0.65c0,0.1 0.02,0.21 0.07,0.33c0.04,0.11 0.1,0.21 0.17,0.29c0.04,0.04 0.12,0.09 0.23,0.16c0.15,0.08 0.25,0.12 0.33,0.12c0.11,0 0.27,-0.08 0.48,-0.24c0.2,-0.16 0.31,-0.24 0.35,-0.24c0.08,0 0.12,0.03 0.12,0.1c0,0.07 -0.09,0.2 -0.27,0.39c-0.17,0.18 -0.33,0.33 -0.49,0.44c-0.22,0.14 -0.33,0.22 -0.36,0.23c-0.19,0.11 -0.35,0.16 -0.48,0.16c-0.26,0 -0.5,-0.1 -0.72,-0.31c-0.22,-0.21 -0.33,-0.45 -0.33,-0.74c0,-0.26 0.08,-0.51 0.23,-0.75c0.03,-0.03 0.14,-0.19 0.34,-0.45c0.28,-0.39 0.45,-0.61 0.5,-0.68c0.23,-0.31 0.34,-0.46 0.34,-0.48c0,-0.05 -0.04,-0.09 -0.11,-0.1c-0.07,-0.01 -0.14,-0.02 -0.2,-0.02c-0.05,0 -0.1,0 -0.16,0c-0.06,0 -0.09,0 -0.09,0c-0.36,0 -0.62,0.05 -0.8,0.14c-0.12,0.11 -0.25,0.21 -0.39,0.32c-0.01,0 -0.03,-0.01 -0.05,-0.02c-0.02,0 -0.03,-0.01 -0.04,-0.01l0,-0.11l0.01,0z" fill="#333333" id="svg_260"/>
    </g>
    <g id="svg_261">
     <path d="m309.61,391.38c-0.07,0.19 -0.19,0.41 -0.36,0.67c-0.23,0.34 -0.41,0.51 -0.54,0.51l-1.87,0c-0.02,0.01 -0.05,0.01 -0.08,0.02c-0.03,0.01 -0.07,0.03 -0.12,0.05l-0.11,0l0,-0.15c0.08,-0.06 0.15,-0.14 0.21,-0.21c0.22,-0.28 0.48,-0.63 0.79,-1.02c0.23,-0.3 0.39,-0.53 0.5,-0.7c0.16,-0.27 0.25,-0.48 0.25,-0.65c0,-0.1 -0.02,-0.2 -0.07,-0.32c-0.04,-0.11 -0.1,-0.21 -0.17,-0.29c-0.04,-0.04 -0.12,-0.09 -0.23,-0.16c-0.14,-0.08 -0.25,-0.12 -0.32,-0.12c-0.12,0 -0.28,0.08 -0.48,0.24c-0.2,0.16 -0.32,0.24 -0.36,0.24c-0.08,0 -0.12,-0.03 -0.12,-0.1c0,-0.07 0.09,-0.2 0.26,-0.39c0.18,-0.19 0.34,-0.33 0.5,-0.44c0.22,-0.15 0.34,-0.22 0.36,-0.23c0.19,-0.11 0.35,-0.16 0.48,-0.16c0.26,0 0.5,0.1 0.72,0.31c0.22,0.21 0.33,0.45 0.33,0.73c0,0.27 -0.08,0.52 -0.23,0.75c-0.03,0.04 -0.14,0.19 -0.34,0.46c-0.28,0.39 -0.44,0.61 -0.5,0.68c-0.23,0.3 -0.34,0.46 -0.34,0.47c0,0.06 0.04,0.09 0.11,0.11c0.07,0.01 0.14,0.02 0.2,0.02c0.05,0 0.1,0 0.16,0c0.06,0 0.09,0 0.09,0c0.36,0 0.62,-0.05 0.79,-0.14c0.14,-0.11 0.26,-0.21 0.4,-0.32c0.01,0 0.03,0.01 0.05,0.02c0.02,0.01 0.03,0.01 0.04,0.02l0,0.1z" fill="#333333" id="svg_262"/>
    </g>
   </g>
   <g id="svg_263">
    <g id="svg_264">
     <path d="m326.14,403.71c0,-0.97 -4.2,-5.09 -4.2,-5.09s-4.09,4.25 -4.1,5.07c0,1.39 1.12,2.51 2.51,2.51c0.48,0.01 0.92,-0.12 1.3,-0.35l-1.58,2.68l3.82,0.01l-1.56,-2.69c0.37,0.23 0.81,0.36 1.29,0.37c1.38,-0.01 2.52,-1.13 2.52,-2.51z" fill="#333333" id="svg_265"/>
     <path d="m326.14,403.71c0,-0.97 -4.2,-5.09 -4.2,-5.09s0,0 -0.01,0l0,9.91l1.96,0l-1.56,-2.68c0.37,0.23 0.82,0.36 1.29,0.36c1.38,0 2.52,-1.12 2.52,-2.5z" fill="#616161" id="svg_266" opacity="0.2"/>
    </g>
    <g id="svg_267">
     <path d="m326.14,421.86c0,0.96 -4.2,5.08 -4.2,5.08s-4.09,-4.25 -4.1,-5.07c0,-1.39 1.12,-2.51 2.51,-2.52c0.48,0 0.92,0.13 1.3,0.36l-1.58,-2.68l3.82,-0.01l-1.56,2.69c0.37,-0.23 0.81,-0.36 1.29,-0.37c1.38,0.01 2.52,1.13 2.52,2.52z" fill="#333333" id="svg_268"/>
     <path d="m326.14,421.86c0,0.96 -4.2,5.08 -4.2,5.08s0,0 -0.01,0l0,-9.91l1.96,0l-1.56,2.68c0.37,-0.23 0.82,-0.36 1.29,-0.36c1.38,0 2.52,1.12 2.52,2.51z" fill="#616161" id="svg_269" opacity="0.2"/>
    </g>
    <g id="svg_270">
     <path d="m309.11,395.63c0,-0.26 -1.12,-1.36 -1.12,-1.36s-1.09,1.13 -1.1,1.35c0,0.37 0.3,0.67 0.67,0.67c0.13,0.01 0.25,-0.03 0.35,-0.09l-0.42,0.71l1.02,0.01l-0.42,-0.72c0.1,0.06 0.22,0.1 0.35,0.1c0.37,0 0.67,-0.3 0.67,-0.67z" fill="#333333" id="svg_271"/>
     <path d="m309.11,395.63c0,-0.26 -1.12,-1.36 -1.12,-1.36l0,0l0,2.64l0.52,0.01l-0.42,-0.72c0.1,0.06 0.22,0.1 0.35,0.1c0.37,0 0.67,-0.3 0.67,-0.67z" fill="#616161" id="svg_272" opacity="0.2"/>
    </g>
    <g id="svg_273">
     <path d="m335.48,429.77c0,0.25 1.12,1.35 1.12,1.35s1.09,-1.13 1.09,-1.35c0,-0.37 -0.3,-0.67 -0.67,-0.67c-0.13,0 -0.24,0.03 -0.34,0.1l0.41,-0.72l-1.01,0l0.41,0.72c-0.1,-0.07 -0.21,-0.1 -0.34,-0.1c-0.37,0 -0.67,0.3 -0.67,0.67z" fill="#333333" id="svg_274"/>
     <path d="m335.48,429.77c0,0.25 1.12,1.35 1.12,1.35s0,0 0,0l0,-2.64l-0.52,0l0.41,0.72c-0.1,-0.07 -0.21,-0.1 -0.34,-0.1c-0.37,0 -0.67,0.3 -0.67,0.67z" fill="#616161" id="svg_275" opacity="0.2"/>
    </g>
   </g>
  </g>
 </g>

</svg>