<?xml version="1.0"?>
<svg width="40" height="56" xmlns="http://www.w3.org/2000/svg" xmlns:svg="http://www.w3.org/2000/svg" enable-background="new 0 0 450 450" version="1.1" xml:space="preserve">
 <g class="layer">
  <title>Layer 1</title>
  <g id="svg_229" transform="translate(-15.1966, 2.86929) matrix(1, 0, 0, 1, -286.442, -321.37)">
   <g id="svg_230">
    <g id="svg_231">
     <path d="m306.17,374.33c-2.35,0.01 -4.27,-1.87 -4.28,-4.19l-0.12,-47.3c0,-2.33 1.91,-4.22 4.28,-4.22l31.26,0.06c2.35,0.01 4.26,1.9 4.26,4.22l0,47.21c0,2.3 -1.9,4.18 -4.25,4.19l-31.15,0.03z" fill="#C9C9C9" id="svg_232"/>
    </g>
    <path d="m306.56,374.21c-2.32,0 -4.21,-1.88 -4.21,-4.19l0,-47.2c0,-2.31 1.89,-4.19 4.21,-4.19l30.8,0c2.33,0 4.22,1.88 4.22,4.19l0,47.2c0,2.31 -1.89,4.19 -4.22,4.19l-30.8,0z" fill="#FFFFFF" id="svg_233"/>
    <g id="svg_234">
     <path d="m335.05,368.85c0,-0.16 0.04,-0.33 0.12,-0.5c0.12,-0.27 0.33,-0.55 0.64,-0.85c0.26,-0.26 0.46,-0.44 0.61,-0.54c0.24,-0.16 0.49,-0.24 0.74,-0.24c0.22,0 0.41,0.04 0.58,0.14c0.2,0.11 0.3,0.25 0.3,0.44c0,0.12 -0.13,0.34 -0.37,0.65c-0.25,0.31 -0.43,0.47 -0.53,0.47c-0.09,0 -0.13,-0.03 -0.13,-0.1c0,-0.06 0.07,-0.19 0.21,-0.36c0.06,-0.09 0.1,-0.15 0.1,-0.19c-0.04,-0.08 -0.08,-0.13 -0.12,-0.17c-0.12,-0.11 -0.29,-0.16 -0.5,-0.16c-0.18,0 -0.35,0.05 -0.49,0.17c-0.18,0.14 -0.27,0.32 -0.27,0.55c0,0.17 0.05,0.33 0.14,0.46c0.07,0.11 0.17,0.19 0.28,0.24c0.15,0.08 0.31,0.12 0.47,0.12c0.17,0.01 0.25,0.04 0.25,0.11c0,0.03 -0.1,0.18 -0.31,0.43c-0.15,0.19 -0.31,0.4 -0.46,0.64c0.05,0.04 0.09,0.06 0.12,0.06l0.93,0c0.04,0 0.12,-0.04 0.24,-0.14c0.13,-0.1 0.21,-0.15 0.25,-0.15c0.09,0 0.13,0.03 0.13,0.09c0,0.04 -0.05,0.11 -0.15,0.22c-0.09,0.11 -0.23,0.25 -0.41,0.43c-0.2,0.2 -0.33,0.33 -0.38,0.37c-0.11,0.08 -0.19,0.12 -0.25,0.12l-1.56,0c-0.01,-0.01 -0.02,-0.03 -0.03,-0.03c0,-0.01 -0.01,-0.04 -0.01,-0.08c0,-0.11 0.14,-0.31 0.42,-0.59c0.28,-0.27 0.43,-0.46 0.43,-0.57c0,-0.02 -0.12,-0.08 -0.34,-0.16c-0.15,-0.06 -0.28,-0.13 -0.38,-0.23c-0.09,-0.07 -0.15,-0.17 -0.2,-0.28c-0.05,-0.11 -0.07,-0.23 -0.07,-0.37z" fill="#333333" id="svg_235"/>
    </g>
    <g id="svg_236">
     <path d="m309.61,324.51c0,0.17 -0.04,0.34 -0.12,0.51c-0.12,0.26 -0.34,0.54 -0.64,0.85c-0.26,0.25 -0.46,0.43 -0.61,0.53c-0.24,0.17 -0.49,0.25 -0.75,0.25c-0.21,0 -0.41,-0.05 -0.58,-0.14c-0.19,-0.11 -0.29,-0.26 -0.29,-0.44c0,-0.13 0.12,-0.35 0.37,-0.66c0.24,-0.31 0.42,-0.46 0.53,-0.46c0.09,0 0.13,0.03 0.13,0.09c0,0.07 -0.07,0.19 -0.21,0.37c-0.07,0.08 -0.1,0.14 -0.1,0.19c0.04,0.07 0.07,0.12 0.11,0.16c0.13,0.11 0.29,0.17 0.5,0.17c0.19,0 0.35,-0.06 0.5,-0.17c0.18,-0.14 0.27,-0.32 0.27,-0.56c0,-0.17 -0.05,-0.32 -0.14,-0.46c-0.08,-0.1 -0.17,-0.18 -0.28,-0.24c-0.15,-0.07 -0.31,-0.11 -0.48,-0.12c-0.16,0 -0.24,-0.04 -0.24,-0.1c0,-0.04 0.1,-0.18 0.3,-0.43c0.16,-0.2 0.31,-0.41 0.46,-0.64c-0.05,-0.05 -0.08,-0.07 -0.11,-0.07l-0.93,0c-0.05,0 -0.13,0.05 -0.25,0.15c-0.12,0.1 -0.2,0.14 -0.25,0.14c-0.08,0 -0.12,-0.03 -0.12,-0.09c0,-0.03 0.05,-0.1 0.14,-0.21c0.1,-0.11 0.24,-0.26 0.41,-0.44c0.21,-0.2 0.33,-0.32 0.39,-0.36c0.1,-0.08 0.19,-0.12 0.25,-0.12l1.55,0c0.02,0.01 0.03,0.02 0.03,0.03c0.01,0 0.01,0.03 0.01,0.07c0,0.12 -0.14,0.31 -0.42,0.59c-0.28,0.28 -0.42,0.47 -0.42,0.57c0,0.03 0.11,0.08 0.33,0.16c0.15,0.06 0.28,0.14 0.39,0.23c0.08,0.08 0.15,0.17 0.19,0.28c0.05,0.11 0.08,0.24 0.08,0.37z" fill="#333333" id="svg_237"/>
    </g>
   </g>
   <g id="svg_238">
    <g id="svg_239">
     <path d="m326.14,328.01c0,-0.97 -4.2,-5.1 -4.2,-5.1s-4.09,4.26 -4.09,5.08c-0.01,1.39 1.11,2.52 2.5,2.52c0.48,0 0.92,-0.13 1.3,-0.36l-1.58,2.68l3.82,0.01l-1.56,-2.69c0.37,0.23 0.81,0.36 1.29,0.36c1.38,0.01 2.52,-1.11 2.52,-2.5z" fill="#333333" id="svg_240"/>
     <path d="m326.14,328.01c0,-0.97 -4.2,-5.1 -4.2,-5.1s0,0.01 -0.01,0.01l0,9.91l1.96,0.01l-1.56,-2.69c0.37,0.23 0.82,0.36 1.29,0.36c1.38,0.01 2.52,-1.11 2.52,-2.5z" fill="#616161" id="svg_241" opacity="0.2"/>
    </g>
    <g id="svg_242">
     <path d="m326.14,346.61c0,-0.96 -4.2,-5.09 -4.2,-5.09s-4.09,4.25 -4.09,5.07c-0.01,1.39 1.11,2.52 2.5,2.52c0.48,0 0.92,-0.13 1.3,-0.36l-1.58,2.68l3.82,0.01l-1.56,-2.69c0.37,0.23 0.81,0.37 1.29,0.37c1.38,0 2.52,-1.12 2.52,-2.51z" fill="#333333" id="svg_243"/>
     <path d="m326.14,346.61c0,-0.96 -4.2,-5.09 -4.2,-5.09s0,0 -0.01,0.01l0,9.91l1.96,0l-1.56,-2.69c0.37,0.23 0.82,0.36 1.29,0.37c1.38,0 2.52,-1.12 2.52,-2.51z" fill="#616161" id="svg_244" opacity="0.2"/>
    </g>
    <g id="svg_245">
     <path d="m326.14,364.48c0,0.97 -4.2,5.09 -4.2,5.09s-4.09,-4.25 -4.09,-5.07c-0.01,-1.39 1.11,-2.52 2.5,-2.52c0.48,0 0.92,0.13 1.3,0.36l-1.58,-2.68l3.82,-0.01l-1.56,2.69c0.37,-0.23 0.81,-0.36 1.29,-0.37c1.38,0 2.52,1.12 2.52,2.51z" fill="#333333" id="svg_246"/>
     <path d="m326.14,364.48c0,0.97 -4.2,5.09 -4.2,5.09s0,0 -0.01,-0.01l0,-9.91l1.96,0l-1.56,2.69c0.37,-0.23 0.82,-0.36 1.29,-0.37c1.38,0 2.52,1.12 2.52,2.51z" fill="#616161" id="svg_247" opacity="0.2"/>
    </g>
    <g id="svg_248">
     <path d="m309.08,329.65c0,-0.26 -1.12,-1.36 -1.12,-1.36s-1.09,1.14 -1.09,1.36c0,0.37 0.3,0.67 0.67,0.67c0.12,0 0.24,-0.04 0.34,-0.1l-0.42,0.72l1.02,0l-0.42,-0.71c0.11,0.05 0.22,0.09 0.35,0.09c0.37,0 0.67,-0.3 0.67,-0.67z" fill="#333333" id="svg_249"/>
     <path d="m309.08,329.65c0,-0.26 -1.12,-1.36 -1.12,-1.36s0,0 0,0l0,2.65l0.52,0l-0.42,-0.72c0.11,0.06 0.22,0.1 0.35,0.1c0.37,0 0.67,-0.3 0.67,-0.67z" fill="#616161" id="svg_250" opacity="0.2"/>
    </g>
    <g id="svg_251">
     <path d="m335.56,363.79c0,0.26 1.12,1.36 1.12,1.36s1.09,-1.14 1.09,-1.36c0,-0.37 -0.3,-0.67 -0.67,-0.67c-0.12,0 -0.24,0.03 -0.34,0.1l0.42,-0.72l-1.02,0l0.42,0.72c-0.1,-0.07 -0.22,-0.1 -0.35,-0.1c-0.37,0 -0.67,0.3 -0.67,0.67z" fill="#333333" id="svg_252"/>
     <path d="m335.56,363.79c0,0.26 1.12,1.36 1.12,1.36s0,0 0,-0.01l0,-2.64l-0.52,0l0.42,0.72c-0.1,-0.06 -0.22,-0.1 -0.35,-0.1c-0.37,0 -0.67,0.3 -0.67,0.67z" fill="#616161" id="svg_253" opacity="0.2"/>
    </g>
   </g>
  </g>
 </g>

</svg>