<?xml version="1.0"?>
<svg width="40" height="56" xmlns="http://www.w3.org/2000/svg" xmlns:svg="http://www.w3.org/2000/svg" enable-background="new 0 0 450 450" version="1.1" xml:space="preserve">
 <g class="layer">
  <title>Layer 1</title>
  <g id="svg_201" transform="translate(0.0146747, 0.00265787) scale(0.997346, 1) translate(-0.0146747, -0.00265787) translate(-15.1966, 2.86929) matrix(1, 0, 0, 1, -286.442, -255.4)">
   <g id="svg_202">
    <g id="svg_203">
     <path d="m306.17,308.36c-2.35,0 -4.27,-1.88 -4.28,-4.19l-0.12,-47.3c0,-2.34 1.92,-4.22 4.28,-4.22l31.26,0.05c2.35,0.01 4.26,1.9 4.26,4.23l0,47.2c0,2.31 -1.9,4.19 -4.25,4.19l-31.15,0.04z" fill="#C9C9C9" id="svg_204"/>
    </g>
    <path d="m306.56,308.24c-2.32,0 -4.21,-1.88 -4.21,-4.2l0,-47.19c0,-2.32 1.89,-4.2 4.21,-4.2l30.81,0c2.32,0 4.21,1.88 4.21,4.2l0,47.19c0,2.32 -1.89,4.2 -4.21,4.2l-30.81,0z" fill="#FFFFFF" id="svg_205"/>
    <g id="svg_206">
     <path d="m307.26,258.16c0,0.07 -0.02,0.14 -0.07,0.21c-0.06,0.07 -0.1,0.12 -0.12,0.15c-0.2,0.3 -0.36,0.51 -0.48,0.62c-0.1,0.07 -0.2,0.13 -0.3,0.19c-0.04,0.05 -0.05,0.1 -0.05,0.16c0.01,0.05 0.02,0.09 0.02,0.11c0,0.11 0,0.21 0.02,0.3c0.02,0.08 0.04,0.12 0.07,0.12c0.03,0 0.07,-0.01 0.11,-0.04c0.12,-0.1 0.2,-0.16 0.23,-0.17c0.03,0.06 0.04,0.09 0.04,0.1c0,0.06 -0.11,0.19 -0.33,0.41c-0.27,0.25 -0.52,0.37 -0.74,0.37c-0.17,0 -0.27,-0.21 -0.31,-0.64c-0.05,-0.43 -0.09,-0.67 -0.12,-0.71l-1.43,0c-0.02,-0.02 -0.04,-0.03 -0.05,-0.03c0,-0.01 -0.01,-0.04 -0.01,-0.1c0,-0.07 0.1,-0.25 0.28,-0.52c0.17,-0.25 0.44,-0.59 0.8,-1.03c0.1,-0.14 0.22,-0.27 0.33,-0.41c0.07,-0.08 0.17,-0.19 0.3,-0.33c0.13,-0.13 0.26,-0.28 0.41,-0.45c0.12,-0.15 0.22,-0.23 0.3,-0.23l0.08,0.02l0,2.16c0.06,0.03 0.11,0.04 0.15,0.04c0.03,0 0.06,0 0.06,0c0.17,0 0.32,-0.06 0.45,-0.16c0.1,-0.09 0.2,-0.18 0.3,-0.27c0.02,0.01 0.04,0.02 0.05,0.03c0.01,0.01 0.01,0.04 0.01,0.1zm-1.99,0.22l0,-0.23l0,-0.08c0,-0.07 -0.01,-0.17 -0.02,-0.27c-0.09,0.07 -0.2,0.2 -0.34,0.38c-0.05,0.05 -0.11,0.14 -0.19,0.24l0.05,0.02l0.41,0l0.09,-0.06z" fill="#333333" id="svg_207"/>
    </g>
    <g id="svg_208">
     <path d="m336.92,303.25c0,-0.07 0.03,-0.14 0.08,-0.21c0.06,-0.08 0.1,-0.12 0.12,-0.15c0.2,-0.3 0.36,-0.51 0.48,-0.62c0.1,-0.06 0.2,-0.13 0.3,-0.19c0.03,-0.05 0.05,-0.1 0.05,-0.16c-0.01,-0.05 -0.02,-0.09 -0.02,-0.11c0,-0.11 -0.01,-0.21 -0.02,-0.29c-0.02,-0.09 -0.04,-0.13 -0.07,-0.13c-0.03,0 -0.07,0.01 -0.11,0.04c-0.12,0.1 -0.2,0.16 -0.23,0.17c-0.03,-0.06 -0.04,-0.09 -0.04,-0.1c0,-0.06 0.11,-0.19 0.33,-0.41c0.27,-0.25 0.52,-0.37 0.74,-0.37c0.16,0 0.27,0.21 0.31,0.64c0.05,0.43 0.08,0.66 0.12,0.71l1.42,0c0.03,0.02 0.05,0.03 0.06,0.03c0,0.01 0,0.04 0,0.1c0,0.08 -0.09,0.25 -0.28,0.52c-0.17,0.25 -0.43,0.59 -0.79,1.03c-0.11,0.14 -0.22,0.27 -0.33,0.41c-0.08,0.09 -0.18,0.19 -0.3,0.33c-0.13,0.13 -0.27,0.28 -0.41,0.45c-0.13,0.15 -0.23,0.23 -0.3,0.23l-0.08,-0.02l0,-2.15c-0.07,-0.04 -0.12,-0.05 -0.15,-0.05c-0.03,0 -0.06,0.01 -0.07,0.01c-0.16,0 -0.31,0.05 -0.44,0.15c-0.1,0.09 -0.2,0.18 -0.3,0.27c-0.02,-0.01 -0.04,-0.02 -0.05,-0.03c-0.01,-0.01 -0.02,-0.04 -0.02,-0.1zm2,-0.22l0,0.23l0,0.08c0,0.08 0.01,0.17 0.02,0.27c0.08,-0.07 0.2,-0.2 0.34,-0.38c0.05,-0.05 0.11,-0.13 0.18,-0.24l-0.04,-0.03l-0.41,0l-0.09,0.07z" fill="#333333" id="svg_209"/>
    </g>
   </g>
   <g id="svg_210">
    <g id="svg_211">
     <path d="m333.73,262.88c0,-0.96 -4.2,-5.09 -4.2,-5.09s-4.09,4.25 -4.09,5.08c-0.01,1.38 1.11,2.51 2.5,2.51c0.48,0 0.92,-0.13 1.3,-0.36l-1.58,2.68l3.82,0.01l-1.56,-2.68c0.37,0.22 0.81,0.36 1.29,0.36c1.39,0 2.52,-1.12 2.52,-2.51z" fill="#333333" id="svg_212"/>
     <path d="m333.73,262.88c0,-0.96 -4.2,-5.09 -4.2,-5.09s0,0 -0.01,0.01l0,9.91l1.96,0l-1.56,-2.69c0.37,0.23 0.81,0.37 1.29,0.37c1.39,0 2.52,-1.12 2.52,-2.51z" fill="#616161" id="svg_213" opacity="0.2"/>
    </g>
    <g id="svg_214">
     <path d="m311.17,262.88c0,-0.96 4.2,-5.09 4.2,-5.09s4.09,4.25 4.09,5.08c0,1.38 -1.12,2.51 -2.51,2.51c-0.47,0 -0.91,-0.13 -1.29,-0.36l1.57,2.68l-3.81,0.01l1.56,-2.68c-0.38,0.22 -0.82,0.36 -1.29,0.36c-1.39,0 -2.52,-1.12 -2.52,-2.51z" fill="#333333" id="svg_215"/>
     <path d="m311.17,262.88c0,-0.96 4.2,-5.09 4.2,-5.09s0,0 0,0.01l0,9.91l-1.96,0l1.57,-2.69c-0.38,0.23 -0.82,0.37 -1.29,0.37c-1.39,0 -2.52,-1.12 -2.52,-2.51z" fill="#616161" id="svg_216" opacity="0.2"/>
    </g>
    <g id="svg_217">
     <path d="m333.71,298.51c0,0.96 -4.2,5.08 -4.2,5.08s-4.09,-4.25 -4.09,-5.07c-0.01,-1.39 1.11,-2.51 2.5,-2.51c0.48,0 0.92,0.12 1.3,0.35l-1.58,-2.68l3.82,-0.01l-1.56,2.69c0.37,-0.23 0.81,-0.36 1.29,-0.36c1.39,0 2.52,1.12 2.52,2.51z" fill="#333333" id="svg_218"/>
     <path d="m333.71,298.51c0,0.96 -4.2,5.08 -4.2,5.08s0,0 -0.01,0l0,-9.91l1.96,0l-1.56,2.68c0.37,-0.23 0.82,-0.36 1.29,-0.36c1.39,0 2.52,1.12 2.52,2.51z" fill="#616161" id="svg_219" opacity="0.2"/>
    </g>
    <g id="svg_220">
     <path d="m311.15,298.51c0,0.96 4.2,5.08 4.2,5.08s4.09,-4.25 4.09,-5.07c0,-1.39 -1.12,-2.51 -2.51,-2.51c-0.47,0 -0.91,0.12 -1.29,0.35l1.57,-2.68l-3.81,-0.01l1.56,2.69c-0.37,-0.23 -0.82,-0.36 -1.29,-0.36c-1.39,0 -2.52,1.12 -2.52,2.51z" fill="#333333" id="svg_221"/>
     <path d="m311.15,298.51c0,0.96 4.2,5.08 4.2,5.08s0,0 0,0l0,-9.91l-1.95,0l1.56,2.68c-0.37,-0.23 -0.82,-0.36 -1.29,-0.36c-1.39,0 -2.52,1.12 -2.52,2.51z" fill="#616161" id="svg_222" opacity="0.2"/>
    </g>
    <g id="svg_223">
     <path d="m306.75,263.67c0,-0.25 -1.12,-1.35 -1.12,-1.35s-1.09,1.13 -1.09,1.35c0,0.37 0.3,0.67 0.67,0.67c0.13,0 0.24,-0.03 0.34,-0.1l-0.41,0.72l1.01,0l-0.41,-0.71c0.1,0.06 0.21,0.09 0.34,0.09c0.37,0 0.67,-0.3 0.67,-0.67z" fill="#333333" id="svg_224"/>
     <path d="m306.75,263.67c0,-0.25 -1.12,-1.35 -1.12,-1.35s0,0 0,0l0,2.64l0.52,0l-0.41,-0.71c0.1,0.06 0.21,0.09 0.34,0.09c0.37,0 0.67,-0.3 0.67,-0.67z" fill="#616161" id="svg_225" opacity="0.2"/>
    </g>
    <g id="svg_226">
     <path d="m337.56,297.81c0,0.26 1.12,1.36 1.12,1.36s1.09,-1.13 1.09,-1.35c0,-0.37 -0.3,-0.67 -0.67,-0.68c-0.13,0 -0.24,0.04 -0.35,0.1l0.43,-0.71l-1.02,0l0.41,0.71c-0.1,-0.06 -0.21,-0.1 -0.34,-0.1c-0.37,0 -0.67,0.3 -0.67,0.67z" fill="#333333" id="svg_227"/>
     <path d="m337.56,297.81c0,0.26 1.12,1.36 1.12,1.36s0,0 0,0l0,-2.64l-0.52,0l0.41,0.71c-0.1,-0.06 -0.21,-0.1 -0.34,-0.1c-0.37,0 -0.67,0.3 -0.67,0.67z" fill="#616161" id="svg_228" opacity="0.2"/>
    </g>
   </g>
  </g>
 </g>

</svg>