<?xml version="1.0"?>
<svg width="40" height="56" xmlns="http://www.w3.org/2000/svg" xmlns:svg="http://www.w3.org/2000/svg" enable-background="new 0 0 450 450" version="1.1" xml:space="preserve">
 <g class="layer">
  <title>Layer 1</title>
  <g id="svg_170" transform="translate(-15.1966, 2.86929) translate(-286.442, -189.42)">
   <g id="svg_171">
    <g id="svg_172">
     <path d="m306.17,242.38c-2.35,0 -4.27,-1.88 -4.28,-4.19l-0.12,-47.3c0,-2.33 1.91,-4.22 4.28,-4.22l31.26,0.06c2.35,0.01 4.26,1.9 4.26,4.22l0,47.2c0,2.31 -1.91,4.19 -4.25,4.19l-31.15,0.04z" fill="#C9C9C9" id="svg_173"/>
    </g>
    <path d="m306.56,242.26c-2.32,0 -4.21,-1.88 -4.21,-4.2l0,-47.19c0,-2.31 1.89,-4.19 4.21,-4.19l30.8,0c2.33,0 4.22,1.88 4.22,4.19l0,47.19c0,2.32 -1.89,4.2 -4.22,4.2l-30.8,0z" fill="#FFFFFF" id="svg_174"/>
    <g id="svg_175">
     <path d="m307.31,190.24c-0.09,0.13 -0.19,0.27 -0.32,0.4c-0.17,0.18 -0.32,0.3 -0.47,0.35c-0.1,0.04 -0.25,0.06 -0.46,0.07c-0.21,0.02 -0.32,0.09 -0.32,0.23c0,0.12 0.07,0.19 0.2,0.22c0.23,0.06 0.42,0.15 0.58,0.27c0.17,0.13 0.29,0.26 0.36,0.41c0.08,0.15 0.11,0.29 0.11,0.45c0,0.22 -0.05,0.43 -0.16,0.65c-0.04,0.1 -0.13,0.24 -0.25,0.4c-0.31,0.4 -0.58,0.67 -0.82,0.81c-0.24,0.15 -0.55,0.22 -0.94,0.22c-0.23,0 -0.42,-0.03 -0.58,-0.1c-0.2,-0.09 -0.31,-0.22 -0.31,-0.4c0,-0.11 0.1,-0.31 0.28,-0.59c0.18,-0.29 0.33,-0.43 0.43,-0.43c0.07,0 0.11,0.09 0.11,0.25c0.01,0.17 0.03,0.28 0.07,0.35c0.05,0.06 0.1,0.1 0.14,0.13c0.12,0.09 0.25,0.14 0.37,0.14c0.17,0 0.32,-0.06 0.44,-0.18c0.16,-0.14 0.24,-0.35 0.24,-0.61c0,-0.27 -0.09,-0.5 -0.26,-0.69c-0.17,-0.19 -0.37,-0.3 -0.61,-0.33c-0.05,-0.01 -0.09,-0.01 -0.11,-0.01c-0.07,-0.01 -0.11,-0.02 -0.12,-0.03c-0.02,-0.03 -0.03,-0.07 -0.03,-0.13c0.02,-0.16 0.04,-0.32 0.05,-0.48c0.01,-0.16 0.02,-0.31 0.02,-0.46c0,-0.06 -0.01,-0.11 -0.03,-0.12c-0.03,-0.01 -0.08,-0.02 -0.16,-0.02l0,-0.15c0.06,-0.08 0.18,-0.19 0.35,-0.33c0.21,-0.19 0.36,-0.28 0.44,-0.28l1.32,0c0.05,0 0.12,-0.02 0.2,-0.06c0.08,-0.05 0.13,-0.07 0.15,-0.07l0.09,0.04l0,0.08z" fill="#333333" id="svg_176"/>
    </g>
    <g id="svg_177">
     <path d="m336.88,239.22c0.09,-0.13 0.19,-0.27 0.32,-0.4c0.17,-0.18 0.32,-0.3 0.47,-0.35c0.1,-0.04 0.25,-0.06 0.46,-0.07c0.21,-0.02 0.31,-0.09 0.31,-0.23c0,-0.12 -0.06,-0.2 -0.19,-0.23c-0.23,-0.05 -0.42,-0.14 -0.58,-0.27c-0.17,-0.12 -0.29,-0.26 -0.36,-0.4c-0.08,-0.15 -0.11,-0.3 -0.11,-0.45c0,-0.22 0.05,-0.44 0.15,-0.65c0.05,-0.1 0.14,-0.24 0.26,-0.41c0.31,-0.39 0.58,-0.66 0.82,-0.8c0.24,-0.15 0.55,-0.22 0.94,-0.22c0.23,0 0.42,0.03 0.58,0.1c0.2,0.08 0.31,0.21 0.31,0.39c0,0.12 -0.1,0.32 -0.28,0.6c-0.19,0.28 -0.33,0.42 -0.43,0.42c-0.07,0 -0.11,-0.08 -0.11,-0.25c-0.01,-0.16 -0.03,-0.27 -0.07,-0.35c-0.06,-0.05 -0.1,-0.1 -0.14,-0.12c-0.12,-0.09 -0.24,-0.14 -0.38,-0.14c-0.16,0 -0.31,0.06 -0.43,0.17c-0.17,0.15 -0.24,0.35 -0.24,0.62c0,0.26 0.08,0.49 0.25,0.69c0.17,0.18 0.38,0.3 0.62,0.32c0.05,0.01 0.09,0.02 0.11,0.02c0.07,0.01 0.11,0.02 0.12,0.03c0.02,0.02 0.03,0.06 0.03,0.12c-0.02,0.16 -0.04,0.32 -0.05,0.48c-0.01,0.16 -0.02,0.31 -0.02,0.46c0,0.07 0.01,0.11 0.03,0.13c0.03,0.01 0.08,0.02 0.15,0.02l0,0.14c-0.06,0.08 -0.17,0.19 -0.34,0.34c-0.22,0.18 -0.36,0.27 -0.45,0.27l-1.31,0c-0.05,0 -0.13,0.02 -0.21,0.07c-0.08,0.04 -0.13,0.06 -0.14,0.06l-0.09,-0.04l0,-0.07z" fill="#333333" id="svg_178"/>
    </g>
   </g>
   <g id="svg_179">
    <g id="svg_180">
     <path d="m333.25,196.91c0,-0.97 -4.19,-5.1 -4.19,-5.1s-4.1,4.26 -4.1,5.08c0,1.38 1.12,2.51 2.51,2.51c0.47,0.01 0.91,-0.12 1.29,-0.35l-1.57,2.68l3.81,0.01l-1.56,-2.69c0.38,0.23 0.82,0.36 1.29,0.36c1.39,0 2.52,-1.12 2.52,-2.5z" fill="#333333" id="svg_181"/>
     <path d="m333.25,196.91c0,-0.97 -4.19,-5.1 -4.19,-5.1s-0.01,0.01 -0.01,0.01l0,9.91l1.95,0l-1.56,-2.68c0.38,0.23 0.82,0.36 1.29,0.36c1.39,0 2.52,-1.12 2.52,-2.5z" fill="#616161" id="svg_182" opacity="0.2"/>
    </g>
    <g id="svg_183">
     <path d="m310.7,196.91c-0.01,-0.97 4.19,-5.1 4.19,-5.1s4.09,4.26 4.1,5.08c0,1.38 -1.12,2.51 -2.51,2.51c-0.47,0.01 -0.92,-0.12 -1.29,-0.35l1.57,2.68l-3.82,0.01l1.56,-2.69c-0.37,0.23 -0.81,0.36 -1.29,0.36c-1.38,0 -2.51,-1.12 -2.51,-2.5z" fill="#333333" id="svg_184"/>
     <path d="m310.7,196.91c-0.01,-0.97 4.19,-5.1 4.19,-5.1s0.01,0.01 0.01,0.01l0,9.91l-1.96,0l1.56,-2.68c-0.37,0.23 -0.81,0.36 -1.29,0.36c-1.38,0 -2.51,-1.12 -2.51,-2.5z" fill="#616161" id="svg_185" opacity="0.2"/>
    </g>
    <g id="svg_186">
     <path d="m317.76,214.31c0,-0.96 4.2,-5.09 4.2,-5.09s4.09,4.25 4.09,5.07c0,1.39 -1.12,2.52 -2.5,2.52c-0.48,0 -0.92,-0.13 -1.3,-0.36l1.57,2.68l-3.81,0.01l1.56,-2.69c-0.38,0.23 -0.82,0.37 -1.29,0.37c-1.39,0 -2.52,-1.12 -2.52,-2.51z" fill="#333333" id="svg_187"/>
     <path d="m317.76,214.31c0,-0.96 4.2,-5.09 4.2,-5.09s0,0 0,0.01l0,9.91l-1.95,0l1.56,-2.69c-0.38,0.23 -0.82,0.36 -1.29,0.37c-1.39,0 -2.52,-1.12 -2.52,-2.51z" fill="#616161" id="svg_188" opacity="0.2"/>
    </g>
    <g id="svg_189">
     <path d="m333.23,232.53c0.01,0.96 -4.19,5.09 -4.19,5.09s-4.1,-4.25 -4.1,-5.08c0,-1.38 1.12,-2.51 2.51,-2.51c0.47,0 0.92,0.13 1.29,0.36l-1.57,-2.68l3.82,-0.01l-1.56,2.68c0.37,-0.22 0.81,-0.35 1.28,-0.36c1.39,0 2.52,1.12 2.52,2.51z" fill="#333333" id="svg_190"/>
     <path d="m333.23,232.53c0.01,0.96 -4.19,5.09 -4.19,5.09s-0.01,0 -0.01,-0.01l0,-9.91l1.96,0l-1.56,2.69c0.37,-0.23 0.81,-0.36 1.28,-0.37c1.39,0 2.52,1.12 2.52,2.51z" fill="#616161" id="svg_191" opacity="0.2"/>
    </g>
    <g id="svg_192">
     <path d="m310.68,232.53c-0.01,0.96 4.19,5.09 4.19,5.09s4.09,-4.25 4.09,-5.08c0.01,-1.38 -1.11,-2.51 -2.5,-2.51c-0.47,0 -0.91,0.13 -1.29,0.36l1.57,-2.68l-3.82,-0.01l1.57,2.68c-0.38,-0.22 -0.82,-0.35 -1.3,-0.36c-1.38,0 -2.51,1.12 -2.51,2.51z" fill="#333333" id="svg_193"/>
     <path d="m310.68,232.53c-0.01,0.96 4.19,5.09 4.19,5.09s0.01,0 0.01,-0.01l0,-9.91l-1.96,0l1.57,2.69c-0.38,-0.23 -0.82,-0.36 -1.3,-0.37c-1.38,0 -2.51,1.12 -2.51,2.51z" fill="#616161" id="svg_194" opacity="0.2"/>
    </g>
    <g id="svg_195">
     <path d="m306.73,197.7c0,-0.26 -1.12,-1.36 -1.12,-1.36s-1.1,1.14 -1.1,1.36c0,0.36 0.3,0.66 0.67,0.66c0.13,0.01 0.25,-0.03 0.35,-0.09l-0.42,0.72l1.02,0l-0.42,-0.72c0.1,0.06 0.22,0.1 0.35,0.1c0.37,0 0.67,-0.3 0.67,-0.67z" fill="#333333" id="svg_196"/>
     <path d="m306.73,197.7c0,-0.26 -1.12,-1.36 -1.12,-1.36s0,0 0,0l0,2.65l0.52,0l-0.42,-0.72c0.1,0.06 0.22,0.1 0.34,0.1c0.38,0 0.68,-0.3 0.68,-0.67z" fill="#616161" id="svg_197" opacity="0.2"/>
    </g>
    <g id="svg_198">
     <path d="m337.53,231.84c0,0.25 1.12,1.35 1.12,1.35s1.09,-1.13 1.09,-1.35c0,-0.37 -0.3,-0.67 -0.67,-0.67c-0.12,0 -0.24,0.03 -0.34,0.09l0.42,-0.71l-1.02,0l0.42,0.71c-0.1,-0.06 -0.22,-0.09 -0.35,-0.09c-0.37,0 -0.67,0.3 -0.67,0.67z" fill="#333333" id="svg_199"/>
     <path d="m337.53,231.84c0,0.25 1.12,1.35 1.12,1.35s0,0 0,0l0,-2.64l-0.52,0l0.42,0.71c-0.1,-0.06 -0.22,-0.09 -0.35,-0.09c-0.37,0 -0.67,0.3 -0.67,0.67z" fill="#616161" id="svg_200" opacity="0.2"/>
    </g>
   </g>
  </g>
 </g>

</svg>