<?xml version="1.0"?>
<svg width="40" height="56" xmlns="http://www.w3.org/2000/svg" xmlns:svg="http://www.w3.org/2000/svg" enable-background="new 0 0 450 450" version="1.1" xml:space="preserve">
 <g class="layer">
  <title>Layer 1</title>
  <g id="svg_136" transform="translate(-15.1966, 2.86929) translate(-286.442, -123.445)">
   <g id="svg_137">
    <g id="svg_138">
     <path d="m306.17,176.4c-2.35,0.01 -4.27,-1.87 -4.28,-4.18l-0.12,-47.31c0,-2.33 1.91,-4.22 4.28,-4.21l31.26,0.05c2.35,0.01 4.26,1.9 4.26,4.23l0,47.2c0,2.31 -1.9,4.19 -4.25,4.19l-31.15,0.03z" fill="#C9C9C9" id="svg_139"/>
    </g>
    <path d="m306.56,176.29c-2.32,0 -4.21,-1.89 -4.21,-4.2l0,-47.19c0,-2.32 1.89,-4.2 4.21,-4.2l30.81,0c2.32,0 4.21,1.88 4.21,4.2l0,47.19c0,2.31 -1.89,4.2 -4.21,4.2l-30.81,0z" fill="#FFFFFF" id="svg_140"/>
    <g id="svg_141">
     <path d="m307.26,127.12c0,0.21 -0.1,0.47 -0.31,0.8c-0.2,0.32 -0.4,0.53 -0.6,0.62c-0.16,0.08 -0.28,0.13 -0.36,0.15c-0.08,0.03 -0.14,0.04 -0.19,0.04c-0.06,0 -0.12,0 -0.18,0c-0.42,0 -0.75,-0.15 -0.98,-0.45c-0.2,-0.25 -0.31,-0.58 -0.31,-0.96c0,-0.25 0.05,-0.54 0.15,-0.87c0.1,-0.33 0.23,-0.6 0.38,-0.83c0.21,-0.33 0.35,-0.53 0.42,-0.6c0.03,-0.04 0.2,-0.18 0.48,-0.42c0.21,-0.18 0.37,-0.3 0.46,-0.35c0.06,-0.04 0.12,-0.06 0.18,-0.06c0.07,0 0.11,0.04 0.11,0.12c0,0.02 -0.11,0.13 -0.32,0.32c-0.15,0.15 -0.3,0.32 -0.45,0.53c-0.06,0.07 -0.14,0.21 -0.24,0.41c-0.11,0.24 -0.16,0.39 -0.16,0.47c0,0.01 0,0.02 0.02,0.04c0.01,0.01 0.02,0.02 0.04,0.02c0.11,-0.06 0.22,-0.12 0.34,-0.17c0.23,-0.12 0.4,-0.17 0.51,-0.17c0.2,0 0.41,0.12 0.63,0.37c0.26,0.29 0.38,0.62 0.38,0.99zm-0.87,0.66c0,-0.26 -0.1,-0.52 -0.28,-0.78c-0.18,-0.25 -0.37,-0.38 -0.57,-0.38c-0.07,0 -0.14,0.02 -0.2,0.05c-0.06,0.03 -0.09,0.08 -0.09,0.15c0,0.24 0.1,0.5 0.31,0.76c0.23,0.28 0.46,0.42 0.72,0.42c0.03,0 0.06,-0.01 0.08,-0.04c0.02,-0.03 0.03,-0.09 0.03,-0.18z" fill="#333333" id="svg_142"/>
    </g>
    <g id="svg_143">
     <path d="m336.93,170.39c0,-0.21 0.1,-0.47 0.31,-0.8c0.2,-0.32 0.4,-0.53 0.6,-0.62c0.16,-0.08 0.28,-0.13 0.36,-0.16c0.08,-0.02 0.14,-0.03 0.19,-0.03c0.07,0 0.12,0 0.18,0c0.42,0 0.75,0.14 0.98,0.44c0.2,0.26 0.31,0.58 0.31,0.96c0,0.26 -0.05,0.55 -0.15,0.88c-0.1,0.32 -0.23,0.6 -0.38,0.83c-0.21,0.33 -0.35,0.53 -0.42,0.6c-0.04,0.04 -0.2,0.18 -0.48,0.42c-0.21,0.18 -0.37,0.3 -0.46,0.35c-0.06,0.04 -0.12,0.06 -0.18,0.06c-0.07,0 -0.11,-0.04 -0.11,-0.12c0,-0.02 0.11,-0.13 0.31,-0.32c0.16,-0.15 0.31,-0.32 0.46,-0.53c0.06,-0.07 0.13,-0.21 0.23,-0.41c0.12,-0.24 0.17,-0.39 0.17,-0.47c0,-0.01 -0.01,-0.02 -0.02,-0.04c-0.01,-0.01 -0.03,-0.02 -0.04,-0.02c-0.11,0.06 -0.22,0.12 -0.34,0.17c-0.23,0.12 -0.41,0.18 -0.51,0.18c-0.2,0 -0.42,-0.13 -0.64,-0.38c-0.25,-0.29 -0.37,-0.62 -0.37,-0.99zm0.88,-0.66c0,0.26 0.09,0.52 0.27,0.77c0.18,0.26 0.37,0.39 0.57,0.39c0.07,0 0.14,-0.02 0.2,-0.05c0.06,-0.03 0.09,-0.08 0.09,-0.15c0,-0.25 -0.11,-0.5 -0.31,-0.76c-0.23,-0.28 -0.46,-0.42 -0.72,-0.42c-0.03,0 -0.06,0.01 -0.08,0.04c-0.02,0.03 -0.02,0.09 -0.02,0.18z" fill="#333333" id="svg_144"/>
    </g>
   </g>
   <g id="svg_145">
    <g id="svg_146">
     <path d="m333.7,130.08c0,-1 -4.36,-5.29 -4.36,-5.29s-4.26,4.42 -4.26,5.28c0,1.44 1.16,2.61 2.61,2.61c0.49,0 0.95,-0.14 1.34,-0.37l-1.63,2.78l3.96,0.01l-1.62,-2.79c0.39,0.24 0.85,0.38 1.34,0.38c1.44,0 2.62,-1.16 2.62,-2.61z" fill="#333333" id="svg_147"/>
     <path d="m333.7,130.08c0,-1 -4.36,-5.29 -4.36,-5.29s-0.01,0 -0.01,0.01l0,10.3l2.03,0l-1.62,-2.79c0.39,0.24 0.85,0.38 1.34,0.38c1.44,0 2.62,-1.16 2.62,-2.61z" fill="#616161" id="svg_148" opacity="0.2"/>
    </g>
    <g id="svg_149">
     <path d="m333.7,149.1c0,-1 -4.36,-5.29 -4.36,-5.29s-4.26,4.42 -4.26,5.28c0,1.44 1.16,2.61 2.61,2.61c0.49,0 0.95,-0.13 1.34,-0.37l-1.63,2.79l3.96,0l-1.62,-2.79c0.39,0.24 0.85,0.38 1.34,0.38c1.44,0 2.62,-1.16 2.62,-2.61z" fill="#333333" id="svg_150"/>
     <path d="m333.7,149.1c0,-1 -4.36,-5.29 -4.36,-5.29s-0.01,0 -0.01,0.01l0,10.3l2.03,0l-1.62,-2.79c0.39,0.24 0.85,0.38 1.34,0.38c1.44,0 2.62,-1.16 2.62,-2.61z" fill="#616161" id="svg_151" opacity="0.2"/>
    </g>
    <g id="svg_152">
     <path d="m310.25,130.08c0,-1 4.36,-5.29 4.36,-5.29s4.26,4.42 4.26,5.28c0,1.44 -1.17,2.61 -2.61,2.61c-0.49,0 -0.95,-0.14 -1.34,-0.37l1.63,2.78l-3.97,0.01l1.63,-2.79c-0.39,0.24 -0.85,0.38 -1.34,0.38c-1.44,0 -2.62,-1.16 -2.62,-2.61z" fill="#333333" id="svg_153"/>
     <path d="m310.25,130.08c0,-1 4.36,-5.29 4.36,-5.29s0.01,0 0.01,0.01l0,10.3l-2.04,0l1.63,-2.79c-0.39,0.24 -0.85,0.38 -1.34,0.38c-1.44,0 -2.62,-1.16 -2.62,-2.61z" fill="#616161" id="svg_154" opacity="0.2"/>
    </g>
    <g id="svg_155">
     <path d="m310.25,148.18c0,-1.01 4.36,-5.3 4.36,-5.3s4.26,4.43 4.26,5.28c0,1.44 -1.17,2.61 -2.61,2.61c-0.49,0.01 -0.95,-0.13 -1.34,-0.37l1.63,2.79l-3.97,0.01l1.63,-2.8c-0.39,0.24 -0.85,0.38 -1.34,0.38c-1.44,0 -2.62,-1.16 -2.62,-2.6z" fill="#333333" id="svg_156"/>
     <path d="m310.25,148.18c0,-1.01 4.36,-5.3 4.36,-5.3s0.01,0.01 0.01,0.01l0,10.3l-2.04,0.01l1.63,-2.8c-0.39,0.24 -0.85,0.38 -1.34,0.38c-1.44,0 -2.62,-1.16 -2.62,-2.6z" fill="#616161" id="svg_157" opacity="0.2"/>
    </g>
    <g id="svg_158">
     <path d="m333.68,167.12c0,1 -4.37,5.29 -4.37,5.29s-4.25,-4.42 -4.25,-5.28c0,-1.44 1.16,-2.61 2.6,-2.61c0.5,-0.01 0.96,0.13 1.35,0.37l-1.64,-2.79l3.97,-0.01l-1.62,2.8c0.39,-0.24 0.85,-0.38 1.34,-0.38c1.44,-0.01 2.62,1.16 2.62,2.61z" fill="#333333" id="svg_159"/>
     <path d="m333.68,167.12c0,1 -4.37,5.29 -4.37,5.29s0,-0.01 0,-0.01l0,-10.3l2.03,-0.01l-1.62,2.8c0.39,-0.24 0.85,-0.38 1.34,-0.38c1.44,-0.01 2.62,1.16 2.62,2.61z" fill="#616161" id="svg_160" opacity="0.2"/>
    </g>
    <g id="svg_161">
     <path d="m310.23,167.12c0,1 4.36,5.29 4.36,5.29s4.26,-4.42 4.26,-5.28c0,-1.44 -1.16,-2.61 -2.61,-2.61c-0.49,-0.01 -0.95,0.13 -1.34,0.37l1.63,-2.79l-3.97,-0.01l1.63,2.8c-0.39,-0.24 -0.85,-0.38 -1.35,-0.38c-1.44,-0.01 -2.61,1.16 -2.61,2.61z" fill="#333333" id="svg_162"/>
     <path d="m310.23,167.12c0,1 4.36,5.29 4.36,5.29s0,-0.01 0.01,-0.01l0,-10.3l-2.04,-0.01l1.63,2.8c-0.39,-0.24 -0.85,-0.38 -1.35,-0.38c-1.44,-0.01 -2.61,1.16 -2.61,2.61z" fill="#616161" id="svg_163" opacity="0.2"/>
    </g>
    <g id="svg_164">
     <path d="m306.79,131.99c0,-0.27 -1.16,-1.42 -1.16,-1.42s-1.13,1.18 -1.14,1.41c0,0.39 0.32,0.7 0.7,0.7c0.13,0 0.25,-0.04 0.36,-0.1l-0.44,0.74l1.06,0l-0.43,-0.74c0.1,0.06 0.22,0.1 0.35,0.1c0.39,0 0.7,-0.31 0.7,-0.69z" fill="#333333" id="svg_165"/>
     <path d="m306.79,131.99c0,-0.27 -1.16,-1.42 -1.16,-1.42s0,0.01 0,0.01l0,2.74l0.54,0l-0.43,-0.74c0.1,0.06 0.23,0.1 0.35,0.1c0.39,0 0.7,-0.31 0.7,-0.69z" fill="#616161" id="svg_166" opacity="0.2"/>
    </g>
    <g id="svg_167">
     <path d="m337.39,166.1c0,0.27 1.17,1.41 1.17,1.41s1.13,-1.18 1.13,-1.41c0,-0.38 -0.31,-0.69 -0.69,-0.69c-0.14,0 -0.26,0.03 -0.36,0.09l0.43,-0.74l-1.05,0l0.43,0.74c-0.1,-0.06 -0.23,-0.1 -0.36,-0.1c-0.38,0 -0.7,0.31 -0.7,0.7z" fill="#333333" id="svg_168"/>
     <path d="m337.39,166.1c0,0.27 1.17,1.41 1.17,1.41s0,0 0,0l0,-2.75l-0.54,0l0.43,0.74c-0.1,-0.06 -0.23,-0.1 -0.36,-0.1c-0.38,0 -0.7,0.31 -0.7,0.7z" fill="#616161" id="svg_169" opacity="0.2"/>
    </g>
   </g>
  </g>
 </g>

</svg>