<?xml version="1.0"?>
<svg width="40" height="56" xmlns="http://www.w3.org/2000/svg" xmlns:svg="http://www.w3.org/2000/svg" enable-background="new 0 0 450 450" version="1.1" xml:space="preserve">
 <g class="layer">
  <title>Layer 1</title>
  <g id="svg_99" transform="translate(-15.1966, 2.86929) translate(-286.442, -57.4703)">
   <g id="svg_100">
    <g id="svg_101">
     <path d="m306.17,110.43c-2.35,0 -4.27,-1.88 -4.28,-4.19l-0.12,-47.3c0,-2.33 1.91,-4.22 4.28,-4.22l31.26,0.06c2.35,0 4.26,1.9 4.26,4.22l0,47.2c0,2.31 -1.9,4.19 -4.25,4.19l-31.15,0.04z" fill="#C9C9C9" id="svg_102"/>
    </g>
    <path d="m306.56,110.31c-2.32,0 -4.21,-1.88 -4.21,-4.2l0,-47.19c0,-2.32 1.89,-4.2 4.21,-4.2l30.81,0c2.32,0 4.21,1.88 4.21,4.2l0,47.19c0,2.32 -1.89,4.2 -4.21,4.2l-30.81,0z" fill="#FFFFFF" id="svg_103"/>
    <g id="svg_104">
     <path d="m307.29,58.31c-0.07,0.14 -0.15,0.27 -0.21,0.4c-0.15,0.29 -0.27,0.54 -0.36,0.75c-0.11,0.24 -0.21,0.47 -0.3,0.68c-0.13,0.31 -0.19,0.47 -0.19,0.48c-0.08,0.15 -0.18,0.34 -0.31,0.56c-0.16,0.28 -0.28,0.47 -0.38,0.59c-0.16,0.21 -0.32,0.39 -0.48,0.54c-0.18,0.17 -0.39,0.32 -0.61,0.46c-0.02,-0.01 -0.03,-0.02 -0.04,-0.03c-0.02,-0.01 -0.03,-0.03 -0.03,-0.06c0,-0.03 0.1,-0.16 0.28,-0.4c0.12,-0.14 0.21,-0.26 0.26,-0.35c0.07,-0.12 0.14,-0.26 0.21,-0.41c0.07,-0.14 0.13,-0.3 0.2,-0.46c0.19,-0.38 0.34,-0.72 0.47,-1.04c0.08,-0.2 0.15,-0.41 0.23,-0.66c0,-0.08 -0.28,-0.12 -0.86,-0.12c-0.07,0 -0.16,0.01 -0.24,0.04c-0.09,0.03 -0.18,0.07 -0.25,0.14l-0.17,0l0,-0.13c0.27,-0.38 0.52,-0.64 0.76,-0.79c0.19,-0.12 0.4,-0.18 0.62,-0.18c0.06,0 0.17,0.01 0.31,0.03c0.13,0.02 0.24,0.02 0.31,0.02c0.11,0 0.19,0 0.25,-0.01c0.19,-0.02 0.33,-0.06 0.41,-0.13l0.1,0l0.02,0.08z" fill="#333333" id="svg_105"/>
    </g>
    <g id="svg_106">
     <path d="m336.89,107.25c0.08,-0.14 0.15,-0.27 0.22,-0.41c0.15,-0.29 0.27,-0.54 0.36,-0.74c0.11,-0.24 0.21,-0.47 0.3,-0.69c0.13,-0.31 0.19,-0.47 0.19,-0.47c0.08,-0.15 0.18,-0.34 0.31,-0.57c0.16,-0.27 0.28,-0.47 0.38,-0.59c0.16,-0.2 0.32,-0.38 0.48,-0.54c0.18,-0.17 0.39,-0.32 0.61,-0.45c0.02,0.01 0.03,0.01 0.04,0.03c0.02,0.01 0.03,0.03 0.03,0.05c0,0.03 -0.1,0.17 -0.28,0.4c-0.12,0.15 -0.21,0.27 -0.26,0.36c-0.07,0.12 -0.14,0.25 -0.21,0.4c-0.07,0.15 -0.14,0.31 -0.21,0.47c-0.18,0.37 -0.33,0.72 -0.46,1.04c-0.08,0.19 -0.15,0.41 -0.23,0.65c0,0.08 0.28,0.13 0.85,0.13c0.08,0 0.16,-0.02 0.25,-0.05c0.09,-0.02 0.18,-0.07 0.25,-0.13l0.17,0l0,0.12c-0.27,0.38 -0.52,0.64 -0.76,0.79c-0.19,0.12 -0.4,0.18 -0.62,0.18c-0.06,0 -0.17,-0.01 -0.31,-0.03c-0.14,-0.01 -0.24,-0.02 -0.31,-0.02c-0.11,0 -0.19,0.01 -0.25,0.01c-0.19,0.02 -0.33,0.07 -0.41,0.14l-0.11,0l-0.02,-0.08z" fill="#333333" id="svg_107"/>
    </g>
   </g>
   <g id="svg_108">
    <g id="svg_109">
     <path d="m333.7,64.11c0,-1.01 -4.37,-5.3 -4.37,-5.3s-4.25,4.43 -4.25,5.28c0,1.44 1.16,2.61 2.6,2.61c0.49,0 0.96,-0.13 1.35,-0.37l-1.64,2.79l3.97,0.01l-1.62,-2.8c0.39,0.24 0.85,0.38 1.34,0.38c1.44,0 2.62,-1.16 2.62,-2.6z" fill="#333333" id="svg_110"/>
     <path d="m333.7,64.11c0,-1.01 -4.37,-5.3 -4.37,-5.3s0,0.01 0,0.01l0,10.3l2.03,0.01l-1.62,-2.79c0.39,0.23 0.85,0.37 1.34,0.37c1.44,0 2.62,-1.16 2.62,-2.6z" fill="#616161" id="svg_111" opacity="0.2"/>
    </g>
    <g id="svg_112">
     <path d="m333.7,83.13c0,-1.01 -4.37,-5.3 -4.37,-5.3s-4.25,4.43 -4.25,5.28c0,1.44 1.16,2.61 2.6,2.61c0.49,0.01 0.96,-0.13 1.35,-0.37l-1.64,2.79l3.97,0.01l-1.62,-2.79c0.39,0.23 0.85,0.37 1.34,0.37c1.44,0.01 2.62,-1.16 2.62,-2.6z" fill="#333333" id="svg_113"/>
     <path d="m333.7,83.13c0,-1.01 -4.37,-5.3 -4.37,-5.3s0,0.01 0,0.01l0,10.3l2.03,0.01l-1.62,-2.79c0.39,0.23 0.85,0.37 1.34,0.37c1.44,0.01 2.62,-1.16 2.62,-2.6z" fill="#616161" id="svg_114" opacity="0.2"/>
    </g>
    <g id="svg_115">
     <path d="m310.25,64.11c0,-1.01 4.36,-5.3 4.36,-5.3s4.26,4.43 4.26,5.28c0,1.44 -1.16,2.61 -2.61,2.61c-0.49,0 -0.95,-0.13 -1.34,-0.37l1.63,2.79l-3.97,0.01l1.63,-2.8c-0.39,0.24 -0.85,0.38 -1.34,0.38c-1.44,0 -2.62,-1.16 -2.62,-2.6z" fill="#333333" id="svg_116"/>
     <path d="m310.25,64.11c0,-1.01 4.36,-5.3 4.36,-5.3s0.01,0.01 0.01,0.01l0,10.3l-2.04,0.01l1.63,-2.79c-0.39,0.23 -0.85,0.37 -1.34,0.37c-1.44,0 -2.62,-1.16 -2.62,-2.6z" fill="#616161" id="svg_117" opacity="0.2"/>
    </g>
    <g id="svg_118">
     <path d="m317.39,73.78c0,-1 4.36,-5.29 4.36,-5.29s4.26,4.43 4.26,5.28c0,1.44 -1.16,2.61 -2.6,2.61c-0.5,0 -0.96,-0.13 -1.35,-0.37l1.64,2.79l-3.97,0l1.62,-2.79c-0.39,0.24 -0.85,0.38 -1.34,0.38c-1.44,0 -2.62,-1.16 -2.62,-2.61z" fill="#333333" id="svg_119"/>
     <path d="m317.39,73.78c0,-1 4.36,-5.29 4.36,-5.29s0.01,0.01 0.01,0.01l0,10.3l-2.04,0l1.63,-2.79c-0.39,0.24 -0.85,0.38 -1.34,0.38c-1.44,0 -2.62,-1.16 -2.62,-2.61z" fill="#616161" id="svg_120" opacity="0.2"/>
    </g>
    <g id="svg_121">
     <path d="m310.25,82.2c0,-1 4.36,-5.29 4.36,-5.29s4.26,4.42 4.26,5.28c0,1.43 -1.16,2.61 -2.61,2.61c-0.49,0 -0.95,-0.14 -1.34,-0.37l1.63,2.78l-3.97,0.01l1.63,-2.79c-0.39,0.23 -0.85,0.37 -1.34,0.38c-1.44,0 -2.62,-1.17 -2.62,-2.61z" fill="#333333" id="svg_122"/>
     <path d="m310.25,82.2c0,-1 4.36,-5.29 4.36,-5.29s0.01,0 0.01,0.01l0,10.3l-2.04,0l1.63,-2.79c-0.39,0.23 -0.85,0.37 -1.34,0.38c-1.44,0 -2.62,-1.17 -2.62,-2.61z" fill="#616161" id="svg_123" opacity="0.2"/>
    </g>
    <g id="svg_124">
     <path d="m333.68,101.14c0,1 -4.37,5.29 -4.37,5.29s-4.25,-4.42 -4.25,-5.27c0,-1.45 1.16,-2.62 2.6,-2.62c0.5,0 0.96,0.13 1.35,0.37l-1.64,-2.78l3.97,-0.01l-1.62,2.79c0.39,-0.24 0.85,-0.38 1.34,-0.38c1.44,0 2.62,1.16 2.62,2.61z" fill="#333333" id="svg_125"/>
     <path d="m333.68,101.14c0,1 -4.37,5.29 -4.37,5.29s0,0 0,-0.01l0,-10.3l2.03,0l-1.62,2.79c0.39,-0.24 0.85,-0.38 1.34,-0.38c1.44,0 2.62,1.16 2.62,2.61z" fill="#616161" id="svg_126" opacity="0.2"/>
    </g>
    <g id="svg_127">
     <path d="m310.23,101.14c0,1 4.36,5.29 4.36,5.29s4.26,-4.42 4.26,-5.27c0,-1.45 -1.17,-2.62 -2.61,-2.62c-0.49,0 -0.95,0.13 -1.34,0.37l1.63,-2.78l-3.97,-0.01l1.63,2.79c-0.39,-0.24 -0.85,-0.38 -1.35,-0.38c-1.44,0 -2.61,1.16 -2.61,2.61z" fill="#333333" id="svg_128"/>
     <path d="m310.23,101.14c0,1 4.36,5.29 4.36,5.29s0,0 0.01,-0.01l0,-10.3l-2.04,0l1.63,2.79c-0.39,-0.24 -0.85,-0.38 -1.35,-0.38c-1.44,0 -2.61,1.16 -2.61,2.61z" fill="#616161" id="svg_129" opacity="0.2"/>
    </g>
    <g id="svg_130">
     <path d="m306.91,66.01c0,-0.27 -1.16,-1.41 -1.16,-1.41s-1.14,1.18 -1.14,1.4c0,0.39 0.31,0.7 0.7,0.7c0.13,0 0.25,-0.03 0.35,-0.1l-0.43,0.75l1.06,0l-0.44,-0.75c0.11,0.07 0.23,0.1 0.36,0.1c0.39,0 0.7,-0.31 0.7,-0.69z" fill="#333333" id="svg_131"/>
     <path d="m306.91,66.01c0,-0.27 -1.16,-1.41 -1.16,-1.41s-0.01,0 -0.01,0l0,2.75l0.55,0l-0.44,-0.75c0.11,0.07 0.23,0.1 0.36,0.1c0.39,0 0.7,-0.31 0.7,-0.69z" fill="#616161" id="svg_132" opacity="0.2"/>
    </g>
    <g id="svg_133">
     <path d="m337.51,100.12c0,0.27 1.16,1.41 1.16,1.41s1.14,-1.18 1.14,-1.4c0,-0.39 -0.32,-0.7 -0.7,-0.7c-0.13,0 -0.25,0.04 -0.36,0.1l0.44,-0.75l-1.06,0l0.43,0.75c-0.1,-0.06 -0.22,-0.1 -0.35,-0.1c-0.39,0 -0.7,0.31 -0.7,0.69z" fill="#333333" id="svg_134"/>
     <path d="m337.51,100.12c0,0.27 1.16,1.41 1.16,1.41s0,0 0,0l0,-2.75l-0.54,0l0.43,0.75c-0.1,-0.06 -0.22,-0.1 -0.35,-0.1c-0.39,0 -0.7,0.31 -0.7,0.69z" fill="#616161" id="svg_135" opacity="0.2"/>
    </g>
   </g>
  </g>
 </g>

</svg>