<?xml version="1.0"?>
<svg width="40" height="56" xmlns="http://www.w3.org/2000/svg" xmlns:svg="http://www.w3.org/2000/svg" enable-background="new 0 0 450 450" version="1.1" xml:space="preserve">
 <g class="layer">
  <title>Layer 1</title>
  <g id="svg_2185" transform="translate(-8.71413, 0.10627) translate(-50.0784, -385.095)">
   <g id="svg_2186">
    <g id="svg_2187">
     <path d="m63.33,440.85c-2.35,0.01 -4.27,-1.87 -4.28,-4.19l-0.12,-47.3c0,-2.33 1.91,-4.22 4.28,-4.22l31.26,0.06c2.35,0.01 4.26,1.9 4.26,4.22l0,47.21c0,2.31 -1.9,4.18 -4.25,4.19l-31.15,0.03z" fill="#C9C9C9" id="svg_2188"/>
    </g>
    <path d="m63.72,440.73c-2.32,0 -4.21,-1.88 -4.21,-4.2l0,-47.19c0,-2.31 1.89,-4.19 4.21,-4.19l30.81,0c2.32,0 4.21,1.88 4.21,4.19l0,47.19c0,2.32 -1.89,4.2 -4.21,4.2l-30.81,0z" fill="#FFFFFF" id="svg_2189"/>
    <g id="svg_2190">
     <path d="m64.45,391.53c0,0.09 -0.04,0.22 -0.12,0.38c-0.12,0.21 -0.29,0.43 -0.52,0.66c-0.25,0.26 -0.39,0.4 -0.41,0.42c-0.16,0.12 -0.36,0.18 -0.6,0.18c-0.32,0 -0.6,-0.13 -0.84,-0.37c-0.2,-0.22 -0.29,-0.42 -0.29,-0.61c0,-0.14 0.06,-0.3 0.2,-0.48c0.14,-0.19 0.28,-0.37 0.42,-0.55c-0.11,-0.1 -0.2,-0.2 -0.28,-0.32c-0.08,-0.11 -0.13,-0.24 -0.13,-0.39c0,-0.18 0.07,-0.36 0.21,-0.56c0.13,-0.18 0.23,-0.33 0.32,-0.45c0.21,-0.3 0.39,-0.49 0.53,-0.59c0.13,-0.09 0.28,-0.13 0.45,-0.13c0.24,0 0.45,0.07 0.63,0.21c0.17,0.14 0.26,0.32 0.26,0.56c0,0.26 -0.1,0.5 -0.31,0.73c-0.22,0.22 -0.32,0.38 -0.32,0.47c0.21,0.14 0.39,0.27 0.55,0.4c0.17,0.14 0.25,0.29 0.25,0.44zm-0.79,0.54c0,-0.13 -0.15,-0.29 -0.46,-0.48c-0.28,-0.17 -0.46,-0.25 -0.53,-0.25c-0.03,0 -0.07,0.05 -0.12,0.14c-0.05,0.09 -0.08,0.16 -0.08,0.23c0,0.16 0.1,0.32 0.3,0.48c0.19,0.13 0.37,0.2 0.54,0.2c0.08,0 0.16,-0.03 0.23,-0.1c0.08,-0.07 0.12,-0.14 0.12,-0.22zm-0.22,-1.94c0,-0.1 -0.06,-0.21 -0.17,-0.32c-0.12,-0.12 -0.27,-0.19 -0.42,-0.19c-0.08,0 -0.14,0.03 -0.19,0.07c-0.04,0.04 -0.07,0.1 -0.07,0.17c0,0.13 0.1,0.27 0.31,0.43c0.18,0.13 0.29,0.2 0.35,0.2c0.03,0 0.07,-0.04 0.12,-0.14c0.04,-0.08 0.07,-0.16 0.07,-0.22z" fill="#333333" id="svg_2191"/>
    </g>
    <g id="svg_2192">
     <path d="m94.06,434.87c0,-0.09 0.04,-0.21 0.12,-0.37c0.12,-0.22 0.29,-0.44 0.52,-0.67c0.25,-0.26 0.39,-0.39 0.41,-0.41c0.16,-0.12 0.36,-0.19 0.6,-0.19c0.32,0 0.6,0.13 0.84,0.38c0.19,0.21 0.29,0.41 0.29,0.61c0,0.14 -0.06,0.29 -0.2,0.48c-0.14,0.18 -0.28,0.36 -0.42,0.55c0.11,0.09 0.2,0.2 0.28,0.31c0.08,0.12 0.12,0.25 0.12,0.39c0,0.18 -0.06,0.37 -0.2,0.57c-0.13,0.17 -0.24,0.32 -0.32,0.44c-0.21,0.3 -0.39,0.5 -0.53,0.59c-0.14,0.09 -0.29,0.13 -0.45,0.13c-0.24,0 -0.45,-0.06 -0.63,-0.2c-0.18,-0.14 -0.26,-0.33 -0.26,-0.57c0,-0.25 0.1,-0.49 0.31,-0.72c0.21,-0.23 0.32,-0.39 0.32,-0.47c-0.21,-0.14 -0.4,-0.28 -0.55,-0.4c-0.17,-0.15 -0.25,-0.3 -0.25,-0.45zm0.79,-0.54c0,0.13 0.15,0.29 0.46,0.48c0.28,0.16 0.46,0.25 0.53,0.25c0.03,0 0.07,-0.04 0.12,-0.13c0.05,-0.1 0.08,-0.17 0.08,-0.24c0,-0.16 -0.1,-0.32 -0.31,-0.47c-0.18,-0.14 -0.36,-0.21 -0.53,-0.21c-0.08,0 -0.16,0.04 -0.24,0.1c-0.07,0.07 -0.11,0.15 -0.11,0.22zm0.22,1.94c0,0.11 0.06,0.21 0.17,0.32c0.13,0.13 0.27,0.19 0.42,0.19c0.07,0 0.14,-0.02 0.18,-0.07c0.05,-0.04 0.08,-0.1 0.08,-0.16c0,-0.14 -0.11,-0.28 -0.31,-0.44c-0.18,-0.13 -0.3,-0.2 -0.35,-0.2c-0.03,0 -0.07,0.05 -0.12,0.14c-0.04,0.09 -0.07,0.16 -0.07,0.22z" fill="#333333" id="svg_2193"/>
    </g>
   </g>
   <g id="svg_2194">
    <g id="svg_2195">
     <path d="m90.86,394.53c0,-1 -4.36,-5.29 -4.36,-5.29s-4.26,4.42 -4.26,5.27c0,1.44 1.16,2.61 2.61,2.62c0.49,0 0.95,-0.14 1.34,-0.38l-1.63,2.79l3.96,0.01l-1.62,-2.79c0.39,0.23 0.85,0.37 1.34,0.38c1.44,0 2.62,-1.17 2.62,-2.61z" fill="#333333" id="svg_2196"/>
     <path d="m90.86,394.53c0,-1 -4.36,-5.29 -4.36,-5.29s-0.01,0 -0.01,0l0,10.31l2.03,0l-1.62,-2.79c0.39,0.23 0.85,0.37 1.34,0.38c1.44,0 2.62,-1.17 2.62,-2.61z" fill="#616161" id="svg_2197" opacity="0.2"/>
    </g>
    <g id="svg_2198">
     <path d="m90.86,406.89c0,-1 -4.36,-5.29 -4.36,-5.29s-4.26,4.43 -4.26,5.28c0,1.44 1.16,2.61 2.61,2.61c0.49,0 0.95,-0.13 1.34,-0.37l-1.63,2.79l3.96,0l-1.62,-2.79c0.39,0.24 0.85,0.38 1.34,0.38c1.44,0 2.62,-1.16 2.62,-2.61z" fill="#333333" id="svg_2199"/>
     <path d="m90.86,406.89c0,-1 -4.36,-5.29 -4.36,-5.29s-0.01,0 -0.01,0.01l0,10.3l2.03,0l-1.62,-2.79c0.39,0.24 0.85,0.38 1.34,0.38c1.44,0 2.62,-1.16 2.62,-2.61z" fill="#616161" id="svg_2200" opacity="0.2"/>
    </g>
    <g id="svg_2201">
     <path d="m67.41,394.53c0,-1 4.36,-5.29 4.36,-5.29s4.26,4.42 4.26,5.27c0,1.44 -1.16,2.61 -2.61,2.62c-0.49,0 -0.95,-0.14 -1.34,-0.38l1.63,2.79l-3.97,0.01l1.63,-2.79c-0.39,0.23 -0.85,0.37 -1.34,0.38c-1.44,0 -2.62,-1.17 -2.62,-2.61z" fill="#333333" id="svg_2202"/>
     <path d="m67.41,394.53c0,-1 4.36,-5.29 4.36,-5.29s0.01,0 0.01,0l0,10.31l-2.04,0l1.63,-2.79c-0.39,0.23 -0.85,0.37 -1.34,0.38c-1.44,0 -2.62,-1.17 -2.62,-2.61z" fill="#616161" id="svg_2203" opacity="0.2"/>
    </g>
    <g id="svg_2204">
     <path d="m67.41,406.89c0,-1 4.36,-5.29 4.36,-5.29s4.26,4.43 4.26,5.28c0,1.44 -1.16,2.61 -2.61,2.61c-0.49,0 -0.95,-0.13 -1.34,-0.37l1.63,2.79l-3.97,0l1.63,-2.79c-0.39,0.24 -0.85,0.38 -1.34,0.38c-1.44,0 -2.62,-1.16 -2.62,-2.61z" fill="#333333" id="svg_2205"/>
     <path d="m67.41,406.89c0,-1 4.36,-5.29 4.36,-5.29s0.01,0 0.01,0.01l0,10.3l-2.04,0l1.63,-2.79c-0.39,0.24 -0.85,0.38 -1.34,0.38c-1.44,0 -2.62,-1.16 -2.62,-2.61z" fill="#616161" id="svg_2206" opacity="0.2"/>
    </g>
    <g id="svg_2207">
     <path d="m90.84,431.56c0,1 -4.36,5.3 -4.36,5.3s-4.26,-4.43 -4.26,-5.28c0,-1.44 1.16,-2.61 2.61,-2.61c0.49,-0.01 0.95,0.13 1.34,0.37l-1.63,-2.79l3.97,-0.01l-1.63,2.8c0.39,-0.24 0.85,-0.38 1.34,-0.38c1.44,-0.01 2.62,1.16 2.62,2.6z" fill="#333333" id="svg_2208"/>
     <path d="m90.84,431.56c0,1 -4.36,5.3 -4.36,5.3s-0.01,-0.01 -0.01,-0.01l0,-10.3l2.03,-0.01l-1.62,2.79c0.39,-0.23 0.85,-0.37 1.34,-0.38c1.44,0 2.62,1.17 2.62,2.61z" fill="#616161" id="svg_2209" opacity="0.2"/>
    </g>
    <g id="svg_2210">
     <path d="m90.84,419.2c0,1 -4.36,5.29 -4.36,5.29s-4.26,-4.42 -4.26,-5.28c0,-1.44 1.16,-2.61 2.61,-2.61c0.49,0 0.95,0.14 1.34,0.37l-1.63,-2.78l3.97,-0.01l-1.63,2.79c0.39,-0.23 0.85,-0.37 1.34,-0.38c1.44,0 2.62,1.17 2.62,2.61z" fill="#333333" id="svg_2211"/>
     <path d="m90.84,419.2c0,1 -4.36,5.29 -4.36,5.29s-0.01,0 -0.01,-0.01l0,-10.3l2.03,0l-1.62,2.79c0.39,-0.24 0.85,-0.37 1.34,-0.38c1.44,0 2.62,1.17 2.62,2.61z" fill="#616161" id="svg_2212" opacity="0.2"/>
    </g>
    <g id="svg_2213">
     <path d="m67.39,431.56c0,1 4.36,5.3 4.36,5.3s4.26,-4.43 4.26,-5.28c0,-1.44 -1.16,-2.61 -2.61,-2.61c-0.49,-0.01 -0.95,0.13 -1.34,0.37l1.63,-2.79l-3.97,-0.01l1.63,2.8c-0.39,-0.24 -0.85,-0.38 -1.34,-0.38c-1.44,-0.01 -2.62,1.16 -2.62,2.6z" fill="#333333" id="svg_2214"/>
     <path d="m67.39,431.56c0,1 4.36,5.3 4.36,5.3s0.01,-0.01 0.01,-0.01l0,-10.3l-2.03,-0.01l1.62,2.79c-0.39,-0.23 -0.85,-0.37 -1.34,-0.38c-1.44,0 -2.62,1.17 -2.62,2.61z" fill="#616161" id="svg_2215" opacity="0.2"/>
    </g>
    <g id="svg_2216">
     <path d="m67.39,419.2c0,1 4.36,5.29 4.36,5.29s4.26,-4.42 4.26,-5.28c0,-1.44 -1.16,-2.61 -2.61,-2.61c-0.49,0 -0.95,0.14 -1.34,0.37l1.63,-2.78l-3.97,-0.01l1.63,2.79c-0.39,-0.23 -0.85,-0.37 -1.34,-0.38c-1.44,0 -2.62,1.17 -2.62,2.61z" fill="#333333" id="svg_2217"/>
     <path d="m67.39,419.2c0,1 4.36,5.29 4.36,5.29s0.01,0 0.01,-0.01l0,-10.3l-2.03,0l1.62,2.79c-0.39,-0.24 -0.85,-0.37 -1.34,-0.38c-1.44,0 -2.62,1.17 -2.62,2.61z" fill="#616161" id="svg_2218" opacity="0.2"/>
    </g>
    <g id="svg_2219">
     <path d="m64.19,396.43c0,-0.26 -1.17,-1.41 -1.17,-1.41s-1.13,1.18 -1.13,1.41c0,0.38 0.31,0.7 0.69,0.7c0.14,0 0.26,-0.04 0.36,-0.1l-0.43,0.74l1.06,0l-0.44,-0.74c0.11,0.06 0.23,0.1 0.36,0.1c0.38,0 0.7,-0.31 0.7,-0.7z" fill="#333333" id="svg_2220"/>
     <path d="m64.19,396.43c0,-0.26 -1.17,-1.41 -1.17,-1.41s0,0 0,0l0,2.75l0.54,0l-0.43,-0.74c0.1,0.06 0.23,0.1 0.36,0.1c0.38,0 0.7,-0.31 0.7,-0.7z" fill="#616161" id="svg_2221" opacity="0.2"/>
    </g>
    <g id="svg_2222">
     <path d="m94.55,430.1c0,0.27 1.17,1.41 1.17,1.41s1.13,-1.18 1.13,-1.4c0,-0.39 -0.31,-0.7 -0.69,-0.7c-0.14,0 -0.26,0.04 -0.36,0.1l0.43,-0.74l-1.05,-0.01l0.43,0.75c-0.1,-0.06 -0.23,-0.1 -0.36,-0.1c-0.38,0 -0.7,0.31 -0.7,0.69z" fill="#333333" id="svg_2223"/>
     <path d="m94.55,430.1c0,0.27 1.17,1.41 1.17,1.41l0,0l0,-2.75l-0.54,0l0.43,0.75c-0.1,-0.07 -0.23,-0.1 -0.36,-0.1c-0.38,0 -0.7,0.31 -0.7,0.69z" fill="#616161" id="svg_2224" opacity="0.2"/>
    </g>
   </g>
  </g>
 </g>

</svg>