<?xml version="1.0"?>
<svg width="40" height="56" xmlns="http://www.w3.org/2000/svg" xmlns:svg="http://www.w3.org/2000/svg" enable-background="new 0 0 450 450" version="1.1" xml:space="preserve">
 <g class="layer">
  <title>Layer 1</title>
  <g id="svg_1995" transform="translate(-8.71413, 0.10627) translate(-50.0784, -319.125)">
   <g id="svg_1996">
    <g id="svg_1997">
     <path d="m63.33,374.88c-2.35,0 -4.27,-1.88 -4.28,-4.19l-0.12,-47.31c0,-2.33 1.91,-4.22 4.28,-4.21l31.26,0.05c2.35,0.01 4.26,1.91 4.26,4.23l0,47.2c0,2.31 -1.9,4.19 -4.25,4.19l-31.15,0.04z" fill="#C9C9C9" id="svg_1998"/>
    </g>
    <path d="m63.72,374.76c-2.32,0 -4.21,-1.88 -4.21,-4.2l0,-47.19c0,-2.32 1.89,-4.2 4.21,-4.2l30.81,0c2.32,0 4.21,1.88 4.21,4.2l0,47.19c0,2.31 -1.89,4.2 -4.21,4.2l-30.81,0z" fill="#FFFFFF" id="svg_1999"/>
    <g id="svg_2000">
     <path d="m64.45,324.27c0,0.3 -0.07,0.62 -0.2,0.97c-0.13,0.35 -0.27,0.61 -0.41,0.77c-0.26,0.29 -0.5,0.53 -0.72,0.72c-0.37,0.32 -0.67,0.48 -0.89,0.48c-0.02,0 -0.04,-0.01 -0.06,-0.03c-0.02,-0.02 -0.04,-0.03 -0.05,-0.06c0.2,-0.12 0.41,-0.31 0.62,-0.55c0.21,-0.24 0.42,-0.55 0.62,-0.96l0,-0.08c-0.02,-0.01 -0.03,-0.01 -0.05,-0.02c-0.16,0.07 -0.31,0.14 -0.44,0.19c-0.14,0.05 -0.26,0.08 -0.37,0.08c-0.21,0 -0.41,-0.12 -0.6,-0.35c-0.21,-0.27 -0.32,-0.59 -0.32,-0.96c0,-0.36 0.22,-0.75 0.66,-1.16c0.4,-0.37 0.74,-0.56 1.01,-0.56c0.25,0 0.5,0.13 0.75,0.4c0.3,0.31 0.45,0.69 0.45,1.12zm-0.93,0.54c0,-0.36 -0.11,-0.66 -0.33,-0.9c-0.19,-0.22 -0.39,-0.33 -0.6,-0.33c-0.04,0 -0.08,0.03 -0.09,0.09c-0.02,0.06 -0.03,0.12 -0.03,0.2c0,0.31 0.08,0.56 0.23,0.77c0.19,0.25 0.37,0.37 0.54,0.37c0.09,0 0.15,-0.01 0.19,-0.03c0.06,-0.04 0.09,-0.09 0.09,-0.17z" fill="#333333" id="svg_2001"/>
    </g>
    <g id="svg_2002">
     <path d="m94.06,370.17c0,-0.29 0.07,-0.61 0.2,-0.96c0.13,-0.35 0.27,-0.6 0.41,-0.77c0.26,-0.29 0.5,-0.53 0.73,-0.72c0.36,-0.31 0.66,-0.47 0.88,-0.47c0.02,0 0.04,0 0.06,0.02c0.02,0.02 0.04,0.04 0.06,0.06c-0.21,0.13 -0.42,0.31 -0.63,0.55c-0.21,0.23 -0.42,0.56 -0.62,0.96l0,0.08c0.02,0.01 0.03,0.02 0.05,0.02c0.16,-0.07 0.31,-0.13 0.45,-0.19c0.13,-0.05 0.25,-0.08 0.36,-0.08c0.21,0 0.41,0.12 0.6,0.35c0.21,0.27 0.32,0.59 0.32,0.96c0,0.37 -0.22,0.75 -0.66,1.16c-0.4,0.37 -0.74,0.56 -1,0.56c-0.26,0 -0.51,-0.13 -0.76,-0.39c-0.3,-0.32 -0.45,-0.7 -0.45,-1.14zm0.93,-0.53c0,0.36 0.11,0.66 0.33,0.91c0.19,0.21 0.4,0.32 0.6,0.32c0.05,0 0.08,-0.03 0.1,-0.09c0.01,-0.06 0.02,-0.12 0.02,-0.2c0,-0.31 -0.08,-0.56 -0.23,-0.76c-0.19,-0.25 -0.37,-0.38 -0.54,-0.38c-0.08,0 -0.15,0.01 -0.19,0.03c-0.06,0.03 -0.09,0.09 -0.09,0.17z" fill="#333333" id="svg_2003"/>
    </g>
   </g>
   <g id="svg_2004">
    <g id="svg_2005">
     <path d="m90.86,328.55c0,-1 -4.37,-5.29 -4.37,-5.29s-4.25,4.43 -4.25,5.28c0,1.44 1.16,2.61 2.6,2.61c0.5,0 0.96,-0.13 1.35,-0.37l-1.64,2.79l3.97,0l-1.62,-2.79c0.39,0.24 0.85,0.38 1.34,0.38c1.44,0 2.62,-1.16 2.62,-2.61z" fill="#333333" id="svg_2006"/>
     <path d="m90.86,328.55c0,-1 -4.37,-5.29 -4.37,-5.29s0,0.01 0,0.01l0,10.3l2.03,0l-1.62,-2.79c0.39,0.24 0.85,0.38 1.34,0.38c1.44,0 2.62,-1.16 2.62,-2.61z" fill="#616161" id="svg_2007" opacity="0.2"/>
    </g>
    <g id="svg_2008">
     <path d="m90.86,340.92c0,-1 -4.37,-5.29 -4.37,-5.29s-4.25,4.42 -4.25,5.27c0,1.44 1.16,2.61 2.6,2.61c0.5,0.01 0.96,-0.13 1.35,-0.37l-1.64,2.79l3.97,0.01l-1.62,-2.79c0.39,0.23 0.85,0.37 1.34,0.37c1.44,0.01 2.62,-1.16 2.62,-2.6z" fill="#333333" id="svg_2009"/>
     <path d="m90.86,340.92c0,-1 -4.37,-5.29 -4.37,-5.29s0,0 0,0l0,10.3l2.03,0.01l-1.62,-2.79c0.39,0.23 0.85,0.37 1.34,0.37c1.44,0.01 2.62,-1.16 2.62,-2.6z" fill="#616161" id="svg_2010" opacity="0.2"/>
    </g>
    <g id="svg_2011">
     <path d="m67.41,328.55c0,-1 4.36,-5.29 4.36,-5.29s4.26,4.43 4.26,5.28c0,1.44 -1.17,2.61 -2.61,2.61c-0.49,0 -0.95,-0.13 -1.34,-0.37l1.63,2.79l-3.97,0l1.63,-2.79c-0.39,0.24 -0.85,0.38 -1.34,0.38c-1.44,0 -2.62,-1.16 -2.62,-2.61z" fill="#333333" id="svg_2012"/>
     <path d="m67.41,328.55c0,-1 4.36,-5.29 4.36,-5.29s0.01,0.01 0.01,0.01l0,10.3l-2.04,0l1.63,-2.79c-0.39,0.24 -0.85,0.38 -1.34,0.38c-1.44,0 -2.62,-1.16 -2.62,-2.61z" fill="#616161" id="svg_2013" opacity="0.2"/>
    </g>
    <g id="svg_2014">
     <path d="m74.82,347.01c-0.01,-1 4.36,-5.29 4.36,-5.29s4.25,4.42 4.25,5.27c0.01,1.45 -1.16,2.62 -2.6,2.62c-0.49,0 -0.95,-0.13 -1.35,-0.37l1.64,2.78l-3.97,0.01l1.62,-2.79c-0.38,0.24 -0.84,0.37 -1.34,0.38c-1.44,0 -2.61,-1.17 -2.61,-2.61z" fill="#333333" id="svg_2015"/>
     <path d="m74.82,347.01c-0.01,-1 4.36,-5.29 4.36,-5.29s0,0 0.01,0.01l0,10.3l-2.04,0l1.62,-2.79c-0.38,0.24 -0.84,0.38 -1.34,0.38c-1.44,0 -2.61,-1.17 -2.61,-2.61z" fill="#616161" id="svg_2016" opacity="0.2"/>
    </g>
    <g id="svg_2017">
     <path d="m67.41,340.92c0,-1 4.36,-5.29 4.36,-5.29s4.26,4.42 4.26,5.27c0,1.44 -1.17,2.61 -2.61,2.61c-0.49,0.01 -0.95,-0.13 -1.34,-0.37l1.63,2.79l-3.97,0.01l1.63,-2.79c-0.39,0.23 -0.85,0.37 -1.34,0.37c-1.44,0.01 -2.62,-1.16 -2.62,-2.6z" fill="#333333" id="svg_2018"/>
     <path d="m67.41,340.92c0,-1 4.36,-5.29 4.36,-5.29s0.01,0 0.01,0l0,10.3l-2.04,0.01l1.63,-2.79c-0.39,0.23 -0.85,0.37 -1.34,0.37c-1.44,0.01 -2.62,-1.16 -2.62,-2.6z" fill="#616161" id="svg_2019" opacity="0.2"/>
    </g>
    <g id="svg_2020">
     <path d="m90.84,365.59c0,1 -4.36,5.29 -4.36,5.29s-4.26,-4.42 -4.26,-5.28c0,-1.44 1.16,-2.61 2.61,-2.61c0.49,0 0.95,0.13 1.34,0.37l-1.64,-2.78l3.97,-0.01l-1.62,2.79c0.39,-0.24 0.85,-0.38 1.34,-0.38c1.44,0 2.62,1.16 2.62,2.61z" fill="#333333" id="svg_2021"/>
     <path d="m90.84,365.59c0,1 -4.36,5.29 -4.36,5.29s-0.01,0 -0.01,-0.01l0,-10.3l2.03,0l-1.62,2.79c0.39,-0.24 0.85,-0.38 1.34,-0.38c1.44,0 2.62,1.16 2.62,2.61z" fill="#616161" id="svg_2022" opacity="0.2"/>
    </g>
    <g id="svg_2023">
     <path d="m90.84,353.22c0,1.01 -4.36,5.3 -4.36,5.3s-4.26,-4.43 -4.26,-5.28c0,-1.44 1.16,-2.61 2.61,-2.61c0.49,0 0.95,0.13 1.34,0.37l-1.64,-2.79l3.97,-0.01l-1.62,2.8c0.39,-0.24 0.85,-0.38 1.34,-0.38c1.44,-0.01 2.62,1.16 2.62,2.6z" fill="#333333" id="svg_2024"/>
     <path d="m90.84,353.22c0,1.01 -4.36,5.3 -4.36,5.3s-0.01,-0.01 -0.01,-0.01l0,-10.3l2.03,-0.01l-1.62,2.79c0.39,-0.23 0.85,-0.37 1.34,-0.37c1.44,-0.01 2.62,1.16 2.62,2.6z" fill="#616161" id="svg_2025" opacity="0.2"/>
    </g>
    <g id="svg_2026">
     <path d="m67.39,365.59c0,1 4.36,5.29 4.36,5.29s4.26,-4.42 4.26,-5.28c0,-1.44 -1.17,-2.61 -2.61,-2.61c-0.49,0 -0.95,0.13 -1.34,0.37l1.63,-2.78l-3.97,-0.01l1.63,2.79c-0.39,-0.24 -0.85,-0.38 -1.34,-0.38c-1.45,0 -2.62,1.16 -2.62,2.61z" fill="#333333" id="svg_2027"/>
     <path d="m67.39,365.59c0,1 4.36,5.29 4.36,5.29s0.01,0 0.01,-0.01l0,-10.3l-2.04,0l1.63,2.79c-0.39,-0.24 -0.85,-0.38 -1.34,-0.38c-1.45,0 -2.62,1.16 -2.62,2.61z" fill="#616161" id="svg_2028" opacity="0.2"/>
    </g>
    <g id="svg_2029">
     <path d="m67.39,353.22c0,1.01 4.36,5.3 4.36,5.3s4.26,-4.43 4.26,-5.28c0,-1.44 -1.17,-2.61 -2.61,-2.61c-0.49,0 -0.95,0.13 -1.34,0.37l1.63,-2.79l-3.97,-0.01l1.63,2.8c-0.39,-0.24 -0.85,-0.38 -1.34,-0.38c-1.45,-0.01 -2.62,1.16 -2.62,2.6z" fill="#333333" id="svg_2030"/>
     <path d="m67.39,353.22c0,1.01 4.36,5.3 4.36,5.3s0.01,-0.01 0.01,-0.01l0,-10.3l-2.04,-0.01l1.63,2.79c-0.39,-0.23 -0.85,-0.37 -1.34,-0.37c-1.45,-0.01 -2.62,1.16 -2.62,2.6z" fill="#616161" id="svg_2031" opacity="0.2"/>
    </g>
    <g id="svg_2032">
     <path d="m64,330.46c0,-0.27 -1.16,-1.41 -1.16,-1.41s-1.14,1.18 -1.14,1.4c0,0.39 0.31,0.7 0.7,0.7c0.13,0 0.25,-0.04 0.36,-0.1l-0.44,0.74l1.06,0l-0.43,-0.74c0.1,0.06 0.22,0.1 0.35,0.1c0.39,0 0.7,-0.31 0.7,-0.69z" fill="#333333" id="svg_2033"/>
     <path d="m64,330.46c0,-0.27 -1.16,-1.41 -1.16,-1.41s0,0 0,0l0,2.75l0.54,0l-0.43,-0.75c0.1,0.06 0.22,0.1 0.35,0.1c0.39,0 0.7,-0.31 0.7,-0.69z" fill="#616161" id="svg_2034" opacity="0.2"/>
    </g>
    <g id="svg_2035">
     <path d="m94.37,364.13c0,0.26 1.16,1.41 1.16,1.41s1.14,-1.18 1.14,-1.41c0,-0.38 -0.31,-0.69 -0.7,-0.69c-0.13,-0.01 -0.25,0.03 -0.35,0.09l0.43,-0.74l-1.06,0l0.44,0.74c-0.11,-0.06 -0.23,-0.1 -0.36,-0.1c-0.39,0 -0.7,0.31 -0.7,0.7z" fill="#333333" id="svg_2036"/>
     <path d="m94.37,364.13c0,0.26 1.16,1.41 1.16,1.41l0,-0.01l0,-2.74l-0.54,0l0.43,0.74c-0.1,-0.06 -0.22,-0.1 -0.35,-0.1c-0.39,0 -0.7,0.31 -0.7,0.7z" fill="#616161" id="svg_2037" opacity="0.2"/>
    </g>
   </g>
  </g>
 </g>

</svg>