<?xml version="1.0"?>
<svg width="40" height="56" xmlns="http://www.w3.org/2000/svg" xmlns:svg="http://www.w3.org/2000/svg" enable-background="new 0 0 450 450" version="1.1" xml:space="preserve">
 <g class="layer">
  <title>Layer 1</title>
  <g id="svg_2371" transform="translate(0.0174184, 0.0516793) scale(1.01348, 1) translate(-0.0174184, -0.0516793) translate(0.0174184, 0.0500266) matrix(1, 0, 0, 1.01544, -205.154, -190.054)">
   <g id="svg_2372">
    <g id="svg_2373">
     <path d="m209.6,242.12c-2.32,0 -4.21,-1.84 -4.22,-4.12l-0.12,-46.58c0,-2.29 1.89,-4.15 4.21,-4.15l30.78,0.06c2.32,0 4.2,1.87 4.2,4.16l0,46.47c0,2.27 -1.88,4.12 -4.19,4.13l-30.66,0.03z" fill="#C9C9C9" id="svg_2374"/>
    </g>
    <path d="m209.98,242.01c-2.29,0 -4.15,-1.86 -4.15,-4.14l0,-46.46c0,-2.28 1.86,-4.13 4.15,-4.13l30.33,0c2.29,0 4.15,1.85 4.15,4.13l0,46.46c0,2.28 -1.86,4.14 -4.15,4.14l-30.33,0z" fill="#FFFFFF" id="svg_2375"/>
    <g id="svg_2376">
     <path d="m238.06,234.62l1.28,0l0,2.1l0.78,0c0.04,-0.05 0.09,-0.19 0.15,-0.41c0.13,-0.54 0.29,-0.97 0.48,-1.31c0.07,-0.13 0.16,-0.25 0.27,-0.33c0.12,-0.1 0.26,-0.16 0.4,-0.16c0.1,0 0.2,0.03 0.31,0.11c0.14,0.08 0.21,0.18 0.21,0.3c0,0.05 -0.02,0.1 -0.06,0.14c-0.04,0.04 -0.09,0.05 -0.14,0.05c-0.11,0 -0.18,-0.06 -0.18,-0.19c-0.01,-0.12 -0.06,-0.19 -0.15,-0.19c-0.22,0 -0.37,0.11 -0.45,0.33c-0.05,0.15 -0.07,0.36 -0.07,0.63c0,0.17 0,0.36 0.02,0.57c0.02,0.21 0.04,0.43 0.06,0.67c0,0.27 -0.05,0.52 -0.16,0.75c-0.09,0.19 -0.23,0.38 -0.42,0.58c-0.11,0.12 -0.29,0.29 -0.53,0.5l0.04,0.07l1.13,0c0.07,0 0.14,-0.01 0.2,-0.03c0.11,-0.03 0.23,-0.07 0.34,-0.1l0,0.07c-0.05,0.07 -0.08,0.13 -0.11,0.17c-0.07,0.12 -0.12,0.18 -0.14,0.18c-0.01,0 -0.04,-0.02 -0.08,-0.04c-0.05,-0.02 -0.1,-0.03 -0.14,-0.03l-3.04,0l0,-4.43zm1.32,2.43l0,1.69c0.11,-0.03 0.23,-0.15 0.35,-0.36c0.04,-0.08 0.09,-0.19 0.15,-0.34c0.04,-0.1 0.07,-0.22 0.1,-0.36c0.07,-0.28 0.11,-0.43 0.11,-0.44l0,-0.19l-0.71,0z" fill="#333333" id="svg_2377"/>
    </g>
    <g id="svg_2378">
     <path d="m212.95,195.18l-1.28,0l0,-2.11l-0.78,0c-0.05,0.06 -0.1,0.19 -0.15,0.41c-0.14,0.54 -0.3,0.97 -0.48,1.31c-0.08,0.14 -0.17,0.25 -0.27,0.33c-0.13,0.11 -0.27,0.16 -0.4,0.16c-0.1,0 -0.21,-0.03 -0.32,-0.1c-0.14,-0.09 -0.21,-0.19 -0.21,-0.3c0,-0.06 0.02,-0.11 0.07,-0.15c0.04,-0.03 0.08,-0.05 0.13,-0.05c0.12,0 0.18,0.06 0.19,0.19c0.01,0.13 0.05,0.19 0.15,0.19c0.21,0 0.36,-0.11 0.44,-0.33c0.05,-0.14 0.08,-0.35 0.08,-0.63c0,-0.16 -0.01,-0.35 -0.03,-0.56c-0.01,-0.22 -0.03,-0.44 -0.05,-0.67c0,-0.28 0.05,-0.53 0.16,-0.76c0.09,-0.18 0.22,-0.38 0.41,-0.58c0.12,-0.12 0.29,-0.28 0.54,-0.5l-0.04,-0.06l-1.13,0c-0.08,0 -0.14,0 -0.2,0.02c-0.12,0.04 -0.23,0.07 -0.34,0.11l0,-0.07c0.04,-0.08 0.08,-0.14 0.1,-0.17c0.08,-0.12 0.13,-0.18 0.14,-0.18c0.01,0 0.04,0.01 0.09,0.03c0.05,0.03 0.1,0.04 0.14,0.04l3.04,0l0,4.43zm-1.32,-2.44l0,-1.69c-0.12,0.03 -0.24,0.15 -0.35,0.37c-0.05,0.07 -0.09,0.18 -0.15,0.33c-0.04,0.1 -0.08,0.22 -0.11,0.36c-0.07,0.29 -0.1,0.43 -0.11,0.44l0,0.19l0.72,0z" fill="#333333" id="svg_2379"/>
    </g>
   </g>
   <g id="svg_2380">
    <g id="svg_2381">
     <path d="m233.79,214.79c0.01,-1.98 -8.64,-10.48 -8.64,-10.48s-8.43,8.76 -8.43,10.45c0,2.85 2.31,5.17 5.16,5.18c0.98,0 1.89,-0.27 2.67,-0.74l-3.24,5.52l7.86,0.02l-3.22,-5.53c0.77,0.46 1.68,0.74 2.66,0.74c2.86,0.01 5.18,-2.3 5.18,-5.16z" fill="#333333" id="svg_2382"/>
     <path d="m233.79,214.79c0.01,-1.98 -8.64,-10.48 -8.64,-10.48s-0.01,0.01 -0.01,0.02l0,20.4l4.03,0.01l-3.22,-5.53c0.77,0.46 1.68,0.74 2.66,0.74c2.86,0.01 5.18,-2.3 5.18,-5.16z" fill="#616161" id="svg_2383" opacity="0.2"/>
    </g>
    <g id="svg_2384">
     <path d="m212.51,198.13c0,-0.26 -1.1,-1.34 -1.1,-1.34s-1.07,1.12 -1.08,1.33c0,0.37 0.3,0.66 0.66,0.66c0.13,0 0.24,-0.03 0.34,-0.09l-0.41,0.7l1,0.01l-0.41,-0.71c0.1,0.06 0.22,0.1 0.34,0.1c0.37,0 0.66,-0.3 0.66,-0.66z" fill="#333333" id="svg_2385"/>
     <path d="m212.51,198.13c0,-0.26 -1.1,-1.34 -1.1,-1.34s0,0 0,0l0,2.61l0.51,0l-0.41,-0.71c0.1,0.06 0.22,0.1 0.34,0.1c0.37,0 0.66,-0.3 0.66,-0.66z" fill="#616161" id="svg_2386" opacity="0.2"/>
    </g>
    <g id="svg_2387">
     <path d="m238.54,231.74c0,0.26 1.1,1.34 1.1,1.34s1.08,-1.12 1.08,-1.33c0,-0.37 -0.3,-0.66 -0.66,-0.66c-0.13,0 -0.24,0.03 -0.34,0.09l0.41,-0.7l-1,-0.01l0.41,0.71c-0.1,-0.06 -0.21,-0.1 -0.34,-0.1c-0.36,0 -0.66,0.3 -0.66,0.66z" fill="#333333" id="svg_2388"/>
     <path d="m238.54,231.74c0,0.26 1.1,1.34 1.1,1.34l0,0l0,-2.61l-0.51,0l0.41,0.71c-0.1,-0.06 -0.22,-0.1 -0.34,-0.1c-0.36,0 -0.66,0.3 -0.66,0.66z" fill="#616161" id="svg_2389" opacity="0.2"/>
    </g>
   </g>
  </g>
 </g>

</svg>