<?xml version="1.0"?>
<svg width="40" height="56" xmlns="http://www.w3.org/2000/svg" xmlns:svg="http://www.w3.org/2000/svg" enable-background="new 0 0 450 450" version="1.1" xml:space="preserve">
 <g class="layer">
  <title>Layer 1</title>
  <g id="svg_672" transform="translate(-18.8794) translate(-40.0337, -187.552)">
   <g id="svg_673">
    <g id="svg_674">
     <path d="m63.36,243.36c-2.35,0 -4.27,-1.88 -4.27,-4.18l-0.12,-47.23c-0.01,-2.33 1.91,-4.21 4.26,-4.21l31.21,0.06c2.35,0 4.26,1.89 4.26,4.21l0,47.13c0,2.3 -1.9,4.18 -4.24,4.18l-31.1,0.04z" fill="#C9C9C9" id="svg_675"/>
     <path d="m63.74,243.21c-2.32,0 -4.2,-1.88 -4.2,-4.19l0,-47.12c0,-2.31 1.88,-4.19 4.2,-4.19l30.76,0c2.32,0 4.21,1.88 4.21,4.19l0,47.12c0,2.31 -1.89,4.19 -4.21,4.19l-30.76,0z" fill="#FFFFFF" id="svg_676"/>
     <g id="svg_677">
      <path d="m94.5,242.36l-30.76,0c-1.79,0 -3.26,-1.46 -3.26,-3.25l0,-47.11c0,-1.72 1.37,-3.13 2.1,-3.4l0.11,-0.04l30.92,0.01c3.06,0.24 4.15,1.93 4.15,3.43l0,47.11c0,1.79 -1.46,3.25 -3.26,3.25zm-31.55,-52.51c-0.33,0.21 -1.18,1.08 -1.18,2.15l0,47.11c0,1.08 0.88,1.96 1.97,1.96l30.76,0c1.08,0 1.97,-0.88 1.97,-1.96l0,-47.11c0,-1.19 -1.1,-2 -2.94,-2.15l-30.58,0z" fill="#333333" id="svg_678"/>
     </g>
     <g id="svg_679">
      <path d="m66.4,191.62c-0.13,0.21 -0.29,0.38 -0.48,0.49c-0.18,0.11 -0.37,0.17 -0.56,0.17c-0.06,0 -0.27,-0.05 -0.65,-0.14c-0.17,-0.04 -0.33,-0.07 -0.47,-0.07c-0.09,0 -0.18,0.01 -0.27,0.04c-0.09,0.02 -0.17,0.06 -0.23,0.11l-0.07,0l0,-0.09c0.12,-0.28 0.28,-0.48 0.45,-0.6c0.18,-0.13 0.41,-0.19 0.69,-0.19c0.21,0 0.41,0.04 0.6,0.1c0.19,0.07 0.37,0.1 0.54,0.1c0.06,0 0.13,0 0.2,0c0.08,-0.01 0.16,-0.01 0.25,-0.03l0,0.11zm0.01,3.57c0,0.4 -0.15,0.72 -0.45,0.97c-0.3,0.24 -0.69,0.36 -1.16,0.36c-0.29,0 -0.53,-0.06 -0.72,-0.17c-0.24,-0.13 -0.35,-0.33 -0.35,-0.58c0,-0.12 0.03,-0.22 0.1,-0.31c0.09,-0.12 0.21,-0.18 0.39,-0.18c0.11,0 0.2,0.03 0.28,0.11c0.09,0.07 0.13,0.15 0.13,0.26c0,0.17 -0.07,0.29 -0.22,0.35c-0.15,0.06 -0.22,0.11 -0.22,0.13c0.02,0.05 0.05,0.09 0.08,0.12c0.08,0.07 0.21,0.11 0.37,0.11c0.16,0 0.3,-0.04 0.42,-0.11c0.12,-0.08 0.17,-0.19 0.17,-0.33l0,-3.43c0.21,-0.07 0.41,-0.14 0.59,-0.21c0.19,-0.06 0.35,-0.16 0.49,-0.29l0.1,0l0,3.2z" fill="#333333" id="svg_680"/>
     </g>
     <g id="svg_681">
      <path d="m91.98,236.43c0,-0.4 0.15,-0.72 0.46,-0.97c0.3,-0.24 0.69,-0.36 1.16,-0.36c0.29,0 0.53,0.05 0.72,0.17c0.23,0.13 0.35,0.33 0.35,0.58c0,0.11 -0.03,0.22 -0.1,0.31c-0.09,0.12 -0.22,0.18 -0.39,0.18c-0.11,0 -0.2,-0.03 -0.29,-0.1c-0.08,-0.08 -0.12,-0.16 -0.12,-0.27c0,-0.18 0.07,-0.29 0.22,-0.35c0.14,-0.06 0.22,-0.11 0.22,-0.13c-0.03,-0.05 -0.05,-0.09 -0.08,-0.12c-0.09,-0.07 -0.21,-0.11 -0.37,-0.11c-0.17,0 -0.31,0.04 -0.42,0.11c-0.12,0.08 -0.17,0.19 -0.17,0.33l0,3.43c-0.21,0.07 -0.41,0.14 -0.59,0.21c-0.19,0.06 -0.35,0.16 -0.49,0.29l-0.11,0l0,-3.2zm0.02,3.57c0.13,-0.21 0.28,-0.38 0.47,-0.49c0.19,-0.11 0.38,-0.17 0.57,-0.17c0.06,0 0.27,0.05 0.64,0.14c0.18,0.04 0.34,0.07 0.48,0.07c0.09,0 0.18,-0.02 0.27,-0.04c0.09,-0.02 0.17,-0.06 0.23,-0.11l0.07,0l0,0.09c-0.12,0.28 -0.28,0.48 -0.45,0.6c-0.18,0.13 -0.41,0.19 -0.69,0.19c-0.21,0 -0.41,-0.03 -0.6,-0.1c-0.19,-0.07 -0.37,-0.1 -0.55,-0.1c-0.05,0 -0.12,0 -0.19,0c-0.08,0.01 -0.16,0.01 -0.25,0.03l0,-0.11z" fill="#333333" id="svg_682"/>
     </g>
    </g>
    <g id="svg_683">
     <g id="svg_684">
      <g id="svg_685">
       <polygon fill="#757575" id="svg_686" points="76.133,205.064 74.748,205.612 75.065,206.195 80.548,206.129 80.934,205.612        79.709,205.064      "/>
       <g id="svg_687">
        <rect fill="#EBB07A" height="3.73" id="svg_688" width="3.57" x="76.14" y="203.35"/>
        <path d="m79.71,204.07l0,0.91c-0.44,0.41 -0.93,0.68 -1.46,0.68l-0.67,0c-0.52,0 -1.01,-0.26 -1.44,-0.66l0,-0.9l0.3,0.49l0.08,-1.24l2.78,0l0.08,1.24l0.33,-0.52z" fill="#616161" id="svg_689" opacity="0.2"/>
        <path d="m78.25,194.85l-0.34,0l-0.34,0c-1.76,0 -3.19,1.2 -3.19,2.69c0,0 0.01,3.65 0.04,3.82c0.24,1.58 1.56,4.01 3.15,4.01l0.34,0l0.34,0c1.59,0 2.91,-2.43 3.15,-4.01c0.03,-0.17 0.04,-3.82 0.04,-3.82c0,-1.49 -1.43,-2.69 -3.19,-2.69z" fill="#EBB07A" id="svg_690"/>
        <path d="m78.77,205.6c0.72,0 1.31,-0.58 1.31,-1.3c0,-0.5 -1.83,-2.65 -2.18,-2.65c-0.35,0 -2.13,2.21 -2.13,2.64c0,0.72 0.58,1.3 1.3,1.3l0.01,0c0.24,0 0.47,-0.06 0.66,-0.18l0.36,0c0.19,0.12 0.42,0.19 0.67,0.19l0,0z" fill="#333333" id="svg_691"/>
        <path d="m78.77,203.97c-0.1,0 -0.18,-0.04 -0.23,-0.06l-0.2,-0.13l-0.84,0l-0.2,0.13c-0.07,0.04 -0.14,0.05 -0.22,0.05c-0.13,0 -0.24,-0.04 -0.32,-0.13c-0.06,-0.05 -0.09,-0.11 -0.12,-0.19c0.19,-0.29 0.99,-1.52 1.27,-1.52c0.28,0 1.12,1.22 1.29,1.51c-0.02,0.11 -0.08,0.17 -0.11,0.21c-0.09,0.08 -0.2,0.13 -0.32,0.13l0,0z" fill="#EBB07A" id="svg_692"/>
        <g id="svg_693">
         <path d="m75.86,199.17c-0.07,0.08 -0.11,0.18 -0.11,0.28c0,0.28 0.27,0.51 0.6,0.51c0.32,0 0.59,-0.23 0.59,-0.51c0,-0.1 -0.04,-0.2 -0.11,-0.28l-0.97,0z" fill="#333333" id="svg_694"/>
         <polygon fill="#616161" id="svg_695" opacity="0.2" points="78.141,198.68 77.912,198.68 77.682,198.68 77.364,201.02 77.912,201.65          78.457,201.02        "/>
         <path d="m79.96,199.17c0.07,0.08 0.11,0.18 0.11,0.28c0,0.28 -0.27,0.51 -0.59,0.51c-0.33,0 -0.6,-0.23 -0.6,-0.51c0,-0.1 0.04,-0.2 0.11,-0.28l0.97,0z" fill="#333333" id="svg_696"/>
        </g>
        <g id="svg_697" opacity="0.2">
         <rect fill="#616161" height="0.32" id="svg_698" width="1.31" x="77.27" y="202.83"/>
        </g>
        <polygon fill="#333333" id="svg_699" points="78.824,197.904 80.593,198.118 78.824,198.333       "/>
        <polygon fill="#333333" id="svg_700" points="76.999,198.333 75.267,198.118 76.999,197.904       "/>
       </g>
       <path d="m86.83,206.08l-1.35,1.27l-0.59,1.8c0,0 2.01,-0.4 2.02,-0.35l-0.08,-2.72z" fill="#757575" id="svg_701"/>
       <path d="m69.13,206.08l1.35,1.27l0.6,1.8c0,0 -2.01,-0.4 -2.02,-0.35l0.07,-2.72z" fill="#757575" id="svg_702"/>
       <path d="m69.94,207.08l-0.19,0.38l-0.44,1.44c0,0 2.5,-0.7 2.39,-0.62l-1.76,-1.2z" fill="#1C1C1C" id="svg_703"/>
       <polygon fill="#ABABAB" id="svg_704" points="88.461,211.031 87.111,211.434 84.678,212.16 84.522,212.206 81.4,213.138        81.313,213.165 81.122,213.22 80.169,213.505 79.802,213.615 78.613,213.971 78.021,214.146 75.722,214.834 75.241,214.975        75.133,215.006 74.532,215.186 74.153,215.301 73.064,215.626 71.423,216.115 71.42,215.651 71.408,214.299 70.327,216.127        70.327,216.44 69.183,216.783 66.438,217.602 66.438,213.751 66.447,213.552 66.447,213.536 66.447,213.533 66.474,212.954        66.567,212.738 67.107,211.455 67.648,210.176 68.225,208.806 68.441,208.293 68.684,207.715 69.086,207.618 69.754,207.46        69.786,207.449 69.838,207.439 69.92,207.416 69.963,207.408 70.105,207.372 70.3,207.324 70.303,207.324 70.323,207.317        70.423,207.294 72.248,206.854 72.441,206.806 72.525,206.788 72.723,206.735 74.184,206.384 74.21,206.379 74.377,206.336        74.93,206.199 75.052,206.171 76.135,205.911 79.709,205.911 80.557,206.118 80.763,206.168 80.881,206.195 82.176,206.511        83.344,206.795 85.516,207.32 85.641,207.351 86.144,207.474 86.835,207.643 86.877,207.649 87.138,207.715 87.678,209.069        88.22,210.427 88.372,210.803      "/>
       <polygon fill="#FFFFFF" id="svg_705" opacity="0.2" points="82.176,206.511 78.416,210.273 78.254,210.434 77.615,211.072        77.609,211.079 76.576,212.112 76.522,212.167 74.714,213.973 74.16,214.529 73.905,214.782 73.628,215.061 73.064,215.626        71.423,216.115 71.42,215.651 73.103,213.973 73.382,213.692 73.577,213.498 74.155,212.916 74.332,212.738 74.509,212.564        74.582,212.49 76.71,210.365 76.744,210.332 76.824,210.251 76.826,210.247 77.436,209.636 77.591,209.48 80.881,206.195             "/>
       <polygon fill="#FFFFFF" id="svg_706" opacity="0.2" points="86.835,207.643 84.575,209.901 81.371,213.107 81.313,213.165        81.122,213.22 80.169,213.505 79.802,213.615 78.613,213.971 78.021,214.146 75.722,214.834 75.241,214.975 75.133,215.006        75.217,214.922 75.557,214.582 77.171,212.971 77.335,212.807 78.205,211.936 78.306,211.835 79.154,210.985 83.344,206.795        85.516,207.32 85.641,207.351 86.144,207.474      "/>
       <path d="m81.4,213.14l-0.09,0.02l-0.19,0.06l-0.95,0.28l-0.37,0.12l-1.19,0.35l-0.59,0.18l-2.3,0.68l-0.48,0.14l-0.11,0.04l-0.6,0.18l-0.38,0.11l-0.24,-0.52l-0.53,-1.09l-1.69,-3.51l-0.81,-1.71l-0.08,-0.16l0,-0.01l-0.46,-0.95l0,0l-0.01,-0.03l0.09,-0.03l1.83,-0.44l0.19,-0.04l0.09,-0.02l0.19,-0.06l1.47,-0.35l0.02,0l0.17,-0.05c0.52,0.53 1.74,1.73 3.21,3.15c0.27,0.26 0.55,0.52 0.83,0.79c0.24,0.24 0.48,0.47 0.74,0.71c0.73,0.71 1.48,1.43 2.21,2.13c0.01,0.01 0.02,0.02 0.03,0.03z" fill="#616161" id="svg_707" opacity="0.2"/>
       <path d="m78.02,214.15l-2.3,0.68l-0.48,0.14l-0.11,0.04l-0.6,0.18l-0.37,-0.66l-0.58,-1.03l-1.89,-3.32l-0.67,-1.18l-0.27,-0.5l-0.65,-1.13l-0.16,-0.29l0.2,-0.05l3.78,-0.95c0.04,0.06 0.13,0.16 0.26,0.3c0.54,0.58 1.78,1.81 3.25,3.26c0.27,0.26 0.54,0.53 0.82,0.79c0.25,0.24 0.49,0.48 0.74,0.72c0.7,0.69 1.43,1.39 2.13,2.07l-0.95,0.29l-0.37,0.11l-1.19,0.35l-0.59,0.18z" fill="#333333" id="svg_708"/>
       <polygon fill="#EBEBEB" id="svg_709" points="74.748,205.612 74.931,206.203 77.761,207.845 77.678,205.911      "/>
       <polygon fill="#EBEBEB" id="svg_710" points="80.934,205.612 80.749,206.203 77.92,207.845 78.002,205.911      "/>
       <path d="m77.61,211.07l0.53,0.56c-0.19,-0.19 -0.37,-0.38 -0.53,-0.55c-0.31,-0.33 -0.58,-0.61 -0.79,-0.83c-0.19,-0.21 -0.34,-0.36 -0.42,-0.44l0.43,0.44l0.78,0.82z" fill="#616161" id="svg_711" opacity="0.2"/>
       <path d="m78.31,211.84c0.63,0.59 1.26,1.16 1.86,1.66l-0.37,0.12l-1.6,-1.68l-0.7,-0.75l-0.08,-0.08l-0.71,-0.74l-1.41,-1.48l-0.03,-0.05c0.01,0.02 0.02,0.03 0.04,0.04c0.43,0.45 0.92,0.94 1.43,1.45c0.24,0.24 0.49,0.48 0.74,0.72c0.03,0.02 0.05,0.05 0.08,0.08c0.25,0.24 0.49,0.47 0.75,0.71z" fill="#616161" id="svg_712" opacity="0.2"/>
       <polygon fill="#616161" id="svg_713" opacity="0.2" points="75.722,214.834 75.241,214.975 75.217,214.922 74.714,213.973        74.155,212.916 73.539,211.738 72.792,210.42 74.332,212.738 74.977,213.71 75.557,214.582      "/>
       <polygon fill="#616161" id="svg_714" opacity="0.2" points="78.613,213.971 78.021,214.146 77.582,213.483 77.171,212.971        76.522,212.167 76.209,211.778 76.576,212.112 77.335,212.807      "/>
       <polygon fill="#616161" id="svg_715" opacity="0.2" points="71.408,214.299 70.327,216.127 70.327,216.44 69.183,216.783        68.349,216.614 69.496,216.092      "/>
       <polygon fill="#616161" id="svg_716" opacity="0.2" points="88.461,211.031 87.111,211.434 84.678,212.16 84.522,212.206        84.376,210.379 84.575,209.901 84.889,209.15 85.641,207.351 86.144,207.474 86.835,207.643 86.877,207.649 87.138,207.715        87.678,209.069 88.22,210.427 88.372,210.803      "/>
       <path d="m87.11,211.43l-2.43,0.73l-0.02,-1.73l0.63,-1.24l0.06,-0.13l0.79,-1.59l0.69,-1.39c0,0 1.77,2.23 1.82,2.19c0.02,0 0.07,0.26 0.14,0.66c0.08,0.49 0.19,1.2 0.3,1.91l-0.57,0.17l-0.06,0.02l-1.35,0.4z" fill="#ABABAB" id="svg_717"/>
       <path d="m71.46,210.57l-0.05,3.08l-4.19,-0.71c0,0 0,-0.17 0.02,-0.34l1.2,-4.31l0.24,-0.58l1.11,-0.26l0.05,-0.01l0.08,-0.03l0.04,0l1.5,3.16z" fill="#616161" id="svg_718" opacity="0.2"/>
       <path d="m71.41,214l-3.95,-0.36l-1.01,-0.09l0,0c0,0 0,0 0,-0.02c0,0 0,0 0,0c0.01,-0.08 0.05,-0.38 0.12,-0.79c0.22,-1.48 0.67,-4.47 0.72,-4.47c0.06,0.04 1.82,-2.19 1.82,-2.19l0.01,0.03l0.67,1.34l1.49,2.98l0.13,3.57z" fill="#ABABAB" id="svg_719"/>
       <path d="m89.09,210.84l0,0l-0.57,0.17l-0.06,0.02l-0.29,0.09l-1.06,0.31l0.57,-2.36l0.13,-0.58l-0.97,-2.4c0.1,0.13 1.73,2.18 1.81,2.18c0.02,0 0.07,0.26 0.14,0.66c0,0.04 0.01,0.07 0.02,0.11c0.02,0.16 0.05,0.33 0.08,0.52c0.01,0.08 0.02,0.16 0.04,0.25c0,0.02 0.01,0.05 0.01,0.08c0.02,0.14 0.04,0.28 0.07,0.42c0,0.02 0,0.04 0.01,0.07c0.03,0.15 0.05,0.31 0.07,0.46z" fill="#FFFFFF" id="svg_720" opacity="0.2"/>
       <path d="m69.12,206.11l-0.97,2.38l0.07,0.31l0.83,3.48l-1.6,1.37l-0.35,0.3c0,0 -0.52,2.11 -0.58,2.18c-0.01,0.01 -0.04,0.01 -0.08,-0.01l0,-2.37l0,-0.2c0,0 0,0 0,-0.01c0,-0.01 0,-0.01 0,-0.01l0.03,-0.58l0.1,-0.21l0,-0.01c0.15,-1.01 0.4,-2.71 0.56,-3.69c0.08,-0.47 0.14,-0.77 0.15,-0.77c0.09,0 1.82,-2.19 1.82,-2.19l0.03,0l-0.01,0.03z" fill="#FFFFFF" id="svg_721" opacity="0.2"/>
       <path d="m81.11,194.83l-1.34,-0.85c-0.56,-0.61 -1.85,-1.45 -1.85,-1.45s-1.46,0.95 -2,1.53l-1.21,0.77l-0.84,1.43l0.33,3.38l0.43,0.25l0.08,-3.11c0,0 0.07,-1.08 1.01,-1.08c0.93,0 2.19,0.65 2.19,0.65s1.29,-0.65 2.2,-0.65c0.91,0 1,1.08 1,1.08l0.08,3.11l0.43,-0.25l0.33,-3.38l-0.84,-1.43z" fill="#333333" id="svg_722"/>
       <g id="svg_723">
        <path d="m67.78,211.07c-0.08,0.52 -0.41,0.9 -0.72,0.85c-0.1,-0.02 -0.19,-0.09 -0.26,-0.19l0.18,1.06l-0.41,-0.07c0.15,-1 0.41,-2.7 0.57,-3.68c0.01,-0.02 0.02,-0.04 0.02,-0.04s0.68,1.7 0.62,2.07z" fill="#333333" id="svg_724"/>
        <path d="m89.09,210.84l-0.57,0.17l-0.06,0.02l-0.29,0.09c0,-0.02 0,-0.04 -0.01,-0.05c-0.06,-0.37 0.62,-2.07 0.62,-2.07s0.01,0.02 0.03,0.04c0.02,0.16 0.05,0.33 0.08,0.52c0.01,0.08 0.02,0.16 0.04,0.24c0,0.03 0.01,0.06 0.01,0.09c0.02,0.14 0.04,0.27 0.07,0.42c0,0.02 0,0.04 0.01,0.07c0.02,0.15 0.04,0.3 0.07,0.46z" fill="#333333" id="svg_725"/>
        <g id="svg_726">
         <path d="m75.05,207.85c-0.2,-0.37 -2.61,-1.28 -2.61,-1.28s-0.97,2.42 -0.81,2.78c0.27,0.63 1,0.91 1.62,0.62c0.2,-0.1 0.36,-0.25 0.47,-0.43l-0.32,1.46l1.72,-0.68l-1.11,-0.91c0.2,0.03 0.41,0 0.6,-0.09c0.54,-0.26 0.73,-0.92 0.44,-1.47z" fill="#616161" id="svg_727" opacity="0.2"/>
         <path d="m74.97,207.88c-0.17,-0.36 -2.48,-1.13 -2.48,-1.13s-0.75,2.32 -0.6,2.63c0.25,0.51 0.87,0.73 1.39,0.47c0.17,-0.08 0.31,-0.21 0.41,-0.36l-0.1,1.28l1.42,-0.69l-1.06,-0.72c0.18,0.02 0.37,-0.01 0.54,-0.09c0.52,-0.25 0.73,-0.87 0.48,-1.39z" fill="#FFD675" id="svg_728"/>
         <path d="m73.97,209.75l0.44,0.29l-0.47,0.23l0.03,-0.52zm-1.14,-0.09c-0.29,0 -0.54,-0.16 -0.67,-0.42c-0.02,-0.17 0.24,-1.18 0.53,-2.11c0.92,0.33 1.89,0.73 2.03,0.9c0.07,0.16 0.08,0.36 0.02,0.54c-0.07,0.19 -0.2,0.34 -0.38,0.43c-0.1,0.04 -0.21,0.07 -0.32,0.07c-0.02,0 -0.04,0 -0.06,0l-0.54,0.26c-0.07,0.11 -0.17,0.2 -0.29,0.25c-0.1,0.05 -0.21,0.08 -0.32,0.08z" fill="#616161" id="svg_729" opacity="0.2"/>
        </g>
       </g>
      </g>
      <path d="m89.09,210.84c-0.01,-0.07 -0.02,-0.15 -0.04,-0.23c-0.02,-0.14 -0.04,-0.28 -0.06,-0.41c-0.02,-0.11 -0.03,-0.21 -0.05,-0.31c0,-0.03 -0.01,-0.06 -0.01,-0.09c-0.02,-0.08 -0.03,-0.16 -0.04,-0.24c-0.03,-0.19 -0.06,-0.36 -0.08,-0.52c-0.01,-0.04 -0.02,-0.07 -0.02,-0.11c-0.02,-0.09 -0.04,-0.18 -0.05,-0.26c-0.02,-0.09 -0.03,-0.17 -0.04,-0.23c-0.03,-0.11 -0.04,-0.17 -0.05,-0.17c-0.08,0 -1.71,-2.06 -1.81,-2.18l0,0c0,0 -0.01,-0.01 -0.01,-0.01l-1.31,1.24l-2.18,-0.53l-1.16,-0.28l-1.3,-0.32l-0.12,-0.02l0,0l0.17,-0.56l-1.14,-0.51c0.18,-0.22 0.29,-0.5 0.29,-0.81c0,0 -0.01,0 -0.01,0c0.7,-0.85 1.19,-2.03 1.33,-2.93c0.01,-0.07 0.02,-0.81 0.03,-1.62l0.19,-0.11l0.33,-3.37l-0.83,-1.43l-1.35,-0.85c-0.56,-0.61 -1.85,-1.45 -1.85,-1.45s-0.02,0.02 -0.07,0.04l0,21.63l0.17,-0.06l0.59,-0.17l1.19,-0.36l0.37,-0.11l0.95,-0.28l0.19,-0.06l0.09,-0.02l3.12,-0.94l0.16,-0.04l2.43,-0.73l0,0l1.07,-0.31l0.28,-0.09l0.03,-0.01l0.04,-0.01l0.56,-0.17c0,0 0,0 0,0l0,0z" fill="#616161" id="svg_730" opacity="0.2"/>
     </g>
     <g id="svg_731">
      <g id="svg_732">
       <polygon fill="#757575" id="svg_733" points="79.397,226.256 80.783,225.708 80.465,225.124 74.983,225.189 74.596,225.708        75.822,226.256      "/>
       <g id="svg_734">
        <rect fill="#EBB07A" height="3.73" id="svg_735" width="3.58" x="75.82" y="224.24"/>
        <path d="m75.82,227.25l0,-0.91c0.44,-0.41 0.94,-0.68 1.46,-0.68l0.68,0c0.51,0 1,0.26 1.44,0.67l0,0.89l-0.31,-0.49l-0.08,1.24l-2.78,0l-0.08,-1.24l-0.33,0.52z" fill="#616161" id="svg_736" opacity="0.2"/>
        <path d="m77.28,236.47l0.34,0l0.34,0c1.76,0 3.19,-1.2 3.19,-2.69c0,0 -0.01,-3.65 -0.04,-3.83c-0.24,-1.57 -1.56,-4 -3.15,-4l-0.34,0l-0.34,0c-1.59,0 -2.91,2.43 -3.15,4c-0.03,0.18 -0.04,3.83 -0.04,3.83c0,1.49 1.43,2.69 3.19,2.69z" fill="#EBB07A" id="svg_737"/>
        <path d="m76.76,225.72c-0.72,0 -1.31,0.58 -1.31,1.3c0,0.51 1.83,2.65 2.18,2.65c0.36,0 2.13,-2.21 2.13,-2.64c0,-0.72 -0.58,-1.3 -1.3,-1.3l-0.01,0c-0.24,0 -0.47,0.06 -0.66,0.18l-0.36,0c-0.19,-0.12 -0.42,-0.19 -0.67,-0.19l0,0z" fill="#333333" id="svg_738"/>
        <path d="m76.76,227.35c0.1,0 0.18,0.03 0.23,0.06l0.2,0.12l0.84,0.01l0.21,-0.13c0.06,-0.04 0.13,-0.06 0.21,-0.06c0.13,0 0.24,0.05 0.32,0.13c0.06,0.06 0.1,0.12 0.12,0.2c-0.19,0.29 -0.99,1.52 -1.27,1.52c-0.28,0 -1.12,-1.22 -1.29,-1.51c0.02,-0.11 0.08,-0.17 0.12,-0.21c0.08,-0.08 0.19,-0.13 0.31,-0.13l0,0z" fill="#EBB07A" id="svg_739"/>
        <g id="svg_740">
         <path d="m79.67,232.15c0.07,-0.08 0.11,-0.18 0.11,-0.29c0,-0.27 -0.27,-0.5 -0.59,-0.5c-0.33,0 -0.6,0.23 -0.6,0.5c0,0.11 0.04,0.21 0.11,0.29l0.97,0z" fill="#333333" id="svg_741"/>
         <polygon fill="#616161" id="svg_742" opacity="0.2" points="77.391,232.639 77.619,232.639 77.849,232.639 78.165,230.297          77.619,229.668 77.073,230.297        "/>
         <path d="m75.57,232.15c-0.07,-0.08 -0.11,-0.18 -0.11,-0.29c0,-0.27 0.27,-0.5 0.59,-0.5c0.33,0 0.6,0.23 0.6,0.5c0,0.11 -0.04,0.21 -0.11,0.29l-0.97,0z" fill="#333333" id="svg_743"/>
        </g>
        <g id="svg_744" opacity="0.2">
         <rect fill="#616161" height="0.32" id="svg_745" width="1.31" x="76.95" y="228.17"/>
        </g>
        <polygon fill="#333333" id="svg_746" points="76.706,233.414 74.938,233.199 76.706,232.986       "/>
        <polygon fill="#333333" id="svg_747" points="78.531,232.986 80.265,233.199 78.531,233.414       "/>
       </g>
       <path d="m68.69,225.23l1.36,-1.26l0.59,-1.8c0,0 -2.01,0.4 -2.02,0.35l0.07,2.71z" fill="#757575" id="svg_748"/>
       <path d="m86.4,225.23l-1.35,-1.26l-0.6,-1.8c0,0 2.01,0.4 2.02,0.35l-0.07,2.71z" fill="#757575" id="svg_749"/>
       <path d="m85.59,224.24l0.19,-0.38l0.44,-1.44c0,0 -2.5,0.7 -2.39,0.62l1.76,1.2z" fill="#1C1C1C" id="svg_750"/>
       <polygon fill="#ABABAB" id="svg_751" points="67.07,220.288 68.419,219.884 70.854,219.158 71.009,219.114 74.131,218.181        74.218,218.154 74.409,218.098 75.362,217.814 75.729,217.704 76.918,217.348 77.509,217.172 79.809,216.484 80.29,216.346        80.398,216.314 80.998,216.133 81.377,216.019 82.468,215.693 84.108,215.204 84.111,215.667 84.122,217.02 85.203,215.192        85.203,214.879 86.348,214.535 89.092,213.716 89.092,217.568 89.085,217.766 89.085,217.781 89.085,217.787 89.057,218.365        88.965,218.579 88.424,219.862 87.882,221.143 87.306,222.514 87.088,223.026 86.848,223.604 86.444,223.702 85.777,223.86        85.744,223.869 85.694,223.881 85.611,223.902 85.567,223.911 85.425,223.948 85.231,223.993 85.227,223.993 85.207,224.001        85.108,224.023 83.283,224.467 83.088,224.514 83.006,224.531 82.808,224.582 81.348,224.936 81.321,224.941 81.153,224.983        80.601,225.118 80.478,225.146 79.397,225.407 75.822,225.407 74.973,225.201 74.767,225.152 74.651,225.124 73.354,224.808        72.186,224.524 70.015,223.997 69.889,223.967 69.388,223.844 68.695,223.677 68.652,223.668 68.393,223.604 67.853,222.25        67.312,220.891 67.159,220.517      "/>
       <polygon fill="#FFFFFF" id="svg_752" opacity="0.2" points="73.354,224.808 77.116,221.046 77.276,220.886 77.915,220.246        77.92,220.239 78.954,219.207 79.009,219.152 80.816,217.346 81.372,216.79 81.625,216.535 81.904,216.259 82.468,215.693        84.108,215.204 84.111,215.667 82.428,217.346 82.149,217.627 81.954,217.82 81.374,218.403 81.198,218.579 81.021,218.755        80.948,218.827 78.821,220.954 78.787,220.986 78.706,221.066 78.704,221.07 78.095,221.682 77.939,221.839 74.651,225.124             "/>
       <polygon fill="#FFFFFF" id="svg_753" opacity="0.2" points="68.695,223.677 70.956,221.417 74.161,218.21 74.218,218.154        74.409,218.098 75.362,217.814 75.729,217.704 76.918,217.348 77.509,217.172 79.809,216.484 80.29,216.346 80.398,216.314        80.315,216.396 79.974,216.735 78.361,218.35 78.197,218.513 77.327,219.383 77.225,219.483 76.377,220.334 72.186,224.524        70.015,223.997 69.889,223.967 69.388,223.844      "/>
       <path d="m74.13,218.18l0.09,-0.02l0.19,-0.06l0.95,-0.29l0.37,-0.1l1.19,-0.36l0.59,-0.18l2.3,-0.68l0.48,-0.14l0.11,-0.04l0.6,-0.18l0.38,-0.11l0.25,0.52l0.52,1.09l1.69,3.51l0.82,1.71l0.07,0.16l0.01,0.01l0.45,0.95l0,0l0.02,0.03l-0.1,0.02l-1.83,0.45l-0.19,0.04l-0.08,0.02l-0.2,0.05l-1.46,0.36l-0.03,0l-0.17,0.05c-0.51,-0.53 -1.73,-1.73 -3.21,-3.15c-0.26,-0.26 -0.54,-0.52 -0.82,-0.79c-0.25,-0.24 -0.49,-0.48 -0.74,-0.71c-0.73,-0.71 -1.49,-1.43 -2.22,-2.13c-0.01,-0.01 -0.02,-0.02 -0.03,-0.03z" fill="#616161" id="svg_754" opacity="0.2"/>
       <path d="m77.51,217.17l2.3,-0.69l0.48,-0.14l0.11,-0.03l0.6,-0.18l0.37,0.66l0.58,1.03l1.89,3.32l0.66,1.18l0.28,0.49l0.64,1.14l0.17,0.29l-0.2,0.05l-3.78,0.94c-0.04,-0.05 -0.13,-0.15 -0.26,-0.3c-0.54,-0.57 -1.78,-1.8 -3.25,-3.25c-0.27,-0.26 -0.54,-0.53 -0.82,-0.8c-0.24,-0.23 -0.49,-0.47 -0.74,-0.71c-0.7,-0.69 -1.43,-1.4 -2.13,-2.07l0.95,-0.29l0.37,-0.11l1.19,-0.35l0.59,-0.18z" fill="#333333" id="svg_755"/>
       <polygon fill="#EBEBEB" id="svg_756" points="80.783,225.708 80.6,225.115 77.77,223.474 77.852,225.407      "/>
       <polygon fill="#EBEBEB" id="svg_757" points="74.596,225.708 74.78,225.115 77.609,223.474 77.528,225.407      "/>
       <path d="m77.92,220.25l-0.53,-0.56c0.19,0.19 0.37,0.38 0.53,0.55c0.31,0.32 0.58,0.6 0.79,0.83c0.19,0.21 0.34,0.36 0.42,0.44l-0.43,-0.44l-0.78,-0.82z" fill="#616161" id="svg_758" opacity="0.2"/>
       <path d="m77.22,219.48c-0.62,-0.59 -1.26,-1.16 -1.86,-1.67l0.37,-0.11l1.6,1.68l0.7,0.75l0.08,0.08l0.71,0.74l1.41,1.48l0.03,0.04c-0.01,-0.01 -0.02,-0.02 -0.04,-0.03c-0.43,-0.45 -0.92,-0.94 -1.43,-1.45c-0.24,-0.24 -0.49,-0.48 -0.74,-0.72c-0.02,-0.03 -0.05,-0.05 -0.08,-0.08c-0.25,-0.24 -0.49,-0.47 -0.75,-0.71z" fill="#616161" id="svg_759" opacity="0.2"/>
       <polygon fill="#616161" id="svg_760" opacity="0.2" points="79.809,216.484 80.29,216.346 80.315,216.396 80.816,217.346        81.374,218.403 81.994,219.58 82.74,220.899 81.198,218.579 80.554,217.609 79.974,216.735      "/>
       <polygon fill="#616161" id="svg_761" opacity="0.2" points="76.918,217.348 77.509,217.172 77.949,217.836 78.361,218.35        79.009,219.152 79.322,219.541 78.954,219.207 78.197,218.513      "/>
       <polygon fill="#616161" id="svg_762" opacity="0.2" points="84.122,217.02 85.203,215.192 85.203,214.879 86.348,214.535        87.181,214.705 86.036,215.227      "/>
       <polygon fill="#616161" id="svg_763" opacity="0.2" points="67.07,220.288 68.419,219.884 70.854,219.158 71.009,219.114        71.157,220.939 70.956,221.417 70.642,222.169 69.889,223.967 69.388,223.844 68.695,223.677 68.652,223.668 68.393,223.604        67.853,222.25 67.312,220.891 67.159,220.517      "/>
       <path d="m68.42,219.88l2.43,-0.72l0.02,1.72l-0.63,1.25l-0.06,0.13l-0.79,1.58l-0.69,1.39c0,0 -1.77,-2.22 -1.82,-2.18c-0.02,0 -0.07,-0.26 -0.14,-0.66c-0.08,-0.49 -0.19,-1.2 -0.3,-1.92l0.57,-0.16l0.06,-0.02l1.35,-0.41z" fill="#ABABAB" id="svg_764"/>
       <path d="m84.08,220.75l0.04,-3.08l4.19,0.71c0,0 0,0.17 -0.02,0.34l-1.2,4.31l-0.24,0.57l-1.11,0.27l-0.05,0.01l-0.08,0.02l-0.04,0.01l-1.49,-3.16z" fill="#616161" id="svg_765" opacity="0.2"/>
       <path d="m84.12,217.32l3.96,0.35l1.01,0.1l0,0c0,0 0,0 0,0.01c0,0 0,0 0,0.01c-0.02,0.08 -0.06,0.37 -0.12,0.79c-0.23,1.48 -0.68,4.47 -0.72,4.47c-0.06,-0.04 -1.83,2.19 -1.83,2.19l-0.01,-0.03l-0.67,-1.34l-1.49,-2.98l-0.13,-3.57z" fill="#ABABAB" id="svg_766"/>
       <path d="m66.44,220.48l0,0l0.57,-0.17l0.06,-0.02l0.29,-0.09l1.06,-0.32l-0.57,2.37l-0.13,0.58l0.97,2.4c-0.1,-0.13 -1.73,-2.18 -1.81,-2.18c-0.02,0 -0.07,-0.26 -0.14,-0.66c0,-0.04 -0.01,-0.07 -0.01,-0.11c-0.03,-0.16 -0.06,-0.33 -0.09,-0.52c-0.01,-0.08 -0.02,-0.16 -0.04,-0.24c0,-0.03 -0.01,-0.06 -0.01,-0.09c-0.02,-0.14 -0.04,-0.27 -0.07,-0.42c0,-0.02 0,-0.04 -0.01,-0.07c-0.03,-0.15 -0.05,-0.31 -0.07,-0.46z" fill="#FFFFFF" id="svg_767" opacity="0.2"/>
       <path d="m86.42,225.21l0.96,-2.38l-0.07,-0.31l-0.83,-3.48l1.6,-1.37l0.35,-0.3c0,0 0.52,-2.11 0.58,-2.18c0.01,-0.02 0.04,-0.01 0.08,0.01l0,2.37l-0.01,0.2c0,0 0,0 0,0.01c0,0 0,0 0,0l-0.02,0.58l-0.1,0.22l0,0.01c-0.15,1.01 -0.4,2.71 -0.57,3.69c-0.07,0.47 -0.13,0.77 -0.15,0.77c-0.08,0 -1.82,2.19 -1.82,2.19l-0.02,0l0.02,-0.03z" fill="#FFFFFF" id="svg_768" opacity="0.2"/>
       <path d="m74.42,236.49l1.34,0.85c0.56,0.6 1.85,1.45 1.85,1.45s1.46,-0.95 2,-1.54l1.21,-0.76l0.83,-1.43l-0.33,-3.38l-0.43,-0.25l-0.07,3.11c0,0 -0.08,1.08 -1.01,1.08c-0.93,0 -2.19,-0.65 -2.19,-0.65s-1.29,0.65 -2.2,0.65c-0.91,0 -1.01,-1.08 -1.01,-1.08l-0.07,-3.11l-0.43,0.25l-0.33,3.38l0.84,1.43z" fill="#333333" id="svg_769"/>
       <g id="svg_770">
        <path d="m87.75,220.25c0.09,-0.52 0.41,-0.9 0.72,-0.85c0.11,0.02 0.19,0.09 0.26,0.19l-0.18,-1.07l0.42,0.07c-0.16,1.01 -0.41,2.71 -0.58,3.69c-0.01,0.02 -0.02,0.04 -0.02,0.04s-0.68,-1.71 -0.62,-2.07z" fill="#333333" id="svg_771"/>
        <path d="m66.44,220.48l0.57,-0.17l0.06,-0.02l0.28,-0.09c0.01,0.02 0.01,0.04 0.02,0.05c0.06,0.36 -0.62,2.07 -0.62,2.07s-0.01,-0.02 -0.02,-0.04c-0.03,-0.16 -0.06,-0.33 -0.09,-0.52c-0.01,-0.08 -0.02,-0.16 -0.04,-0.24c0,-0.03 -0.01,-0.06 -0.01,-0.09c-0.02,-0.14 -0.04,-0.27 -0.07,-0.42c0,-0.02 0,-0.04 -0.01,-0.06c-0.02,-0.16 -0.04,-0.32 -0.07,-0.47z" fill="#333333" id="svg_772"/>
        <g id="svg_773">
         <path d="m80.48,223.47c0.2,0.37 2.61,1.28 2.61,1.28s0.97,-2.42 0.81,-2.78c-0.27,-0.63 -1,-0.91 -1.62,-0.62c-0.2,0.1 -0.36,0.25 -0.47,0.43l0.32,-1.46l-1.72,0.67l1.11,0.92c-0.2,-0.03 -0.41,0 -0.6,0.09c-0.54,0.26 -0.73,0.92 -0.44,1.47z" fill="#616161" id="svg_774" opacity="0.2"/>
         <path d="m80.56,223.44c0.17,0.36 2.48,1.13 2.48,1.13s0.75,-2.32 0.6,-2.63c-0.25,-0.51 -0.87,-0.72 -1.39,-0.47c-0.17,0.08 -0.31,0.21 -0.41,0.36l0.1,-1.28l-1.42,0.69l1.06,0.71c-0.18,-0.01 -0.36,0.02 -0.54,0.1c-0.52,0.25 -0.73,0.87 -0.48,1.39z" fill="#FFD675" id="svg_775"/>
         <path d="m81.56,221.57l-0.44,-0.29l0.48,-0.23l-0.04,0.52zm1.14,0.09c0.29,0 0.54,0.16 0.67,0.42c0.02,0.17 -0.24,1.18 -0.53,2.1c-0.92,-0.32 -1.88,-0.73 -2.02,-0.9c-0.08,-0.15 -0.09,-0.35 -0.02,-0.53c0.06,-0.19 0.19,-0.34 0.37,-0.43c0.1,-0.05 0.21,-0.07 0.32,-0.07c0.02,0 0.05,0 0.07,0l0.53,-0.26c0.07,-0.11 0.17,-0.2 0.3,-0.26c0.09,-0.04 0.2,-0.07 0.31,-0.07z" fill="#616161" id="svg_776" opacity="0.2"/>
        </g>
       </g>
      </g>
      <path d="m66.44,220.48c0.01,0.07 0.02,0.15 0.04,0.23c0.02,0.14 0.04,0.28 0.06,0.41c0.02,0.11 0.03,0.21 0.05,0.31c0,0.03 0.01,0.06 0.01,0.09c0.02,0.08 0.03,0.16 0.04,0.24c0.03,0.19 0.06,0.36 0.08,0.52c0.01,0.04 0.02,0.07 0.02,0.11c0.02,0.09 0.03,0.18 0.05,0.26c0.02,0.09 0.03,0.17 0.04,0.23c0.02,0.11 0.04,0.17 0.05,0.17c0.08,0 1.71,2.05 1.81,2.18l0,0c0,0 0.01,0.01 0.01,0.01l1.32,-1.24l2.17,0.53l1.16,0.28l1.3,0.31l0.12,0.03l0,0l-0.17,0.56l1.14,0.51c-0.18,0.22 -0.29,0.5 -0.29,0.8l0,0.01c-0.69,0.84 -1.18,2.02 -1.32,2.92c-0.01,0.08 -0.02,0.82 -0.03,1.62l-0.19,0.11l-0.33,3.38l0.83,1.43l1.35,0.85c0.56,0.6 1.84,1.45 1.84,1.45s0.03,-0.02 0.07,-0.05l0,-21.62l-0.16,0.05l-0.6,0.18l-1.18,0.35l-0.37,0.11l-0.95,0.29l-0.2,0.05l-0.08,0.03l-3.12,0.93l-0.16,0.05l-2.43,0.72l0,0l-1.07,0.32l-0.29,0.09l-0.02,0.01l-0.04,0.01l-0.56,0.16c0,0.01 0,0.01 0,0.01l0,0z" fill="#616161" id="svg_777" opacity="0.2"/>
     </g>
    </g>
   </g>
   <g id="svg_778">
    <path d="m67.19,199.77c0,-0.51 -2.18,-2.65 -2.18,-2.65s-2.12,2.21 -2.12,2.64c0,0.72 0.58,1.3 1.3,1.3c0.24,0 0.47,-0.06 0.67,-0.18l-0.82,1.39l1.99,0l-0.82,-1.39c0.2,0.12 0.43,0.19 0.68,0.19c0.72,0 1.3,-0.58 1.3,-1.3z" fill="#333333" id="svg_779"/>
    <path d="m67.19,199.77c0,-0.51 -2.18,-2.65 -2.18,-2.65s0,0 0,0l0,5.15l1.02,0l-0.82,-1.39c0.2,0.12 0.43,0.19 0.68,0.19c0.72,0 1.3,-0.58 1.3,-1.3z" fill="#616161" id="svg_780" opacity="0.2"/>
   </g>
   <g id="svg_781">
    <path d="m91.36,231.69c0,0.5 2.18,2.64 2.18,2.64s2.13,-2.21 2.13,-2.63c0,-0.73 -0.58,-1.31 -1.3,-1.31c-0.25,0 -0.48,0.07 -0.68,0.19l0.82,-1.4l-1.98,0l0.81,1.39c-0.19,-0.11 -0.43,-0.18 -0.67,-0.19c-0.72,0 -1.31,0.59 -1.31,1.31z" fill="#333333" id="svg_782"/>
    <path d="m91.36,231.69c0,0.5 2.18,2.64 2.18,2.64s0,0 0.01,0l0,-5.15l-1.02,0l0.81,1.39c-0.19,-0.11 -0.42,-0.18 -0.67,-0.18c-0.72,-0.01 -1.31,0.58 -1.31,1.3z" fill="#616161" id="svg_783" opacity="0.2"/>
   </g>
  </g>
 </g>

</svg>