<?xml version="1.0"?>
<svg width="40" height="56" xmlns="http://www.w3.org/2000/svg" xmlns:svg="http://www.w3.org/2000/svg" enable-background="new 0 0 450 450" version="1.1" xml:space="preserve">
 <g class="layer">
  <title>Layer 1</title>
  <g id="svg_322" transform="translate(0.00335165, 0.0111052) scale(0.993942, 1) translate(-0.00335165, -0.0111052) translate(0.121803, 0.121803) matrix(0.99698, 0, 0, 1, -58.3698, -55.1789)">
   <g id="svg_323">
    <g id="svg_324">
     <path d="m62.98,110.89c-2.35,0.01 -4.27,-1.87 -4.31,-4.25l-0.12,-47.23c0.03,-2.25 1.94,-4.14 4.3,-4.14l31.21,0.06c2.35,0.01 4.26,1.9 4.26,4.22l0,47.12c0,2.31 -1.9,4.18 -4.24,4.19l-31.1,0.03z" fill="#C9C9C9" id="svg_325"/>
     <path d="m63.3,110.81c-2.35,0 -4.27,-1.88 -4.27,-4.19l-0.12,-47.23c-0.01,-2.32 1.9,-4.21 4.27,-4.2l31.2,0.05c2.35,0.01 4.26,1.9 4.26,4.22l0,47.12c0,2.31 -1.9,4.18 -4.24,4.19l-31.1,0.04z" fill="#FFFFFF" id="svg_326"/>
     <g id="svg_327">
      <path d="m94.11,109.89l-30.75,0c-1.8,0 -3.26,-1.45 -3.26,-3.24l0,-47.12c0,-1.79 1.46,-3.25 3.26,-3.25l30.75,0c1.8,0 3.26,1.46 3.26,3.25l0,47.11c0,1.8 -1.46,3.25 -3.26,3.25zm-30.75,-52.32c-1.09,0 -1.97,0.88 -1.97,1.96l0,47.11c0,1.08 0.88,1.96 1.97,1.96l30.75,0c1.09,0 1.98,-0.87 1.98,-1.96l0,-47.11c0,-1.08 -0.89,-1.96 -1.98,-1.96l-30.75,0z" fill="#333333" id="svg_328"/>
     </g>
     <g id="svg_329">
      <path d="m66.16,62.89c-0.03,0.05 -0.15,0.14 -0.36,0.3c-0.26,0.2 -0.49,0.33 -0.69,0.38l-1.07,-1.95l-0.06,0.04l0,1.71l-1.25,0l0,-4.46l1.25,0l0,2.53c0.22,-0.03 0.41,-0.18 0.59,-0.44c0.16,-0.25 0.23,-0.48 0.23,-0.69c0,-0.16 -0.02,-0.29 -0.07,-0.41c-0.06,-0.1 -0.11,-0.2 -0.16,-0.3c0,-0.04 0.14,-0.17 0.41,-0.38c0.23,-0.17 0.39,-0.29 0.49,-0.37c0.08,0.07 0.15,0.18 0.22,0.33c0.06,0.16 0.1,0.3 0.1,0.42c0,0.11 -0.03,0.24 -0.07,0.39c-0.05,0.16 -0.11,0.29 -0.19,0.42c-0.11,0.18 -0.21,0.31 -0.3,0.4c-0.19,0.19 -0.29,0.3 -0.3,0.32l1.23,1.76z" fill="#333333" id="svg_330"/>
     </g>
     <g id="svg_331">
      <path d="m91.47,103.8c0.03,-0.05 0.15,-0.15 0.36,-0.3c0.26,-0.2 0.49,-0.33 0.69,-0.39l1.07,1.96l0.06,-0.04l0,-1.72l1.25,0l0,4.46l-1.25,0l0,-2.53c-0.22,0.03 -0.41,0.18 -0.59,0.45c-0.15,0.24 -0.23,0.47 -0.23,0.69c0,0.15 0.02,0.29 0.07,0.4c0.05,0.1 0.11,0.2 0.16,0.3c0,0.05 -0.14,0.17 -0.41,0.38c-0.23,0.17 -0.39,0.3 -0.49,0.37c-0.08,-0.06 -0.15,-0.17 -0.22,-0.33c-0.06,-0.16 -0.09,-0.29 -0.09,-0.42c0,-0.1 0.02,-0.23 0.07,-0.39c0.04,-0.15 0.1,-0.29 0.17,-0.41c0.12,-0.18 0.22,-0.31 0.32,-0.41c0.18,-0.19 0.28,-0.29 0.29,-0.32l-1.23,-1.75z" fill="#333333" id="svg_332"/>
     </g>
    </g>
   </g>
   <g id="svg_333">
    <path d="m66.63,67.3c0,-0.5 -2.18,-2.65 -2.18,-2.65s-2.13,2.21 -2.13,2.64c0,0.72 0.58,1.31 1.3,1.31c0.25,0 0.48,-0.07 0.68,-0.19l-0.82,1.39l1.98,0.01l-0.81,-1.4c0.2,0.12 0.43,0.19 0.67,0.19c0.72,0 1.31,-0.58 1.31,-1.3z" fill="#333333" id="svg_334"/>
    <path d="m66.63,67.3c0,-0.5 -2.18,-2.65 -2.18,-2.65s0,0.01 -0.01,0.01l0,5.15l1.02,0l-0.81,-1.4c0.2,0.12 0.43,0.19 0.67,0.19c0.72,0 1.31,-0.58 1.31,-1.3z" fill="#616161" id="svg_335" opacity="0.2"/>
   </g>
   <g id="svg_336">
    <path d="m90.8,99.22c0,0.5 2.18,2.64 2.18,2.64s2.12,-2.2 2.12,-2.63c0.01,-0.72 -0.58,-1.31 -1.3,-1.31c-0.24,0 -0.47,0.07 -0.67,0.19l0.82,-1.39l-1.99,-0.01l0.82,1.4c-0.2,-0.12 -0.43,-0.19 -0.67,-0.19c-0.72,0 -1.31,0.58 -1.31,1.3z" fill="#333333" id="svg_337"/>
    <path d="m90.8,99.22c0,0.5 2.18,2.64 2.18,2.64s0,0 0,0l0,-5.15l-1.02,0l0.81,1.4c-0.19,-0.12 -0.42,-0.19 -0.67,-0.19c-0.71,0 -1.3,0.58 -1.3,1.3z" fill="#616161" id="svg_338" opacity="0.2"/>
   </g>
   <g id="svg_339">
    <g id="svg_340">
     <g id="svg_341">
      <g id="svg_342">
       <g id="svg_343">
        <g id="svg_344">
         <path d="m90.1,73.02l-0.08,-0.29c0,0 -5.33,-3.03 -7.03,-4c-0.32,-0.18 -0.51,-0.29 -0.51,-0.29l-7.58,0c0,0 -0.01,0.01 -0.04,0.02c-0.01,0.01 -0.03,0.02 -0.05,0.03c-0.02,0.01 -0.04,0.03 -0.07,0.04c-0.02,0.01 -0.05,0.03 -0.07,0.04c-0.03,0.02 -0.06,0.03 -0.09,0.05c-0.04,0.03 -0.09,0.05 -0.15,0.08c-0.1,0.07 -0.22,0.13 -0.35,0.2c0,0 0,0.01 0,0.01c-0.1,0.05 -0.2,0.11 -0.31,0.17c-0.04,0.02 -0.07,0.04 -0.11,0.07c-0.26,0.14 -0.54,0.3 -0.84,0.47c-0.11,0.06 -0.22,0.12 -0.33,0.19c-0.1,0.06 -0.22,0.12 -0.33,0.19c-0.11,0.06 -0.23,0.13 -0.34,0.19c-1.51,0.86 -3.16,1.8 -3.97,2.26c-0.04,0.03 -0.09,0.05 -0.13,0.08c-0.19,0.11 -0.31,0.18 -0.35,0.2l0,12.63l4.96,-1.49l1.12,-0.34l16.65,-5l0,-5.51z" fill="#333333" id="svg_345"/>
         <g id="svg_346">
          <g id="svg_347">
           <g id="svg_348">
            <g id="svg_349">
             <path d="m78.75,74.98l-2.08,-3.59l4.15,0l-2.07,3.59zm-1.68,-3.36l1.68,2.9l1.68,-2.9l-3.36,0z" fill="#FFD675" id="svg_350"/>
            </g>
           </g>
           <path d="m75.96,68.44c-0.04,0.01 -7.54,4.29 -7.54,4.29l-1.05,3.25l0,9.38l4.96,-1.49l1.12,-0.34l2.97,-9.73l0.4,-1.3l0.57,-1.24l1.3,-2.76l0,-0.06l-2.73,0z" fill="#616161" id="svg_351" opacity="0.2"/>
           <path d="m74.9,68.44c0,0 -0.01,0.01 -0.04,0.02c-0.01,0.01 -0.03,0.02 -0.05,0.03c-0.02,0.01 -0.04,0.03 -0.07,0.04c-0.02,0.01 -0.05,0.03 -0.07,0.04c-0.03,0.02 -0.06,0.03 -0.09,0.05c-0.04,0.03 -0.09,0.05 -0.15,0.08c-0.1,0.06 -0.22,0.13 -0.35,0.2c0,0 0,0.01 0,0.01c-0.1,0.05 -0.2,0.11 -0.31,0.17c-0.04,0.02 -0.07,0.04 -0.11,0.07c-0.26,0.14 -0.54,0.3 -0.84,0.47c-0.11,0.06 -0.22,0.12 -0.33,0.19c-0.11,0.06 -0.22,0.12 -0.33,0.19c-0.11,0.06 -0.23,0.13 -0.34,0.19c-0.49,0.28 -0.99,0.56 -1.47,0.84c-0.15,0.08 -0.29,0.16 -0.43,0.24c-0.85,0.49 -1.6,0.92 -2.07,1.18c-0.04,0.03 -0.08,0.05 -0.13,0.08c-0.19,0.11 -0.31,0.18 -0.35,0.2l0,12.63l0.89,-0.27l0.49,-0.15l3.53,-1.06l0.05,-0.01c0.17,-0.39 0.34,-0.81 0.52,-1.24c1.19,-2.85 2.63,-6.47 3.57,-8.83c0.58,-1.46 0.97,-2.44 0.97,-2.44l0.01,-0.1l0.25,-2.82l-2.75,0z" fill="#EBEBEB" id="svg_352"/>
          </g>
          <g id="svg_353">
           <g id="svg_354">
            <path d="m90.1,76.55l-1.15,-3.82c0,0 -7.5,-4.27 -7.53,-4.28l-2.73,0l0,0.05l1.87,4l2.43,8.31l7.11,-2.57l0,-1.69z" fill="#616161" id="svg_355" opacity="0.2"/>
            <path d="m90.1,73.02l-0.09,-0.29c0,0 -7.49,-4.28 -7.53,-4.29l-2.75,0l0.26,2.92c0,0 3.23,6.71 4.38,8.89l5.73,-1.72l0,-5.51z" fill="#EBEBEB" id="svg_356"/>
           </g>
          </g>
         </g>
         <g id="svg_357">
          <polygon fill="#EBBE9F" id="svg_358" points="83.066,66.588 82.987,65.564 82.986,65.525 82.751,62.388 81.585,61.8           79.335,60.661 78.713,60.996 78.089,60.661 75.84,61.8 74.675,62.388 74.442,65.525 74.438,65.564 74.361,66.588           74.596,69.573 78.708,72.509 78.708,72.516 78.709,72.517 78.713,72.513 78.719,72.517 78.719,72.516 78.719,72.509           82.829,69.573         "/>
          <path d="m78.72,68.44l1.38,-0.05l-1.04,-0.64c0,0 -0.16,-0.01 -0.34,-0.01l0,0c0,0 -0.01,0 -0.01,0c0,0 0,0 0,0l0,0c-0.18,0 -0.35,0.01 -0.35,0.01l-1.03,0.64l1.38,0.05l0,0l0,0l0.01,0l0,0z" fill="#EBBE9F" id="svg_359"/>
          <polygon fill="#616161" id="svg_360" opacity="0.2" points="79.552,66.471 78.988,64.509 78.719,64.509 78.709,64.509 78.44,64.509           77.875,66.471 78.44,67.078 78.709,67.088 78.709,67.088 78.713,67.088 78.719,67.088 78.719,67.088 78.988,67.078                   "/>
          <g id="svg_361">
           <polygon fill="#9C9C9C" id="svg_362" points="79.309,63.983 81.082,63.761 81.121,63.755 81.14,63.766 81.985,64.214            81.063,63.956 81.122,63.961 79.401,64.444          "/>
           <path d="m79.93,64.72c-0.03,0.07 -0.04,0.14 -0.04,0.21c0,0.28 0.22,0.5 0.5,0.5c0.27,0 0.5,-0.22 0.5,-0.5c0,-0.07 -0.02,-0.14 -0.05,-0.21l-0.91,0z" fill="#333333" id="svg_363"/>
           <polygon fill="#9C9C9C" id="svg_364" points="78.118,63.983 76.344,63.761 76.306,63.755 76.286,63.766 75.441,64.214            76.361,63.956 76.303,63.961 78.025,64.444          "/>
           <path d="m77.5,64.72c0.02,0.07 0.04,0.14 0.04,0.21c0,0.28 -0.22,0.5 -0.5,0.5c-0.28,0 -0.5,-0.22 -0.5,-0.5c0,-0.07 0.02,-0.14 0.05,-0.21l0.91,0z" fill="#333333" id="svg_365"/>
           <path d="m82.99,65.56c-0.03,0.02 -0.05,0.04 -0.05,0.04l-0.82,-2.9l-0.54,-0.9l1.17,0.59l0.24,3.14l0,0.03z" fill="#9C9C9C" id="svg_366"/>
           <path d="m74.44,65.56c0.03,0.02 0.04,0.04 0.04,0.04l0.82,-2.9l0.54,-0.9l-1.17,0.59l-0.23,3.14l0,0.03z" fill="#9C9C9C" id="svg_367"/>
          </g>
          <path d="m82.83,61.27l0,1.2c-1.04,0.28 -2.2,0.4 -3.32,0.43c-0.75,0.03 -1.47,0.01 -2.12,-0.03c-0.33,-0.02 -0.63,-0.04 -0.91,-0.07c-0.34,-0.03 -0.65,-0.06 -0.91,-0.09c-0.63,-0.08 -1.01,-0.14 -1.01,-0.14l0,-1.14c0,0 4.11,-2.2 4.13,-2.2c0,0.01 0.52,0.27 1.18,0.59c0.21,0.11 0.44,0.22 0.67,0.33c0.22,0.11 0.44,0.22 0.66,0.33c0.61,0.29 1.17,0.57 1.44,0.7c0.12,0.06 0.19,0.09 0.19,0.09z" fill="#FFD675" id="svg_368"/>
          <g id="svg_369">
           <path d="m80.54,60.15l-4.06,2.65c-0.34,-0.03 -0.65,-0.06 -0.91,-0.09l4.3,-2.89c0.21,0.1 0.44,0.22 0.67,0.33z" fill="#FFFFFF" id="svg_370" opacity="0.2"/>
           <path d="m82.65,61.18l-3.14,1.72c-0.75,0.03 -1.47,0.01 -2.12,-0.03l3.81,-2.39c0.61,0.29 1.17,0.57 1.45,0.7z" fill="#FFFFFF" id="svg_371" opacity="0.2"/>
          </g>
         </g>
        </g>
        <g id="svg_372">
         <polygon fill="#333333" id="svg_373" points="70.564,76.733 70.427,77.699 70.903,76.848        "/>
         <polygon fill="#333333" id="svg_374" points="72.467,76.733 72.328,77.699 72.805,76.848        "/>
         <polygon fill="#333333" id="svg_375" points="74.366,76.733 74.231,77.699 74.706,76.848        "/>
         <polygon fill="#333333" id="svg_376" points="68.188,79.847 68.05,80.813 68.526,79.961        "/>
         <polygon fill="#333333" id="svg_377" points="70.088,79.847 69.952,80.813 70.427,79.961        "/>
         <polygon fill="#333333" id="svg_378" points="71.99,79.847 71.853,80.813 72.328,79.961        "/>
         <polygon fill="#333333" id="svg_379" points="68.769,82.985 68.633,83.95 69.108,83.099        "/>
         <polygon fill="#333333" id="svg_380" points="70.669,82.985 70.533,83.95 71.01,83.099        "/>
         <path d="m72.7,82.91c-0.09,0.22 -0.17,0.42 -0.25,0.62l-0.03,0.01l0.1,-0.69l0.18,0.06z" fill="#333333" id="svg_381"/>
         <polygon fill="#333333" id="svg_382" points="73.892,71.304 73.753,72.272 74.231,71.421        "/>
         <polygon fill="#333333" id="svg_383" points="71.99,70.916 71.853,71.882 72.328,71.03        "/>
         <path d="m70.22,71.27l-0.27,0.47l0.05,-0.35c0.07,-0.04 0.14,-0.08 0.22,-0.12z" fill="#333333" id="svg_384"/>
         <polygon fill="#333333" id="svg_385" points="68.628,84.939 68.38,85.014 68.399,84.863        "/>
         <polygon fill="#333333" id="svg_386" points="68.235,73.596 68.099,74.561 68.575,73.709        "/>
         <polygon fill="#333333" id="svg_387" points="70.351,73.596 70.213,74.561 70.69,73.709        "/>
         <polygon fill="#333333" id="svg_388" points="72.251,73.596 72.115,74.561 72.591,73.709        "/>
         <polygon fill="#333333" id="svg_389" points="74.152,73.596 74.016,74.561 74.492,73.709        "/>
         <polygon fill="#333333" id="svg_390" points="76.101,71.808 75.964,72.775 76.44,71.922        "/>
         <polygon fill="#333333" id="svg_391" points="68.449,76.733 68.313,77.699 68.789,76.848        "/>
        </g>
        <g id="svg_392">
         <polygon fill="#333333" id="svg_393" points="87.272,76.733 87.408,77.699 86.933,76.848        "/>
         <polygon fill="#333333" id="svg_394" points="85.371,76.733 85.508,77.699 85.032,76.848        "/>
         <polygon fill="#333333" id="svg_395" points="83.468,76.733 83.607,77.699 83.13,76.848        "/>
         <polygon fill="#333333" id="svg_396" points="83.945,71.304 84.082,72.272 83.607,71.421        "/>
         <polygon fill="#333333" id="svg_397" points="85.847,70.916 85.984,71.882 85.508,71.03        "/>
         <path d="m87.62,71.27l0.27,0.47l-0.05,-0.35c-0.07,-0.04 -0.15,-0.08 -0.22,-0.12z" fill="#333333" id="svg_398"/>
         <polygon fill="#333333" id="svg_399" points="89.6,73.596 89.738,74.561 89.261,73.709        "/>
         <polygon fill="#333333" id="svg_400" points="87.486,73.596 87.623,74.561 87.146,73.709        "/>
         <polygon fill="#333333" id="svg_401" points="85.585,73.596 85.722,74.561 85.246,73.709        "/>
         <polygon fill="#333333" id="svg_402" points="83.684,73.596 83.821,74.561 83.344,73.709        "/>
         <polygon fill="#333333" id="svg_403" points="81.735,71.808 81.872,72.775 81.395,71.922        "/>
         <polygon fill="#333333" id="svg_404" points="89.387,76.733 89.524,77.699 89.047,76.848        "/>
        </g>
       </g>
      </g>
      <g id="svg_405">
       <g id="svg_406">
        <g id="svg_407">
         <path d="m76.41,69.18c0.13,-0.11 0.28,-0.19 0.44,-0.27l-1.01,-1.68l5.74,0l-1.01,1.69c0.16,0.07 0.31,0.16 0.44,0.27c0.45,0.35 0.71,0.86 0.71,1.4c0,0.35 0,0.74 -2.44,2.73l-0.53,0.44l-0.54,-0.42c-2.52,-1.95 -2.51,-2.42 -2.51,-2.76c0,-0.53 0.26,-1.05 0.71,-1.4z" fill="#9C9C9C" id="svg_408"/>
        </g>
       </g>
       <polygon fill="#EBBE9F" id="svg_409" points="77.04,67.74 80.386,67.74 79.916,68.937 77.649,68.929      "/>
       <rect fill="#616161" height="0.35" id="svg_410" opacity="0.2" width="1.8" x="77.89" y="68.19"/>
       <path d="m79.4,60.38c0,-0.15 -0.67,-0.81 -0.67,-0.81s-0.65,0.68 -0.65,0.81c0,0.22 0.17,0.4 0.4,0.4c0.07,0 0.14,-0.02 0.2,-0.06l-0.25,0.43l0.61,0l-0.25,-0.43c0.06,0.04 0.13,0.06 0.21,0.06c0.22,0 0.4,-0.18 0.4,-0.4z" fill="#333333" id="svg_411"/>
       <path d="m81.06,77.27c-0.05,-0.51 -2.31,-2.48 -2.31,-2.48s-2.22,2.04 -2.26,2.48c-0.07,0.78 0.52,1.45 1.33,1.45c0.28,0 0.54,-0.08 0.76,-0.22l-0.99,1.74l2.37,0l-0.98,-1.74c0.22,0.14 0.48,0.23 0.76,0.23c0.81,-0.01 1.4,-0.68 1.32,-1.46z" fill="#616161" id="svg_412" opacity="0.2"/>
       <path d="m80.82,77.28c0,-0.47 -2.06,-2.49 -2.06,-2.49s-2,2.08 -2.01,2.48c0,0.68 0.55,1.24 1.23,1.24c0.23,0 0.45,-0.07 0.64,-0.18l-0.77,1.31l1.87,0.01l-0.77,-1.32c0.19,0.11 0.4,0.18 0.63,0.18c0.69,0 1.24,-0.55 1.24,-1.23z" fill="#FFD675" id="svg_413"/>
       <path d="m78.59,79.22l0.19,-0.33l0.19,0.33l-0.38,0zm-0.2,-1.26c-0.12,0.08 -0.26,0.12 -0.4,0.12c-0.43,0 -0.78,-0.34 -0.8,-0.77c0.11,-0.27 0.85,-1.13 1.58,-1.91c0.76,0.77 1.52,1.64 1.62,1.91c-0.01,0.2 -0.09,0.39 -0.24,0.54c-0.15,0.15 -0.35,0.23 -0.56,0.23l0,0c-0.15,0 -0.29,-0.04 -0.42,-0.12l-0.78,0z" fill="#616161" id="svg_414" opacity="0.2"/>
      </g>
     </g>
     <g id="svg_415">
      <g id="svg_416"/>
     </g>
     <path d="m90.02,72.73c0,0 -0.95,-0.54 -2.17,-1.23l-0.02,-0.11c-0.06,-0.04 -0.14,-0.08 -0.21,-0.12l0.08,0.14c-1.65,-0.94 -3.75,-2.14 -4.71,-2.68c-0.03,-0.02 -0.06,-0.03 -0.09,-0.05l0.17,-2.09l-0.08,-1.03l0,-0.04l-0.23,-3.04c0.02,0 0.05,-0.01 0.07,-0.01l0,-1.2c0,0 -0.07,-0.03 -0.18,-0.09c-0.28,-0.13 -0.84,-0.41 -1.45,-0.7c-0.22,-0.11 -0.44,-0.22 -0.66,-0.33c-0.23,-0.11 -0.46,-0.22 -0.67,-0.33c-0.66,-0.33 -1.18,-0.58 -1.18,-0.59c0,0 -0.02,0.01 -0.05,0.02l0,22.72l4.31,-1.29l0.04,0.13l2.43,-0.87l4.68,-1.41l0,-5.51l-0.08,-0.29z" fill="#616161" id="svg_417" opacity="0.2"/>
    </g>
    <g id="svg_418">
     <g id="svg_419">
      <g id="svg_420">
       <g id="svg_421">
        <g id="svg_422">
         <path d="m67.37,93.02l0.09,0.29c0,0 5.32,3.04 7.02,4c0.32,0.18 0.51,0.29 0.52,0.29l7.57,0c0.01,0 0.02,-0.01 0.04,-0.02c0.01,-0.01 0.03,-0.02 0.06,-0.03c0.02,-0.01 0.04,-0.03 0.06,-0.04c0.03,-0.01 0.05,-0.03 0.08,-0.04c0.02,-0.02 0.05,-0.03 0.08,-0.05c0.05,-0.03 0.09,-0.05 0.15,-0.08c0.1,-0.06 0.22,-0.13 0.35,-0.2c0,0 0,0 0,0c0.1,-0.06 0.21,-0.12 0.31,-0.18c0.04,-0.02 0.08,-0.04 0.12,-0.07c0.25,-0.14 0.53,-0.3 0.83,-0.47c0.11,-0.06 0.22,-0.12 0.33,-0.19c0.11,-0.06 0.22,-0.12 0.33,-0.19c0.11,-0.06 0.23,-0.13 0.35,-0.19c1.5,-0.86 3.16,-1.8 3.96,-2.26c0.05,-0.03 0.09,-0.05 0.13,-0.08c0.19,-0.1 0.32,-0.18 0.35,-0.2l0,-12.62l-4.96,1.49l-1.12,0.33l-16.65,5l0,5.51z" fill="#333333" id="svg_423"/>
         <g id="svg_424">
          <g id="svg_425">
           <g id="svg_426">
            <g id="svg_427">
             <path d="m78.72,91.06l2.08,3.59l-4.15,0l2.07,-3.59zm1.68,3.36l-1.68,-2.9l-1.67,2.9l3.35,0z" fill="#FFD675" id="svg_428"/>
            </g>
           </g>
           <path d="m81.51,97.6c0.04,-0.01 7.54,-4.29 7.54,-4.29l1.05,-3.25l0,-9.37l-4.96,1.49l-1.12,0.33l-2.96,9.73l-0.4,1.3l-0.58,1.24l-1.29,2.77l0,0.05l2.72,0z" fill="#616161" id="svg_429" opacity="0.2"/>
           <path d="m82.57,97.6c0.01,0 0.02,-0.01 0.04,-0.02c0.01,-0.01 0.03,-0.02 0.06,-0.03c0.02,-0.01 0.04,-0.03 0.06,-0.04c0.02,-0.01 0.05,-0.03 0.08,-0.04c0.02,-0.02 0.05,-0.03 0.08,-0.05c0.05,-0.03 0.1,-0.05 0.15,-0.08c0.1,-0.06 0.22,-0.13 0.35,-0.2c0,0 0,0 0.01,0c0.09,-0.06 0.2,-0.12 0.3,-0.18c0.04,-0.02 0.08,-0.04 0.12,-0.07c0.25,-0.14 0.53,-0.3 0.83,-0.47c0.11,-0.06 0.22,-0.12 0.33,-0.19c0.11,-0.06 0.22,-0.12 0.33,-0.19c0.12,-0.06 0.23,-0.12 0.35,-0.19c0.48,-0.28 0.98,-0.56 1.47,-0.84c0.14,-0.08 0.29,-0.16 0.43,-0.24c0.84,-0.48 1.59,-0.92 2.06,-1.18c0.05,-0.03 0.09,-0.05 0.13,-0.08c0.19,-0.11 0.32,-0.18 0.35,-0.2l0,-12.62l-0.88,0.26l-0.5,0.15l-3.52,1.06l-0.06,0.02c-0.16,0.39 -0.33,0.8 -0.51,1.23c-1.19,2.86 -2.64,6.47 -3.58,8.83c-0.58,1.47 -0.97,2.44 -0.97,2.44l0,0.1l-0.26,2.82l2.75,0z" fill="#EBEBEB" id="svg_430"/>
          </g>
          <g id="svg_431">
           <g id="svg_432">
            <path d="m67.37,89.49l1.15,3.82c0,0 7.5,4.28 7.54,4.29l2.73,0l0,-0.06l-1.87,-4l-2.44,-8.31l-7.11,2.57l0,1.69z" fill="#616161" id="svg_433" opacity="0.2"/>
            <path d="m67.37,93.02l0.09,0.29c0,0 7.5,4.28 7.54,4.29l2.75,0l-0.26,-2.92c0,0 -3.24,-6.71 -4.39,-8.89l-5.73,1.72l0,5.51z" fill="#EBEBEB" id="svg_434"/>
           </g>
          </g>
         </g>
         <g id="svg_435">
          <polygon fill="#EBBE9F" id="svg_436" points="74.408,99.452 74.485,100.479 74.488,100.517 74.722,103.652 75.888,104.242           78.139,105.381 78.761,105.046 79.383,105.381 81.633,104.242 82.798,103.652 83.032,100.517 83.036,100.479 83.112,99.452           82.877,96.469 78.766,93.533 78.766,93.525 78.764,93.524 78.761,93.529 78.755,93.524 78.755,93.525 78.755,93.533           74.643,96.469         "/>
          <path d="m78.75,97.6l-1.37,0.05l1.03,0.64c0,0 0.16,0.01 0.34,0.01l0,0c0.01,0 0.01,0 0.01,0c0,0 0,0 0,0l0,0c0.19,0 0.35,-0.01 0.35,-0.01l1.03,-0.64l-1.38,-0.05l0,0l0,0l-0.01,0l0,0z" fill="#EBBE9F" id="svg_437"/>
          <polygon fill="#616161" id="svg_438" opacity="0.2" points="77.92,99.571 78.487,101.534 78.755,101.534 78.764,101.534           79.033,101.534 79.599,99.571 79.033,98.964 78.764,98.954 78.764,98.954 78.761,98.954 78.755,98.954 78.755,98.954           78.487,98.964         "/>
          <g id="svg_439">
           <polygon fill="#9C9C9C" id="svg_440" points="78.165,102.059 76.391,102.281 76.352,102.287 76.334,102.276 75.489,101.828            76.41,102.085 76.352,102.081 78.071,101.596          "/>
           <path d="m77.54,101.32c0.03,-0.07 0.05,-0.13 0.05,-0.21c0,-0.27 -0.23,-0.5 -0.5,-0.5c-0.28,0 -0.5,0.23 -0.5,0.5c0,0.08 0.01,0.15 0.04,0.21l0.91,0z" fill="#333333" id="svg_441"/>
           <polygon fill="#9C9C9C" id="svg_442" points="79.357,102.059 81.129,102.281 81.168,102.287 81.188,102.276 82.033,101.828            81.111,102.085 81.169,102.081 79.449,101.596          "/>
           <path d="m79.98,101.32c-0.03,-0.07 -0.05,-0.13 -0.05,-0.21c0,-0.27 0.23,-0.5 0.5,-0.5c0.28,0 0.5,0.23 0.5,0.5c0,0.08 -0.01,0.15 -0.04,0.21l-0.91,0z" fill="#333333" id="svg_443"/>
           <path d="m74.48,100.48c0.03,-0.02 0.05,-0.04 0.05,-0.04l0.82,2.9l0.54,0.9l-1.17,-0.59l-0.23,-3.13l-0.01,-0.04z" fill="#9C9C9C" id="svg_444"/>
           <path d="m83.04,100.48c-0.03,-0.02 -0.05,-0.04 -0.05,-0.04l-0.82,2.9l-0.54,0.9l1.17,-0.59l0.23,-3.13l0.01,-0.04z" fill="#9C9C9C" id="svg_445"/>
          </g>
          <path d="m74.64,104.77l0,-1.19c1.05,-0.29 2.21,-0.41 3.32,-0.44c0.75,-0.02 1.47,0 2.12,0.03c0.33,0.02 0.64,0.05 0.92,0.07c0.33,0.03 0.64,0.06 0.9,0.09c0.63,0.08 1.02,0.15 1.02,0.15l0,1.13c0,0 -4.12,2.2 -4.14,2.2c0,-0.01 -0.52,-0.26 -1.18,-0.59c-0.21,-0.11 -0.44,-0.22 -0.67,-0.33c-0.22,-0.11 -0.44,-0.22 -0.66,-0.32c-0.61,-0.3 -1.17,-0.57 -1.44,-0.71c-0.12,-0.05 -0.19,-0.09 -0.19,-0.09z" fill="#FFD675" id="svg_446"/>
          <g id="svg_447">
           <path d="m76.93,105.89l4.07,-2.65c0.34,0.03 0.64,0.06 0.9,0.09l-4.3,2.89c-0.21,-0.11 -0.44,-0.22 -0.67,-0.33z" fill="#FFFFFF" id="svg_448" opacity="0.2"/>
           <path d="m74.83,104.86l3.14,-1.72c0.74,-0.02 1.46,-0.01 2.12,0.03l-3.81,2.4c-0.62,-0.3 -1.18,-0.57 -1.45,-0.71z" fill="#FFFFFF" id="svg_449" opacity="0.2"/>
          </g>
         </g>
        </g>
        <g id="svg_450">
         <polygon fill="#333333" id="svg_451" points="86.909,89.308 87.046,88.341 86.569,89.193        "/>
         <polygon fill="#333333" id="svg_452" points="85.007,89.308 85.144,88.341 84.668,89.193        "/>
         <polygon fill="#333333" id="svg_453" points="83.107,89.308 83.243,88.341 82.769,89.193        "/>
         <polygon fill="#333333" id="svg_454" points="89.287,86.195 89.422,85.229 88.947,86.081        "/>
         <polygon fill="#333333" id="svg_455" points="87.385,86.195 87.521,85.229 87.046,86.081        "/>
         <polygon fill="#333333" id="svg_456" points="85.484,86.195 85.62,85.229 85.144,86.081        "/>
         <polygon fill="#333333" id="svg_457" points="88.705,83.057 88.841,82.092 88.366,82.943        "/>
         <polygon fill="#333333" id="svg_458" points="86.804,83.057 86.941,82.092 86.463,82.943        "/>
         <path d="m84.77,83.13c0.09,-0.22 0.18,-0.42 0.26,-0.62l0.02,-0.01l-0.09,0.7l-0.19,-0.07z" fill="#333333" id="svg_459"/>
         <polygon fill="#333333" id="svg_460" points="83.581,94.737 83.72,93.77 83.243,94.621        "/>
         <polygon fill="#333333" id="svg_461" points="85.484,95.126 85.62,94.16 85.144,95.012        "/>
         <path d="m87.26,94.77l0.26,-0.47l-0.05,0.35c-0.07,0.04 -0.14,0.08 -0.21,0.12z" fill="#333333" id="svg_462"/>
         <polygon fill="#333333" id="svg_463" points="88.846,81.103 89.094,81.027 89.073,81.179        "/>
         <polygon fill="#333333" id="svg_464" points="89.239,92.446 89.373,91.481 88.899,92.332        "/>
         <polygon fill="#333333" id="svg_465" points="87.123,92.446 87.26,91.481 86.784,92.332        "/>
         <polygon fill="#333333" id="svg_466" points="85.223,92.446 85.359,91.481 84.881,92.332        "/>
         <polygon fill="#333333" id="svg_467" points="83.321,92.446 83.456,91.481 82.982,92.332        "/>
         <polygon fill="#333333" id="svg_468" points="81.372,94.233 81.509,93.267 81.034,94.118        "/>
         <polygon fill="#333333" id="svg_469" points="89.024,89.308 89.16,88.341 88.686,89.193        "/>
        </g>
        <g id="svg_470">
         <polygon fill="#333333" id="svg_471" points="70.202,89.308 70.066,88.341 70.54,89.193        "/>
         <polygon fill="#333333" id="svg_472" points="72.103,89.308 71.966,88.341 72.441,89.193        "/>
         <polygon fill="#333333" id="svg_473" points="74.005,89.308 73.867,88.341 74.342,89.193        "/>
         <polygon fill="#333333" id="svg_474" points="73.528,94.737 73.391,93.77 73.867,94.621        "/>
         <polygon fill="#333333" id="svg_475" points="71.627,95.126 71.49,94.16 71.966,95.012        "/>
         <path d="m69.85,94.77l-0.26,-0.47l0.05,0.35c0.07,0.04 0.14,0.08 0.21,0.12z" fill="#333333" id="svg_476"/>
         <polygon fill="#333333" id="svg_477" points="67.873,92.446 67.735,91.481 68.212,92.332        "/>
         <polygon fill="#333333" id="svg_478" points="69.988,92.446 69.851,91.481 70.327,92.332        "/>
         <polygon fill="#333333" id="svg_479" points="71.89,92.446 71.752,91.481 72.228,92.332        "/>
         <polygon fill="#333333" id="svg_480" points="73.79,92.446 73.653,91.481 74.129,92.332        "/>
         <polygon fill="#333333" id="svg_481" points="75.737,94.233 75.602,93.267 76.079,94.118        "/>
         <polygon fill="#333333" id="svg_482" points="68.087,89.308 67.95,88.341 68.426,89.193        "/>
        </g>
       </g>
      </g>
      <g id="svg_483">
       <g id="svg_484">
        <g id="svg_485">
         <path d="m78.72,92.28l0.54,0.42c2.52,1.95 2.52,2.42 2.51,2.77c0,0.53 -0.26,1.04 -0.71,1.39c-0.13,0.11 -0.28,0.19 -0.44,0.27l1.01,1.68l-5.74,0l1.01,-1.69c-0.16,-0.07 -0.31,-0.16 -0.44,-0.27c-0.45,-0.35 -0.71,-0.86 -0.71,-1.4c0,-0.35 0,-0.74 2.44,-2.73l0.53,-0.44z" fill="#9C9C9C" id="svg_486"/>
        </g>
       </g>
       <polygon fill="#EBBE9F" id="svg_487" points="80.433,98.302 77.087,98.302 77.557,97.105 79.823,97.112      "/>
       <rect fill="#616161" height="0.35" id="svg_488" opacity="0.2" width="1.8" x="77.79" y="97.5"/>
       <path d="m78.08,105.66c-0.01,0.16 0.66,0.81 0.66,0.81s0.66,-0.67 0.66,-0.81c0,-0.22 -0.18,-0.39 -0.4,-0.39c-0.08,-0.01 -0.15,0.02 -0.21,0.05l0.25,-0.43l-0.61,0l0.25,0.43c-0.06,-0.04 -0.13,-0.06 -0.2,-0.06c-0.23,0 -0.4,0.18 -0.4,0.4z" fill="#333333" id="svg_489"/>
       <path d="m76.41,88.77c0.05,0.52 2.32,2.49 2.32,2.49s2.21,-2.04 2.25,-2.48c0.08,-0.79 -0.51,-1.46 -1.33,-1.46c-0.27,0 -0.53,0.08 -0.76,0.22l0.99,-1.74l-2.37,0l0.99,1.74c-0.22,-0.14 -0.48,-0.22 -0.76,-0.22c-0.81,0 -1.41,0.67 -1.33,1.45z" fill="#616161" id="svg_490" opacity="0.2"/>
       <path d="m76.66,88.76c-0.01,0.47 2.05,2.5 2.05,2.5s2.01,-2.09 2.01,-2.49c0,-0.68 -0.55,-1.23 -1.23,-1.23c-0.23,0 -0.45,0.06 -0.63,0.17l0.77,-1.31l-1.87,0l0.76,1.31c-0.18,-0.11 -0.4,-0.18 -0.63,-0.18c-0.68,0 -1.23,0.55 -1.23,1.23z" fill="#FFD675" id="svg_491"/>
       <path d="m78.88,86.83l-0.19,0.32l-0.19,-0.32l0.38,0zm0.2,1.25c0.12,-0.08 0.26,-0.11 0.41,-0.11c0.43,0 0.78,0.33 0.8,0.76c-0.12,0.27 -0.86,1.13 -1.59,1.91c-0.76,-0.77 -1.51,-1.64 -1.61,-1.91c0,-0.2 0.09,-0.39 0.23,-0.53c0.15,-0.16 0.35,-0.24 0.57,-0.24l0,0c0.14,0 0.28,0.04 0.41,0.12l0.78,0z" fill="#616161" id="svg_492" opacity="0.2"/>
      </g>
     </g>
     <g id="svg_493">
      <g id="svg_494"/>
     </g>
     <path d="m67.46,93.31c0,0 0.94,0.54 2.16,1.24l0.02,0.1c0.07,0.04 0.14,0.09 0.21,0.13l-0.08,-0.15c1.66,0.94 3.75,2.14 4.71,2.68c0.03,0.02 0.06,0.03 0.09,0.05l-0.16,2.09l0.07,1.03l0.01,0.04l0.22,3.04c-0.02,0.01 -0.04,0.01 -0.06,0.02l0,1.19c0,0 0.06,0.04 0.18,0.09c0.28,0.14 0.83,0.41 1.45,0.71c0.21,0.1 0.43,0.21 0.65,0.32c0.23,0.11 0.46,0.23 0.67,0.33c0.67,0.33 1.18,0.58 1.18,0.59c0,0 0.02,-0.01 0.06,-0.02l0,-22.72l-4.32,1.3l-0.04,-0.14l-2.42,0.88l-4.69,1.4l0,5.51l0.09,0.29z" fill="#616161" id="svg_495" opacity="0.2"/>
    </g>
   </g>
  </g>
 </g>

</svg>