<?xml version="1.0"?>
<svg width="40" height="56" xmlns="http://www.w3.org/2000/svg" xmlns:svg="http://www.w3.org/2000/svg" enable-background="new 0 0 450 450" version="1.1" xml:space="preserve">
 <g class="layer">
  <title>Layer 1</title>
  <g id="svg_496" transform="translate(-18.7576) matrix(1, 0, 0, 1, -40.0287, -121.147)">
   <g id="svg_497">
    <g id="svg_498">
     <path d="m63.36,176.94c-2.35,0 -4.27,-1.87 -4.27,-4.18l-0.12,-47.23c-0.01,-2.33 1.91,-4.21 4.26,-4.21l31.21,0.06c2.35,0 4.26,1.89 4.26,4.21l0,47.13c0,2.3 -1.9,4.18 -4.24,4.18l-31.1,0.04z" fill="#C9C9C9" id="svg_499"/>
     <path d="m63.56,176.88c-2.32,0 -4.21,-1.88 -4.21,-4.19l0,-47.12c0,-2.31 1.89,-4.19 4.21,-4.19l30.76,0c2.32,0 4.2,1.88 4.2,4.19l0,47.12c0,2.31 -1.88,4.19 -4.2,4.19l-30.76,0z" fill="#FFFFFF" id="svg_500"/>
     <g id="svg_501">
      <path d="m94.5,175.94l-30.76,0c-1.79,0 -3.26,-1.46 -3.26,-3.25l0,-47.11c0,-1.72 1.37,-3.13 2.1,-3.4l0.11,-0.04l30.92,0.01c3.06,0.23 4.15,1.92 4.15,3.42l0,47.12c0,1.79 -1.46,3.25 -3.26,3.25zm-31.55,-52.51c-0.33,0.21 -1.18,1.08 -1.18,2.15l0,47.11c0,1.08 0.89,1.96 1.97,1.96l30.76,0c1.09,0 1.97,-0.88 1.97,-1.96l0,-47.11c0,-1.19 -1.1,-2 -2.94,-2.15l-30.58,0z" fill="#333333" id="svg_502"/>
     </g>
     <g id="svg_503">
      <path d="m66.53,127.15c0,0.21 -0.06,0.45 -0.16,0.7c-0.1,0.26 -0.23,0.46 -0.37,0.61c-0.05,0.06 -0.14,0.14 -0.28,0.25c-0.19,0.16 -0.39,0.3 -0.61,0.43c-0.06,0.03 -0.1,0.06 -0.13,0.08c-0.09,0.06 -0.14,0.1 -0.14,0.12c0,0.05 0.14,0.14 0.43,0.25c0.26,0.11 0.46,0.17 0.59,0.2c0.01,0.01 0.04,0.01 0.08,0.01l0.11,0c0.03,0 0.07,0 0.1,0c0.04,0 0.07,0.01 0.11,0.02c-0.03,0.02 -0.07,0.05 -0.15,0.09c-0.07,0.03 -0.14,0.06 -0.21,0.1c-0.1,0.09 -0.18,0.15 -0.24,0.2c-0.05,0.05 -0.09,0.07 -0.13,0.07c-0.09,0 -0.25,-0.1 -0.46,-0.31c-0.21,-0.21 -0.42,-0.31 -0.62,-0.31c-0.12,0 -0.24,0.05 -0.35,0.14c-0.12,0.09 -0.19,0.14 -0.21,0.14c-0.05,0 -0.08,-0.04 -0.08,-0.1c0,-0.05 0.07,-0.12 0.21,-0.23c0.09,-0.07 0.18,-0.13 0.27,-0.2c-0.22,-0.13 -0.44,-0.26 -0.64,-0.41c-0.21,-0.14 -0.39,-0.31 -0.55,-0.52c-0.13,-0.18 -0.24,-0.38 -0.31,-0.58c-0.08,-0.21 -0.11,-0.42 -0.11,-0.64c0,-0.33 0.06,-0.6 0.19,-0.81c0.05,-0.07 0.21,-0.25 0.47,-0.51c0.08,-0.08 0.28,-0.26 0.61,-0.52c0.41,-0.34 0.66,-0.5 0.74,-0.5c0.07,0 0.21,0.07 0.4,0.21c0.25,0.17 0.53,0.42 0.85,0.74c0.21,0.21 0.35,0.41 0.45,0.61c0.09,0.19 0.14,0.42 0.14,0.67zm-1.03,0.57c0,-0.18 -0.04,-0.39 -0.12,-0.61c-0.08,-0.23 -0.19,-0.44 -0.33,-0.64c-0.12,-0.16 -0.32,-0.35 -0.61,-0.57c-0.1,-0.07 -0.24,-0.16 -0.42,-0.28c-0.07,0 -0.15,0.12 -0.26,0.37c-0.1,0.24 -0.15,0.4 -0.15,0.47c0,0.33 0.07,0.64 0.21,0.92c0.12,0.24 0.3,0.49 0.55,0.75c0.1,0.1 0.35,0.33 0.74,0.69c0.14,-0.12 0.24,-0.32 0.31,-0.58c0.05,-0.19 0.08,-0.36 0.08,-0.52z" fill="#333333" id="svg_504"/>
     </g>
     <g id="svg_505">
      <path d="m91.87,171.63c0,-0.21 0.06,-0.45 0.16,-0.7c0.1,-0.26 0.23,-0.46 0.37,-0.61c0.05,-0.06 0.15,-0.14 0.28,-0.25c0.19,-0.16 0.4,-0.3 0.61,-0.43c0.06,-0.04 0.1,-0.06 0.13,-0.08c0.1,-0.06 0.14,-0.1 0.14,-0.12c0,-0.05 -0.14,-0.14 -0.43,-0.26c-0.26,-0.1 -0.46,-0.17 -0.59,-0.2c-0.01,0 -0.04,0 -0.08,0l-0.11,0c-0.03,0 -0.07,0 -0.1,0c-0.03,0 -0.07,-0.01 -0.11,-0.02c0.03,-0.02 0.08,-0.05 0.15,-0.09c0.07,-0.03 0.14,-0.07 0.21,-0.1c0.1,-0.09 0.18,-0.16 0.24,-0.2c0.05,-0.05 0.1,-0.07 0.13,-0.07c0.09,0 0.24,0.1 0.46,0.31c0.22,0.2 0.42,0.31 0.62,0.31c0.12,0 0.24,-0.05 0.35,-0.14c0.12,-0.09 0.19,-0.14 0.21,-0.14c0.05,0 0.08,0.04 0.08,0.1c0,0.05 -0.07,0.12 -0.21,0.23c-0.09,0.07 -0.18,0.13 -0.27,0.2c0.22,0.13 0.44,0.26 0.64,0.41c0.21,0.14 0.39,0.31 0.55,0.52c0.14,0.18 0.24,0.38 0.31,0.58c0.08,0.21 0.11,0.42 0.11,0.64c0,0.33 -0.06,0.6 -0.19,0.81c-0.05,0.08 -0.2,0.25 -0.46,0.51c-0.08,0.08 -0.29,0.26 -0.62,0.52c-0.41,0.34 -0.65,0.5 -0.74,0.5c-0.07,0 -0.2,-0.07 -0.4,-0.21c-0.25,-0.17 -0.53,-0.42 -0.85,-0.74c-0.2,-0.2 -0.35,-0.4 -0.44,-0.61c-0.1,-0.2 -0.15,-0.42 -0.15,-0.67zm1.03,-0.57c0,0.18 0.04,0.39 0.12,0.61c0.08,0.23 0.19,0.44 0.33,0.64c0.11,0.16 0.32,0.35 0.61,0.57c0.1,0.07 0.24,0.16 0.42,0.28c0.07,0 0.15,-0.13 0.26,-0.37c0.1,-0.24 0.15,-0.39 0.15,-0.47c0,-0.33 -0.07,-0.64 -0.21,-0.92c-0.12,-0.24 -0.3,-0.49 -0.55,-0.75c-0.1,-0.1 -0.35,-0.33 -0.74,-0.69c-0.14,0.13 -0.24,0.32 -0.31,0.58c-0.05,0.19 -0.08,0.37 -0.08,0.52z" fill="#333333" id="svg_506"/>
     </g>
    </g>
    <g id="svg_507">
     <g id="svg_508">
      <g id="svg_509">
       <g id="svg_510">
        <g id="svg_511">
         <polygon fill="#C9C9C9" id="svg_512" points="85.107,137.057 85.048,137.898 85.008,138.409 84.853,140.597 84.815,141.111          84.767,141.81 84.767,141.813 84.72,142.459 84.22,142.469 83.984,142.473 83.495,142.485 83.217,142.49 82.879,142.497          82.282,142.509 81.619,142.523 78.502,142.589 78.497,142.589 75.382,142.523 74.719,142.509 74.122,142.497 73.784,142.49          73.506,142.485 73.262,142.478 73.015,142.473 72.779,142.469 72.281,142.459 72.233,141.813 72.233,141.81 72.185,141.111          72.146,140.597 71.992,138.409 71.953,137.898 71.892,137.057        "/>
         <path d="m84.5,137.06c-0.98,1.39 -2.37,2.81 -3.9,2.81l-0.02,0c-0.33,0.43 -0.73,0.75 -1.16,0.94c-0.27,0.12 -0.56,0.18 -0.86,0.18c-0.02,0 -0.04,0 -0.06,-0.01c0,0 0,0 0,0l0,-3.92l6,0z" fill="#616161" id="svg_513" opacity="0.2"/>
         <g id="svg_514">
          <path d="m87.22,145.68l-2.51,0.75l-0.23,0.07l-0.07,0.02c-0.2,-0.33 -0.36,-0.58 -0.43,-0.68c-0.02,-0.04 -0.04,-0.06 -0.04,-0.06c-0.01,0 -0.01,0.01 -0.02,0.01c-0.21,0.36 -0.33,0.68 -0.4,0.99l-0.67,0.2l-4.35,1.3l-2.71,0.81l-0.91,0.27c-0.03,-0.11 -0.07,-0.22 -0.11,-0.34c-1.57,-0.68 -0.86,-1.75 -1.62,-3.1c-0.03,-0.05 -0.06,-0.1 -0.09,-0.14c-0.09,0.11 -1.86,2.81 -2.16,4.77l-0.22,0.06l-1.76,0.52l-0.04,0c-0.03,-3.85 1.14,-6.43 2.22,-7.98c0.08,-0.11 0.15,-0.21 0.23,-0.31c0.07,-0.09 0.14,-0.19 0.21,-0.27l0.01,0c0,-0.01 0,-0.01 0,-0.01c0.05,-0.06 0.1,-0.13 0.16,-0.18c0.05,-0.07 0.1,-0.13 0.15,-0.19c0.14,-0.14 0.26,-0.27 0.37,-0.38l0,-0.01l0.01,0c0.03,-0.02 0.05,-0.05 0.08,-0.08c0.03,-0.02 0.05,-0.05 0.08,-0.07c0.03,-0.02 0.05,-0.05 0.08,-0.07c0.04,-0.04 0.09,-0.08 0.13,-0.11c0.17,-0.15 0.28,-0.22 0.28,-0.22l0.41,0.1l0.06,0.01l0.17,0.05l0.04,0l0.57,-0.02l0.87,-0.03l0.93,-0.04l2.56,-0.11l0,0l2.61,0.11l0.88,0.04l0.87,0.03l0.57,0.02l0.05,0l0.16,-0.05l0.07,-0.02l0.4,-0.09c0,0 0.11,0.06 0.28,0.21c0.04,0.04 0.09,0.08 0.14,0.12c0.02,0.02 0.05,0.05 0.07,0.07c0.03,0.02 0.05,0.05 0.08,0.07c0.03,0.03 0.05,0.06 0.08,0.08l0.01,0.01c0.02,0.02 0.05,0.05 0.08,0.08c0.03,0.03 0.06,0.06 0.1,0.09c0.06,0.07 0.12,0.14 0.19,0.21c0.05,0.05 0.08,0.1 0.13,0.15c0.01,0.01 0.01,0.02 0.02,0.03c0.06,0.06 0.11,0.13 0.16,0.19c0,0 0.01,0 0.01,0.01l0,0c0.07,0.08 0.14,0.18 0.21,0.27c0.08,0.1 0.15,0.2 0.23,0.31c0.45,0.66 0.92,1.5 1.32,2.53z" fill="#FDD8AB" id="svg_515"/>
          <path d="m78.5,144.04l0.57,0l-0.26,2.07c-0.1,0 -0.21,0.01 -0.31,0.01l0,-2.08z" fill="#616161" id="svg_516" opacity="0.2"/>
         </g>
         <g id="svg_517">
          <g id="svg_518">
           <path d="m78.5,137.06l-6,0c0.98,1.39 2.37,2.81 3.91,2.81l0.01,0c0.55,0.7 1.25,1.12 2.02,1.12c0.02,0 0.04,0 0.06,0l0,-3.93z" fill="#616161" id="svg_519" opacity="0.2"/>
           <path d="m78.5,144.04l-0.57,0l0.25,2.07c0.11,0 0.22,0.01 0.32,0.01l0,-2.08z" fill="#616161" id="svg_520" opacity="0.2"/>
          </g>
          <path d="m76.41,145.78c-2.9,-0.64 -4.48,-1.62 -5.3,-2.62c0.6,-0.87 1.17,-1.41 1.5,-1.69l3.8,4.31z" fill="#616161" id="svg_521" opacity="0.2"/>
          <g id="svg_522">
           <path d="m78.5,140.13c-0.02,0 -0.04,0 -0.06,0c-0.29,0 -0.56,-0.05 -0.83,-0.16c-0.02,0.06 -0.03,0.13 -0.03,0.21l0,0.37c0.28,0.12 0.56,0.18 0.86,0.18c0.02,0 0.04,0 0.06,0l0,-0.6z" fill="#FDD8AB" id="svg_523"/>
           <path d="m78.5,139.29c-0.01,0 -0.02,0 -0.03,0c-0.42,0 -0.76,0.29 -0.86,0.68c0.27,0.11 0.54,0.16 0.83,0.16c0.02,0 0.04,0 0.06,0l0,-0.84z" fill="#FDD8AB" id="svg_524"/>
          </g>
          <path d="m83.6,141.15l-1.54,-0.02l-2.64,-0.04l0,-0.54c-0.28,0.12 -0.56,0.18 -0.86,0.18c-0.02,0 -0.04,0 -0.06,0l0,0c0,0 0,0 0,0l0,0l0,0c-0.02,0 -0.04,0 -0.06,0c-0.3,0 -0.58,-0.06 -0.86,-0.18l0,0.54l-2.64,0.04l-1.54,0.02c-0.27,0.47 -0.15,0.51 -0.15,1.05c0,1.35 0.93,2.54 2.34,3.25c0.01,0 0.01,0 0.02,0c0.25,0.13 0.52,0.24 0.8,0.33c0.55,0.18 1.15,0.29 1.77,0.33c0.04,0 0.07,0 0.11,0c0.07,0.01 0.14,0.01 0.21,0.01l0,0l0,0c0,0 0,0 0,0l0,0c0.07,0 0.14,0 0.21,-0.01c0.04,0 0.07,0 0.11,0c0.62,-0.04 1.22,-0.15 1.77,-0.33c0.28,-0.09 0.55,-0.2 0.8,-0.33c0.01,0 0.01,0 0.02,0c1.41,-0.71 2.35,-1.9 2.35,-3.25c-0.01,-0.54 0.11,-0.58 -0.16,-1.05z" fill="#FDD8AB" id="svg_525"/>
          <g id="svg_526">
           <path d="m76.41,145.78c-0.28,-0.11 -0.55,-0.22 -0.8,-0.33c-0.01,0 -0.01,0 -0.02,0c-1.41,-0.71 -2.34,-1.9 -2.34,-3.25c0,-0.54 -0.12,-0.58 0.15,-1.05l1.54,-0.02l1.47,4.65z" fill="#616161" id="svg_527" opacity="0.2"/>
           <path d="m80.59,145.78c0.28,-0.11 0.55,-0.22 0.8,-0.33c0.01,0 0.01,0 0.02,0c1.41,-0.71 2.34,-1.9 2.34,-3.25c0,-0.54 0.12,-0.58 -0.15,-1.05l-1.54,-0.02l-1.47,4.65z" fill="#616161" id="svg_528" opacity="0.2"/>
          </g>
          <path d="m78.5,140.13c0.02,0 0.04,0 0.06,0c0.29,0 0.57,-0.05 0.83,-0.16c0.02,0.06 0.03,0.13 0.03,0.21l0,0.37c-0.28,0.12 -0.56,0.18 -0.86,0.18c-0.02,0 -0.04,0 -0.06,0l0,-0.6z" fill="#FDD8AB" id="svg_529"/>
          <path d="m78.5,139.29c0.01,0 0.02,0 0.03,0c0.42,0 0.77,0.29 0.86,0.68c-0.26,0.11 -0.54,0.16 -0.83,0.16c-0.02,0 -0.04,0 -0.06,0l0,-0.84z" fill="#FDD8AB" id="svg_530"/>
         </g>
         <path d="m85.9,143.16c-0.83,1 -2.4,1.98 -5.31,2.62l1.58,-1.79l0.09,-0.11l1.24,-1.4l0.26,-0.29l0.63,-0.72c0.04,0.03 0.09,0.07 0.14,0.12c0.02,0.02 0.05,0.04 0.07,0.06c0.03,0.02 0.06,0.05 0.08,0.07c0.03,0.03 0.06,0.06 0.09,0.09l0,0l0,0c0.02,0.03 0.05,0.05 0.08,0.08c0.03,0.04 0.06,0.06 0.1,0.1c0.06,0.06 0.12,0.13 0.19,0.21c0.04,0.04 0.08,0.09 0.13,0.14c0.01,0.01 0.02,0.02 0.03,0.03c0.05,0.06 0.1,0.13 0.16,0.19c0,0 0,0.01 0,0.01l0,0l0,0c0.07,0.09 0.14,0.18 0.21,0.27c0.08,0.1 0.15,0.21 0.23,0.32z" fill="#616161" id="svg_531" opacity="0.2"/>
         <path d="m86.27,140.15c0,0.18 -0.01,0.36 -0.04,0.55c-0.08,0.6 -0.31,1.23 -0.77,1.87l0,0c-0.44,0.61 -1.08,1.22 -2,1.81c-0.05,0.04 -0.11,0.07 -0.17,0.11c-0.53,0.33 -1.16,0.65 -1.88,0.96c-0.02,0.01 -0.03,0.01 -0.05,0.02c-0.01,0 -0.02,0.01 -0.03,0.01c-0.05,0.02 -0.09,0.04 -0.13,0.06c-0.13,0.05 -0.27,0.1 -0.4,0.16c-0.07,0.03 -0.14,0.05 -0.21,0.08l1.69,-3.27l0.58,-1.11l0.13,-0.26l2.12,-4.08c0,0 1.16,1.33 1.16,3.09z" fill="#EBEBEB" id="svg_532"/>
         <path d="m76.41,145.78c-1.08,-0.41 -1.97,-0.84 -2.7,-1.29c-0.06,-0.04 -0.12,-0.08 -0.17,-0.11c-1.88,-1.21 -2.61,-2.51 -2.77,-3.68c-0.03,-0.19 -0.04,-0.37 -0.04,-0.55c0,-1.76 1.16,-3.09 1.16,-3.09l4.52,8.72z" fill="#EBEBEB" id="svg_533"/>
         <g id="svg_534">
          <polygon fill="#333333" id="svg_535" points="72.612,142.245 73.158,142.97 72.911,142.096         "/>
          <polygon fill="#333333" id="svg_536" points="74.498,144.004 75.043,144.73 74.796,143.856         "/>
          <polygon fill="#333333" id="svg_537" points="71.621,137.917 72.165,138.642 71.919,137.769         "/>
          <polygon fill="#333333" id="svg_538" points="72.34,139.44 72.885,140.163 72.638,139.29         "/>
          <polygon fill="#333333" id="svg_539" points="73.059,140.961 73.604,141.685 73.357,140.811         "/>
          <polygon fill="#333333" id="svg_540" points="73.78,142.482 74.325,143.208 74.077,142.335         "/>
          <path d="m73.71,144.49c-0.06,-0.04 -0.12,-0.07 -0.17,-0.11l-0.32,-0.42l0.3,-0.15l0.19,0.68z" fill="#333333" id="svg_541"/>
          <polygon fill="#333333" id="svg_542" points="71.172,139.201 71.718,139.926 71.472,139.053         "/>
          <polygon fill="#333333" id="svg_543" points="71.892,140.724 72.438,141.449 72.191,140.576         "/>
          <path d="m71,141.01l-0.23,-0.31c-0.03,-0.19 -0.04,-0.37 -0.04,-0.55l0.03,-0.01l0.24,0.87z" fill="#333333" id="svg_544"/>
          <polygon fill="#333333" id="svg_545" points="71.493,142.092 72.037,142.815 71.79,141.943         "/>
         </g>
         <g id="svg_546">
          <polygon fill="#333333" id="svg_547" points="84.388,142.245 83.843,142.97 84.089,142.096         "/>
          <polygon fill="#333333" id="svg_548" points="82.502,144.004 81.958,144.73 82.203,143.856         "/>
          <polygon fill="#333333" id="svg_549" points="85.38,137.917 84.836,138.642 85.082,137.769         "/>
          <polygon fill="#333333" id="svg_550" points="84.662,139.44 84.116,140.163 84.362,139.29         "/>
          <polygon fill="#333333" id="svg_551" points="83.942,140.961 83.396,141.685 83.643,140.811         "/>
          <polygon fill="#333333" id="svg_552" points="83.222,142.482 82.676,143.208 82.924,142.335         "/>
          <path d="m83.29,144.49c0.06,-0.04 0.12,-0.07 0.17,-0.11l0.32,-0.42l-0.3,-0.15l-0.19,0.68z" fill="#333333" id="svg_553"/>
          <polygon fill="#333333" id="svg_554" points="85.827,139.201 85.283,139.926 85.529,139.053         "/>
          <polygon fill="#333333" id="svg_555" points="85.109,140.724 84.563,141.449 84.81,140.576         "/>
          <path d="m86.27,140.15c0,0.18 -0.01,0.36 -0.04,0.55l-0.23,0.31l0.25,-0.87l0.02,0.01z" fill="#333333" id="svg_556"/>
          <polygon fill="#333333" id="svg_557" points="85.508,142.092 84.964,142.815 85.21,141.943         "/>
         </g>
        </g>
        <path d="m81.34,138.75c-0.83,0 -1.6,-0.24 -2.25,-0.64l0.8,1.27l0.34,0.56l0.88,1.38l2.81,4.47c-0.21,0.36 -0.33,0.68 -0.4,0.99l-0.67,0.2l-4.35,1.3l-2.71,0.81l-0.91,0.27c-0.03,-0.11 -0.07,-0.22 -0.11,-0.34c-1.57,-0.68 -0.86,-1.75 -1.62,-3.1l2.79,-4.6l0.84,-1.38l0.25,-0.41l0.86,-1.42c-0.66,0.4 -1.43,0.62 -2.26,0.62c-2.43,0 -4.38,-1.97 -4.38,-4.4c0,-1.43 7.16,-8.87 7.16,-8.87s7.34,7.22 7.33,8.91c0,2.42 -1.97,4.38 -4.4,4.38z" fill="#333333" id="svg_558"/>
        <g id="svg_559">
         <g id="svg_560">
          <path d="m75.79,149.09l-0.91,0.27c-0.03,-0.11 -0.07,-0.22 -0.11,-0.34c-1.62,-0.7 -0.81,-1.82 -1.71,-3.24c-0.09,0.11 -1.86,2.81 -2.17,4.77l-0.21,0.06c-0.47,-2.03 2.61,-5.45 2.61,-5.45s1.38,3.41 2.5,3.93z" fill="#616161" id="svg_561" opacity="0.2"/>
          <path d="m84.71,146.43l-0.23,0.07l-0.07,0.02c-0.2,-0.33 -0.36,-0.57 -0.43,-0.68c-0.02,-0.03 -0.04,-0.06 -0.04,-0.06c-0.23,0.35 -0.35,0.69 -0.42,1l-0.67,0.2c0.5,-0.94 0.86,-1.82 0.86,-1.82s0.46,0.52 1,1.27z" fill="#616161" id="svg_562" opacity="0.2"/>
         </g>
         <path d="m80.23,139.94l-0.81,0.61c-0.27,0.12 -0.56,0.18 -0.86,0.18c-0.02,0 -0.04,0 -0.06,0c-0.02,0 -0.04,0 -0.06,0c-0.3,0 -0.58,-0.06 -0.86,-0.18l-0.8,-0.61l0.25,-0.41c0.5,0.24 1.21,0.6 1.41,0.6c0.02,0 0.04,0 0.06,0c0,0 0,0 0,0c0.02,0 0.04,0 0.06,0c0.19,0 0.82,-0.42 1.33,-0.75l0.34,0.56z" fill="#616161" id="svg_563" opacity="0.2"/>
         <path d="m79.58,131.1c-0.48,0.05 -0.88,0.34 -1.08,0.75c-0.2,-0.41 -0.6,-0.7 -1.07,-0.75c-1.18,0.67 -2.01,2.37 -2.01,4.37c0,1.41 0.42,2.68 1.08,3.53c0.01,0.01 0.01,0.01 0.02,0.02c0,0 0,0 0,0l0,0c0.34,0.44 0.74,0.76 1.19,0.95c0.25,0.1 0.52,0.16 0.79,0.16l0,0l0,0c0,0 0,0 0,0l0,0c0.28,0 0.55,-0.06 0.8,-0.16c0.44,-0.19 0.85,-0.51 1.19,-0.95l0,0c0,0 0,0 0,0c0,-0.01 0.01,-0.01 0.01,-0.02c0.66,-0.85 1.08,-2.12 1.08,-3.53c0,-2 -0.83,-3.7 -2,-4.37z" fill="#FDD8AB" id="svg_564"/>
         <path d="m80.66,130.77c0,-0.5 -2.18,-2.65 -2.18,-2.65s-2.12,2.21 -2.13,2.64c0,0.72 0.59,1.31 1.3,1.31c0.25,0 0.48,-0.07 0.68,-0.19l0.35,0c0.2,0.12 0.42,0.19 0.67,0.19c0.72,0 1.31,-0.58 1.31,-1.3z" fill="#333333" id="svg_565"/>
         <g id="svg_566">
          <g id="svg_567">
           <path d="m76.19,135.19c-0.01,0.04 -0.02,0.07 -0.02,0.11c0,0.24 0.3,0.44 0.66,0.44c0.36,0 0.66,-0.2 0.66,-0.44c0,-0.04 -0.01,-0.07 -0.03,-0.11l-1.27,0z" fill="#333333" id="svg_568"/>
          </g>
          <g id="svg_569">
           <path d="m80.81,135.19c0.01,0.04 0.02,0.07 0.02,0.11c0,0.24 -0.29,0.44 -0.66,0.44c-0.36,0 -0.65,-0.2 -0.65,-0.44c0,-0.04 0.01,-0.07 0.02,-0.11l1.27,0z" fill="#333333" id="svg_570"/>
          </g>
          <g id="svg_571">
           <path d="m79.36,138.43l-0.86,0l0,0l-0.86,0c0.17,0.23 0.49,0.38 0.86,0.39l0,0l0,0c0,0 0,0 0,0l0,0c0.37,-0.01 0.69,-0.16 0.86,-0.39z" fill="#454545" id="svg_572"/>
           <path d="m78.5,138.38c-0.39,-0.45 -0.94,0.12 -0.94,0.12l0.94,0l0,0l0.94,0c0,0 -0.55,-0.57 -0.94,-0.12z" fill="#333333" id="svg_573"/>
          </g>
          <polygon fill="#616161" id="svg_574" opacity="0.2" points="78.502,135.923 78.502,135.909 78.499,135.917 78.498,135.909           78.498,135.923 78.004,137.5 78.498,137.5 78.502,137.5 78.997,137.5         "/>
          <polygon fill="#333333" id="svg_575" points="79.445,134.254 80.749,134.323 80.766,134.325 80.776,134.335 81.294,134.9           80.721,134.391 80.749,134.402 79.444,134.467         "/>
          <polygon fill="#333333" id="svg_576" points="77.669,134.467 76.365,134.402 76.392,134.391 75.819,134.9 76.336,134.335           76.347,134.325 76.364,134.323 77.668,134.254         "/>
         </g>
        </g>
       </g>
       <path d="m79.4,131.13c0.06,-0.01 0.12,-0.02 0.18,-0.03c-0.06,0.01 -0.12,0.02 -0.18,0.03z" fill="#616161" id="svg_577" opacity="0.2"/>
       <path d="m78.94,131.34c0.01,0 0.01,-0.01 0.02,-0.01c-0.01,0 -0.01,0.01 -0.02,0.01z" fill="#616161" id="svg_578" opacity="0.2"/>
       <path d="m79.08,131.25c0.01,0 0.02,-0.01 0.03,-0.01c0,0 -0.02,0.01 -0.03,0.01z" fill="#616161" id="svg_579" opacity="0.2"/>
       <path d="m79.24,131.18c0.02,-0.01 0.04,-0.01 0.06,-0.02c-0.02,0.01 -0.04,0.01 -0.06,0.02z" fill="#616161" id="svg_580" opacity="0.2"/>
       <g id="svg_581">
        <path d="m75.5,137.09c0,-0.25 -1.1,-1.33 -1.1,-1.33s-1.07,1.11 -1.07,1.33c0,0.36 0.3,0.65 0.66,0.65c0.12,0 0.24,-0.03 0.33,-0.09l-0.41,0.7l1,0l-0.41,-0.7c0.1,0.06 0.22,0.09 0.34,0.1c0.36,0 0.66,-0.3 0.66,-0.66z" fill="#FFD675" id="svg_582"/>
        <path d="m74.29,138.14l0.12,-0.22l0.13,0.22l-0.25,0zm-0.08,-0.67c-0.06,0.04 -0.14,0.06 -0.22,0.06c-0.12,0 -0.23,-0.05 -0.31,-0.13c-0.09,-0.08 -0.13,-0.19 -0.13,-0.31c0.03,-0.1 0.45,-0.59 0.85,-1.02c0.43,0.42 0.85,0.91 0.88,1.04c0,0.1 -0.04,0.21 -0.13,0.29c-0.08,0.08 -0.19,0.13 -0.31,0.13l0,0c-0.08,0 -0.16,-0.02 -0.23,-0.06l-0.4,0z" fill="#616161" id="svg_583" opacity="0.2"/>
        <path d="m83.76,137.09c0,-0.25 -1.1,-1.33 -1.1,-1.33s-1.06,1.11 -1.07,1.33c0,0.36 0.3,0.65 0.66,0.65c0.12,0 0.24,-0.03 0.34,-0.09l-0.41,0.7l0.99,0l-0.41,-0.7c0.1,0.06 0.22,0.09 0.34,0.1c0.37,0 0.66,-0.3 0.66,-0.66z" fill="#FFD675" id="svg_584"/>
        <path d="m82.55,138.14l0.12,-0.22l0.13,0.22l-0.25,0zm-0.08,-0.67c-0.06,0.04 -0.14,0.06 -0.22,0.06c-0.12,0 -0.23,-0.05 -0.31,-0.13c-0.09,-0.08 -0.13,-0.19 -0.13,-0.31c0.04,-0.1 0.45,-0.59 0.86,-1.02c0.42,0.42 0.84,0.91 0.88,1.04c-0.01,0.1 -0.05,0.21 -0.13,0.29c-0.09,0.08 -0.2,0.13 -0.32,0.13l0,0c-0.08,0 -0.16,-0.02 -0.22,-0.06l-0.41,0z" fill="#616161" id="svg_585" opacity="0.2"/>
       </g>
      </g>
      <path d="m85.9,143.15c-0.08,-0.11 -0.15,-0.21 -0.23,-0.31c-0.03,-0.03 -0.05,-0.06 -0.07,-0.09c-0.05,-0.06 -0.1,-0.12 -0.14,-0.18l0,0c0.46,-0.64 0.69,-1.27 0.77,-1.87c0.03,-0.19 0.04,-0.37 0.04,-0.55c0,-1.76 -1.16,-3.09 -1.16,-3.09l-0.3,0c0.58,-0.75 0.93,-1.68 0.93,-2.69c0.01,-1.68 -7.24,-8.81 -7.33,-8.9l0,22.84l0.09,-0.03l4.35,-1.3l0.54,-0.16l0.13,-0.04l0,0l0,0c0.01,-0.04 0.02,-0.08 0.03,-0.12c0.01,-0.04 0.02,-0.08 0.03,-0.12c0,0 0.01,0 0.01,0c0.07,-0.24 0.18,-0.49 0.35,-0.76c0,0 0,0 0,0.01c0.01,0.01 0.02,0.02 0.04,0.05c0.07,0.11 0.23,0.35 0.43,0.68l0,0l0,0l0.07,-0.02l0.1,-0.03l0.13,-0.04l2.51,-0.75c-0.4,-1.03 -0.87,-1.87 -1.32,-2.53z" fill="#616161" id="svg_586" opacity="0.2"/>
     </g>
     <g id="svg_587">
      <g id="svg_588">
       <g id="svg_589">
        <g id="svg_590">
         <polygon fill="#C9C9C9" id="svg_591" points="70.985,161.865 71.046,161.025 71.084,160.513 71.24,158.325 71.279,157.813          71.327,157.112 71.327,157.108 71.374,156.465 71.873,156.453 72.11,156.449 72.599,156.437 72.877,156.432 73.214,156.425          73.812,156.412 74.475,156.399 77.59,156.333 77.597,156.333 80.712,156.399 81.373,156.412 81.972,156.425 82.31,156.432          82.586,156.437 82.832,156.442 83.077,156.449 83.313,156.453 83.812,156.465 83.86,157.108 83.86,157.112 83.908,157.813          83.946,158.325 84.102,160.513 84.141,161.025 84.2,161.865        "/>
         <path d="m71.59,161.87c0.99,-1.4 2.37,-2.82 3.91,-2.82l0.01,0c0.34,-0.42 0.73,-0.75 1.17,-0.94c0.27,-0.11 0.56,-0.18 0.85,-0.18c0.02,0 0.04,0.01 0.06,0.01c0,0 0,0 0.01,0l0,3.92l-6.01,0l0,0.01z" fill="#616161" id="svg_592" opacity="0.2"/>
         <g id="svg_593">
          <path d="m68.88,153.24l2.5,-0.74l0.24,-0.07l0.07,-0.02c0.2,0.33 0.35,0.57 0.42,0.67c0.03,0.04 0.04,0.06 0.05,0.06c0,0 0.01,-0.01 0.01,-0.01c0.22,-0.36 0.33,-0.68 0.41,-0.99l0.67,-0.2l4.34,-1.3l2.71,-0.8l0.91,-0.28c0.03,0.11 0.07,0.22 0.12,0.34c1.56,0.68 0.85,1.75 1.61,3.1c0.03,0.05 0.06,0.1 0.09,0.14c0.09,-0.11 1.86,-2.81 2.17,-4.77l0.22,-0.06l1.76,-0.53l0.04,0c0.03,3.86 -1.15,6.44 -2.23,7.99c-0.08,0.11 -0.15,0.21 -0.23,0.31c-0.07,0.09 -0.14,0.18 -0.21,0.27l0,0c0,0.01 0,0.01 0,0.01c-0.06,0.06 -0.11,0.13 -0.16,0.18c-0.05,0.07 -0.11,0.13 -0.16,0.18c-0.13,0.15 -0.25,0.28 -0.37,0.39l0,0.01l0,0c-0.03,0.02 -0.06,0.05 -0.09,0.08c-0.02,0.02 -0.05,0.05 -0.07,0.07c-0.03,0.02 -0.05,0.05 -0.08,0.07c-0.05,0.04 -0.09,0.08 -0.13,0.11c-0.17,0.15 -0.28,0.22 -0.28,0.22l-0.41,-0.1l-0.07,-0.02l-0.16,-0.04l-0.04,-0.01l-0.57,0.03l-0.88,0.03l-0.93,0.04l-2.55,0.1l-0.01,0l-2.6,-0.1l-0.88,-0.04l-0.88,-0.03l-0.56,-0.03l-0.05,0.01l-0.16,0.04l-0.07,0.02l-0.4,0.1c0,0 -0.11,-0.07 -0.28,-0.22c-0.05,-0.03 -0.09,-0.07 -0.14,-0.11c-0.02,-0.02 -0.05,-0.05 -0.07,-0.07c-0.03,-0.02 -0.05,-0.05 -0.08,-0.07c-0.03,-0.03 -0.06,-0.06 -0.09,-0.08l0,-0.01c-0.03,-0.02 -0.05,-0.05 -0.08,-0.08c-0.03,-0.03 -0.07,-0.06 -0.1,-0.1c-0.06,-0.06 -0.13,-0.13 -0.19,-0.21c-0.05,-0.04 -0.09,-0.09 -0.13,-0.14c-0.01,-0.01 -0.01,-0.02 -0.02,-0.04c-0.06,-0.05 -0.11,-0.12 -0.17,-0.18c0,0 0,0 0,-0.01l0,0c-0.07,-0.09 -0.14,-0.18 -0.21,-0.27c-0.08,-0.1 -0.15,-0.2 -0.23,-0.31c-0.46,-0.66 -0.93,-1.49 -1.32,-2.53z" fill="#FDD8AB" id="svg_594"/>
          <path d="m77.59,154.88l-0.57,0l0.26,-2.07c0.1,0 0.21,-0.01 0.31,-0.01l0,2.08z" fill="#616161" id="svg_595" opacity="0.2"/>
         </g>
         <g id="svg_596">
          <g id="svg_597">
           <path d="m77.59,161.86l6.01,0c-0.99,-1.39 -2.38,-2.81 -3.91,-2.81l-0.02,0c-0.54,-0.69 -1.25,-1.12 -2.02,-1.12c-0.02,0 -0.04,0.01 -0.06,0.01l0,3.92z" fill="#616161" id="svg_598" opacity="0.2"/>
           <path d="m77.59,154.88l0.57,0l-0.25,-2.07c-0.11,0 -0.21,-0.01 -0.32,-0.01l0,2.08z" fill="#616161" id="svg_599" opacity="0.2"/>
          </g>
          <path d="m79.68,153.14c2.91,0.64 4.48,1.62 5.31,2.63c-0.6,0.86 -1.18,1.41 -1.51,1.68l-3.8,-4.31z" fill="#616161" id="svg_600" opacity="0.2"/>
          <g id="svg_601">
           <path d="m77.59,158.79c0.02,0 0.04,0 0.06,0c0.29,0 0.57,0.06 0.83,0.16c0.02,-0.06 0.03,-0.13 0.03,-0.21l0,-0.37c-0.27,-0.12 -0.56,-0.18 -0.86,-0.18c-0.02,0 -0.04,0.01 -0.06,0.01l0,0.59z" fill="#FDD8AB" id="svg_602"/>
           <path d="m77.59,159.63c0.01,0 0.02,0 0.03,0c0.42,0 0.77,-0.29 0.86,-0.68c-0.26,-0.11 -0.54,-0.16 -0.83,-0.16c-0.02,0 -0.04,0 -0.06,0l0,0.84z" fill="#FDD8AB" id="svg_603"/>
          </g>
          <path d="m72.49,157.77l1.54,0.02l2.65,0.04l0,0.54c0.27,-0.12 0.56,-0.18 0.85,-0.18c0.02,0 0.04,0 0.06,0.01l0,0l0,0c0,0 0,0 0,0l0,0c0.02,-0.01 0.04,-0.01 0.06,-0.01c0.3,0 0.59,0.06 0.86,0.18l0,-0.54l2.64,-0.04l1.55,-0.02c0.27,-0.47 0.15,-0.51 0.15,-1.05c0,-1.35 -0.93,-2.54 -2.35,-3.24c-0.01,-0.01 -0.01,-0.01 -0.02,-0.01c-0.25,-0.13 -0.52,-0.24 -0.8,-0.33c-0.55,-0.18 -1.15,-0.29 -1.77,-0.33c-0.04,0 -0.07,0 -0.1,0c-0.07,-0.01 -0.14,-0.01 -0.22,-0.01l0,0c0,0 0,0 0,0l0,0l0,0c-0.07,0.01 -0.14,0.01 -0.21,0.01c-0.03,0 -0.07,0 -0.1,0c-0.63,0.04 -1.23,0.15 -1.77,0.33c-0.29,0.09 -0.55,0.2 -0.81,0.33c-0.01,0 -0.01,0 -0.02,0.01c-1.41,0.7 -2.34,1.89 -2.34,3.24c0,0.54 -0.12,0.58 0.15,1.05z" fill="#FDD8AB" id="svg_604"/>
          <g id="svg_605">
           <path d="m79.68,153.14c0.28,0.11 0.55,0.22 0.8,0.33c0.01,0 0.01,0 0.02,0.01c1.42,0.7 2.35,1.89 2.35,3.24c0,0.54 0.12,0.58 -0.15,1.05l-1.55,0.03l-1.47,-4.66z" fill="#616161" id="svg_606" opacity="0.2"/>
           <path d="m75.51,153.14c-0.29,0.11 -0.55,0.22 -0.81,0.33c-0.01,0 -0.01,0 -0.01,0.01c-1.42,0.7 -2.35,1.89 -2.35,3.24c0,0.54 -0.12,0.58 0.15,1.05l1.54,0.03l1.48,-4.66z" fill="#616161" id="svg_607" opacity="0.2"/>
          </g>
          <path d="m77.59,158.79c-0.02,0 -0.04,0 -0.06,0c-0.28,0 -0.56,0.06 -0.83,0.16c-0.01,-0.06 -0.02,-0.13 -0.02,-0.21l0,-0.37c0.27,-0.12 0.56,-0.18 0.85,-0.18c0.02,0 0.04,0.01 0.06,0.01l0,0.59z" fill="#FDD8AB" id="svg_608"/>
          <path d="m77.59,159.63c-0.01,0 -0.02,0 -0.03,0c-0.41,0 -0.76,-0.29 -0.86,-0.68c0.27,-0.11 0.55,-0.16 0.83,-0.16c0.02,0 0.04,0 0.06,0l0,0.84z" fill="#FDD8AB" id="svg_609"/>
         </g>
         <path d="m70.2,155.77c0.82,-1.01 2.4,-1.99 5.3,-2.63l-1.57,1.79l-0.1,0.11l-1.23,1.4l-0.26,0.29l-0.64,0.72c-0.04,-0.03 -0.08,-0.07 -0.13,-0.12c-0.03,-0.02 -0.05,-0.04 -0.08,-0.06c-0.02,-0.02 -0.05,-0.05 -0.08,-0.07c-0.03,-0.03 -0.05,-0.06 -0.08,-0.09l0,0l0,0c-0.03,-0.03 -0.06,-0.05 -0.09,-0.09c-0.03,-0.02 -0.06,-0.05 -0.09,-0.09c-0.06,-0.06 -0.13,-0.13 -0.19,-0.21c-0.05,-0.04 -0.09,-0.09 -0.14,-0.14c0,-0.01 -0.02,-0.02 -0.02,-0.03c-0.05,-0.06 -0.11,-0.13 -0.16,-0.19c0,0 0,-0.01 0,-0.01l-0.01,0l0,0c-0.07,-0.09 -0.13,-0.18 -0.21,-0.27c-0.07,-0.1 -0.15,-0.2 -0.22,-0.31z" fill="#616161" id="svg_610" opacity="0.2"/>
         <path d="m69.82,158.77c0,-0.18 0.01,-0.36 0.04,-0.55c0.09,-0.6 0.32,-1.23 0.77,-1.87l0,0c0.44,-0.61 1.09,-1.22 2,-1.81c0.06,-0.04 0.12,-0.07 0.18,-0.11c0.53,-0.33 1.15,-0.65 1.87,-0.95c0.02,-0.02 0.03,-0.02 0.05,-0.03c0.01,0 0.02,-0.01 0.03,-0.01c0.05,-0.02 0.09,-0.04 0.14,-0.05c0.13,-0.06 0.26,-0.11 0.4,-0.17c0.07,-0.02 0.13,-0.05 0.21,-0.08l-1.7,3.27l-0.58,1.12l-0.13,0.25l-2.11,4.09c-0.01,0 -1.17,-1.34 -1.17,-3.1z" fill="#EBEBEB" id="svg_611"/>
         <path d="m79.68,153.14c1.08,0.41 1.98,0.85 2.7,1.29c0.06,0.04 0.12,0.08 0.17,0.11c1.88,1.21 2.61,2.51 2.77,3.68c0.03,0.19 0.04,0.37 0.04,0.55c0,1.76 -1.16,3.09 -1.16,3.09l-4.52,-8.72z" fill="#EBEBEB" id="svg_612"/>
         <g id="svg_613">
          <polygon fill="#333333" id="svg_614" points="83.482,156.676 82.936,155.952 83.183,156.825         "/>
          <polygon fill="#333333" id="svg_615" points="81.594,154.918 81.049,154.192 81.296,155.065         "/>
          <polygon fill="#333333" id="svg_616" points="84.473,161.005 83.929,160.28 84.174,161.153         "/>
          <polygon fill="#333333" id="svg_617" points="83.753,159.482 83.209,158.759 83.456,159.632         "/>
          <polygon fill="#333333" id="svg_618" points="83.034,157.961 82.489,157.238 82.736,158.108         "/>
          <polygon fill="#333333" id="svg_619" points="82.314,156.439 81.769,155.714 82.016,156.587         "/>
          <path d="m82.38,154.43c0.06,0.04 0.12,0.08 0.18,0.11l0.31,0.43l-0.3,0.14l-0.19,-0.68z" fill="#333333" id="svg_620"/>
          <polygon fill="#333333" id="svg_621" points="84.92,159.72 84.376,158.996 84.622,159.869         "/>
          <polygon fill="#333333" id="svg_622" points="84.2,158.198 83.656,157.475 83.902,158.346         "/>
          <path d="m85.09,157.91l0.23,0.31c0.03,0.19 0.04,0.37 0.04,0.55l-0.02,0.01l-0.25,-0.87z" fill="#333333" id="svg_623"/>
          <polygon fill="#333333" id="svg_624" points="84.601,156.831 84.055,156.106 84.302,156.979         "/>
         </g>
         <g id="svg_625">
          <polygon fill="#333333" id="svg_626" points="71.706,156.676 72.249,155.952 72.003,156.825         "/>
          <polygon fill="#333333" id="svg_627" points="73.591,154.918 74.136,154.192 73.891,155.065         "/>
          <polygon fill="#333333" id="svg_628" points="70.713,161.005 71.258,160.28 71.011,161.153         "/>
          <polygon fill="#333333" id="svg_629" points="71.432,159.482 71.977,158.759 71.731,159.632         "/>
          <polygon fill="#333333" id="svg_630" points="72.152,157.961 72.698,157.238 72.45,158.108         "/>
          <polygon fill="#333333" id="svg_631" points="72.872,156.439 73.416,155.714 73.169,156.587         "/>
          <path d="m72.8,154.43c-0.06,0.04 -0.11,0.08 -0.17,0.11l-0.32,0.43l0.3,0.14l0.19,-0.68z" fill="#333333" id="svg_632"/>
          <polygon fill="#333333" id="svg_633" points="70.265,159.72 70.811,158.996 70.563,159.869         "/>
          <polygon fill="#333333" id="svg_634" points="70.985,158.198 71.53,157.475 71.283,158.346         "/>
          <path d="m69.82,158.77c0,-0.18 0.01,-0.36 0.04,-0.55l0.24,-0.31l-0.25,0.87l-0.03,-0.01z" fill="#333333" id="svg_635"/>
          <polygon fill="#333333" id="svg_636" points="70.585,156.831 71.13,156.106 70.884,156.979         "/>
         </g>
        </g>
        <path d="m74.75,160.17c0.83,0.01 1.6,0.24 2.26,0.64l-0.8,-1.27l-0.35,-0.56l-0.87,-1.38l-2.82,-4.48c0.22,-0.35 0.33,-0.67 0.41,-0.98l0.66,-0.2l4.35,-1.3l2.71,-0.81l0.91,-0.27c0.03,0.11 0.07,0.22 0.12,0.34c1.56,0.68 0.85,1.75 1.61,3.1l-2.79,4.6l-0.84,1.38l-0.25,0.42l-0.86,1.41c0.66,-0.4 1.44,-0.62 2.26,-0.62c2.43,0 4.39,1.97 4.38,4.4c0,1.43 -7.15,8.87 -7.15,8.87s-7.35,-7.22 -7.34,-8.9c0,-2.43 1.98,-4.39 4.4,-4.39z" fill="#333333" id="svg_637"/>
        <g id="svg_638">
         <g id="svg_639">
          <path d="m80.3,149.83l0.91,-0.27c0.03,0.11 0.07,0.22 0.12,0.34c1.62,0.7 0.8,1.82 1.7,3.24c0.1,-0.11 1.86,-2.81 2.17,-4.77l0.22,-0.07c0.46,2.04 -2.62,5.46 -2.62,5.46s-1.38,-3.41 -2.5,-3.93z" fill="#616161" id="svg_640" opacity="0.2"/>
          <path d="m71.38,152.5l0.24,-0.07l0.07,-0.02c0.19,0.33 0.35,0.57 0.42,0.67c0.03,0.04 0.04,0.06 0.05,0.06c0.22,-0.35 0.34,-0.69 0.41,-1l0.67,-0.2c-0.5,0.94 -0.85,1.82 -0.85,1.82s-0.47,-0.52 -1.01,-1.26z" fill="#616161" id="svg_641" opacity="0.2"/>
         </g>
         <path d="m75.86,158.98l0.82,-0.6c0.27,-0.13 0.56,-0.19 0.85,-0.19c0.02,0 0.05,0 0.06,0c0.02,0 0.05,0 0.06,0c0.3,0 0.59,0.06 0.86,0.19l0.8,0.6l-0.25,0.42c-0.5,-0.25 -1.2,-0.61 -1.41,-0.61c-0.01,0 -0.04,0 -0.05,0c0,0 0,0 -0.01,0c-0.02,0 -0.04,0 -0.06,0c-0.18,0 -0.82,0.42 -1.32,0.75l-0.35,-0.56z" fill="#616161" id="svg_642" opacity="0.2"/>
         <path d="m76.52,167.82c0.47,-0.05 0.87,-0.34 1.07,-0.75c0.21,0.41 0.61,0.7 1.08,0.75c1.17,-0.67 2,-2.37 2,-4.36c0,-1.42 -0.42,-2.68 -1.08,-3.54c0,-0.01 -0.01,-0.01 -0.01,-0.02c0,0 0,0 0,0l0,0c-0.34,-0.43 -0.75,-0.76 -1.19,-0.95c-0.25,-0.1 -0.52,-0.16 -0.79,-0.16l0,0c-0.01,0 -0.01,0 -0.01,0l0,0l0,0c-0.27,0 -0.54,0.06 -0.79,0.16c-0.45,0.19 -0.85,0.52 -1.19,0.95l0,0c0,0 0,0 0,0c-0.01,0.01 -0.01,0.01 -0.01,0.02c-0.67,0.86 -1.09,2.12 -1.09,3.54c0,1.99 0.83,3.69 2.01,4.36z" fill="#FDD8AB" id="svg_643"/>
         <path d="m75.44,168.15c-0.01,0.51 2.17,2.65 2.17,2.65s2.13,-2.21 2.13,-2.64c0,-0.72 -0.58,-1.3 -1.3,-1.3c-0.25,-0.01 -0.48,0.06 -0.67,0.18l-0.36,0c-0.19,-0.12 -0.42,-0.19 -0.67,-0.19c-0.72,0 -1.31,0.58 -1.3,1.3z" fill="#333333" id="svg_644"/>
         <g id="svg_645">
          <g id="svg_646">
           <path d="m79.9,163.73c0.02,-0.04 0.02,-0.07 0.02,-0.11c0,-0.24 -0.29,-0.43 -0.65,-0.43c-0.37,0 -0.66,0.19 -0.66,0.43c0,0.04 0.01,0.07 0.02,0.11l1.27,0z" fill="#333333" id="svg_647"/>
          </g>
          <g id="svg_648">
           <path d="m75.29,163.73c-0.02,-0.04 -0.03,-0.07 -0.03,-0.11c0,-0.24 0.3,-0.43 0.66,-0.43c0.36,0 0.66,0.19 0.66,0.43c0,0.04 -0.01,0.07 -0.02,0.11l-1.27,0z" fill="#333333" id="svg_649"/>
          </g>
          <g id="svg_650">
           <path d="m76.74,160.49l0.85,0l0.01,0l0.85,0c-0.17,-0.23 -0.49,-0.38 -0.85,-0.38l0,-0.01c-0.01,0 -0.01,0 -0.01,0l0,0l0,0.01c-0.37,0 -0.68,0.15 -0.85,0.38z" fill="#454545" id="svg_651"/>
           <path d="m77.59,160.54c0.39,0.45 0.95,-0.12 0.95,-0.12l-0.94,0l-0.01,0l-0.94,0c0,0 0.55,0.58 0.94,0.12z" fill="#333333" id="svg_652"/>
          </g>
          <polygon fill="#616161" id="svg_653" opacity="0.2" points="77.591,162.997 77.591,163.013 77.593,163.005 77.595,163.013           77.595,162.997 78.088,161.42 77.595,161.42 77.591,161.42 77.097,161.42         "/>
          <polygon fill="#333333" id="svg_654" points="76.649,164.668 75.345,164.599 75.327,164.597 75.317,164.586 74.8,164.02           75.373,164.531 75.345,164.52 76.65,164.455         "/>
          <polygon fill="#333333" id="svg_655" points="78.425,164.455 79.729,164.52 79.701,164.531 80.274,164.02 79.757,164.586           79.747,164.597 79.729,164.599 78.425,164.668         "/>
         </g>
        </g>
       </g>
       <path d="m76.69,167.79c-0.06,0.01 -0.11,0.02 -0.17,0.03c0.06,-0.01 0.11,-0.01 0.17,-0.03z" fill="#616161" id="svg_656" opacity="0.2"/>
       <path d="m77.15,167.58c0,0.01 -0.01,0.01 -0.02,0.01c0.01,0 0.02,0 0.02,-0.01z" fill="#616161" id="svg_657" opacity="0.2"/>
       <path d="m77.01,167.67c-0.01,0.01 -0.02,0.01 -0.03,0.02c0.01,-0.01 0.02,-0.01 0.03,-0.02z" fill="#616161" id="svg_658" opacity="0.2"/>
       <path d="m76.85,167.74c-0.01,0.01 -0.03,0.01 -0.05,0.02c0.02,-0.01 0.04,-0.01 0.05,-0.02z" fill="#616161" id="svg_659" opacity="0.2"/>
       <g id="svg_660">
        <path d="m80.6,161.83c-0.01,0.25 1.09,1.33 1.09,1.33s1.07,-1.11 1.07,-1.32c0,-0.37 -0.29,-0.66 -0.65,-0.66c-0.13,0 -0.24,0.03 -0.34,0.09l0.41,-0.7l-1,0l0.41,0.7c-0.1,-0.06 -0.21,-0.09 -0.34,-0.1c-0.36,0.01 -0.65,0.3 -0.65,0.66z" fill="#FFD675" id="svg_661"/>
        <path d="m81.81,160.78l-0.13,0.22l-0.12,-0.22l0.25,0zm0.07,0.68c0.06,-0.05 0.14,-0.07 0.22,-0.07c0.12,0 0.23,0.05 0.32,0.13c0.08,0.08 0.13,0.2 0.13,0.31c-0.04,0.11 -0.46,0.59 -0.86,1.02c-0.42,-0.42 -0.84,-0.91 -0.88,-1.04c0,-0.1 0.05,-0.21 0.13,-0.29c0.08,-0.08 0.19,-0.13 0.31,-0.13l0,0c0.08,0 0.16,0.02 0.23,0.06l0.4,0.01z" fill="#616161" id="svg_662" opacity="0.2"/>
        <path d="m72.33,161.83c0,0.25 1.1,1.33 1.1,1.33s1.07,-1.11 1.07,-1.32c0,-0.37 -0.29,-0.66 -0.66,-0.66c-0.12,0 -0.23,0.03 -0.33,0.09l0.41,-0.7l-1,0l0.41,0.7c-0.1,-0.06 -0.21,-0.09 -0.34,-0.1c-0.36,0.01 -0.66,0.3 -0.66,0.66z" fill="#FFD675" id="svg_663"/>
        <path d="m73.54,160.78l-0.12,0.22l-0.13,-0.22l0.25,0zm0.08,0.68c0.06,-0.05 0.14,-0.07 0.22,-0.07c0.12,0 0.23,0.05 0.32,0.13c0.08,0.08 0.12,0.2 0.12,0.31c-0.04,0.11 -0.45,0.59 -0.86,1.02c-0.42,-0.42 -0.84,-0.91 -0.87,-1.04c0,-0.1 0.04,-0.21 0.13,-0.29c0.08,-0.08 0.19,-0.13 0.31,-0.13l0,0c0.08,0 0.16,0.02 0.23,0.06l0.4,0.01z" fill="#616161" id="svg_664" opacity="0.2"/>
       </g>
      </g>
      <path d="m70.2,155.77c0.08,0.11 0.15,0.21 0.22,0.31c0.03,0.03 0.05,0.06 0.08,0.09c0.04,0.06 0.09,0.12 0.13,0.18l0,0c-0.45,0.64 -0.68,1.27 -0.77,1.87c-0.03,0.19 -0.04,0.37 -0.04,0.55c0,1.76 1.16,3.09 1.16,3.09l0.3,0c-0.58,0.75 -0.93,1.68 -0.93,2.69c-0.01,1.68 7.24,8.81 7.33,8.9l0,-22.84l-0.09,0.03l-4.35,1.3l-0.53,0.16l-0.14,0.04l0,0l0,0c-0.01,0.04 -0.02,0.08 -0.03,0.12c-0.01,0.04 -0.02,0.08 -0.03,0.12c0,0 0,0 0,0c-0.08,0.24 -0.19,0.5 -0.35,0.76c-0.01,0 -0.01,0 -0.01,-0.01c-0.01,-0.01 -0.02,-0.02 -0.04,-0.05c-0.07,-0.11 -0.23,-0.35 -0.42,-0.68l-0.01,0l0,0.01l-0.07,0.02l-0.1,0.03l-0.13,0.04l-2.51,0.74c0.4,1.04 0.87,1.87 1.33,2.53z" fill="#616161" id="svg_665" opacity="0.2"/>
     </g>
    </g>
   </g>
   <g id="svg_666">
    <path d="m67.15,133.34c0.01,-0.5 -2.18,-2.64 -2.18,-2.64s-2.12,2.21 -2.12,2.64c0,0.72 0.58,1.3 1.3,1.3c0.25,0 0.47,-0.06 0.67,-0.18l-0.82,1.39l1.99,0l-0.81,-1.39c0.19,0.12 0.42,0.19 0.67,0.19c0.72,0 1.3,-0.58 1.3,-1.31z" fill="#333333" id="svg_667"/>
    <path d="m67.15,133.34c0.01,-0.5 -2.18,-2.64 -2.18,-2.64s0,0 0,0l0,5.15l1.02,0l-0.81,-1.39c0.19,0.12 0.42,0.19 0.67,0.19c0.72,0 1.3,-0.58 1.3,-1.31z" fill="#616161" id="svg_668" opacity="0.2"/>
   </g>
   <g id="svg_669">
    <path d="m91.32,165.27c0,0.5 2.18,2.64 2.18,2.64s2.13,-2.21 2.13,-2.63c0,-0.73 -0.58,-1.31 -1.3,-1.31c-0.25,0 -0.48,0.07 -0.68,0.19l0.82,-1.4l-1.98,0l0.81,1.39c-0.19,-0.11 -0.43,-0.18 -0.67,-0.19c-0.72,0 -1.31,0.59 -1.31,1.31z" fill="#333333" id="svg_670"/>
    <path d="m91.32,165.27c0,0.5 2.18,2.64 2.18,2.64s0,0 0.01,0l0,-5.15l-1.02,0l0.81,1.39c-0.19,-0.11 -0.43,-0.19 -0.67,-0.19c-0.72,0 -1.31,0.59 -1.31,1.31z" fill="#616161" id="svg_671" opacity="0.2"/>
   </g>
  </g>
 </g>

</svg>