<?xml version="1.0"?>
<svg width="40" height="56" xmlns="http://www.w3.org/2000/svg" xmlns:svg="http://www.w3.org/2000/svg" enable-background="new 0 0 450 450" version="1.1" xml:space="preserve">
 <g class="layer">
  <title>Layer 1</title>
  <g id="svg_1739" transform="translate(0.023535, -0.0562542) scale(1, 1.01737) translate(-0.023535, 0.0562542) translate(0.0223882, -0.0562542) matrix(1.01079, 0, 0, 1, -9.85891, -253.514)">
   <g id="svg_1740">
    <path d="m14.19,308.47c-2.32,0.01 -4.21,-1.84 -4.22,-4.12l-0.11,-46.58c-0.01,-2.29 1.88,-4.16 4.2,-4.15l30.78,0.06c2.32,0 4.21,1.87 4.21,4.15l0,46.48c0,2.27 -1.88,4.12 -4.19,4.13l-30.67,0.03z" fill="#C9C9C9" id="svg_1741"/>
   </g>
   <path d="m14.57,308.36c-2.28,0 -4.15,-1.86 -4.15,-4.14l0,-46.47c0,-2.28 1.86,-4.13 4.15,-4.13l30.33,0c2.29,0 4.15,1.85 4.15,4.13l0,46.47c0,2.28 -1.86,4.14 -4.15,4.14l-30.33,0z" fill="#FFFFFF" id="svg_1742"/>
   <g id="svg_1743">
    <polygon fill="#D66142" id="svg_1744" points="37.084,257.563 41.175,262.725 37.084,267.893 32.995,262.725   "/>
    <polygon fill="#616161" id="svg_1745" opacity="0.2" points="37.112,257.598 37.084,257.563 32.995,262.725 37.084,267.893 37.112,267.855       "/>
   </g>
   <g id="svg_1746">
    <polygon fill="#D66142" id="svg_1747" points="29.5,264.273 33.59,269.434 29.5,274.6 25.41,269.434   "/>
    <polygon fill="#616161" id="svg_1748" opacity="0.2" points="29.526,264.307 29.5,264.273 25.41,269.434 29.5,274.6 29.526,274.566   "/>
   </g>
   <g id="svg_1749">
    <polygon fill="#D66142" id="svg_1750" points="29.975,287.853 25.883,293.02 29.975,298.184 34.065,293.02   "/>
    <polygon fill="#616161" id="svg_1751" opacity="0.2" points="29.949,287.889 29.975,287.853 34.065,293.02 29.975,298.184 29.949,298.15       "/>
   </g>
   <g id="svg_1752">
    <polygon fill="#D66142" id="svg_1753" points="37.084,269.736 41.175,274.898 37.084,280.066 32.995,274.898   "/>
    <polygon fill="#616161" id="svg_1754" opacity="0.2" points="37.112,269.77 37.084,269.736 32.995,274.898 37.084,280.066 37.112,280.031       "/>
   </g>
   <g id="svg_1755">
    <polygon fill="#D66142" id="svg_1756" points="22.39,281.91 18.299,287.072 22.39,292.24 26.481,287.072   "/>
    <polygon fill="#616161" id="svg_1757" opacity="0.2" points="22.362,281.945 22.39,281.91 26.481,287.072 22.39,292.24 22.362,292.207       "/>
   </g>
   <g id="svg_1758">
    <polygon fill="#D66142" id="svg_1759" points="22.39,294.084 18.299,299.246 22.39,304.412 26.481,299.246   "/>
    <polygon fill="#616161" id="svg_1760" opacity="0.2" points="22.362,294.117 22.39,294.084 26.481,299.246 22.39,304.412 22.362,304.379       "/>
   </g>
   <g id="svg_1761">
    <polygon fill="#D66142" id="svg_1762" points="22.391,257.563 26.481,262.725 22.391,267.893 18.299,262.725   "/>
    <polygon fill="#616161" id="svg_1763" opacity="0.2" points="22.417,257.598 22.391,257.563 18.299,262.725 22.391,267.893 22.417,267.855       "/>
   </g>
   <g id="svg_1764">
    <polygon fill="#D66142" id="svg_1765" points="22.391,269.736 26.481,274.898 22.391,280.066 18.299,274.898   "/>
    <polygon fill="#616161" id="svg_1766" opacity="0.2" points="22.417,269.77 22.391,269.736 18.299,274.898 22.391,280.066 22.417,280.031       "/>
   </g>
   <g id="svg_1767">
    <polygon fill="#D66142" id="svg_1768" points="37.084,281.91 32.995,287.072 37.084,292.24 41.175,287.072   "/>
    <polygon fill="#616161" id="svg_1769" opacity="0.2" points="37.058,281.945 37.084,281.91 41.175,287.072 37.084,292.24 37.058,292.207       "/>
   </g>
   <g id="svg_1770">
    <polygon fill="#D66142" id="svg_1771" points="37.084,294.084 32.995,299.246 37.084,304.412 41.175,299.246   "/>
    <polygon fill="#616161" id="svg_1772" opacity="0.2" points="37.058,294.117 37.084,294.084 41.175,299.246 37.084,304.412 37.058,304.379       "/>
   </g>
   <g id="svg_1773">
    <polygon fill="#D66142" id="svg_1774" points="13.678,266.068 12.488,264.565 13.678,263.063 14.87,264.565   "/>
    <polygon fill="#616161" id="svg_1775" opacity="0.2" points="13.678,263.063 13.669,263.072 13.669,266.057 13.678,266.068 14.87,264.565       "/>
   </g>
   <g id="svg_1776">
    <path d="m13.29,260.91c0,0.07 -0.12,0.19 -0.37,0.35c-0.28,0.18 -0.52,0.27 -0.71,0.27c-0.11,0 -0.2,-0.05 -0.26,-0.15c-0.05,-0.07 -0.08,-0.14 -0.08,-0.2l0,-3.13c0,-0.06 0,-0.1 -0.02,-0.12c-0.02,-0.03 -0.05,-0.04 -0.09,-0.04c-0.02,0 -0.07,0.01 -0.14,0.03c-0.08,0.01 -0.13,0.02 -0.17,0.01c-0.01,-0.02 -0.02,-0.04 -0.02,-0.06c0,-0.04 0.05,-0.09 0.14,-0.16c0.1,-0.06 0.2,-0.14 0.3,-0.23c0.09,-0.07 0.17,-0.15 0.26,-0.23c0.09,-0.06 0.17,-0.09 0.23,-0.09c0.1,0 0.2,0.05 0.29,0.16c0.1,0.11 0.14,0.21 0.14,0.31l0,3.31c0.02,0.02 0.03,0.03 0.04,0.04c0.03,0.02 0.05,0.03 0.07,0.03c0.03,-0.01 0.05,-0.02 0.07,-0.03c0.06,-0.03 0.12,-0.06 0.2,-0.13l0.1,0l0.02,0.06z" fill="#333333" id="svg_1777"/>
    <path d="m17.11,259.4c0,0.23 -0.04,0.46 -0.14,0.68c-0.16,0.36 -0.43,0.67 -0.81,0.93c-0.21,0.16 -0.37,0.26 -0.47,0.31c-0.24,0.13 -0.51,0.2 -0.82,0.2c-0.47,0 -0.84,-0.2 -1.14,-0.6c-0.28,-0.37 -0.42,-0.81 -0.42,-1.32c0,-0.33 0.09,-0.66 0.26,-0.99c0.11,-0.21 0.24,-0.41 0.42,-0.61c0.21,-0.24 0.44,-0.43 0.66,-0.57c0.3,-0.19 0.58,-0.28 0.86,-0.28c0.49,0 0.89,0.24 1.19,0.72c0.28,0.43 0.41,0.94 0.41,1.53zm-0.91,0.66c0,-0.3 -0.04,-0.58 -0.12,-0.86c-0.08,-0.28 -0.2,-0.54 -0.36,-0.77c-0.16,-0.27 -0.33,-0.45 -0.48,-0.56c-0.11,-0.07 -0.21,-0.11 -0.31,-0.11c-0.22,0 -0.41,0.11 -0.55,0.32c-0.14,0.21 -0.21,0.46 -0.21,0.73c0,0.17 0.02,0.33 0.05,0.48c0.05,0.22 0.14,0.48 0.27,0.77c0.15,0.33 0.32,0.58 0.51,0.73c0.15,0.13 0.31,0.19 0.47,0.19c0.23,0 0.41,-0.08 0.54,-0.25c0.12,-0.16 0.19,-0.39 0.19,-0.67z" fill="#333333" id="svg_1778"/>
   </g>
   <g id="svg_1779">
    <path d="m46.44,301.58c0,-0.07 0.13,-0.19 0.37,-0.35c0.28,-0.18 0.52,-0.27 0.72,-0.27c0.11,0 0.19,0.05 0.26,0.15c0.05,0.07 0.07,0.14 0.07,0.2l0,3.13c0,0.06 0.01,0.1 0.03,0.13c0.02,0.02 0.04,0.03 0.08,0.03c0.02,0 0.07,-0.01 0.15,-0.03c0.07,-0.01 0.12,-0.02 0.16,-0.01c0.02,0.02 0.02,0.04 0.02,0.06c0,0.04 -0.04,0.1 -0.14,0.16c-0.1,0.06 -0.2,0.14 -0.3,0.23c-0.08,0.08 -0.17,0.15 -0.26,0.23c-0.09,0.06 -0.17,0.09 -0.23,0.09c-0.1,0 -0.19,-0.05 -0.29,-0.16c-0.09,-0.11 -0.14,-0.21 -0.14,-0.31l0,-3.31c-0.02,-0.02 -0.03,-0.03 -0.04,-0.03c-0.02,-0.03 -0.05,-0.04 -0.06,-0.04c-0.03,0.01 -0.06,0.02 -0.08,0.03c-0.05,0.02 -0.12,0.07 -0.2,0.13l-0.1,0l-0.02,-0.06z" fill="#333333" id="svg_1780"/>
    <path d="m42.62,303.09c0,-0.24 0.05,-0.46 0.14,-0.68c0.16,-0.35 0.43,-0.67 0.81,-0.94c0.21,-0.15 0.37,-0.25 0.47,-0.3c0.24,-0.13 0.51,-0.2 0.83,-0.2c0.46,0 0.83,0.2 1.13,0.6c0.28,0.37 0.42,0.81 0.42,1.32c0,0.32 -0.09,0.66 -0.26,0.99c-0.1,0.21 -0.24,0.41 -0.42,0.61c-0.21,0.24 -0.44,0.43 -0.66,0.58c-0.3,0.18 -0.58,0.27 -0.86,0.27c-0.49,0 -0.89,-0.24 -1.19,-0.72c-0.27,-0.43 -0.41,-0.94 -0.41,-1.53zm0.91,-0.65c0,0.29 0.04,0.57 0.12,0.85c0.08,0.28 0.2,0.54 0.36,0.77c0.17,0.26 0.33,0.45 0.49,0.56c0.1,0.07 0.21,0.11 0.3,0.11c0.22,0 0.41,-0.11 0.55,-0.32c0.14,-0.21 0.21,-0.46 0.21,-0.73c0,-0.17 -0.01,-0.33 -0.04,-0.48c-0.05,-0.22 -0.14,-0.48 -0.28,-0.76c-0.15,-0.34 -0.32,-0.59 -0.51,-0.74c-0.15,-0.13 -0.31,-0.19 -0.46,-0.19c-0.24,0 -0.42,0.08 -0.54,0.24c-0.13,0.17 -0.2,0.4 -0.2,0.69z" fill="#333333" id="svg_1781"/>
   </g>
   <g id="svg_1782">
    <polygon fill="#D66142" id="svg_1783" points="46.051,296.42 47.242,297.924 46.051,299.426 44.861,297.924   "/>
    <polygon fill="#616161" id="svg_1784" opacity="0.2" points="46.061,296.428 46.051,296.42 44.861,297.924 46.051,299.426 46.061,299.416       "/>
   </g>
  </g>
 </g>

</svg>