<?xml version="1.0"?>
<svg width="40" height="56" xmlns="http://www.w3.org/2000/svg" xmlns:svg="http://www.w3.org/2000/svg" enable-background="new 0 0 450 450" version="1.1" xml:space="preserve">
 <g class="layer">
  <title>Layer 1</title>
  <g id="svg_79" transform="translate(0.0146357, 0.0026678) matrix(1, 0, 0, 1.0019, -252.273, -385.214)">
   <g id="svg_80">
    <path d="m256.79,440.31c-2.35,0 -4.27,-1.88 -4.28,-4.19l-0.12,-47.3c-0.01,-2.33 1.91,-4.22 4.27,-4.22l31.26,0.06c2.36,0.01 4.27,1.9 4.27,4.22l0,47.2c0,2.31 -1.91,4.19 -4.25,4.19l-31.15,0.04z" fill="#C9C9C9" id="svg_81"/>
   </g>
   <path d="m257.18,440.19c-2.32,0 -4.21,-1.88 -4.21,-4.2l0,-47.19c0,-2.31 1.89,-4.2 4.21,-4.2l30.81,0c2.32,0 4.21,1.89 4.21,4.2l0,47.19c0,2.32 -1.89,4.2 -4.21,4.2l-30.81,0z" fill="#FFFFFF" id="svg_82"/>
   <g id="svg_83">
    <path d="m285.66,433.94c0.08,-0.19 0.2,-0.41 0.36,-0.67c0.23,-0.35 0.41,-0.52 0.55,-0.52l1.86,0c0.02,0 0.05,-0.01 0.08,-0.02c0.03,-0.01 0.07,-0.02 0.12,-0.05l0.11,0l0,0.15c-0.08,0.07 -0.15,0.14 -0.21,0.22c-0.22,0.28 -0.48,0.62 -0.79,1.02c-0.22,0.29 -0.39,0.52 -0.5,0.69c-0.16,0.27 -0.25,0.49 -0.25,0.65c0,0.1 0.02,0.21 0.07,0.32c0.04,0.12 0.1,0.21 0.17,0.3c0.04,0.04 0.12,0.09 0.23,0.16c0.15,0.08 0.25,0.12 0.33,0.12c0.12,0 0.27,-0.08 0.48,-0.25c0.2,-0.16 0.31,-0.24 0.35,-0.24c0.08,0 0.12,0.04 0.12,0.11c0,0.07 -0.09,0.2 -0.26,0.38c-0.18,0.19 -0.34,0.34 -0.5,0.44c-0.21,0.15 -0.33,0.23 -0.36,0.24c-0.19,0.1 -0.35,0.16 -0.48,0.16c-0.26,0 -0.5,-0.11 -0.72,-0.32c-0.22,-0.2 -0.33,-0.45 -0.33,-0.73c0,-0.27 0.08,-0.52 0.24,-0.75c0.02,-0.04 0.13,-0.19 0.33,-0.46c0.28,-0.38 0.45,-0.61 0.5,-0.68c0.23,-0.3 0.34,-0.45 0.34,-0.47c0,-0.06 -0.04,-0.09 -0.1,-0.1c-0.08,-0.01 -0.14,-0.02 -0.21,-0.02c-0.04,0 -0.09,0 -0.16,0c-0.05,0 -0.08,0 -0.09,0c-0.35,0 -0.62,0.05 -0.79,0.14c-0.13,0.1 -0.26,0.21 -0.39,0.31c-0.02,0 -0.04,0 -0.05,-0.01c-0.02,-0.01 -0.04,-0.02 -0.05,-0.02l0,-0.1z" fill="#333333" id="svg_84"/>
   </g>
   <g id="svg_85">
    <polygon fill="#D66142" id="svg_86" points="258.607,397.35 257.316,395.721 258.607,394.09 259.896,395.721   "/>
    <polygon fill="#616161" id="svg_87" opacity="0.2" points="258.607,394.09 258.597,394.103 258.597,397.334 258.607,397.35     259.896,395.721   "/>
   </g>
   <g id="svg_88">
    <path d="m260.23,391.38c-0.08,0.19 -0.2,0.41 -0.36,0.67c-0.23,0.34 -0.41,0.51 -0.55,0.51l-1.86,0c-0.02,0.01 -0.05,0.01 -0.08,0.02c-0.03,0.01 -0.07,0.03 -0.12,0.05l-0.11,0l0,-0.15c0.08,-0.06 0.15,-0.14 0.21,-0.22c0.21,-0.28 0.48,-0.62 0.79,-1.01c0.23,-0.3 0.39,-0.53 0.5,-0.7c0.16,-0.27 0.25,-0.48 0.25,-0.65c0,-0.1 -0.02,-0.21 -0.06,-0.32c-0.05,-0.11 -0.11,-0.21 -0.18,-0.29c-0.04,-0.04 -0.12,-0.1 -0.23,-0.16c-0.14,-0.08 -0.25,-0.12 -0.32,-0.12c-0.12,0 -0.28,0.08 -0.48,0.24c-0.21,0.16 -0.32,0.24 -0.36,0.24c-0.07,0 -0.12,-0.03 -0.12,-0.11c0,-0.07 0.09,-0.19 0.27,-0.38c0.17,-0.19 0.34,-0.33 0.49,-0.44c0.22,-0.15 0.34,-0.22 0.36,-0.24c0.19,-0.1 0.35,-0.15 0.48,-0.15c0.26,0 0.5,0.1 0.72,0.31c0.22,0.2 0.33,0.45 0.33,0.73c0,0.27 -0.08,0.52 -0.23,0.75c-0.02,0.04 -0.14,0.19 -0.34,0.46c-0.28,0.38 -0.44,0.61 -0.5,0.68c-0.22,0.3 -0.34,0.46 -0.34,0.47c0,0.06 0.04,0.09 0.11,0.11c0.07,0.01 0.14,0.02 0.2,0.02c0.05,0 0.1,0 0.16,0c0.06,0 0.09,0 0.09,0c0.36,0 0.63,-0.05 0.79,-0.14c0.14,-0.11 0.27,-0.21 0.4,-0.32c0.02,0 0.03,0.01 0.05,0.01c0.02,0.01 0.03,0.02 0.04,0.02l0,0.11z" fill="#333333" id="svg_89"/>
   </g>
   <g id="svg_90">
    <polygon fill="#D66142" id="svg_91" points="287.284,427.967 288.572,429.596 287.284,431.227 285.994,429.596   "/>
    <polygon fill="#616161" id="svg_92" opacity="0.2" points="287.291,427.977 287.284,427.967 285.994,429.596 287.284,431.227     287.291,431.215   "/>
   </g>
   <g id="svg_93">
    <polygon fill="#D66142" id="svg_94" points="272.582,398.615 268.428,403.859 272.582,409.105 276.737,403.859   "/>
    <polygon fill="#616161" id="svg_95" opacity="0.2" points="272.556,398.648 272.582,398.615 276.737,403.859 272.582,409.105     272.556,409.072   "/>
   </g>
   <g id="svg_96">
    <polygon fill="#D66142" id="svg_97" points="272.582,416.738 276.737,421.982 272.582,427.228 268.428,421.982   "/>
    <polygon fill="#616161" id="svg_98" opacity="0.2" points="272.609,416.773 272.582,416.738 268.428,421.982 272.582,427.228     272.609,427.193   "/>
   </g>
  </g>
 </g>

</svg>