<?xml version="1.0"?>
<svg width="40" height="56" xmlns="http://www.w3.org/2000/svg" xmlns:svg="http://www.w3.org/2000/svg" enable-background="new 0 0 450 450" version="1.1" xml:space="preserve">
 <g class="layer">
  <title>Layer 1</title>
  <g id="svg_56" transform="translate(0.000850234, 0.00456881) scale(1.01347, 1) translate(-0.000850234, -0.00456881) translate(0.000850234, 0.00414256) matrix(1, 0, 0, 1.01736, -252.574, -324.472)">
   <g id="svg_57">
    <path d="m257.03,373.91c-2.32,0 -4.21,-1.85 -4.21,-4.13l-0.13,-46.58c0,-2.29 1.89,-4.15 4.21,-4.15l30.78,0.06c2.32,0 4.2,1.87 4.2,4.16l0,46.47c0,2.28 -1.87,4.13 -4.18,4.13l-30.67,0.04z" fill="#C9C9C9" id="svg_58"/>
   </g>
   <path d="m257.41,373.79c-2.29,0 -4.15,-1.85 -4.15,-4.14l0,-46.46c0,-2.28 1.86,-4.13 4.15,-4.13l30.33,0c2.29,0 4.15,1.85 4.15,4.13l0,46.46c0,2.29 -1.86,4.14 -4.15,4.14l-30.33,0z" fill="#FFFFFF" id="svg_59"/>
   <g id="svg_60">
    <path d="m285.46,368.51c0,-0.16 0.04,-0.33 0.12,-0.5c0.12,-0.26 0.33,-0.54 0.63,-0.84c0.25,-0.25 0.45,-0.43 0.6,-0.53c0.24,-0.16 0.48,-0.24 0.73,-0.24c0.22,0 0.41,0.05 0.58,0.14c0.19,0.11 0.28,0.26 0.28,0.44c0,0.12 -0.12,0.34 -0.36,0.64c-0.24,0.31 -0.42,0.46 -0.52,0.46c-0.09,0 -0.13,-0.03 -0.13,-0.1c0,-0.06 0.07,-0.18 0.21,-0.35c0.06,-0.08 0.09,-0.15 0.09,-0.19c-0.03,-0.07 -0.07,-0.13 -0.11,-0.16c-0.12,-0.11 -0.28,-0.17 -0.49,-0.17c-0.18,0 -0.34,0.06 -0.49,0.17c-0.18,0.14 -0.26,0.32 -0.26,0.55c0,0.17 0.04,0.32 0.13,0.45c0.08,0.11 0.17,0.18 0.28,0.24c0.15,0.07 0.3,0.11 0.47,0.12c0.16,0 0.24,0.03 0.24,0.1c0,0.04 -0.1,0.18 -0.3,0.42c-0.16,0.2 -0.31,0.41 -0.45,0.64c0.04,0.04 0.08,0.06 0.11,0.06l0.92,0c0.04,0 0.12,-0.05 0.24,-0.14c0.12,-0.1 0.2,-0.15 0.24,-0.15c0.08,0 0.12,0.03 0.12,0.09c0,0.03 -0.05,0.1 -0.14,0.21c-0.09,0.11 -0.23,0.25 -0.4,0.43c-0.2,0.2 -0.33,0.32 -0.38,0.36c-0.11,0.08 -0.19,0.12 -0.25,0.12l-1.53,0c-0.01,-0.01 -0.02,-0.02 -0.03,-0.03c0,-0.01 -0.01,-0.03 -0.01,-0.07c0,-0.12 0.14,-0.31 0.42,-0.59c0.27,-0.27 0.41,-0.46 0.41,-0.56c0,-0.02 -0.11,-0.08 -0.33,-0.16c-0.15,-0.05 -0.27,-0.13 -0.38,-0.22c-0.08,-0.08 -0.14,-0.17 -0.19,-0.27c-0.04,-0.11 -0.07,-0.24 -0.07,-0.37z" fill="#333333" id="svg_61"/>
   </g>
   <g id="svg_62">
    <polygon fill="#D66142" id="svg_63" points="258.817,331.603 257.546,329.998 258.817,328.395 260.088,329.998   "/>
    <polygon fill="#616161" id="svg_64" opacity="0.2" points="258.817,328.395 258.807,328.408 258.807,331.59 258.817,331.603     260.088,329.998   "/>
   </g>
   <g id="svg_65">
    <path d="m260.41,324.85c0,0.16 -0.04,0.33 -0.12,0.5c-0.12,0.25 -0.33,0.53 -0.63,0.83c-0.25,0.26 -0.45,0.43 -0.6,0.53c-0.23,0.16 -0.48,0.24 -0.73,0.24c-0.21,0 -0.4,-0.04 -0.57,-0.14c-0.2,-0.1 -0.29,-0.25 -0.29,-0.43c0,-0.12 0.12,-0.34 0.36,-0.64c0.24,-0.31 0.42,-0.47 0.52,-0.47c0.09,0 0.13,0.04 0.13,0.1c0,0.07 -0.07,0.19 -0.21,0.36c-0.06,0.08 -0.09,0.14 -0.09,0.19c0.03,0.07 0.07,0.12 0.11,0.16c0.12,0.11 0.28,0.16 0.49,0.16c0.18,0 0.34,-0.05 0.49,-0.16c0.18,-0.14 0.26,-0.32 0.26,-0.55c0,-0.17 -0.04,-0.32 -0.13,-0.45c-0.08,-0.11 -0.17,-0.19 -0.28,-0.24c-0.15,-0.07 -0.3,-0.11 -0.47,-0.12c-0.16,0 -0.24,-0.04 -0.24,-0.1c0,-0.04 0.1,-0.18 0.3,-0.42c0.16,-0.2 0.31,-0.41 0.45,-0.64c-0.04,-0.04 -0.08,-0.06 -0.11,-0.06l-0.92,0c-0.04,0 -0.12,0.05 -0.24,0.14c-0.12,0.1 -0.2,0.15 -0.24,0.15c-0.08,0 -0.12,-0.03 -0.12,-0.09c0,-0.03 0.04,-0.11 0.14,-0.21c0.09,-0.11 0.23,-0.25 0.4,-0.43c0.2,-0.2 0.33,-0.32 0.38,-0.36c0.11,-0.08 0.19,-0.12 0.25,-0.12l1.53,0c0.01,0.01 0.02,0.02 0.03,0.03c0,0.01 0.01,0.03 0.01,0.07c0,0.12 -0.14,0.31 -0.42,0.58c-0.27,0.28 -0.41,0.46 -0.41,0.57c0,0.02 0.11,0.08 0.33,0.16c0.15,0.05 0.27,0.13 0.38,0.22c0.08,0.08 0.14,0.17 0.19,0.27c0.05,0.11 0.07,0.23 0.07,0.37z" fill="#333333" id="svg_66"/>
   </g>
   <g id="svg_67">
    <polygon fill="#D66142" id="svg_68" points="287.054,361.754 288.324,363.357 287.054,364.959 285.783,363.357   "/>
    <polygon fill="#616161" id="svg_69" opacity="0.2" points="287.061,361.764 287.054,361.754 285.783,363.357 287.054,364.959     287.061,364.949   "/>
   </g>
   <g id="svg_70">
    <polygon fill="#D66142" id="svg_71" points="272.575,323.24 268.486,328.404 272.575,333.57 276.668,328.404   "/>
    <polygon fill="#616161" id="svg_72" opacity="0.2" points="272.549,323.273 272.575,323.24 276.668,328.404 272.575,333.57     272.549,333.535   "/>
   </g>
   <g id="svg_73">
    <polygon fill="#D66142" id="svg_74" points="272.575,341.5 268.486,346.664 272.575,351.83 276.668,346.664   "/>
    <polygon fill="#616161" id="svg_75" opacity="0.2" points="272.549,341.535 272.575,341.5 276.668,346.664 272.575,351.83     272.549,351.797   "/>
   </g>
   <g id="svg_76">
    <polygon fill="#D66142" id="svg_77" points="272.578,359.76 276.668,364.926 272.578,370.092 268.486,364.926   "/>
    <polygon fill="#616161" id="svg_78" opacity="0.2" points="272.604,359.795 272.578,359.76 268.486,364.926 272.578,370.092     272.604,370.057   "/>
   </g>
  </g>
 </g>

</svg>