<?xml version="1.0"?>
<svg width="40" height="56" xmlns="http://www.w3.org/2000/svg" xmlns:svg="http://www.w3.org/2000/svg" enable-background="new 0 0 450 450" version="1.1" xml:space="preserve">
 <g class="layer">
  <title>Layer 1</title>
  <g id="svg_30" transform="translate(0.000850234, 0.00956767) scale(1.01347, 1) translate(-0.000850234, -0.00956767) translate(0.000850234, 0.0075751) matrix(1, 0, 0, 1.01736, -252.574, -257.356)">
   <g id="svg_31">
    <path d="m257.03,307.93c-2.32,0 -4.21,-1.85 -4.21,-4.12l-0.13,-46.58c0,-2.29 1.89,-4.16 4.21,-4.15l30.78,0.05c2.32,0.01 4.2,1.88 4.2,4.16l0,46.48c0,2.27 -1.87,4.12 -4.18,4.12l-30.67,0.04z" fill="#C9C9C9" id="svg_32"/>
   </g>
   <path d="m257.41,307.81c-2.29,0 -4.15,-1.85 -4.15,-4.13l0,-46.47c0,-2.28 1.86,-4.13 4.15,-4.13l30.33,0c2.29,0 4.15,1.85 4.15,4.13l0,46.47c0,2.28 -1.86,4.13 -4.15,4.13l-30.33,0z" fill="#FFFFFF" id="svg_33"/>
   <g id="svg_34">
    <polygon fill="#D66142" id="svg_35" points="279.924,257.02 275.835,262.182 279.924,267.348 284.017,262.182   "/>
    <polygon fill="#616161" id="svg_36" opacity="0.2" points="279.897,257.055 279.924,257.02 284.017,262.182 279.924,267.348     279.897,267.313   "/>
   </g>
   <g id="svg_37">
    <polygon fill="#D66142" id="svg_38" points="265.229,293.541 269.319,298.705 265.229,303.873 261.14,298.705   "/>
    <polygon fill="#616161" id="svg_39" opacity="0.2" points="265.259,293.574 265.229,293.541 261.14,298.705 265.229,303.873     265.259,303.838   "/>
   </g>
   <g id="svg_40">
    <polygon fill="#D66142" id="svg_41" points="265.229,257.02 269.319,262.182 265.229,267.348 261.14,262.182   "/>
    <polygon fill="#616161" id="svg_42" opacity="0.2" points="265.256,257.055 265.229,257.02 261.14,262.182 265.229,267.348     265.256,267.313   "/>
   </g>
   <g id="svg_43">
    <polygon fill="#D66142" id="svg_44" points="279.924,293.541 275.835,298.705 279.924,303.873 284.017,298.705   "/>
    <polygon fill="#616161" id="svg_45" opacity="0.2" points="279.897,293.574 279.924,293.541 284.017,298.705 279.924,303.873     279.897,303.838   "/>
   </g>
   <g id="svg_46">
    <polygon fill="#D66142" id="svg_47" points="256.518,265.525 255.329,264.023 256.518,262.518 257.71,264.023   "/>
    <polygon fill="#616161" id="svg_48" opacity="0.2" points="256.518,262.518 256.51,262.531 256.51,265.516 256.518,265.525     257.71,264.023   "/>
   </g>
   <g id="svg_49">
    <path d="m258.1,258.5c0,0.07 -0.02,0.14 -0.07,0.21c-0.06,0.07 -0.1,0.12 -0.12,0.15c-0.19,0.29 -0.35,0.5 -0.47,0.61c-0.1,0.06 -0.2,0.13 -0.3,0.19c-0.03,0.04 -0.05,0.09 -0.05,0.15c0.01,0.05 0.02,0.09 0.02,0.11c0,0.11 0.01,0.21 0.02,0.29c0.02,0.08 0.04,0.12 0.07,0.12c0.04,0 0.07,-0.01 0.11,-0.04c0.12,-0.09 0.19,-0.15 0.23,-0.16c0.02,0.05 0.04,0.08 0.04,0.09c0,0.06 -0.11,0.2 -0.33,0.41c-0.27,0.24 -0.51,0.37 -0.73,0.37c-0.16,0 -0.26,-0.21 -0.31,-0.63c-0.04,-0.43 -0.08,-0.66 -0.12,-0.71l-1.4,0c-0.02,-0.01 -0.04,-0.02 -0.05,-0.03c0,-0.01 -0.01,-0.04 -0.01,-0.09c0,-0.08 0.1,-0.25 0.28,-0.52c0.17,-0.25 0.43,-0.58 0.78,-1.01c0.11,-0.13 0.22,-0.27 0.33,-0.41c0.07,-0.08 0.17,-0.19 0.29,-0.32c0.13,-0.13 0.26,-0.28 0.41,-0.45c0.12,-0.14 0.22,-0.22 0.29,-0.22l0.08,0.02l0,2.12c0.06,0.03 0.11,0.05 0.15,0.05c0.03,0 0.05,-0.01 0.07,-0.01c0.16,0 0.3,-0.05 0.43,-0.15c0.1,-0.09 0.2,-0.18 0.3,-0.27c0.02,0.01 0.03,0.03 0.04,0.03c0.02,0.01 0.02,0.04 0.02,0.1zm-1.96,0.22l0,-0.23l0,-0.07c0,-0.08 -0.01,-0.17 -0.02,-0.27c-0.08,0.07 -0.2,0.19 -0.34,0.37c-0.04,0.05 -0.1,0.13 -0.18,0.24l0.05,0.02l0.4,0l0.09,-0.06z" fill="#333333" id="svg_50"/>
   </g>
   <g id="svg_51">
    <path d="m287.31,302.9c0,-0.07 0.02,-0.14 0.07,-0.21c0.06,-0.07 0.1,-0.12 0.12,-0.14c0.19,-0.3 0.36,-0.5 0.47,-0.61c0.11,-0.07 0.2,-0.13 0.3,-0.2c0.03,-0.04 0.05,-0.09 0.05,-0.15c-0.01,-0.05 -0.02,-0.09 -0.02,-0.11c0,-0.11 -0.01,-0.21 -0.02,-0.29c-0.02,-0.08 -0.04,-0.13 -0.07,-0.13c-0.03,0 -0.07,0.02 -0.11,0.05c-0.12,0.1 -0.19,0.15 -0.22,0.16c-0.03,-0.05 -0.05,-0.08 -0.05,-0.09c0,-0.06 0.11,-0.19 0.33,-0.4c0.27,-0.25 0.51,-0.37 0.73,-0.37c0.16,0 0.26,0.21 0.31,0.63c0.04,0.42 0.08,0.66 0.12,0.7l1.4,0c0.02,0.01 0.04,0.03 0.05,0.03c0,0.01 0.01,0.04 0.01,0.09c0,0.08 -0.1,0.25 -0.28,0.52c-0.17,0.25 -0.43,0.58 -0.78,1.01c-0.11,0.14 -0.22,0.27 -0.33,0.41c-0.07,0.08 -0.17,0.19 -0.3,0.32c-0.12,0.13 -0.25,0.28 -0.4,0.45c-0.12,0.15 -0.22,0.22 -0.29,0.22l-0.08,-0.02l0,-2.12c-0.06,-0.03 -0.11,-0.05 -0.15,-0.05c-0.03,0.01 -0.05,0.01 -0.07,0.01c-0.15,0 -0.3,0.05 -0.43,0.16c-0.1,0.08 -0.2,0.17 -0.3,0.26c-0.02,-0.01 -0.03,-0.02 -0.04,-0.03c-0.02,-0.01 -0.02,-0.04 -0.02,-0.1zm1.96,-0.21l0,0.22l0,0.08c0,0.07 0.01,0.16 0.02,0.27c0.08,-0.08 0.2,-0.2 0.34,-0.37c0.04,-0.06 0.1,-0.14 0.18,-0.25l-0.05,-0.02l-0.4,0l-0.09,0.07z" fill="#333333" id="svg_52"/>
   </g>
   <g id="svg_53">
    <polygon fill="#D66142" id="svg_54" points="288.892,295.875 290.083,297.381 288.892,298.883 287.702,297.381   "/>
    <polygon fill="#616161" id="svg_55" opacity="0.2" points="288.899,295.885 288.892,295.875 287.702,297.381 288.892,298.883     288.899,298.873   "/>
   </g>
  </g>
 </g>

</svg>