<?xml version="1.0"?>
<svg width="40" height="56" xmlns="http://www.w3.org/2000/svg" xmlns:svg="http://www.w3.org/2000/svg" enable-background="new 0 0 450 450" version="1.1" xml:space="preserve">
 <g class="layer">
  <title>Layer 1</title>
  <g id="svg_1" transform="translate(0.00583099, 0.00955927) scale(1.01348, 1) translate(-0.00583099, -0.00955927) translate(0.00583099, 0.00934272) matrix(1, 0, 0, 1.01736, -252.584, -190.232)">
   <g id="svg_2">
    <path d="m257.03,241.95c-2.32,0.01 -4.21,-1.85 -4.22,-4.12l-0.11,-46.58c-0.01,-2.29 1.88,-4.16 4.2,-4.15l30.78,0.06c2.32,0 4.2,1.87 4.2,4.15l0,46.48c0,2.27 -1.88,4.12 -4.19,4.13l-30.66,0.03z" fill="#C9C9C9" id="svg_3"/>
   </g>
   <path d="m257.41,241.84c-2.29,0 -4.15,-1.86 -4.15,-4.14l0,-46.46c0,-2.28 1.86,-4.14 4.15,-4.14l30.33,0c2.29,0 4.15,1.86 4.15,4.14l0,46.46c0,2.28 -1.86,4.14 -4.15,4.14l-30.33,0z" fill="#FFFFFF" id="svg_4"/>
   <g id="svg_5">
    <polygon fill="#D66142" id="svg_6" points="279.924,191.044 275.832,196.207 279.924,201.373 284.015,196.207   "/>
    <polygon fill="#616161" id="svg_7" opacity="0.2" points="279.897,191.078 279.924,191.044 284.015,196.207 279.924,201.373     279.897,201.34   "/>
   </g>
   <g id="svg_8">
    <polygon fill="#D66142" id="svg_9" points="265.23,227.564 269.319,232.729 265.23,237.895 261.139,232.729   "/>
    <polygon fill="#616161" id="svg_10" opacity="0.2" points="265.257,227.6 265.23,227.564 261.139,232.729 265.23,237.895     265.257,237.861   "/>
   </g>
   <g id="svg_11">
    <polygon fill="#D66142" id="svg_12" points="265.23,191.044 269.319,196.207 265.23,201.373 261.139,196.207   "/>
    <polygon fill="#616161" id="svg_13" opacity="0.2" points="265.257,191.078 265.23,191.044 261.139,196.207 265.23,201.373     265.257,201.34   "/>
   </g>
   <g id="svg_14">
    <polygon fill="#D66142" id="svg_15" points="272.576,209.305 268.486,214.469 272.576,219.635 276.665,214.469   "/>
    <polygon fill="#616161" id="svg_16" opacity="0.2" points="272.55,209.338 272.576,209.305 276.665,214.469 272.576,219.635     272.55,219.6   "/>
   </g>
   <g id="svg_17">
    <polygon fill="#D66142" id="svg_18" points="279.924,227.564 275.832,232.729 279.924,237.895 284.015,232.729   "/>
    <polygon fill="#616161" id="svg_19" opacity="0.2" points="279.897,227.6 279.924,227.564 284.015,232.729 279.924,237.895     279.897,237.861   "/>
   </g>
   <g id="svg_20">
    <polygon fill="#D66142" id="svg_21" points="256.519,199.55 255.327,198.047 256.519,196.542 257.707,198.047   "/>
    <polygon fill="#616161" id="svg_22" opacity="0.2" points="256.519,196.542 256.508,196.554 256.508,199.54 256.519,199.55     257.707,198.047   "/>
   </g>
   <g id="svg_23">
    <path d="m258.14,190.61c-0.08,0.13 -0.18,0.27 -0.31,0.4c-0.17,0.18 -0.32,0.29 -0.46,0.34c-0.1,0.03 -0.24,0.06 -0.45,0.07c-0.21,0.02 -0.32,0.09 -0.32,0.23c0,0.11 0.07,0.19 0.19,0.21c0.23,0.06 0.42,0.14 0.58,0.27c0.16,0.12 0.28,0.26 0.35,0.4c0.08,0.15 0.11,0.29 0.11,0.44c0,0.22 -0.05,0.43 -0.15,0.64c-0.05,0.1 -0.13,0.24 -0.25,0.4c-0.3,0.39 -0.57,0.66 -0.81,0.8c-0.23,0.14 -0.54,0.21 -0.93,0.21c-0.22,0 -0.41,-0.03 -0.56,-0.09c-0.21,-0.09 -0.31,-0.22 -0.31,-0.4c0,-0.11 0.09,-0.31 0.27,-0.58c0.19,-0.28 0.32,-0.42 0.43,-0.42c0.06,0 0.1,0.08 0.11,0.24c0,0.17 0.02,0.28 0.06,0.35c0.06,0.06 0.1,0.1 0.14,0.13c0.12,0.08 0.24,0.13 0.37,0.13c0.16,0 0.31,-0.06 0.43,-0.17c0.16,-0.14 0.24,-0.34 0.24,-0.61c0,-0.26 -0.09,-0.48 -0.26,-0.67c-0.17,-0.19 -0.37,-0.3 -0.6,-0.33c-0.05,0 -0.09,-0.01 -0.11,-0.01c-0.07,-0.01 -0.11,-0.02 -0.12,-0.03c-0.02,-0.02 -0.03,-0.07 -0.03,-0.13c0.02,-0.15 0.04,-0.31 0.05,-0.46c0.02,-0.16 0.02,-0.31 0.02,-0.46c0,-0.06 -0.01,-0.11 -0.03,-0.12c-0.03,-0.01 -0.08,-0.02 -0.15,-0.02l0,-0.15c0.06,-0.07 0.17,-0.18 0.34,-0.33c0.21,-0.18 0.36,-0.27 0.44,-0.27l1.29,0c0.05,0 0.12,-0.02 0.2,-0.06c0.08,-0.04 0.13,-0.06 0.15,-0.06l0.08,0.04l0,0.07z" fill="#333333" id="svg_24"/>
   </g>
   <g id="svg_25">
    <path d="m287.27,238.84c0.08,-0.13 0.18,-0.27 0.31,-0.4c0.16,-0.18 0.32,-0.29 0.46,-0.34c0.09,-0.03 0.24,-0.06 0.45,-0.07c0.21,-0.02 0.32,-0.09 0.32,-0.23c0,-0.11 -0.07,-0.19 -0.19,-0.21c-0.23,-0.06 -0.42,-0.14 -0.58,-0.27c-0.16,-0.12 -0.28,-0.26 -0.35,-0.4c-0.08,-0.15 -0.11,-0.29 -0.11,-0.44c0,-0.22 0.05,-0.43 0.15,-0.65c0.05,-0.1 0.13,-0.23 0.25,-0.39c0.3,-0.39 0.57,-0.66 0.81,-0.8c0.24,-0.14 0.54,-0.21 0.92,-0.21c0.23,0 0.42,0.03 0.57,0.09c0.21,0.09 0.31,0.22 0.31,0.4c0,0.11 -0.09,0.31 -0.27,0.58c-0.18,0.28 -0.33,0.42 -0.43,0.42c-0.06,0 -0.1,-0.08 -0.11,-0.25c0,-0.16 -0.03,-0.27 -0.06,-0.34c-0.06,-0.06 -0.1,-0.1 -0.14,-0.13c-0.12,-0.09 -0.24,-0.13 -0.37,-0.13c-0.16,0 -0.31,0.06 -0.43,0.17c-0.16,0.14 -0.24,0.34 -0.24,0.61c0,0.26 0.09,0.48 0.26,0.67c0.16,0.19 0.37,0.3 0.6,0.33c0.05,0 0.09,0.01 0.11,0.01c0.07,0.01 0.11,0.02 0.12,0.03c0.02,0.02 0.03,0.07 0.03,0.12c-0.02,0.16 -0.04,0.32 -0.05,0.47c-0.01,0.16 -0.02,0.31 -0.02,0.46c0,0.06 0.01,0.11 0.03,0.12c0.03,0.01 0.08,0.02 0.15,0.02l0,0.14c-0.06,0.08 -0.17,0.19 -0.34,0.34c-0.21,0.18 -0.36,0.27 -0.44,0.27l-1.29,0c-0.06,0 -0.12,0.02 -0.2,0.06c-0.08,0.04 -0.13,0.06 -0.15,0.06l-0.08,-0.04l0,-0.07z" fill="#333333" id="svg_26"/>
   </g>
   <g id="svg_27">
    <polygon fill="#D66142" id="svg_28" points="288.893,229.898 290.081,231.402 288.893,232.908 287.7,231.402   "/>
    <polygon fill="#616161" id="svg_29" opacity="0.2" points="288.899,229.908 288.893,229.898 287.7,231.402 288.893,232.908     288.899,232.896   "/>
   </g>
  </g>
 </g>

</svg>