<?xml version="1.0"?>
<svg width="40" height="56" xmlns="http://www.w3.org/2000/svg" xmlns:svg="http://www.w3.org/2000/svg" enable-background="new 0 0 450 450" version="1.1" xml:space="preserve">
 <g class="layer">
  <title>Layer 1</title>
  <g id="svg_4229" transform="translate(0.00777701, 0.0371944) scale(1.01347, 1) translate(-0.00777701, -0.0371944) translate(0.00777701, 0.0367505) matrix(1, 0, 0, 1.01543, -252.574, -122.872)">
   <g id="svg_4230">
    <path d="m257.03,175.98c-2.32,0 -4.21,-1.85 -4.22,-4.13l-0.12,-46.58c0,-2.29 1.89,-4.15 4.21,-4.15l30.78,0.06c2.32,0.01 4.2,1.87 4.2,4.16l0,46.47c0,2.28 -1.88,4.13 -4.18,4.13l-30.67,0.04z" fill="#C9C9C9" id="svg_4231"/>
   </g>
   <path d="m257.41,175.86c-2.29,0 -4.15,-1.85 -4.15,-4.13l0,-46.47c0,-2.28 1.86,-4.13 4.15,-4.13l30.33,0c2.29,0 4.15,1.85 4.15,4.13l0,46.47c0,2.28 -1.86,4.13 -4.15,4.13l-30.33,0z" fill="#FFFFFF" id="svg_4232"/>
   <g id="svg_4233">
    <polygon fill="#D66142" id="svg_4234" points="279.924,125.068 275.835,130.231 279.924,135.398 284.015,130.231   "/>
    <polygon fill="#616161" id="svg_4235" opacity="0.2" points="279.897,125.102 279.924,125.068 284.015,130.231 279.924,135.398     279.897,135.362   "/>
   </g>
   <g id="svg_4236">
    <polygon fill="#D66142" id="svg_4237" points="265.229,143.329 269.319,148.492 265.229,153.659 261.14,148.492   "/>
    <polygon fill="#616161" id="svg_4238" opacity="0.2" points="265.256,143.362 265.229,143.329 261.14,148.492 265.229,153.659     265.256,153.624   "/>
   </g>
   <g id="svg_4239">
    <polygon fill="#D66142" id="svg_4240" points="265.229,161.588 269.319,166.754 265.229,171.919 261.14,166.754   "/>
    <polygon fill="#616161" id="svg_4241" opacity="0.2" points="265.256,161.624 265.229,161.588 261.14,166.754 265.229,171.919     265.256,171.885   "/>
   </g>
   <g id="svg_4242">
    <polygon fill="#D66142" id="svg_4243" points="265.229,125.068 269.319,130.231 265.229,135.398 261.14,130.231   "/>
    <polygon fill="#616161" id="svg_4244" opacity="0.2" points="265.256,125.102 265.229,125.068 261.14,130.231 265.229,135.398     265.256,135.362   "/>
   </g>
   <g id="svg_4245">
    <polygon fill="#D66142" id="svg_4246" points="279.924,143.329 275.835,148.492 279.924,153.659 284.015,148.492   "/>
    <polygon fill="#616161" id="svg_4247" opacity="0.2" points="279.897,143.362 279.924,143.329 284.015,148.492 279.924,153.659     279.897,153.624   "/>
   </g>
   <g id="svg_4248">
    <polygon fill="#D66142" id="svg_4249" points="279.924,161.588 275.835,166.754 279.924,171.919 284.015,166.754   "/>
    <polygon fill="#616161" id="svg_4250" opacity="0.2" points="279.897,161.624 279.924,161.588 284.015,166.754 279.924,171.919     279.897,171.885   "/>
   </g>
   <g id="svg_4251">
    <polygon fill="#D66142" id="svg_4252" points="256.518,133.574 255.327,132.07 256.518,130.567 257.71,132.07   "/>
    <polygon fill="#616161" id="svg_4253" opacity="0.2" points="256.518,130.567 256.508,130.58 256.508,133.563 256.518,133.574     257.71,132.07   "/>
   </g>
   <g id="svg_4254">
    <path d="m258.1,127.45c0,0.2 -0.1,0.46 -0.3,0.78c-0.2,0.32 -0.4,0.53 -0.6,0.62c-0.16,0.07 -0.27,0.12 -0.35,0.15c-0.08,0.02 -0.14,0.04 -0.19,0.04c-0.07,0 -0.12,0 -0.17,0c-0.42,0 -0.74,-0.15 -0.97,-0.44c-0.2,-0.26 -0.3,-0.58 -0.3,-0.95c0,-0.25 0.05,-0.53 0.14,-0.86c0.1,-0.32 0.23,-0.59 0.37,-0.82c0.21,-0.32 0.35,-0.52 0.42,-0.59c0.03,-0.04 0.19,-0.18 0.47,-0.41c0.21,-0.18 0.36,-0.3 0.45,-0.35c0.07,-0.03 0.12,-0.05 0.18,-0.05c0.07,0 0.1,0.04 0.1,0.11c0,0.02 -0.1,0.13 -0.3,0.32c-0.15,0.14 -0.31,0.32 -0.45,0.52c-0.06,0.07 -0.13,0.21 -0.23,0.41c-0.11,0.23 -0.17,0.38 -0.17,0.45c0,0.01 0.01,0.03 0.02,0.04c0.02,0.01 0.03,0.02 0.05,0.02c0.1,-0.05 0.21,-0.11 0.33,-0.17c0.23,-0.11 0.4,-0.16 0.5,-0.16c0.2,0 0.41,0.12 0.63,0.37c0.25,0.28 0.37,0.61 0.37,0.97zm-0.86,0.65c0,-0.26 -0.09,-0.52 -0.28,-0.77c-0.18,-0.25 -0.36,-0.37 -0.55,-0.37c-0.08,0 -0.14,0.01 -0.2,0.04c-0.06,0.03 -0.09,0.08 -0.09,0.15c0,0.24 0.1,0.49 0.3,0.75c0.22,0.28 0.46,0.41 0.71,0.41c0.03,0 0.06,-0.01 0.08,-0.03c0.02,-0.03 0.03,-0.09 0.03,-0.18z" fill="#333333" id="svg_4255"/>
   </g>
   <g id="svg_4256">
    <path d="m287.31,170.05c0,-0.2 0.1,-0.46 0.3,-0.78c0.21,-0.32 0.4,-0.53 0.6,-0.62c0.16,-0.07 0.27,-0.12 0.35,-0.15c0.08,-0.02 0.14,-0.03 0.19,-0.03c0.07,0 0.12,0 0.18,0c0.41,0 0.74,0.14 0.97,0.44c0.2,0.25 0.3,0.57 0.3,0.94c0,0.25 -0.05,0.53 -0.15,0.86c-0.1,0.32 -0.22,0.6 -0.37,0.82c-0.21,0.32 -0.35,0.52 -0.42,0.59c-0.03,0.04 -0.19,0.18 -0.47,0.42c-0.21,0.18 -0.36,0.29 -0.45,0.34c-0.07,0.04 -0.12,0.06 -0.17,0.06c-0.08,0 -0.11,-0.04 -0.11,-0.12c0,-0.02 0.1,-0.13 0.3,-0.32c0.16,-0.14 0.31,-0.31 0.45,-0.51c0.06,-0.08 0.14,-0.21 0.23,-0.41c0.12,-0.24 0.17,-0.39 0.17,-0.46c0,-0.01 -0.01,-0.03 -0.02,-0.04c-0.01,-0.01 -0.03,-0.02 -0.05,-0.02c-0.1,0.06 -0.21,0.11 -0.33,0.17c-0.23,0.11 -0.39,0.17 -0.5,0.17c-0.2,0 -0.41,-0.13 -0.63,-0.38c-0.25,-0.28 -0.37,-0.61 -0.37,-0.97zm0.87,-0.65c0,0.26 0.08,0.52 0.26,0.77c0.19,0.25 0.37,0.37 0.56,0.37c0.08,0 0.14,-0.01 0.2,-0.04c0.06,-0.03 0.09,-0.08 0.09,-0.15c0,-0.24 -0.1,-0.5 -0.3,-0.75c-0.23,-0.28 -0.46,-0.41 -0.71,-0.41c-0.03,0 -0.06,0.01 -0.08,0.04c-0.02,0.02 -0.02,0.08 -0.02,0.17z" fill="#333333" id="svg_4257"/>
   </g>
   <g id="svg_4258">
    <polygon fill="#D66142" id="svg_4259" points="288.892,163.925 290.082,165.428 288.892,166.932 287.7,165.428   "/>
    <polygon fill="#616161" id="svg_4260" opacity="0.2" points="288.899,163.933 288.892,163.925 287.7,165.428 288.892,166.932     288.899,166.921   "/>
   </g>
  </g>
 </g>

</svg>