<?xml version="1.0"?>
<svg width="40" height="56" xmlns="http://www.w3.org/2000/svg" xmlns:svg="http://www.w3.org/2000/svg" enable-background="new 0 0 450 450" version="1.1" xml:space="preserve">
 <g class="layer">
  <title>Layer 1</title>
  <g id="svg_4194" transform="translate(0.017428, -0.0544346) scale(1.01348, 1) translate(-0.017428, 0.0544346) translate(0.017428, -0.0562836) matrix(1, 0, 0, 1.01737, -252.584, -55.9998)">
   <g id="svg_4195">
    <path d="m257.03,110c-2.32,0 -4.21,-1.85 -4.22,-4.12l-0.12,-46.58c0,-2.29 1.89,-4.16 4.21,-4.15l30.78,0.05c2.32,0.01 4.2,1.87 4.2,4.16l0,46.48c0,2.27 -1.87,4.12 -4.18,4.12l-30.67,0.04z" fill="#C9C9C9" id="svg_4196"/>
   </g>
   <path d="m257.41,109.89c-2.28,0 -4.15,-1.86 -4.15,-4.14l0,-46.47c0,-2.28 1.87,-4.13 4.15,-4.13l30.33,0c2.29,0 4.15,1.85 4.15,4.13l0,46.47c0,2.28 -1.86,4.14 -4.15,4.14l-30.33,0z" fill="#FFFFFF" id="svg_4197"/>
   <g id="svg_4198">
    <polygon fill="#D66142" id="svg_4199" points="279.924,59.092 275.835,64.255 279.924,69.422 284.017,64.255   "/>
    <polygon fill="#616161" id="svg_4200" opacity="0.2" points="279.897,59.126 279.924,59.092 284.017,64.255 279.924,69.422 279.897,69.386       "/>
   </g>
   <g id="svg_4201">
    <polygon fill="#D66142" id="svg_4202" points="265.229,77.352 269.319,82.516 265.229,87.682 261.14,82.516   "/>
    <polygon fill="#616161" id="svg_4203" opacity="0.2" points="265.256,77.386 265.229,77.352 261.14,82.516 265.229,87.682 265.256,87.648       "/>
   </g>
   <g id="svg_4204">
    <polygon fill="#D66142" id="svg_4205" points="272.291,68.619 276.38,73.783 272.291,78.951 268.198,73.783   "/>
    <polygon fill="#616161" id="svg_4206" opacity="0.2" points="272.317,68.655 272.291,68.619 268.198,73.783 272.291,78.951 272.317,78.915       "/>
   </g>
   <g id="svg_4207">
    <polygon fill="#D66142" id="svg_4208" points="265.229,95.612 269.319,100.776 265.229,105.942 261.14,100.776   "/>
    <polygon fill="#616161" id="svg_4209" opacity="0.2" points="265.256,95.646 265.229,95.612 261.14,100.776 265.229,105.942     265.256,105.909   "/>
   </g>
   <g id="svg_4210">
    <polygon fill="#D66142" id="svg_4211" points="265.229,59.092 269.319,64.255 265.229,69.422 261.14,64.255   "/>
    <polygon fill="#616161" id="svg_4212" opacity="0.2" points="265.256,59.126 265.229,59.092 261.14,64.255 265.229,69.422 265.256,69.386       "/>
   </g>
   <g id="svg_4213">
    <polygon fill="#D66142" id="svg_4214" points="279.924,77.352 275.835,82.516 279.924,87.682 284.017,82.516   "/>
    <polygon fill="#616161" id="svg_4215" opacity="0.2" points="279.897,77.386 279.924,77.352 284.017,82.516 279.924,87.682 279.897,87.648       "/>
   </g>
   <g id="svg_4216">
    <polygon fill="#D66142" id="svg_4217" points="279.924,95.612 275.835,100.776 279.924,105.942 284.017,100.776   "/>
    <polygon fill="#616161" id="svg_4218" opacity="0.2" points="279.897,95.646 279.924,95.612 284.017,100.776 279.924,105.942     279.897,105.909   "/>
   </g>
   <g id="svg_4219">
    <polygon fill="#D66142" id="svg_4220" points="256.521,67.598 255.329,66.094 256.521,64.591 257.71,66.094   "/>
    <polygon fill="#616161" id="svg_4221" opacity="0.2" points="256.521,64.591 256.51,64.602 256.51,67.588 256.521,67.598 257.71,66.094       "/>
   </g>
   <g id="svg_4222">
    <path d="m258.13,58.68c-0.07,0.14 -0.14,0.27 -0.21,0.4c-0.14,0.28 -0.26,0.53 -0.35,0.73c-0.11,0.24 -0.21,0.46 -0.3,0.68c-0.12,0.3 -0.19,0.46 -0.19,0.46c-0.07,0.15 -0.17,0.34 -0.3,0.56c-0.16,0.27 -0.28,0.47 -0.37,0.58c-0.16,0.21 -0.31,0.38 -0.48,0.53c-0.18,0.17 -0.38,0.32 -0.6,0.45c-0.01,-0.01 -0.03,-0.02 -0.04,-0.03c-0.02,-0.01 -0.02,-0.03 -0.02,-0.05c0,-0.03 0.09,-0.17 0.27,-0.4c0.12,-0.14 0.2,-0.26 0.26,-0.34c0.07,-0.12 0.14,-0.25 0.2,-0.4c0.07,-0.15 0.14,-0.3 0.2,-0.46c0.18,-0.37 0.34,-0.71 0.46,-1.02c0.08,-0.2 0.15,-0.41 0.23,-0.65c0,-0.08 -0.28,-0.12 -0.84,-0.12c-0.08,0 -0.16,0.01 -0.25,0.04c-0.09,0.02 -0.17,0.07 -0.24,0.13l-0.17,0l0,-0.12c0.26,-0.37 0.51,-0.63 0.75,-0.78c0.19,-0.11 0.39,-0.17 0.61,-0.17c0.06,0 0.17,0.01 0.3,0.02c0.14,0.02 0.24,0.03 0.31,0.03c0.11,-0.01 0.19,-0.01 0.25,-0.02c0.18,-0.02 0.32,-0.06 0.4,-0.13l0.1,0l0.02,0.08z" fill="#333333" id="svg_4223"/>
   </g>
   <g id="svg_4224">
    <path d="m287.28,106.87c0.08,-0.14 0.14,-0.27 0.21,-0.4c0.14,-0.29 0.26,-0.53 0.35,-0.74c0.11,-0.23 0.21,-0.46 0.3,-0.67c0.13,-0.31 0.19,-0.46 0.19,-0.47c0.07,-0.14 0.17,-0.33 0.3,-0.56c0.16,-0.26 0.28,-0.46 0.37,-0.58c0.16,-0.2 0.32,-0.37 0.48,-0.53c0.18,-0.16 0.38,-0.31 0.6,-0.44c0.02,0 0.03,0.01 0.05,0.02c0.01,0.02 0.02,0.04 0.02,0.06c0,0.03 -0.09,0.16 -0.28,0.4c-0.12,0.14 -0.2,0.26 -0.25,0.34c-0.07,0.12 -0.15,0.25 -0.21,0.4c-0.07,0.15 -0.13,0.3 -0.2,0.46c-0.18,0.37 -0.33,0.71 -0.46,1.02c-0.07,0.19 -0.15,0.41 -0.23,0.65c0,0.08 0.28,0.12 0.84,0.12c0.08,0 0.16,-0.01 0.25,-0.04c0.09,-0.03 0.17,-0.07 0.25,-0.14l0.16,0l0,0.13c-0.26,0.37 -0.51,0.63 -0.75,0.78c-0.19,0.11 -0.39,0.17 -0.61,0.17c-0.06,0 -0.16,-0.01 -0.3,-0.02c-0.14,-0.02 -0.24,-0.03 -0.31,-0.03c-0.11,0.01 -0.19,0.01 -0.25,0.02c-0.18,0.02 -0.32,0.06 -0.4,0.13l-0.1,0l-0.02,-0.08z" fill="#333333" id="svg_4225"/>
   </g>
   <g id="svg_4226">
    <polygon fill="#D66142" id="svg_4227" points="288.892,97.949 290.083,99.452 288.892,100.955 287.702,99.452   "/>
    <polygon fill="#616161" id="svg_4228" opacity="0.2" points="288.899,97.957 288.892,97.949 287.702,99.452 288.892,100.955     288.899,100.945   "/>
   </g>
  </g>
 </g>

</svg>