<?xml version="1.0"?>
<svg width="40" height="56" xmlns="http://www.w3.org/2000/svg" xmlns:svg="http://www.w3.org/2000/svg" enable-background="new 0 0 450 450" version="1.1" xml:space="preserve">
 <g class="layer">
  <title>Layer 1</title>
  <g id="svg_2147" transform="translate(0.0223882, -0.0543797) scale(1.01618, 1) translate(-0.0223882, 0.0543797) translate(0.0223882, -0.0562328) matrix(1, 0, 0, 1.01737, -9.75369, -392.159)">
   <g id="svg_2148">
    <path d="m14.19,440.42c-2.32,0.01 -4.21,-1.84 -4.21,-4.12l-0.12,-46.58c-0.01,-2.29 1.88,-4.15 4.2,-4.15l30.78,0.06c2.32,0.01 4.21,1.87 4.21,4.15l0,46.48c0,2.27 -1.88,4.12 -4.19,4.13l-30.67,0.03z" fill="#C9C9C9" id="svg_2149"/>
   </g>
   <path d="m14.57,440.31c-2.29,0 -4.15,-1.86 -4.15,-4.14l0,-46.46c0,-2.28 1.86,-4.14 4.15,-4.14l30.33,0c2.29,0 4.15,1.86 4.15,4.14l0,46.46c0,2.28 -1.86,4.14 -4.15,4.14l-30.33,0z" fill="#FFFFFF" id="svg_2150"/>
   <g id="svg_2151">
    <polygon fill="#D66142" id="svg_2152" points="37.085,389.516 41.175,394.678 37.085,399.844 32.995,394.678   "/>
    <polygon fill="#616161" id="svg_2153" opacity="0.2" points="37.111,389.551 37.085,389.516 32.995,394.678 37.085,399.844 37.111,399.809       "/>
   </g>
   <g id="svg_2154">
    <polygon fill="#D66142" id="svg_2155" points="37.085,401.69 41.175,406.853 37.085,412.018 32.995,406.853   "/>
    <polygon fill="#616161" id="svg_2156" opacity="0.2" points="37.111,401.725 37.085,401.69 32.995,406.853 37.085,412.018 37.111,411.984       "/>
   </g>
   <g id="svg_2157">
    <polygon fill="#D66142" id="svg_2158" points="22.39,413.861 18.299,419.025 22.39,424.193 26.48,419.025   "/>
    <polygon fill="#616161" id="svg_2159" opacity="0.2" points="22.363,413.895 22.39,413.861 26.48,419.025 22.39,424.193 22.363,424.16       "/>
   </g>
   <g id="svg_2160">
    <polygon fill="#D66142" id="svg_2161" points="22.39,426.035 18.299,431.201 22.39,436.365 26.48,431.201   "/>
    <polygon fill="#616161" id="svg_2162" opacity="0.2" points="22.363,426.07 22.39,426.035 26.48,431.201 22.39,436.365 22.363,436.332       "/>
   </g>
   <g id="svg_2163">
    <polygon fill="#D66142" id="svg_2164" points="22.39,389.516 26.48,394.678 22.39,399.844 18.299,394.678   "/>
    <polygon fill="#616161" id="svg_2165" opacity="0.2" points="22.417,389.551 22.39,389.516 18.299,394.678 22.39,399.844 22.417,399.809       "/>
   </g>
   <g id="svg_2166">
    <polygon fill="#D66142" id="svg_2167" points="22.39,401.69 26.48,406.853 22.39,412.018 18.299,406.853   "/>
    <polygon fill="#616161" id="svg_2168" opacity="0.2" points="22.417,401.725 22.39,401.69 18.299,406.853 22.39,412.018 22.417,411.984       "/>
   </g>
   <g id="svg_2169">
    <polygon fill="#D66142" id="svg_2170" points="37.084,413.861 32.995,419.025 37.084,424.193 41.175,419.025   "/>
    <polygon fill="#616161" id="svg_2171" opacity="0.2" points="37.057,413.895 37.084,413.861 41.175,419.025 37.084,424.193 37.057,424.16       "/>
   </g>
   <g id="svg_2172">
    <polygon fill="#D66142" id="svg_2173" points="37.084,426.035 32.995,431.201 37.084,436.365 41.175,431.201   "/>
    <polygon fill="#616161" id="svg_2174" opacity="0.2" points="37.057,426.07 37.084,426.035 41.175,431.201 37.084,436.365 37.057,436.332       "/>
   </g>
   <g id="svg_2175">
    <polygon fill="#D66142" id="svg_2176" points="13.679,398.022 12.488,396.518 13.679,395.014 14.87,396.518   "/>
    <polygon fill="#616161" id="svg_2177" opacity="0.2" points="13.679,395.014 13.669,395.027 13.669,398.012 13.679,398.022 14.87,396.518       "/>
   </g>
   <g id="svg_2178">
    <path d="m15.29,391.86c0,0.09 -0.04,0.21 -0.13,0.37c-0.11,0.21 -0.28,0.43 -0.5,0.65c-0.25,0.26 -0.39,0.39 -0.41,0.41c-0.16,0.12 -0.35,0.18 -0.59,0.18c-0.31,0 -0.59,-0.12 -0.82,-0.36c-0.2,-0.21 -0.29,-0.42 -0.29,-0.61c0,-0.13 0.06,-0.29 0.2,-0.47c0.13,-0.18 0.27,-0.36 0.41,-0.54c-0.11,-0.09 -0.2,-0.2 -0.28,-0.31c-0.08,-0.11 -0.12,-0.24 -0.12,-0.38c0,-0.18 0.07,-0.36 0.2,-0.56c0.13,-0.17 0.23,-0.32 0.32,-0.44c0.21,-0.3 0.38,-0.49 0.52,-0.58c0.13,-0.09 0.28,-0.13 0.44,-0.13c0.24,0 0.45,0.07 0.62,0.21c0.18,0.13 0.26,0.32 0.26,0.55c0,0.25 -0.1,0.49 -0.31,0.71c-0.21,0.23 -0.31,0.38 -0.31,0.47c0.21,0.13 0.39,0.26 0.54,0.39c0.17,0.15 0.25,0.29 0.25,0.44zm-0.78,0.53c0,-0.13 -0.15,-0.28 -0.46,-0.47c-0.27,-0.16 -0.44,-0.24 -0.52,-0.24c-0.03,0 -0.07,0.04 -0.12,0.13c-0.05,0.09 -0.07,0.16 -0.07,0.23c0,0.16 0.1,0.32 0.3,0.47c0.18,0.13 0.36,0.2 0.52,0.2c0.08,0 0.16,-0.04 0.24,-0.1c0.07,-0.07 0.11,-0.14 0.11,-0.22zm-0.22,-1.91c0,-0.1 -0.06,-0.2 -0.16,-0.31c-0.12,-0.13 -0.26,-0.19 -0.42,-0.19c-0.07,0 -0.13,0.02 -0.18,0.07c-0.05,0.04 -0.07,0.09 -0.07,0.16c0,0.13 0.1,0.27 0.3,0.42c0.18,0.14 0.29,0.2 0.34,0.2c0.04,0 0.08,-0.04 0.12,-0.13c0.05,-0.09 0.07,-0.16 0.07,-0.22z" fill="#333333" id="svg_2179"/>
   </g>
   <g id="svg_2180">
    <path d="m44.44,434.53c0,-0.09 0.04,-0.21 0.12,-0.36c0.12,-0.22 0.29,-0.43 0.51,-0.66c0.25,-0.26 0.39,-0.39 0.41,-0.41c0.16,-0.12 0.35,-0.18 0.59,-0.18c0.31,0 0.59,0.13 0.82,0.37c0.2,0.21 0.29,0.41 0.29,0.6c0,0.14 -0.06,0.3 -0.2,0.48c-0.13,0.18 -0.27,0.35 -0.41,0.53c0.11,0.1 0.2,0.2 0.28,0.32c0.08,0.11 0.12,0.24 0.12,0.38c0,0.17 -0.07,0.36 -0.2,0.56c-0.13,0.17 -0.23,0.32 -0.32,0.44c-0.21,0.29 -0.38,0.48 -0.51,0.57c-0.14,0.09 -0.29,0.13 -0.45,0.13c-0.24,0 -0.45,-0.06 -0.62,-0.2c-0.17,-0.14 -0.26,-0.32 -0.26,-0.55c0,-0.25 0.1,-0.49 0.31,-0.72c0.21,-0.22 0.31,-0.38 0.31,-0.46c-0.2,-0.14 -0.39,-0.27 -0.54,-0.4c-0.17,-0.14 -0.25,-0.29 -0.25,-0.44zm0.78,-0.53c0,0.13 0.15,0.29 0.46,0.47c0.27,0.16 0.44,0.25 0.52,0.25c0.03,0 0.07,-0.04 0.12,-0.13c0.05,-0.09 0.07,-0.17 0.07,-0.23c0,-0.17 -0.1,-0.32 -0.3,-0.47c-0.18,-0.14 -0.36,-0.2 -0.52,-0.2c-0.08,0 -0.16,0.03 -0.24,0.1c-0.07,0.07 -0.11,0.14 -0.11,0.21zm0.22,1.91c0,0.1 0.06,0.21 0.16,0.32c0.13,0.12 0.27,0.18 0.42,0.18c0.07,0 0.13,-0.02 0.18,-0.06c0.05,-0.05 0.07,-0.1 0.07,-0.16c0,-0.14 -0.1,-0.28 -0.3,-0.43c-0.18,-0.13 -0.29,-0.2 -0.34,-0.2c-0.04,0 -0.08,0.04 -0.12,0.13c-0.05,0.09 -0.07,0.16 -0.07,0.22z" fill="#333333" id="svg_2181"/>
   </g>
   <g id="svg_2182">
    <polygon fill="#D66142" id="svg_2183" points="46.052,428.373 47.243,429.873 46.052,431.379 44.861,429.873   "/>
    <polygon fill="#616161" id="svg_2184" opacity="0.2" points="46.06,428.381 46.052,428.373 44.861,429.873 46.052,431.379 46.06,431.369       "/>
   </g>
  </g>
 </g>

</svg>