<?xml version="1.0"?>
<svg width="40" height="56" xmlns="http://www.w3.org/2000/svg" xmlns:svg="http://www.w3.org/2000/svg" enable-background="new 0 0 450 450" version="1.1" xml:space="preserve">
 <g class="layer">
  <title>Layer 1</title>
  <g id="svg_1954" transform="translate(0.0223882, -0.0494496) scale(1.01349, 1) translate(-0.0223882, 0.0494496) translate(0.0223882, -0.0512691) matrix(1, 0, 0, 1.01737, -9.75369, -325.044)">
   <g id="svg_1955">
    <path d="m14.19,374.44c-2.32,0.01 -4.21,-1.84 -4.21,-4.12l-0.12,-46.57c-0.01,-2.3 1.88,-4.16 4.2,-4.15l30.78,0.05c2.32,0.01 4.21,1.87 4.21,4.16l0,46.48c0,2.27 -1.88,4.12 -4.19,4.12l-30.67,0.03z" fill="#C9C9C9" id="svg_1956"/>
   </g>
   <path d="m14.57,374.33c-2.29,0 -4.15,-1.85 -4.15,-4.13l0,-46.47c0,-2.28 1.86,-4.13 4.15,-4.13l30.33,0c2.29,0 4.15,1.85 4.15,4.13l0,46.47c0,2.28 -1.86,4.13 -4.15,4.13l-30.33,0z" fill="#FFFFFF" id="svg_1957"/>
   <g id="svg_1958">
    <polygon fill="#D66142" id="svg_1959" points="37.085,323.537 41.174,328.703 37.085,333.869 32.995,328.703   "/>
    <polygon fill="#616161" id="svg_1960" opacity="0.2" points="37.112,323.572 37.085,323.537 32.995,328.703 37.085,333.869 37.112,333.834       "/>
   </g>
   <g id="svg_1961">
    <polygon fill="#D66142" id="svg_1962" points="29.5,341.801 33.591,346.963 29.5,352.131 25.41,346.963   "/>
    <polygon fill="#616161" id="svg_1963" opacity="0.2" points="29.527,341.836 29.5,341.801 25.41,346.963 29.5,352.131 29.527,352.094   "/>
   </g>
   <g id="svg_1964">
    <polygon fill="#D66142" id="svg_1965" points="37.085,335.713 41.174,340.875 37.085,346.043 32.995,340.875   "/>
    <polygon fill="#616161" id="svg_1966" opacity="0.2" points="37.112,335.746 37.085,335.713 32.995,340.875 37.085,346.043 37.112,346.008       "/>
   </g>
   <g id="svg_1967">
    <polygon fill="#D66142" id="svg_1968" points="22.39,347.885 18.299,353.051 22.39,358.217 26.479,353.051   "/>
    <polygon fill="#616161" id="svg_1969" opacity="0.2" points="22.363,347.92 22.39,347.885 26.479,353.051 22.39,358.217 22.363,358.184       "/>
   </g>
   <g id="svg_1970">
    <polygon fill="#D66142" id="svg_1971" points="22.39,360.06 18.299,365.223 22.39,370.389 26.479,365.223   "/>
    <polygon fill="#616161" id="svg_1972" opacity="0.2" points="22.363,360.094 22.39,360.06 26.479,365.223 22.39,370.389 22.363,370.355       "/>
   </g>
   <g id="svg_1973">
    <polygon fill="#D66142" id="svg_1974" points="22.39,323.537 26.479,328.703 22.39,333.869 18.299,328.703   "/>
    <polygon fill="#616161" id="svg_1975" opacity="0.2" points="22.417,323.572 22.39,323.537 18.299,328.703 22.39,333.869 22.417,333.834       "/>
   </g>
   <g id="svg_1976">
    <polygon fill="#D66142" id="svg_1977" points="22.39,335.713 26.479,340.875 22.39,346.043 18.299,340.875   "/>
    <polygon fill="#616161" id="svg_1978" opacity="0.2" points="22.417,335.746 22.39,335.713 18.299,340.875 22.39,346.043 22.417,346.008       "/>
   </g>
   <g id="svg_1979">
    <polygon fill="#D66142" id="svg_1980" points="37.085,347.885 32.995,353.051 37.085,358.217 41.174,353.051   "/>
    <polygon fill="#616161" id="svg_1981" opacity="0.2" points="37.058,347.92 37.085,347.885 41.174,353.051 37.085,358.217 37.058,358.184       "/>
   </g>
   <g id="svg_1982">
    <polygon fill="#D66142" id="svg_1983" points="37.085,360.06 32.995,365.223 37.085,370.389 41.174,365.223   "/>
    <polygon fill="#616161" id="svg_1984" opacity="0.2" points="37.058,360.094 37.085,360.06 41.174,365.223 37.085,370.389 37.058,370.355       "/>
   </g>
   <g id="svg_1985">
    <polygon fill="#D66142" id="svg_1986" points="13.68,332.045 12.488,330.541 13.68,329.039 14.871,330.541   "/>
    <polygon fill="#616161" id="svg_1987" opacity="0.2" points="13.68,329.039 13.669,329.049 13.669,332.033 13.68,332.045 14.871,330.541       "/>
   </g>
   <g id="svg_1988">
    <path d="m15.29,324.63c0,0.29 -0.07,0.6 -0.2,0.95c-0.13,0.34 -0.26,0.59 -0.4,0.75c-0.26,0.28 -0.49,0.52 -0.71,0.71c-0.37,0.31 -0.66,0.47 -0.87,0.47c-0.02,0 -0.04,-0.01 -0.06,-0.03c-0.02,-0.01 -0.04,-0.03 -0.06,-0.05c0.2,-0.13 0.41,-0.31 0.62,-0.54c0.2,-0.24 0.41,-0.55 0.61,-0.95l0,-0.08c-0.02,-0.01 -0.03,-0.01 -0.05,-0.02c-0.16,0.07 -0.31,0.13 -0.44,0.18c-0.14,0.06 -0.25,0.08 -0.36,0.08c-0.21,0 -0.4,-0.11 -0.59,-0.34c-0.21,-0.26 -0.32,-0.57 -0.32,-0.94c0,-0.36 0.22,-0.74 0.65,-1.14c0.4,-0.37 0.73,-0.56 1,-0.56c0.24,0 0.49,0.13 0.74,0.39c0.29,0.31 0.44,0.68 0.44,1.12zm-0.92,0.52c0,-0.36 -0.1,-0.65 -0.32,-0.89c-0.19,-0.21 -0.39,-0.32 -0.59,-0.32c-0.05,0 -0.08,0.03 -0.1,0.09c-0.01,0.06 -0.02,0.12 -0.02,0.19c0,0.31 0.08,0.56 0.23,0.76c0.18,0.24 0.36,0.37 0.53,0.37c0.08,0 0.14,-0.02 0.18,-0.04c0.06,-0.03 0.09,-0.08 0.09,-0.16z" fill="#333333" id="svg_1989"/>
   </g>
   <g id="svg_1990">
    <path d="m44.45,369.82c0,-0.3 0.06,-0.61 0.19,-0.95c0.13,-0.35 0.27,-0.6 0.41,-0.76c0.25,-0.28 0.49,-0.52 0.71,-0.71c0.36,-0.31 0.65,-0.46 0.87,-0.46c0.02,0 0.04,0 0.06,0.02c0.02,0.01 0.04,0.03 0.05,0.05c-0.2,0.13 -0.4,0.31 -0.61,0.54c-0.21,0.24 -0.41,0.56 -0.61,0.95l0,0.08c0.01,0.01 0.03,0.02 0.04,0.02c0.17,-0.07 0.31,-0.13 0.45,-0.18c0.13,-0.06 0.25,-0.08 0.35,-0.08c0.21,0 0.41,0.11 0.59,0.34c0.22,0.26 0.32,0.58 0.32,0.95c0,0.35 -0.22,0.73 -0.65,1.14c-0.39,0.37 -0.73,0.55 -0.99,0.55c-0.25,0 -0.5,-0.13 -0.74,-0.39c-0.3,-0.31 -0.44,-0.68 -0.44,-1.11zm0.91,-0.52c0,0.35 0.11,0.64 0.33,0.89c0.19,0.21 0.39,0.31 0.58,0.31c0.05,0 0.08,-0.02 0.1,-0.08c0.02,-0.06 0.02,-0.13 0.02,-0.2c0,-0.3 -0.07,-0.56 -0.22,-0.76c-0.19,-0.24 -0.36,-0.36 -0.53,-0.36c-0.09,0 -0.15,0.01 -0.19,0.03c-0.06,0.03 -0.09,0.08 -0.09,0.17z" fill="#333333" id="svg_1991"/>
   </g>
   <g id="svg_1992">
    <polygon fill="#D66142" id="svg_1993" points="46.052,362.397 47.243,363.898 46.052,365.402 44.862,363.898   "/>
    <polygon fill="#616161" id="svg_1994" opacity="0.2" points="46.06,362.402 46.052,362.397 44.862,363.898 46.052,365.402 46.06,365.391       "/>
   </g>
  </g>
 </g>

</svg>