<?xml version="1.0"?>
<svg width="40" height="56" xmlns="http://www.w3.org/2000/svg" xmlns:svg="http://www.w3.org/2000/svg" enable-background="new 0 0 450 450" version="1.1" xml:space="preserve">
 <g class="layer">
  <title>Layer 1</title>
  <g id="svg_2390" transform="translate(0.0174184, 0.0516474) matrix(1.01618, 0, 0, 1.01544, -208.473, -257.145)">
   <g id="svg_2391">
    <path d="m209.6,308.19c-2.32,0 -4.21,-1.85 -4.22,-4.13l-0.12,-46.57c0,-2.3 1.89,-4.16 4.21,-4.15l30.78,0.05c2.31,0.01 4.2,1.87 4.2,4.16l0,46.47c0,2.28 -1.88,4.13 -4.19,4.13l-30.66,0.04z" fill="#C9C9C9" id="svg_2392"/>
   </g>
   <path d="m209.98,308.07c-2.29,0 -4.15,-1.86 -4.15,-4.14l0,-46.46c0,-2.28 1.86,-4.13 4.15,-4.13l30.33,0c2.29,0 4.15,1.85 4.15,4.13l0,46.47c0,2.27 -1.86,4.13 -4.15,4.13l-30.33,0z" fill="#FFFFFF" id="svg_2393"/>
   <g id="svg_2394">
    <path d="m238.06,300.68l1.28,0l0,2.1l0.78,0c0.04,-0.05 0.09,-0.19 0.15,-0.41c0.13,-0.53 0.29,-0.97 0.48,-1.3c0.07,-0.14 0.16,-0.26 0.27,-0.34c0.13,-0.1 0.26,-0.15 0.4,-0.15c0.1,0 0.2,0.03 0.31,0.1c0.14,0.08 0.21,0.18 0.21,0.3c0,0.06 -0.02,0.1 -0.06,0.14c-0.04,0.04 -0.09,0.06 -0.14,0.06c-0.11,0 -0.18,-0.06 -0.18,-0.19s-0.06,-0.2 -0.15,-0.2c-0.22,0 -0.37,0.11 -0.45,0.33c-0.05,0.15 -0.08,0.36 -0.08,0.64c0,0.16 0.01,0.35 0.03,0.56c0.02,0.21 0.04,0.44 0.06,0.67c0,0.28 -0.05,0.53 -0.16,0.76c-0.09,0.18 -0.23,0.38 -0.42,0.58c-0.11,0.12 -0.29,0.28 -0.53,0.5l0.04,0.06l1.13,0c0.07,0 0.14,-0.01 0.2,-0.02c0.11,-0.04 0.23,-0.07 0.34,-0.11l0,0.07c-0.05,0.08 -0.08,0.14 -0.11,0.17c-0.07,0.12 -0.12,0.18 -0.14,0.18c-0.01,0 -0.04,-0.01 -0.09,-0.03c-0.04,-0.03 -0.09,-0.04 -0.14,-0.04l-3.03,0l0,-4.43zm1.32,2.43l0,1.69c0.11,-0.03 0.23,-0.15 0.35,-0.36c0.04,-0.08 0.09,-0.19 0.15,-0.33c0.04,-0.11 0.07,-0.23 0.1,-0.36c0.07,-0.29 0.11,-0.44 0.11,-0.45l0,-0.19l-0.71,0z" fill="#333333" id="svg_2395"/>
   </g>
   <g id="svg_2396">
    <polygon fill="#D66142" id="svg_2397" points="211.385,265.784 210.193,264.28 211.385,262.775 212.576,264.28   "/>
    <polygon fill="#616161" id="svg_2398" opacity="0.2" points="211.385,262.775 211.374,262.787 211.374,265.772 211.385,265.784     212.576,264.28   "/>
   </g>
   <g id="svg_2399">
    <path d="m212.95,261.24l-1.28,0l0,-2.11l-0.78,0c-0.05,0.06 -0.09,0.19 -0.15,0.41c-0.14,0.54 -0.29,0.98 -0.48,1.31c-0.08,0.14 -0.17,0.25 -0.27,0.34c-0.13,0.1 -0.27,0.15 -0.4,0.15c-0.1,0 -0.2,-0.03 -0.32,-0.1c-0.14,-0.09 -0.21,-0.19 -0.21,-0.3c0,-0.06 0.02,-0.11 0.07,-0.14c0.04,-0.04 0.08,-0.06 0.13,-0.06c0.12,0 0.18,0.06 0.19,0.19s0.06,0.19 0.15,0.19c0.21,0 0.36,-0.11 0.44,-0.33c0.05,-0.14 0.08,-0.35 0.08,-0.63c0,-0.16 -0.01,-0.35 -0.03,-0.56c-0.01,-0.22 -0.03,-0.44 -0.05,-0.68c0,-0.27 0.05,-0.52 0.16,-0.75c0.09,-0.19 0.23,-0.38 0.41,-0.58c0.11,-0.12 0.29,-0.29 0.54,-0.5l-0.04,-0.07l-1.13,0c-0.07,0 -0.14,0.01 -0.2,0.03c-0.12,0.03 -0.23,0.07 -0.34,0.11l0,-0.07c0.04,-0.08 0.08,-0.14 0.1,-0.17c0.08,-0.12 0.13,-0.19 0.14,-0.19c0.01,0 0.04,0.02 0.09,0.04c0.05,0.03 0.1,0.04 0.14,0.04l3.04,0l0,4.43zm-1.32,-2.43l0,-1.7c-0.12,0.03 -0.24,0.16 -0.35,0.37c-0.05,0.07 -0.1,0.19 -0.15,0.33c-0.04,0.1 -0.08,0.22 -0.11,0.36c-0.07,0.29 -0.1,0.44 -0.11,0.44l0,0.19l0.72,0l0,0.01z" fill="#333333" id="svg_2400"/>
   </g>
   <g id="svg_2401">
    <polygon fill="#D66142" id="svg_2402" points="239.621,296.133 240.811,297.636 239.621,299.14 238.429,297.636   "/>
    <polygon fill="#616161" id="svg_2403" opacity="0.2" points="239.629,296.143 239.621,296.133 238.429,297.636 239.621,299.14     239.629,299.129   "/>
   </g>
   <g id="svg_2404">
    <polygon fill="#D66142" id="svg_2405" points="225.143,270.372 216.964,280.699 225.143,291.03 233.325,280.699   "/>
    <polygon fill="#616161" id="svg_2406" opacity="0.2" points="225.09,270.44 225.143,270.372 233.325,280.699 225.143,291.03     225.09,290.965   "/>
   </g>
  </g>
 </g>

</svg>