<?xml version="1.0"?>
<svg width="40" height="56" xmlns="http://www.w3.org/2000/svg" xmlns:svg="http://www.w3.org/2000/svg" enable-background="new 0 0 450 450" version="1.1" xml:space="preserve">
 <g class="layer">
  <title>Layer 1</title>
  <g id="svg_169" transform="translate(-18.7576) matrix(1, 0, 0, 1, 9.35633, -187.552)">
   <g id="svg_170">
    <path d="m13.93,243.39c-2.35,0 -4.27,-1.88 -4.27,-4.19l-0.13,-47.3c0,-2.32 1.92,-4.21 4.28,-4.21l31.25,0.06c2.36,0 4.27,1.9 4.27,4.22l0,47.19c0,2.31 -1.91,4.19 -4.25,4.19l-31.15,0.04z" fill="#C9C9C9" id="svg_171"/>
    <path d="m14.36,243.26c-2.32,0 -4.21,-1.88 -4.21,-4.2l0,-47.18c0,-2.32 1.89,-4.2 4.21,-4.2l30.8,0c2.32,0 4.21,1.88 4.21,4.2l0,47.18c0,2.32 -1.89,4.2 -4.21,4.2l-30.8,0z" fill="#FFFFFF" id="svg_172"/>
    <g id="svg_173">
     <path d="m45.12,242.38l-30.8,0c-1.8,0 -3.27,-1.45 -3.27,-3.24l0,-47.19c0,-1.72 1.37,-3.13 2.1,-3.39l0.11,-0.04l30.97,0c3.06,0.24 4.15,1.93 4.15,3.43l0,47.19c0,1.79 -1.46,3.24 -3.26,3.24zm-31.6,-52.58c-0.33,0.21 -1.18,1.08 -1.18,2.15l0,47.19c0,1.08 0.89,1.96 1.98,1.96l30.8,0c1.08,0 1.97,-0.88 1.97,-1.96l0,-47.19c0,-1.19 -1.1,-2 -2.94,-2.15l-30.63,0z" fill="#D66142" id="svg_174"/>
    </g>
    <g id="svg_175">
     <polygon fill="#D66142" id="svg_176" points="15.46,202.341 13.443,199.797 15.46,197.25 17.474,199.797    "/>
     <polygon fill="#616161" id="svg_177" opacity="0.2" points="15.46,197.25 15.394,197.334 15.394,202.26 15.46,202.341 17.474,199.797         "/>
    </g>
    <g id="svg_178">
     <path d="m16.97,191.57c-0.12,0.22 -0.28,0.38 -0.47,0.5c-0.19,0.11 -0.38,0.17 -0.56,0.17c-0.06,0 -0.28,-0.05 -0.65,-0.14c-0.18,-0.05 -0.33,-0.07 -0.48,-0.07c-0.09,0 -0.18,0.01 -0.27,0.03c-0.09,0.02 -0.17,0.06 -0.23,0.11l-0.07,0l0,-0.08c0.13,-0.29 0.28,-0.49 0.46,-0.61c0.17,-0.12 0.4,-0.18 0.69,-0.18c0.21,0 0.4,0.03 0.59,0.1c0.19,0.06 0.37,0.1 0.55,0.1c0.06,0 0.12,0 0.2,-0.01c0.07,0 0.15,-0.01 0.24,-0.02l0,0.1zm0.02,3.58c0,0.4 -0.15,0.72 -0.45,0.97c-0.3,0.24 -0.69,0.36 -1.16,0.36c-0.29,0 -0.54,-0.06 -0.73,-0.17c-0.23,-0.13 -0.35,-0.33 -0.35,-0.58c0,-0.11 0.03,-0.22 0.1,-0.31c0.09,-0.12 0.22,-0.18 0.39,-0.18c0.11,0 0.21,0.03 0.29,0.1c0.08,0.07 0.12,0.16 0.12,0.27c0,0.17 -0.07,0.29 -0.21,0.35c-0.15,0.07 -0.22,0.11 -0.22,0.13c0.02,0.06 0.05,0.09 0.07,0.12c0.09,0.07 0.21,0.11 0.38,0.11c0.16,0 0.3,-0.03 0.41,-0.11c0.12,-0.08 0.18,-0.19 0.18,-0.33l0,-3.44c0.21,-0.07 0.41,-0.13 0.59,-0.2c0.18,-0.07 0.35,-0.17 0.49,-0.3l0.1,0l0,3.21z" fill="#333333" id="svg_179"/>
    </g>
    <g id="svg_180">
     <polygon fill="#D66142" id="svg_181" points="44.132,229.256 46.148,231.801 44.132,234.346 42.117,231.801    "/>
     <polygon fill="#616161" id="svg_182" opacity="0.2" points="44.132,234.346 44.197,234.264 44.197,229.338 44.132,229.256      42.117,231.801    "/>
    </g>
    <g id="svg_183">
     <path d="m42.6,236.45c0,-0.4 0.15,-0.72 0.45,-0.97c0.31,-0.24 0.69,-0.36 1.17,-0.36c0.28,0 0.53,0.05 0.72,0.17c0.23,0.13 0.35,0.32 0.35,0.58c0,0.11 -0.03,0.22 -0.1,0.31c-0.09,0.12 -0.22,0.18 -0.39,0.18c-0.11,0 -0.21,-0.03 -0.29,-0.11c-0.08,-0.06 -0.12,-0.16 -0.12,-0.26c0,-0.18 0.07,-0.29 0.22,-0.36c0.14,-0.06 0.22,-0.1 0.22,-0.12c-0.03,-0.06 -0.05,-0.09 -0.08,-0.12c-0.09,-0.08 -0.21,-0.11 -0.38,-0.11c-0.16,0 -0.3,0.03 -0.41,0.11c-0.12,0.08 -0.18,0.19 -0.18,0.33l0,3.43c-0.21,0.07 -0.41,0.14 -0.59,0.21c-0.18,0.07 -0.34,0.17 -0.49,0.29l-0.1,0l0,-3.2zm0.02,3.58c0.12,-0.22 0.28,-0.38 0.47,-0.5c0.19,-0.11 0.38,-0.17 0.56,-0.17c0.07,0 0.28,0.05 0.65,0.14c0.18,0.05 0.33,0.07 0.48,0.07c0.09,0 0.18,-0.01 0.27,-0.03c0.09,-0.03 0.17,-0.06 0.23,-0.12l0.07,0l0,0.09c-0.13,0.28 -0.28,0.49 -0.45,0.61c-0.18,0.12 -0.41,0.18 -0.7,0.18c-0.2,0 -0.4,-0.03 -0.59,-0.1c-0.19,-0.07 -0.37,-0.1 -0.55,-0.1c-0.05,0 -0.12,0 -0.2,0.01c-0.07,0 -0.15,0.01 -0.24,0.02l0,-0.1z" fill="#333333" id="svg_184"/>
    </g>
   </g>
   <g id="svg_185">
    <g id="svg_186">
     <g id="svg_187">
      <polygon fill="#757575" id="svg_188" points="26.725,205.037 25.338,205.586 25.656,206.171 31.146,206.105 31.533,205.586       30.306,205.037     "/>
      <g id="svg_189">
       <rect fill="#EBB07A" height="3.73" id="svg_190" width="3.58" x="26.73" y="203.32"/>
       <path d="m30.31,204.04l0,0.91c-0.44,0.42 -0.94,0.68 -1.47,0.68l-0.67,0c-0.52,0 -1.01,-0.26 -1.44,-0.66l0,-0.9l0.31,0.49l0.08,-1.24l2.78,0l0.08,1.24l0.33,-0.52z" fill="#616161" id="svg_191" opacity="0.2"/>
       <path d="m28.84,194.79l-0.33,0l-0.34,0c-1.77,0 -3.2,1.21 -3.2,2.7c0,0 0.01,3.65 0.04,3.82c0.25,1.58 1.57,4.01 3.16,4.01l0.34,0l0.33,0c1.6,0 2.92,-2.43 3.16,-4.01c0.03,-0.17 0.05,-3.82 0.05,-3.82c0,-1.49 -1.44,-2.7 -3.21,-2.7z" fill="#EBB07A" id="svg_192"/>
       <polygon fill="#D66142" id="svg_193" points="31.715,194.787 28.506,192.764 25.297,194.787 24.464,196.218 24.792,199.602        25.222,199.855 25.297,196.741 26.307,195.657 28.506,196.691 30.705,195.657 31.715,196.741 31.789,199.855 32.22,199.602        32.548,196.218      "/>
       <g id="svg_194">
        <path d="m26.45,199.13c-0.07,0.09 -0.11,0.18 -0.11,0.29c0,0.28 0.27,0.51 0.6,0.51c0.33,0 0.59,-0.23 0.59,-0.51c0,-0.11 -0.04,-0.2 -0.1,-0.29l-0.98,0z" fill="#333333" id="svg_195"/>
        <polygon fill="#616161" id="svg_196" opacity="0.2" points="28.735,198.645 28.506,198.645 28.276,198.645 27.958,200.989         28.506,201.618 29.053,200.989       "/>
        <path d="m30.56,199.13c0.07,0.09 0.11,0.18 0.11,0.29c0,0.28 -0.27,0.51 -0.6,0.51c-0.32,0 -0.59,-0.23 -0.59,-0.51c0,-0.11 0.04,-0.2 0.11,-0.29l0.97,0z" fill="#333333" id="svg_197"/>
       </g>
       <path d="m31.74,201.45l-1.76,2.81l-0.15,-2.2l-0.92,-0.38l-0.4,-0.06l-0.41,0.06l-0.92,0.38l-0.14,2.2l-1.77,-2.81l-0.26,-0.14c0.25,1.58 1.57,4.01 3.16,4.01l0.34,0l0.34,0c1.59,0 2.91,-2.43 3.16,-4.01l-0.27,0.14z" fill="#D66142" id="svg_198"/>
       <polygon fill="#EBB07A" id="svg_199" points="29.479,202.659 28.677,202.061 28.506,202.061 28.335,202.061 27.533,202.659        27.484,204.369 28.506,204.369 29.527,204.369      "/>
       <g id="svg_200" opacity="0.2">
        <rect fill="#616161" height="0.43" id="svg_201" width="1.31" x="27.85" y="202.74"/>
       </g>
       <polygon fill="#D66142" id="svg_202" points="29.419,197.867 31.192,198.083 29.419,198.296      "/>
       <polygon fill="#D66142" id="svg_203" points="27.592,198.296 25.857,198.083 27.592,197.867      "/>
      </g>
      <path d="m37.44,206.06l-1.35,1.27l-0.6,1.8c0,0 2.01,-0.4 2.03,-0.35l-0.08,-2.72z" fill="#757575" id="svg_204"/>
      <path d="m19.71,206.06l1.36,1.27l0.59,1.8c0,0 -2.01,-0.4 -2.02,-0.35l0.07,-2.72z" fill="#757575" id="svg_205"/>
      <path d="m20.52,207.06l-0.18,0.38l-0.45,1.44c0,0 2.51,-0.7 2.39,-0.63l-1.76,-1.19z" fill="#B35137" id="svg_206"/>
      <polygon fill="#ABABAB" id="svg_207" points="39.071,211.014 37.719,211.416 35.281,212.145 35.125,212.189 32,213.123       31.913,213.149 31.721,213.206 30.767,213.49 30.399,213.604 29.208,213.958 28.616,214.136 26.313,214.821 25.832,214.964       25.724,214.995 25.122,215.175 24.742,215.289 23.651,215.616 22.008,216.105 22.005,215.641 21.994,214.287 20.911,216.117       20.911,216.432 19.765,216.774 17.016,217.595 17.016,213.736 17.025,213.54 17.025,213.524 17.025,213.519 17.052,212.94       17.144,212.725 17.686,211.438 18.228,210.156 18.804,208.785 19.023,208.271 19.265,207.693 19.669,207.593 20.336,207.436       20.369,207.428 20.42,207.414 20.503,207.393 20.546,207.386 20.69,207.349 20.883,207.302 20.887,207.302 20.907,207.296       21.006,207.271 22.834,206.828 23.028,206.781 23.112,206.764 23.309,206.713 24.772,206.359 24.799,206.354 24.966,206.311       25.52,206.177 25.644,206.146 26.726,205.888 30.306,205.888 31.156,206.094 31.363,206.143 31.479,206.171 32.778,206.487       33.947,206.77 36.121,207.298 36.247,207.329 36.75,207.451 37.443,207.619 37.486,207.628 37.746,207.693 38.287,209.049       38.829,210.407 38.982,210.783     "/>
      <polygon fill="#FFFFFF" id="svg_208" opacity="0.2" points="32.778,206.487 29.011,210.255 28.849,210.414 28.209,211.056       28.204,211.061 27.168,212.097 27.115,212.149 25.305,213.962 24.749,214.518 24.494,214.77 24.216,215.05 23.651,215.616       22.008,216.105 22.005,215.641 23.69,213.962 23.971,213.677 24.165,213.483 24.745,212.901 24.922,212.725 25.098,212.549       25.173,212.475 27.303,210.346 27.336,210.313 27.417,210.233 27.419,210.23 28.03,209.616 28.185,209.46 31.479,206.171           "/>
      <polygon fill="#FFFFFF" id="svg_209" opacity="0.2" points="37.443,207.619 35.179,209.882 31.97,213.094 31.913,213.149       31.721,213.206 30.767,213.49 30.399,213.604 29.208,213.958 28.616,214.136 26.313,214.821 25.832,214.964 25.724,214.995       25.807,214.911 26.148,214.57 27.764,212.954 27.928,212.791 28.799,211.921 28.9,211.819 29.75,210.968 33.947,206.77       36.121,207.298 36.247,207.329 36.75,207.451     "/>
      <path d="m32,213.12l-0.09,0.03l-0.19,0.06l-0.95,0.28l-0.37,0.11l-1.19,0.36l-0.59,0.17l-2.3,0.69l-0.49,0.14l-0.1,0.04l-0.61,0.18l-0.38,0.11l-0.24,-0.52l-0.53,-1.09l-1.69,-3.52l-0.82,-1.71l-0.08,-0.16l0,-0.01l-0.46,-0.95l0,-0.01l-0.01,-0.02l0.1,-0.03l1.83,-0.44l0.19,-0.05l0.08,-0.02l0.2,-0.05l1.46,-0.35l0.03,-0.01l0.17,-0.04c0.52,0.53 1.74,1.73 3.22,3.15c0.26,0.26 0.54,0.52 0.82,0.79c0.25,0.24 0.49,0.48 0.74,0.72c0.73,0.7 1.49,1.43 2.22,2.12c0.01,0.01 0.02,0.02 0.03,0.03z" fill="#616161" id="svg_210" opacity="0.2"/>
      <path d="m28.62,214.14l-2.31,0.68l-0.48,0.15l-0.11,0.03l-0.6,0.18l-0.37,-0.66l-0.58,-1.03l-1.89,-3.33l-0.67,-1.18l-0.28,-0.5l-0.64,-1.13l-0.16,-0.29l0.19,-0.05l3.79,-0.95c0.04,0.06 0.13,0.16 0.26,0.3c0.54,0.57 1.78,1.81 3.26,3.26c0.27,0.26 0.54,0.53 0.82,0.8c0.24,0.24 0.49,0.48 0.74,0.72c0.7,0.69 1.43,1.39 2.13,2.07l-0.95,0.28l-0.37,0.11l-1.19,0.36l-0.59,0.18z" fill="#D66142" id="svg_211"/>
      <polygon fill="#FFD675" id="svg_212" points="23.035,206.737 22.605,209.429 25.07,210.598 25.076,210.609 25.078,210.599       25.086,210.602 25.08,210.59 25.509,207.898 23.044,206.731 23.037,206.718 23.035,206.729 23.028,206.723     "/>
      <polygon fill="#616161" id="svg_213" opacity="0.2" points="22.896,206.496 22.283,209.676 25.242,210.814 25.25,210.829 25.25,210.818       25.259,210.818 25.251,210.809 25.521,207.922 22.908,206.493 22.899,206.479 22.897,206.487 22.887,206.484     "/>
      <polygon fill="#616161" id="svg_214" opacity="0.2" points="23.267,209.08 23.501,207.609 24.848,208.247 24.613,209.719     "/>
      <polygon fill="#EBEBEB" id="svg_215" points="25.338,205.586 25.521,206.178 28.356,207.823 28.273,205.888     "/>
      <polygon fill="#EBEBEB" id="svg_216" points="31.533,205.586 31.35,206.178 28.515,207.823 28.598,205.888     "/>
      <path d="m28.21,211.06l0.53,0.56c-0.19,-0.2 -0.37,-0.38 -0.54,-0.56c-0.31,-0.32 -0.58,-0.6 -0.78,-0.83c-0.2,-0.21 -0.34,-0.36 -0.42,-0.44l0.42,0.44l0.79,0.83z" fill="#616161" id="svg_217" opacity="0.2"/>
      <path d="m28.9,211.82c0.63,0.59 1.27,1.17 1.87,1.67l-0.37,0.11l-1.6,-1.68l-0.71,-0.75l-0.08,-0.08l-0.71,-0.75l-1.41,-1.48l-0.03,-0.04c0.01,0.02 0.02,0.03 0.04,0.04c0.43,0.45 0.92,0.95 1.44,1.45c0.24,0.24 0.48,0.48 0.73,0.72c0.03,0.03 0.06,0.05 0.08,0.08c0.25,0.24 0.5,0.48 0.75,0.71z" fill="#616161" id="svg_218" opacity="0.2"/>
      <polygon fill="#616161" id="svg_219" opacity="0.2" points="26.313,214.821 25.832,214.964 25.807,214.911 25.305,213.962       24.745,212.901 24.126,211.723 23.379,210.4 24.922,212.725 25.568,213.698 26.148,214.57     "/>
      <polygon fill="#616161" id="svg_220" opacity="0.2" points="29.208,213.958 28.616,214.136 28.177,213.47 27.764,212.954       27.115,212.149 26.8,211.763 27.168,212.097 27.928,212.791     "/>
      <polygon fill="#616161" id="svg_221" opacity="0.2" points="21.994,214.287 20.911,216.117 20.911,216.432 19.765,216.774       18.931,216.605 20.078,216.082     "/>
      <polygon fill="#616161" id="svg_222" opacity="0.2" points="39.071,211.014 37.719,211.416 35.281,212.145 35.125,212.189       34.979,210.361 35.179,209.882 35.494,209.13 36.247,207.329 36.75,207.451 37.443,207.619 37.486,207.628 37.746,207.693       38.287,209.049 38.829,210.407 38.982,210.783     "/>
      <path d="m37.72,211.42l-2.44,0.73l-0.01,-1.73l0.62,-1.24l0.07,-0.14l0.79,-1.59l0.69,-1.39c0,0 1.77,2.23 1.82,2.19c0.02,0 0.07,0.26 0.14,0.66c0.08,0.49 0.19,1.2 0.3,1.92l-0.57,0.16l-0.06,0.02l-1.35,0.41z" fill="#ABABAB" id="svg_223"/>
      <path d="m22.04,210.56l-0.05,3.07l-4.19,-0.71c0,0 0,-0.17 0.02,-0.34l1.2,-4.31l0.25,-0.58l1.1,-0.26l0.05,-0.02l0.08,-0.02l0.05,0l1.49,3.17z" fill="#616161" id="svg_224" opacity="0.2"/>
      <path d="m21.99,213.99l-3.95,-0.36l-1.01,-0.09l-0.01,0c0,0 0,-0.01 0.01,-0.02c0,0 0,0 0,0c0.01,-0.08 0.05,-0.38 0.11,-0.8c0.23,-1.48 0.68,-4.47 0.73,-4.47c0.05,0.04 1.82,-2.19 1.82,-2.19l0.01,0.03l0.67,1.34l1.49,2.98l0.13,3.58z" fill="#ABABAB" id="svg_225"/>
      <path d="m39.7,210.83l-0.57,0.16l-0.06,0.02l-1.35,0.41l0.57,-2.37l0.13,-0.58l-0.98,-2.41c0,0 1.77,2.23 1.82,2.19c0.02,0 0.07,0.26 0.14,0.66c0.08,0.49 0.19,1.2 0.3,1.92z" fill="#FFFFFF" id="svg_226" opacity="0.2"/>
      <path d="m19.7,206.09l-0.97,2.38l0.07,0.32l0.84,3.48l-1.6,1.36l-0.36,0.3c0,0 -0.52,2.12 -0.58,2.19c-0.01,0.01 -0.04,0.01 -0.08,-0.01l0,-2.37l0,-0.2l0,0c0,0 0,0 0,-0.01c0,-0.01 0,-0.01 0,-0.01l0.03,-0.58l0.09,-0.21c0.23,-1.49 0.68,-4.48 0.72,-4.48c0.06,0.04 1.83,-2.19 1.83,-2.19l0.02,0l-0.01,0.03z" fill="#FFFFFF" id="svg_227" opacity="0.2"/>
      <polygon fill="#D66142" id="svg_228" points="17.74,208.878 18.363,210.523 17.248,212.031     "/>
      <polygon fill="#D66142" id="svg_229" points="39.713,210.822 39.702,210.826 39.134,210.993 38.982,210.783 38.787,210.523       38.829,210.407 39.397,208.91 39.409,208.878     "/>
     </g>
     <path d="m39.41,208.88l-0.01,0.03c-0.07,-0.4 -0.12,-0.66 -0.13,-0.66c-0.06,0.04 -1.83,-2.19 -1.83,-2.19l-1.32,1.24l-2.17,-0.53l-1.17,-0.28l-1.3,-0.32l-0.12,-0.03l0,0l0.17,-0.55l-1.22,-0.55l0,-0.4c0.88,-0.84 1.53,-2.27 1.69,-3.32c0.02,-0.08 0.02,-0.81 0.03,-1.61l0.19,-0.11l0.33,-3.38l-0.83,-1.43l-3.21,-2.03l-0.09,0.06l0,21.37l0.2,-0.05l0.59,-0.18l1.19,-0.36l0.37,-0.11l0.95,-0.28l0.19,-0.06l0.09,-0.03l3.13,-0.93l0.15,-0.05l2.44,-0.73l1.35,-0.4l0.07,-0.02l0.56,-0.16l0.01,-0.01l-0.3,-1.94z" fill="#616161" id="svg_230" opacity="0.2"/>
    </g>
    <g id="svg_231">
     <g id="svg_232">
      <polygon fill="#757575" id="svg_233" points="30.005,226.26 31.392,225.711 31.074,225.126 25.584,225.194 25.197,225.711       26.424,226.26     "/>
      <g id="svg_234">
       <rect fill="#EBB07A" height="3.74" id="svg_235" width="3.58" x="26.42" y="224.24"/>
       <path d="m26.42,227.26l0,-0.91c0.44,-0.42 0.94,-0.68 1.47,-0.68l0.67,0c0.52,0 1.01,0.26 1.44,0.66l0,0.9l-0.3,-0.49l-0.08,1.24l-2.79,0l-0.08,-1.24l-0.33,0.52z" fill="#616161" id="svg_236" opacity="0.2"/>
       <path d="m27.89,236.51l0.33,0l0.34,0c1.77,0 3.2,-1.21 3.2,-2.7c0,0 -0.01,-3.65 -0.04,-3.83c-0.24,-1.57 -1.57,-4 -3.16,-4l-0.34,0l-0.33,0c-1.59,0 -2.92,2.43 -3.16,4.01c-0.03,0.17 -0.04,3.82 -0.04,3.82c-0.01,1.49 1.43,2.7 3.2,2.7z" fill="#EBB07A" id="svg_237"/>
       <polygon fill="#D66142" id="svg_238" points="25.015,236.51 28.224,238.533 31.433,236.51 32.266,235.08 31.938,231.695        31.508,231.443 31.433,234.557 30.423,235.641 28.224,234.607 26.025,235.641 25.015,234.557 24.94,231.443 24.511,231.695        24.182,235.08      "/>
       <g id="svg_239">
        <path d="m30.28,232.16c0.07,-0.08 0.11,-0.18 0.11,-0.28c0,-0.28 -0.27,-0.51 -0.6,-0.51c-0.33,0 -0.59,0.23 -0.59,0.51c0,0.1 0.04,0.2 0.1,0.28l0.98,0z" fill="#333333" id="svg_240"/>
        <polygon fill="#616161" id="svg_241" opacity="0.2" points="27.995,232.652 28.224,232.652 28.454,232.652 28.772,230.309         28.224,229.678 27.678,230.309       "/>
        <path d="m26.17,232.16c-0.07,-0.08 -0.11,-0.18 -0.11,-0.28c0,-0.28 0.27,-0.51 0.6,-0.51c0.32,0 0.59,0.23 0.59,0.51c0,0.1 -0.04,0.2 -0.11,0.28l-0.97,0z" fill="#333333" id="svg_242"/>
       </g>
       <path d="m24.99,229.84l1.76,-2.8l0.15,2.19l0.92,0.39l0.4,0.06l0.41,-0.06l0.92,-0.39l0.14,-2.19l1.77,2.8l0.26,0.14c-0.25,-1.57 -1.57,-4 -3.16,-4l-0.34,0l-0.33,0c-1.6,0 -2.92,2.43 -3.16,4.01l0.26,-0.15z" fill="#D66142" id="svg_243"/>
       <polygon fill="#EBB07A" id="svg_244" points="27.251,228.639 28.054,229.234 28.224,229.234 28.395,229.234 29.197,228.639        29.246,226.928 28.224,226.928 27.203,226.928      "/>
       <g id="svg_245" opacity="0.2">
        <rect fill="#616161" height="0.43" id="svg_246" width="1.31" x="27.57" y="228.13"/>
       </g>
       <polygon fill="#D66142" id="svg_247" points="27.31,233.432 25.538,233.215 27.31,233      "/>
       <polygon fill="#D66142" id="svg_248" points="29.138,233 30.873,233.215 29.138,233.432      "/>
      </g>
      <path d="m19.29,225.24l1.35,-1.27l0.6,-1.8c0,0 -2.01,0.4 -2.03,0.35l0.08,2.72z" fill="#757575" id="svg_249"/>
      <path d="m37.02,225.24l-1.36,-1.27l-0.59,-1.8c0,0 2.01,0.4 2.02,0.35l-0.07,2.72z" fill="#757575" id="svg_250"/>
      <path d="m36.21,224.24l0.18,-0.38l0.45,-1.44c0,0 -2.5,0.7 -2.39,0.62l1.76,1.2z" fill="#B35137" id="svg_251"/>
      <polygon fill="#ABABAB" id="svg_252" points="17.66,220.284 19.011,219.88 21.449,219.152 21.604,219.108 24.73,218.175       24.817,218.148 25.009,218.091 25.963,217.806 26.331,217.695 27.521,217.339 28.113,217.164 30.417,216.476 30.898,216.335       31.007,216.303 31.608,216.124 31.988,216.01 33.079,215.683 34.722,215.194 34.725,215.656 34.736,217.012 35.82,215.182       35.82,214.865 36.966,214.523 39.713,213.703 39.713,217.561 39.706,217.759 39.706,217.774 39.706,217.779 39.679,218.358       39.586,218.572 39.044,219.859 38.503,221.139 37.926,222.512 37.707,223.026 37.465,223.604 37.061,223.702 36.394,223.861       36.361,223.87 36.311,223.883 36.227,223.904 36.185,223.913 36.041,223.948 35.847,223.997 35.844,223.997 35.823,224.002       35.724,224.025 33.896,224.468 33.702,224.516 33.619,224.535 33.42,224.586 31.958,224.938 31.93,224.944 31.764,224.986       31.21,225.12 31.087,225.152 30.005,225.412 26.423,225.412 25.574,225.205 25.368,225.153 25.251,225.126 23.953,224.811       22.784,224.524 20.609,223.999 20.483,223.971 19.98,223.846 19.287,223.681 19.244,223.67 18.984,223.604 18.442,222.248       17.901,220.888 17.749,220.513     "/>
      <polygon fill="#FFFFFF" id="svg_253" opacity="0.2" points="23.953,224.811 27.719,221.044 27.881,220.882 28.521,220.242       28.527,220.237 29.562,219.2 29.616,219.148 31.425,217.337 31.981,216.779 32.235,216.526 32.514,216.25 33.079,215.683       34.722,215.194 34.725,215.656 33.041,217.337 32.759,217.618 32.565,217.814 31.985,218.396 31.808,218.572 31.632,218.75       31.557,218.82 29.427,220.951 29.395,220.984 29.313,221.065 29.31,221.066 28.701,221.682 28.544,221.835 25.251,225.126           "/>
      <polygon fill="#FFFFFF" id="svg_254" opacity="0.2" points="19.287,223.681 21.551,221.415 24.76,218.205 24.817,218.148       25.009,218.091 25.963,217.806 26.331,217.695 27.521,217.339 28.113,217.164 30.417,216.476 30.898,216.335 31.007,216.303       30.923,216.388 30.581,216.727 28.966,218.342 28.802,218.508 27.932,219.378 27.83,219.48 26.979,220.328 22.784,224.524       20.609,223.999 20.483,223.971 19.98,223.846     "/>
      <path d="m24.73,218.18l0.09,-0.03l0.19,-0.06l0.95,-0.28l0.37,-0.11l1.19,-0.36l0.59,-0.18l2.31,-0.68l0.48,-0.14l0.11,-0.04l0.6,-0.17l0.38,-0.12l0.25,0.52l0.52,1.09l1.69,3.52l0.82,1.71l0.08,0.16l0,0.01l0.46,0.95l0,0.01l0.01,0.02l-0.1,0.03l-1.82,0.44l-0.2,0.05l-0.08,0.02l-0.2,0.05l-1.46,0.35l-0.03,0.01l-0.17,0.04c-0.51,-0.53 -1.74,-1.73 -3.21,-3.15c-0.27,-0.26 -0.55,-0.52 -0.83,-0.79c-0.24,-0.24 -0.49,-0.48 -0.74,-0.72c-0.73,-0.7 -1.49,-1.42 -2.22,-2.12c-0.01,-0.01 -0.02,-0.02 -0.03,-0.03z" fill="#616161" id="svg_255" opacity="0.2"/>
      <path d="m28.11,217.16l2.31,-0.68l0.48,-0.14l0.11,-0.04l0.6,-0.18l0.37,0.66l0.58,1.03l1.89,3.32l0.67,1.19l0.28,0.49l0.64,1.14l0.16,0.29l-0.19,0.05l-3.79,0.95c-0.04,-0.06 -0.13,-0.16 -0.26,-0.3c-0.54,-0.58 -1.78,-1.81 -3.26,-3.26c-0.27,-0.26 -0.54,-0.53 -0.82,-0.8c-0.25,-0.24 -0.49,-0.48 -0.74,-0.72c-0.71,-0.69 -1.43,-1.39 -2.13,-2.07l0.95,-0.28l0.37,-0.12l1.19,-0.35l0.59,-0.18z" fill="#D66142" id="svg_256"/>
      <polygon fill="#FFD675" id="svg_257" points="33.696,224.561 34.125,221.868 31.661,220.701 31.653,220.69 31.652,220.697       31.644,220.696 31.65,220.706 31.22,223.399 33.687,224.566 33.693,224.579 33.693,224.57 33.703,224.573     "/>
      <polygon fill="#616161" id="svg_258" opacity="0.2" points="33.834,224.802 34.446,221.62 31.488,220.485 31.48,220.469 31.479,220.48       31.471,220.477 31.479,220.49 31.208,223.375 33.823,224.804 33.831,224.819 33.832,224.81 33.842,224.816     "/>
      <polygon fill="#616161" id="svg_259" opacity="0.2" points="33.463,222.217 33.229,223.688 31.882,223.05 32.117,221.58     "/>
      <polygon fill="#EBEBEB" id="svg_260" points="31.392,225.711 31.208,225.118 28.375,223.475 28.457,225.412     "/>
      <polygon fill="#EBEBEB" id="svg_261" points="25.197,225.711 25.381,225.118 28.215,223.475 28.133,225.412     "/>
      <path d="m28.52,220.24l-0.53,-0.56c0.19,0.2 0.37,0.38 0.54,0.56c0.31,0.32 0.58,0.6 0.78,0.82c0.2,0.21 0.35,0.37 0.42,0.45l-0.42,-0.44l-0.79,-0.83z" fill="#616161" id="svg_262" opacity="0.2"/>
      <path d="m27.83,219.48c-0.63,-0.6 -1.27,-1.17 -1.87,-1.67l0.37,-0.11l1.6,1.68l0.71,0.74l0.08,0.09l0.71,0.74l1.41,1.48l0.03,0.04c-0.01,-0.01 -0.02,-0.02 -0.04,-0.03c-0.43,-0.45 -0.92,-0.95 -1.44,-1.46c-0.24,-0.23 -0.48,-0.47 -0.73,-0.71c-0.03,-0.03 -0.06,-0.06 -0.08,-0.08c-0.25,-0.24 -0.5,-0.48 -0.75,-0.71z" fill="#616161" id="svg_263" opacity="0.2"/>
      <polygon fill="#616161" id="svg_264" opacity="0.2" points="30.417,216.476 30.898,216.335 30.923,216.388 31.425,217.337       31.985,218.396 32.604,219.574 33.351,220.898 31.808,218.572 31.163,217.601 30.581,216.727     "/>
      <polygon fill="#616161" id="svg_265" opacity="0.2" points="27.521,217.339 28.113,217.164 28.554,217.829 28.966,218.342       29.616,219.148 29.93,219.536 29.562,219.2 28.802,218.508     "/>
      <polygon fill="#616161" id="svg_266" opacity="0.2" points="34.736,217.012 35.82,215.182 35.82,214.865 36.966,214.523 37.799,214.691       36.651,215.217     "/>
      <polygon fill="#616161" id="svg_267" opacity="0.2" points="17.66,220.284 19.011,219.88 21.449,219.152 21.604,219.108 21.751,220.936       21.551,221.415 21.236,222.169 20.483,223.971 19.98,223.846 19.287,223.681 19.244,223.67 18.984,223.604 18.442,222.248       17.901,220.888 17.749,220.513     "/>
      <path d="m19.01,219.88l2.44,-0.73l0.01,1.73l-0.62,1.25l-0.07,0.13l-0.79,1.59l-0.69,1.39c0,0 -1.77,-2.23 -1.83,-2.19c-0.01,0 -0.06,-0.26 -0.13,-0.66c-0.08,-0.49 -0.19,-1.2 -0.3,-1.92l0.57,-0.16l0.06,-0.03l1.35,-0.4z" fill="#ABABAB" id="svg_268"/>
      <path d="m34.69,220.74l0.05,-3.07l4.19,0.71c0,0 0,0.17 -0.02,0.33l-1.2,4.32l-0.25,0.57l-1.1,0.27l-0.05,0.01l-0.08,0.02l-0.05,0.01l-1.49,-3.17z" fill="#616161" id="svg_269" opacity="0.2"/>
      <path d="m34.74,217.31l3.95,0.36l1.02,0.09l0,0c0,0 0,0 0,0.02c0,0 0,0 0,0c-0.02,0.08 -0.06,0.38 -0.12,0.79c-0.22,1.49 -0.68,4.48 -0.73,4.48c-0.05,-0.04 -1.82,2.19 -1.82,2.19l-0.01,-0.03l-0.67,-1.34l-1.49,-2.99l-0.13,-3.57z" fill="#ABABAB" id="svg_270"/>
      <path d="m17.03,220.47l0.57,-0.16l0.06,-0.02l1.35,-0.41l-0.57,2.37l-0.14,0.58l0.99,2.41c0,0 -1.77,-2.23 -1.83,-2.19c-0.01,0 -0.06,-0.26 -0.13,-0.66c-0.08,-0.49 -0.19,-1.2 -0.3,-1.92z" fill="#FFFFFF" id="svg_271" opacity="0.2"/>
      <path d="m37.03,225.21l0.97,-2.38l-0.07,-0.32l-0.84,-3.47l1.6,-1.37l0.36,-0.3c0,0 0.52,-2.12 0.58,-2.19c0.01,-0.01 0.04,-0.01 0.08,0.01l0,2.37l0,0.2l0,0c0,0 0,0 0,0.01c0,0.01 0,0.01 0,0.01l-0.03,0.58l-0.09,0.21c-0.22,1.49 -0.68,4.48 -0.73,4.48c-0.05,-0.04 -1.82,2.19 -1.82,2.19l-0.02,0l0.01,-0.03z" fill="#FFFFFF" id="svg_272" opacity="0.2"/>
      <polygon fill="#D66142" id="svg_273" points="38.991,222.42 38.367,220.775 39.482,219.265     "/>
      <polygon fill="#D66142" id="svg_274" points="17.016,220.475 17.027,220.473 17.596,220.306 17.749,220.513 17.943,220.775       17.901,220.888 17.333,222.387 17.321,222.42     "/>
     </g>
     <path d="m28.27,217.12l-0.16,0.04l-0.59,0.18l-1.19,0.35l-0.37,0.12l-0.95,0.28l-0.19,0.06l-0.09,0.02l-3.13,0.94l-0.15,0.04l-2.44,0.73l-1.35,0.4l-0.06,0.03l-0.57,0.16l-0.01,0l0.3,1.95l0.01,-0.03c0.07,0.4 0.12,0.66 0.13,0.66c0.06,-0.04 1.83,2.19 1.83,2.19l1.32,-1.24l2.17,0.52l1.17,0.29l1.3,0.32l0.12,0.02l0,0l-0.17,0.56l1.22,0.55l0,0.4c-0.88,0.83 -1.53,2.27 -1.69,3.32c-0.02,0.08 -0.02,0.8 -0.03,1.61l-0.19,0.1l-0.33,3.39l0.83,1.43l3.21,2.02l0.04,-0.02l0,-21.39l0.01,0z" fill="#616161" id="svg_275" opacity="0.2"/>
    </g>
   </g>
  </g>
 </g>

</svg>