<?xml version="1.0"?>
<svg width="40" height="56" xmlns="http://www.w3.org/2000/svg" xmlns:svg="http://www.w3.org/2000/svg" enable-background="new 0 0 450 450" version="1.1" xml:space="preserve">
 <g class="layer">
  <title>Layer 1</title>
  <g id="svg_2239" transform="translate(0, -0.121803) matrix(1, 0, 0, 1, -9.43662, -54.9577)">
   <g id="svg_2240">
    <path d="m13.96,110.97c-2.36,0 -4.28,-1.88 -4.28,-4.19l-0.12,-47.3c-0.01,-2.33 1.91,-4.22 4.27,-4.21l31.25,0.05c2.36,0.01 4.27,1.9 4.27,4.22l0,47.2c0,2.31 -1.91,4.19 -4.25,4.19l-31.14,0.04z" fill="#C9C9C9" id="svg_2241"/>
    <path d="m14.28,110.91c-2.32,0 -4.21,-1.88 -4.21,-4.2l0,-47.18c0,-2.32 1.89,-4.2 4.21,-4.2l30.8,0c2.33,0 4.22,1.88 4.22,4.2l0,47.18c0,2.32 -1.89,4.2 -4.22,4.2l-30.8,0z" fill="#FFFFFF" id="svg_2242"/>
    <g id="svg_2243">
     <path d="m45.14,109.96l-30.8,0c-1.8,0 -3.27,-1.45 -3.27,-3.25l0,-47.18c0,-1.79 1.47,-3.25 3.27,-3.25l30.8,0c1.8,0 3.26,1.46 3.26,3.25l0,47.18c0,1.79 -1.46,3.25 -3.26,3.25zm-30.8,-52.39c-1.09,0 -1.98,0.88 -1.98,1.96l0,47.18c0,1.08 0.89,1.96 1.98,1.96l30.8,0c1.09,0 1.97,-0.88 1.97,-1.96l0,-47.18c0,-1.08 -0.88,-1.96 -1.97,-1.96l-30.8,0z" fill="#D66142" id="svg_2244"/>
    </g>
    <g id="svg_2245">
     <polygon fill="#D66142" id="svg_2246" points="15.481,69.918 13.464,67.373 15.481,64.828 17.496,67.373    "/>
     <polygon fill="#616161" id="svg_2247" opacity="0.2" points="15.481,64.828 15.416,64.91 15.416,69.835 15.481,69.918 17.496,67.373         "/>
    </g>
    <g id="svg_2248">
     <path d="m17.14,62.89c-0.03,0.05 -0.15,0.15 -0.35,0.3c-0.27,0.2 -0.5,0.33 -0.7,0.39l-1.07,-1.96l-0.06,0.04l0,1.72l-1.25,0l0,-4.47l1.25,0l0,2.53c0.22,-0.03 0.41,-0.18 0.59,-0.44c0.16,-0.25 0.24,-0.48 0.24,-0.69c0,-0.16 -0.03,-0.29 -0.08,-0.41c-0.05,-0.1 -0.11,-0.2 -0.16,-0.3c0,-0.05 0.13,-0.17 0.41,-0.38c0.23,-0.17 0.39,-0.29 0.5,-0.37c0.07,0.06 0.14,0.17 0.21,0.33c0.06,0.16 0.1,0.3 0.1,0.42c0,0.1 -0.03,0.23 -0.07,0.39c-0.05,0.15 -0.11,0.29 -0.18,0.41c-0.12,0.18 -0.22,0.32 -0.31,0.41c-0.19,0.19 -0.29,0.3 -0.3,0.32l1.23,1.76z" fill="#333333" id="svg_2249"/>
    </g>
    <g id="svg_2250">
     <polygon fill="#D66142" id="svg_2251" points="44.155,96.834 46.17,99.38 44.155,101.924 42.139,99.38    "/>
     <polygon fill="#616161" id="svg_2252" opacity="0.2" points="44.155,101.924 44.22,101.842 44.22,96.915 44.155,96.834 42.139,99.38         "/>
    </g>
    <g id="svg_2253">
     <path d="m42.49,103.86c0.03,-0.05 0.15,-0.15 0.36,-0.3c0.26,-0.2 0.49,-0.33 0.69,-0.38l1.07,1.95l0.06,-0.04l0,-1.71l1.26,0l0,4.46l-1.26,0l0,-2.53c-0.22,0.03 -0.41,0.18 -0.58,0.45c-0.16,0.24 -0.24,0.47 -0.24,0.69c0,0.15 0.02,0.28 0.07,0.4c0.06,0.1 0.11,0.2 0.17,0.3c0,0.05 -0.14,0.17 -0.42,0.38c-0.23,0.17 -0.39,0.3 -0.49,0.37c-0.08,-0.06 -0.15,-0.17 -0.22,-0.33c-0.06,-0.16 -0.1,-0.3 -0.1,-0.42c0,-0.1 0.03,-0.23 0.07,-0.39c0.05,-0.15 0.11,-0.29 0.18,-0.41c0.12,-0.18 0.22,-0.32 0.32,-0.41c0.18,-0.19 0.28,-0.3 0.29,-0.32l-1.23,-1.76z" fill="#333333" id="svg_2254"/>
    </g>
   </g>
   <g id="svg_2255">
    <g id="svg_2256">
     <g id="svg_2257">
      <g id="svg_2258">
       <path d="m41.12,73.04l-0.09,-0.29c0,0 -5.33,-3.04 -7.03,-4.01c-0.32,-0.18 -0.51,-0.29 -0.52,-0.29l-7.58,0c-0.01,0 -0.02,0.01 -0.04,0.02c-0.01,0.01 -0.03,0.02 -0.06,0.03c-0.01,0.02 -0.04,0.03 -0.06,0.04c-0.03,0.02 -0.05,0.03 -0.08,0.04c-0.02,0.02 -0.05,0.03 -0.08,0.05c-0.05,0.03 -0.1,0.06 -0.15,0.09c-0.1,0.06 -0.22,0.12 -0.35,0.2c0,0 -0.01,0 -0.01,0c-0.09,0.05 -0.2,0.11 -0.31,0.17c-0.03,0.02 -0.07,0.05 -0.11,0.07c-0.25,0.14 -0.53,0.3 -0.83,0.47c-0.11,0.07 -0.22,0.13 -0.33,0.19c-0.11,0.06 -0.22,0.13 -0.34,0.19c-0.11,0.07 -0.22,0.13 -0.34,0.2c-1.51,0.85 -3.16,1.8 -3.97,2.26c-0.05,0.03 -0.09,0.05 -0.13,0.07c-0.19,0.11 -0.32,0.18 -0.35,0.2l0,12.65l4.96,-1.49l1.13,-0.34l16.67,-5.01l0,-5.51z" fill="#D66142" id="svg_2259"/>
       <g id="svg_2260">
        <g id="svg_2261">
         <g id="svg_2262">
          <polygon fill="#616161" id="svg_2263" opacity="0.2" points="29.745,80.538 27.481,77.237 29.755,74.689 32.047,77.323         "/>
          <polygon fill="#FFD675" id="svg_2264" points="29.75,79.788 27.734,77.24 29.75,74.696 31.765,77.24         "/>
          <polygon fill="#616161" id="svg_2265" opacity="0.2" points="28.613,77.24 29.75,75.805 30.885,77.24 29.75,78.676         "/>
          <g id="svg_2266">
           <path d="m29.75,75l-2.08,-3.6l4.16,0l-2.08,3.6zm-1.68,-3.37l1.68,2.91l1.68,-2.91l-3.36,0z" fill="#FFD675" id="svg_2267"/>
          </g>
         </g>
         <path d="m26.96,68.45c-0.04,0.01 -7.55,4.3 -7.55,4.3l-1.05,3.25l0,9.39l4.96,-1.49l1.13,-0.34l2.97,-9.74l0.39,-1.3l0.58,-1.25l1.3,-2.76l0,-0.06l-2.73,0z" fill="#616161" id="svg_2268" opacity="0.2"/>
         <path d="m25.9,68.45c-0.01,0 -0.02,0.01 -0.04,0.02c-0.01,0.01 -0.03,0.02 -0.06,0.03c-0.01,0.02 -0.04,0.03 -0.06,0.04c-0.02,0.02 -0.05,0.03 -0.08,0.04c-0.02,0.02 -0.05,0.03 -0.08,0.05c-0.05,0.03 -0.1,0.06 -0.15,0.09c-0.1,0.06 -0.22,0.12 -0.35,0.2c0,0 -0.01,0 -0.01,0c-0.09,0.05 -0.2,0.11 -0.3,0.17c-0.04,0.02 -0.08,0.05 -0.12,0.07c-0.25,0.14 -0.53,0.3 -0.83,0.47c-0.11,0.07 -0.22,0.13 -0.33,0.19c-0.11,0.06 -0.22,0.13 -0.34,0.19c-0.11,0.06 -0.22,0.13 -0.34,0.2c-0.48,0.27 -0.99,0.56 -1.47,0.84c-0.15,0.08 -0.29,0.16 -0.43,0.24c-0.85,0.48 -1.6,0.91 -2.07,1.18c-0.04,0.03 -0.09,0.05 -0.13,0.07c-0.19,0.11 -0.32,0.18 -0.35,0.2l0,12.65l0.89,-0.26l0.49,-0.15l3.53,-1.06l0.05,-0.02c0.17,-0.39 0.34,-0.81 0.52,-1.24c1.19,-2.86 2.64,-6.48 3.58,-8.84c0.58,-1.46 0.97,-2.44 0.97,-2.44l0.01,-0.1l0.25,-2.82l-2.75,0l0,-0.01z" fill="#EBEBEB" id="svg_2269"/>
        </g>
        <g id="svg_2270">
         <g id="svg_2271">
          <path d="m41.12,76.57l-1.15,-3.82c0,0 -7.51,-4.29 -7.55,-4.3l-2.73,0l0,0.06l1.88,4.01l2.43,8.32l7.12,-2.58l0,-1.69z" fill="#616161" id="svg_2272" opacity="0.2"/>
          <path d="m41.12,73.04l-0.09,-0.29c0,0 -7.51,-4.29 -7.55,-4.3l-2.75,0l0.26,2.92c0,0 3.24,6.73 4.39,8.91l5.74,-1.73l0,-5.51z" fill="#EBEBEB" id="svg_2273"/>
         </g>
        </g>
       </g>
       <g id="svg_2274">
        <path d="m34,68.74l-0.16,2.07l-4.12,2.94l0,0.01l-0.01,-0.01l0,0.01l0,-0.01l-4.12,-2.94l-0.16,-2.09c0.28,-0.17 0.46,-0.27 0.46,-0.27l0.62,0c0.37,0.58 0.69,1.06 0.69,1.06l1.5,-1.06l0.23,-0.16l0.78,0.03l0.79,-0.03l0.22,0.16l1.51,1.06c0,0 0.32,-0.48 0.69,-1.06l0.56,0c0.01,0.01 0.2,0.11 0.52,0.29z" fill="#616161" id="svg_2275" opacity="0.4"/>
        <polygon fill="#EBBE9F" id="svg_2276" points="34.073,66.597 33.995,65.57 33.993,65.532 33.759,62.391 32.591,61.801 30.337,60.661         29.714,60.996 29.09,60.661 26.837,61.801 25.67,62.391 25.436,65.532 25.433,65.57 25.355,66.597 25.59,69.585         29.708,72.526 29.708,72.533 29.71,72.534 29.714,72.53 29.72,72.534 29.72,72.533 29.72,72.526 33.836,69.585       "/>
        <path d="m34.07,66.6l-0.08,-1.07c-0.36,0.64 -1.77,2.76 -1.77,2.76l-1.73,-1.22l-0.78,0.03l-0.78,-0.03l-1.73,1.22c0,0 -1.41,-2.12 -1.77,-2.76l-0.08,1.07l0.24,2.98l4.12,2.95l0,0l0,0l0.01,0l0,0l4.11,-2.95l0.24,-2.98z" fill="#9C9C9C" id="svg_2277"/>
        <path d="m29.72,68.45l1.38,-0.04l-1.03,-0.65c0,0 -0.17,-0.01 -0.35,-0.01l0,0c0,0 -0.01,0 -0.01,0c0,0 0,0 0,0l0,0c-0.18,0 -0.35,0.01 -0.35,0.01l-1.03,0.65l1.38,0.04l0,0l0,0l0.01,0l0,0z" fill="#EBBE9F" id="svg_2278"/>
        <polygon fill="#616161" id="svg_2279" opacity="0.2" points="30.555,66.479 29.988,64.514 29.72,64.514 29.71,64.514 29.44,64.514         28.875,66.479 29.44,67.086 29.71,67.096 29.71,67.097 29.714,67.096 29.72,67.097 29.72,67.096 29.988,67.086       "/>
        <g id="svg_2280">
         <polygon fill="#9C9C9C" id="svg_2281" points="30.311,63.987 32.087,63.764 32.126,63.759 32.145,63.771 32.991,64.218          32.068,63.96 32.126,63.965 30.404,64.451        "/>
         <path d="m30.93,64.73c-0.02,0.06 -0.04,0.13 -0.04,0.21c0,0.27 0.22,0.5 0.5,0.5c0.28,0 0.5,-0.23 0.5,-0.5c0,-0.08 -0.02,-0.15 -0.04,-0.21l-0.92,0z" fill="#333333" id="svg_2282"/>
         <polygon fill="#9C9C9C" id="svg_2283" points="29.118,63.987 27.342,63.764 27.303,63.759 27.284,63.771 26.438,64.218          27.359,63.96 27.301,63.965 29.025,64.451        "/>
         <path d="m28.5,64.73c0.02,0.06 0.04,0.13 0.04,0.21c0,0.27 -0.22,0.5 -0.5,0.5c-0.28,0 -0.5,-0.23 -0.5,-0.5c0,-0.08 0.01,-0.15 0.04,-0.21l0.92,0z" fill="#333333" id="svg_2284"/>
         <path d="m33.99,65.57c-0.02,0.02 -0.04,0.03 -0.04,0.03l-0.82,-2.9l-0.54,-0.9l1.17,0.59l0.23,3.14l0,0.04z" fill="#9C9C9C" id="svg_2285"/>
         <path d="m25.43,65.57c0.03,0.02 0.05,0.03 0.05,0.03l0.82,-2.9l0.54,-0.9l-1.17,0.59l-0.23,3.14l-0.01,0.04z" fill="#9C9C9C" id="svg_2286"/>
        </g>
        <path d="m33.84,61.27l0,1.2c-1.05,0.28 -2.21,0.41 -3.33,0.44c-0.74,0.02 -1.47,0 -2.12,-0.04c-0.33,-0.02 -0.63,-0.04 -0.92,-0.06c-0.34,-0.04 -0.64,-0.07 -0.9,-0.1c-0.63,-0.07 -1.02,-0.14 -1.02,-0.14l0,-1.14c0,0 4.12,-2.2 4.14,-2.2c0,0.01 0.52,0.26 1.18,0.59c0.21,0.1 0.44,0.22 0.67,0.33c0.22,0.11 0.45,0.22 0.66,0.32c0.61,0.3 1.18,0.58 1.45,0.71c0.12,0.06 0.19,0.09 0.19,0.09z" fill="#FFD675" id="svg_2287"/>
        <g id="svg_2288">
         <path d="m31.55,60.15l-4.08,2.65c-0.33,-0.03 -0.64,-0.06 -0.9,-0.09l4.31,-2.89c0.21,0.1 0.43,0.22 0.67,0.33z" fill="#FFFFFF" id="svg_2289" opacity="0.2"/>
         <path d="m33.65,61.18l-3.14,1.73c-0.74,0.02 -1.47,0 -2.12,-0.04l3.81,-2.4c0.62,0.3 1.18,0.58 1.45,0.71z" fill="#FFFFFF" id="svg_2290" opacity="0.2"/>
        </g>
        <polygon fill="#D66142" id="svg_2291" points="30.419,60.512 29.75,61.406 29.75,61.408 29.714,61.466 29.003,60.537 29.75,59.543               "/>
        <polygon fill="#FFFFFF" id="svg_2292" opacity="0.2" points="29.75,61.406 29.904,60.623 29.75,59.543 30.419,60.512       "/>
       </g>
      </g>
      <g id="svg_2293">
       <polygon fill="#333333" id="svg_2294" points="21.554,76.757 21.416,77.725 21.894,76.872      "/>
       <polygon fill="#333333" id="svg_2295" points="23.458,76.757 23.321,77.725 23.798,76.872      "/>
       <polygon fill="#333333" id="svg_2296" points="25.361,76.757 25.225,77.725 25.7,76.872      "/>
       <polygon fill="#333333" id="svg_2297" points="19.173,79.876 19.037,80.842 19.512,79.99      "/>
       <polygon fill="#333333" id="svg_2298" points="21.077,79.876 20.94,80.842 21.416,79.99      "/>
       <polygon fill="#333333" id="svg_2299" points="22.979,79.876 22.844,80.842 23.321,79.99      "/>
       <polygon fill="#333333" id="svg_2300" points="19.754,83.017 19.619,83.983 20.095,83.132      "/>
       <polygon fill="#333333" id="svg_2301" points="21.66,83.017 21.521,83.983 22,83.132      "/>
       <path d="m23.7,82.94c-0.09,0.22 -0.18,0.43 -0.26,0.62l-0.03,0.01l0.1,-0.69l0.19,0.06z" fill="#333333" id="svg_2302"/>
       <polygon fill="#333333" id="svg_2303" points="24.886,71.32 24.748,72.288 25.225,71.436      "/>
       <polygon fill="#333333" id="svg_2304" points="22.979,70.931 22.844,71.896 23.321,71.045      "/>
       <path d="m21.2,71.28l-0.26,0.48l0.05,-0.36c0.07,-0.04 0.14,-0.08 0.21,-0.12z" fill="#333333" id="svg_2305"/>
       <polygon fill="#333333" id="svg_2306" points="19.613,84.975 19.365,85.049 19.387,84.898      "/>
       <polygon fill="#333333" id="svg_2307" points="19.221,73.614 19.085,74.581 19.56,73.728      "/>
       <polygon fill="#333333" id="svg_2308" points="21.34,73.614 21.202,74.581 21.678,73.728      "/>
       <polygon fill="#333333" id="svg_2309" points="23.243,73.614 23.106,74.581 23.583,73.728      "/>
       <polygon fill="#333333" id="svg_2310" points="25.146,73.614 25.011,74.581 25.487,73.728      "/>
       <polygon fill="#333333" id="svg_2311" points="27.098,71.825 26.962,72.793 27.438,71.939      "/>
       <polygon fill="#333333" id="svg_2312" points="19.435,76.757 19.299,77.725 19.775,76.872      "/>
      </g>
      <g id="svg_2313">
       <polygon fill="#333333" id="svg_2314" points="38.286,76.757 38.421,77.725 37.947,76.872      "/>
       <polygon fill="#333333" id="svg_2315" points="36.382,76.757 36.519,77.725 36.042,76.872      "/>
       <polygon fill="#333333" id="svg_2316" points="34.477,76.757 34.615,77.725 34.138,76.872      "/>
       <polygon fill="#333333" id="svg_2317" points="34.955,71.32 35.091,72.288 34.615,71.436      "/>
       <polygon fill="#333333" id="svg_2318" points="36.858,70.931 36.995,71.896 36.519,71.045      "/>
       <path d="m38.63,71.28l0.27,0.48l-0.05,-0.36c-0.07,-0.04 -0.14,-0.08 -0.22,-0.12z" fill="#333333" id="svg_2319"/>
       <polygon fill="#333333" id="svg_2320" points="40.618,73.614 40.756,74.581 40.277,73.728      "/>
       <polygon fill="#333333" id="svg_2321" points="38.5,73.614 38.637,74.581 38.159,73.728      "/>
       <polygon fill="#333333" id="svg_2322" points="36.596,73.614 36.732,74.581 36.255,73.728      "/>
       <polygon fill="#333333" id="svg_2323" points="34.692,73.614 34.83,74.581 34.353,73.728      "/>
       <polygon fill="#333333" id="svg_2324" points="32.741,71.825 32.878,72.793 32.4,71.939      "/>
       <polygon fill="#333333" id="svg_2325" points="40.403,76.757 40.54,77.725 40.064,76.872      "/>
      </g>
     </g>
     <path d="m41.12,73.04l-0.09,-0.29c0,0 -0.94,-0.54 -2.16,-1.24l-0.02,-0.11c-0.07,-0.04 -0.14,-0.08 -0.22,-0.12l0.09,0.15c-1.35,-0.77 -2.99,-1.7 -4.07,-2.31c-0.29,-0.17 -0.55,-0.32 -0.74,-0.43l0.16,-2.09l-0.04,-0.54l-0.04,-0.49l0,-0.04l-0.22,-3.04c0.02,-0.01 0.04,-0.01 0.07,-0.02l0,-1.2c0,0 -0.07,-0.03 -0.19,-0.09c-0.27,-0.14 -0.83,-0.41 -1.45,-0.71c-0.21,-0.1 -0.44,-0.21 -0.66,-0.32c-0.23,-0.11 -0.45,-0.23 -0.67,-0.33c-0.55,-0.27 -0.99,-0.5 -1.13,-0.57l0,22.72l4.22,-1.27l0.04,0.14l2.42,-0.88l0.19,-0.05l4.51,-1.36l0,-5.51z" fill="#616161" id="svg_2326" opacity="0.2"/>
    </g>
    <g id="svg_2327">
     <g id="svg_2328">
      <g id="svg_2329">
       <path d="m18.36,93.17l0.08,0.29c0,0 5.33,3.04 7.04,4c0.31,0.18 0.51,0.29 0.51,0.29l7.59,0c0,0 0.02,-0.01 0.04,-0.02c0.01,-0.01 0.03,-0.02 0.05,-0.03c0.02,-0.01 0.05,-0.02 0.07,-0.04c0.03,-0.01 0.05,-0.02 0.07,-0.04c0.03,-0.02 0.06,-0.03 0.09,-0.05c0.05,-0.02 0.09,-0.05 0.15,-0.08c0.1,-0.06 0.22,-0.13 0.35,-0.2c0,0 0,0 0,0c0.1,-0.06 0.21,-0.12 0.31,-0.18c0.04,-0.02 0.08,-0.04 0.12,-0.06c0.25,-0.15 0.53,-0.31 0.83,-0.48c0.11,-0.06 0.22,-0.12 0.33,-0.18c0.11,-0.07 0.22,-0.13 0.33,-0.19c0.12,-0.07 0.23,-0.14 0.35,-0.2c1.5,-0.86 3.16,-1.81 3.97,-2.26c0.04,-0.03 0.09,-0.05 0.13,-0.08c0.19,-0.11 0.31,-0.18 0.35,-0.2l0,-12.65l-4.97,1.5l-1.12,0.33l-16.67,5.01l0,5.52z" fill="#D66142" id="svg_2330"/>
       <g id="svg_2331">
        <g id="svg_2332">
         <g id="svg_2333">
          <polygon fill="#616161" id="svg_2334" opacity="0.2" points="29.732,85.666 31.995,88.967 29.72,91.517 27.429,88.883         "/>
          <polygon fill="#FFD675" id="svg_2335" points="29.727,86.419 31.744,88.964 29.727,91.509 27.712,88.964         "/>
          <polygon fill="#616161" id="svg_2336" opacity="0.2" points="30.863,88.964 29.727,90.399 28.59,88.964 29.727,87.53         "/>
          <g id="svg_2337">
           <path d="m29.73,91.2l2.08,3.6l-4.16,0l2.08,-3.6zm1.68,3.37l-1.68,-2.91l-1.68,2.91l3.36,0z" fill="#FFD675" id="svg_2338"/>
          </g>
         </g>
         <path d="m32.52,97.75c0.04,-0.01 7.55,-4.29 7.55,-4.29l1.05,-3.25l0,-9.39l-4.96,1.49l-1.13,0.33l-2.97,9.74l-0.4,1.31l-0.58,1.24l-1.29,2.77l0,0.05l2.73,0z" fill="#616161" id="svg_2339" opacity="0.2"/>
         <path d="m33.58,97.75c0,0 0.02,-0.01 0.04,-0.02c0.01,-0.01 0.03,-0.02 0.05,-0.03c0.02,-0.01 0.05,-0.02 0.07,-0.04c0.02,-0.01 0.05,-0.03 0.07,-0.04c0.03,-0.02 0.06,-0.03 0.09,-0.05c0.05,-0.02 0.09,-0.05 0.15,-0.08c0.1,-0.06 0.22,-0.13 0.35,-0.2c0,0 0,0 0,0c0.1,-0.06 0.21,-0.12 0.31,-0.18c0.04,-0.02 0.08,-0.04 0.12,-0.07c0.25,-0.14 0.53,-0.3 0.83,-0.47c0.11,-0.06 0.22,-0.12 0.33,-0.19c0.11,-0.06 0.22,-0.12 0.33,-0.18c0.12,-0.07 0.23,-0.14 0.35,-0.2c0.48,-0.28 0.98,-0.56 1.47,-0.84c0.14,-0.08 0.29,-0.16 0.43,-0.24c0.84,-0.49 1.6,-0.92 2.07,-1.18c0.04,-0.03 0.09,-0.06 0.13,-0.08c0.19,-0.11 0.31,-0.18 0.35,-0.2l0,-12.65l-0.89,0.27l-0.49,0.15l-3.53,1.06l-0.06,0.02c-0.16,0.39 -0.34,0.8 -0.52,1.23c-1.19,2.86 -2.64,6.48 -3.57,8.84c-0.59,1.47 -0.97,2.45 -0.97,2.45l-0.01,0.1l-0.25,2.82l2.75,0z" fill="#EBEBEB" id="svg_2340"/>
        </g>
        <g id="svg_2341">
         <g id="svg_2342">
          <path d="m18.36,89.63l1.15,3.83c0,0 7.51,4.28 7.55,4.29l2.73,0l0,-0.05l-1.88,-4.01l-2.43,-8.33l-7.12,2.58l0,1.69z" fill="#616161" id="svg_2343" opacity="0.2"/>
          <path d="m18.36,93.17l0.08,0.29c0,0 7.51,4.28 7.55,4.29l2.76,0l-0.27,-2.92c0,0 -3.23,-6.72 -4.39,-8.9l-5.73,1.72l0,5.52z" fill="#EBEBEB" id="svg_2344"/>
         </g>
        </g>
       </g>
       <g id="svg_2345">
        <path d="m25.48,97.46l0.16,-2.07l4.12,-2.94l0,0l0,0l0.01,0l0,0l4.12,2.94l0.16,2.1c-0.29,0.16 -0.46,0.26 -0.47,0.26l-0.61,0c-0.38,-0.57 -0.7,-1.06 -0.7,-1.06l-1.5,1.06l-0.23,0.16l-0.78,-0.03l-0.78,0.03l-0.23,-0.16l-1.5,-1.06c0,0 -0.32,0.49 -0.69,1.06l-0.57,0c0,0 -0.19,-0.11 -0.51,-0.29z" fill="#616161" id="svg_2346" opacity="0.4"/>
        <polygon fill="#EBBE9F" id="svg_2347" points="25.404,99.608 25.482,100.634 25.484,100.672 25.718,103.815 26.886,104.405         29.138,105.545 29.761,105.21 30.386,105.545 32.64,104.405 33.806,103.815 34.042,100.672 34.043,100.634 34.122,99.608         33.886,96.62 29.769,93.679 29.769,93.671 29.768,93.671 29.761,93.674 29.757,93.671 29.757,93.671 29.757,93.679         25.639,96.62       "/>
        <path d="m25.4,99.61l0.08,1.06c0.36,-0.63 1.77,-2.75 1.77,-2.75l1.73,1.22l0.78,-0.03l0.78,0.03l1.73,-1.22c0,0 1.41,2.12 1.77,2.75l0.08,-1.06l-0.23,-2.99l-4.12,-2.94l0,-0.01l-0.01,0l0,0l0,0.01l-4.12,2.94l-0.24,2.99z" fill="#9C9C9C" id="svg_2348"/>
        <path d="m29.76,97.75l-1.38,0.05l1.03,0.65c0,0 0.17,0 0.35,0l0,0c0,0 0,0 0,0c0.01,0 0.01,0 0.01,0l0,0c0.18,0 0.35,0 0.35,0l1.03,-0.65l-1.38,-0.05l0,0l-0.01,0l0,0l0,0z" fill="#EBBE9F" id="svg_2349"/>
        <polygon fill="#616161" id="svg_2350" opacity="0.2" points="28.924,99.726 29.487,101.691 29.757,101.691 29.768,101.691         30.037,101.691 30.604,99.726 30.037,99.119 29.768,99.109 29.768,99.108 29.761,99.109 29.757,99.108 29.757,99.109         29.487,99.119       "/>
        <g id="svg_2351">
         <polygon fill="#9C9C9C" id="svg_2352" points="29.166,102.217 27.389,102.44 27.351,102.446 27.331,102.435 26.485,101.986          27.407,102.245 27.35,102.24 29.073,101.755        "/>
         <path d="m28.54,101.48c0.03,-0.07 0.05,-0.14 0.05,-0.21c0,-0.28 -0.23,-0.5 -0.5,-0.5c-0.28,0 -0.5,0.22 -0.5,0.5c0,0.07 0.01,0.14 0.04,0.21l0.91,0z" fill="#333333" id="svg_2353"/>
         <polygon fill="#9C9C9C" id="svg_2354" points="30.358,102.217 32.134,102.44 32.174,102.446 32.194,102.435 33.041,101.986          32.117,102.245 32.175,102.24 30.452,101.755        "/>
         <path d="m30.98,101.48c-0.03,-0.07 -0.04,-0.14 -0.04,-0.21c0,-0.28 0.22,-0.5 0.5,-0.5c0.27,0 0.5,0.22 0.5,0.5c0,0.07 -0.02,0.14 -0.05,0.21l-0.91,0z" fill="#333333" id="svg_2355"/>
         <path d="m25.48,100.63c0.03,-0.02 0.05,-0.03 0.05,-0.03l0.82,2.9l0.54,0.9l-1.17,-0.59l-0.24,-3.14l0,-0.04z" fill="#9C9C9C" id="svg_2356"/>
         <path d="m34.04,100.63c-0.02,-0.02 -0.04,-0.03 -0.04,-0.03l-0.82,2.9l-0.54,0.9l1.17,-0.59l0.23,-3.14l0,-0.04z" fill="#9C9C9C" id="svg_2357"/>
        </g>
        <path d="m25.64,104.94l0,-1.21c1.04,-0.28 2.21,-0.4 3.33,-0.43c0.74,-0.02 1.46,0 2.12,0.03c0.32,0.02 0.63,0.05 0.91,0.07c0.34,0.03 0.65,0.06 0.91,0.09c0.63,0.08 1.01,0.15 1.01,0.15l0,1.14c0,0 -4.12,2.2 -4.14,2.2c0,-0.01 -0.51,-0.27 -1.18,-0.59c-0.21,-0.11 -0.44,-0.22 -0.67,-0.33c-0.22,-0.11 -0.44,-0.22 -0.66,-0.33c-0.61,-0.3 -1.17,-0.57 -1.45,-0.7c-0.11,-0.06 -0.18,-0.09 -0.18,-0.09z" fill="#FFD675" id="svg_2358"/>
        <g id="svg_2359">
         <path d="m27.93,106.06l4.07,-2.66c0.34,0.03 0.65,0.06 0.91,0.09l-4.31,2.9c-0.21,-0.11 -0.44,-0.22 -0.67,-0.33z" fill="#FFFFFF" id="svg_2360" opacity="0.2"/>
         <path d="m25.82,105.03l3.15,-1.73c0.74,-0.02 1.46,0 2.12,0.03l-3.82,2.4c-0.61,-0.3 -1.17,-0.57 -1.45,-0.7z" fill="#FFFFFF" id="svg_2361" opacity="0.2"/>
        </g>
        <polygon fill="#D66142" id="svg_2362" points="29.057,105.692 29.727,104.799 29.727,104.798 29.761,104.739 30.474,105.669         29.727,106.662       "/>
        <polygon fill="#FFFFFF" id="svg_2363" opacity="0.2" points="29.727,104.799 29.571,105.584 29.727,106.662 29.057,105.692       "/>
       </g>
      </g>
      <g id="svg_2364">
       <polygon fill="#333333" id="svg_2365" points="37.923,89.448 38.06,88.48 37.583,89.334      "/>
       <polygon fill="#333333" id="svg_2366" points="36.019,89.448 36.156,88.48 35.681,89.334      "/>
       <polygon fill="#333333" id="svg_2367" points="34.115,89.448 34.253,88.48 33.777,89.334      "/>
       <polygon fill="#333333" id="svg_2368" points="40.304,86.331 40.44,85.363 39.965,86.215      "/>
       <polygon fill="#333333" id="svg_2369" points="38.399,86.331 38.536,85.363 38.06,86.215      "/>
       <polygon fill="#333333" id="svg_2370" points="36.496,86.331 36.633,85.363 36.156,86.215      "/>
       <polygon fill="#333333" id="svg_2371" points="39.722,83.188 39.859,82.223 39.382,83.074      "/>
       <polygon fill="#333333" id="svg_2372" points="37.816,83.188 37.954,82.223 37.478,83.074      "/>
       <path d="m35.78,83.26c0.09,-0.21 0.18,-0.42 0.26,-0.62l0.03,-0.01l-0.1,0.7l-0.19,-0.07z" fill="#333333" id="svg_2373"/>
       <polygon fill="#333333" id="svg_2374" points="34.592,94.884 34.73,93.917 34.253,94.769      "/>
       <polygon fill="#333333" id="svg_2375" points="36.496,95.274 36.633,94.307 36.156,95.161      "/>
       <path d="m38.27,94.92l0.27,-0.47l-0.05,0.35c-0.07,0.04 -0.15,0.08 -0.22,0.12z" fill="#333333" id="svg_2376"/>
       <polygon fill="#333333" id="svg_2377" points="39.863,81.231 40.111,81.157 40.09,81.307      "/>
       <polygon fill="#333333" id="svg_2378" points="40.255,92.59 40.393,91.623 39.916,92.477      "/>
       <polygon fill="#333333" id="svg_2379" points="38.138,92.59 38.274,91.623 37.798,92.477      "/>
       <polygon fill="#333333" id="svg_2380" points="36.233,92.59 36.371,91.623 35.893,92.477      "/>
       <polygon fill="#333333" id="svg_2381" points="34.329,92.59 34.467,91.623 33.99,92.477      "/>
       <polygon fill="#333333" id="svg_2382" points="32.378,94.38 32.515,93.413 32.038,94.265      "/>
       <polygon fill="#333333" id="svg_2383" points="40.041,89.448 40.179,88.48 39.701,89.334      "/>
      </g>
      <g id="svg_2384">
       <polygon fill="#333333" id="svg_2385" points="21.192,89.448 21.054,88.48 21.531,89.334      "/>
       <polygon fill="#333333" id="svg_2386" points="23.094,89.448 22.958,88.48 23.435,89.334      "/>
       <polygon fill="#333333" id="svg_2387" points="24.998,89.448 24.862,88.48 25.339,89.334      "/>
       <polygon fill="#333333" id="svg_2388" points="24.523,94.884 24.385,93.917 24.862,94.769      "/>
       <polygon fill="#333333" id="svg_2389" points="22.618,95.274 22.481,94.307 22.958,95.161      "/>
       <path d="m20.84,94.92l-0.26,-0.47l0.05,0.35c0.07,0.04 0.14,0.08 0.21,0.12z" fill="#333333" id="svg_2390"/>
       <polygon fill="#333333" id="svg_2391" points="18.858,92.59 18.721,91.623 19.198,92.477      "/>
       <polygon fill="#333333" id="svg_2392" points="20.977,92.59 20.84,91.623 21.317,92.477      "/>
       <polygon fill="#333333" id="svg_2393" points="22.881,92.59 22.743,91.623 23.221,92.477      "/>
       <polygon fill="#333333" id="svg_2394" points="24.785,92.59 24.648,91.623 25.124,92.477      "/>
       <polygon fill="#333333" id="svg_2395" points="26.738,94.38 26.599,93.413 27.077,94.265      "/>
       <polygon fill="#333333" id="svg_2396" points="19.072,89.448 18.936,88.48 19.413,89.334      "/>
      </g>
     </g>
     <path d="m18.36,93.17l0.08,0.29c0,0 0.95,0.54 2.17,1.23l0.02,0.11c0.07,0.04 0.14,0.08 0.21,0.12l-0.08,-0.14c1.35,0.76 2.98,1.7 4.06,2.31c0.3,0.17 0.55,0.31 0.75,0.42l-0.17,2.1l0.04,0.54l0.04,0.48l0,0.04l0.23,3.05c-0.02,0 -0.05,0.01 -0.07,0.01l0,1.21c0,0 0.07,0.03 0.18,0.09c0.28,0.13 0.84,0.4 1.45,0.7c0.22,0.11 0.44,0.22 0.66,0.32c0.23,0.12 0.46,0.23 0.67,0.33c0.55,0.28 1,0.5 1.14,0.57l0,-22.72l-4.22,1.27l-0.04,-0.14l-2.43,0.88l-0.19,0.06l-4.51,1.35l0,5.52l0.01,0z" fill="#616161" id="svg_2397" opacity="0.2"/>
    </g>
   </g>
  </g>
 </g>

</svg>