<?xml version="1.0"?>
<svg width="40" height="56" xmlns="http://www.w3.org/2000/svg" xmlns:svg="http://www.w3.org/2000/svg" enable-background="new 0 0 450 450" version="1.1" xml:space="preserve">
 <g class="layer">
  <title>Layer 1</title>
  <g id="svg_1" transform="translate(-18.7576) translate(9.35133, -121.147)">
   <g id="svg_2">
    <path d="m13.93,176.98c-2.35,0.01 -4.27,-1.87 -4.28,-4.19l-0.11,-47.29c-0.01,-2.33 1.91,-4.22 4.27,-4.22l31.25,0.06c2.35,0 4.27,1.9 4.27,4.22l0,47.2c0,2.3 -1.91,4.18 -4.25,4.19l-31.15,0.03z" fill="#C9C9C9" id="svg_3"/>
    <path d="m14.36,176.86c-2.32,0 -4.21,-1.89 -4.21,-4.2l0,-47.19c0,-2.31 1.89,-4.19 4.21,-4.19l30.8,0c2.32,0 4.21,1.88 4.21,4.19l0,47.19c0,2.31 -1.89,4.2 -4.21,4.2l-30.8,0z" fill="#FFFFFF" id="svg_4"/>
    <g id="svg_5">
     <path d="m45.12,175.98l-30.81,0c-1.79,0 -3.26,-1.46 -3.26,-3.25l0,-47.19c0,-1.72 1.37,-3.12 2.1,-3.39l0.11,-0.04l30.97,0c3.06,0.24 4.15,1.93 4.15,3.44l0,47.18c0,1.79 -1.46,3.25 -3.26,3.25zm-31.6,-52.58c-0.33,0.21 -1.18,1.07 -1.18,2.14l0,47.19c0,1.08 0.89,1.96 1.97,1.96l30.81,0c1.08,0 1.97,-0.88 1.97,-1.96l0,-47.19c0,-1.19 -1.1,-1.99 -2.94,-2.14l-30.63,0z" fill="#D66142" id="svg_6"/>
    </g>
    <g id="svg_7">
     <polygon fill="#D66142" id="svg_8" points="15.458,135.934 13.442,133.389 15.458,130.845 17.474,133.389    "/>
     <polygon fill="#616161" id="svg_9" opacity="0.2" points="15.458,130.845 15.394,130.927 15.394,135.852 15.458,135.934      17.474,133.389    "/>
    </g>
    <g id="svg_10">
     <path d="m17.1,127.12c0,0.21 -0.05,0.45 -0.15,0.7c-0.11,0.26 -0.23,0.46 -0.37,0.61c-0.05,0.06 -0.15,0.14 -0.28,0.26c-0.2,0.15 -0.4,0.3 -0.61,0.42c-0.06,0.04 -0.11,0.06 -0.14,0.08c-0.09,0.06 -0.14,0.11 -0.14,0.13c0,0.05 0.15,0.13 0.44,0.25c0.26,0.1 0.45,0.17 0.58,0.2c0.02,0 0.05,0.01 0.09,0.01l0.11,0c0.03,0 0.06,0 0.1,0c0.03,0 0.07,0 0.1,0.01c-0.02,0.03 -0.07,0.06 -0.14,0.09c-0.07,0.04 -0.14,0.07 -0.22,0.1c-0.1,0.09 -0.18,0.16 -0.23,0.21c-0.06,0.04 -0.1,0.07 -0.13,0.07c-0.1,0 -0.25,-0.11 -0.47,-0.31c-0.21,-0.21 -0.42,-0.32 -0.61,-0.32c-0.12,0 -0.24,0.05 -0.36,0.14c-0.11,0.09 -0.18,0.14 -0.21,0.14c-0.05,0 -0.07,-0.03 -0.07,-0.1c0,-0.04 0.07,-0.12 0.2,-0.23c0.09,-0.06 0.18,-0.13 0.27,-0.2c-0.22,-0.13 -0.44,-0.26 -0.64,-0.41c-0.21,-0.14 -0.39,-0.31 -0.55,-0.52c-0.13,-0.18 -0.24,-0.38 -0.31,-0.58c-0.08,-0.21 -0.11,-0.42 -0.11,-0.64c0,-0.33 0.06,-0.6 0.19,-0.81c0.05,-0.08 0.21,-0.25 0.47,-0.51c0.08,-0.08 0.28,-0.26 0.61,-0.53c0.41,-0.33 0.66,-0.5 0.74,-0.5c0.07,0 0.21,0.07 0.41,0.22c0.24,0.17 0.53,0.41 0.85,0.74c0.2,0.2 0.35,0.41 0.44,0.6c0.1,0.2 0.14,0.43 0.14,0.68zm-1.03,0.58c0,-0.19 -0.04,-0.4 -0.12,-0.62c-0.08,-0.23 -0.19,-0.44 -0.33,-0.64c-0.11,-0.16 -0.31,-0.35 -0.61,-0.57c-0.1,-0.07 -0.24,-0.16 -0.41,-0.28c-0.07,0 -0.16,0.12 -0.26,0.36c-0.11,0.25 -0.16,0.4 -0.16,0.48c0,0.33 0.07,0.64 0.21,0.92c0.12,0.24 0.31,0.49 0.55,0.75c0.1,0.1 0.35,0.34 0.75,0.69c0.13,-0.12 0.23,-0.32 0.3,-0.58c0.05,-0.19 0.08,-0.36 0.08,-0.51z" fill="#333333" id="svg_11"/>
    </g>
    <g id="svg_12">
     <polygon fill="#D66142" id="svg_13" points="44.131,162.851 46.147,165.396 44.131,167.94 42.117,165.396    "/>
     <polygon fill="#616161" id="svg_14" opacity="0.2" points="44.131,167.94 44.197,167.859 44.197,162.933 44.131,162.851 42.117,165.396         "/>
    </g>
    <g id="svg_15">
     <path d="m42.49,171.66c0,-0.21 0.05,-0.44 0.15,-0.7c0.11,-0.25 0.23,-0.46 0.37,-0.61c0.06,-0.06 0.15,-0.14 0.28,-0.25c0.2,-0.16 0.4,-0.3 0.61,-0.43c0.07,-0.03 0.11,-0.06 0.14,-0.07c0.09,-0.07 0.14,-0.11 0.14,-0.13c0,-0.05 -0.15,-0.13 -0.43,-0.25c-0.27,-0.11 -0.46,-0.18 -0.59,-0.2c-0.02,-0.01 -0.05,-0.01 -0.09,-0.01l-0.11,0c-0.03,0 -0.06,0 -0.1,0c-0.03,0 -0.07,-0.01 -0.1,-0.02c0.02,-0.02 0.07,-0.05 0.14,-0.09c0.07,-0.03 0.14,-0.07 0.22,-0.1c0.1,-0.09 0.18,-0.16 0.23,-0.2c0.06,-0.05 0.1,-0.07 0.13,-0.07c0.1,0 0.25,0.1 0.47,0.31c0.21,0.21 0.42,0.31 0.61,0.31c0.13,0 0.25,-0.05 0.36,-0.14c0.12,-0.09 0.19,-0.13 0.21,-0.13c0.05,0 0.07,0.03 0.07,0.1c0,0.04 -0.06,0.12 -0.2,0.22c-0.09,0.07 -0.18,0.14 -0.27,0.2c0.22,0.13 0.44,0.27 0.64,0.41c0.21,0.14 0.39,0.32 0.55,0.53c0.14,0.18 0.24,0.37 0.32,0.58c0.07,0.2 0.11,0.42 0.11,0.64c0,0.33 -0.07,0.6 -0.2,0.81c-0.05,0.07 -0.2,0.24 -0.46,0.51c-0.08,0.08 -0.29,0.26 -0.62,0.52c-0.41,0.34 -0.66,0.5 -0.74,0.5c-0.07,0 -0.21,-0.07 -0.41,-0.21c-0.24,-0.17 -0.52,-0.42 -0.84,-0.74c-0.21,-0.21 -0.36,-0.41 -0.45,-0.61c-0.09,-0.2 -0.14,-0.43 -0.14,-0.68zm1.03,-0.57c0,0.19 0.04,0.39 0.12,0.62c0.08,0.23 0.19,0.44 0.33,0.64c0.11,0.16 0.32,0.35 0.61,0.56c0.1,0.08 0.24,0.17 0.42,0.29c0.07,0 0.15,-0.13 0.26,-0.37c0.1,-0.24 0.15,-0.4 0.15,-0.47c0,-0.33 -0.07,-0.64 -0.21,-0.93c-0.12,-0.24 -0.3,-0.48 -0.55,-0.74c-0.1,-0.11 -0.35,-0.34 -0.74,-0.7c-0.14,0.13 -0.24,0.32 -0.31,0.58c-0.05,0.2 -0.08,0.37 -0.08,0.52z" fill="#333333" id="svg_16"/>
    </g>
   </g>
   <g id="svg_17">
    <g id="svg_18">
     <g id="svg_19">
      <g id="svg_20">
       <polygon fill="#C9C9C9" id="svg_21" points="35.712,137.043 35.652,137.883 35.613,138.395 35.458,140.587 35.418,141.102        35.371,141.802 35.371,141.806 35.323,142.451 34.823,142.462 34.586,142.466 34.097,142.478 33.818,142.483 33.48,142.49        32.882,142.502 32.218,142.517 29.098,142.583 29.092,142.583 25.972,142.517 25.308,142.502 24.709,142.49 24.372,142.483        24.093,142.478 23.848,142.473 23.602,142.466 23.366,142.462 22.867,142.451 22.819,141.806 22.819,141.802 22.771,141.102        22.732,140.587 22.576,138.395 22.538,137.883 22.478,137.043      "/>
       <path d="m35.11,137.04c-0.99,1.4 -2.38,2.82 -3.92,2.82l-0.01,0c-0.34,0.43 -0.73,0.75 -1.17,0.94c-0.27,0.12 -0.56,0.18 -0.86,0.18c-0.01,0 -0.04,0 -0.05,-0.01c-0.01,0 -0.01,0 -0.01,0l0,-3.93l6.02,0z" fill="#616161" id="svg_22" opacity="0.2"/>
       <g id="svg_23">
        <path d="m37.82,145.68l-2.51,0.74l-0.23,0.08l-0.07,0.02c-0.2,-0.33 -0.36,-0.58 -0.43,-0.68c-0.02,-0.04 -0.04,-0.06 -0.04,-0.06c-0.23,0.35 -0.35,0.69 -0.42,1l-0.67,0.2l-4.35,1.3l-2.72,0.81l-0.91,0.27c-0.03,-0.1 -0.07,-0.22 -0.11,-0.34c-1.63,-0.69 -0.81,-1.82 -1.71,-3.24c-0.09,0.11 -1.87,2.82 -2.17,4.77l-0.22,0.07l-1.76,0.53l-0.04,0c-0.03,-3.87 1.14,-6.45 2.23,-8c0.07,-0.11 0.15,-0.21 0.22,-0.31c0.08,-0.1 0.15,-0.19 0.21,-0.27l0.01,-0.01c0,0 0,0 0,0c0.05,-0.06 0.11,-0.13 0.16,-0.19c0.05,-0.06 0.11,-0.12 0.16,-0.18c0.13,-0.15 0.25,-0.27 0.37,-0.39l0,0l0,0c0.03,-0.02 0.06,-0.05 0.08,-0.08c0.03,-0.03 0.06,-0.05 0.08,-0.07c0.03,-0.03 0.06,-0.05 0.08,-0.07c0.05,-0.05 0.09,-0.09 0.13,-0.12c0.18,-0.15 0.28,-0.22 0.28,-0.22l0.41,0.1l0.07,0.02l0.16,0.04l0.05,0.01l0.57,-0.02l0.87,-0.04l3.49,-0.14l0.01,0l3.48,0.14l0.88,0.04l0.57,0.02l0.04,-0.01l0.16,-0.04l0.08,-0.02l0.4,-0.1c0,0 0.11,0.07 0.28,0.22c0.04,0.03 0.09,0.07 0.13,0.12c0.03,0.02 0.06,0.04 0.08,0.07c0.03,0.02 0.05,0.04 0.08,0.07c0.03,0.03 0.05,0.06 0.08,0.08l0.01,0c0.02,0.03 0.05,0.05 0.08,0.09c0.03,0.03 0.06,0.06 0.09,0.09c0.07,0.07 0.13,0.14 0.2,0.21c0.04,0.05 0.09,0.1 0.13,0.15c0.01,0.01 0.01,0.02 0.02,0.03c0.06,0.06 0.11,0.13 0.17,0.19c0,0 0,0 0,0l0,0.01c0.07,0.08 0.14,0.17 0.21,0.27c0.08,0.1 0.15,0.2 0.23,0.31c0.46,0.65 0.93,1.49 1.32,2.53z" fill="#D66142" id="svg_24"/>
        <path d="m29.09,144.04l0.58,0l-0.26,2.07c-0.1,0 -0.21,0.01 -0.32,0.01l0,-2.08z" fill="#616161" id="svg_25" opacity="0.2"/>
       </g>
       <g id="svg_26">
        <g id="svg_27">
         <path d="m29.1,137.04l-6.02,0c0.99,1.4 2.38,2.82 3.92,2.82l0.01,0c0.55,0.7 1.25,1.12 2.02,1.12c0.03,0 0.05,0 0.07,0l0,-3.94z" fill="#616161" id="svg_28" opacity="0.2"/>
         <path d="m29.1,144.04l-0.58,0l0.26,2.07c0.11,0 0.21,0.01 0.32,0.01l0,-2.08z" fill="#616161" id="svg_29" opacity="0.2"/>
        </g>
        <path d="m27,145.78c-2.91,-0.64 -4.49,-1.63 -5.31,-2.63c0.6,-0.87 1.18,-1.41 1.5,-1.69l3.81,4.32z" fill="#616161" id="svg_30" opacity="0.2"/>
        <g id="svg_31">
         <path d="m29.1,140.12c-0.02,0 -0.05,0 -0.06,0c-0.29,0 -0.57,-0.06 -0.84,-0.16c-0.01,0.06 -0.02,0.13 -0.02,0.21l0,0.37c0.27,0.12 0.56,0.18 0.86,0.18c0.02,0 0.04,0 0.06,0l0,-0.6z" fill="#FDD8AB" id="svg_32"/>
         <path d="m29.1,139.28c-0.01,0 -0.02,0 -0.03,0c-0.42,0 -0.77,0.29 -0.86,0.68c0.26,0.11 0.54,0.16 0.83,0.16c0.02,0 0.04,0 0.06,0l0,-0.84z" fill="#FDD8AB" id="svg_33"/>
        </g>
        <path d="m34.2,141.14l-1.54,-0.02l-2.65,-0.04l0,-0.54c-0.27,0.12 -0.56,0.18 -0.85,0.18c-0.02,0 -0.04,0 -0.06,0l0,0c0,0 0,0 -0.01,0l0,0l0,0c-0.02,0 -0.04,0 -0.05,0c-0.3,0 -0.59,-0.06 -0.86,-0.18l0,0.54l-2.65,0.04l-1.54,0.02c-0.28,0.47 -0.16,0.52 -0.16,1.06c0,1.35 0.94,2.54 2.35,3.24c0.01,0.01 0.01,0.01 0.02,0.01c0.25,0.13 0.52,0.24 0.8,0.33c0.55,0.18 1.15,0.29 1.78,0.33c0.03,0 0.07,0 0.1,0c0.07,0.01 0.14,0.01 0.21,0.01l0,0l0.01,0c0,0 0,0 0,0l0,0c0.07,0 0.14,0 0.21,-0.01c0.03,0 0.07,0 0.1,0c0.63,-0.04 1.23,-0.15 1.78,-0.33c0.28,-0.09 0.55,-0.2 0.8,-0.33c0.01,0 0.01,0 0.02,-0.01c1.42,-0.7 2.35,-1.89 2.35,-3.24c0,-0.54 0.12,-0.59 -0.16,-1.06z" fill="#FDD8AB" id="svg_34"/>
        <path d="m29.09,140.12c0.02,0 0.04,0 0.07,0c0.28,0 0.56,-0.06 0.82,-0.16c0.02,0.06 0.03,0.13 0.03,0.21l0,0.37c-0.27,0.12 -0.56,0.18 -0.86,0.18c-0.02,0 -0.04,0 -0.06,0l0,-0.6z" fill="#FDD8AB" id="svg_35"/>
        <path d="m29.09,139.28c0.01,0 0.02,0 0.03,0c0.42,0 0.77,0.29 0.86,0.68c-0.26,0.11 -0.54,0.16 -0.82,0.16c-0.03,0 -0.05,0 -0.07,0l0,-0.84z" fill="#FDD8AB" id="svg_36"/>
       </g>
       <path d="m36.5,143.15c-0.82,1 -2.4,1.98 -5.31,2.63l1.58,-1.79l0.09,-0.11l1.24,-1.4l0.26,-0.3l0.63,-0.72c0.05,0.03 0.09,0.07 0.14,0.12c0.02,0.02 0.05,0.04 0.07,0.07c0.03,0.02 0.06,0.04 0.08,0.07c0.03,0.03 0.06,0.05 0.09,0.08l0,0l0,0.01c0.03,0.02 0.06,0.05 0.08,0.08c0.04,0.03 0.07,0.06 0.1,0.09c0.06,0.07 0.13,0.14 0.19,0.21c0.05,0.05 0.09,0.1 0.13,0.15c0.01,0.01 0.02,0.02 0.03,0.03c0.05,0.06 0.11,0.12 0.16,0.19c0,0 0,0 0,0.01l0.01,0l0,0c0.06,0.08 0.13,0.18 0.21,0.27c0.07,0.1 0.15,0.2 0.22,0.31z" fill="#616161" id="svg_37" opacity="0.2"/>
       <path d="m36.88,140.14c0,0.18 -0.01,0.36 -0.04,0.55c-0.09,0.6 -0.32,1.23 -0.78,1.87l0,0.01c-0.43,0.61 -1.08,1.22 -2,1.81c-0.05,0.03 -0.11,0.07 -0.17,0.11c-0.53,0.32 -1.16,0.65 -1.88,0.95c-0.02,0.01 -0.03,0.02 -0.05,0.03c-0.01,0 -0.02,0.01 -0.03,0.01c-0.05,0.02 -0.09,0.04 -0.13,0.05c-0.13,0.06 -0.27,0.11 -0.41,0.17c-0.06,0.02 -0.13,0.05 -0.2,0.08l1.69,-3.28l0.58,-1.11l0.13,-0.26l2.12,-4.09c0,0 1.17,1.34 1.17,3.1z" fill="#EBEBEB" id="svg_38"/>
       <path d="m27,145.78c-1.08,-0.41 -1.97,-0.85 -2.7,-1.29c-0.06,-0.04 -0.12,-0.08 -0.17,-0.11c-1.89,-1.21 -2.62,-2.52 -2.78,-3.69c-0.03,-0.19 -0.04,-0.37 -0.04,-0.55c0,-1.76 1.17,-3.1 1.17,-3.1l4.52,8.74z" fill="#EBEBEB" id="svg_39"/>
       <path d="m26.38,149.09l-0.91,0.27c-0.03,-0.1 -0.07,-0.22 -0.11,-0.34c-1.63,-0.69 -0.81,-1.82 -1.71,-3.24c-0.1,0.11 -1.87,2.82 -2.17,4.77l-0.22,0.07c-0.47,-2.04 2.62,-5.46 2.62,-5.46s1.38,3.41 2.5,3.93z" fill="#616161" id="svg_40" opacity="0.2"/>
       <path d="m35.31,146.42l-0.23,0.08l-0.07,0.02c-0.2,-0.33 -0.36,-0.58 -0.43,-0.68c-0.02,-0.04 -0.04,-0.06 -0.04,-0.07c-0.23,0.36 -0.35,0.7 -0.42,1.01l-0.67,0.2c0.5,-0.94 0.86,-1.82 0.86,-1.82s0.46,0.52 1,1.26z" fill="#616161" id="svg_41" opacity="0.2"/>
       <g id="svg_42">
        <polygon fill="#333333" id="svg_43" points="23.197,142.238 23.744,142.964 23.498,142.09       "/>
        <polygon fill="#333333" id="svg_44" points="25.087,143.999 25.633,144.727 25.387,143.852       "/>
        <polygon fill="#333333" id="svg_45" points="22.205,137.903 22.75,138.629 22.504,137.755       "/>
        <polygon fill="#333333" id="svg_46" points="22.925,139.428 23.471,140.153 23.225,139.278       "/>
        <polygon fill="#333333" id="svg_47" points="23.646,140.952 24.192,141.677 23.944,140.803       "/>
        <polygon fill="#333333" id="svg_48" points="24.367,142.476 24.913,143.201 24.666,142.327       "/>
        <path d="m24.3,144.49c-0.06,-0.04 -0.12,-0.08 -0.17,-0.11l-0.32,-0.43l0.3,-0.15l0.19,0.69z" fill="#333333" id="svg_49"/>
        <polygon fill="#333333" id="svg_50" points="21.757,139.189 22.302,139.915 22.056,139.042       "/>
        <polygon fill="#333333" id="svg_51" points="22.478,140.713 23.023,141.439 22.776,140.566       "/>
        <path d="m21.59,141l-0.24,-0.31c-0.03,-0.19 -0.04,-0.37 -0.04,-0.55l0.03,-0.01l0.25,0.87z" fill="#333333" id="svg_52"/>
        <polygon fill="#333333" id="svg_53" points="22.078,142.085 22.624,142.809 22.375,141.935       "/>
       </g>
       <g id="svg_54">
        <polygon fill="#333333" id="svg_55" points="34.991,142.238 34.445,142.964 34.693,142.09       "/>
        <polygon fill="#333333" id="svg_56" points="33.102,143.999 32.557,144.727 32.804,143.852       "/>
        <polygon fill="#333333" id="svg_57" points="35.985,137.903 35.439,138.629 35.686,137.755       "/>
        <polygon fill="#333333" id="svg_58" points="35.264,139.428 34.719,140.153 34.966,139.278       "/>
        <polygon fill="#333333" id="svg_59" points="34.544,140.952 33.997,141.677 34.245,140.803       "/>
        <polygon fill="#333333" id="svg_60" points="33.823,142.476 33.277,143.201 33.525,142.327       "/>
        <path d="m33.89,144.49c0.06,-0.04 0.12,-0.08 0.17,-0.11l0.32,-0.43l-0.3,-0.15l-0.19,0.69z" fill="#333333" id="svg_61"/>
        <polygon fill="#333333" id="svg_62" points="36.433,139.189 35.887,139.915 36.134,139.042       "/>
        <polygon fill="#333333" id="svg_63" points="35.712,140.713 35.167,141.439 35.414,140.566       "/>
        <path d="m36.88,140.14c0,0.18 -0.01,0.36 -0.04,0.55l-0.24,0.31l0.25,-0.87l0.03,0.01z" fill="#333333" id="svg_64"/>
        <polygon fill="#333333" id="svg_65" points="36.113,142.085 35.567,142.809 35.814,141.935       "/>
       </g>
      </g>
      <g id="svg_66">
       <path d="m36.63,133.57c0,0 -0.87,1.91 -2.2,3.47c-0.91,1.05 -2.03,1.94 -3.24,1.96l-0.01,0c-0.03,0 -0.06,0 -0.08,-0.01c0.4,-0.52 0.71,-1.19 0.9,-1.95c0.12,-0.5 0.18,-1.03 0.18,-1.59c0,-2 -0.83,-3.7 -2.01,-4.37c-0.06,0 -0.12,0.02 -0.17,0.03c-0.04,0.01 -0.07,0.02 -0.11,0.03c-0.02,0.01 -0.04,0.01 -0.06,0.02c-0.04,0.02 -0.08,0.03 -0.12,0.05c-0.01,0.01 -0.02,0.01 -0.03,0.02c-0.03,0.02 -0.06,0.04 -0.09,0.06c-0.01,0 -0.03,0.01 -0.03,0.01c-0.01,0.01 -0.02,0.01 -0.03,0.02c-0.09,0.07 -0.18,0.15 -0.26,0.24c-0.07,0.08 -0.13,0.17 -0.17,0.26l0,0.01l0,0c0,0 0,0 -0.01,0l0,-0.01c-0.04,-0.09 -0.1,-0.18 -0.17,-0.26c-0.09,-0.11 -0.19,-0.2 -0.32,-0.27c-0.07,-0.06 -0.16,-0.1 -0.24,-0.13c-0.11,-0.04 -0.22,-0.07 -0.34,-0.08c-1.18,0.67 -2.01,2.37 -2.01,4.37c0,0.56 0.07,1.1 0.18,1.59c0.19,0.76 0.5,1.43 0.9,1.95c-0.02,0.01 -0.05,0.01 -0.08,0.02l-0.01,0c-1.21,-0.02 -2.33,-0.91 -3.23,-1.97c-1.34,-1.55 -2.21,-3.47 -2.21,-3.47l5.38,-5.43l0.13,-0.13l0.02,-0.02l0.14,-0.14l1.86,-1.97l0,0l0.01,0l0,0l0,0l0.04,0.04l1.82,1.93l0.16,0.16l0.13,0.13l5.38,5.43z" fill="#D66142" id="svg_67"/>
       <g id="svg_68">
        <polygon fill="#616161" id="svg_69" opacity="0.2" points="29.097,130.762 30.541,128.842 29.097,126.876 29.097,126.869         29.094,126.873 29.093,126.869 29.093,126.876 27.649,128.842 29.093,130.762 29.093,130.768 29.094,130.766 29.097,130.768               "/>
        <polygon fill="#FFD675" id="svg_70" points="31.249,128.14 29.098,131.016 29.098,131.021 29.094,131.019 29.092,131.021         29.092,131.016 26.941,128.14 27.073,128.006 27.091,127.988 27.688,128.79 27.883,129.047 29.092,127.435 29.092,127.429         29.094,127.431 29.098,127.429 29.098,127.435 30.307,129.047 30.5,128.79 31.099,127.988 31.117,128.006       "/>
        <polygon fill="#616161" id="svg_71" opacity="0.2" points="29.097,130.05 29.811,129.098 29.097,128.145 29.097,128.14         29.094,128.142 29.093,128.14 29.093,128.145 28.378,129.098 29.093,130.05 29.093,130.056 29.094,130.054 29.097,130.056               "/>
        <polygon fill="#616161" id="svg_72" opacity="0.2" points="23.921,128.928 24.635,127.976 23.921,127.024 23.921,127.017         23.919,127.02 23.917,127.017 23.917,127.024 23.203,127.976 23.917,128.928 23.917,128.934 23.919,128.932 23.921,128.934               "/>
       </g>
       <path d="m30.17,131.08c-0.47,0.05 -0.87,0.34 -1.08,0.75c-0.2,-0.41 -0.6,-0.7 -1.07,-0.75c-1.18,0.67 -2.01,2.37 -2.01,4.37c0,1.42 0.42,2.68 1.08,3.54c0.01,0.01 0.01,0.01 0.01,0.02c0,0 0,0 0.01,0l0,0c0.34,0.43 0.74,0.76 1.19,0.95c0.25,0.1 0.52,0.16 0.79,0.16l0,0l0,0c0,0 0.01,0 0.01,0l0,0c0.27,0 0.54,-0.06 0.79,-0.16c0.45,-0.19 0.85,-0.52 1.19,-0.95l0,0c0,0 0,0 0,0c0.01,-0.01 0.01,-0.01 0.01,-0.02c0.67,-0.86 1.09,-2.12 1.09,-3.54c0,-2 -0.83,-3.7 -2.01,-4.37z" fill="#FDD8AB" id="svg_73"/>
       <g id="svg_74">
        <g id="svg_75">
         <path d="m26.79,135.18c-0.02,0.03 -0.03,0.07 -0.03,0.1c0,0.24 0.3,0.44 0.66,0.44c0.36,0 0.66,-0.2 0.66,-0.44c0,-0.03 -0.01,-0.07 -0.02,-0.1l-1.27,0z" fill="#333333" id="svg_76"/>
        </g>
        <g id="svg_77">
         <path d="m31.41,135.18c0.01,0.03 0.02,0.07 0.02,0.1c0,0.24 -0.3,0.44 -0.66,0.44c-0.36,0 -0.66,-0.2 -0.66,-0.44c0,-0.03 0.01,-0.07 0.02,-0.1l1.28,0z" fill="#333333" id="svg_78"/>
        </g>
        <g id="svg_79">
         <path d="m29.95,138.42l-0.85,0l-0.01,0l-0.85,0c0.17,0.23 0.49,0.38 0.85,0.38l0,0.01l0,0c0.01,0 0.01,0 0.01,0l0,-0.01c0.36,0 0.68,-0.15 0.85,-0.38z" fill="#D66142" id="svg_80"/>
         <path d="m29.09,138.37c-0.38,-0.46 -0.94,0.12 -0.94,0.12l0.94,0l0.01,0l0.94,0c0,0 -0.56,-0.58 -0.95,-0.12z" fill="#D66B4F" id="svg_81"/>
        </g>
        <polygon fill="#616161" id="svg_82" opacity="0.2" points="29.097,135.907 29.097,135.893 29.094,135.9 29.093,135.893         29.093,135.907 28.598,137.486 29.093,137.486 29.097,137.486 29.592,137.486       "/>
        <polygon fill="#D66142" id="svg_83" points="30.041,134.235 31.347,134.304 31.364,134.307 31.374,134.316 31.892,134.883         31.318,134.373 31.346,134.383 30.04,134.448       "/>
        <polygon fill="#D66142" id="svg_84" points="28.262,134.448 26.956,134.383 26.983,134.373 26.41,134.883 26.928,134.316         26.938,134.307 26.956,134.304 28.262,134.235       "/>
       </g>
      </g>
      <g id="svg_85">
       <path d="m27,145.78c-0.28,-0.11 -0.55,-0.22 -0.8,-0.33c-0.01,0 -0.01,0 -0.02,-0.01c-1.41,-0.7 -2.35,-1.89 -2.35,-3.24c0,-0.54 -0.12,-0.59 0.16,-1.06l1.54,-0.02l1.47,4.66z" fill="#616161" id="svg_86" opacity="0.2"/>
       <path d="m29.98,139.96c-0.26,0.1 -0.54,0.16 -0.82,0.16c-0.02,0 -0.04,0 -0.06,0l0,0c0,0 0,0 -0.01,0l0,0l0,0c-0.02,0 -0.04,0 -0.05,0c-0.29,0 -0.57,-0.06 -0.84,-0.16c-0.01,0.06 -0.02,0.13 -0.02,0.21l0,0.37c0.27,0.12 0.56,0.18 0.86,0.18c0.01,0 0.03,0 0.05,0c0.03,0 0.05,0 0.07,0c0.29,0 0.58,-0.06 0.85,-0.18l0,-0.37c0,-0.08 -0.01,-0.15 -0.03,-0.21z" fill="#616161" id="svg_87" opacity="0.2"/>
       <path d="m29.54,144.13l-0.44,0l-0.01,0l-0.44,0l0.23,1.98c0.07,0.01 0.14,0.01 0.21,0.01l0,0l0.01,0c0,0 0,0 0,0l0,0c0.07,0 0.14,0 0.21,-0.01l0.23,-1.98z" fill="#616161" id="svg_88" opacity="0.2"/>
       <path d="m31.18,145.78c0.29,-0.11 0.56,-0.22 0.81,-0.33c0.01,0 0.01,0 0.02,-0.01c1.41,-0.7 2.35,-1.89 2.35,-3.24c0,-0.54 0.12,-0.59 -0.16,-1.06l-1.54,-0.02l-1.48,4.66z" fill="#616161" id="svg_89" opacity="0.2"/>
      </g>
     </g>
     <path d="m37.82,145.68l-2.51,0.74l-0.23,0.08c-0.25,-0.42 -0.43,-0.69 -0.46,-0.72c-0.01,0.02 -0.03,0.04 -0.04,0.06c-0.2,0.33 -0.31,0.65 -0.38,0.94l-0.67,0.2l-4.43,1.33l0,-22.35l0.04,-0.04l1.82,1.93l0.16,0.16l0.13,0.13l5.38,5.43c0,0 -0.87,1.92 -2.21,3.47l1.29,0c0,0 1.16,1.34 1.16,3.1c0,0.18 -0.01,0.36 -0.04,0.55c-0.08,0.6 -0.31,1.24 -0.77,1.88l0,0c0.07,0.09 0.14,0.18 0.21,0.27c0.08,0.1 0.15,0.2 0.23,0.31c0.46,0.65 0.93,1.49 1.32,2.53z" fill="#616161" id="svg_90" opacity="0.2"/>
     <path d="m30,131.11c0.06,-0.02 0.11,-0.03 0.17,-0.03c-0.06,0 -0.12,0.01 -0.17,0.03z" fill="#616161" id="svg_91" opacity="0.2"/>
     <path d="m29.53,131.32c0.01,-0.01 0.02,-0.01 0.03,-0.02c-0.01,0.01 -0.02,0.01 -0.03,0.02z" fill="#616161" id="svg_92" opacity="0.2"/>
     <path d="m29.68,131.23c0.01,-0.01 0.02,-0.01 0.03,-0.02c-0.01,0.01 -0.02,0.01 -0.03,0.02z" fill="#616161" id="svg_93" opacity="0.2"/>
     <path d="m29.83,131.16c0.02,-0.01 0.04,-0.01 0.06,-0.02c-0.02,0.01 -0.04,0.01 -0.06,0.02z" fill="#616161" id="svg_94" opacity="0.2"/>
    </g>
    <g id="svg_95">
     <g id="svg_96">
      <g id="svg_97">
       <polygon fill="#C9C9C9" id="svg_98" points="34.802,161.971 21.569,161.971 21.628,161.13 21.667,160.619 21.823,158.429        21.862,157.911 21.909,157.212 21.909,157.211 21.958,156.561 22.457,156.553 22.693,156.547 22.938,156.54 23.181,156.537        23.462,156.532 23.8,156.522 24.398,156.51 25.063,156.498 28.182,156.434 28.188,156.434 31.309,156.498 31.972,156.51        32.568,156.522 32.906,156.532 33.187,156.537 33.433,156.54 33.678,156.547 33.912,156.553 34.41,156.561 34.458,157.212        34.509,157.911 34.545,158.429 34.704,160.619 34.742,161.139      "/>
       <path d="m28.19,158.04l0,3.93l-6.02,0c0.99,-1.39 2.38,-2.81 3.91,-2.81l0.02,0c0.34,-0.43 0.73,-0.76 1.17,-0.95c0.27,-0.11 0.56,-0.18 0.86,-0.18c0.01,0 0.03,0.01 0.05,0.01c0,0 0,0 0.01,0z" fill="#616161" id="svg_99" opacity="0.2"/>
       <g id="svg_100">
        <path d="m37.82,147.87c0.03,3.86 -1.14,6.44 -2.23,8c-0.05,0.07 -0.1,0.14 -0.15,0.21c-0.06,0.08 -0.12,0.16 -0.18,0.23c-0.04,0.05 -0.08,0.1 -0.11,0.14c-0.06,0.07 -0.11,0.13 -0.16,0.19l0,0c-0.06,0.07 -0.11,0.13 -0.16,0.18c-0.13,0.15 -0.26,0.28 -0.37,0.39c-0.15,0.14 -0.28,0.26 -0.38,0.34c-0.17,0.15 -0.28,0.22 -0.28,0.22l-0.4,-0.1l-0.07,-0.02l-0.01,0l-0.16,-0.04l-0.04,-0.01l-0.57,0.02l0,0l-0.87,0.04l-3.5,0.14l0,0l-3.49,-0.14l-0.87,-0.04l-0.57,-0.02l-0.05,0.01l0,0l-0.16,0.04l-0.07,0.02l-0.41,0.1c0,0 -0.1,-0.07 -0.28,-0.22c-0.04,-0.03 -0.08,-0.07 -0.13,-0.11c-0.01,-0.01 -0.03,-0.03 -0.04,-0.04c-0.06,-0.05 -0.13,-0.12 -0.2,-0.19c0,0 0,0 0,0l-0.09,-0.08c-0.06,-0.07 -0.12,-0.13 -0.19,-0.2c-0.03,-0.03 -0.06,-0.07 -0.09,-0.11c-0.04,-0.03 -0.07,-0.07 -0.11,-0.12c-0.01,-0.01 -0.03,-0.03 -0.05,-0.06c-0.05,-0.06 -0.11,-0.12 -0.16,-0.19c-0.07,-0.09 -0.14,-0.18 -0.22,-0.28c-0.07,-0.09 -0.14,-0.2 -0.22,-0.31c-0.46,-0.65 -0.93,-1.49 -1.32,-2.52l2.5,-0.75l0.31,-0.09c0.25,0.42 0.44,0.7 0.47,0.73c0.23,-0.35 0.34,-0.68 0.42,-1l0.67,-0.2l4.22,-1.26l2.85,-0.85l0.91,-0.27c0.03,0.11 0.07,0.22 0.11,0.34c1.63,0.7 0.81,1.82 1.71,3.24c0.1,-0.11 1.87,-2.82 2.17,-4.77l0.22,-0.07l1.76,-0.52l0.04,0z" fill="#D66142" id="svg_101"/>
        <path d="m28.19,154.98l-0.58,0l0.26,-2.07c0.1,-0.01 0.21,-0.01 0.32,-0.01l0,2.08z" fill="#616161" id="svg_102" opacity="0.2"/>
       </g>
       <g id="svg_103">
        <g id="svg_104">
         <path d="m28.18,161.97l6.02,0c-0.99,-1.39 -2.38,-2.82 -3.92,-2.82l-0.01,0c-0.55,-0.69 -1.25,-1.12 -2.03,-1.12c-0.02,0 -0.04,0.01 -0.06,0.01l0,3.93z" fill="#616161" id="svg_105" opacity="0.2"/>
         <path d="m28.18,154.98l0.58,0l-0.26,-2.07c-0.11,-0.01 -0.21,-0.01 -0.32,-0.01l0,2.08z" fill="#616161" id="svg_106" opacity="0.2"/>
        </g>
        <path d="m30.27,153.24c2.92,0.64 4.5,1.62 5.32,2.63c-0.6,0.86 -1.18,1.41 -1.51,1.68l-3.81,-4.31z" fill="#616161" id="svg_107" opacity="0.2"/>
        <g id="svg_108">
         <path d="m28.18,158.89c0.02,0 0.04,0 0.06,0c0.29,0 0.57,0.06 0.83,0.17c0.02,-0.07 0.03,-0.14 0.03,-0.21l0,-0.37c-0.27,-0.12 -0.56,-0.19 -0.86,-0.19c-0.02,0 -0.04,0.01 -0.06,0.01l0,0.59z" fill="#FDD8AB" id="svg_109"/>
         <path d="m28.18,159.73c0.01,0 0.02,0 0.03,0c0.42,0 0.77,-0.28 0.86,-0.67c-0.26,-0.11 -0.54,-0.17 -0.83,-0.17c-0.02,0 -0.04,0 -0.06,0l0,0.84z" fill="#FDD8AB" id="svg_110"/>
        </g>
        <path d="m23.07,157.88l1.55,0.02l2.65,0.03l0,0.54c0.27,-0.12 0.56,-0.18 0.86,-0.18c0.01,0 0.03,0 0.05,0l0,0c0,0 0,0 0,0c0.01,0 0.01,0 0.01,0l0,0c0.02,0 0.03,0 0.05,0c0.3,0 0.59,0.06 0.86,0.18l0,-0.54l2.65,-0.03l1.54,-0.02c0.27,-0.48 0.16,-0.52 0.16,-1.07c0,-1.34 -0.94,-2.53 -2.35,-3.24c-0.01,0 -0.01,-0.01 -0.02,-0.01c-0.26,-0.12 -0.52,-0.23 -0.81,-0.32c-0.54,-0.18 -1.14,-0.3 -1.77,-0.33c-0.04,0 -0.07,-0.01 -0.1,-0.01c-0.07,0 -0.14,0 -0.21,0l0,0c-0.01,0 -0.01,0 -0.01,0c0,0 0,0 0,0l0,0c-0.07,0 -0.14,0 -0.21,0c-0.03,0 -0.07,0 -0.1,0.01c-0.63,0.03 -1.23,0.14 -1.78,0.33c-0.28,0.09 -0.55,0.2 -0.8,0.32c-0.01,0 -0.01,0 -0.02,0.01c-1.42,0.71 -2.35,1.9 -2.35,3.24c0,0.55 -0.12,0.59 0.15,1.07z" fill="#FDD8AB" id="svg_111"/>
        <path d="m28.19,158.89c-0.02,0 -0.05,0 -0.07,0c-0.28,0 -0.56,0.06 -0.83,0.17c-0.01,-0.07 -0.02,-0.14 -0.02,-0.21l0,-0.37c0.27,-0.12 0.56,-0.19 0.85,-0.19c0.02,0 0.05,0.01 0.07,0.01l0,0.59z" fill="#FDD8AB" id="svg_112"/>
        <path d="m28.19,159.73c-0.01,0 -0.02,0 -0.03,0c-0.42,0 -0.77,-0.28 -0.87,-0.67c0.27,-0.11 0.55,-0.17 0.83,-0.17c0.03,0 0.05,0 0.07,0l0,0.84z" fill="#FDD8AB" id="svg_113"/>
       </g>
       <path d="m26.09,153.24l-1.57,1.79l-0.1,0.11l-1.24,1.4l-0.26,0.29l-0.64,0.73c-0.04,-0.04 -0.08,-0.08 -0.13,-0.12c-0.01,-0.01 -0.03,-0.02 -0.04,-0.03c-0.06,-0.06 -0.13,-0.13 -0.2,-0.2c0,0 0,0 0,0l0,0c-0.03,-0.02 -0.06,-0.05 -0.09,-0.08c-0.06,-0.06 -0.12,-0.13 -0.19,-0.2c-0.03,-0.03 -0.06,-0.07 -0.09,-0.1c-0.04,-0.04 -0.07,-0.08 -0.11,-0.12c-0.01,-0.02 -0.03,-0.04 -0.05,-0.06l0,0c-0.05,-0.07 -0.11,-0.13 -0.16,-0.2c-0.07,-0.09 -0.14,-0.18 -0.22,-0.28c-0.07,-0.09 -0.15,-0.2 -0.22,-0.3c0.82,-1.01 2.4,-1.99 5.31,-2.63z" fill="#616161" id="svg_114" opacity="0.2"/>
       <path d="m26.09,153.24l-1.69,3.27l-0.58,1.12l-0.13,0.25l-2.12,4.09c0,0 -1.16,-1.33 -1.17,-3.1c0,-0.18 0.01,-0.36 0.04,-0.55c0.08,-0.6 0.32,-1.23 0.78,-1.87c0.43,-0.61 1.08,-1.22 2,-1.81c0.05,-0.04 0.11,-0.07 0.17,-0.11c0.56,-0.35 1.21,-0.68 1.98,-1c0.15,-0.07 0.3,-0.13 0.46,-0.19c0.09,-0.04 0.17,-0.07 0.26,-0.1z" fill="#EBEBEB" id="svg_115"/>
       <path d="m30.27,153.24c1.09,0.4 1.98,0.84 2.71,1.29c0.06,0.03 0.12,0.07 0.17,0.11c1.89,1.21 2.62,2.51 2.78,3.68c0.03,0.19 0.04,0.37 0.04,0.55c-0.01,1.77 -1.17,3.1 -1.17,3.1l-4.53,-8.73z" fill="#EBEBEB" id="svg_116"/>
       <path d="m30.9,149.92l0.91,-0.27c0.03,0.11 0.07,0.22 0.11,0.34c1.63,0.7 0.81,1.82 1.71,3.25c0.1,-0.12 1.87,-2.82 2.17,-4.78l0.22,-0.07c0.47,2.04 -2.62,5.46 -2.62,5.46s-1.38,-3.41 -2.5,-3.93z" fill="#616161" id="svg_117" opacity="0.2"/>
       <path d="m23.83,152.03c-0.5,0.94 -0.86,1.82 -0.86,1.82s-0.46,-0.51 -1.01,-1.26l0.31,-0.09c0.25,0.42 0.44,0.7 0.47,0.74c0.23,-0.36 0.34,-0.69 0.42,-1.01l0.67,-0.2z" fill="#616161" id="svg_118" opacity="0.2"/>
       <g id="svg_119">
        <polygon fill="#333333" id="svg_120" points="34.081,156.776 33.535,156.05 33.782,156.924       "/>
        <polygon fill="#333333" id="svg_121" points="32.192,155.014 31.646,154.288 31.894,155.162       "/>
        <polygon fill="#333333" id="svg_122" points="35.075,161.11 34.528,160.386 34.776,161.259       "/>
        <polygon fill="#333333" id="svg_123" points="34.354,159.587 33.808,158.86 34.055,159.734       "/>
        <polygon fill="#333333" id="svg_124" points="33.633,158.062 33.087,157.337 33.334,158.21       "/>
        <polygon fill="#333333" id="svg_125" points="32.912,156.538 32.367,155.813 32.614,156.686       "/>
        <path d="m32.98,154.53c0.06,0.03 0.12,0.07 0.17,0.11l0.32,0.42l-0.3,0.15l-0.19,-0.68z" fill="#333333" id="svg_126"/>
        <polygon fill="#333333" id="svg_127" points="35.522,159.825 34.976,159.098 35.224,159.972       "/>
        <polygon fill="#333333" id="svg_128" points="34.802,158.3 34.256,157.573 34.503,158.448       "/>
        <path d="m35.69,158.01l0.24,0.31c0.02,0.19 0.03,0.37 0.03,0.55l-0.02,0.01l-0.25,-0.87z" fill="#333333" id="svg_129"/>
        <polygon fill="#333333" id="svg_130" points="35.202,156.93 34.657,156.203 34.904,157.079       "/>
       </g>
       <g id="svg_131">
        <polygon fill="#333333" id="svg_132" points="22.288,156.776 22.833,156.05 22.586,156.924       "/>
        <polygon fill="#333333" id="svg_133" points="24.177,155.014 24.724,154.288 24.475,155.162       "/>
        <polygon fill="#333333" id="svg_134" points="21.294,161.11 21.84,160.386 21.593,161.259       "/>
        <polygon fill="#333333" id="svg_135" points="22.015,159.587 22.56,158.86 22.313,159.734       "/>
        <polygon fill="#333333" id="svg_136" points="22.736,158.062 23.281,157.337 23.035,158.21       "/>
        <polygon fill="#333333" id="svg_137" points="23.456,156.538 24.003,155.813 23.755,156.686       "/>
        <path d="m23.39,154.53c-0.06,0.03 -0.12,0.07 -0.17,0.11l-0.32,0.42l0.3,0.15l0.19,-0.68z" fill="#333333" id="svg_138"/>
        <polygon fill="#333333" id="svg_139" points="20.847,159.825 21.393,159.098 21.145,159.972       "/>
        <polygon fill="#333333" id="svg_140" points="21.567,158.3 22.112,157.573 21.866,158.448       "/>
        <path d="m20.68,158.01l-0.25,0.88l-0.03,-0.02c0,-0.18 0.01,-0.36 0.04,-0.55l0.24,-0.31z" fill="#333333" id="svg_141"/>
        <polygon fill="#333333" id="svg_142" points="21.167,156.93 21.712,156.203 21.465,157.079       "/>
       </g>
      </g>
      <g id="svg_143">
       <path d="m26.19,160.01c-0.03,0 -0.09,0 -0.09,0c0.05,0 0.08,0 0.1,0c0,0 0,0 0,0l-0.01,0z" fill="#D66142" id="svg_144"/>
       <path d="m30.18,160c0.01,0.01 0.04,0.01 0.09,0.01c0,0 -0.06,0 -0.09,0c0,0 0,0 0,-0.01z" fill="#D66142" id="svg_145"/>
       <path d="m35.72,165.45l-5.38,5.42l-0.13,0.14l-0.02,0.02l-0.14,0.13l-1.86,1.98l0,0l-0.01,0l0,0l-0.45,-0.49l-1.42,-1.49l-0.13,-0.13l-0.02,-0.02l-0.13,-0.14l-5.38,-5.42c0,0 0.87,-1.92 2.21,-3.48c0.9,-1.05 2.02,-1.94 3.23,-1.96l0.01,0c0.03,0 0.06,0.01 0.08,0.01c-0.4,0.52 -0.71,1.19 -0.89,1.95c-0.12,0.5 -0.19,1.03 -0.19,1.6c0,1.99 0.83,3.7 2.01,4.37c0.29,-0.03 0.56,-0.16 0.77,-0.35c0.04,-0.03 0.08,-0.08 0.12,-0.12c0.07,-0.08 0.13,-0.17 0.18,-0.28l0,-0.01c0,0 0,0 0.01,0.01c0,0 0,0 0,-0.01l0,0.01c0.05,0.1 0.11,0.2 0.19,0.28c0.03,0.04 0.07,0.09 0.11,0.12c0.21,0.19 0.48,0.32 0.77,0.35c1.18,-0.67 2.01,-2.38 2.01,-4.37c0,-0.57 -0.06,-1.1 -0.19,-1.6c-0.18,-0.76 -0.49,-1.43 -0.89,-1.95c0.03,0 0.05,-0.01 0.08,-0.01l0.01,0c1.22,0.02 2.33,0.91 3.24,1.96c1.33,1.56 2.2,3.48 2.2,3.48z" fill="#D66142" id="svg_146"/>
       <g id="svg_147">
        <polygon fill="#616161" id="svg_148" opacity="0.2" points="28.182,168.252 26.738,170.172 28.182,172.138 28.182,172.145         28.185,172.142 28.187,172.145 28.187,172.138 29.63,170.172 28.187,168.252 28.187,168.246 28.185,168.249 28.182,168.246               "/>
        <polygon fill="#FFD675" id="svg_149" points="30.34,170.871 30.208,171.007 30.19,171.028 29.591,170.227 29.397,169.969         28.188,171.582 28.188,171.588 28.185,171.585 28.182,171.588 28.182,171.582 26.974,169.969 26.779,170.229 26.178,171.028         26.164,171.007 26.029,170.871 28.182,168 28.182,167.996 28.185,167.997 28.188,167.996 28.188,168       "/>
        <polygon fill="#616161" id="svg_150" opacity="0.2" points="28.182,168.965 27.469,169.916 28.182,170.869 28.182,170.874         28.185,170.871 28.187,170.874 28.187,170.869 28.901,169.916 28.187,168.965 28.187,168.958 28.185,168.961 28.182,168.958               "/>
       </g>
       <path d="m27.11,167.94c0.47,-0.05 0.87,-0.35 1.07,-0.75c0.21,0.4 0.61,0.7 1.08,0.75c1.18,-0.67 2.01,-2.38 2.01,-4.37c0,-1.42 -0.42,-2.69 -1.08,-3.55c-0.01,0 -0.01,-0.01 -0.02,-0.01l0,0l0,0c-0.34,-0.44 -0.74,-0.77 -1.19,-0.95c-0.25,-0.11 -0.52,-0.16 -0.79,-0.17l0,0c0,0 -0.01,0 -0.01,0c0,0 0,0 0,0l0,0c-0.27,0.01 -0.54,0.06 -0.79,0.17c-0.45,0.18 -0.85,0.51 -1.19,0.95l-0.01,0l0,0c0,0 0,0.01 -0.01,0.01c-0.66,0.86 -1.08,2.13 -1.08,3.55c0,1.99 0.83,3.7 2.01,4.37z" fill="#FDD8AB" id="svg_151"/>
       <g id="svg_152">
        <g id="svg_153">
         <path d="m30.5,163.84c0.01,-0.04 0.02,-0.07 0.02,-0.11c0,-0.24 -0.3,-0.44 -0.66,-0.44c-0.36,0 -0.66,0.2 -0.66,0.44c0,0.04 0.01,0.07 0.02,0.11l1.28,0z" fill="#333333" id="svg_154"/>
        </g>
        <g id="svg_155">
         <path d="m25.87,163.84c-0.01,-0.04 -0.02,-0.07 -0.02,-0.11c0,-0.24 0.3,-0.44 0.66,-0.44s0.66,0.2 0.66,0.44c0,0.04 -0.01,0.07 -0.02,0.11l-1.28,0z" fill="#333333" id="svg_156"/>
        </g>
        <g id="svg_157">
         <path d="m27.33,160.6l0.85,0l0.01,0l0.85,0c-0.17,-0.23 -0.49,-0.38 -0.85,-0.39l0,0c0,0 0,0 0,0c-0.01,0 -0.01,0 -0.01,0l0,0c-0.36,0.01 -0.68,0.16 -0.85,0.39z" fill="#D66142" id="svg_158"/>
         <path d="m28.18,160.65c0.4,0.45 0.95,-0.13 0.95,-0.13l-0.94,0l-0.01,0l-0.94,0c0,0 0.55,0.58 0.94,0.13z" fill="#D66B4F" id="svg_159"/>
        </g>
        <polygon fill="#616161" id="svg_160" opacity="0.2" points="28.182,163.105 28.182,163.121 28.185,163.113 28.187,163.121         28.187,163.105 28.682,161.527 28.187,161.527 28.182,161.527 27.688,161.527       "/>
        <polygon fill="#D66142" id="svg_161" points="27.239,164.779 25.934,164.709 25.915,164.708 25.905,164.697 25.387,164.133         25.96,164.641 25.934,164.629 27.239,164.565       "/>
        <polygon fill="#D66142" id="svg_162" points="29.017,164.565 30.323,164.629 30.296,164.641 30.869,164.133 30.352,164.697         30.341,164.708 30.324,164.709 29.017,164.779       "/>
       </g>
      </g>
      <g id="svg_163">
       <path d="m30.27,153.24c0.29,0.1 0.55,0.21 0.81,0.32c0.01,0 0.01,0 0.02,0.01c1.42,0.71 2.35,1.9 2.35,3.24c0,0.55 0.12,0.59 -0.16,1.07l-1.54,0.02l-1.48,-4.66z" fill="#616161" id="svg_164" opacity="0.2"/>
       <path d="m27.29,159.06c0.27,-0.11 0.55,-0.17 0.83,-0.17c0.02,0 0.04,0 0.06,0l0,0c0,0 0,0 0.01,0c0,0 0,0 0,0l0,0c0.02,0 0.04,0 0.06,0c0.28,0 0.56,0.06 0.83,0.17c0.01,-0.07 0.02,-0.14 0.02,-0.21l0,-0.38c-0.27,-0.11 -0.56,-0.18 -0.86,-0.18c-0.02,0 -0.03,0.01 -0.05,0.01c-0.02,0 -0.04,-0.01 -0.06,-0.01c-0.3,0 -0.59,0.07 -0.86,0.18l0,0.38c0,0.07 0.01,0.14 0.02,0.21z" fill="#616161" id="svg_165" opacity="0.2"/>
       <path d="m27.74,154.88l0.44,0l0.01,0l0.44,0l-0.23,-1.98c-0.07,0 -0.14,0 -0.21,0l0,0c0,0 -0.01,0 -0.01,0c0,0 0,0 0,0l0,0c-0.07,0 -0.14,0 -0.21,0l-0.23,1.98z" fill="#616161" id="svg_166" opacity="0.2"/>
       <path d="m26.09,153.24c-0.28,0.1 -0.55,0.21 -0.8,0.32c-0.01,0 -0.01,0 -0.02,0.01c-1.42,0.71 -2.35,1.9 -2.35,3.24c0,0.55 -0.12,0.59 0.15,1.07l1.55,0.02l1.47,-4.66z" fill="#616161" id="svg_167" opacity="0.2"/>
      </g>
     </g>
     <path d="m28.18,150.76l0,22.28l-0.46,-0.39l-1.41,-1.49l-0.13,-0.13l-0.02,-0.02l-0.13,-0.14l-5.38,-5.42c0,0 0.87,-1.92 2.21,-3.48l-1.29,0c0,0 -1.17,-1.33 -1.17,-3.1c0,-0.18 0.01,-0.36 0.04,-0.55c0.08,-0.6 0.32,-1.23 0.77,-1.87c-0.07,-0.09 -0.14,-0.18 -0.21,-0.28c-0.07,-0.09 -0.15,-0.2 -0.22,-0.3c-0.46,-0.66 -0.93,-1.49 -1.33,-2.53l2.51,-0.75l0.31,-0.09c0.25,0.42 0.44,0.7 0.47,0.74c0.22,-0.36 0.34,-0.69 0.42,-1.01l0.67,-0.2l4.21,-1.25l0.14,-0.02z" fill="#616161" id="svg_168" opacity="0.2"/>
    </g>
   </g>
  </g>
 </g>

</svg>